<svg width="505" height="288" viewBox="0 0 505 288" fill="none" xmlns="http://www.w3.org/2000/svg">
<path d="M13.6921 38.1411L11.6579 57.122H3.97014L0 21.496H5.44316L8.44531 49.5885L11.1388 21.496H16.5329L19.3316 49.7919L22.2356 21.496H27.1246L23.1545 57.122H15.7262L13.6921 38.1411Z" fill="white"/>
<path d="M35.5208 36.5137H43.2086V41.6062H35.5208V52.0365H45.1936V57.129H29.9233V21.496H45.1936V26.5884H35.5208V36.5137Z" fill="white"/>
<path d="M64.0692 21.0891C69.5124 21.0891 72.3111 24.3437 72.3111 30.0464V31.1687H67.0153V29.6957C67.0153 27.1495 65.9982 26.1815 64.2165 26.1815C62.4349 26.1815 61.4178 27.1495 61.4178 29.6957C61.4178 37.0257 72.3602 38.4005 72.3602 48.5784C72.3602 54.2811 69.5124 57.5358 64.0131 57.5358C58.5139 57.5358 55.666 54.2811 55.666 48.5784V46.3899H60.9619V48.9361C60.9619 51.4824 62.0842 52.3942 63.8658 52.3942C65.6475 52.3942 66.7698 51.4753 66.7698 48.9361C66.7698 41.6061 55.8273 40.2313 55.8273 30.0534C55.8273 24.3507 58.6261 21.0961 64.0692 21.0961V21.0891Z" fill="white"/>
<path d="M93.6908 57.122H88.0442L87.0762 50.6617H80.2091L79.2411 57.122H74.0996L79.8023 21.496H87.9951L93.6978 57.122H93.6908ZM80.9176 45.8218H86.3116L83.6111 27.8089L80.9106 45.8218H80.9176Z" fill="white"/>
<path d="M103.462 50.5565L107.734 21.496H112.875L107.376 57.122H99.0291L93.5298 21.496H99.1764L103.448 50.5565H103.462Z" fill="white"/>
<path d="M121.068 36.5137H128.756V41.6062H121.068V52.0365H130.741V57.129H115.471V21.496H130.741V26.5884H121.068V36.5137Z" fill="white"/>
<path d="M134.199 21.496H143.051C148.649 21.496 151.398 24.6033 151.398 30.299V48.3119C151.398 54.0146 148.649 57.115 143.051 57.115H134.199V21.496ZM139.797 26.5884V52.0365H142.953C144.735 52.0365 145.801 51.1177 145.801 48.5785V30.0535C145.801 27.5073 144.735 26.5954 142.953 26.5954H139.797V26.5884Z" fill="white"/>
<path d="M175.872 114.408H197.308V129.503H175.872V173.133H159.269V67.4612H203.2V82.5561H175.872V114.408Z" stroke="white" stroke-width="1.40288"/>
<path d="M209.835 92.8182C209.835 75.9135 218.743 66.2477 235.045 66.2477C251.346 66.2477 260.254 75.9065 260.254 92.8182V147.769C260.254 164.68 251.346 174.339 235.045 174.339C218.743 174.339 209.835 164.68 209.835 147.769V92.8182ZM226.445 148.828C226.445 156.375 229.77 159.244 235.052 159.244C240.333 159.244 243.658 156.375 243.658 148.828V91.766C243.658 84.2185 240.333 81.3497 235.052 81.3497C229.77 81.3497 226.445 84.2185 226.445 91.766V148.828Z" stroke="white" stroke-width="1.40288"/>
<path d="M305.701 173.133C304.796 170.418 304.193 168.756 304.193 160.149V143.546C304.193 133.733 300.868 130.107 293.32 130.107H287.583V173.133H270.979V67.4612H296.042C313.255 67.4612 320.648 75.4646 320.648 91.766V100.071C320.648 110.943 317.176 118.035 309.776 121.507C318.081 124.979 320.796 132.982 320.796 144.002V160.303C320.796 165.438 320.943 169.212 322.605 173.133H305.694H305.701ZM287.59 82.5561V115.012H294.078C300.265 115.012 304.045 112.297 304.045 103.838V93.4214C304.045 85.8739 301.478 82.5491 295.593 82.5491H287.59V82.5561Z" stroke="white" stroke-width="1.40288"/>
<path d="M171.554 216.691H188.29V228.468H171.554V262.515H158.588V180.035H192.881V191.812H171.554V216.678V216.691Z" fill="white"/>
<path d="M239.524 262.529H226.449L224.209 247.568H208.306L206.065 262.529H194.165L207.363 180.048H226.34L239.538 262.529H239.524ZM209.959 236.365H222.446L216.203 194.653L209.959 236.365Z" fill="white"/>
<path d="M272.997 238.606L281.837 180.048H299.871V262.529H287.616V203.384L278.667 262.529H266.412L256.752 204.203V262.529H245.44V180.048H263.474L273.024 238.606H272.997Z" fill="white"/>
<path d="M309.271 180.048H322.237V262.529H309.271V180.048Z" fill="white"/>
<path d="M331.664 180.048H344.629V250.751H365.956V262.529H331.664V180.048Z" fill="white"/>
<path d="M371.6 180.048H384.565V262.529H371.6V180.048Z" fill="white"/>
<path d="M406.958 214.806H424.746V226.583H406.958V250.738H429.351V262.515H394.006V180.035H429.351V191.812H406.958V214.792V214.806Z" fill="white"/>
<path d="M454.79 179.106C467.401 179.106 473.877 186.647 473.877 199.845V202.441H461.622V199.026C461.622 193.137 459.272 190.896 455.146 190.896C451.019 190.896 448.67 193.137 448.67 199.026C448.67 215.994 474 219.178 474 242.745C474 255.943 467.401 263.485 454.681 263.485C441.961 263.485 435.362 255.943 435.362 242.745V237.677H447.618V243.565C447.618 249.454 450.213 251.571 454.339 251.571C458.466 251.571 461.061 249.454 461.061 243.565C461.061 226.596 435.731 223.413 435.731 199.845C435.731 186.647 442.207 179.106 454.818 179.106H454.79Z" fill="white"/>
<path d="M174.553 9.64162C171.775 9.64162 170.021 11.1497 170.021 15.1199V21.0751H161.758V15.674C161.758 6.77976 166.206 1.69434 174.784 1.69434C183.363 1.69434 187.81 6.77976 187.81 15.674C187.81 33.1468 170.414 39.6632 170.414 48.7959C170.414 49.1957 170.414 49.5885 170.491 49.9883H187.01V57.9286H161.751V51.0966C161.751 34.732 179.07 32.0315 179.07 15.9896C179.07 10.9884 177.323 9.63461 174.546 9.63461L174.553 9.64162Z" stroke="white" stroke-width="1.40288"/>
<path d="M201.081 39.9858V45.1484C201.081 49.1185 202.828 50.5494 205.612 50.5494C208.397 50.5494 210.137 49.1185 210.137 45.1484V32.9153C210.137 28.9452 208.39 27.4371 205.612 27.4371C202.835 27.4371 201.081 28.9452 201.081 32.9153V34.5847H192.818L194.403 2.33965H217.438V10.2799H202.266L201.551 23.5441C203.136 20.9207 205.682 19.4898 209.176 19.4898C215.608 19.4898 218.862 24.0141 218.862 32.1998V44.5942C218.862 53.4885 214.415 58.5739 205.837 58.5739C197.258 58.5739 192.811 53.4885 192.811 44.5942V39.9858H201.074H201.081Z" stroke="white" stroke-width="1.40288"/>
<path d="M250.006 37.2082V44.5943C250.006 53.4885 245.559 58.574 236.981 58.574C228.402 58.574 223.955 53.4885 223.955 44.5943V15.6811C223.955 6.78682 228.402 1.7014 236.981 1.7014C245.559 1.7014 250.006 6.78682 250.006 15.6811V21.0821H241.744V15.1269C241.744 11.1568 239.997 9.64869 237.219 9.64869C234.442 9.64869 232.688 11.1568 232.688 15.1269V45.1484C232.688 49.1186 234.435 50.5495 237.219 50.5495C240.004 50.5495 241.744 49.1186 241.744 45.1484V37.2082H250.006Z" stroke="white" stroke-width="1.40288"/>
<path d="M273.595 57.9356C273.119 56.5047 272.803 55.6349 272.803 51.1036V42.3637C272.803 37.2011 271.056 35.2932 267.086 35.2932H264.07V57.9286H255.33V2.33965H268.517C277.573 2.33965 281.466 6.54827 281.466 15.1269V19.4968C281.466 25.2135 279.642 28.9522 275.749 30.7759C280.119 32.5997 281.55 36.8153 281.55 42.6092V51.1878C281.55 53.8883 281.627 55.8734 282.504 57.9356H273.61H273.595ZM264.063 10.2799V27.3599H267.479C270.734 27.3599 272.719 25.929 272.719 21.4819V16.0036C272.719 12.0335 271.372 10.2869 268.272 10.2869H264.063V10.2799Z" stroke="white" stroke-width="1.40288"/>
<path d="M295.053 13.4785H301.254V17.0909H295.053V23.4319H291.44V17.0909H285.24V13.4785H291.44V7.22865H295.053V13.4785Z" stroke="white" stroke-width="1.40288"/>
<path d="M329.647 81.9037C342.315 81.9037 345.149 75.7942 347.681 68.7868H358.715V173.14H342.315V93.5335H329.647V81.9037Z" fill="white"/>
<path d="M396.579 82.5C391.36 82.5 388.084 85.3338 388.084 92.783V103.964H372.583V93.8282C372.583 77.134 380.93 67.5944 397.028 67.5944C413.126 67.5944 421.473 77.134 421.473 93.8282C421.473 126.627 388.828 138.846 388.828 155.99C388.828 156.733 388.828 157.484 388.975 158.227H419.986V173.133H372.583V160.31C372.583 129.601 405.08 124.53 405.08 94.4174C405.08 85.0251 401.797 82.4929 396.586 82.4929L396.579 82.5Z" fill="white"/>
<path d="M440.405 139.443V149.129C440.405 156.586 443.687 159.265 448.899 159.265C454.111 159.265 457.393 156.579 457.393 149.129V126.171C457.393 118.715 454.111 115.888 448.899 115.888C443.687 115.888 440.405 118.722 440.405 126.171V129.3H424.903L427.884 68.7728H471.114V83.6783H442.642L441.302 108.572C444.284 103.655 449.053 100.969 455.612 100.969C467.683 100.969 473.8 109.463 473.8 124.818V148.07C473.8 164.765 465.453 174.304 449.355 174.304C433.257 174.304 424.91 164.765 424.91 148.07V139.422H440.412L440.405 139.443Z" fill="white"/>
<path d="M493.349 89.6897H504.993V96.4656H493.349V108.369H486.573V96.4656H474.929V89.6897H486.573V77.9547H493.349V89.6897Z" fill="white"/>
</svg>
