<svg width="732" height="250" viewBox="0 0 732 250" fill="none" xmlns="http://www.w3.org/2000/svg">
<path d="M31.3973 3.61643C69.5343 3.94521 100.438 36.1644 100.438 75.6165C100.438 115.233 69.5343 147.288 31.3973 147.452H0V129.863H31.0685C43.7261 129.863 55.7261 124.438 64.7672 114.411C73.9727 104.055 79.0686 90.411 79.0686 75.6165C79.0686 60.9864 73.9727 47.1781 64.7672 36.9863C55.7261 26.9589 43.7261 21.3699 31.0685 21.3699H0V3.61643H31.3973Z" fill="white"/>
<path d="M190.707 63.9453V81.6987H108.679V63.9453H190.707ZM108.679 147.452V129.863H204.351V147.452H108.679ZM108.679 3.61643H204.351V21.3699H108.679V3.61643Z" fill="white"/>
<path d="M284.707 3.61643L343.721 147.452H322.187L278.461 41.4247L278.132 40.274V40.4384L277.968 40.274L277.639 41.4247L234.077 147.452H212.543L271.557 3.61643H284.707Z" fill="white"/>
<path d="M445.743 129.863V147.452H352.044V3.61643H373.25V129.863H445.743Z" fill="white"/>
<path d="M558.526 25.4795L476.334 129.863H558.526V147.452H454.142V125.589L536.17 21.3699H454.142V3.61643H558.526V25.4795Z" fill="white"/>
<path d="M588.04 73.6439C588.04 103.069 609.575 129.863 639.821 129.863C670.397 129.863 691.602 103.069 691.602 73.6439C691.602 44.548 670.068 17.7534 639.821 17.7534C609.575 17.7534 588.04 44.548 588.04 73.6439ZM712.972 73.6439C712.972 115.562 680.095 147.452 639.821 147.452C599.547 147.452 566.835 115.562 566.835 73.6439C566.835 31.8904 599.547 0 639.821 0C680.095 0 712.972 31.8904 712.972 73.6439Z" fill="white"/>
<path d="M10.6521 224.075V219.183H26.4329C30.0099 219.183 32.7452 218.289 34.6389 216.5C36.5326 214.659 37.4795 212.213 37.4795 209.162C37.4795 206.217 36.5326 203.823 34.6389 201.982C32.7452 200.088 30.0099 199.142 26.4329 199.142H10.6521V194.092H26.4329C29.9573 194.092 32.9819 194.749 35.5069 196.064C38.0318 197.327 39.9518 199.089 41.2669 201.351C42.6346 203.613 43.3184 206.19 43.3184 209.083C43.3184 212.082 42.6346 214.712 41.2669 216.974C39.9518 219.236 38.0318 220.998 35.5069 222.26C32.9819 223.47 29.9573 224.075 26.4329 224.075H10.6521ZM6.94357 248.378V194.092H12.7036V248.378H6.94357ZM39.7677 248.378L19.4104 223.286L25.0126 221.471L47.1847 248.378H39.7677Z" fill="white"/>
<path d="M55.7964 248.378V194.092H61.5564V248.378H55.7964ZM59.5838 248.378V243.091H91.5399V248.378H59.5838ZM59.5838 223.128V218H89.015V223.128H59.5838ZM59.5838 199.378V194.092H91.0665V199.378H59.5838Z" fill="white"/>
<path d="M119.212 248.378V194.092H124.973V248.378H119.212Z" fill="white"/>
<path d="M164.505 248.378V226.6C164.505 223.339 163.532 220.709 161.586 218.71C159.692 216.658 157.167 215.632 154.011 215.632C151.854 215.632 149.961 216.106 148.33 217.053C146.699 218 145.411 219.288 144.464 220.919C143.517 222.55 143.043 224.417 143.043 226.521L140.518 225.101C140.518 222.313 141.176 219.814 142.491 217.605C143.806 215.396 145.568 213.66 147.778 212.397C150.04 211.135 152.617 210.504 155.51 210.504C158.351 210.504 160.876 211.188 163.085 212.555C165.294 213.923 167.004 215.764 168.214 218.079C169.476 220.393 170.108 222.918 170.108 225.653V248.378H164.505ZM137.52 248.378V211.293H143.043V248.378H137.52Z" fill="white"/>
<path d="M193.38 248.378L176.258 211.293H182.412L196.852 243.722H193.38L207.898 211.293H213.895L196.615 248.378H193.38Z" fill="white"/>
<path d="M236.32 249.167C232.586 249.167 229.245 248.325 226.3 246.642C223.354 244.959 221.013 242.644 219.277 239.698C217.594 236.753 216.752 233.439 216.752 229.756C216.752 226.127 217.594 222.865 219.277 219.972C220.96 217.026 223.249 214.712 226.142 213.029C229.035 211.345 232.27 210.504 235.847 210.504C239.214 210.504 242.186 211.266 244.763 212.792C247.393 214.317 249.445 216.448 250.918 219.183C252.443 221.866 253.206 224.969 253.206 228.494C253.206 228.915 253.18 229.414 253.127 229.993C253.074 230.519 252.969 231.15 252.811 231.887H220.697V227.153H249.813L247.841 228.888C247.893 226.153 247.42 223.812 246.42 221.866C245.473 219.867 244.079 218.342 242.238 217.289C240.45 216.185 238.267 215.632 235.689 215.632C233.007 215.632 230.666 216.211 228.667 217.368C226.668 218.526 225.09 220.156 223.933 222.26C222.828 224.312 222.276 226.758 222.276 229.599C222.276 232.439 222.854 234.938 224.011 237.094C225.221 239.251 226.878 240.934 228.982 242.144C231.139 243.354 233.611 243.959 236.399 243.959C238.661 243.959 240.739 243.565 242.633 242.776C244.527 241.934 246.131 240.698 247.446 239.067L250.997 242.697C249.261 244.748 247.104 246.353 244.527 247.51C242.002 248.614 239.266 249.167 236.32 249.167Z" fill="white"/>
<path d="M273.018 249.167C271.019 249.167 269.099 248.904 267.258 248.378C265.417 247.799 263.733 247.01 262.208 246.011C260.735 245.011 259.446 243.828 258.342 242.46L261.892 238.83C263.365 240.619 265.022 241.96 266.863 242.854C268.757 243.696 270.861 244.117 273.176 244.117C275.648 244.117 277.568 243.643 278.936 242.697C280.356 241.75 281.066 240.435 281.066 238.751C281.066 237.173 280.566 235.937 279.567 235.043C278.567 234.149 277.279 233.439 275.7 232.913C274.175 232.386 272.544 231.887 270.808 231.413C269.073 230.887 267.416 230.256 265.837 229.52C264.259 228.731 262.971 227.652 261.971 226.285C261.024 224.917 260.551 223.128 260.551 220.919C260.551 218.815 261.051 217 262.05 215.475C263.102 213.897 264.575 212.687 266.469 211.845C268.415 210.951 270.703 210.504 273.333 210.504C276.121 210.504 278.646 211.003 280.908 212.003C283.17 213.002 284.985 214.475 286.353 216.422L282.802 219.972C281.697 218.552 280.303 217.474 278.62 216.737C276.989 215.948 275.148 215.554 273.097 215.554C270.729 215.554 268.915 216.027 267.652 216.974C266.442 217.868 265.837 219.052 265.837 220.525C265.837 221.945 266.337 223.076 267.337 223.917C268.336 224.706 269.599 225.364 271.124 225.89C272.702 226.363 274.359 226.863 276.095 227.389C277.831 227.863 279.488 228.52 281.066 229.362C282.644 230.151 283.906 231.256 284.853 232.676C285.853 234.043 286.353 235.911 286.353 238.278C286.353 241.592 285.143 244.248 282.723 246.247C280.356 248.194 277.121 249.167 273.018 249.167Z" fill="white"/>
<path d="M300.857 248.378V195.67H306.381V248.378H300.857ZM291.468 216.264V211.293H315.691V216.264H291.468Z" fill="white"/>
<path d="M323.299 248.378V211.293H328.823V248.378H323.299ZM348.785 248.378V225.653C348.785 222.602 347.865 220.183 346.024 218.394C344.183 216.553 341.868 215.632 339.08 215.632C337.187 215.632 335.451 216.053 333.873 216.895C332.347 217.684 331.111 218.815 330.164 220.288C329.27 221.761 328.823 223.523 328.823 225.574L326.298 224.549C326.298 221.708 326.929 219.236 328.191 217.132C329.454 215.028 331.137 213.397 333.241 212.24C335.398 211.082 337.818 210.504 340.501 210.504C343.131 210.504 345.471 211.082 347.523 212.24C349.627 213.397 351.284 215.028 352.494 217.132C353.756 219.236 354.388 221.734 354.388 224.628V248.378H348.785ZM374.35 248.378V225.653C374.35 222.602 373.43 220.183 371.589 218.394C369.748 216.553 367.407 215.632 364.566 215.632C362.725 215.632 361.016 216.053 359.438 216.895C357.912 217.684 356.676 218.815 355.729 220.288C354.835 221.761 354.388 223.523 354.388 225.574L351.074 224.549C351.231 221.708 351.968 219.236 353.283 217.132C354.651 215.028 356.413 213.397 358.57 212.24C360.779 211.082 363.199 210.504 365.829 210.504C368.459 210.504 370.826 211.082 372.93 212.24C375.087 213.397 376.77 215.028 377.98 217.132C379.242 219.236 379.874 221.734 379.874 224.628V248.378H374.35Z" fill="white"/>
<path d="M407.382 249.167C403.647 249.167 400.307 248.325 397.361 246.642C394.416 244.959 392.075 242.644 390.339 239.698C388.656 236.753 387.814 233.439 387.814 229.756C387.814 226.127 388.656 222.865 390.339 219.972C392.022 217.026 394.31 214.712 397.204 213.029C400.097 211.345 403.332 210.504 406.909 210.504C410.275 210.504 413.247 211.266 415.825 212.792C418.455 214.317 420.507 216.448 421.98 219.183C423.505 221.866 424.268 224.969 424.268 228.494C424.268 228.915 424.241 229.414 424.189 229.993C424.136 230.519 424.031 231.15 423.873 231.887H391.759V227.153H420.875L418.902 228.888C418.955 226.153 418.481 223.812 417.482 221.866C416.535 219.867 415.141 218.342 413.3 217.289C411.512 216.185 409.329 215.632 406.751 215.632C404.068 215.632 401.727 216.211 399.729 217.368C397.73 218.526 396.152 220.156 394.994 222.26C393.89 224.312 393.337 226.758 393.337 229.599C393.337 232.439 393.916 234.938 395.073 237.094C396.283 239.251 397.94 240.934 400.044 242.144C402.201 243.354 404.673 243.959 407.461 243.959C409.723 243.959 411.801 243.565 413.695 242.776C415.588 241.934 417.193 240.698 418.508 239.067L422.058 242.697C420.323 244.748 418.166 246.353 415.588 247.51C413.063 248.614 410.328 249.167 407.382 249.167Z" fill="white"/>
<path d="M459.703 248.378V226.6C459.703 223.339 458.729 220.709 456.783 218.71C454.889 216.658 452.364 215.632 449.208 215.632C447.052 215.632 445.158 216.106 443.527 217.053C441.896 218 440.608 219.288 439.661 220.919C438.714 222.55 438.241 224.417 438.241 226.521L435.716 225.101C435.716 222.313 436.373 219.814 437.688 217.605C439.003 215.396 440.766 213.66 442.975 212.397C445.237 211.135 447.814 210.504 450.707 210.504C453.548 210.504 456.073 211.188 458.282 212.555C460.492 213.923 462.201 215.764 463.411 218.079C464.673 220.393 465.305 222.918 465.305 225.653V248.378H459.703ZM432.717 248.378V211.293H438.241V248.378H432.717Z" fill="white"/>
<path d="M480.934 248.378V195.67H486.458V248.378H480.934ZM471.545 216.264V211.293H495.768V216.264H471.545Z" fill="white"/>
<path d="M536.662 249.167C532.454 249.167 528.824 248.378 525.773 246.8C522.722 245.169 520.039 242.907 517.725 240.014L521.749 236.069C523.59 238.646 525.72 240.566 528.14 241.829C530.613 243.091 533.532 243.722 536.899 243.722C540.37 243.722 543.185 242.933 545.341 241.355C547.498 239.777 548.576 237.594 548.576 234.806C548.576 232.649 548.077 230.887 547.077 229.52C546.078 228.099 544.763 226.968 543.132 226.127C541.554 225.232 539.792 224.443 537.845 223.76C535.899 223.076 533.953 222.366 532.007 221.629C530.113 220.84 528.351 219.867 526.72 218.71C525.089 217.552 523.774 216.08 522.775 214.291C521.828 212.503 521.354 210.214 521.354 207.426C521.354 204.481 522.065 201.956 523.485 199.852C524.905 197.748 526.851 196.143 529.324 195.038C531.796 193.881 534.61 193.303 537.767 193.303C541.291 193.303 544.421 193.986 547.156 195.354C549.944 196.722 552.259 198.563 554.1 200.877L550.154 204.823C548.471 202.824 546.63 201.298 544.631 200.246C542.632 199.194 540.291 198.668 537.609 198.668C534.453 198.668 531.928 199.405 530.034 200.877C528.14 202.35 527.193 204.402 527.193 207.032C527.193 209.083 527.667 210.74 528.614 212.003C529.613 213.265 530.928 214.317 532.559 215.159C534.189 216.001 535.952 216.763 537.845 217.447C539.792 218.079 541.738 218.789 543.684 219.578C545.631 220.367 547.393 221.366 548.971 222.576C550.602 223.786 551.917 225.338 552.916 227.231C553.916 229.073 554.415 231.44 554.415 234.333C554.415 239.014 552.811 242.67 549.602 245.3C546.446 247.878 542.133 249.167 536.662 249.167Z" fill="white"/>
<path d="M569.779 248.378V195.67H575.302V248.378H569.779ZM560.389 216.264V211.293H584.613V216.264H560.389Z" fill="white"/>
<path d="M606.897 249.167C603.899 249.167 601.216 248.483 598.849 247.115C596.482 245.695 594.614 243.775 593.247 241.355C591.932 238.936 591.274 236.095 591.274 232.834V211.293H596.876V232.597C596.876 234.859 597.271 236.831 598.06 238.515C598.901 240.198 600.085 241.513 601.61 242.46C603.136 243.407 604.898 243.88 606.897 243.88C610.001 243.88 612.447 242.854 614.235 240.803C616.076 238.751 616.997 236.016 616.997 232.597V211.293H622.52V232.834C622.52 236.042 621.863 238.883 620.547 241.355C619.232 243.828 617.391 245.748 615.024 247.115C612.657 248.483 609.948 249.167 606.897 249.167Z" fill="white"/>
<path d="M648.61 249.167C645.19 249.167 642.113 248.325 639.378 246.642C636.642 244.959 634.459 242.67 632.829 239.777C631.251 236.831 630.462 233.544 630.462 229.914C630.462 226.232 631.251 222.944 632.829 220.051C634.459 217.105 636.642 214.791 639.378 213.108C642.113 211.372 645.19 210.504 648.61 210.504C651.398 210.504 653.923 211.056 656.184 212.161C658.446 213.265 660.314 214.843 661.787 216.895C663.312 218.894 664.206 221.261 664.469 223.996V235.595C664.154 238.278 663.26 240.645 661.787 242.697C660.366 244.696 658.525 246.274 656.263 247.431C654.001 248.588 651.45 249.167 648.61 249.167ZM649.556 243.88C652.134 243.88 654.396 243.302 656.342 242.144C658.289 240.934 659.814 239.277 660.919 237.173C662.023 235.017 662.576 232.571 662.576 229.835C662.576 227.047 661.997 224.601 660.84 222.497C659.735 220.393 658.21 218.736 656.263 217.526C654.317 216.316 652.055 215.711 649.478 215.711C646.9 215.711 644.612 216.316 642.613 217.526C640.614 218.736 639.036 220.419 637.879 222.576C636.774 224.68 636.222 227.1 636.222 229.835C636.222 232.571 636.774 235.017 637.879 237.173C639.036 239.277 640.614 240.934 642.613 242.144C644.664 243.302 646.979 243.88 649.556 243.88ZM667.783 248.378H662.26V238.436L663.365 229.283L662.26 220.367V192.514H667.783V248.378Z" fill="white"/>
<path d="M678.985 248.378V211.293H684.587V248.378H678.985ZM681.746 203.245C680.694 203.245 679.8 202.876 679.064 202.14C678.327 201.351 677.959 200.43 677.959 199.378C677.959 198.274 678.327 197.353 679.064 196.617C679.8 195.88 680.694 195.512 681.746 195.512C682.904 195.512 683.824 195.88 684.508 196.617C685.244 197.353 685.613 198.274 685.613 199.378C685.613 200.43 685.244 201.351 684.508 202.14C683.824 202.876 682.904 203.245 681.746 203.245Z" fill="white"/>
<path d="M712.589 249.167C709.012 249.167 705.751 248.299 702.805 246.563C699.912 244.827 697.597 242.486 695.862 239.54C694.178 236.595 693.337 233.307 693.337 229.677C693.337 226.1 694.178 222.865 695.862 219.972C697.597 217.079 699.912 214.791 702.805 213.108C705.751 211.372 709.012 210.504 712.589 210.504C716.219 210.504 719.48 211.345 722.373 213.029C725.266 214.712 727.555 217.026 729.238 219.972C730.974 222.865 731.842 226.1 731.842 229.677C731.842 233.36 730.974 236.674 729.238 239.619C727.555 242.513 725.266 244.827 722.373 246.563C719.48 248.299 716.219 249.167 712.589 249.167ZM712.589 243.801C715.219 243.801 717.534 243.196 719.533 241.986C721.584 240.777 723.189 239.093 724.346 236.937C725.556 234.78 726.161 232.36 726.161 229.677C726.161 226.995 725.556 224.628 724.346 222.576C723.189 220.472 721.584 218.815 719.533 217.605C717.534 216.395 715.219 215.79 712.589 215.79C710.012 215.79 707.697 216.395 705.646 217.605C703.594 218.815 701.99 220.472 700.832 222.576C699.675 224.628 699.097 226.995 699.097 229.677C699.097 232.413 699.675 234.859 700.832 237.016C701.99 239.12 703.594 240.777 705.646 241.986C707.697 243.196 710.012 243.801 712.589 243.801Z" fill="white"/>
</svg>
