<svg width="732" height="250" viewBox="0 0 732 250" fill="none" xmlns="http://www.w3.org/2000/svg">
<path d="M228.903 209.99C232.27 209.99 235.242 210.753 237.819 212.278C240.449 213.804 242.502 215.935 243.975 218.67C245.5 221.353 246.263 224.456 246.263 227.98C246.263 228.401 246.236 228.901 246.184 229.479C246.131 230.005 246.026 230.637 245.868 231.373H215.468C215.7 233.287 216.232 235.024 217.067 236.581C218.277 238.738 219.935 240.421 222.039 241.631C224.196 242.841 226.668 243.445 229.456 243.445C231.718 243.445 233.796 243.051 235.689 242.262C237.583 241.42 239.187 240.184 240.502 238.554L244.053 242.183C242.317 244.234 240.161 245.839 237.583 246.996C235.058 248.101 232.323 248.653 229.377 248.653C225.642 248.653 222.302 247.811 219.356 246.128C216.411 244.445 214.07 242.13 212.334 239.185C210.651 236.239 209.809 232.925 209.809 229.243C209.809 225.614 210.651 222.352 212.334 219.459C214.017 216.513 216.305 214.198 219.198 212.515C222.091 210.831 225.326 209.99 228.903 209.99ZM266.39 209.99C269.178 209.99 271.703 210.49 273.965 211.489C276.227 212.489 278.042 213.962 279.409 215.908L275.858 219.459C274.754 218.039 273.36 216.96 271.677 216.224C270.046 215.435 268.205 215.04 266.153 215.04C263.786 215.04 261.971 215.513 260.709 216.46C259.499 217.354 258.894 218.538 258.894 220.011C258.894 221.431 259.393 222.563 260.393 223.404C261.392 224.193 262.655 224.851 264.181 225.377C265.759 225.85 267.416 226.35 269.151 226.876C270.887 227.349 272.544 228.007 274.122 228.849C275.7 229.638 276.963 230.742 277.91 232.162C278.91 233.53 279.409 235.398 279.409 237.765C279.409 241.078 278.199 243.735 275.779 245.733C273.412 247.68 270.177 248.653 266.074 248.653C264.075 248.653 262.155 248.39 260.314 247.864C258.473 247.286 256.79 246.496 255.265 245.497C253.792 244.498 252.503 243.314 251.398 241.946L254.948 238.316C256.421 240.105 258.079 241.447 259.92 242.341C261.814 243.182 263.918 243.604 266.232 243.604C268.705 243.603 270.625 243.129 271.992 242.183C273.412 241.236 274.122 239.921 274.122 238.238C274.122 236.66 273.622 235.424 272.623 234.529C271.624 233.635 270.335 232.925 268.757 232.399C267.231 231.873 265.601 231.373 263.865 230.899C262.129 230.373 260.472 229.742 258.894 229.006C257.316 228.217 256.027 227.138 255.027 225.771C254.081 224.403 253.607 222.614 253.607 220.405C253.607 218.301 254.107 216.486 255.106 214.961C256.158 213.383 257.632 212.173 259.525 211.331C261.472 210.437 263.76 209.99 266.39 209.99ZM399.965 209.99C403.331 209.99 406.304 210.753 408.882 212.278C411.512 213.804 413.563 215.935 415.036 218.67C416.561 221.353 417.324 224.456 417.324 227.98C417.324 228.401 417.298 228.901 417.245 229.479C417.193 230.005 417.087 230.637 416.93 231.373H386.529C386.761 233.287 387.294 235.024 388.13 236.581C389.34 238.738 390.997 240.421 393.101 241.631C395.257 242.841 397.73 243.445 400.518 243.445C402.779 243.445 404.857 243.051 406.751 242.262C408.645 241.42 410.249 240.184 411.564 238.554L415.115 242.183C413.379 244.234 411.222 245.839 408.645 246.996C406.12 248.101 403.384 248.653 400.438 248.653C396.704 248.653 393.364 247.811 390.418 246.128C387.472 244.445 385.131 242.13 383.396 239.185C381.712 236.239 380.87 232.925 380.87 229.243C380.87 225.614 381.712 222.352 383.396 219.459C385.079 216.513 387.367 214.198 390.26 212.515C393.153 210.831 396.388 209.99 399.965 209.99ZM530.823 192.789C534.348 192.789 537.478 193.473 540.213 194.841C543.001 196.208 545.315 198.05 547.156 200.364L543.211 204.309C541.528 202.31 539.686 200.784 537.688 199.732C535.689 198.68 533.348 198.154 530.665 198.154C527.509 198.154 524.984 198.891 523.091 200.364C521.197 201.837 520.25 203.888 520.25 206.519C520.25 208.57 520.723 210.227 521.67 211.489C522.669 212.752 523.985 213.804 525.615 214.646C527.246 215.487 529.009 216.25 530.902 216.934C532.849 217.565 534.795 218.275 536.741 219.064C538.687 219.853 540.449 220.853 542.027 222.062C543.658 223.272 544.973 224.824 545.973 226.718C546.972 228.559 547.472 230.926 547.472 233.819C547.472 238.501 545.867 242.157 542.658 244.787C539.502 247.364 535.189 248.653 529.719 248.653C525.511 248.653 521.88 247.864 518.829 246.286C515.778 244.655 513.096 242.393 510.781 239.5L514.806 235.555C516.647 238.132 518.777 240.053 521.196 241.315C523.669 242.578 526.588 243.209 529.955 243.209C533.427 243.209 536.241 242.42 538.397 240.842C540.554 239.264 541.633 237.081 541.633 234.293C541.633 232.136 541.133 230.374 540.134 229.006C539.134 227.586 537.819 226.455 536.188 225.613C534.611 224.719 532.848 223.93 530.902 223.246C528.956 222.562 527.01 221.852 525.063 221.115C523.17 220.326 521.407 219.354 519.776 218.196C518.146 217.039 516.831 215.566 515.831 213.777C514.884 211.989 514.411 209.701 514.411 206.913C514.411 203.967 515.121 201.442 516.541 199.338C517.961 197.234 519.908 195.63 522.38 194.525C524.852 193.368 527.667 192.789 530.823 192.789ZM589.933 232.083C589.933 234.345 590.327 236.318 591.116 238.001C591.958 239.684 593.142 240.999 594.667 241.946C596.192 242.893 597.954 243.366 599.953 243.366C603.057 243.366 605.503 242.341 607.292 240.289C609.133 238.238 610.054 235.502 610.054 232.083V210.779H615.576V232.32C615.576 235.529 614.919 238.37 613.604 240.842C612.289 243.314 610.448 245.234 608.081 246.602C605.714 247.969 603.004 248.653 599.953 248.653C596.955 248.653 594.272 247.969 591.905 246.602C589.538 245.181 587.67 243.262 586.303 240.842C584.988 238.422 584.33 235.582 584.33 232.32V210.779H589.933V232.083ZM660.84 247.864H655.316V241.479C655.166 241.717 655.008 241.952 654.843 242.183C653.422 244.182 651.581 245.76 649.319 246.917C647.057 248.074 644.506 248.653 641.666 248.653C638.247 248.653 635.17 247.811 632.435 246.128C629.699 244.445 627.516 242.157 625.886 239.264C624.308 236.318 623.519 233.03 623.519 229.4C623.519 225.718 624.308 222.43 625.886 219.537C627.516 216.592 629.699 214.277 632.435 212.594C635.17 210.858 638.247 209.99 641.666 209.99C644.454 209.99 646.979 210.543 649.241 211.647C651.503 212.752 653.37 214.33 654.843 216.382C655.008 216.599 655.166 216.82 655.316 217.046V192H660.84V247.864ZM705.646 209.99C709.275 209.99 712.537 210.831 715.43 212.515C718.323 214.198 720.612 216.513 722.295 219.459C724.031 222.352 724.898 225.587 724.898 229.164C724.898 232.846 724.031 236.16 722.295 239.105C720.612 241.999 718.323 244.314 715.43 246.05C712.537 247.786 709.275 248.653 705.646 248.653C702.069 248.653 698.807 247.786 695.861 246.05C692.968 244.314 690.654 241.973 688.918 239.027C687.235 236.082 686.394 232.794 686.394 229.164C686.394 225.587 687.235 222.352 688.918 219.459C690.654 216.566 692.968 214.277 695.861 212.594C698.807 210.858 702.069 209.99 705.646 209.99ZM19.4893 193.578C23.0136 193.578 26.0385 194.236 28.5635 195.551C31.0882 196.813 33.0082 198.575 34.3232 200.837C35.6909 203.099 36.375 205.677 36.375 208.57C36.3749 211.568 35.6908 214.198 34.3232 216.46C33.0082 218.722 31.0884 220.485 28.5635 221.747C26.2116 222.874 23.426 223.475 20.207 223.552L40.2412 247.864H32.8242L13.1074 223.562H5.75977V247.864H0V193.578H19.4893ZM84.123 198.864H54.6123V217.486H82.0713V222.615H54.6123V242.577H84.5967V247.864H48.8525V193.578H84.123V198.864ZM118.029 247.864H112.269V193.578H118.029V247.864ZM148.566 209.99C151.407 209.99 153.932 210.674 156.142 212.042C158.351 213.41 160.061 215.251 161.271 217.565C162.533 219.88 163.164 222.405 163.164 225.14V247.864H157.562V226.087C157.562 222.826 156.589 220.195 154.643 218.196C152.749 216.145 150.224 215.119 147.067 215.119C144.911 215.119 143.017 215.592 141.387 216.539C139.756 217.486 138.467 218.775 137.521 220.405C136.574 222.036 136.1 223.904 136.1 226.008V247.864H130.576V210.779H136.1V216.23C137.342 214.426 138.92 212.977 140.834 211.884C143.096 210.621 145.673 209.99 148.566 209.99ZM188.177 239.32L200.955 210.779H206.951L189.672 247.864H186.437L169.314 210.779H175.469L188.177 239.32ZM299.438 210.779H308.748V215.75H299.438V247.864H293.914V215.75H284.524V210.779H293.914V195.156H299.438V210.779ZM358.885 209.99C361.515 209.99 363.882 210.568 365.986 211.726C368.143 212.883 369.826 214.514 371.036 216.618C372.299 218.722 372.93 221.221 372.93 224.114V247.864H367.407V225.14C367.407 222.089 366.486 219.669 364.646 217.881C362.804 216.04 360.463 215.119 357.623 215.119C355.782 215.119 354.072 215.54 352.494 216.382C350.969 217.171 349.732 218.302 348.785 219.774C347.891 221.247 347.444 223.009 347.444 225.061V247.864H341.842V225.14C341.842 222.089 340.921 219.669 339.08 217.881C337.239 216.04 334.925 215.119 332.137 215.119C330.243 215.119 328.507 215.54 326.929 216.382C325.403 217.171 324.167 218.302 323.221 219.774C322.327 221.247 321.879 223.009 321.879 225.061V247.864H316.355V210.779H321.879V215.657C323.054 214.011 324.526 212.7 326.298 211.726C328.454 210.568 330.874 209.99 333.557 209.99C336.187 209.99 338.528 210.568 340.579 211.726C342.683 212.883 344.341 214.514 345.551 216.618C345.687 216.845 345.813 217.077 345.935 217.312C346.063 217.077 346.198 216.845 346.34 216.618C347.708 214.514 349.469 212.883 351.626 211.726C353.835 210.568 356.255 209.99 358.885 209.99ZM443.764 209.99C446.604 209.99 449.13 210.674 451.339 212.042C453.548 213.41 455.258 215.251 456.468 217.565C457.73 219.88 458.361 222.405 458.361 225.14V247.864H452.759V226.087C452.759 222.826 451.786 220.195 449.84 218.196C447.946 216.145 445.421 215.119 442.265 215.119C440.108 215.119 438.215 215.592 436.584 216.539C434.953 217.486 433.664 218.775 432.717 220.405C431.77 222.036 431.297 223.904 431.297 226.008V247.864H425.773V210.779H431.297V216.23C432.54 214.426 434.118 212.977 436.031 211.884C438.293 210.621 440.871 209.99 443.764 209.99ZM479.515 210.779H488.825V215.75H479.515V247.864H473.991V215.75H464.602V210.779H473.991V195.156H479.515V210.779ZM568.358 210.779H577.669V215.75H568.358V247.864H562.835V215.75H553.445V210.779H562.835V195.156H568.358V210.779ZM677.644 247.864H672.041V210.779H677.644V247.864ZM642.534 215.198C639.957 215.198 637.668 215.803 635.669 217.013C633.67 218.223 632.093 219.906 630.936 222.062C629.831 224.167 629.278 226.586 629.278 229.321C629.278 232.057 629.831 234.503 630.936 236.66C632.093 238.764 633.67 240.421 635.669 241.631C637.72 242.788 640.036 243.366 642.613 243.366C645.191 243.366 647.452 242.788 649.398 241.631C651.345 240.421 652.871 238.764 653.976 236.66C655.08 234.503 655.632 232.057 655.632 229.321C655.632 226.534 655.054 224.087 653.896 221.983C652.792 219.879 651.266 218.223 649.319 217.013C647.373 215.803 645.112 215.198 642.534 215.198ZM705.646 215.276C703.068 215.276 700.754 215.882 698.702 217.092C696.651 218.302 695.046 219.958 693.889 222.062C692.731 224.114 692.153 226.481 692.153 229.164C692.153 231.899 692.731 234.345 693.889 236.502C695.046 238.606 696.651 240.263 698.702 241.473C700.754 242.683 703.068 243.288 705.646 243.288C708.276 243.288 710.59 242.682 712.589 241.473C714.64 240.263 716.245 238.58 717.402 236.423C718.612 234.266 719.217 231.847 719.217 229.164C719.217 226.481 718.612 224.114 717.402 222.062C716.245 219.958 714.64 218.302 712.589 217.092C710.59 215.882 708.276 215.276 705.646 215.276ZM228.746 215.119C226.064 215.119 223.722 215.697 221.724 216.854C219.725 218.012 218.147 219.643 216.989 221.747C216.216 223.184 215.714 224.815 215.482 226.639H240.854C240.716 224.636 240.258 222.874 239.477 221.353C238.53 219.354 237.136 217.828 235.295 216.776C233.507 215.672 231.323 215.119 228.746 215.119ZM399.808 215.119C397.125 215.119 394.784 215.697 392.785 216.854C390.786 218.012 389.208 219.643 388.051 221.747C387.277 223.184 386.776 224.815 386.544 226.639H411.916C411.777 224.636 411.319 222.874 410.538 221.353C409.591 219.354 408.197 217.828 406.356 216.776C404.568 215.672 402.385 215.119 399.808 215.119ZM5.75977 218.67H19.4893C23.0661 218.67 25.8016 217.776 27.6953 215.987C29.589 214.146 30.5361 211.699 30.5361 208.648C30.5361 205.703 29.5889 203.31 27.6953 201.469C25.8016 199.575 23.0662 198.628 19.4893 198.628H5.75977V218.67ZM674.803 194.998C675.96 194.998 676.881 195.366 677.564 196.103C678.301 196.839 678.669 197.76 678.669 198.864C678.669 199.916 678.301 200.837 677.564 201.626C676.881 202.362 675.96 202.731 674.803 202.731C673.751 202.731 672.857 202.362 672.12 201.626C671.384 200.837 671.016 199.916 671.016 198.864C671.016 197.76 671.384 196.839 672.12 196.103C672.856 195.366 673.751 194.998 674.803 194.998ZM31.3975 3.61621C69.5343 3.94508 100.438 36.1643 100.438 75.6162C100.438 115.233 69.5344 147.288 31.3975 147.452H0V129.863H31.0684C43.7259 129.863 55.7265 124.439 64.7676 114.411C73.973 104.055 79.0684 90.4107 79.0684 75.6162C79.0683 60.9863 73.9729 47.178 64.7676 36.9863C55.7265 26.9589 43.7259 21.3701 31.0684 21.3701H0V3.61621H31.3975ZM204.351 147.452H108.68V129.863H204.351V147.452ZM343.722 147.452H322.187L278.461 41.4248L278.132 40.2744V40.4385L277.968 40.2744L277.639 41.4248L234.077 147.452H212.543L271.557 3.61621H284.707L343.722 147.452ZM373.25 129.863H445.743V147.452H352.044V3.61621H373.25V129.863ZM558.525 25.4795L476.334 129.863H558.525V147.452H454.142V125.589L536.17 21.3701H454.142V3.61621H558.525V25.4795ZM639.821 0C680.095 3.22203e-05 712.971 31.8903 712.972 73.6436C712.972 115.561 680.095 147.452 639.821 147.452C599.547 147.452 566.835 115.561 566.835 73.6436C566.835 31.8903 599.547 0 639.821 0ZM639.821 17.7539C609.575 17.7539 588.04 44.5478 588.04 73.6436C588.04 103.068 609.575 129.863 639.821 129.863C670.397 129.863 691.603 103.068 691.603 73.6436C691.602 44.5478 670.068 17.7539 639.821 17.7539ZM190.707 81.6982H108.68V63.9453H190.707V81.6982ZM204.351 21.3701H108.68V3.61621H204.351V21.3701Z" fill="url(#paint0_linear_2053_1626)"/>
<defs>
<linearGradient id="paint0_linear_2053_1626" x1="0.0566409" y1="220.486" x2="725.057" y2="231.986" gradientUnits="userSpaceOnUse">
<stop stop-color="#DDA439"/>
<stop offset="1" stop-color="#EB3131"/>
</linearGradient>
</defs>
</svg>
