<svg xmlns="http://www.w3.org/2000/svg" xml:space="preserve" fill-rule="evenodd" clip-rule="evenodd" image-rendering="optimizeQuality" shape-rendering="geometricPrecision" text-rendering="geometricPrecision" viewBox="0 0 4335 4335" id="Geometry">
  <path fill="#ffffff" d="M2158 39v39l323 1446 870-552 23-22-9 13 14-8-23 22-552 870 1446 323h39l-19 4 19 5h-39l-1446 322 552 871 23 22-14-9 9 14-23-23-870-552-323 1447v39l-4-20-4 20v-39l-323-1447-870 552-23 23 9-14-14 9 23-22 552-871L58 2179H19l19-5-19-4h39l1446-323-552-870-23-22 14 8-9-13 23 22 870 552L2150 78V39l4 19z" class="colorff6600 svgShape"></path>
</svg>
