<?xml version="1.0" encoding="UTF-8"?>
<svg id="Layer_2" data-name="Layer 2" xmlns="http://www.w3.org/2000/svg" viewBox="0 0 621 148.48">
  <defs>
    <style>
      .cls-1 {
        fill: #fff;
      }
    </style>
  </defs>
  <g id="Layer_1-2" data-name="Layer 1">
    <g>
      <g>
        <path class="cls-1" d="M35.32,148.12l-6.62-7.26h-9.78v-4.03h10.9c3.27,0,5-1.87,5-5.25s-1.87-5.04-5-5.04h-14.24v21.58h-4.53v-26.14h18.77c5.97,0,9.49,3.7,9.49,9.53,0,4.32-2.01,7.37-5.4,8.67l7.88,7.95h-6.47Z"/>
        <path class="cls-1" d="M48.48,148.12v-26.14h23.34v4.57h-18.81v17.01h18.84v4.57h-23.38ZM56.36,136.76v-3.85h14.49v3.85h-14.49Z"/>
        <path class="cls-1" d="M95.23,148.12v-26.14h4.57v26.14h-4.57Z"/>
        <path class="cls-1" d="M113.14,128.99v19.13h-4.35v-23.73c0-1.69.9-2.73,2.34-2.73.68,0,1.26.25,1.94.93l18.45,18.3v-19.13h4.35v23.95c0,1.73-.94,2.73-2.27,2.73-.75,0-1.44-.32-2.09-.97l-18.37-18.48Z"/>
        <path class="cls-1" d="M142.84,121.98h5.57l11.87,20.14,11.83-20.14h5.25l-15.07,25.03c-.54.9-1.26,1.47-2.19,1.47-1.01,0-1.69-.58-2.23-1.47l-15.03-25.03Z"/>
        <path class="cls-1" d="M184.49,148.12v-26.14h23.34v4.57h-18.81v17.01h18.84v4.57h-23.38ZM192.36,136.76v-3.85h14.49v3.85h-14.49Z"/>
        <path class="cls-1" d="M216.1,148.12v-4.57h19.6c2.45,0,3.81-1.37,3.81-3.42,0-2.23-1.37-3.38-3.81-3.38h-12.01c-4.93,0-7.98-3.13-7.98-7.44s2.84-7.34,8.06-7.34h18.77v4.57h-18.77c-2.09,0-3.31,1.22-3.31,3.2s1.26,3.16,3.27,3.16h11.97c5.29,0,8.13,2.48,8.13,7.55,0,4.39-2.66,7.66-8.13,7.66h-19.6Z"/>
        <path class="cls-1" d="M260.44,148.12v-21.58h-9.93v-4.57h24.42v4.57h-9.93v21.58h-4.57Z"/>
        <path class="cls-1" d="M311.9,148.12l-5-18.38-7.41,17.01c-.5,1.12-1.22,1.73-2.34,1.73s-1.87-.61-2.34-1.73l-7.37-17.01-5,18.38h-4.5l6.72-24.6c.32-1.26,1.04-1.87,2.27-1.87.97,0,1.87.54,2.3,1.55l8.06,18.48,8.05-18.48c.43-1.01,1.22-1.55,2.19-1.55,1.11,0,1.83.61,2.19,1.87l6.69,24.6h-4.53Z"/>
        <path class="cls-1" d="M323.76,148.12v-26.14h23.34v4.57h-18.81v17.01h18.84v4.57h-23.38ZM331.64,136.76v-3.85h14.49v3.85h-14.49Z"/>
        <path class="cls-1" d="M359.62,128.99v19.13h-4.35v-23.73c0-1.69.9-2.73,2.34-2.73.68,0,1.26.25,1.94.93l18.45,18.3v-19.13h4.35v23.95c0,1.73-.94,2.73-2.27,2.73-.75,0-1.44-.32-2.09-.97l-18.37-18.48Z"/>
        <path class="cls-1" d="M399.46,148.12v-21.58h-9.93v-4.57h24.42v4.57h-9.93v21.58h-4.57Z"/>
        <path class="cls-1" d="M436.18,148.12v-4.57h19.6c2.45,0,3.81-1.37,3.81-3.42,0-2.23-1.37-3.38-3.81-3.38h-12.01c-4.93,0-7.98-3.13-7.98-7.44s2.84-7.34,8.06-7.34h18.77v4.57h-18.77c-2.09,0-3.31,1.22-3.31,3.2s1.26,3.16,3.27,3.16h11.97c5.29,0,8.13,2.48,8.13,7.55,0,4.39-2.66,7.66-8.13,7.66h-19.6Z"/>
        <path class="cls-1" d="M480.52,148.12v-21.58h-9.93v-4.57h24.42v4.57h-9.93v21.58h-4.57Z"/>
        <path class="cls-1" d="M525.72,121.98h4.46v14.6c0,8.09-3.99,11.9-14.13,11.9s-14.1-3.81-14.1-11.9v-14.6h4.71v14.6c0,5.25,2.34,7.41,9.53,7.41s9.53-2.16,9.53-7.41v-14.6Z"/>
        <path class="cls-1" d="M538.63,148.12v-26.14h15.14c7.37,0,12.73,5.21,12.73,12.8s-5.36,13.34-12.73,13.34h-15.14ZM553.77,143.55c4.71,0,8.16-3.63,8.16-8.56s-3.45-8.45-8.16-8.45h-10.61v17.01h10.61Z"/>
        <path class="cls-1" d="M574.81,148.12v-26.14h4.57v26.14h-4.57Z"/>
        <path class="cls-1" d="M600.41,148.12c-7.3,0-12.69-5.75-12.69-13.34s5.4-12.8,12.69-12.8h6.36c7.55,0,12.8,5.21,12.8,12.8s-5.36,13.34-12.8,13.34h-6.36ZM606.78,143.55c4.82,0,8.24-3.63,8.24-8.56s-3.42-8.45-8.24-8.45h-6.36c-4.67,0-8.13,3.49-8.13,8.45s3.42,8.56,8.13,8.56h6.36Z"/>
      </g>
      <path class="cls-1" d="M107.26,74.23l32.15,32.44h-26.42l-26.98-29.66h-33.18v-16.42h37.72c13.35,0,20.4-7.64,20.4-21.41s-7.64-20.56-20.4-20.56h-58.1v38.78c-3.1-1.08-6.43-1.66-9.89-1.66-2.99,0-5.86.43-8.6,1.24V0h76.59c24.35,0,38.73,15.1,38.73,38.87,0,17.61-8.22,30.08-22.02,35.36ZM273.51,52.24c0,30.96-21.86,54.44-52.24,54.44h-25.95c-29.79,0-51.81-23.48-51.81-54.44S165.53,0,195.33,0h25.95c30.82,0,52.24,21.28,52.24,52.24ZM254.89,53.11c0-20.11-13.93-34.49-33.61-34.49h-25.95c-19.07,0-33.16,14.24-33.16,34.49s13.93,34.91,33.16,34.91h25.95c19.68,0,33.61-14.81,33.61-34.91ZM320.78,62.5h53.99v-16.29h-53.99v16.29ZM288.65,106.67h18.49V18.63h72.03V0h-90.52v106.67ZM392.09,106.67h18.49V18.63h72.05V0h-90.54v106.67ZM424.24,62.5h53.99v-16.29h-53.99v16.29ZM588.88,74.23c13.79-5.28,21.99-17.75,21.99-35.36,0-23.77-14.38-38.87-38.73-38.87h-76.59v106.67h18.49V18.63h58.1c12.76,0,20.4,6.76,20.4,20.56s-7.05,21.41-20.4,21.41h-44.46v16.42h39.92l26.98,29.66h26.42l-32.13-32.44ZM32.44,65.85c-2.99-1.48-6.34-2.29-9.89-2.29-3.06,0-5.95.61-8.6,1.71-8.2,3.37-13.95,11.41-13.95,20.83,0,12.47,10.09,22.56,22.56,22.56,3.28,0,6.4-.7,9.23-1.98h.65v-.31c7.5-3.64,12.67-11.35,12.67-20.27s-5.17-16.6-12.67-20.24Z"/>
      <path class="cls-1" d="M32.44,106.36v.31h-.65c.22-.09.45-.2.65-.31Z"/>
    </g>
  </g>
</svg>