<svg width="186" height="201" viewBox="0 0 186 201" fill="none" xmlns="http://www.w3.org/2000/svg">
<path d="M33.3249 122V109.982L53.0837 79.6307C54.5774 77.39 55.9694 75.2172 57.2595 73.1124C58.6174 71.0075 59.7038 68.8687 60.5186 66.6959C61.4013 64.5231 61.8427 62.2485 61.8427 59.872C61.8427 57.4955 61.3674 55.7301 60.4168 54.5758C59.4662 53.4216 58.1761 52.8444 56.5465 52.8444C54.7132 52.8444 53.2873 53.3537 52.2689 54.3721C51.2504 55.3906 50.5374 56.7486 50.13 58.4461C49.7905 60.1436 49.6208 62.0448 49.6208 64.1497V68.2236H33.1212V63.8441C33.1212 58.9554 33.9021 54.6098 35.4638 50.8074C37.0255 46.9372 39.5038 43.9157 42.8988 41.7429C46.2937 39.5022 50.7411 38.3819 56.241 38.3819C63.642 38.3819 69.2097 40.317 72.9442 44.1872C76.7466 47.9896 78.6477 53.3197 78.6477 60.1775C78.6477 63.5046 78.1046 66.594 77.0182 69.4458C75.9997 72.2976 74.6077 75.0814 72.8424 77.7974C71.1449 80.4455 69.3116 83.2294 67.3425 86.149L52.2689 108.658H76.4071V122H33.3249Z" fill="#0D0D0D"/>
<path d="M33.3249 122V109.982L53.0837 79.6307C54.5774 77.39 55.9694 75.2172 57.2595 73.1124C58.6174 71.0075 59.7038 68.8687 60.5186 66.6959C61.4013 64.5231 61.8427 62.2485 61.8427 59.872C61.8427 57.4955 61.3674 55.7301 60.4168 54.5758C59.4662 53.4216 58.1761 52.8444 56.5465 52.8444C54.7132 52.8444 53.2873 53.3537 52.2689 54.3721C51.2504 55.3906 50.5374 56.7486 50.13 58.4461C49.7905 60.1436 49.6208 62.0448 49.6208 64.1497V68.2236H33.1212V63.8441C33.1212 58.9554 33.9021 54.6098 35.4638 50.8074C37.0255 46.9372 39.5038 43.9157 42.8988 41.7429C46.2937 39.5022 50.7411 38.3819 56.241 38.3819C63.642 38.3819 69.2097 40.317 72.9442 44.1872C76.7466 47.9896 78.6477 53.3197 78.6477 60.1775C78.6477 63.5046 78.1046 66.594 77.0182 69.4458C75.9997 72.2976 74.6077 75.0814 72.8424 77.7974C71.1449 80.4455 69.3116 83.2294 67.3425 86.149L52.2689 108.658H76.4071V122H33.3249Z" fill="url(#paint0_linear_40_19)"/>
<g filter="url(#filter0_f_40_19)">
<ellipse cx="81.224" cy="88.4994" rx="80.4644" ry="6.75467" transform="rotate(-45 81.224 88.4994)" fill="black" fill-opacity="0.15"/>
</g>
<rect x="15.3936" y="152.328" width="178.492" height="54.1873" transform="rotate(-44.9964 15.3936 152.328)" fill="white"/>
<defs>
<filter id="filter0_f_40_19" x="8.13055" y="15.4057" width="146.187" height="146.187" filterUnits="userSpaceOnUse" color-interpolation-filters="sRGB">
<feFlood flood-opacity="0" result="BackgroundImageFix"/>
<feBlend mode="normal" in="SourceGraphic" in2="BackgroundImageFix" result="shape"/>
<feGaussianBlur stdDeviation="7.99674" result="effect1_foregroundBlur_40_19"/>
</filter>
<linearGradient id="paint0_linear_40_19" x1="28.8076" y1="75.4999" x2="81.8076" y2="75.4999" gradientUnits="userSpaceOnUse">
<stop stop-color="#EB3131"/>
<stop offset="1" stop-color="#DDA439"/>
</linearGradient>
</defs>
</svg>
