<svg width="182" height="201" viewBox="0 0 182 201" fill="none" xmlns="http://www.w3.org/2000/svg">
<path d="M49.7317 123.528C43.9603 123.528 39.411 122.441 36.084 120.268C32.8248 118.096 30.4823 115.074 29.0564 111.204C27.6984 107.266 27.0194 102.75 27.0194 97.658V94.7043H44.0282C44.0282 94.7722 44.0282 95.1457 44.0282 95.8247C44.0282 96.5037 44.0282 97.1148 44.0282 97.658C44.0282 100.374 44.1979 102.581 44.5374 104.278C44.8769 105.976 45.488 107.232 46.3707 108.047C47.2534 108.793 48.4756 109.167 50.0373 109.167C51.599 109.167 52.7532 108.76 53.5001 107.945C54.3149 107.13 54.8581 105.908 55.1297 104.278C55.4013 102.649 55.5371 100.612 55.5371 98.1672C55.5371 94.0933 54.96 91.0038 53.8057 88.899C52.7193 86.7262 50.4107 85.6058 46.88 85.5379C46.8121 85.5379 46.4386 85.5379 45.7596 85.5379C45.0806 85.5379 44.4016 85.5379 43.7226 85.5379V73.8253C44.1979 73.8253 44.6732 73.8253 45.1485 73.8253C45.6238 73.8253 46.0652 73.8253 46.4726 73.8253C50.0712 73.8253 52.4816 72.8408 53.7038 70.8717C54.926 68.9026 55.5371 65.8471 55.5371 61.7053C55.5371 58.514 55.0958 56.0696 54.2131 54.3721C53.3983 52.6747 51.8366 51.8259 49.528 51.8259C47.2873 51.8259 45.7936 52.7765 45.0467 54.6777C44.3677 56.5789 44.0282 59.0233 44.0282 62.0108C44.0282 62.6898 44.0282 63.4028 44.0282 64.1497C44.0282 64.8286 44.0282 65.5416 44.0282 66.2885H27.0194V61.2979C27.0194 56.3412 27.9021 52.1654 29.6675 48.7705C31.5008 45.3076 34.0809 42.6935 37.408 40.9281C40.803 39.1627 44.843 38.28 49.528 38.28C54.281 38.28 58.3549 39.1288 61.7499 40.8262C65.1449 42.5237 67.759 45.036 69.5923 48.3631C71.4256 51.6222 72.3422 55.6962 72.3422 60.5849C72.3422 65.4058 71.3577 69.4458 69.3886 72.705C67.4195 75.9641 65.043 77.9672 62.2591 78.7141C64.1603 79.3931 65.8578 80.4794 67.3516 81.9732C68.9133 83.467 70.1355 85.504 71.0182 88.0842C71.9009 90.5964 72.3422 93.8217 72.3422 97.7598C72.3422 102.784 71.5953 107.232 70.1015 111.102C68.6756 114.972 66.2992 118.028 62.9721 120.268C59.645 122.441 55.2316 123.528 49.7317 123.528Z" fill="#0D0D0D"/>
<path d="M49.7317 123.528C43.9603 123.528 39.411 122.441 36.084 120.268C32.8248 118.096 30.4823 115.074 29.0564 111.204C27.6984 107.266 27.0194 102.75 27.0194 97.658V94.7043H44.0282C44.0282 94.7722 44.0282 95.1457 44.0282 95.8247C44.0282 96.5037 44.0282 97.1148 44.0282 97.658C44.0282 100.374 44.1979 102.581 44.5374 104.278C44.8769 105.976 45.488 107.232 46.3707 108.047C47.2534 108.793 48.4756 109.167 50.0373 109.167C51.599 109.167 52.7532 108.76 53.5001 107.945C54.3149 107.13 54.8581 105.908 55.1297 104.278C55.4013 102.649 55.5371 100.612 55.5371 98.1672C55.5371 94.0933 54.96 91.0038 53.8057 88.899C52.7193 86.7262 50.4107 85.6058 46.88 85.5379C46.8121 85.5379 46.4386 85.5379 45.7596 85.5379C45.0806 85.5379 44.4016 85.5379 43.7226 85.5379V73.8253C44.1979 73.8253 44.6732 73.8253 45.1485 73.8253C45.6238 73.8253 46.0652 73.8253 46.4726 73.8253C50.0712 73.8253 52.4816 72.8408 53.7038 70.8717C54.926 68.9026 55.5371 65.8471 55.5371 61.7053C55.5371 58.514 55.0958 56.0696 54.2131 54.3721C53.3983 52.6747 51.8366 51.8259 49.528 51.8259C47.2873 51.8259 45.7936 52.7765 45.0467 54.6777C44.3677 56.5789 44.0282 59.0233 44.0282 62.0108C44.0282 62.6898 44.0282 63.4028 44.0282 64.1497C44.0282 64.8286 44.0282 65.5416 44.0282 66.2885H27.0194V61.2979C27.0194 56.3412 27.9021 52.1654 29.6675 48.7705C31.5008 45.3076 34.0809 42.6935 37.408 40.9281C40.803 39.1627 44.843 38.28 49.528 38.28C54.281 38.28 58.3549 39.1288 61.7499 40.8262C65.1449 42.5237 67.759 45.036 69.5923 48.3631C71.4256 51.6222 72.3422 55.6962 72.3422 60.5849C72.3422 65.4058 71.3577 69.4458 69.3886 72.705C67.4195 75.9641 65.043 77.9672 62.2591 78.7141C64.1603 79.3931 65.8578 80.4794 67.3516 81.9732C68.9133 83.467 70.1355 85.504 71.0182 88.0842C71.9009 90.5964 72.3422 93.8217 72.3422 97.7598C72.3422 102.784 71.5953 107.232 70.1015 111.102C68.6756 114.972 66.2992 118.028 62.9721 120.268C59.645 122.441 55.2316 123.528 49.7317 123.528Z" fill="url(#paint0_linear_40_26)"/>
<g filter="url(#filter0_f_40_26)">
<ellipse cx="75.224" cy="88.4994" rx="80.4644" ry="6.75467" transform="rotate(-45 75.224 88.4994)" fill="black" fill-opacity="0.15"/>
</g>
<rect x="9.39355" y="152.328" width="178.492" height="54.1873" transform="rotate(-44.9964 9.39355 152.328)" fill="white"/>
<defs>
<filter id="filter0_f_40_26" x="2.13055" y="15.4057" width="146.187" height="146.187" filterUnits="userSpaceOnUse" color-interpolation-filters="sRGB">
<feFlood flood-opacity="0" result="BackgroundImageFix"/>
<feBlend mode="normal" in="SourceGraphic" in2="BackgroundImageFix" result="shape"/>
<feGaussianBlur stdDeviation="7.99674" result="effect1_foregroundBlur_40_26"/>
</filter>
<linearGradient id="paint0_linear_40_26" x1="22.8076" y1="75.4999" x2="75.8076" y2="75.4999" gradientUnits="userSpaceOnUse">
<stop stop-color="#EB3131"/>
<stop offset="1" stop-color="#DDA439"/>
</linearGradient>
</defs>
</svg>
