<svg width="320" height="202" viewBox="0 0 320 202" fill="none" xmlns="http://www.w3.org/2000/svg">
<path d="M53.2128 122V103.463H27.8524V90.9359L49.3426 39.5022H69.1013V90.8341H76.7399V103.463H69.1013V122H53.2128ZM40.7872 90.8341H53.2128V56.511L40.7872 90.8341Z" fill="#0D0D0D"/>
<path d="M53.2128 122V103.463H27.8524V90.9359L49.3426 39.5022H69.1013V90.8341H76.7399V103.463H69.1013V122H53.2128ZM40.7872 90.8341H53.2128V56.511L40.7872 90.8341Z" fill="url(#paint0_linear_40_11)"/>
<g filter="url(#filter0_f_40_11)">
<ellipse cx="78.224" cy="88.4994" rx="80.4644" ry="6.75467" transform="rotate(-45 78.224 88.4994)" fill="black" fill-opacity="0.15"/>
</g>
<rect x="12.3936" y="152.328" width="178.492" height="54.1873" transform="rotate(-44.9964 12.3936 152.328)" fill="white"/>
<defs>
<filter id="filter0_f_40_11" x="5.13055" y="15.4057" width="146.187" height="146.187" filterUnits="userSpaceOnUse" color-interpolation-filters="sRGB">
<feFlood flood-opacity="0" result="BackgroundImageFix"/>
<feBlend mode="normal" in="SourceGraphic" in2="BackgroundImageFix" result="shape"/>
<feGaussianBlur stdDeviation="7.99674" result="effect1_foregroundBlur_40_11"/>
</filter>
<linearGradient id="paint0_linear_40_11" x1="25.0117" y1="75.4999" x2="79.0117" y2="75.4999" gradientUnits="userSpaceOnUse">
<stop stop-color="#EB3131"/>
<stop offset="1" stop-color="#DDA439"/>
</linearGradient>
</defs>
</svg>
