<svg width="65" height="65" viewBox="0 0 65 65" fill="none" xmlns="http://www.w3.org/2000/svg">
<g clip-path="url(#clip0_1320_3589)">
<path d="M32.383 19.4287C36.5748 19.4287 39.973 16.0305 39.973 11.8387C39.973 7.64683 36.5748 4.24866 32.383 4.24866C28.1911 4.24866 24.793 7.64683 24.793 11.8387C24.793 16.0305 28.1911 19.4287 32.383 19.4287Z" fill="#010002"/>
<path d="M32.383 19.4287C36.5748 19.4287 39.973 16.0305 39.973 11.8387C39.973 7.64683 36.5748 4.24866 32.383 4.24866C28.1911 4.24866 24.793 7.64683 24.793 11.8387C24.793 16.0305 28.1911 19.4287 32.383 19.4287Z" fill="url(#paint0_linear_1320_3589)"/>
<path d="M58.9473 32.7203L51.8734 31.2447C49.4634 30.7399 47.084 31.8445 45.826 33.8083C44.6042 33.1807 43.2904 32.6395 41.8929 32.1904V27.9839C41.8957 24.8012 39.2903 22.1986 36.1188 22.1986H28.8858C25.6976 22.1986 23.1034 24.8012 23.1034 27.9839V32.2126C21.7198 32.6534 20.42 33.1945 19.1898 33.8249C17.9318 31.8528 15.5496 30.7399 13.1367 31.2447L6.05706 32.7203C2.94962 33.3703 0.93282 36.4526 1.58276 39.5712L3.35968 48.0594C4.00406 51.1696 7.08913 53.1864 10.1994 52.5365L12.4393 52.0678C13.5606 53.7247 15.1116 55.245 17.0976 56.5448C21.2343 59.2562 26.6989 60.7513 32.498 60.7513C41.3712 60.7513 49.0143 57.1837 52.5345 52.0594L54.8107 52.5365C57.9181 53.1835 61.0032 51.1696 61.6476 48.0594L63.4272 39.5712C64.0743 36.4526 62.0575 33.3703 58.9473 32.7203ZM32.4952 57.8531C27.2566 57.8531 22.3472 56.5337 18.6847 54.1208C17.4294 53.3007 16.389 52.3887 15.555 51.4123L17.2705 51.0524C20.3835 50.4053 22.4003 47.323 21.7504 44.21L20.1576 36.5781C21.0865 36.0788 22.0628 35.6408 23.1004 35.2671V36.659C23.1004 39.8362 25.7002 42.4388 28.8829 42.4388H36.1159C39.2903 42.4388 41.89 39.8334 41.89 36.659V35.1945C42.9472 35.5711 43.9402 36.0035 44.8608 36.4944L43.2456 44.2128C42.6013 47.3258 44.6152 50.4082 47.7282 51.0553L49.4604 51.4179C46.2304 55.2422 39.8397 57.8531 32.4952 57.8531Z" fill="#010002"/>
<path d="M58.9473 32.7203L51.8734 31.2447C49.4634 30.7399 47.084 31.8445 45.826 33.8083C44.6042 33.1807 43.2904 32.6395 41.8929 32.1904V27.9839C41.8957 24.8012 39.2903 22.1986 36.1188 22.1986H28.8858C25.6976 22.1986 23.1034 24.8012 23.1034 27.9839V32.2126C21.7198 32.6534 20.42 33.1945 19.1898 33.8249C17.9318 31.8528 15.5496 30.7399 13.1367 31.2447L6.05706 32.7203C2.94962 33.3703 0.93282 36.4526 1.58276 39.5712L3.35968 48.0594C4.00406 51.1696 7.08913 53.1864 10.1994 52.5365L12.4393 52.0678C13.5606 53.7247 15.1116 55.245 17.0976 56.5448C21.2343 59.2562 26.6989 60.7513 32.498 60.7513C41.3712 60.7513 49.0143 57.1837 52.5345 52.0594L54.8107 52.5365C57.9181 53.1835 61.0032 51.1696 61.6476 48.0594L63.4272 39.5712C64.0743 36.4526 62.0575 33.3703 58.9473 32.7203ZM32.4952 57.8531C27.2566 57.8531 22.3472 56.5337 18.6847 54.1208C17.4294 53.3007 16.389 52.3887 15.555 51.4123L17.2705 51.0524C20.3835 50.4053 22.4003 47.323 21.7504 44.21L20.1576 36.5781C21.0865 36.0788 22.0628 35.6408 23.1004 35.2671V36.659C23.1004 39.8362 25.7002 42.4388 28.8829 42.4388H36.1159C39.2903 42.4388 41.89 39.8334 41.89 36.659V35.1945C42.9472 35.5711 43.9402 36.0035 44.8608 36.4944L43.2456 44.2128C42.6013 47.3258 44.6152 50.4082 47.7282 51.0553L49.4604 51.4179C46.2304 55.2422 39.8397 57.8531 32.4952 57.8531Z" fill="url(#paint1_linear_1320_3589)"/>
<path d="M57.4103 29.4065C61.6022 29.4065 65.0004 26.0083 65.0004 21.8165C65.0004 17.6246 61.6022 14.2264 57.4103 14.2264C53.2185 14.2264 49.8203 17.6246 49.8203 21.8165C49.8203 26.0083 53.2185 29.4065 57.4103 29.4065Z" fill="#010002"/>
<path d="M57.4103 29.4065C61.6022 29.4065 65.0004 26.0083 65.0004 21.8165C65.0004 17.6246 61.6022 14.2264 57.4103 14.2264C53.2185 14.2264 49.8203 17.6246 49.8203 21.8165C49.8203 26.0083 53.2185 29.4065 57.4103 29.4065Z" fill="url(#paint2_linear_1320_3589)"/>
<path d="M9.14733 29.2473C13.2533 28.3882 15.8755 24.3631 15.0274 20.2598C14.1627 16.1594 10.1459 13.5261 6.03704 14.3853C1.93658 15.2416 -0.69666 19.264 0.16251 23.3673C1.01896 27.4733 5.04131 30.1038 9.14733 29.2473Z" fill="#010002"/>
<path d="M9.14733 29.2473C13.2533 28.3882 15.8755 24.3631 15.0274 20.2598C14.1627 16.1594 10.1459 13.5261 6.03704 14.3853C1.93658 15.2416 -0.69666 19.264 0.16251 23.3673C1.01896 27.4733 5.04131 30.1038 9.14733 29.2473Z" fill="url(#paint3_linear_1320_3589)"/>
</g>
<defs>
<linearGradient id="paint0_linear_1320_3589" x1="24.793" y1="11.8387" x2="39.973" y2="11.8387" gradientUnits="userSpaceOnUse">
<stop stop-color="#EB3131"/>
<stop offset="1" stop-color="#DDA439"/>
</linearGradient>
<linearGradient id="paint1_linear_1320_3589" x1="1.46094" y1="41.475" x2="63.5481" y2="41.475" gradientUnits="userSpaceOnUse">
<stop stop-color="#EB3131"/>
<stop offset="1" stop-color="#DDA439"/>
</linearGradient>
<linearGradient id="paint2_linear_1320_3589" x1="49.8203" y1="21.8165" x2="65.0004" y2="21.8165" gradientUnits="userSpaceOnUse">
<stop stop-color="#EB3131"/>
<stop offset="1" stop-color="#DDA439"/>
</linearGradient>
<linearGradient id="paint3_linear_1320_3589" x1="0" y1="21.8159" x2="15.1867" y2="21.8159" gradientUnits="userSpaceOnUse">
<stop stop-color="#EB3131"/>
<stop offset="1" stop-color="#DDA439"/>
</linearGradient>
<clipPath id="clip0_1320_3589">
<rect width="65" height="65" fill="white"/>
</clipPath>
</defs>
</svg>
