<svg width="75" height="75" viewBox="0 0 75 75" fill="none" xmlns="http://www.w3.org/2000/svg">
<path fill-rule="evenodd" clip-rule="evenodd" d="M52.7039 23.6764L65.642 34.0144C66.4786 34.6841 66.9656 35.6976 66.9656 36.7692C66.9656 37.8408 66.4786 38.8543 65.642 39.524L52.7039 49.8621C44.1766 56.6687 32.0741 56.6687 23.5468 49.8621L10.6087 39.524C9.77212 38.8543 9.28516 37.8408 9.28516 36.7692C9.28516 35.6976 9.77212 34.6841 10.6087 34.0144L23.5468 23.6764C32.0741 16.8698 44.1766 16.8698 52.7039 23.6764ZM31.0063 36.7692C31.0063 40.7009 34.1936 43.8883 38.1254 43.8883C42.0571 43.8883 45.2444 40.7009 45.2444 36.7692C45.2444 32.8375 42.0571 29.6502 38.1254 29.6502C34.1936 29.6502 31.0063 32.8375 31.0063 36.7692Z" fill="black"/>
<path fill-rule="evenodd" clip-rule="evenodd" d="M52.7039 23.6764L65.642 34.0144C66.4786 34.6841 66.9656 35.6976 66.9656 36.7692C66.9656 37.8408 66.4786 38.8543 65.642 39.524L52.7039 49.8621C44.1766 56.6687 32.0741 56.6687 23.5468 49.8621L10.6087 39.524C9.77212 38.8543 9.28516 37.8408 9.28516 36.7692C9.28516 35.6976 9.77212 34.6841 10.6087 34.0144L23.5468 23.6764C32.0741 16.8698 44.1766 16.8698 52.7039 23.6764ZM31.0063 36.7692C31.0063 40.7009 34.1936 43.8883 38.1254 43.8883C42.0571 43.8883 45.2444 40.7009 45.2444 36.7692C45.2444 32.8375 42.0571 29.6502 38.1254 29.6502C34.1936 29.6502 31.0063 32.8375 31.0063 36.7692Z" fill="url(#paint0_linear_1320_3613)"/>
<defs>
<linearGradient id="paint0_linear_1320_3613" x1="9.28516" y1="36.7692" x2="66.9656" y2="36.7692" gradientUnits="userSpaceOnUse">
<stop stop-color="#EB3131"/>
<stop offset="1" stop-color="#DDA439"/>
</linearGradient>
</defs>
</svg>
