<svg width="65" height="65" viewBox="0 0 65 65" fill="none" xmlns="http://www.w3.org/2000/svg">
<path fill-rule="evenodd" clip-rule="evenodd" d="M51.8072 26.6963L55.4837 25.8543C56.7593 25.5621 58.0421 26.3668 58.3342 27.6424L62.9088 47.6162C63.201 48.8917 62.3963 50.1745 61.1207 50.4667L57.4441 51.3087C56.1686 51.6009 54.8858 50.7962 54.5937 49.5206L50.019 29.5468C49.7269 28.2712 50.5315 26.9885 51.8072 26.6963ZM32.8461 2.47559C38.4605 2.47559 43.0118 7.02698 43.0118 12.6414C43.0118 18.2557 38.4605 22.8071 32.8461 22.8071C27.2317 22.8071 22.6803 18.2557 22.6803 12.6414C22.6803 7.02698 27.2317 2.47559 32.8461 2.47559ZM29.9519 17.1641C30.3575 17.5467 30.729 17.8546 31.1792 18.0823C31.4322 18.2111 31.7006 18.3071 31.978 18.368L31.9933 19.003C31.9999 19.237 32.0989 19.459 32.2687 19.6202C32.4385 19.7815 32.6652 19.8689 32.8993 19.8634C33.1334 19.8579 33.3558 19.7599 33.5178 19.5908C33.6798 19.4218 33.7683 19.1954 33.7638 18.9613L33.7491 18.3507C35.256 17.9924 36.4679 16.7268 36.4679 15.1268C36.4679 13.178 34.7132 11.7976 32.8462 11.7976C31.3303 11.7976 30.3319 10.2261 31.5038 9.1796C32.2935 8.4745 34.0176 8.63726 34.5314 9.41891C34.6614 9.61253 34.8625 9.74702 35.0911 9.79313C35.3197 9.83924 35.5573 9.79325 35.7521 9.66515C35.947 9.53705 36.0834 9.3372 36.1317 9.10906C36.1801 8.88091 36.1363 8.64292 36.0101 8.44683C35.7212 8.00719 35.1973 7.6328 34.6319 7.36976C34.3376 7.23352 34.0314 7.12456 33.7172 7.04425L33.699 6.27974C33.6925 6.04561 33.5935 5.8236 33.4237 5.66229C33.2539 5.50098 33.0271 5.41351 32.7929 5.41904C32.5588 5.42456 32.3363 5.52262 32.1743 5.69176C32.0123 5.8609 31.9239 6.08734 31.9285 6.3215L31.9452 7.0214C30.4374 7.37902 29.2244 8.645 29.2244 10.2458C29.2244 12.1946 30.9791 13.575 32.8461 13.575C33.7332 13.575 34.6905 14.1609 34.6905 15.1268C34.6905 16.093 33.7332 16.6787 32.8461 16.6787C32.478 16.6787 32.2078 16.6159 31.9776 16.4995C31.7178 16.3681 31.4622 16.1514 31.1669 15.8728C31.0823 15.7919 30.9826 15.7284 30.8734 15.6862C30.7642 15.644 30.6477 15.6238 30.5306 15.6269C30.4136 15.6299 30.2983 15.6561 30.1915 15.704C30.0846 15.7518 29.9883 15.8204 29.9081 15.9056C29.8279 15.9909 29.7653 16.0912 29.7241 16.2008C29.6828 16.3103 29.6637 16.427 29.6678 16.544C29.6718 16.661 29.699 16.776 29.7478 16.8824C29.7966 16.9889 29.866 17.0846 29.9519 17.1641ZM13.1928 26.6963L9.51628 25.8543C8.24066 25.5621 6.95792 26.3668 6.6658 27.6424L2.09117 47.6162C1.79905 48.8917 2.60368 50.1745 3.87931 50.4667L7.55587 51.3087C8.83137 51.6009 10.1142 50.7962 10.4064 49.5206L14.981 29.5468C15.2731 28.2712 14.4685 26.9885 13.1928 26.6963ZM50.0184 50.57L52.736 49.3705L48.8836 32.5503L48.3313 32.7906C46.5631 33.5598 44.6908 33.4379 43.0125 32.5005C41.8955 31.8764 40.8954 31.2898 40 30.7644C36.326 28.609 34.5521 27.5684 32.0987 28.4856C30.5015 29.0827 28.5415 31.4039 26.3556 33.9925C24.7457 35.8989 23.0191 37.9436 21.1476 39.6369C22.5355 41.0026 23.946 41.358 25.3652 41.1275C27.1166 40.8429 28.9684 39.7054 30.825 38.4197C33.2488 36.7412 36.4795 37.0308 38.5646 39.1159L50.0184 50.57ZM25.0018 32.8468C23.2425 34.9303 21.3399 37.1833 19.3124 38.8835C18.9161 39.2149 18.8875 39.8133 19.2461 40.1828C21.2881 42.6072 23.4425 43.2355 25.6499 42.8769C27.7412 42.537 29.7973 41.2862 31.8317 39.8775C33.5593 38.6812 35.8226 38.8871 37.308 40.3724L48.7253 51.7895C49.6745 52.7387 49.538 54.0089 48.6874 54.9691C47.8203 55.7929 46.4318 55.7753 45.586 54.9293L36.7889 46.1317C36.6216 45.9678 36.3965 45.8765 36.1623 45.8777C35.9282 45.8789 35.704 45.9724 35.5384 46.138C35.3728 46.3035 35.2793 46.5278 35.2781 46.7619C35.277 46.9961 35.3682 47.2212 35.5322 47.3884C38.5864 50.4428 41.6409 53.4969 44.6953 56.5511C45.5579 57.4137 45.5566 58.8284 44.6946 59.6904L44.6964 59.6922C43.8344 60.5519 42.4167 60.5518 41.5558 59.6908L32.0925 50.2268C31.9253 50.0629 31.7001 49.9717 31.466 49.9728C31.2318 49.974 31.0076 50.0675 30.842 50.2331C30.6765 50.3987 30.5829 50.6229 30.5818 50.857C30.5806 51.0912 30.6719 51.3163 30.8358 51.4836L37.8556 58.5038C38.6857 59.369 38.6717 60.7617 37.8248 61.6109L37.8224 61.6098C36.9606 62.4716 35.5457 62.4724 34.6836 61.6102L26.9989 53.9252C26.8317 53.7613 26.6065 53.67 26.3724 53.6712C26.1382 53.6724 25.914 53.7659 25.7484 53.9315C25.5828 54.0971 25.4893 54.3213 25.4881 54.5554C25.487 54.7896 25.5783 55.0147 25.7422 55.182L29.3247 58.7646C30.1634 59.6306 30.151 61.0261 29.2989 61.8782L29.3007 61.88C28.4385 62.7401 27.0207 62.7393 26.1597 61.8782L12.4935 48.3684L16.5633 30.5984H26.932C26.3052 31.3035 25.6632 32.0637 25.0018 32.8468Z" fill="black"/>
<path fill-rule="evenodd" clip-rule="evenodd" d="M51.8072 26.6963L55.4837 25.8543C56.7593 25.5621 58.0421 26.3668 58.3342 27.6424L62.9088 47.6162C63.201 48.8917 62.3963 50.1745 61.1207 50.4667L57.4441 51.3087C56.1686 51.6009 54.8858 50.7962 54.5937 49.5206L50.019 29.5468C49.7269 28.2712 50.5315 26.9885 51.8072 26.6963ZM32.8461 2.47559C38.4605 2.47559 43.0118 7.02698 43.0118 12.6414C43.0118 18.2557 38.4605 22.8071 32.8461 22.8071C27.2317 22.8071 22.6803 18.2557 22.6803 12.6414C22.6803 7.02698 27.2317 2.47559 32.8461 2.47559ZM29.9519 17.1641C30.3575 17.5467 30.729 17.8546 31.1792 18.0823C31.4322 18.2111 31.7006 18.3071 31.978 18.368L31.9933 19.003C31.9999 19.237 32.0989 19.459 32.2687 19.6202C32.4385 19.7815 32.6652 19.8689 32.8993 19.8634C33.1334 19.8579 33.3558 19.7599 33.5178 19.5908C33.6798 19.4218 33.7683 19.1954 33.7638 18.9613L33.7491 18.3507C35.256 17.9924 36.4679 16.7268 36.4679 15.1268C36.4679 13.178 34.7132 11.7976 32.8462 11.7976C31.3303 11.7976 30.3319 10.2261 31.5038 9.1796C32.2935 8.4745 34.0176 8.63726 34.5314 9.41891C34.6614 9.61253 34.8625 9.74702 35.0911 9.79313C35.3197 9.83924 35.5573 9.79325 35.7521 9.66515C35.947 9.53705 36.0834 9.3372 36.1317 9.10906C36.1801 8.88091 36.1363 8.64292 36.0101 8.44683C35.7212 8.00719 35.1973 7.6328 34.6319 7.36976C34.3376 7.23352 34.0314 7.12456 33.7172 7.04425L33.699 6.27974C33.6925 6.04561 33.5935 5.8236 33.4237 5.66229C33.2539 5.50098 33.0271 5.41351 32.7929 5.41904C32.5588 5.42456 32.3363 5.52262 32.1743 5.69176C32.0123 5.8609 31.9239 6.08734 31.9285 6.3215L31.9452 7.0214C30.4374 7.37902 29.2244 8.645 29.2244 10.2458C29.2244 12.1946 30.9791 13.575 32.8461 13.575C33.7332 13.575 34.6905 14.1609 34.6905 15.1268C34.6905 16.093 33.7332 16.6787 32.8461 16.6787C32.478 16.6787 32.2078 16.6159 31.9776 16.4995C31.7178 16.3681 31.4622 16.1514 31.1669 15.8728C31.0823 15.7919 30.9826 15.7284 30.8734 15.6862C30.7642 15.644 30.6477 15.6238 30.5306 15.6269C30.4136 15.6299 30.2983 15.6561 30.1915 15.704C30.0846 15.7518 29.9883 15.8204 29.9081 15.9056C29.8279 15.9909 29.7653 16.0912 29.7241 16.2008C29.6828 16.3103 29.6637 16.427 29.6678 16.544C29.6718 16.661 29.699 16.776 29.7478 16.8824C29.7966 16.9889 29.866 17.0846 29.9519 17.1641ZM13.1928 26.6963L9.51628 25.8543C8.24066 25.5621 6.95792 26.3668 6.6658 27.6424L2.09117 47.6162C1.79905 48.8917 2.60368 50.1745 3.87931 50.4667L7.55587 51.3087C8.83137 51.6009 10.1142 50.7962 10.4064 49.5206L14.981 29.5468C15.2731 28.2712 14.4685 26.9885 13.1928 26.6963ZM50.0184 50.57L52.736 49.3705L48.8836 32.5503L48.3313 32.7906C46.5631 33.5598 44.6908 33.4379 43.0125 32.5005C41.8955 31.8764 40.8954 31.2898 40 30.7644C36.326 28.609 34.5521 27.5684 32.0987 28.4856C30.5015 29.0827 28.5415 31.4039 26.3556 33.9925C24.7457 35.8989 23.0191 37.9436 21.1476 39.6369C22.5355 41.0026 23.946 41.358 25.3652 41.1275C27.1166 40.8429 28.9684 39.7054 30.825 38.4197C33.2488 36.7412 36.4795 37.0308 38.5646 39.1159L50.0184 50.57ZM25.0018 32.8468C23.2425 34.9303 21.3399 37.1833 19.3124 38.8835C18.9161 39.2149 18.8875 39.8133 19.2461 40.1828C21.2881 42.6072 23.4425 43.2355 25.6499 42.8769C27.7412 42.537 29.7973 41.2862 31.8317 39.8775C33.5593 38.6812 35.8226 38.8871 37.308 40.3724L48.7253 51.7895C49.6745 52.7387 49.538 54.0089 48.6874 54.9691C47.8203 55.7929 46.4318 55.7753 45.586 54.9293L36.7889 46.1317C36.6216 45.9678 36.3965 45.8765 36.1623 45.8777C35.9282 45.8789 35.704 45.9724 35.5384 46.138C35.3728 46.3035 35.2793 46.5278 35.2781 46.7619C35.277 46.9961 35.3682 47.2212 35.5322 47.3884C38.5864 50.4428 41.6409 53.4969 44.6953 56.5511C45.5579 57.4137 45.5566 58.8284 44.6946 59.6904L44.6964 59.6922C43.8344 60.5519 42.4167 60.5518 41.5558 59.6908L32.0925 50.2268C31.9253 50.0629 31.7001 49.9717 31.466 49.9728C31.2318 49.974 31.0076 50.0675 30.842 50.2331C30.6765 50.3987 30.5829 50.6229 30.5818 50.857C30.5806 51.0912 30.6719 51.3163 30.8358 51.4836L37.8556 58.5038C38.6857 59.369 38.6717 60.7617 37.8248 61.6109L37.8224 61.6098C36.9606 62.4716 35.5457 62.4724 34.6836 61.6102L26.9989 53.9252C26.8317 53.7613 26.6065 53.67 26.3724 53.6712C26.1382 53.6724 25.914 53.7659 25.7484 53.9315C25.5828 54.0971 25.4893 54.3213 25.4881 54.5554C25.487 54.7896 25.5783 55.0147 25.7422 55.182L29.3247 58.7646C30.1634 59.6306 30.151 61.0261 29.2989 61.8782L29.3007 61.88C28.4385 62.7401 27.0207 62.7393 26.1597 61.8782L12.4935 48.3684L16.5633 30.5984H26.932C26.3052 31.3035 25.6632 32.0637 25.0018 32.8468Z" fill="url(#paint0_linear_1320_3549)"/>
<defs>
<linearGradient id="paint0_linear_1320_3549" x1="2.03125" y1="32.5001" x2="62.9688" y2="32.5001" gradientUnits="userSpaceOnUse">
<stop stop-color="#EB3131"/>
<stop offset="1" stop-color="#DDA439"/>
</linearGradient>
</defs>
</svg>
