<svg width="46" height="56" viewBox="0 0 46 56" fill="none" xmlns="http://www.w3.org/2000/svg">
<g clip-path="url(#clip0_1320_3555)">
<path fill-rule="evenodd" clip-rule="evenodd" d="M12.0162 8.73942V16.944C10.6563 16.9634 9.44086 17.0157 8.38988 17.157C6.5996 17.3977 4.88351 17.9405 3.49159 19.3325C2.09963 20.7244 1.55685 22.4405 1.31616 24.2307C1.09156 25.9013 1.09167 27.9873 1.0918 30.4084V41.6922C1.09167 44.1133 1.09156 46.1994 1.31616 47.87C1.55685 49.6602 2.09963 51.3764 3.49159 52.7682C4.88351 54.1602 6.5996 54.7029 8.38988 54.9438C10.0604 55.1683 12.1464 55.1683 14.5675 55.168H31.3138C33.7346 55.1683 35.8206 55.1683 37.4913 54.9438C39.2815 54.7029 40.9977 54.1602 42.3895 52.7682C43.7815 51.3764 44.3242 49.6602 44.5651 47.87C44.7896 46.1994 44.7895 44.1133 44.7893 41.6922V30.4084C44.7895 27.9873 44.7896 25.9013 44.5651 24.2307C44.3242 22.4405 43.7815 20.7244 42.3895 19.3325C40.9977 17.9405 39.2815 17.3977 37.4913 17.1571C36.4403 17.0157 35.2247 16.9634 33.8649 16.944V8.73942C33.8649 4.21441 30.1968 0.546143 25.6716 0.546143H20.2094C15.6845 0.546143 12.0162 4.21441 12.0162 8.73942ZM20.2094 6.00833C18.7011 6.00833 17.4784 7.23109 17.4784 8.73942V16.9327H28.4027V8.73942C28.4027 7.23109 27.18 6.00833 25.6716 6.00833H20.2094ZM22.9405 30.5882C19.9238 30.5882 17.4784 33.0336 17.4784 36.0503C17.4784 39.0671 19.9238 41.5125 22.9405 41.5125C25.9573 41.5125 28.4027 39.0671 28.4027 36.0503C28.4027 33.0336 25.9573 30.5882 22.9405 30.5882Z" fill="black"/>
<path fill-rule="evenodd" clip-rule="evenodd" d="M12.0162 8.73942V16.944C10.6563 16.9634 9.44086 17.0157 8.38988 17.157C6.5996 17.3977 4.88351 17.9405 3.49159 19.3325C2.09963 20.7244 1.55685 22.4405 1.31616 24.2307C1.09156 25.9013 1.09167 27.9873 1.0918 30.4084V41.6922C1.09167 44.1133 1.09156 46.1994 1.31616 47.87C1.55685 49.6602 2.09963 51.3764 3.49159 52.7682C4.88351 54.1602 6.5996 54.7029 8.38988 54.9438C10.0604 55.1683 12.1464 55.1683 14.5675 55.168H31.3138C33.7346 55.1683 35.8206 55.1683 37.4913 54.9438C39.2815 54.7029 40.9977 54.1602 42.3895 52.7682C43.7815 51.3764 44.3242 49.6602 44.5651 47.87C44.7896 46.1994 44.7895 44.1133 44.7893 41.6922V30.4084C44.7895 27.9873 44.7896 25.9013 44.5651 24.2307C44.3242 22.4405 43.7815 20.7244 42.3895 19.3325C40.9977 17.9405 39.2815 17.3977 37.4913 17.1571C36.4403 17.0157 35.2247 16.9634 33.8649 16.944V8.73942C33.8649 4.21441 30.1968 0.546143 25.6716 0.546143H20.2094C15.6845 0.546143 12.0162 4.21441 12.0162 8.73942ZM20.2094 6.00833C18.7011 6.00833 17.4784 7.23109 17.4784 8.73942V16.9327H28.4027V8.73942C28.4027 7.23109 27.18 6.00833 25.6716 6.00833H20.2094ZM22.9405 30.5882C19.9238 30.5882 17.4784 33.0336 17.4784 36.0503C17.4784 39.0671 19.9238 41.5125 22.9405 41.5125C25.9573 41.5125 28.4027 39.0671 28.4027 36.0503C28.4027 33.0336 25.9573 30.5882 22.9405 30.5882Z" fill="url(#paint0_linear_1320_3555)"/>
</g>
<defs>
<linearGradient id="paint0_linear_1320_3555" x1="1.0918" y1="27.8571" x2="44.7893" y2="27.8571" gradientUnits="userSpaceOnUse">
<stop stop-color="#EB3131"/>
<stop offset="1" stop-color="#DDA439"/>
</linearGradient>
<clipPath id="clip0_1320_3555">
<rect width="45.8824" height="55.7143" fill="white"/>
</clipPath>
</defs>
</svg>
