<svg width="60" height="60" viewBox="0 0 60 60" fill="none" xmlns="http://www.w3.org/2000/svg">
<g clip-path="url(#clip0_1320_3605)">
<path d="M58.4509 47.3644L36.4308 25.3444C37.5801 22.2415 37.8884 18.9019 37.3194 15.6064C36.6576 11.773 34.8491 8.28812 32.0896 5.52864C24.7605 -1.80056 12.8349 -1.80056 5.50572 5.52864C1.95534 9.07902 0 13.7996 0 18.8206C0 23.8417 1.95534 28.5622 5.50584 32.1125C8.42097 35.0279 12.115 36.8688 16.1882 37.4366C19.4394 37.89 22.7928 37.4712 25.8247 36.2563L27.9548 40.968L34.1329 43.7613L36.9262 49.9393L43.105 52.7331L46.1181 59.3968L59.4286 59.2671L58.4509 47.3644ZM21.5607 21.5836C20.216 22.9282 18.4499 23.6005 16.6837 23.6005C14.9175 23.6005 13.1513 22.9282 11.8068 21.5836C9.11762 18.8944 9.11762 14.5188 11.8068 11.8296C14.4961 9.14043 18.8716 9.14043 21.5608 11.8296C24.2498 14.5188 24.2498 18.8946 21.5607 21.5836Z" fill="black"/>
<path d="M58.4509 47.3644L36.4308 25.3444C37.5801 22.2415 37.8884 18.9019 37.3194 15.6064C36.6576 11.773 34.8491 8.28812 32.0896 5.52864C24.7605 -1.80056 12.8349 -1.80056 5.50572 5.52864C1.95534 9.07902 0 13.7996 0 18.8206C0 23.8417 1.95534 28.5622 5.50584 32.1125C8.42097 35.0279 12.115 36.8688 16.1882 37.4366C19.4394 37.89 22.7928 37.4712 25.8247 36.2563L27.9548 40.968L34.1329 43.7613L36.9262 49.9393L43.105 52.7331L46.1181 59.3968L59.4286 59.2671L58.4509 47.3644ZM21.5607 21.5836C20.216 22.9282 18.4499 23.6005 16.6837 23.6005C14.9175 23.6005 13.1513 22.9282 11.8068 21.5836C9.11762 18.8944 9.11762 14.5188 11.8068 11.8296C14.4961 9.14043 18.8716 9.14043 21.5608 11.8296C24.2498 14.5188 24.2498 18.8946 21.5607 21.5836Z" fill="url(#paint0_linear_1320_3605)"/>
<path d="M18.8239 14.5671C18.2342 13.9773 17.4593 13.6825 16.6846 13.6825C15.9097 13.6825 15.1351 13.9772 14.545 14.5671C13.3652 15.7468 13.3652 17.6665 14.545 18.8462C15.7246 20.0258 17.6442 20.0258 18.8239 18.8462C20.0037 17.6664 20.0037 15.7467 18.8239 14.5671Z" fill="black"/>
<path d="M18.8239 14.5671C18.2342 13.9773 17.4593 13.6825 16.6846 13.6825C15.9097 13.6825 15.1351 13.9772 14.545 14.5671C13.3652 15.7468 13.3652 17.6665 14.545 18.8462C15.7246 20.0258 17.6442 20.0258 18.8239 18.8462C20.0037 17.6664 20.0037 15.7467 18.8239 14.5671Z" fill="url(#paint1_linear_1320_3605)"/>
</g>
<defs>
<linearGradient id="paint0_linear_1320_3605" x1="0" y1="29.7143" x2="59.4286" y2="29.7143" gradientUnits="userSpaceOnUse">
<stop stop-color="#EB3131"/>
<stop offset="1" stop-color="#DDA439"/>
</linearGradient>
<linearGradient id="paint1_linear_1320_3605" x1="13.6602" y1="16.7067" x2="19.7087" y2="16.7067" gradientUnits="userSpaceOnUse">
<stop stop-color="#EB3131"/>
<stop offset="1" stop-color="#DDA439"/>
</linearGradient>
<clipPath id="clip0_1320_3605">
<rect width="59.4286" height="59.4286" fill="white"/>
</clipPath>
</defs>
</svg>
