<svg width="75" height="75" viewBox="0 0 75 75" fill="none" xmlns="http://www.w3.org/2000/svg">
<path d="M52.6179 18.5713V12.3809H18.5703V18.5713H29.4036C33.4336 18.5713 36.8353 21.1651 38.1167 24.7618H18.5703V30.9523H38.1167C37.4814 32.7575 36.3027 34.3218 34.7426 35.4302C33.1825 36.5387 31.3174 37.1369 29.4036 37.1428H18.5703V44.6147L35.8603 61.9047H44.6136L26.0422 43.3332H29.4036C32.9692 43.3285 36.4241 42.0944 39.1858 39.839C41.9475 37.5837 43.847 34.445 44.5641 30.9523H52.6179V24.7618H44.5641C44.0897 22.5091 43.1119 20.3928 41.7041 18.5713H52.6179Z" fill="black"/>
<path d="M52.6179 18.5713V12.3809H18.5703V18.5713H29.4036C33.4336 18.5713 36.8353 21.1651 38.1167 24.7618H18.5703V30.9523H38.1167C37.4814 32.7575 36.3027 34.3218 34.7426 35.4302C33.1825 36.5387 31.3174 37.1369 29.4036 37.1428H18.5703V44.6147L35.8603 61.9047H44.6136L26.0422 43.3332H29.4036C32.9692 43.3285 36.4241 42.0944 39.1858 39.839C41.9475 37.5837 43.847 34.445 44.5641 30.9523H52.6179V24.7618H44.5641C44.0897 22.5091 43.1119 20.3928 41.7041 18.5713H52.6179Z" fill="url(#paint0_linear_1320_3518)"/>
<defs>
<linearGradient id="paint0_linear_1320_3518" x1="18.5703" y1="37.1428" x2="52.6179" y2="37.1428" gradientUnits="userSpaceOnUse">
<stop stop-color="#EB3131"/>
<stop offset="1" stop-color="#DDA439"/>
</linearGradient>
</defs>
</svg>
