<svg width="227" height="39" viewBox="0 0 227 39" fill="none" xmlns="http://www.w3.org/2000/svg">
<g clip-path="url(#clip0_330_2539)">
<path d="M0.287109 0.790768H226.846V38.6143H0.287109V0.790768Z" fill="#004C8F"/>
<path d="M38.1113 0.790768H226.847V38.6143H38.1113V0.790768Z" fill="#004C8F"/>
<path d="M49.9551 28.489V10.5323H55.877V16.6453H61.4168V10.5323H67.3386V28.489H61.4168V21.612H55.877V28.489H49.9551Z" fill="white"/>
<path d="M76.6976 15.1171H78.2259C79.3721 15.1171 80.1361 15.3081 80.7092 15.4991C81.0913 15.6901 81.4733 15.8811 81.6644 16.2632C81.8554 16.6452 82.0465 17.0273 82.2375 17.6004C82.4285 18.1735 82.4285 18.7466 82.4285 19.5107C82.4285 20.4658 82.2375 21.4209 82.0464 22.1851C81.6644 22.9492 81.2823 23.3313 80.7092 23.7133C80.1361 24.0954 79.3721 24.0953 78.2259 24.0953H76.6976V15.1171ZM78.799 28.489C80.1361 28.489 81.2823 28.298 82.2375 28.1069C83.1926 27.9159 83.9567 27.5339 84.5298 27.1518C85.1029 26.7697 85.6759 26.1967 86.249 25.6236C86.8221 24.8595 87.2042 24.0953 87.5862 22.9492C87.9683 21.994 88.1593 20.6568 88.1593 19.3196C88.1593 17.4094 87.7773 15.6901 87.0132 14.3529C86.2491 13.0157 85.2939 12.0606 83.9567 11.4875C82.6195 10.9144 81.0913 10.5323 79.181 10.5323H70.9668V28.489H78.799Z" fill="white"/>
<path d="M90.834 28.489V10.5323H104.779V14.926H96.5648V17.7914H103.06V21.994H96.5648V28.298L90.834 28.489Z" fill="white"/>
<path d="M124.457 17.6014H118.917C118.726 16.6463 118.535 16.0732 117.962 15.5001C117.389 14.927 116.815 14.736 115.86 14.736C114.905 14.736 113.95 15.1181 113.377 15.8822C112.804 16.6463 112.422 17.9835 112.422 19.7028C112.422 21.04 112.613 21.8041 112.804 22.5682C112.995 23.1413 113.568 23.7143 113.95 24.0964C114.523 24.4784 115.096 24.4785 115.86 24.4785C116.815 24.4785 117.389 24.2874 117.962 23.7144C118.535 23.1413 118.726 22.5682 118.917 21.422H124.648C124.457 22.5682 124.266 23.5233 123.884 24.2874C123.501 25.0515 123.119 25.8157 122.355 26.5798C121.591 27.3439 120.636 27.917 119.681 28.299C118.726 28.6811 117.389 28.8721 116.051 28.8721C114.714 28.8721 113.377 28.6811 112.231 28.299C111.085 27.917 110.13 27.3439 109.365 26.5798C108.601 25.8157 108.028 25.0515 107.455 24.0964C106.882 22.7592 106.5 21.231 106.5 19.7028C106.5 18.3656 106.691 17.0284 107.264 15.8822C107.646 14.736 108.41 13.5899 109.174 12.8257C109.938 12.0616 110.894 11.4885 111.849 10.9155C112.995 10.3424 114.332 10.1514 115.86 10.1514C117.198 10.1514 118.344 10.3424 119.49 10.7244C120.636 11.1065 121.591 11.6796 122.355 12.4437C123.119 13.2078 123.693 13.9719 124.075 14.9271C124.075 15.6912 124.266 16.4553 124.457 17.6014Z" fill="white"/>
<path d="M143.176 14.735C143.94 14.735 144.513 14.735 144.896 14.926C145.278 15.1171 145.469 15.3081 145.66 15.4991C145.851 15.6901 146.042 16.0722 146.042 16.4542C146.042 16.8363 145.851 17.2183 145.469 17.6004C145.087 17.9825 144.513 17.9825 143.558 17.9825H141.266V14.926H143.176V14.735ZM144.704 28.489C146.042 28.489 146.997 28.489 147.57 28.298C148.143 28.1069 148.716 27.9159 149.289 27.7249C149.862 27.3428 150.244 27.1518 150.626 26.7697C151.008 26.3877 151.39 25.8146 151.581 25.2415C151.773 24.6684 151.964 23.9043 151.964 23.1402C151.964 21.994 151.772 21.2299 151.199 20.4658C150.626 19.7017 149.862 19.3197 149.098 18.9376C150.626 17.9825 151.39 16.6453 151.39 15.1171C151.39 13.5888 150.626 12.2516 149.289 11.4875C148.334 10.9144 146.615 10.5323 144.322 10.5323H135.535V28.489H144.704ZM143.749 21.0389C144.895 21.0389 145.66 21.2299 146.042 21.421C146.424 21.803 146.615 22.1851 146.615 22.5671C146.615 23.1402 146.424 23.5222 146.042 23.9043C145.66 24.2864 144.895 24.2864 143.749 24.2864H141.266V20.8479L143.749 21.0389Z" fill="white"/>
<path d="M164.953 22.5671H161.133L163.043 16.0722L164.953 22.5671ZM159.604 28.489L160.368 26.1967H166.29L167.054 28.489H172.976L166.481 10.5323H160.559L154.064 28.489H159.604Z" fill="white"/>
<path d="M175.078 28.489V10.5323H180.618L186.731 20.0837V10.5323H192.271V28.489H186.731L180.618 19.1286V28.489H175.078Z" fill="white"/>
<path d="M196.281 28.489V10.5323H202.012V16.6453L207.361 10.7234H214.238L207.743 17.4094L215.002 28.489H207.934L203.731 21.421L202.203 22.9492V28.489H196.281Z" fill="white"/>
<path d="M0.287109 0.790768H38.1107V38.6143H0.287109V0.790768Z" fill="#ED232A"/>
<path d="M6.97266 7.2854H31.4243V31.928H6.97266V7.2854Z" fill="white"/>
<path d="M17.2891 0.790768H21.1096V38.6143H17.2891V0.790768Z" fill="white"/>
<path d="M0.287109 17.7925H38.1107V21.613H0.287109V17.7925Z" fill="white"/>
<path d="M13.4688 13.973H24.7394V25.2437H13.4688V13.973Z" fill="#004C8F"/>
</g>
<defs>
<clipPath id="clip0_330_2539">
<rect width="226.555" height="37.7486" fill="white" transform="translate(0.257812 0.747559)"/>
</clipPath>
</defs>
</svg>
