<svg width="140" height="39" viewBox="0 0 140 39" fill="none" xmlns="http://www.w3.org/2000/svg">
<g clip-path="url(#clip0_330_2557)">
<mask id="mask0_330_2557" style="mask-type:luminance" maskUnits="userSpaceOnUse" x="-35" y="-475" width="826" height="574">
<path d="M-34.793 98.6567H790.835V-474.452H-34.793V98.6567Z" fill="white"/>
</mask>
<g mask="url(#mask0_330_2557)">
<path d="M41.5251 36.9961H29.1358L21.6133 23.8779H34.0008L41.5251 36.9961Z" fill="#800000"/>
<path d="M21.5692 2.4717L27.7815 13.1556L14.0589 36.9961H1.69336L21.5692 2.4717Z" fill="#800000"/>
<path d="M49.2131 19.3609L47.1252 15.3608L44.9349 19.3609H49.2131ZM50.0749 21.0321H44.051L42.4847 23.877H40.1895L47.1661 11.3736L53.8889 23.877H51.5632L50.0749 21.0321Z" fill="#800000"/>
<path d="M58.5996 17.7372L54.7161 12.1311H57.137L59.8323 16.0989L62.6509 12.1311H65.0907L61.0376 17.7372L65.2981 23.877H62.915L59.7994 19.3755L56.5789 23.877H54.1738L58.5996 17.7372Z" fill="#800000"/>
<path d="M69.3271 23.877H67.2051V12.1305H69.3265L69.3271 23.877Z" fill="#800000"/>
<path d="M79.9406 13.8587L78.2077 14.7181C77.8844 14.2515 77.5819 13.9471 77.2849 13.8038C76.9811 13.6403 76.5919 13.5604 76.1089 13.5604C75.5233 13.5604 75.0366 13.7007 74.6389 13.9849C74.2516 14.2557 74.057 14.5979 74.0576 15.0121C74.0576 15.5934 74.5706 16.052 75.588 16.3991L76.9945 16.884C78.1376 17.2585 78.9726 17.7386 79.5075 18.2893C80.0443 18.8493 80.2992 19.5281 80.2992 20.3437C80.2992 21.4202 79.8704 22.3205 79.0013 23.0146C78.137 23.7325 77.0488 24.0869 75.76 24.0869C74.537 24.0869 73.5251 23.7868 72.7334 23.175C71.9417 22.562 71.4592 21.7154 71.2598 20.6254L73.4123 20.2278C73.5148 20.9225 73.6776 21.3897 73.9283 21.6569C74.362 22.1607 75.0097 22.4187 75.8448 22.4187C76.5127 22.4187 77.058 22.2394 77.4941 21.86C77.9357 21.4934 78.151 21.0207 78.151 20.4547C78.151 20.2278 78.118 20.0155 78.0266 19.8325C77.9656 19.6337 77.8448 19.4647 77.6856 19.3037C77.5307 19.1524 77.3117 18.9896 77.058 18.8535C76.8042 18.7102 76.5005 18.5888 76.1479 18.4491L74.7895 17.9789C72.8511 17.3018 71.8972 16.3088 71.8972 14.9974C71.8972 14.113 72.3034 13.3847 73.1085 12.7925C73.9124 12.1898 74.9201 11.883 76.1247 11.8843C77.746 11.8843 79.0269 12.543 79.9406 13.8587Z" fill="#800000"/>
<path d="M90.7567 22.2045H92.0723C93.0415 22.2045 93.7479 22.0502 94.1986 21.7409C94.6695 21.3963 94.9122 20.9663 94.9122 20.4496C94.9122 19.9385 94.6695 19.5109 94.2187 19.1565C93.7729 18.8357 92.9836 18.654 91.8332 18.654H90.7567V22.2045ZM90.7567 17.1724H91.43C92.2181 17.1724 92.803 17.029 93.1672 16.7363C93.5307 16.4429 93.7198 16.0147 93.7198 15.4535C93.7198 14.8924 93.5307 14.4703 93.1562 14.1958C92.7732 13.9 92.2297 13.7561 91.5093 13.7561H90.7567V17.1724ZM88.6328 23.877V12.1305H90.7567C91.699 12.1305 92.4493 12.183 93.0098 12.308C93.574 12.4257 94.0498 12.6411 94.4365 12.9174C94.836 13.2291 95.141 13.5981 95.377 14.0543C95.621 14.4929 95.7393 14.9552 95.7393 15.4157C95.7393 16.2568 95.3471 16.968 94.5743 17.553C95.3295 17.7646 95.9126 18.1379 96.345 18.6716C96.7885 19.1968 97.0044 19.8043 97.0044 20.5186C97.0044 21.4286 96.6177 22.2045 95.8351 22.8431C95.3697 23.2347 94.8439 23.5098 94.2602 23.6549C93.6192 23.8056 92.8213 23.877 91.8558 23.877H88.6328Z" fill="#800000"/>
<path d="M106.148 19.3609L104.052 15.3608L101.853 19.3609H106.148ZM107.012 21.0321H100.98L99.4117 23.877H97.1152L104.081 11.3736L110.816 23.877H108.479L107.012 21.0321Z" fill="#800000"/>
<path d="M112.209 23.8768V11.3137L122.479 20.2952V12.1304H124.606V24.5935L114.334 15.6425V23.8768H112.209Z" fill="#800000"/>
<path d="M129.369 16.8204L134.857 12.1311H137.688L131.323 17.453L137.732 23.877H134.883L129.812 18.6491L129.369 19.0163V23.877H127.238V12.1311H129.369V16.8204Z" fill="#800000"/>
</g>
</g>
<defs>
<clipPath id="clip0_330_2557">
<rect width="138.625" height="37.7486" fill="white" transform="translate(0.429688 0.747559)"/>
</clipPath>
</defs>
</svg>
