<svg width="199" height="39" viewBox="0 0 199 39" fill="none" xmlns="http://www.w3.org/2000/svg">
<g clip-path="url(#clip0_330_2584)">
<path d="M10.5226 8.94863C19.1703 0.377876 29.624 -1.83628 33.7942 4.01966C37.9631 9.87424 34.3137 21.6413 25.6641 30.2104C17.0196 38.7794 6.56487 40.9926 2.39468 35.1383C-1.77419 29.2814 1.87617 17.517 10.5226 8.94863Z" fill="#F58220"/>
<path d="M16.2465 4.37956C15.3159 5.07751 14.3262 5.89382 13.3919 6.82704C5.81261 14.288 2.66555 24.5465 6.39722 29.675C10.2432 34.8059 19.5698 32.9404 27.2641 25.3647C31.4035 21.3403 34.2019 16.6195 35.3668 12.2491C35.7171 9.04348 35.2501 6.1856 33.7925 4.03024C30.4712 -0.517014 23.3589 -0.167698 16.2465 4.37956Z" fill="#B02A30"/>
<path d="M20.5317 34.4399C16.4828 37.4786 12.3016 38.9855 8.2207 38.3543C9.93284 38.4432 11.3169 36.544 12.4507 33.9915C13.602 31.3775 14.2925 28.9528 14.845 26.6838C15.6477 23.0916 15.7101 20.5238 15.3007 19.9739C14.6087 19.0596 13.0353 19.2965 11.2544 20.3193C10.4008 20.7912 9.26797 20.474 10.6074 18.854C11.9643 17.2152 17.3506 13.279 19.2888 12.6636C21.4166 12.0503 23.8414 12.8853 23.0205 15.2152C22.4385 16.9158 14.9861 36.4703 20.5317 34.4399ZM26.6295 4.11079C27.6364 5.11837 27.0221 7.32458 25.3056 9.05558C23.5739 10.7731 21.3185 11.387 20.342 10.3946C19.3033 9.40253 19.9174 7.16562 21.65 5.4171C23.3988 3.66994 25.6516 3.13289 26.6295 4.11079Z" fill="white"/>
<path d="M35.2852 38.1416L40.3434 19.6531H46.8923L41.8335 38.1416H35.2852ZM62.7406 25.6125C62.8123 24.7189 62.6068 24.0464 62.118 23.592C61.6299 23.1429 60.8649 22.9178 59.8252 22.9178C58.162 22.9178 56.7465 23.4265 55.568 24.44C54.3966 25.4552 53.5539 26.8957 53.0404 28.7705C52.5463 30.5768 52.6104 31.9625 53.228 32.9304C53.8457 33.9007 54.9725 34.3838 56.613 34.3838C57.8133 34.3838 58.8473 34.1079 59.7178 33.5497C60.5813 32.9988 61.2492 32.1799 61.7152 31.1039H68.496C67.5899 33.5259 66.0482 35.3134 63.88 36.4674C61.7069 37.6198 58.7753 38.1991 55.085 38.1991C51.5251 38.1991 48.9752 37.3938 47.4253 35.7787C45.8813 34.167 45.506 31.9119 46.2961 29.0193C47.1639 25.8518 48.8553 23.4096 51.3761 21.6928C53.8989 19.9773 57.0648 19.1178 60.8632 19.1178C64.1626 19.1178 66.5367 19.6618 67.9841 20.7523C69.4282 21.8425 69.9349 23.4651 69.4934 25.6125H62.7406ZM68.3681 38.1416L73.4273 19.6531H79.9746L74.9154 38.1416H68.3681ZM95.8235 25.6125C95.8963 24.7189 95.6881 24.0464 95.2008 23.592C94.7127 23.1429 93.9513 22.9178 92.9073 22.9178C91.2458 22.9178 89.8304 23.4265 88.6528 24.44C87.4777 25.4552 86.6368 26.8957 86.1241 28.7705C85.63 30.5768 85.6952 31.9625 86.3111 32.9304C86.9286 33.9007 88.0547 34.3838 89.6951 34.3838C90.8972 34.3838 91.9302 34.1079 92.7999 33.5497C93.6662 32.9988 94.3337 32.1799 94.8007 31.1039H101.577C100.674 33.5259 99.1331 35.3134 96.9614 36.4674C94.7914 37.6198 91.8574 38.1991 88.1697 38.1991C84.6098 38.1991 82.0582 37.3938 80.5093 35.7787C78.9643 34.167 78.5886 31.9119 79.3804 29.0193C80.2468 25.8518 81.9379 23.4096 84.4607 21.6928C86.9819 19.9773 90.1477 19.1178 93.9479 19.1178C97.2448 19.1178 99.6212 19.6618 101.07 20.7523C102.511 21.8425 103.017 23.4651 102.575 25.6125H95.8235ZM101.451 38.1416L106.51 19.6531H113.058L107.999 38.1416H101.451ZM127.063 23.4L126.007 27.2612H129.385C130.21 27.2612 130.867 27.0973 131.362 26.7774C131.857 26.4585 132.196 25.9711 132.37 25.3306C132.545 24.6972 132.472 24.2133 132.15 23.8891C131.825 23.5633 131.257 23.4 130.442 23.4H127.063ZM125.167 30.3339L124.058 34.3931H127.941C128.862 34.3931 129.605 34.2229 130.169 33.8805C130.735 33.5368 131.11 33.0329 131.293 32.36C131.476 31.6935 131.379 31.1885 131.008 30.8465C130.631 30.5041 129.983 30.3339 129.052 30.3339H125.167ZM116.811 38.1416L121.869 19.6531H133.741C135.152 19.6531 136.17 19.7074 136.785 19.8223C137.406 19.935 137.929 20.1178 138.349 20.3798C138.918 20.7318 139.292 21.2242 139.469 21.8597C139.646 22.4948 139.618 23.2427 139.382 24.1023C139.097 25.1462 138.553 26.0025 137.745 26.67C136.939 27.3409 135.813 27.8723 134.36 28.2612C135.879 28.6294 136.899 29.2027 137.42 29.983C137.94 30.7569 138.014 31.8138 137.652 33.1409C137.202 34.7787 136.357 36.019 135.118 36.871C133.876 37.7186 132.27 38.1416 130.297 38.1416H116.811ZM150.073 32.554C148.082 32.554 146.691 32.6766 145.899 32.9304C145.108 33.1789 144.625 33.6198 144.453 34.2441C144.338 34.6664 144.425 35.0005 144.709 35.2407C144.994 35.476 145.458 35.5953 146.096 35.5953C147.143 35.5953 147.997 35.3617 148.65 34.8898C149.302 34.4159 149.759 33.7044 150.016 32.7553L150.073 32.554ZM149.194 36.2341C148.406 36.9777 147.492 37.5292 146.458 37.8895C145.423 38.25 144.24 38.4294 142.906 38.4294C141.008 38.4294 139.64 38.1036 138.797 37.4539C137.951 36.7982 137.694 35.8779 138.02 34.6799C138.465 33.054 139.67 31.8779 141.628 31.1545C143.591 30.4304 146.642 30.054 150.792 30.0199L150.846 29.8755L150.902 29.7205C151.082 29.059 151.009 28.5666 150.69 28.2374C150.366 27.9103 149.795 27.7477 148.972 27.7477C148.227 27.7477 147.621 27.8686 147.157 28.1029C146.694 28.3432 146.361 28.702 146.15 29.1783H140.463C140.88 27.7477 141.87 26.6879 143.441 25.9889C145.005 25.2927 147.203 24.9406 150.027 24.9406C152.736 24.9406 154.642 25.3475 155.744 26.1647C156.846 26.978 157.168 28.2206 156.712 29.8831L154.916 36.4473C154.803 36.86 154.731 37.1875 154.703 37.4403C154.674 37.6882 154.678 37.9235 154.713 38.1416H149.001C148.969 37.8329 148.975 37.5216 149.007 37.2094C149.04 36.8921 149.104 36.5732 149.194 36.2341ZM156.762 38.1416L159.697 27.4103C159.817 26.9737 159.904 26.5761 159.959 26.209C160.02 25.8409 160.05 25.522 160.053 25.2537H166.211C166.235 25.4552 166.216 25.7206 166.162 26.0491C166.107 26.3788 166.008 26.8078 165.864 27.3333C166.855 26.5243 167.849 25.9205 168.848 25.5312C169.851 25.1379 170.89 24.9406 171.97 24.9406C173.97 24.9406 175.354 25.4374 176.12 26.4341C176.889 27.4281 177.01 28.8822 176.487 30.7959L174.475 38.1416H168.333L170.291 30.983C170.56 30.0005 170.561 29.2781 170.291 28.8273C170.021 28.3773 169.462 28.1505 168.614 28.1505C167.617 28.1505 166.79 28.4499 166.132 29.0531C165.477 29.6581 164.981 30.5606 164.648 31.7738L162.907 38.1416H156.762ZM182.717 38.1416H176.651L181.712 19.6531H187.776L184.81 30.4965L190.921 25.2537H198.183L191.379 30.983L196.045 38.1416H188.379L184.493 31.6462L182.717 38.1416Z" fill="#004A80"/>
</g>
<defs>
<clipPath id="clip0_330_2584">
<rect width="197.508" height="37.7486" fill="white" transform="translate(0.669922 0.747559)"/>
</clipPath>
</defs>
</svg>
