<svg width="111" height="39" viewBox="0 0 111 39" fill="none" xmlns="http://www.w3.org/2000/svg">
<g clip-path="url(#clip0_330_2532)">
<path d="M65.5834 19.8902C63.593 18.243 60.9849 17.1449 58.6513 16.184C55.4942 14.88 52.7488 13.7132 52.7488 11.6542C52.7488 10.7619 53.1606 9.86969 53.9842 9.32062C54.8079 8.70292 55.9746 8.35975 57.21 8.35975C61.1908 8.35975 64.3479 11.1737 64.3479 11.1737L65.1029 11.8601L68.6032 5.27123L68.1914 4.85942C68.0542 4.72216 64.348 0.878662 57.21 0.878662C53.7784 0.878662 50.6212 1.9768 48.3563 3.96718C46.0227 5.95756 44.7187 8.77156 44.7187 11.7914C44.7187 14.7427 45.8855 17.1449 48.219 19.1353C50.2094 20.7825 52.6802 21.8806 55.0824 22.9101C58.3082 24.2828 61.1908 25.5182 61.1908 27.7145C61.1908 29.3617 60.0927 31.1462 56.9355 31.1462C52.4743 31.1462 48.8367 27.7145 48.8367 27.7145L48.1504 27.0281L43.7578 33.0679L44.1696 33.5484C44.2383 33.617 45.3364 34.8524 47.464 36.0878C49.3858 37.2546 52.6116 38.5586 56.7982 38.5586C60.4358 38.5586 63.593 37.4605 65.7893 35.3328C67.9169 33.3425 69.0837 30.5971 69.0837 27.5772C69.1523 24.3514 67.9855 21.8806 65.5834 19.8902Z" fill="#292075"/>
<path d="M102.51 37.9407H110.677V1.42749H102.51V37.9407Z" fill="#292075"/>
<path d="M86.5166 31.0773H80.271V8.22224H85.7617C88.2325 8.22224 89.6052 9.59492 89.6052 11.9971C89.6052 14.3993 88.3698 15.6347 85.8303 15.6347H83.9086V22.3608H86.448C87.8207 22.3608 88.9875 22.7726 89.8111 23.5962C90.6347 24.4884 90.9778 25.3121 90.9778 26.5475C91.0465 29.3614 89.262 31.0773 86.5166 31.0773ZM97.3608 21.5372C96.5372 20.2332 95.439 19.2723 94.135 18.5859C96.2626 16.8701 97.4981 14.262 97.4981 11.2421C97.4981 8.22224 96.3313 5.68278 94.135 3.96694C92.076 2.31973 89.1934 1.42749 85.8989 1.42749H72.584V37.9407H86.0362C89.6052 37.9407 92.6937 37.0484 94.9586 35.3326C97.5667 33.4108 98.8707 30.5282 98.8707 26.9593C98.8707 24.9689 98.3903 23.0471 97.3608 21.5372Z" fill="#292075"/>
<path d="M19.3938 0.741699C8.96149 0.741699 0.519531 9.18366 0.519531 19.6846C0.519531 29.4993 7.93198 37.5294 17.4721 38.4903V24.7635C15.4131 24.0086 13.9718 22.0182 13.9718 19.6846C13.9718 16.6647 16.4426 14.2626 19.3938 14.2626C22.4137 14.2626 24.8159 16.7334 24.8159 19.6846C24.8159 22.0182 23.3746 24.0086 21.3156 24.7635V38.4903C30.8557 37.5294 38.2681 29.4306 38.2681 19.6846C38.2681 9.25229 29.8262 0.741699 19.3938 0.741699Z" fill="#00B5EF"/>
</g>
<defs>
<clipPath id="clip0_330_2532">
<rect width="110.157" height="37.7486" fill="white" transform="translate(0.484375 0.747559)"/>
</clipPath>
</defs>
</svg>
