<svg width="127" height="39" viewBox="0 0 127 39" fill="none" xmlns="http://www.w3.org/2000/svg">
<g clip-path="url(#clip0_330_2591)">
<path fill-rule="evenodd" clip-rule="evenodd" d="M1.07227 19.6219C1.07227 9.19864 10.897 0.747559 23.0178 0.747559C35.1386 0.747559 44.9624 9.19864 44.9624 19.6219C44.9624 30.0451 35.1377 38.4961 23.0178 38.4961C10.8978 38.4961 1.07227 30.0463 1.07227 19.6219Z" fill="#003874"/>
<path fill-rule="evenodd" clip-rule="evenodd" d="M20.352 6.80912L25.4506 5.12451L25.4757 32.6864L20.334 34.409L20.352 6.80912ZM73.3876 30.5326C78.2874 30.5326 82.0191 27.6832 82.0191 22.7796C82.0191 17.8493 78.2874 14.9948 73.3876 14.9948C68.4907 14.9948 64.7586 17.8409 64.7586 22.7796C64.7586 27.6836 68.4903 30.5326 73.3876 30.5326ZM73.3876 26.9424C71.0245 26.9424 70.0573 24.9752 70.0573 22.7796C70.0573 20.5551 71.0199 18.5943 73.3876 18.5943C75.7552 18.5943 76.7204 20.5589 76.7204 22.7796C76.7204 24.9752 75.7578 26.9424 73.3876 26.9424ZM81.5482 18.9316H84.478V24.9753C84.478 28.5077 85.5887 30.5326 90.1725 30.5326C91.4545 30.5326 92.4243 30.3652 93.3953 30.248L93.2279 26.9139C92.7156 26.9989 92.1744 27.1127 91.6625 27.1127C90.0386 27.1127 89.6105 26.2003 89.6105 24.4048V18.9316H93.1994V15.3406H89.6105L89.6092 10.2051L84.5709 12.0048V15.3406H81.5515V18.9316M111.142 30.1915H116.269V22.8378H116.325L120.428 30.1915H126.632L121.049 22.1535L126.203 15.3414H120.594L116.321 21.5834H116.265V10.2244L111.138 12.0061V30.1956" fill="#ED1C24"/>
<path fill-rule="evenodd" clip-rule="evenodd" d="M51.1074 30.1923H56.2362V22.8386H56.2922L60.3947 30.1923H66.6029L61.0196 22.1543L66.1747 15.3426H60.5651L56.2931 21.5847H56.237V10.2256L51.1083 11.9165V30.1923M109.318 30.2613C109.087 29.0798 109.025 27.8966 109.025 26.713V21.1171C109.025 16.53 105.709 14.881 101.876 14.881C99.6567 14.881 97.7248 15.1974 95.8807 15.9482L95.9644 19.4669C97.4033 18.6603 99.0762 18.3368 100.748 18.3368C102.622 18.3368 104.149 18.8859 104.178 20.9338C103.378 20.8023 102.568 20.735 101.757 20.7325C98.995 20.7325 94.0044 21.2816 94.0044 25.8679C94.0044 29.1275 96.6563 30.5974 99.6245 30.5974C101.757 30.5974 103.198 29.7603 104.381 27.8865H104.45C104.45 28.665 104.536 29.4443 104.565 30.2513H109.322L109.318 30.2613ZM98.8532 25.5026C98.8532 24.0595 100.237 23.512 101.995 23.512C102.774 23.512 103.524 23.5693 104.186 23.5982C104.186 25.3586 102.947 27.1453 100.988 27.1453C99.7764 27.1453 98.8532 26.5401 98.8532 25.5026Z" fill="#ED1C24"/>
<path fill-rule="evenodd" clip-rule="evenodd" d="M39.5216 21.5208C39.0433 25.4634 36.8317 29.4466 32.0026 29.4541C29.1834 29.4592 26.981 27.5289 25.4559 25.1671V22.4315C27.3644 23.3791 29.1482 24.3961 31.3125 24.4271C33.9785 24.4665 36.3893 23.4415 37.3863 21.5204H39.5221L39.5216 21.5208ZM23.3787 23.9964C21.1634 26.6667 19.0226 29.3943 15.0113 29.3943C9.34562 29.3943 6.6582 23.9165 6.6582 19.3369C6.6582 14.9364 8.75842 9.72729 14.2781 9.72729C16.6721 9.72729 18.9766 11.1913 20.3502 12.7399L20.346 16.4753C19.1984 15.7027 16.6277 14.9448 14.9494 14.9176C11.4492 14.859 8.36332 16.3762 8.41689 19.8312C8.4533 22.2097 10.8101 23.8265 13.1547 23.8265C16.7458 23.8265 18.9213 20.546 20.7394 18.0562C21.4684 17.1057 22.189 16.1489 22.9012 15.1858C24.9206 12.3641 27.2573 9.78798 31.2685 9.78798C35.9938 9.78798 38.6465 13.5967 39.3965 17.5175H37.262C36.404 16.246 34.7537 15.4679 33.1281 15.4679C29.4157 15.4679 27.1974 18.8832 25.3408 21.3977L23.3737 23.996" fill="white"/>
</g>
<defs>
<clipPath id="clip0_330_2591">
<rect width="126.12" height="37.7486" fill="white" transform="translate(0.792969 0.747559)"/>
</clipPath>
</defs>
</svg>
