<svg width="696" height="376" viewBox="0 0 696 376" fill="none" xmlns="http://www.w3.org/2000/svg">
<g clip-path="url(#clip0_135_1726)">
<path d="M119.236 125.685L71.1847 121.389C71.1847 121.389 26.0026 71.9925 7.35115 79.8668C-11.2944 87.7411 10.2206 106.357 20.2637 112.081C30.3068 117.81 53.9739 143.584 53.9739 143.584L59.7128 205.867L119.242 234.503L184.511 212.308L119.242 125.685H119.236Z" fill="#FD6C31"/>
<path d="M97.7155 235.415L84.9868 257.64C83.5817 260.093 79.9237 259.672 79.1115 256.965L71.9912 233.235L88.4017 39.9148C89.0064 32.8226 95.2492 27.5612 102.358 28.1597C109.46 28.7581 114.731 34.9971 114.132 42.0893L97.7215 235.409L97.7155 235.415Z" fill="#211F1F"/>
<path d="M36.7572 165.062C36.7572 165.062 24.562 155.754 36.0399 146.446C47.5177 137.138 60.4243 137.855 60.4243 137.855C60.4243 137.855 74.7657 137.138 79.7872 147.88C84.8088 158.616 36.7572 165.062 36.7572 165.062Z" fill="#FD6C31"/>
<path d="M49.6698 192.27C49.6698 192.27 28.8722 181.534 33.1764 166.496C36.0399 156.495 47.4762 151.245 54.8099 148.851C58.7169 147.578 62.8314 147.104 66.9221 147.459C73.6156 148.046 84.1033 149.799 86.9668 155.037C91.271 162.911 86.9668 172.22 86.9668 172.22L49.6698 192.264V192.27Z" fill="#FD6C31"/>
<path d="M73.3837 212.45C73.3837 212.45 44.6476 200.144 46.7997 192.987C48.9518 185.829 58.2775 170.075 71.9015 168.647C80.0534 167.788 86.9247 169.239 91.1281 170.543C94.3177 171.532 96.8492 174.027 97.7919 177.226C98.776 180.568 99.0428 184.893 95.5686 187.98C89.1123 193.709 84.8081 193.709 84.8081 193.709L73.3777 212.456L73.3837 212.45ZM184.504 212.314C184.504 212.314 175.178 145.735 170.874 142.156C167.928 139.703 157.902 126.153 151.885 117.87C148.826 113.657 145.227 109.859 141.172 106.583C135.077 101.653 125.781 93.8854 120.184 87.9842C114.576 82.071 104.509 84.9624 103.169 92.9967C102.375 97.7426 103.501 104.533 108.475 114.238C117.439 131.728 118.068 148.289 116.941 159.333C115.945 169.085 118.56 178.856 124.376 186.754L147.924 218.76L184.504 212.32V212.314Z" fill="#FD6C31"/>
<path d="M80.1363 150.558C80.1363 150.558 80.077 150.558 80.0533 150.558C79.662 150.51 79.3774 150.155 79.4248 149.764C79.49 149.242 79.3952 148.727 79.1403 148.188C74.3855 138.02 60.6014 138.572 60.4591 138.577H60.4236H60.388C60.2576 138.577 47.6059 137.997 36.4956 147.009C36.1873 147.258 35.7367 147.21 35.4877 146.902C35.2387 146.594 35.2862 146.144 35.5945 145.895C46.9715 136.67 59.5283 137.096 60.4354 137.144C61.3069 137.114 75.4171 136.824 80.4445 147.577C80.8062 148.354 80.9426 149.142 80.8536 149.93C80.8121 150.291 80.4979 150.564 80.1422 150.564L80.1363 150.558ZM79.7213 202.763C79.5968 202.763 79.4663 202.727 79.3478 202.656C79.0098 202.449 78.9031 202.01 79.1106 201.673L84.4108 192.981H84.8139C84.8495 192.981 88.9759 192.868 95.0942 187.435C97.7087 185.118 98.3846 181.747 97.104 177.422C96.2325 174.471 93.9203 172.148 90.9145 171.218C86.6755 169.903 79.9465 168.51 71.9785 169.352C66.287 169.95 54.9099 175.117 48.4003 190.688C48.2462 191.055 47.8252 191.227 47.4636 191.073C47.096 190.919 46.9241 190.504 47.0782 190.137C50.2678 182.517 59.0659 169.269 71.8302 167.924C80.0414 167.065 86.972 168.493 91.3414 169.849C94.8037 170.922 97.4716 173.6 98.4794 177.013C99.9082 181.848 99.0664 185.823 96.0487 188.501C90.5351 193.389 86.5095 194.237 85.2349 194.379L80.3378 202.413C80.2015 202.632 79.9643 202.757 79.7272 202.757L79.7213 202.763Z" fill="black"/>
<path d="M87.8798 170.377C87.8146 170.377 87.7435 170.365 87.6783 170.347C87.2988 170.235 87.0795 169.838 87.1921 169.459C88.0814 166.413 89.1545 160.541 86.3384 155.381C83.5875 150.35 72.9575 148.703 66.8628 148.17C62.8492 147.821 58.871 148.277 55.0352 149.527C48.2114 151.755 39.2354 155.956 35.2454 163.332C35.0557 163.682 34.6229 163.812 34.2732 163.622C33.9234 163.433 33.7929 163 33.9827 162.651C38.1979 154.859 47.5177 150.475 54.5906 148.164C58.6102 146.855 62.7839 146.375 66.9873 146.742C74.7835 147.424 84.6843 149.361 87.6012 154.694C90.6663 160.304 89.528 166.603 88.5735 169.861C88.4846 170.175 88.1941 170.377 87.8858 170.377H87.8798ZM124.382 187.47C124.163 187.47 123.944 187.37 123.801 187.18C117.902 179.164 115.217 169.245 116.236 159.262C117.049 151.304 117.049 138.969 112.424 125.371C112.294 124.998 112.496 124.589 112.875 124.464C113.248 124.34 113.658 124.541 113.782 124.915C118.483 138.755 118.489 151.31 117.659 159.41C116.675 169.044 119.266 178.601 124.958 186.333C125.195 186.653 125.124 187.097 124.803 187.334C124.673 187.429 124.525 187.47 124.382 187.47Z" fill="black"/>
<path d="M425.124 169.63C425.124 169.63 410.623 198.313 363.988 206.016C317.365 213.724 339.781 183.969 339.781 183.969L346.973 169.666L353.672 156.341L394.882 127.119C394.858 127.368 394.858 127.61 394.858 127.859C394.686 143.614 425.13 169.624 425.13 169.624L425.124 169.63Z" fill="#FD6C31"/>
<path d="M394.882 127.119C394.858 127.368 394.858 127.61 394.858 127.859C391.046 143.697 381.353 165.015 356.672 169.761C352.605 170.543 349.415 170.46 346.979 169.666L353.678 156.341L394.888 127.119H394.882Z" fill="black"/>
<path d="M420.92 162.799L420.748 165.672L420.096 176.811L415.727 251.105L415.632 252.693L415.584 253.647L415.495 255.063L407.747 387H313.576L318.882 286.933L322.196 224.401L323.856 192.998L323.975 190.871L324.497 180.965L328.706 182.079L332.589 183.104L339.17 184.852L362.659 191.067L363.679 191.339L363.721 191.316L364.319 191.019L417.541 164.482L418.827 163.848L420.92 162.799Z" fill="#F2F2F2"/>
<path d="M383.511 387H337.107L357.87 215.33H366.543L366.555 215.478L383.511 387Z" fill="#FD6C31"/>
<path d="M103.46 230.213L183.07 198.71L193.113 218.754L118.519 254.553L103.46 230.213Z" fill="#F2F2F2"/>
<path d="M418.437 114.421C416.018 110.144 411.625 107.608 406.746 107.104C404.961 85.9875 391.373 72.7748 373.023 72.603C353.163 72.4193 335.246 87.5754 335.021 111.809C334.796 136.042 337.055 155.713 356.921 155.896C368.043 156.003 382.326 149.971 392.784 140.391C399.169 140.592 406.455 138.933 410.979 136.379C419.308 131.681 422.646 121.851 418.443 114.416L418.437 114.421Z" fill="#FD6C31"/>
<path d="M413.569 127.261C411.601 122.983 408.316 119.238 404.326 116.726L405.079 115.529C409.3 118.19 412.769 122.142 414.855 126.668L413.569 127.255V127.261Z" fill="black"/>
<path d="M410.452 121.586L407.724 127.707L409.013 128.281L411.741 122.159L410.452 121.586Z" fill="black"/>
<path d="M372.521 110.308C372.538 108.58 371.545 107.17 370.304 107.158C369.063 107.147 368.044 108.538 368.028 110.265C368.011 111.993 369.004 113.403 370.245 113.415C371.486 113.426 372.505 112.035 372.521 110.308Z" fill="black"/>
<path d="M349.174 109.338C349.19 107.61 348.197 106.2 346.956 106.188C345.715 106.177 344.696 107.568 344.68 109.295C344.664 111.023 345.656 112.433 346.897 112.445C348.138 112.456 349.157 111.065 349.174 109.338Z" fill="black"/>
<path d="M347.364 125.424L346.872 124.103C350.66 122.699 353.803 119.789 355.486 116.116C357.17 112.443 357.324 108.171 355.907 104.39L357.229 103.899C358.777 108.028 358.605 112.697 356.767 116.703C354.929 120.714 351.502 123.89 347.358 125.424H347.364ZM356.565 136.16L356.53 134.75C362.275 134.602 367.883 130.822 370.178 125.56L371.476 126.123C368.938 131.965 362.951 135.994 356.571 136.16H356.565Z" fill="black"/>
<path d="M357.217 156.607C357.117 156.607 357.016 156.607 356.915 156.607L356.927 155.197C357.016 155.197 357.111 155.197 357.206 155.197C368.209 155.197 382.272 149.065 392.303 139.875L392.516 139.68L392.801 139.692C398.943 139.887 406.123 138.311 410.622 135.769C414.5 133.583 417.381 130.188 418.733 126.2C420.079 122.248 419.753 118.184 417.82 114.765C415.603 110.843 411.536 108.301 406.674 107.803L406.093 107.744L406.046 107.163C404.32 86.7696 391.354 73.4799 373.023 73.3081L373.035 71.8979C391.983 72.0757 405.417 85.6261 407.403 106.47C412.472 107.157 416.699 109.901 419.053 114.072C421.187 117.846 421.549 122.314 420.079 126.657C418.614 130.97 415.508 134.643 411.328 136.996C406.692 139.615 399.4 141.25 393.05 141.108C382.639 150.552 368.642 156.607 357.217 156.607Z" fill="black"/>
<path d="M347.921 202.988L358.207 215.478H366.875L380.238 198.23L363.679 191.333L347.921 202.988Z" fill="#FD6C31"/>
<path d="M345.686 163.782L363.68 191.334L343.036 228.542L327.147 176.995L345.686 163.782Z" fill="#F2F2F2"/>
<path d="M302.128 180.811C302.128 180.811 179.891 314.917 169.825 344.962C160.623 372.425 200.879 389.003 230.048 382.426C247.241 378.545 261.357 367.418 269.212 353.346L338.749 260.36L302.128 180.817V180.811Z" fill="#D8C1B8"/>
<path d="M383.819 228.542L363.68 191.334L410.563 153.206L420.915 162.799L383.819 228.542Z" fill="#F2F2F2"/>
<path d="M567.666 377.247C566.398 378.646 564.999 379.92 563.487 381.057C561.092 382.852 558.424 384.292 555.548 385.305C555.513 385.329 555.477 385.341 555.436 385.347C552.37 386.419 549.074 387 545.641 387H387.317C388.717 309.063 403.947 227.061 413.202 183.927C414.168 179.418 415.075 175.336 415.882 171.728C416.492 169.044 417.044 166.62 417.547 164.481C417.672 163.954 417.791 163.439 417.903 162.941C418.081 162.159 418.36 161.43 418.721 160.755C420.761 156.98 425.361 155.096 429.606 156.672L446.201 162.828L462.362 163.486L501.93 165.092L527.571 247.828L527.63 248.006L557.042 342.918L557.582 344.666L567.672 377.241L567.666 377.247Z" fill="#D8C1B8"/>
<path d="M436.886 209.814C436.797 218.784 437.147 229.413 438.19 241.885L438.232 242.377L415.632 252.687L414.037 253.415L415.579 253.635L433.038 256.177L432.938 256.876C432.789 257.877 423.387 322.222 419.705 386.988H418.294C421.774 325.582 430.4 264.59 431.438 257.373L415.496 255.057L409.093 254.126L415.727 251.099L436.744 241.512C433.37 200.932 437.526 179.869 439.098 171.917C439.234 171.206 439.358 170.608 439.441 170.116L440.835 170.359C440.746 170.869 440.627 171.473 440.485 172.19C439.661 176.397 438.096 184.312 437.331 196.903C437.094 200.754 436.934 205.05 436.892 209.814H436.886Z" fill="black"/>
<path d="M333.414 174.987C333.212 176.906 332.934 179.65 332.59 183.104C332.341 185.652 332.05 188.59 331.736 191.891C331.677 192.501 331.623 193.117 331.564 193.739C330.532 204.854 329.246 219.661 327.971 236.944C327.046 249.57 326.127 263.524 325.315 278.324C323.471 311.984 322.197 350.058 322.689 387H258.203L263.598 361.612L270.126 330.885L296.366 207.384L301.98 180.977L301.986 180.971L302.164 180.923L320.519 175.686L330.598 172.67C331.351 172.439 332.098 172.64 332.637 173.091C333.171 173.529 333.491 174.222 333.414 174.993V174.987Z" fill="#D8C1B8"/>
<path d="M324.628 191.144L323.857 192.998L316.233 211.455L297.219 257.486L311.662 269.448L295.886 273.845L298.702 313.915L303.83 387H302.413L297.409 315.651L294.397 272.796L308.685 268.82L295.524 257.912L315.432 209.707L323.323 190.605L323.975 190.871L324.628 191.144Z" fill="black"/>
<path d="M393.021 119.849C392.463 120.607 391.236 120.157 391.325 119.227C391.734 114.919 390.964 110.564 393.353 106.95C395.262 104.07 397.627 98.1988 394.675 95.0526C392.446 92.6767 387.555 93.5951 382.758 93.7313C368.506 94.1401 341.975 94.466 331.12 80.5127C327.794 76.2408 324.462 66.1802 324.456 60.7707C324.444 55.3612 325.749 50.0405 327.041 44.791C338.128 53.1156 351.218 58.768 364.889 61.1203C373.723 62.643 382.96 62.8622 391.118 66.5653C399.275 70.2625 406.194 78.9307 404.119 87.6345C410.315 85.9992 417.441 89.2343 420.281 94.9697C423.061 100.587 415.864 110.914 415.864 110.914C412.141 108.437 407.309 106.855 402.625 109.592C398.653 111.909 395.825 116.021 393.027 119.855L393.021 119.849Z" fill="black"/>
<path d="M342.847 230.338L331.061 192.104L332.412 191.689L343.226 226.753L362.856 191.363L349.309 170.626L350.495 169.855L364.504 191.304L342.847 230.338Z" fill="black"/>
<path d="M383.807 230.006L363.057 191.671L364.302 191.002L383.831 227.085L402.69 193.662L403.917 194.355L383.807 230.006Z" fill="black"/>
<path d="M295.635 207.208L269.455 330.723L270.841 331.017L297.021 207.502L295.635 207.208Z" fill="black"/>
<path d="M583.276 117.088L602.224 70.8315C603.683 67.2705 605.467 63.8637 607.56 60.6464C616.062 47.5404 638.97 14.7278 653.376 17.791C671.34 21.6127 635.632 64.4206 635.632 64.4206C635.632 64.4206 675.834 27.7213 683.322 26.9629C690.81 26.1986 697.545 38.4218 672.093 66.684C646.642 94.9461 642.901 94.9461 654.876 91.1304C666.852 87.3088 699.045 59.811 709.527 68.9769C720.008 78.1429 669.105 110.991 669.105 110.991C669.105 110.991 703.035 96.1785 710.949 105.658C718.123 114.25 694.1 124.251 674.37 133.577C660.74 140.017 661.522 140.201 652.855 148.609C648.308 153.017 643.825 159.783 637.832 161.424C620.093 166.289 583.484 160.761 583.282 117.1L583.276 117.088Z" fill="#FD6C31"/>
<path d="M242.546 296.573C240.631 295.05 190.961 212.314 190.961 212.314L114.221 249.541L165.741 352.043C168.64 360.278 173.798 367.803 181.108 373.616C202.089 390.288 232.853 386.562 249.82 365.285C266.788 344.008 263.527 313.246 242.546 296.573Z" fill="#D8C1B8"/>
<path d="M242.148 297.071C241.799 296.792 240.731 295.945 207.709 241.838L208.794 241.18C237.145 287.62 242.368 295.518 242.961 296.093L242.154 297.071H242.148Z" fill="black"/>
<path d="M525.899 190.119C520.877 182.962 494.341 135.71 456.854 167.687C424.3 195.451 437.266 220.058 452.028 248.829C467.087 278.182 504.384 327.578 504.384 327.578C504.384 327.578 548.671 367.886 586.78 327.697C612.682 300.377 572.782 252.402 572.782 252.402L525.899 190.125V190.119Z" fill="#D8C1B8"/>
<path d="M553.105 41.2302C553.105 41.2302 560.161 81.1705 598.821 103.205C637.488 125.24 656.785 147.495 661.742 169.701C661.742 169.701 704.878 135.467 725 121.922C725 121.922 724.929 83.8248 677.127 60.9307C637.168 41.7931 636.628 8.16881 637.025 0.727036C637.055 0.146388 636.397 -0.209111 635.928 0.134538C630.729 3.95022 610.009 19.0885 596.894 27.7568C582.102 37.5389 553.105 41.2302 553.105 41.2302Z" fill="#F9F9F9"/>
<path d="M586.419 57.0794C585.5 57.0794 584.616 56.5758 584.177 55.6989C583.555 54.4606 584.053 52.9557 585.286 52.3335L630.539 29.5579C631.778 28.9358 633.284 29.4335 633.913 30.6659C634.535 31.9042 634.037 33.4092 632.804 34.0313L587.551 56.8069C587.189 56.9906 586.804 57.0735 586.424 57.0735L586.419 57.0794ZM594.974 75.0025C594.055 75.0025 593.171 74.4989 592.733 73.622C592.11 72.3837 592.608 70.8787 593.841 70.2566L639.094 47.481C640.333 46.8589 641.845 47.3566 642.468 48.5889C643.09 49.8273 642.592 51.3322 641.359 51.9543L596.106 74.7299C595.744 74.9136 595.359 74.9966 594.979 74.9966L594.974 75.0025ZM604.264 87.202C603.345 87.202 602.461 86.6984 602.023 85.8215C601.4 84.5832 601.898 83.0782 603.131 82.4561L648.385 59.6805C649.624 59.0584 651.13 59.5561 651.758 60.7885C652.38 62.0268 651.882 63.5317 650.649 64.1539L605.396 86.9295C605.034 87.1132 604.649 87.1961 604.27 87.1961L604.264 87.202ZM622.88 97.2804C621.961 97.2804 621.077 96.7768 620.639 95.8999C620.016 94.6616 620.514 93.1566 621.747 92.5345L667.001 69.7589C668.24 69.1368 669.751 69.6345 670.374 70.8669C670.996 72.1052 670.498 73.6101 669.265 74.2323L624.012 97.0079C623.65 97.1915 623.265 97.2745 622.886 97.2745L622.88 97.2804ZM637.191 107.341C636.272 107.341 635.389 106.837 634.95 105.961C634.328 104.722 634.826 103.217 636.059 102.595L681.312 79.8195C682.551 79.1974 684.057 79.6951 684.686 80.9275C685.308 82.1658 684.81 83.6707 683.577 84.2929L638.324 107.068C637.962 107.252 637.577 107.335 637.197 107.335L637.191 107.341ZM659.726 127.865C658.807 127.865 657.924 127.362 657.485 126.485C656.863 125.246 657.361 123.741 658.594 123.119L687.686 108.479C688.925 107.856 690.43 108.354 691.059 109.587C691.681 110.825 691.183 112.33 689.95 112.952L660.858 127.593C660.497 127.776 660.111 127.859 659.732 127.859L659.726 127.865ZM638.94 123.51C638.021 123.51 637.138 123.007 636.699 122.13C636.077 120.891 636.575 119.387 637.808 118.764L666.9 104.124C668.139 103.502 669.645 103.999 670.273 105.232C670.896 106.47 670.398 107.975 669.164 108.597L640.073 123.238C639.711 123.421 639.326 123.504 638.946 123.504L638.94 123.51Z" fill="#D8C1B8"/>
<path d="M570.778 141.753C570.778 141.753 567.233 105.646 580.863 91.3258C591.025 80.649 597.6 74.3507 601.773 67.9755C605.372 62.4771 612.99 60.9721 618.243 64.93C621.166 67.1341 622.915 70.6536 621.03 76.2941C616.008 91.3258 608.117 109.942 608.117 109.942C608.117 109.942 617.443 141.445 610.269 157.911C603.095 174.376 570.737 159.967 570.778 141.759V141.753Z" fill="#FD6C31"/>
<path d="M569.724 124.352L649.825 157.668L636.913 190.747L560.949 149.61L569.724 124.352Z" fill="#F2F2F2"/>
<path d="M564.151 140.242L647.442 170.205L604.851 313.281C603.552 317.654 601.454 321.742 598.62 325.315C590.48 335.595 562.882 350.947 540.092 338.066C508.979 320.48 511.581 298.913 516.781 281.239C521.98 263.559 564.151 140.237 564.151 140.237V140.242Z" fill="#D8C1B8"/>
<path d="M519.442 273.169C519.365 273.169 519.294 273.158 519.217 273.134C518.838 273.009 518.636 272.607 518.761 272.227L539.558 209.227C539.683 208.854 540.086 208.646 540.465 208.771C540.845 208.895 541.046 209.298 540.922 209.677L520.124 272.678C520.023 272.98 519.745 273.169 519.442 273.169ZM513.703 340.465C513.478 340.465 513.253 340.359 513.111 340.157L455.733 257.113C455.508 256.787 455.591 256.342 455.917 256.117C456.243 255.892 456.688 255.975 456.913 256.301L514.29 339.345C514.516 339.671 514.433 340.116 514.107 340.341C513.982 340.424 513.84 340.465 513.698 340.465H513.703ZM611.793 127.836C611.443 127.836 611.135 127.581 611.081 127.225C609.664 117.751 607.453 110.215 607.429 110.138L607.358 109.895L607.459 109.658C607.536 109.474 615.397 90.8993 620.348 76.0631C621.877 71.4772 621.024 67.9222 617.81 65.4989C615.492 63.751 612.605 63.0756 609.682 63.5792C606.688 64.1006 604.026 65.8426 602.372 68.3666C599.011 73.4976 594.03 78.6642 587.141 85.8157C585.363 87.6642 583.448 89.6491 581.379 91.8236C581.106 92.108 580.65 92.1198 580.365 91.8473C580.08 91.5747 580.069 91.1244 580.341 90.8341C582.41 88.6596 584.325 86.6689 586.11 84.8203C592.946 77.7281 597.884 72.603 601.169 67.5845C603.036 64.7346 606.048 62.7616 609.427 62.1691C612.747 61.5884 616.032 62.3705 618.664 64.3554C622.375 67.152 623.425 71.3587 621.699 76.5194C617.028 90.5023 609.795 107.78 608.87 109.984C609.267 111.37 611.206 118.409 612.492 127.018C612.552 127.409 612.279 127.77 611.888 127.83C611.852 127.83 611.816 127.836 611.781 127.836H611.793Z" fill="black"/>
</g>
<defs>
<clipPath id="clip0_135_1726">
<rect width="725" height="387" fill="white"/>
</clipPath>
</defs>
</svg>
