<svg width="88" height="84" viewBox="0 0 88 84" fill="none" xmlns="http://www.w3.org/2000/svg">
<path d="M0.422221 31.226C0.273678 31.3315 0.162521 31.4816 0.104803 31.6544C0.0470844 31.8272 0.0457913 32.0139 0.10111 32.1876C0.156429 32.3612 0.265496 32.5127 0.412563 32.6203C0.55963 32.7279 0.737084 32.7859 0.919301 32.7861H13.0535V81.7784H4.01923C3.79139 81.7784 3.57288 81.8689 3.41177 82.0301C3.25066 82.1912 3.16015 82.4097 3.16015 82.6375C3.16015 82.8654 3.25066 83.0839 3.41177 83.245C3.57288 83.4061 3.79139 83.4966 4.01923 83.4966H83.7278C83.9556 83.4966 84.1741 83.4061 84.3352 83.245C84.4963 83.0839 84.5868 82.8654 84.5868 82.6375C84.5868 82.4097 84.4963 82.1912 84.3352 82.0301C84.1741 81.8689 83.9556 81.7784 83.7278 81.7784H74.6935V32.7861H86.8281C87.0104 32.7862 87.188 32.7283 87.3353 32.6207C87.4825 32.5132 87.5917 32.3615 87.6471 32.1878C87.7024 32.0141 87.7011 31.8272 87.6432 31.6543C87.5853 31.4814 87.4739 31.3314 87.3251 31.226L44.3749 0.76905C44.2296 0.666278 44.0559 0.611094 43.8779 0.611094C43.6998 0.611094 43.5262 0.666278 43.3808 0.76905L25.4813 13.4595V9.60702H26.3064C27.8824 9.60702 29.1644 8.32508 29.1644 6.74904V3.46913C29.1644 1.89309 27.8824 0.610779 26.3064 0.610779H9.44388C7.86785 0.610779 6.5859 1.89309 6.5859 3.46913V6.74904C6.5859 8.32508 7.86785 9.60702 9.44388 9.60702H10.269V24.2448L0.422221 31.226ZM40.7846 81.7783H23.1476V58.1433H40.7846V81.7783ZM43.8779 2.52321L84.1313 31.0677H73.8344C73.6066 31.0677 73.388 31.1582 73.2269 31.3194C73.0658 31.4805 72.9753 31.699 72.9753 31.9268V81.7783H42.503V57.2842C42.503 57.0564 42.4124 56.8379 42.2513 56.6767C42.0902 56.5156 41.8717 56.4251 41.6439 56.4251H22.2887C22.0609 56.4251 21.8424 56.5156 21.6813 56.6767C21.5202 56.8379 21.4297 57.0564 21.4297 57.2842V81.7783H14.7717V31.9268C14.7717 31.699 14.6812 31.4805 14.5201 31.3194C14.3589 31.1582 14.1404 31.0677 13.9126 31.0677H3.6166L43.8779 2.52321ZM8.30425 6.74904V3.46913C8.3045 3.1669 8.42463 2.87712 8.63828 2.66336C8.85193 2.44961 9.14166 2.32934 9.44388 2.32894H26.3064C26.6086 2.32934 26.8983 2.44961 27.112 2.66336C27.3256 2.87712 27.4458 3.1669 27.446 3.46913V6.74904C27.4456 7.05117 27.3254 7.34081 27.1118 7.55445C26.8981 7.76808 26.6085 7.88828 26.3064 7.88867H9.44388C9.14174 7.88832 8.85207 7.76815 8.63842 7.5545C8.42477 7.34085 8.3046 7.05118 8.30425 6.74904ZM11.9872 9.60702H23.7631V14.6776L11.9872 23.0267V9.60702Z" fill="#622EB7"/>
<path d="M37.4838 71.7973C37.7116 71.7973 37.9301 71.7068 38.0913 71.5457C38.2524 71.3846 38.3429 71.1661 38.3429 70.9382V68.9869C38.3429 68.759 38.2524 68.5405 38.0913 68.3794C37.9301 68.2183 37.7116 68.1278 37.4838 68.1278C37.2559 68.1278 37.0374 68.2183 36.8763 68.3794C36.7152 68.5405 36.6247 68.759 36.6247 68.9869V70.9382C36.6247 71.1661 36.7152 71.3846 36.8763 71.5457C37.0374 71.7068 37.2559 71.7973 37.4838 71.7973ZM47.0591 57.2842V75.0537C47.0591 75.2815 47.1496 75.5 47.3107 75.6611C47.4718 75.8223 47.6904 75.9128 47.9182 75.9128H67.2737C67.5015 75.9128 67.7201 75.8223 67.8812 75.6611C68.0423 75.5 68.1328 75.2815 68.1328 75.0537V57.2842C68.1328 57.0564 68.0423 56.8379 67.8812 56.6768C67.7201 56.5157 67.5015 56.4251 67.2737 56.4251H47.9182C47.6904 56.4251 47.4718 56.5157 47.3107 56.6768C47.1496 56.8379 47.0591 57.0564 47.0591 57.2842ZM48.7773 67.0258H56.7339V74.1946H48.7773V67.0258ZM66.4146 74.1946H58.4523V67.0258H66.4148L66.4146 74.1946ZM58.4523 58.1433H66.4148V65.3075H58.4523V58.1433ZM48.7773 58.1433H56.7339V65.3075H48.7773V58.1433ZM43.8787 39.6265C49.3705 39.6265 53.8383 35.1587 53.8383 29.6669C53.8383 24.17 49.3705 19.6984 43.8787 19.6984C38.3818 19.6984 33.9102 24.17 33.9102 29.6669C33.9103 35.1585 38.3818 39.6265 43.8787 39.6265ZM43.8787 21.4165C48.4229 21.4165 52.1201 25.1176 52.1201 29.6669C52.1201 34.2111 48.4229 37.9083 43.8787 37.9083C39.3294 37.9083 35.6283 34.2111 35.6283 29.6669C35.6285 25.1176 39.3294 21.4165 43.8787 21.4165Z" fill="#622EB7"/>
</svg>
