<svg width="95" height="95" viewBox="0 0 95 95" fill="none" xmlns="http://www.w3.org/2000/svg">
<g clip-path="url(#clip0_330_2010)">
<path fill-rule="evenodd" clip-rule="evenodd" d="M92.8892 58.6555C92.0086 57.185 88.3932 52.8196 78.8459 58.3801L74.1449 61.1182C74.9817 59.0306 75.4862 56.8365 75.6278 54.6057C75.9074 50.2027 74.8283 45.8264 72.4204 41.5985C69.8242 37.0404 65.871 31.8914 60.063 25.5166C61.6632 24.6497 62.7525 22.9553 62.7525 21.0111C62.7525 18.425 60.825 16.2819 58.3317 15.9394L61.8005 12.4706C63.8361 10.435 63.8363 7.1224 61.8005 5.0864C60.0775 3.36378 57.3377 3.06932 55.2855 4.38633C55.149 4.47409 55.0323 4.48467 54.8827 4.42251C54.7326 4.36035 54.6573 4.27018 54.6226 4.11153C54.1021 1.72911 51.9565 0 49.5202 0C47.0844 0.000371094 44.9389 1.72948 44.4186 4.11172C44.3839 4.27036 44.3088 4.36054 44.1592 4.42251C44.0091 4.48448 43.892 4.47428 43.7555 4.38651C41.7033 3.0695 38.9635 3.36415 37.2406 5.08677C36.2573 6.06998 35.7157 7.38124 35.7157 8.77878C35.7157 10.1763 36.2572 11.4876 37.2406 12.4706L40.7093 15.9394C38.2158 16.2819 36.2883 18.4248 36.2883 21.011C36.2883 22.9553 37.3777 24.6497 38.9778 25.5166C33.17 31.8912 29.2168 37.0402 26.6204 41.5987C23.4917 47.0922 22.6002 52.8872 24.0144 58.4337L14.4901 63.9482L13.303 61.8506C12.226 59.9478 9.80206 59.2759 7.89909 60.3526L3.17155 63.0282C1.26895 64.1051 0.596897 66.5291 1.67363 68.4321L15.5724 92.99C16.3012 94.2773 17.6464 95.0013 19.0299 95.0013C19.691 95.0013 20.361 94.8358 20.9761 94.4877L25.7036 91.8121C27.6064 90.7352 28.2783 88.311 27.2013 86.4083L25.7632 83.867L28.6338 82.2097L50.2184 87.9932C51.4364 88.3196 52.6317 88.4827 53.8013 88.4827C56.1333 88.4827 58.3626 87.8347 60.4606 86.5431L91.0378 67.715C93.8203 66.0018 94.7028 61.6838 92.8892 58.6555ZM38.6845 8.77878C38.6845 8.17427 38.9171 7.60854 39.3396 7.18605C40.0829 6.44312 41.2656 6.3162 42.152 6.8849C43.1042 7.49572 44.2498 7.59796 45.2948 7.16526C46.34 6.73238 47.0777 5.84992 47.3189 4.7448C47.5436 3.71595 48.4695 2.96894 49.5202 2.96875C50.5712 2.96875 51.497 3.71558 51.7217 4.7448C51.9631 5.85011 52.7009 6.7322 53.7461 7.16526C54.7911 7.59796 55.9366 7.49572 56.8889 6.88472C57.775 6.31583 58.9577 6.44274 59.701 7.18605C60.1235 7.60854 60.3562 8.17427 60.3562 8.77878C60.3562 9.38329 60.1235 9.94902 59.701 10.3715L54.1825 15.8902H44.8587L39.3396 10.3713C38.9171 9.94884 38.6845 9.38329 38.6845 8.77878ZM41.409 18.859H57.6318C58.8185 18.859 59.7839 19.8244 59.7839 21.011C59.7839 22.1975 58.8185 23.1627 57.6318 23.1627H41.409C40.2223 23.1627 39.2569 22.1973 39.2569 21.0108C39.2571 19.8244 40.2225 18.859 41.409 18.859ZM29.2001 43.0678C31.869 38.3819 36.0855 32.9893 42.445 26.1317H56.5957C62.9553 32.9897 67.172 38.3822 69.8406 43.0678C73.8766 50.1546 73.6413 57.7626 69.2125 63.991L61.9966 68.194C61.1429 68.6911 60.2747 69.0409 59.3678 69.2478C59.706 68.7106 59.9708 68.1013 60.1517 67.4262C61.0113 64.2172 59.1039 60.8664 55.8088 59.7982C55.7452 59.7776 55.6803 59.7613 55.6145 59.7494C55.2703 59.687 54.9269 59.6204 54.5844 59.5498C55.1185 59.2102 55.5895 58.8159 55.9741 58.3712C56.969 57.2206 57.3935 55.7774 57.2017 54.1973C56.6155 49.3686 51.4174 48.5149 49.7093 48.2346C45.3968 47.5265 45.3102 45.7419 45.2777 45.0701C45.1833 43.1254 46.7706 42.0648 48.2876 41.7208C48.6494 41.6389 49.0184 41.593 49.3892 41.5837C49.4414 41.5857 49.4944 41.5853 49.546 41.582C51.2662 41.5874 53.0451 42.3913 53.875 44.3678C53.9504 44.5475 54.0605 44.7107 54.199 44.8479C54.3375 44.9851 54.5017 45.0936 54.6821 45.1673C54.8626 45.2411 55.0558 45.2785 55.2508 45.2776C55.4457 45.2766 55.6385 45.2372 55.8182 45.1617C56.1812 45.0093 56.4688 44.719 56.6177 44.3545C56.7666 43.9901 56.7646 43.5815 56.6122 43.2185C55.4761 40.5127 53.2352 39.14 50.9354 38.7444V37.3194C50.9354 36.9257 50.779 36.5482 50.5006 36.2698C50.2223 35.9914 49.8447 35.835 49.451 35.835C49.0573 35.835 48.6798 35.9914 48.4014 36.2698C48.123 36.5482 47.9666 36.9257 47.9666 37.3194V38.7572C47.8543 38.7777 47.7425 38.8005 47.6312 38.8259C44.301 39.581 42.1637 42.1485 42.3125 45.2144C42.4199 47.4284 43.707 50.258 49.2284 51.1644C53.4019 51.8496 54.1068 53.3366 54.2548 54.5554C54.3456 55.3024 54.1734 55.9155 53.7286 56.4296C52.2086 58.1871 49.1014 58.3369 47.0771 57.4861C46.1475 57.0956 44.9766 56.2986 44.5791 54.704C44.4839 54.322 44.2408 53.9935 43.9033 53.7908C43.7362 53.6904 43.551 53.6239 43.3582 53.5951C43.1654 53.5663 42.9688 53.5757 42.7797 53.6229C42.3977 53.7181 42.0692 53.9612 41.8664 54.2987C41.766 54.4657 41.6995 54.651 41.6707 54.8438C41.6419 55.0366 41.6513 55.2332 41.6985 55.4223C41.7146 55.4872 41.7328 55.5511 41.7506 55.6151C40.5652 55.1868 39.4484 54.7866 38.4846 54.4742C34.1749 53.0764 30.2781 54.8076 27.0345 56.6855L26.7026 56.8777C25.7706 52.335 26.6197 47.5987 29.2001 43.0678ZM24.2413 89.2284L19.5138 91.904C19.044 92.1699 18.4218 91.9977 18.1558 91.5275L4.25718 66.9696C3.99111 66.4994 4.16366 65.8777 4.63365 65.6116L9.3612 62.9362C9.82618 62.6731 10.4526 62.8414 10.719 63.3125L24.6176 87.8704C24.8837 88.3404 24.7113 88.9623 24.2413 89.2284ZM89.4811 65.1871L58.9039 84.0151C56.4764 85.5095 53.813 85.8832 50.9866 85.1256L28.808 79.1829C28.4278 79.081 28.0226 79.1343 27.6817 79.3311L24.3009 81.2831L15.9524 66.5317L28.5223 59.254C31.3346 57.6258 34.3774 56.2621 37.5692 57.2974C38.5936 57.6297 39.774 58.0565 41.1409 58.5506C45.0591 59.9673 49.9284 61.7277 54.9805 62.6512C56.7473 63.268 57.7351 64.9748 57.2842 66.6577C56.6911 68.8717 54.8471 69.1466 53.3807 68.9782C50.8981 68.4677 48.5394 67.7946 46.0434 67.0819C44.86 66.744 43.6363 66.3944 42.3787 66.0575C42.0007 65.9623 41.6004 66.0197 41.2643 66.2171C40.9282 66.4146 40.6832 66.7364 40.5823 67.1129C40.4815 67.4894 40.5327 67.8906 40.7251 68.2296C40.9174 68.5687 41.2354 68.8185 41.6104 68.9251C42.8446 69.2557 44.0564 69.6018 45.2282 69.9365C47.7997 70.6709 50.2286 71.3647 52.8439 71.8992C52.8539 71.9013 54.9981 72.2508 54.9981 72.2508C58.1287 72.7514 60.9071 72.2638 63.4908 70.7594L80.3399 60.9457C85.1959 58.1174 88.935 57.8316 90.3422 60.181C91.3124 61.8007 90.8779 64.3271 89.4811 65.1871ZM10.7381 67.6884C10.7722 67.9086 10.7623 68.1334 10.709 68.3498C10.6558 68.5661 10.5602 68.7698 10.4278 68.9491C10.2954 69.1283 10.1289 69.2795 9.93775 69.3941C9.74662 69.5086 9.53471 69.5842 9.31423 69.6165C9.09375 69.6487 8.86907 69.6369 8.65315 69.5819C8.43722 69.5269 8.23434 69.4296 8.05619 69.2958C7.87804 69.162 7.72815 68.9942 7.61517 68.8021C7.50219 68.6101 7.42836 68.3975 7.39793 68.1768C7.33713 67.7357 7.45308 67.2884 7.72053 66.9324C7.98798 66.5764 8.38527 66.3405 8.82585 66.2761C9.26644 66.2117 9.71463 66.324 10.0728 66.5885C10.431 66.8531 10.6701 67.2484 10.7381 67.6884Z" fill="#622EB7"/>
</g>
<defs>
<clipPath id="clip0_330_2010">
<rect width="95" height="95" fill="white"/>
</clipPath>
</defs>
</svg>
