<svg width="95" height="95" viewBox="0 0 95 95" fill="none" xmlns="http://www.w3.org/2000/svg">
<path fill-rule="evenodd" clip-rule="evenodd" d="M35.7649 41.3518C31.8518 41.3518 28.173 39.828 25.4061 37.061C22.6391 34.294 21.1152 30.6153 21.1152 26.7021C21.1152 22.789 22.6391 19.1102 25.4061 16.3433C28.173 13.5763 31.852 12.0524 35.7649 12.0524C39.6779 12.0524 43.3568 13.5763 46.1238 16.3433C48.8908 19.1102 50.4146 22.789 50.4146 26.7021C50.4146 30.6153 48.8908 34.294 46.1238 37.061C43.3568 39.828 39.6779 41.3518 35.7649 41.3518ZM35.7649 14.277C28.9137 14.277 23.3396 19.8509 23.3396 26.7023C23.3396 33.5537 28.9135 39.1276 35.7649 39.1276C42.6161 39.1276 48.19 33.5537 48.19 26.7023C48.19 19.8509 42.6163 14.277 35.7649 14.277Z" fill="#622EB7"/>
<path fill-rule="evenodd" clip-rule="evenodd" d="M35.7641 34.0224C33.9869 34.0224 32.3732 33.1554 31.553 31.7595C31.479 31.6336 31.4305 31.4944 31.4103 31.3497C31.3901 31.2051 31.3986 31.0578 31.4354 30.9165C31.4721 30.7751 31.5363 30.6424 31.6243 30.5258C31.7124 30.4093 31.8225 30.3112 31.9484 30.2372C32.0744 30.1632 32.2136 30.1147 32.3583 30.0946C32.5029 30.0744 32.6501 30.0829 32.7915 30.1196C32.9329 30.1563 33.0656 30.2205 33.1822 30.3086C33.2987 30.3966 33.3968 30.5067 33.4708 30.6327C33.8869 31.3405 34.7869 31.798 35.7639 31.798C37.1555 31.798 38.2878 30.9044 38.2878 29.8063C38.2878 28.7082 37.1555 27.8145 35.7639 27.8145C34.5281 27.8145 33.3586 27.3971 32.4707 26.6392C31.5325 25.8383 31.0156 24.7583 31.0156 23.5984C31.0156 22.4385 31.5323 21.3588 32.4707 20.5577C33.3588 19.7996 34.5281 19.3823 35.7639 19.3823C37.6089 19.3823 39.3007 20.3406 40.0736 21.8236C40.1425 21.9532 40.1851 22.0952 40.1989 22.2413C40.2126 22.3875 40.1973 22.5349 40.1538 22.6751C40.1103 22.8154 40.0395 22.9456 39.9454 23.0583C39.8513 23.171 39.7359 23.2639 39.6057 23.3318C39.4755 23.3997 39.3332 23.4411 39.1869 23.4537C39.0406 23.4663 38.8933 23.4498 38.7535 23.4051C38.6136 23.3605 38.484 23.2886 38.372 23.1937C38.2601 23.0987 38.168 22.9825 38.1012 22.8518C37.7069 22.0954 36.7894 21.6067 35.7639 21.6067C34.3723 21.6067 33.24 22.5001 33.24 23.5984C33.24 24.6967 34.3723 25.5901 35.7639 25.5901C36.9997 25.5901 38.1692 26.0076 39.057 26.7655C39.9952 27.5666 40.5121 28.6464 40.5121 29.8063C40.5121 30.9661 39.9954 32.0459 39.057 32.847C38.1694 33.6049 36.9999 34.0224 35.7641 34.0224Z" fill="#622EB7"/>
<path fill-rule="evenodd" clip-rule="evenodd" d="M35.7647 35.6567C35.4698 35.6567 35.1869 35.5395 34.9783 35.3309C34.7697 35.1223 34.6525 34.8394 34.6525 34.5445V32.9098C34.6525 32.6148 34.7697 32.3319 34.9783 32.1233C35.1869 31.9148 35.4698 31.7976 35.7647 31.7976C36.0597 31.7976 36.3426 31.9148 36.5512 32.1233C36.7598 32.3319 36.8769 32.6148 36.8769 32.9098V34.5445C36.8769 34.8394 36.7598 35.1223 36.5512 35.3309C36.3426 35.5395 36.0597 35.6567 35.7647 35.6567ZM35.7647 21.6061C35.4698 21.6061 35.1869 21.4889 34.9783 21.2804C34.7697 21.0718 34.6525 20.7889 34.6525 20.4939V18.8598C34.6525 18.5648 34.7697 18.282 34.9783 18.0734C35.1869 17.8648 35.4698 17.7476 35.7647 17.7476C36.0597 17.7476 36.3426 17.8648 36.5512 18.0734C36.7598 18.282 36.8769 18.5648 36.8769 18.8598V20.4939C36.8769 20.7889 36.7598 21.0718 36.5512 21.2804C36.3426 21.4889 36.0597 21.6061 35.7647 21.6061ZM35.7645 47.2579C32.041 47.2579 28.5256 46.8084 25.866 45.9922C24.5053 45.5745 23.4194 45.0754 22.6381 44.5085C21.3796 43.5952 21.1152 42.6355 21.1152 41.9912C21.1152 41.1684 21.5402 39.9653 23.5653 38.906C24.8413 38.2387 26.6353 37.6853 28.7535 37.3058C29.0438 37.2538 29.343 37.3193 29.5851 37.4878C29.8272 37.6563 29.9924 37.9141 30.0445 38.2045C30.0965 38.4948 30.031 38.794 29.8625 39.0361C29.694 39.2782 29.4362 39.4434 29.1458 39.4955C27.2476 39.8357 25.6743 40.3134 24.5964 40.8772C23.6024 41.3972 23.3398 41.8334 23.3398 41.9913C23.3398 42.2246 23.9239 43.0696 26.5188 43.8659C28.9728 44.6189 32.2563 45.0337 35.7647 45.0337C39.2732 45.0337 42.5568 44.6189 45.0108 43.8657C47.6059 43.0692 48.19 42.2244 48.19 41.9912C48.19 41.8332 47.9274 41.397 46.9334 40.877C45.8554 40.3132 44.2823 39.8353 42.384 39.4953C42.0937 39.4433 41.8359 39.278 41.6673 39.0359C41.4988 38.7938 41.4334 38.4947 41.4854 38.2043C41.5374 37.9139 41.7027 37.6561 41.9448 37.4876C42.1869 37.3191 42.486 37.2536 42.7764 37.3056C44.8946 37.6851 46.6886 38.2385 47.9645 38.9058C49.9896 39.9649 50.4146 41.168 50.4146 41.991C50.4146 42.6353 50.1505 43.595 48.8917 44.5083C48.1105 45.0752 47.0244 45.5743 45.6637 45.992C43.0037 46.8085 39.4881 47.2579 35.7645 47.2579ZM35.7647 54.4661C33.3332 54.4661 30.9356 54.2699 28.8313 53.8984C26.6928 53.5209 24.8805 52.9673 23.5903 52.2973C21.5447 51.2351 21.1152 50.0262 21.1152 49.1992C21.1152 48.9042 21.2324 48.6213 21.441 48.4127C21.6496 48.2042 21.9325 48.087 22.2274 48.087C22.5224 48.087 22.8053 48.2042 23.0139 48.4127C23.2224 48.6213 23.3396 48.9042 23.3396 49.1992C23.3396 49.3589 23.6063 49.7993 24.6154 50.3232C25.7077 50.8903 27.2993 51.3691 29.218 51.7078C31.1968 52.0571 33.4608 52.2417 35.7649 52.2417C38.0691 52.2417 40.3328 52.0571 42.3118 51.7078C44.2305 51.3691 45.8222 50.8903 46.9145 50.3232C47.9236 49.7993 48.1902 49.3589 48.1902 49.1992C48.1902 48.9042 48.3074 48.6213 48.516 48.4127C48.7246 48.2042 49.0075 48.087 49.3024 48.087C49.5974 48.087 49.8803 48.2042 50.0889 48.4127C50.2974 48.6213 50.4146 48.9042 50.4146 49.1992C50.4146 50.0262 49.9852 51.2351 47.9396 52.2973C46.6494 52.9671 44.837 53.5209 42.6986 53.8984C40.5939 54.2697 38.1963 54.4661 35.7647 54.4661ZM35.7647 61.6737C33.3332 61.6737 30.9358 61.4774 28.8313 61.106C26.6928 60.7286 24.8805 60.175 23.5903 59.5049C21.5447 58.4428 21.1152 57.2338 21.1152 56.4068C21.1152 56.1119 21.2324 55.829 21.441 55.6204C21.6496 55.4118 21.9325 55.2946 22.2274 55.2946C22.5224 55.2946 22.8053 55.4118 23.0139 55.6204C23.2224 55.829 23.3396 56.1119 23.3396 56.4068C23.3396 56.5665 23.6063 57.007 24.6154 57.5308C25.7077 58.0979 27.2993 58.5768 29.218 58.9154C31.197 59.2647 33.4608 59.4493 35.7649 59.4493C38.0689 59.4493 40.3328 59.2647 42.3118 58.9154C44.2307 58.5768 45.8222 58.0979 46.9145 57.5308C47.9236 57.007 48.1902 56.5665 48.1902 56.4068C48.1902 56.1119 48.3074 55.829 48.516 55.6204C48.7246 55.4118 49.0075 55.2946 49.3024 55.2946C49.5974 55.2946 49.8803 55.4118 50.0889 55.6204C50.2974 55.829 50.4146 56.1119 50.4146 56.4068C50.4146 57.2338 49.9852 58.4428 47.9396 59.5049C46.6494 60.1748 44.837 60.7286 42.6986 61.106C40.5937 61.4774 38.1963 61.6737 35.7647 61.6737ZM35.7647 68.8816C33.333 68.8816 30.9354 68.6852 28.8313 68.3139C26.6928 67.9364 24.8805 67.3828 23.5903 66.7128C21.5447 65.6506 21.1152 64.4417 21.1152 63.6147C21.1152 63.3197 21.2324 63.0368 21.441 62.8282C21.6496 62.6196 21.9325 62.5025 22.2274 62.5025C22.5224 62.5025 22.8053 62.6196 23.0139 62.8282C23.2224 63.0368 23.3396 63.3197 23.3396 63.6147C23.3396 63.7743 23.6063 64.2148 24.6154 64.7386C25.7077 65.3057 27.2993 65.7846 29.218 66.1233C31.1966 66.4726 33.4606 66.6572 35.7649 66.6572C38.0693 66.6572 40.333 66.4726 42.3118 66.1233C44.2307 65.7846 45.8222 65.3057 46.9145 64.7386C47.9236 64.2148 48.1902 63.7743 48.1902 63.6147C48.1902 63.3197 48.3074 63.0368 48.516 62.8282C48.7246 62.6196 49.0075 62.5025 49.3024 62.5025C49.5974 62.5025 49.8803 62.6196 50.0889 62.8282C50.2974 63.0368 50.4146 63.3197 50.4146 63.6147C50.4146 64.4419 49.9852 65.6506 47.9396 66.7128C46.6494 67.3826 44.837 67.9364 42.6986 68.3139C40.5941 68.6852 38.1965 68.8816 35.7647 68.8816ZM35.7647 76.0574C33.333 76.0574 30.9354 75.861 28.8313 75.4897C26.6928 75.1122 24.8805 74.5586 23.5903 73.8886C21.5447 72.8264 21.1152 71.6174 21.1152 70.7904C21.1152 70.4955 21.2324 70.2126 21.441 70.004C21.6496 69.7954 21.9325 69.6782 22.2274 69.6782C22.5224 69.6782 22.8053 69.7954 23.0139 70.004C23.2224 70.2126 23.3396 70.4955 23.3396 70.7904C23.3396 70.9501 23.6063 71.3906 24.6154 71.9144C25.7077 72.4815 27.2993 72.9604 29.218 73.2991C31.1966 73.6484 33.4606 73.833 35.7649 73.833C38.0693 73.833 40.333 73.6484 42.3118 73.2991C44.2305 72.9604 45.8222 72.4815 46.9145 71.9144C47.9236 71.3906 48.1902 70.9501 48.1902 70.7904C48.1902 70.4955 48.3074 70.2126 48.516 70.004C48.7246 69.7954 49.0075 69.6782 49.3024 69.6782C49.5974 69.6782 49.8803 69.7954 50.0889 70.004C50.2974 70.2126 50.4146 70.4955 50.4146 70.7904C50.4146 71.6176 49.9852 72.8264 47.9396 73.8886C46.6494 74.5584 44.837 75.112 42.6986 75.4897C40.5941 75.861 38.1965 76.0574 35.7647 76.0574Z" fill="#622EB7"/>
<path fill-rule="evenodd" clip-rule="evenodd" d="M35.7647 83.2331C33.333 83.2331 30.9354 83.0367 28.8313 82.6654C26.6928 82.2879 24.8805 81.7344 23.5903 81.0643C21.5447 80.0022 21.1152 78.7932 21.1152 77.9662V41.9913C21.1152 41.6964 21.2324 41.4135 21.441 41.2049C21.6496 40.9963 21.9325 40.8791 22.2274 40.8791C22.5224 40.8791 22.8053 40.9963 23.0139 41.2049C23.2224 41.4135 23.3396 41.6964 23.3396 41.9913V77.9662C23.3396 78.1259 23.6063 78.5663 24.6154 79.0902C25.7077 79.6573 27.2993 80.1362 29.218 80.4748C31.1966 80.8241 33.4606 81.0087 35.7649 81.0087C38.0693 81.0087 40.333 80.8241 42.3116 80.4748C44.2306 80.1362 45.822 79.6573 46.9143 79.0902C47.9234 78.5663 48.19 78.1259 48.19 77.9662V41.9913C48.19 41.6964 48.3072 41.4135 48.5158 41.2049C48.7244 40.9963 49.0073 40.8791 49.3022 40.8791C49.5972 40.8791 49.8801 40.9963 50.0887 41.2049C50.2973 41.4135 50.4144 41.6964 50.4144 41.9913V77.9662C50.4144 78.7932 49.985 80.0022 47.9394 81.0643C46.6492 81.7342 44.8368 82.2879 42.6984 82.6654C40.5941 83.0367 38.1965 83.2331 35.7647 83.2331ZM66.7508 70.9034C66.4558 70.9034 66.1729 70.7862 65.9643 70.5776C65.7557 70.3691 65.6386 70.0862 65.6386 69.7912V39.5128H62.2825V69.7912C62.2825 70.0862 62.1653 70.3691 61.9567 70.5776C61.7481 70.7862 61.4653 70.9034 61.1703 70.9034C60.8753 70.9034 60.5924 70.7862 60.3838 70.5776C60.1753 70.3691 60.0581 70.0862 60.0581 69.7912V38.4006C60.0581 38.1057 60.1753 37.8228 60.3838 37.6142C60.5924 37.4056 60.8753 37.2885 61.1703 37.2885H66.7508C67.0457 37.2885 67.3286 37.4056 67.5372 37.6142C67.7458 37.8228 67.863 38.1057 67.863 38.4006V69.7912C67.863 70.0862 67.7458 70.3691 67.5372 70.5776C67.3286 70.7862 67.0457 70.9034 66.7508 70.9034Z" fill="#622EB7"/>
<path fill-rule="evenodd" clip-rule="evenodd" d="M63.96 83.2331C63.7841 83.2331 63.6106 83.1914 63.4539 83.1113C63.2972 83.0313 63.1618 82.9152 63.0587 82.7726L54.1447 70.4429C54.0246 70.2769 53.9526 70.0809 53.9369 69.8765C53.9211 69.6722 53.9621 69.4675 54.0554 69.285C54.1486 69.1025 54.2905 68.9494 54.4653 68.8424C54.6401 68.7355 54.8411 68.6789 55.046 68.679H72.874C73.0789 68.679 73.2798 68.7356 73.4546 68.8426C73.6294 68.9495 73.7712 69.1027 73.8644 69.2851C73.9577 69.4676 73.9987 69.6723 73.983 69.8766C73.9672 70.0809 73.8954 70.2768 73.7753 70.4429L64.8614 82.7726C64.7582 82.9151 64.6227 83.0312 64.4661 83.1112C64.3094 83.1913 64.136 83.2331 63.96 83.2331ZM57.2224 70.9034L63.9598 80.2225L70.6973 70.9034H57.2224Z" fill="#622EB7"/>
</svg>
