<svg width="64" height="64" viewBox="0 0 64 64" fill="none" xmlns="http://www.w3.org/2000/svg">
<path d="M54.7847 5.89523L18.2045 0.216977C16.9284 0.0188524 15.7334 0.892852 15.5352 2.16885L7.59149 53.3441C7.39336 54.6202 8.26736 55.8152 9.54336 56.0134L46.1236 61.6916C47.3997 61.8897 48.5947 61.0159 48.7929 59.7397L56.7366 8.56448C56.9346 7.28835 56.0607 6.09323 54.7847 5.89523Z" fill="#FFDDCF"/>
<path d="M23.1029 0.97924C22.7948 1.56574 22.2928 2.06774 21.7659 2.48524C20.9408 3.13136 20.0014 3.64824 19.2957 4.42862C18.1674 5.67124 17.7847 7.42574 17.72 9.10561C17.6504 10.7856 17.8493 12.4705 17.6902 14.1455C17.4963 16.1336 16.7408 18.1416 15.2298 19.4539C14.514 20.0801 13.5995 20.5076 12.6602 20.6716L15.533 2.16711C15.7319 0.89474 16.9297 0.0198648 18.207 0.21874L23.1029 0.97924Z" fill="#FFEDE6"/>
<path d="M56.7369 8.564L48.7943 59.7386C48.5954 61.016 47.3977 61.8907 46.1252 61.6919L34.6387 59.9075C35.2749 59.7634 35.9309 59.6739 36.5672 59.6292C38.8535 59.4552 41.2989 59.5646 43.2672 58.3866C45.9263 56.806 46.8707 53.3666 46.7713 50.275C46.5874 44.4497 43.5754 38.6345 45.1062 33.013C45.8915 30.1351 47.7802 27.7096 49.0477 25.0156C51.8858 18.9817 51.3639 11.4914 47.7157 5.91462C47.4473 5.507 47.1639 5.0945 46.8907 4.672L54.7835 5.89462C56.0609 6.09375 56.9358 7.28662 56.7369 8.564Z" fill="#FFB799"/>
<path d="M46.591 7.34473H9.57263C8.28125 7.34473 7.23438 8.3916 7.23438 9.68298V61.4711C7.23438 62.7625 8.28125 63.8094 9.57263 63.8094H46.591C47.8824 63.8094 48.9293 62.7625 48.9293 61.4711V9.68298C48.9291 8.3916 47.8824 7.34473 46.591 7.34473Z" fill="#FFEDE6"/>
<path d="M13.3905 9.22494C12.8835 11.3076 11.5168 13.0719 10.7613 15.0801C9.45405 18.5493 10.0654 22.4063 10.4582 26.0943C10.6322 27.6848 10.7514 29.3399 10.2345 30.8558C9.7623 32.2326 8.63405 33.4852 7.23242 33.7536V9.68219C7.23242 8.38994 8.28117 7.34607 9.57342 7.34607H13.5C13.5745 7.97744 13.5348 8.62357 13.3905 9.22494Z" fill="white"/>
<path d="M48.9284 9.68219V61.4732C48.9284 62.7604 47.8846 63.8092 46.5922 63.8092H24.2605C24.1959 62.9742 24.3749 62.1044 24.7924 61.3837C25.7616 59.7137 27.6602 58.7792 29.554 58.4014C31.4427 58.0237 33.396 58.1082 35.3196 57.9641C37.2431 57.8199 39.2362 57.4074 40.7422 56.1996C43.6946 53.8337 43.7592 49.2858 42.5017 45.7221C41.5772 43.1027 40.0712 40.5827 40.0614 37.8043C40.0564 33.8579 43.0286 30.5873 44.2414 26.8348C45.8419 21.8744 44.2712 16.5363 43.2225 11.4317C42.9491 10.1096 42.7255 8.72782 42.6061 7.34607H46.5924C47.8846 7.34619 48.9284 8.38994 48.9284 9.68219ZM24.3407 18.1627C24.3407 21.6507 21.5171 24.5098 17.9936 24.5098C16.2291 24.5098 14.6386 23.7941 13.4905 22.6361C12.3522 21.4879 11.6465 19.9024 11.6465 18.1628C11.6465 14.6538 14.4845 11.8157 17.9936 11.8157C21.4977 11.8156 24.3407 14.6537 24.3407 18.1627Z" fill="#FFDDCF"/>
<path d="M16.6177 13.4161C16.2996 14.0126 15.6336 14.3157 15.0918 14.7234C13.9835 15.5584 13.3373 16.9799 13.4367 18.3666C13.4666 18.8289 13.5758 19.306 13.4218 19.7434C13.243 20.2652 12.736 20.5884 12.1942 20.7375C11.8413 19.9472 11.6475 19.0774 11.6475 18.1629C11.6475 15.1459 13.745 12.6209 16.5681 11.9797C16.8116 12.4171 16.8563 12.9687 16.6177 13.4161Z" fill="#FFEDE6"/>
<path d="M24.3411 18.1628C24.3411 21.6519 21.518 24.5099 17.994 24.5099C17.502 24.5099 17.0199 24.4553 16.5625 24.3459C16.5972 23.9433 16.7215 23.5457 16.9452 23.2027C17.6859 22.0596 19.172 21.6668 20.1859 20.7573C21.1999 19.8477 21.6869 18.3914 21.4235 17.0594C21.2246 16.0356 20.6283 15.1309 20.3748 14.1219C20.2206 13.5156 20.2008 12.8744 20.3101 12.2531C22.6711 13.1776 24.3411 15.4739 24.3411 18.1628Z" fill="#FFB799"/>
<path d="M19.9696 15.9183V16.6053C19.9696 17.6974 19.0843 18.5828 17.9921 18.5828C16.9 18.5828 16.0146 17.6974 16.0146 16.6053V15.9183C16.0146 14.8262 16.9 13.9408 17.9921 13.9408C19.0843 13.9408 19.9696 14.8262 19.9696 15.9183Z" fill="#FD7C48"/>
<path d="M17.8694 14.609C17.8047 14.942 17.5215 15.1905 17.2481 15.3944C16.9748 15.5981 16.6765 15.802 16.5424 16.12C16.438 16.3685 16.438 16.6718 16.2491 16.8606C16.1945 16.9153 16.1249 16.955 16.0504 16.9749C16.0255 16.8556 16.0156 16.7314 16.0156 16.6071V15.9163C16.0156 14.9321 16.7364 14.117 17.6856 13.9679C17.8346 14.1518 17.9141 14.3804 17.8694 14.609Z" fill="#FF8F61"/>
<path d="M19.9676 15.9161V16.607C19.9676 17.6955 19.0828 18.5802 17.9943 18.5802C17.8303 18.5802 17.6713 18.5603 17.5222 18.5206C17.4228 18.2572 17.4427 17.9291 17.567 17.6707C17.7658 17.2482 18.1535 16.955 18.5163 16.6617C18.8792 16.3635 19.247 16.0255 19.3662 15.5732C19.4656 15.2103 19.3811 14.8277 19.3116 14.45C19.3415 14.4698 19.3662 14.4947 19.3911 14.5196C19.744 14.8773 19.9676 15.3695 19.9676 15.9161Z" fill="#F77F4E"/>
<path d="M22.4925 22.641C21.3443 23.7941 19.7538 24.5099 17.9943 24.5099C16.2298 24.5099 14.6393 23.7941 13.4912 22.6361C14.4008 21.0953 16.0758 20.0615 17.9893 20.0615C19.8658 20.0614 21.5717 21.0653 22.4925 22.641Z" fill="#FD7C48"/>
<path d="M18.0192 20.0614C18.0292 20.1907 18.0192 20.3199 17.9795 20.4392C17.8253 20.9213 17.393 21.2643 16.9257 21.463C16.4635 21.6569 15.9615 21.7414 15.4793 21.8855C14.9972 22.0347 14.5151 22.2583 14.2168 22.6659C14.1223 22.7952 14.0528 22.9343 13.9733 23.0735C13.8043 22.9344 13.6453 22.7903 13.4912 22.6362C14.4008 21.0953 16.0758 20.0615 17.9893 20.0615H18.0192V20.0614Z" fill="#FF8F61"/>
<path d="M22.4922 22.641C20.9843 24.1553 18.8531 24.7818 16.8359 24.4055C17.3348 22.7743 20.4929 23.4046 20.4146 20.6628C21.2746 21.1102 21.9952 21.7911 22.4922 22.641Z" fill="#F77F4E"/>
<path d="M43.8256 47.8694L45.3919 52.0919C45.6121 52.6857 45.3093 53.3459 44.7154 53.5661L25.169 60.8166C24.5751 61.0369 23.915 60.7341 23.6948 60.1401L22.1285 55.9176C21.9083 55.3237 22.2111 54.6636 22.805 54.4434L42.3514 47.1929C42.9454 46.9726 43.6054 47.2754 43.8256 47.8694Z" fill="#FD6C31"/>
<path d="M43.8263 47.8693L45.3925 52.0918C45.6133 52.6869 45.311 53.3453 44.716 53.566L26.7468 60.2315C26.6889 59.9105 26.7353 59.563 26.884 59.2713C27.1914 58.6598 27.817 58.2688 28.4484 58.0141C30.4779 57.2083 32.8758 57.4728 34.7409 56.3446C36.3867 55.3509 37.4144 53.3835 39.2559 52.8513C40.0192 52.6334 40.8759 52.6785 41.5428 52.2558C42.1223 51.8941 42.466 51.216 42.5147 50.5334C42.5597 49.8521 42.3397 49.1711 41.9873 48.5841C41.7849 48.2474 41.5355 47.9158 41.3233 47.5745L42.352 47.1929C42.947 46.972 43.6055 47.2743 43.8263 47.8693Z" fill="#E56E3E"/>
<path d="M56.4642 6.71504C56.0662 6.17142 55.4795 5.81467 54.8124 5.71129L18.2355 0.0346683C16.8568 -0.179332 15.5633 0.764168 15.3487 2.13879L14.6975 6.32379C14.6818 6.42567 14.7514 6.52092 14.8532 6.53642C14.9565 6.55829 15.0503 6.48304 15.066 6.38104L15.7172 2.19604C15.9002 1.02529 17.0039 0.224418 18.1783 0.402543L54.7552 6.07917C55.324 6.16804 55.8242 6.47179 56.1635 6.93542C56.503 7.39892 56.6414 7.96692 56.5528 8.53529L49.7385 52.4383C49.7228 52.5402 49.7924 52.6354 49.8942 52.6509C49.9039 52.6529 49.9135 52.6533 49.923 52.6533C50.0133 52.6533 50.0927 52.5878 50.107 52.4955L56.9212 8.59242C57.0248 7.92554 56.8627 7.25917 56.4642 6.71504Z" fill="#4C4C4C"/>
<path d="M46.5909 7.1582H9.5726C8.18048 7.1582 7.04785 8.29108 7.04785 9.6832V61.4713C7.04785 62.8635 8.18048 63.9958 9.5726 63.9958H46.5909C47.983 63.9958 49.1153 62.8635 49.1153 61.4713V9.6832C49.1153 8.29108 47.983 7.1582 46.5909 7.1582ZM48.7426 61.4713C48.7426 62.6576 47.7775 63.6231 46.5909 63.6231H9.5726C8.3861 63.6231 7.4206 62.6577 7.4206 61.4713V9.6832C7.4206 8.49645 8.38598 7.53095 9.5726 7.53095H46.5909C47.7774 7.53095 48.7426 8.49633 48.7426 9.6832V61.4713Z" fill="#4C4C4C"/>
<path d="M11.6463 33.8746H44.5166C44.6195 33.8746 44.703 33.7911 44.703 33.6882C44.703 33.5854 44.6195 33.5019 44.5166 33.5019H11.6463C11.5435 33.5019 11.46 33.5854 11.46 33.6882C11.46 33.7911 11.5435 33.8746 11.6463 33.8746ZM11.6463 28.6262H44.5166C44.6195 28.6262 44.703 28.5427 44.703 28.4399C44.703 28.337 44.6195 28.2535 44.5166 28.2535H11.6463C11.5435 28.2535 11.46 28.337 11.46 28.4399C11.46 28.5427 11.5435 28.6262 11.6463 28.6262ZM28.1065 23.5986H44.5166C44.6195 23.5986 44.703 23.5151 44.703 23.4122C44.703 23.3094 44.6195 23.2259 44.5166 23.2259H28.1065C28.0036 23.2259 27.9201 23.3094 27.9201 23.4122C27.9201 23.5151 28.0036 23.5986 28.1065 23.5986ZM28.1065 18.3501H44.5166C44.6195 18.3501 44.703 18.2666 44.703 18.1637C44.703 18.0609 44.6195 17.9774 44.5166 17.9774H28.1065C28.0036 17.9774 27.9201 18.0609 27.9201 18.1637C27.9201 18.2666 28.0036 18.3501 28.1065 18.3501ZM28.1065 13.1021H44.5166C44.6195 13.1021 44.703 13.0186 44.703 12.9157C44.703 12.8129 44.6195 12.7294 44.5166 12.7294H28.1065C28.0036 12.7294 27.9201 12.8129 27.9201 12.9157C27.9201 13.0186 28.0036 13.1021 28.1065 13.1021ZM11.6463 39.1226H44.5166C44.6195 39.1226 44.703 39.0391 44.703 38.9362C44.703 38.8334 44.6195 38.7499 44.5166 38.7499H11.6463C11.5435 38.7499 11.46 38.8334 11.46 38.9362C11.46 39.0391 11.5435 39.1226 11.6463 39.1226ZM11.6463 44.3711H44.5166C44.6195 44.3711 44.703 44.2876 44.703 44.1847C44.703 44.0819 44.6195 43.9984 44.5166 43.9984H11.6463C11.5435 43.9984 11.46 44.0819 11.46 44.1847C11.46 44.2876 11.5435 44.3711 11.6463 44.3711ZM25.374 49.4326C25.374 49.3297 25.2905 49.2462 25.1876 49.2462H11.6463C11.5435 49.2462 11.46 49.3297 11.46 49.4326C11.46 49.5355 11.5435 49.619 11.6463 49.619H25.1876C25.2905 49.6191 25.374 49.5356 25.374 49.4326ZM17.9916 18.769C19.1847 18.769 20.1555 17.7982 20.1555 16.6051V15.9182C20.1555 14.7251 19.1847 13.7544 17.9916 13.7544C16.7985 13.7544 15.8277 14.7251 15.8277 15.9182V16.6051C15.8277 17.7982 16.7985 18.769 17.9916 18.769ZM16.2005 15.9184C16.2005 14.9306 17.004 14.1272 17.9916 14.1272C18.9791 14.1272 19.7827 14.9305 19.7827 15.9184V16.6052C19.7827 17.593 18.9792 18.3964 17.9916 18.3964C17.0041 18.3964 16.2005 17.5931 16.2005 16.6052V15.9184Z" fill="#4C4C4C"/>
<path d="M17.9935 24.6965C21.6313 24.6965 24.527 21.7336 24.527 18.1628C24.527 14.5603 21.596 11.6295 17.9935 11.6295C14.391 11.6295 11.46 14.5603 11.46 18.1628C11.46 21.7303 14.3405 24.6965 17.9935 24.6965ZM17.9935 24.3238C16.3616 24.3238 14.8501 23.6814 13.7295 22.6029C14.649 21.1469 16.267 20.248 17.9883 20.248C19.7192 20.248 21.3382 21.1474 22.2512 22.6049C21.0301 23.7749 19.4993 24.3238 17.9935 24.3238ZM17.9935 12.0023C21.3905 12.0023 24.1542 14.766 24.1542 18.1628C24.1542 19.7744 23.5273 21.2386 22.5108 22.3378C21.522 20.8168 19.8172 19.8751 17.9883 19.8751C16.1692 19.8751 14.4655 20.8161 13.4703 22.3358C12.4162 21.1925 11.8327 19.7223 11.8327 18.1626C11.8327 14.766 14.5965 12.0023 17.9935 12.0023ZM44.0001 47.8043C43.7443 47.115 42.9755 46.7626 42.2862 47.0179L22.7398 54.2685C22.4058 54.3923 22.1401 54.6389 21.9916 54.9626C21.8431 55.2864 21.8295 55.6485 21.9535 55.9824L23.5198 60.2053C23.7191 60.7421 24.2295 61.0746 24.7712 61.0746C24.9248 61.0746 25.0811 61.0475 25.2336 60.9911L44.78 53.7409C45.114 53.6171 45.3797 53.3705 45.5282 53.0468C45.677 52.723 45.6906 52.3609 45.5666 52.027L44.0001 47.8043ZM45.1893 52.8915C45.0823 53.1245 44.8908 53.3021 44.6503 53.3915L25.104 60.6416C24.6072 60.8265 24.0536 60.5723 23.8693 60.0751L22.303 55.8523C22.2137 55.612 22.2236 55.3514 22.3303 55.1179C22.4373 54.8849 22.6288 54.7073 22.8693 54.6179L42.4158 47.3673C42.5253 47.327 42.6377 47.3075 42.7483 47.3075C43.1388 47.3075 43.507 47.5473 43.6507 47.9341L45.2171 52.157C45.3063 52.3974 45.2963 52.658 45.1893 52.8915Z" fill="#4C4C4C"/>
<path d="M24.7067 58.8716C24.6676 58.8531 24.6396 58.823 24.6229 58.7799C24.6161 58.7625 24.6127 58.7374 24.6134 58.706L24.6844 56.3413C24.6871 56.2949 24.6995 56.2511 24.7219 56.2126C24.7445 56.1746 24.7792 56.1455 24.8265 56.127L24.8604 56.1141C24.9076 56.0956 24.9524 56.0934 24.9952 56.1069C25.0377 56.1198 25.0761 56.1433 25.1096 56.1763L26.7584 57.873C26.7805 57.8954 26.7947 57.9161 26.8015 57.9334C26.8182 57.9765 26.8182 58.0179 26.8015 58.0576C26.7847 58.0979 26.7536 58.1264 26.7086 58.1438C26.6772 58.156 26.6454 58.1594 26.613 58.1527C26.5805 58.1455 26.552 58.1304 26.5274 58.1064L26.1036 57.665L24.957 58.1109L24.9419 58.7224C24.9396 58.7565 24.929 58.7873 24.91 58.8146C24.8904 58.8415 24.8652 58.8605 24.8336 58.8728C24.7885 58.8901 24.7462 58.8895 24.7067 58.8716ZM24.9661 57.7851L25.8766 57.431L24.9955 56.5119L24.9661 57.7851ZM27.3831 57.8316C27.3429 57.8138 27.314 57.7841 27.2975 57.7404L26.4952 55.6771C26.479 55.6335 26.4792 55.5915 26.4966 55.5501C26.5142 55.5088 26.5441 55.4796 26.587 55.4629L27.356 55.1641C27.5694 55.0814 27.758 55.0494 27.9207 55.0685C28.0835 55.0886 28.2159 55.1429 28.3182 55.233C28.4204 55.322 28.4967 55.4328 28.5474 55.5631C28.598 55.6935 28.6161 55.8261 28.6014 55.9615C28.5865 56.0969 28.5256 56.2261 28.4187 56.3504C28.3119 56.4751 28.1514 56.5786 27.9376 56.6614L27.3239 56.8998L27.6041 57.6214C27.6209 57.6645 27.6197 57.7064 27.6007 57.7473C27.5817 57.7881 27.551 57.8166 27.5079 57.8334C27.4654 57.85 27.4237 57.8495 27.3831 57.8316ZM27.7949 56.3831C28.024 56.2941 28.1682 56.1879 28.2279 56.0636C28.2869 55.9394 28.2911 55.8124 28.2405 55.6821C28.1899 55.5518 28.1009 55.4606 27.9734 55.4091C27.8459 55.3583 27.6676 55.3766 27.4385 55.4656L26.855 55.6923L27.2114 56.6098L27.7949 56.3831ZM29.6495 56.951C29.6092 56.9336 29.5804 56.9035 29.5639 56.8604L28.7616 54.7966C28.7454 54.7535 28.7456 54.7116 28.763 54.6696C28.7806 54.6283 28.8105 54.5991 28.8534 54.5824L29.6224 54.2836C29.8357 54.2009 30.0244 54.1689 30.1871 54.188C30.3499 54.2081 30.4822 54.263 30.5846 54.3525C30.6867 54.4415 30.7631 54.5523 30.8137 54.6826C30.8644 54.813 30.8825 54.9456 30.8677 55.081C30.8529 55.2164 30.792 55.3461 30.6851 55.4699C30.5782 55.5946 30.4177 55.6981 30.204 55.7809L29.5902 56.0198L29.8705 56.7414C29.8872 56.7839 29.8861 56.8259 29.8671 56.8668C29.8481 56.9076 29.8174 56.9366 29.7742 56.9529C29.7317 56.9695 29.69 56.9689 29.6495 56.951ZM30.0612 55.5026C30.2904 55.4136 30.4346 55.3074 30.4942 55.1831C30.5532 55.0589 30.5575 54.9319 30.5069 54.8016C30.4562 54.6713 30.3672 54.5801 30.2397 54.5286C30.1122 54.4778 29.934 54.4961 29.7049 54.5851L29.1214 54.8122L29.4777 55.7298L30.0612 55.5026ZM31.9161 56.0705C31.8756 56.0531 31.847 56.023 31.8302 55.9799L31.0285 53.9161C31.0117 53.873 31.0122 53.8311 31.0296 53.7891C31.047 53.7477 31.0771 53.7186 31.12 53.7019L31.9057 53.397C32.2117 53.2779 32.4652 53.2515 32.6675 53.3181C32.8691 53.3848 33.0096 53.5201 33.089 53.7249C33.1416 53.8591 33.1516 53.9967 33.1197 54.1382C33.0872 54.2781 33.009 54.4013 32.8845 54.5064C33.0632 54.4868 33.2126 54.5444 33.334 54.6793C33.4549 54.8153 33.5455 54.959 33.605 55.1118L33.6651 55.2668C33.6819 55.3099 33.6811 55.3518 33.6635 55.3921C33.645 55.4324 33.6149 55.4609 33.5722 55.4778C33.525 55.4963 33.4816 55.4968 33.4427 55.4794C33.4039 55.4631 33.3759 55.4313 33.358 55.3865L33.3189 55.2846C33.2752 55.1728 33.2249 55.0731 33.1672 54.9854C33.1101 54.8975 33.0285 54.831 32.9227 54.7845C32.817 54.7391 32.6866 54.747 32.5317 54.8075L31.8332 55.0789L32.1372 55.861C32.1537 55.9035 32.1526 55.9455 32.1334 55.9864C32.1146 56.0273 32.0836 56.0557 32.0411 56.0725C31.998 56.0889 31.9566 56.0884 31.9161 56.0705ZM32.3309 54.5515C32.5245 54.476 32.6626 54.3781 32.7471 54.2578C32.8305 54.1369 32.8456 54.0071 32.7914 53.8679C32.7387 53.7325 32.6499 53.648 32.524 53.6139C32.3984 53.5803 32.2174 53.6089 31.9816 53.7006L31.3877 53.9316L31.7206 54.7888L32.3309 54.5515ZM34.6587 54.8961C34.4406 54.8625 34.2481 54.7725 34.0809 54.6281C33.913 54.4833 33.7812 54.2936 33.6854 54.0598C33.5981 53.822 33.5674 53.5931 33.5934 53.3733C33.6189 53.1534 33.7011 52.9581 33.8381 52.7848C33.9757 52.613 34.1626 52.4804 34.3987 52.3886C34.6349 52.2969 34.8611 52.2689 35.0779 52.303C35.2944 52.3388 35.4876 52.4289 35.6564 52.5738C35.8254 52.7186 35.9574 52.9071 36.053 53.1399C36.1391 53.3749 36.1694 53.6036 36.1427 53.8253C36.1161 54.0468 36.0345 54.2431 35.8982 54.4144C35.7617 54.5873 35.5755 54.7188 35.3396 54.8105C35.1032 54.9024 34.8764 54.9314 34.6587 54.8961ZM35.6496 54.2204C35.7511 54.0884 35.8096 53.9384 35.8247 53.7718C35.8404 53.6061 35.8141 53.4344 35.7461 53.2593C35.6779 53.0836 35.5819 52.9404 35.4577 52.8274C35.3341 52.7149 35.1904 52.645 35.0259 52.6148C34.862 52.5856 34.6902 52.6058 34.5101 52.6758C34.328 52.7468 34.1867 52.848 34.0866 52.9795C33.987 53.1121 33.9289 53.2609 33.9132 53.427C33.8979 53.5942 33.9245 53.7649 33.9927 53.9406C34.0605 54.1158 34.1566 54.2601 34.2802 54.3714C34.4045 54.4844 34.5476 54.5554 34.7105 54.5851C34.8739 54.6154 35.0461 54.5953 35.2285 54.5241C35.4079 54.4543 35.5482 54.353 35.6496 54.2204ZM37.519 53.7661L35.9007 52.0699C35.8874 52.0543 35.8761 52.0358 35.8686 52.0161C35.8501 51.9686 35.8494 51.9255 35.8652 51.8875C35.8812 51.8484 35.9125 51.8198 35.9601 51.8014C35.9915 51.7891 36.0239 51.7885 36.0572 51.7975C36.0905 51.8065 36.1202 51.8238 36.1459 51.8506L37.7065 53.5184L37.7314 51.2348C37.7322 51.1973 37.7422 51.1649 37.7605 51.1358C37.779 51.1066 37.8041 51.0854 37.8355 51.0731C37.8827 51.0546 37.9252 51.0541 37.9634 51.0726C38.0011 51.09 38.0291 51.1224 38.0476 51.17C38.0555 51.1896 38.0596 51.2103 38.0599 51.2315L38.0117 53.575C38.0045 53.6964 37.9546 53.7753 37.8626 53.8105L37.7885 53.8396C37.696 53.8751 37.6062 53.8511 37.519 53.7661ZM39.343 53.1658C39.3027 53.1479 39.2741 53.1176 39.2574 53.0745L38.4619 51.0275C38.4456 50.9844 38.4456 50.9425 38.4632 50.9011C38.4809 50.8591 38.5107 50.8301 38.5536 50.8139L39.9057 50.2885C39.9462 50.2729 39.9864 50.2729 40.0252 50.2901C40.0641 50.3075 40.0915 50.336 40.1072 50.3769C40.1229 50.4171 40.1221 50.4569 40.1047 50.4944C40.0871 50.5324 40.0577 50.5593 40.0172 50.575L38.82 51.0399L39.1097 51.7856L40.1856 51.3677C40.2265 51.3521 40.2659 51.3526 40.3047 51.3694C40.3439 51.3867 40.3714 51.4152 40.387 51.4561C40.4026 51.4964 40.4015 51.5356 40.3842 51.5741C40.3666 51.6116 40.3375 51.6379 40.297 51.6536L39.2211 52.0715L39.512 52.8206L40.7092 52.3558C40.7495 52.3401 40.7897 52.3406 40.8287 52.3574C40.8676 52.3753 40.895 52.4038 40.9107 52.4441C40.9264 52.485 40.9252 52.5241 40.908 52.5616C40.8904 52.5996 40.861 52.6271 40.8207 52.6428L39.4686 53.1681C39.4252 53.1843 39.3839 53.1843 39.343 53.1658ZM41.4946 52.33C41.4544 52.3121 41.4255 52.2819 41.409 52.2388L40.6135 50.1918C40.597 50.1486 40.5972 50.1068 40.6149 50.0654C40.6322 50.0234 40.6624 49.9944 40.7052 49.9781L41.383 49.7146C41.6395 49.615 41.879 49.5871 42.1016 49.6312C42.3249 49.6749 42.5161 49.7694 42.6759 49.9149C42.8356 50.0593 42.9539 50.231 43.0309 50.429C43.1077 50.6265 43.136 50.8329 43.1162 51.0477C43.0964 51.2626 43.0189 51.4618 42.8841 51.6446C42.7496 51.8276 42.554 51.9691 42.2975 52.0686L41.6197 52.3321C41.5769 52.3485 41.5355 52.3479 41.4946 52.33ZM42.1492 51.7963C42.3336 51.7246 42.481 51.624 42.5912 51.4948C42.7009 51.365 42.7686 51.219 42.7926 51.055C42.8175 50.8916 42.7954 50.7221 42.7277 50.547C42.6595 50.3714 42.561 50.2315 42.4324 50.1274C42.3042 50.0239 42.1555 49.9606 41.987 49.9394C41.8184 49.9186 41.6419 49.9439 41.4575 50.0155L40.9716 50.204L41.6636 51.9848L42.1492 51.7963Z" fill="#4C4C4C"/>
</svg>
