<svg width="64" height="64" viewBox="0 0 64 64" fill="none" xmlns="http://www.w3.org/2000/svg">
<path d="M11.1641 23.3048C11.1641 25.0825 12.6066 26.5206 14.3842 26.5206C16.1574 26.5206 17.5999 25.0826 17.5999 23.3048C17.5999 21.5271 16.1574 20.0847 14.3842 20.0847C12.6066 20.0847 11.1641 21.5271 11.1641 23.3048Z" fill="#FFDDCF"/>
<path d="M45.8121 63.8101H3.08008C3.86433 51.837 10.0876 42.393 17.2947 38.9589H31.5975C38.8046 42.3931 45.0278 51.837 45.8121 63.8101Z" fill="#FD7C48"/>
<path d="M14.7467 43.2331C13.9067 44.6996 12.1525 45.4513 11.2939 46.9086C10.8298 47.6974 10.672 48.6349 10.3054 49.4796C9.79954 50.6444 8.91316 51.5957 8.04529 52.5239C7.06604 53.5681 6.04054 54.6448 4.70391 55.1552C4.69466 55.1598 4.69004 55.1598 4.68066 55.1644C6.75979 48.5374 10.5652 43.2887 14.9645 40.3047C15.2897 41.2654 15.2525 42.3467 14.7467 43.2331Z" fill="#FF8F61"/>
<path d="M45.8122 63.8101H6.11523C6.19411 63.7266 6.27761 63.6523 6.36586 63.5827C7.11761 63.0072 8.09686 62.8495 9.03423 62.7056C12.1204 62.2415 15.2065 61.7728 18.2925 61.3087C21.4157 60.8353 24.59 60.3666 27.7225 60.7657C29.4256 60.9885 31.101 61.4618 32.8226 61.4897C34.5397 61.5176 36.3914 60.9931 37.4216 59.6195C38.9299 57.6053 38.127 54.7885 37.5515 52.3427C36.8044 49.1777 36.5584 45.9013 36.7997 42.6575C41.6031 47.3262 45.2275 54.8627 45.8122 63.8101Z" fill="#F77F4E"/>
<path d="M32.355 37L24.4219 44.4886L27.5351 47.9243C28.2006 48.6588 29.3916 48.5188 29.8687 47.6499L33.859 40.3835C34.118 39.9117 34.0791 39.3325 33.7593 38.8996L32.355 37Z" fill="#FFEDE6"/>
<path d="M33.0441 41.845L29.8558 47.6552C29.3825 48.5183 28.1945 48.6576 27.5308 47.9243L25.2568 45.4137C25.5538 45.5808 25.8601 45.6828 26.1942 45.6132C26.909 45.4693 27.2106 44.6433 27.6143 44.0307C28.0598 43.3625 28.756 42.8658 29.5356 42.671C30.2688 42.4853 31.0438 42.5596 31.7817 42.3925C32.2366 42.2905 32.6543 42.1002 33.0441 41.845Z" fill="#FFDDCF"/>
<path d="M16.5376 37L24.4707 44.4886L21.3575 47.9243C20.692 48.6588 19.501 48.5188 19.0238 47.6499L15.0336 40.3835C14.7746 39.9117 14.8135 39.3325 15.1333 38.8996L16.5376 37Z" fill="#FFEDE6"/>
<path d="M15.8486 41.845L19.0369 47.6552C19.5103 48.5183 20.6983 48.6576 21.3619 47.9243L23.6359 45.4137C23.3389 45.5808 23.0326 45.6828 22.6985 45.6132C21.9838 45.4693 21.6821 44.6433 21.2784 44.0307C20.8329 43.3625 20.1368 42.8658 19.3571 42.671C18.6239 42.4853 17.8489 42.5596 17.111 42.3925C16.656 42.2905 16.2384 42.1002 15.8486 41.845Z" fill="#FFDDCF"/>
<path d="M32.3555 37.0016L30.1279 39.1057L24.4464 44.4652L19.003 39.3306L16.5371 37.0016C17.5649 36.5339 18.5927 36.1547 19.6161 35.8679C22.9377 34.9372 26.2549 34.9637 29.5676 35.9518C30.4984 36.2252 31.4247 36.5737 32.3555 37.0016Z" fill="#604D4D"/>
<path d="M30.1278 39.1057L24.4463 44.4652L19.0029 39.3305C19.2323 38.1837 19.4441 37.0103 19.6161 35.8678C19.9513 33.6137 20.1233 31.4875 19.9337 29.9877H29.2412C29.0516 31.5095 29.2279 33.6665 29.5676 35.9515C29.7264 36.9928 29.9204 38.0603 30.1278 39.1057Z" fill="#FFDDCF"/>
<path d="M30.1265 39.1074L24.4463 44.4675L22.7432 42.8618C22.873 42.7179 23.0309 42.6019 23.2025 42.5184C23.7223 42.2585 24.4277 42.2353 24.7247 41.7342C25.1609 41.0055 24.2792 40.0682 24.5577 39.2653C24.7758 38.6295 25.5879 38.4253 25.9824 37.8777C26.3862 37.3162 26.2563 36.5504 26.2702 35.8543C26.3073 34.3739 27.1333 32.9817 28.2843 32.0442C28.558 31.8168 28.855 31.6172 29.1614 31.4409C29.166 32.7542 29.3239 34.3228 29.5698 35.9517C29.7274 36.9913 29.9224 38.0587 30.1265 39.1074Z" fill="#FFB799"/>
<path d="M34.5076 20.4794V27.6401C34.5076 33.1022 30.0804 37.5296 24.6229 37.5296C19.1601 37.5296 14.7334 33.0979 14.7334 27.6401V20.4794C14.7334 15.022 19.1606 10.5946 24.6229 10.5946C30.0474 10.5946 34.5076 14.9891 34.5076 20.4794Z" fill="#FFDDCF"/>
<path d="M34.5079 21.5375V27.6401C34.5079 33.1022 30.0806 37.5296 24.6231 37.5296C23.0081 37.5296 21.4814 37.1397 20.1309 36.4484C20.4325 36.453 20.7389 36.4993 21.0405 36.5365C21.5464 36.5921 22.0986 36.5829 22.493 36.2674C22.7992 36.0214 22.9525 35.6362 23.217 35.3485C23.7275 34.7916 24.5581 34.6664 25.3146 34.7081C26.0664 34.7499 26.8275 34.9123 27.57 34.7962C28.9344 34.5781 30.0481 33.3065 30.0852 31.9282C30.1131 31.014 29.7325 30.0487 30.1131 29.218C30.489 28.4059 31.4729 28.0392 31.9276 27.2689C32.2896 26.6562 32.2664 25.9045 32.3777 25.2037C32.6099 23.779 33.4451 22.5446 34.5079 21.5375Z" fill="#FFB799"/>
<path d="M28.1542 60.5199L24.4462 63.8102L20.6826 60.5199L23.003 49.1965H25.8339L28.1542 60.5199Z" fill="#FD6C31"/>
<path d="M22.8873 52.5518C22.8223 53.3872 22.5856 54.2039 22.6088 55.0345C22.6274 55.6332 22.7851 56.2319 22.6738 56.8165C22.5391 57.4987 22.0241 58.0974 21.3698 58.3248C21.2863 58.3527 21.2028 58.3758 21.1191 58.3898L22.6459 50.9414C22.8686 51.424 22.929 52.0088 22.8873 52.5518Z" fill="#FEA987"/>
<path d="M28.1542 60.5198L24.4462 63.8101L22.6641 62.2508C22.8497 61.926 23.1049 61.6243 23.3741 61.3691C24.0144 60.7565 24.7894 60.2321 25.1793 59.4385C25.8522 58.0695 25.1654 56.422 25.4067 54.9137C25.5413 54.0645 25.9728 53.2802 26.5344 52.6212L28.1542 60.5198Z" fill="#E56E3E"/>
<path d="M27.4832 47.9241L25.8358 49.1982C25.7799 49.1982 22.8607 49.1982 23.0048 49.1982L21.3574 47.9241L24.4467 44.4651L27.4832 47.9241Z" fill="#FD6C31"/>
<path d="M20.1407 25.5349C20.1407 25.9053 19.8407 26.2015 19.4703 26.2015C19.1037 26.2015 18.8037 25.9051 18.8037 25.5349C18.8037 25.1646 19.1037 24.8645 19.4703 24.8645C19.8407 24.8645 20.1407 25.1645 20.1407 25.5349ZM30.4371 25.5349C30.4371 25.9053 30.1371 26.2015 29.7667 26.2015C29.4001 26.2015 29.1001 25.9051 29.1001 25.5349C29.1001 25.1646 29.4001 24.8645 29.7667 24.8645C30.1371 24.8645 30.4371 25.1645 30.4371 25.5349Z" fill="#211F1F"/>
<path d="M35.2646 15.9029V20.4839C35.2646 20.9098 34.9193 21.255 34.4934 21.255H34.4864C34.0613 21.255 33.7163 20.9125 33.7153 20.4874C33.7131 19.6194 33.7098 18.3507 33.7101 18.5405C33.7101 17.135 32.5672 16.0064 31.1617 16.0064H30.3348C29.5572 16.0064 28.8569 16.3925 28.3438 16.9769C27.6753 17.7382 26.2542 18.2567 24.6171 18.2567C22.9916 18.2567 21.5861 17.7455 20.9188 16.9932C20.3864 16.411 19.6837 16.0065 18.8958 16.0065H18.0794C16.6739 16.0065 15.5311 17.1352 15.5241 18.5335C15.5239 18.5805 15.5211 19.6998 15.5189 20.4882C15.5178 20.9133 15.1729 21.2552 14.7478 21.2552C14.3219 21.2552 13.9766 20.9099 13.9766 20.484V15.903C13.9766 11.5865 17.1178 7.75403 24.6242 7.75403C32.0226 7.7539 35.2646 11.5045 35.2646 15.9029Z" fill="#604D4D"/>
<path d="M34.2695 21.0963V25.9668C34.2695 26.5161 34.7148 26.9613 35.264 26.9613H35.8499C36.9484 26.9613 37.8389 26.0708 37.8389 24.9723V22.0908C37.8389 20.9923 36.9484 20.1018 35.8499 20.1018H35.264C34.7148 20.1018 34.2695 20.5471 34.2695 21.0963Z" fill="#D66363"/>
<path d="M36.3064 20.5722C36.3668 20.9481 36.5802 21.2821 36.7844 21.6071C36.9887 21.9319 37.1928 22.2707 37.2299 22.6512C37.2578 22.9528 37.1743 23.2544 37.1557 23.5561C37.1371 23.8577 37.1928 24.1966 37.4341 24.3868C37.5547 24.4796 37.6939 24.5213 37.8378 24.5213V22.0897C37.8378 21.1522 37.1927 20.3679 36.3203 20.1637C36.2879 20.2984 36.2833 20.4377 36.3064 20.5722Z" fill="#E49372"/>
<path d="M34.2695 21.0966V25.9648C34.2695 26.5171 34.715 26.9626 35.2627 26.9626H35.852C36.33 26.9626 36.7663 26.7955 37.1097 26.5124C36.7988 26.0809 36.3208 25.7374 35.787 25.7281C35.4947 25.7189 35.1467 25.7931 34.9517 25.575C34.8217 25.4219 34.831 25.1945 34.8588 24.9949C34.9794 24.09 35.3135 23.2269 35.4249 22.3219C35.513 21.5793 35.4528 20.8368 35.2997 20.1036H35.2625C34.715 20.1036 34.2695 20.5491 34.2695 21.0966Z" fill="#B54C4C"/>
<path d="M24.1416 34.9501C24.1416 35.4699 25.0037 35.8926 26.0689 35.8926C27.1381 35.8926 28.0002 35.4699 28.0002 34.9501C28.0002 34.4302 27.1381 34.0076 26.0689 34.0076C25.0039 34.0076 24.1416 34.4302 24.1416 34.9501Z" fill="#604D4D"/>
<path d="M60.92 8.0557C60.92 12.3939 55.5222 15.9174 48.8643 15.9174C47.845 15.9174 46.8537 15.8332 45.9106 15.6767C43.9662 17.1978 41.7478 18.1256 39.553 18.4613C38.7742 18.5804 38.3163 17.6037 38.8997 17.0742C39.8831 16.1816 40.6352 15.1668 41.171 14.1076C38.5062 12.6668 36.8086 10.4877 36.8086 8.05557C36.8086 3.7092 42.2063 0.189697 48.8642 0.189697C55.5222 0.189822 60.92 3.70932 60.92 8.0557Z" fill="#FD6C31"/>
<path d="M43.6908 1.87143C43.4273 4.50606 38.9645 3.47068 39.5332 8.24443C39.6198 8.95968 39.565 9.29768 38.7306 9.60481C38.225 9.78543 37.6912 9.89381 37.1573 9.93793C35.611 5.84156 39.222 2.38456 43.5503 0.992432C43.6628 1.26943 43.719 1.57043 43.6908 1.87143Z" fill="#FEA987"/>
<path d="M60.9199 8.05581C60.9199 12.3941 55.5221 15.9176 48.8642 15.9176C48.3826 15.9176 47.9051 15.8976 47.4395 15.8614C47.1786 15.4121 47.0824 14.8622 47.1947 14.3564C47.4596 13.1364 48.7359 12.4141 49.9519 12.1412C51.5571 11.7841 53.2386 11.9366 54.844 11.6034C56.4532 11.2704 58.1187 10.2349 58.3796 8.61356C58.6084 7.21693 57.7295 5.88456 56.7664 4.85318C55.7991 3.81781 54.6675 2.85856 54.1739 1.53431C54.1016 1.33768 54.0455 1.14106 54.0012 0.940308C58.0905 2.19656 60.9199 4.90943 60.9199 8.05581Z" fill="#E56E3E"/>
<path d="M34.7813 40.6845C34.6988 40.6229 34.5823 40.6394 34.5202 40.7224C34.4586 40.8049 34.4756 40.9219 34.5581 40.9835C40.7681 45.6271 45.009 54.3786 45.6263 63.8223C45.6326 63.9207 45.7147 63.9965 45.8122 63.9965C45.8161 63.9965 45.8205 63.9965 45.8243 63.996C45.9272 63.9893 46.0048 63.9009 45.9981 63.798C45.3743 54.2486 41.0762 45.3918 34.7813 40.6845ZM14.1107 40.6845C7.81596 45.3918 3.51796 54.2486 2.89396 63.798C2.88721 63.9009 2.96509 63.9893 3.06771 63.996C3.07184 63.9965 3.07596 63.9965 3.08009 63.9965C3.17746 63.9965 3.25946 63.9207 3.26571 63.8223C3.88284 54.3786 8.12396 45.6271 14.334 40.9835C14.4165 40.9219 14.4332 40.8049 14.3716 40.7224C14.3102 40.6399 14.1932 40.6239 14.1107 40.6845ZM32.5048 36.8893C32.487 36.8649 32.463 36.8472 32.4365 36.8344C32.4353 36.8337 32.4346 36.8324 32.4335 36.832C31.7151 36.5019 30.9887 36.2245 30.2653 35.9851C31.1803 35.3649 31.9708 34.608 32.6232 33.7541L33.0495 33.626C34.808 33.1716 36.0361 31.5859 36.0361 29.7691V27.1286C37.1471 27.0323 38.0252 26.1076 38.0252 24.972V22.0908C38.0252 20.8914 37.0491 19.9153 35.8497 19.9153H35.4507V15.9026C35.4507 11.8735 32.6063 7.56763 24.6237 7.56763C16.6357 7.56763 13.7897 11.8735 13.7897 15.9026V19.9578C12.1946 20.2404 10.9772 21.6298 10.9772 23.3048C10.9772 25.1808 12.5055 26.7068 14.3838 26.7068C14.4387 26.7068 14.4922 26.7011 14.5465 26.6985V27.6411C14.5465 31.062 16.264 34.0856 18.8782 35.9071C17.4693 36.3563 16.6606 36.7495 16.457 36.8339C16.43 36.847 16.4055 36.8645 16.3873 36.8893L14.9833 38.789C14.6212 39.2783 14.5768 39.9394 14.87 40.4733L18.8603 47.7395C19.3551 48.641 20.5646 48.8825 21.3653 48.166L22.8602 49.3223C22.8945 49.3601 22.9442 49.3844 22.9995 49.3844H25.8356C25.8768 49.3844 25.9168 49.3708 25.9497 49.3455L27.5028 48.1442C28.2992 48.8855 29.5306 48.6521 30.0321 47.7394L34.0225 40.4731C34.3156 39.9393 34.271 39.2781 33.9093 38.7889L32.5048 36.8893ZM32.024 37.0561L30.2448 38.7355C30.068 37.8319 29.9213 37.0034 29.8008 36.2255C30.5407 36.4555 31.2858 36.7286 32.024 37.0561ZM32.9805 33.2558C34.0805 31.6184 34.6938 29.6728 34.6938 27.6411V26.9945C34.8636 27.089 35.056 27.1475 35.2637 27.1475H35.6632V29.7691C35.6632 31.4043 34.5642 32.8313 32.9805 33.2558ZM37.6523 22.0909V24.9721C37.6523 25.9663 36.8437 26.7749 35.8496 26.7749H35.2637C34.8181 26.7749 34.4556 26.4123 34.4556 25.9668V21.0964C34.4556 20.6508 34.8182 20.2883 35.2637 20.2883H35.8496C36.8437 20.2881 37.6523 21.0968 37.6523 22.0909ZM14.1623 15.9028C14.1623 10.9169 18.0731 7.9405 24.6236 7.9405C32.3315 7.9405 35.0778 12.0536 35.0778 15.9028V19.9343C34.5773 20.0143 34.1835 20.4066 34.102 20.9068C33.9827 20.8031 33.9017 20.6581 33.9012 20.4873L33.8968 18.8806C33.8963 18.7505 33.8963 18.651 33.8925 18.5754C33.8948 18.5643 33.8958 18.5526 33.8958 18.5404V18.521C33.8852 17.0304 32.6625 15.8204 31.161 15.8204H30.3341C29.5453 15.8204 28.7883 16.1874 28.203 16.8543C26.7893 18.4635 22.481 18.4763 21.0557 16.8674C20.4381 16.1923 19.6707 15.8204 18.895 15.8204H18.0786C16.5743 15.8204 15.3445 17.0373 15.3368 18.5328C15.3366 18.5799 15.3337 19.6996 15.3317 20.4879C15.3307 20.8083 15.0683 21.0689 14.7468 21.0689C14.4246 21.0689 14.1622 20.8063 14.1622 20.484L14.1623 15.9028ZM14.9191 27.6413V24.4858C14.9191 24.3829 14.8356 24.2994 14.7327 24.2994C14.6298 24.2994 14.5463 24.3829 14.5463 24.4858V26.3244C14.5442 26.3265 14.543 26.3279 14.5408 26.3301C12.797 26.4184 11.3498 25.027 11.3498 23.3049C11.3498 21.8371 12.4023 20.6213 13.7896 20.3429V20.4298C13.7896 20.9063 14.1133 21.3493 14.5833 21.4278C15.1817 21.5276 15.7031 21.0674 15.7047 20.4886C15.7067 19.7004 15.7096 18.5815 15.7098 18.5345C15.7163 17.2434 16.7791 16.193 18.0787 16.193H18.8951C19.565 16.193 20.2345 16.5216 20.7786 17.1166C22.355 18.8956 26.9205 18.8801 28.4831 17.0996C28.9968 16.5153 29.6541 16.1929 30.3341 16.1929H31.161C32.4598 16.1929 33.5172 17.2404 33.5231 18.5295V18.5421L33.5285 20.488C33.5292 20.868 33.7563 21.192 34.0827 21.3445V25.9666C34.0827 26.2314 34.1733 26.4735 34.3211 26.6706V27.6411C34.3211 29.7596 33.6287 31.7803 32.3982 33.4324L28.1397 34.7131C27.9406 34.1976 27.1025 33.821 26.0678 33.821C24.8826 33.821 23.9542 34.3171 23.9542 34.95C23.9542 35.583 24.8825 36.0785 26.0678 36.0785C27.1608 36.0785 28.0263 35.6571 28.1588 35.0968L31.9891 33.9448C31.4278 34.6006 30.7781 35.1893 30.0438 35.6854C29.9636 35.7398 29.943 35.8145 29.9253 35.8949C29.9141 35.9463 29.6991 36.104 29.5546 36.2029C29.4781 36.2553 29.4391 36.3438 29.4538 36.4353C29.5832 37.2395 29.7391 38.0943 29.9256 39.0366L24.4445 44.207C19.4482 39.4926 22.738 42.5964 19.2063 39.2634C19.4062 38.2681 19.5728 37.3219 19.7118 36.4301C21.1656 37.2451 22.8378 37.7148 24.6198 37.7148C24.7227 37.7148 24.8062 37.6313 24.8062 37.5284C24.8062 37.4255 24.7227 37.342 24.6198 37.342C19.2708 37.3421 14.9191 32.9901 14.9191 27.6413ZM27.8131 34.9501C27.8131 35.3074 27.0965 35.7059 26.0678 35.7059C25.042 35.7059 24.327 35.3074 24.327 34.9501C24.327 34.5924 25.042 34.1939 26.0678 34.1939C27.0965 34.194 27.8131 34.5925 27.8131 34.9501ZM19.3692 36.2219C19.2338 37.081 19.0721 37.9974 18.8838 38.959L16.8692 37.0573C17.6748 36.7024 18.4816 36.4065 19.277 36.1658C19.3073 36.1849 19.3385 36.203 19.3692 36.2219ZM19.1868 47.56L15.1965 40.2938C14.9732 39.887 15.0072 39.3831 15.2828 39.0104L16.5616 37.2806C16.9425 37.6455 24.0707 44.3678 24.1861 44.4765L21.2185 47.7994C20.6387 48.4384 19.6033 48.3175 19.1868 47.56ZM25.7718 49.0117H23.068L21.6306 47.8997L24.446 44.7928C24.4903 44.8426 27.397 48.1055 27.212 47.8978L25.7718 49.0117ZM33.695 40.2938L29.7051 47.56C29.2877 48.3201 28.251 48.4364 27.6728 47.7988C27.628 47.7485 24.5066 44.2555 24.7048 44.4774C28.2138 41.1658 26.7871 42.5131 30.255 39.2418C30.2566 39.2403 30.2568 39.2381 30.2583 39.2365L32.3307 37.281L33.6092 39.0103C33.8848 39.3831 33.9187 39.887 33.695 40.2938ZM25.9863 49.9423C25.8853 49.9626 25.8203 50.0611 25.8412 50.1621L27.9497 60.4518L24.445 63.5616L20.8866 60.4508L22.9948 50.162C23.0157 50.061 22.9507 49.9625 22.8497 49.9421C22.748 49.9184 22.6505 49.9862 22.6298 50.0872L20.4997 60.4823C20.4861 60.5478 20.509 60.6157 20.5597 60.6599L24.3233 63.9502C24.3583 63.9809 24.4022 63.9964 24.4458 63.9964C24.49 63.9964 24.5342 63.9809 24.5696 63.9492L28.2775 60.6589C28.3272 60.6147 28.3496 60.5473 28.3362 60.4823L26.2061 50.0872C26.1858 49.9864 26.0876 49.9185 25.9863 49.9423Z" fill="#4C4C4C"/>
<path d="M24.7621 31.1919C24.7899 31.1929 24.8174 31.1939 24.8446 31.1939C25.2586 31.1939 25.5797 31.0385 25.7539 30.7527C26.0374 30.2872 25.9037 29.529 25.3771 28.6184C25.3256 28.5292 25.2118 28.4985 25.1224 28.5504C25.0332 28.6019 25.0028 28.7159 25.0542 28.8048C25.5029 29.5809 25.6417 30.2197 25.4354 30.5585C25.2924 30.7934 25.0001 30.8352 24.7799 30.8192C24.6824 30.822 24.5897 30.8939 24.5848 30.9968C24.5799 31.0997 24.6594 31.1865 24.7621 31.1919ZM27.8052 31.5574C27.8697 31.4773 27.8567 31.3599 27.7763 31.2953C27.6962 31.2322 27.5791 31.2438 27.5144 31.3244C26.8069 32.2073 25.7522 32.714 24.6211 32.714C23.4897 32.714 22.4349 32.2073 21.7274 31.3244C21.6633 31.2438 21.5454 31.2322 21.4656 31.2953C21.3852 31.3598 21.3722 31.4773 21.4367 31.5574C22.2152 32.5292 23.3758 33.0869 24.6211 33.0869C25.8661 33.0868 27.0267 32.5292 27.8052 31.5574ZM20.4026 24.0509H18.5428C18.4399 24.0509 18.3564 24.1344 18.3564 24.2373C18.3564 24.3402 18.4399 24.4237 18.5428 24.4237H20.4026C20.5054 24.4237 20.5889 24.3402 20.5889 24.2373C20.5889 24.1344 20.5056 24.0509 20.4026 24.0509ZM28.8393 24.4237H30.6991C30.8019 24.4237 30.8854 24.3402 30.8854 24.2373C30.8854 24.1344 30.8019 24.0509 30.6991 24.0509H28.8393C28.7364 24.0509 28.6529 24.1344 28.6529 24.2373C28.6529 24.3402 28.7364 24.4237 28.8393 24.4237ZM48.8646 0.00354004C42.1143 0.00354004 36.6222 3.61579 36.6222 8.05604C36.6222 10.4277 38.1866 12.6532 40.9222 14.1835C40.3791 15.2097 39.6573 16.1348 38.7743 16.9367C38.0566 17.5878 38.6141 18.7894 39.5811 18.6462C41.8619 18.2972 44.0656 17.339 45.9604 15.8742C46.9093 16.027 47.8859 16.1043 48.8644 16.1043C55.6147 16.1043 61.1063 12.494 61.1063 8.05616C61.1064 3.61566 55.6148 0.00354004 48.8646 0.00354004ZM48.8646 15.7314C47.8787 15.7314 46.8948 15.6513 45.9411 15.493C45.8892 15.4853 45.8362 15.4974 45.7954 15.5304C43.9364 16.9842 41.7682 17.934 39.5248 18.2772C38.9296 18.3727 38.5793 17.617 39.0248 17.2123C39.9873 16.3385 40.7654 15.3227 41.3377 14.1918C41.3833 14.102 41.3488 13.9918 41.2601 13.9438C38.5497 12.4784 36.9949 10.3325 36.9949 8.05604C36.9949 3.82154 42.3196 0.37629 48.8646 0.37629C55.4089 0.37629 60.7337 3.82154 60.7337 8.05604C60.7337 12.288 55.4091 15.7314 48.8646 15.7314Z" fill="#4C4C4C"/>
<path d="M56.03 5.32043H41.6971C41.5942 5.32043 41.5107 5.40393 41.5107 5.50681C41.5107 5.60968 41.5942 5.69318 41.6971 5.69318H56.03C56.1329 5.69318 56.2164 5.60968 56.2164 5.50681C56.2164 5.40393 56.1329 5.32043 56.03 5.32043ZM56.03 7.86818H41.6971C41.5942 7.86818 41.5107 7.95168 41.5107 8.05456C41.5107 8.15743 41.5942 8.24093 41.6971 8.24093H56.03C56.1329 8.24093 56.2164 8.15743 56.2164 8.05456C56.2164 7.95168 56.1329 7.86818 56.03 7.86818ZM51.248 10.4159H41.6971C41.5942 10.4159 41.5107 10.4994 41.5107 10.6023C41.5107 10.7052 41.5942 10.7887 41.6971 10.7887H51.248C51.3509 10.7887 51.4344 10.7052 51.4344 10.6023C51.4344 10.4994 51.3509 10.4159 51.248 10.4159Z" fill="#4C4C4C"/>
</svg>
