<svg width="64" height="64" viewBox="0 0 64 64" fill="none" xmlns="http://www.w3.org/2000/svg">
<g clip-path="url(#clip0_135_1510)">
<path d="M54.4902 54.49C66.9111 42.0686 66.9107 21.93 54.4894 9.50914C42.0681 -2.91176 21.9295 -2.9114 9.50858 9.50993C-2.91232 21.9313 -2.91197 42.0699 9.50936 54.4908C21.9307 66.9117 42.0693 66.9113 54.4902 54.49Z" fill="#FD7C48"/>
<path d="M23.1308 7.01542C21.5113 9.42029 18.3541 10.0909 15.7692 11.3997C10.4034 14.1153 7.19706 20.528 8.26031 26.45C8.71844 29.0512 9.91256 31.7013 9.17644 34.2369C8.57119 36.2654 6.83706 37.754 4.95594 38.752C3.77806 39.3737 2.51844 39.8153 1.22606 40.0772C0.555313 37.4923 0.195312 34.793 0.195312 31.9958C0.195312 17.289 10.1581 4.92155 23.7196 1.28979C24.3413 3.18742 24.2432 5.37955 23.1308 7.01542Z" fill="#FF8F61"/>
<path d="M63.7986 31.9957C63.7986 49.5653 49.5662 63.8141 31.9966 63.8141C29.821 63.8141 27.6942 63.6014 25.6329 63.1761C25.453 60.0188 26.3364 56.8287 28.8065 54.9474C31.8984 52.5753 36.2172 53.1152 40.0779 52.5427C48.6664 51.2831 55.7499 43.2834 55.9625 34.6132C56.077 30.1472 54.5882 25.8284 53.6067 21.4606C52.6251 17.0272 52.1507 12.3649 52.7234 7.88257C59.5125 13.7062 63.7986 22.3438 63.7986 31.9957Z" fill="#FD6C31"/>
<path d="M22.3022 22.0529C22.3022 23.6344 21.0059 24.9305 19.4116 24.9305C17.8172 24.9305 16.5339 23.6342 16.5339 22.0529C16.5339 20.4585 17.8172 19.1622 19.4116 19.1622C21.0059 19.1624 22.3022 20.4586 22.3022 22.0529ZM47.4671 22.0529C47.4671 23.6344 46.1708 24.9305 44.5764 24.9305C42.9821 24.9305 41.6988 23.6342 41.6988 22.0529C41.6988 20.4585 42.9821 19.1622 44.5764 19.1622C46.1708 19.1622 47.4671 20.4586 47.4671 22.0529ZM32.0004 52.1676C24.9342 52.1676 18.5553 48.3464 15.2011 42.2681C14.6302 41.2337 15.1013 39.9295 16.1936 39.4792C17.1331 39.092 18.2029 39.4817 18.6958 40.3702C21.3597 45.1732 26.4086 48.1912 32.0004 48.1912C37.5922 48.1912 42.6407 45.1732 45.3046 40.3702C45.7974 39.4816 46.8673 39.092 47.8068 39.4792H47.8069C48.8992 39.9295 49.3703 41.2336 48.7996 42.268C45.4457 48.3464 39.0672 52.1676 32.0004 52.1676Z" fill="#726262"/>
<path d="M32.0004 0.00732422C14.3596 0.00732422 0.0078125 14.3591 0.0078125 31.9999C0.0078125 49.6408 14.3596 63.9926 32.0004 63.9926C49.6413 63.9926 63.9931 49.6408 63.9931 31.9999C63.9931 14.3591 49.6413 0.00732422 32.0004 0.00732422ZM32.0004 63.6198C14.5649 63.6198 0.380562 49.4354 0.380562 31.9999C0.380562 14.5644 14.5649 0.380074 32.0004 0.380074C49.4359 0.380074 63.6203 14.5644 63.6203 31.9999C63.6203 49.4354 49.4359 63.6198 32.0004 63.6198Z" fill="#211F1F"/>
<path d="M19.4108 25.1167C21.1077 25.1167 22.4882 23.7421 22.4882 22.0529C22.4882 20.3566 21.1078 18.9761 19.4108 18.9761C17.7217 18.9761 16.3471 20.3564 16.3471 22.0529C16.3471 23.7421 17.7216 25.1167 19.4108 25.1167ZM19.4108 19.3488C20.9019 19.3488 22.1154 20.5618 22.1154 22.0529C22.1154 23.5368 20.9019 24.7439 19.4108 24.7439C17.9269 24.7439 16.7198 23.5368 16.7198 22.0529C16.7198 20.5618 17.9269 19.3488 19.4108 19.3488ZM44.5761 25.1167C46.2724 25.1167 47.6529 23.7421 47.6529 22.0529C47.6529 20.3566 46.2726 18.9761 44.5761 18.9761C42.8864 18.9761 41.5118 20.3564 41.5118 22.0529C41.5118 23.7421 42.8864 25.1167 44.5761 25.1167ZM44.5761 19.3488C46.0672 19.3488 47.2802 20.5618 47.2802 22.0529C47.2802 23.5368 46.0672 24.7439 44.5761 24.7439C43.0918 24.7439 41.8846 23.5368 41.8846 22.0529C41.8846 20.5618 43.0917 19.3488 44.5761 19.3488ZM47.8771 39.3069C46.8592 38.8871 45.6817 39.3049 45.1409 40.2802C39.4377 50.5648 24.5624 50.5663 18.8583 40.2802C18.3176 39.3046 17.1411 38.8862 16.1222 39.3069C14.9237 39.8009 14.4151 41.2297 15.0373 42.3586C22.3818 55.6667 41.6184 55.6683 48.9618 42.3586C49.5852 41.2279 49.0736 39.8001 47.8771 39.3069ZM48.6358 42.1779C41.4336 55.2308 22.5684 55.2316 15.3637 42.1779C14.8493 41.2456 15.2707 40.0616 16.2641 39.6516C17.1108 39.3025 18.0852 39.6536 18.5323 40.4607C24.3784 51.0016 39.6207 51.0024 45.4673 40.4607C45.9163 39.6511 46.8919 39.3031 47.7356 39.6516C48.7277 40.0612 49.1507 41.2444 48.6358 42.1779Z" fill="#211F1F"/>
</g>
<defs>
<clipPath id="clip0_135_1510">
<rect width="64" height="64" fill="white"/>
</clipPath>
</defs>
</svg>
