<svg width="64" height="64" viewBox="0 0 64 64" fill="none" xmlns="http://www.w3.org/2000/svg">
<path d="M54.7847 5.89511L18.2045 0.216855C16.9284 0.0187303 15.7334 0.89273 15.5352 2.16873L7.59149 53.344C7.39336 54.6201 8.26736 55.8151 9.54336 56.0132L46.1236 61.6915C47.3997 61.8896 48.5947 61.0157 48.7929 59.7396L56.7366 8.56435C56.9347 7.28823 56.0609 6.09311 54.7847 5.89511Z" fill="#FD7C48"/>
<path d="M23.1029 0.979118C22.7948 1.56562 22.2928 2.06762 21.7659 2.48512C20.9408 3.13124 20.0014 3.64812 19.2957 4.42849C18.1674 5.67112 17.7847 7.42562 17.72 9.10549C17.6504 10.7855 17.8493 12.4704 17.6902 14.1454C17.4963 16.1335 16.7408 18.1415 15.2298 19.4537C14.514 20.08 13.5995 20.5075 12.6602 20.6715L15.533 2.16699C15.7319 0.894618 16.9297 0.0197428 18.207 0.218618L23.1029 0.979118Z" fill="#FF8F61"/>
<path d="M56.7369 8.56388L48.7943 59.7385C48.5954 61.0159 47.3977 61.8906 46.1252 61.6917L34.6387 59.9074C35.2749 59.7632 35.9309 59.6737 36.5672 59.6291C38.8535 59.4551 41.2989 59.5645 43.2672 58.3865C45.9263 56.8059 46.8707 53.3665 46.7713 50.2749C46.5874 44.4496 43.5754 38.6344 45.1062 33.0129C45.8915 30.135 47.7802 27.7095 49.0477 25.0155C51.8858 18.9816 51.3639 11.4913 47.7157 5.9145C47.4473 5.50688 47.1639 5.09438 46.8907 4.67188L54.7836 5.8945C56.0611 6.09362 56.9358 7.2865 56.7369 8.56388Z" fill="#F77F4E"/>
<path d="M46.591 7.3446H9.57263C8.28125 7.3446 7.23438 8.39148 7.23438 9.68285V61.471C7.23438 62.7624 8.28125 63.8092 9.57263 63.8092H46.591C47.8824 63.8092 48.9292 62.7624 48.9292 61.471V9.68285C48.9292 8.39148 47.8824 7.3446 46.591 7.3446Z" fill="#FFDDCF"/>
<path d="M13.3905 9.22482C12.8835 11.3074 11.5168 13.0718 10.7613 15.0799C9.45405 18.5492 10.0654 22.4062 10.4582 26.0942C10.6322 27.6847 10.7514 29.3398 10.2345 30.8557C9.7623 32.2324 8.63405 33.4851 7.23242 33.7534V9.68207C7.23242 8.38982 8.28117 7.34595 9.57342 7.34595H13.5C13.5744 7.97732 13.5347 8.62345 13.3905 9.22482Z" fill="#FFEDE6"/>
<path d="M48.9287 9.68207V61.4731C48.9287 62.7603 47.8849 63.8091 46.5925 63.8091H24.2609C24.1963 62.9741 24.3753 62.1043 24.7928 61.3836C25.762 59.7136 27.6607 58.7791 29.5544 58.4013C31.4432 58.0236 33.3964 58.1081 35.32 57.9639C37.2435 57.8198 39.2367 57.4073 40.7427 56.1994C43.695 53.8336 43.7597 49.2857 42.5022 45.7219C41.5777 43.1026 40.0717 40.5826 40.0618 37.8042C40.0568 33.8578 43.029 30.5872 44.2418 26.8347C45.8423 21.8743 44.2717 16.5362 43.2229 11.4316C42.9495 10.1094 42.7259 8.7277 42.6065 7.34595H46.5928C47.8849 7.34607 48.9287 8.38982 48.9287 9.68207Z" fill="#FFB799"/>
<path d="M44.5174 54.4993C44.5174 57.3335 42.2209 59.63 39.3866 59.63C36.5524 59.63 34.2559 57.3335 34.2559 54.4993C34.2559 51.665 36.5524 49.3687 39.3866 49.3687C42.2209 49.3687 44.5174 51.665 44.5174 54.4993Z" fill="#FD6C31"/>
<path d="M39.1317 51.0205C38.8186 51.597 38.2917 52.0345 37.7251 52.3724C37.3225 52.611 36.8652 52.8296 36.6466 53.2471C36.3831 53.7391 36.5472 54.3455 36.4975 54.9022C36.428 55.7224 35.8514 56.4779 35.076 56.7562C34.9915 56.786 34.907 56.8109 34.8175 56.8307C34.4596 56.135 34.2559 55.3396 34.2559 54.4997C34.2559 51.6865 36.5174 49.4051 39.3206 49.3704C39.4995 49.9071 39.4051 50.5235 39.1317 51.0205Z" fill="#FEA987"/>
<path d="M44.515 54.4998C44.515 57.3329 42.2188 59.6292 39.3856 59.6292C38.6153 59.6292 37.8846 59.4602 37.2285 59.152C37.2831 58.655 37.5218 58.1778 37.9244 57.8697C38.8041 57.1937 40.0914 57.4173 41.1004 56.955C42.0945 56.4928 42.7059 55.3148 42.502 54.2363C42.3181 53.277 41.5875 52.4668 41.5328 51.4927C41.5029 50.9807 41.6769 50.4887 41.9651 50.0662C43.4911 50.9559 44.515 52.606 44.515 54.4998Z" fill="#E56E3E"/>
<path d="M56.4642 6.71459C56.0662 6.17096 55.4793 5.81446 54.8122 5.71059L18.2355 0.034464C16.8599 -0.178661 15.5637 0.763964 15.3487 2.13834L14.6975 6.32334C14.6818 6.42509 14.7514 6.52046 14.8532 6.53621C14.9573 6.55171 15.0503 6.48234 15.066 6.38059L15.7172 2.19584C15.9002 1.02459 17.0044 0.219589 18.1783 0.402839L54.7549 6.07896C55.3238 6.16759 55.8242 6.47134 56.1635 6.93496C56.503 7.39846 56.6414 7.96684 56.5528 8.53534L49.7385 52.4383C49.7228 52.5401 49.7924 52.6355 49.8942 52.6512C49.9982 52.6668 50.0914 52.5957 50.107 52.4956L56.9212 8.59246C57.0248 7.92559 56.8627 7.25871 56.4642 6.71459Z" fill="#4C4C4C"/>
<path d="M46.5906 7.1582H9.57235C8.18023 7.1582 7.04785 8.29083 7.04785 9.68295V61.4708C7.04785 62.863 8.18023 63.9956 9.57235 63.9956H46.5907C47.9829 63.9956 49.1155 62.863 49.1155 61.4708V9.68295C49.1154 8.29083 47.9827 7.1582 46.5906 7.1582ZM48.7426 61.4708C48.7426 62.6573 47.7772 63.6228 46.5906 63.6228H9.57235C8.38585 63.6228 7.4206 62.6575 7.4206 61.4708V9.68295C7.4206 8.49645 8.38585 7.53095 9.57235 7.53095H46.5907C47.7772 7.53095 48.7427 8.49633 48.7427 9.68295V61.4708H48.7426Z" fill="#4C4C4C"/>
<path d="M44.5166 20.2087H11.6463C11.5435 20.2087 11.46 20.2922 11.46 20.3951C11.46 20.498 11.5435 20.5815 11.6463 20.5815H44.5166C44.6195 20.5815 44.703 20.498 44.703 20.3951C44.703 20.2922 44.6195 20.2087 44.5166 20.2087ZM44.5166 26.0164H11.6463C11.5435 26.0164 11.46 26.0999 11.46 26.2027C11.46 26.3056 11.5435 26.3891 11.6463 26.3891H44.5166C44.6195 26.3891 44.703 26.3056 44.703 26.2027C44.703 26.0999 44.6195 26.0164 44.5166 26.0164ZM44.5166 31.8237H11.6463C11.5435 31.8237 11.46 31.9072 11.46 32.0101C11.46 32.113 11.5435 32.1965 11.6463 32.1965H44.5166C44.6195 32.1965 44.703 32.113 44.703 32.0101C44.703 31.9072 44.6195 31.8237 44.5166 31.8237ZM44.5166 37.6311H11.6463C11.5435 37.6311 11.46 37.7146 11.46 37.8175C11.46 37.9204 11.5435 38.0039 11.6463 38.0039H44.5166C44.6195 38.0039 44.703 37.9204 44.703 37.8175C44.703 37.7146 44.6195 37.6311 44.5166 37.6311ZM44.5166 43.4387H11.6463C11.5435 43.4387 11.46 43.5222 11.46 43.6251C11.46 43.728 11.5435 43.8115 11.6463 43.8115H44.5166C44.6195 43.8115 44.703 43.728 44.703 43.6251C44.703 43.5222 44.6195 43.4387 44.5166 43.4387ZM25.1878 49.2461H11.6463C11.5435 49.2461 11.46 49.3296 11.46 49.4325C11.46 49.5354 11.5435 49.6189 11.6463 49.6189H25.1878C25.2907 49.6189 25.3742 49.5354 25.3742 49.4325C25.3742 49.3296 25.2907 49.2461 25.1878 49.2461ZM39.3858 49.1821C36.4541 49.1821 34.069 51.5672 34.069 54.4992C34.069 57.4312 36.4541 59.8164 39.3858 59.8164C42.3178 59.8164 44.703 57.4312 44.703 54.4992C44.703 51.5672 42.3178 49.1821 39.3858 49.1821ZM39.3858 59.4436C36.6597 59.4436 34.4417 57.2256 34.4417 54.4992C34.4417 51.7729 36.6597 49.5549 39.3858 49.5549C42.1122 49.5549 44.3302 51.7729 44.3302 54.4992C44.3302 57.2256 42.1122 59.4436 39.3858 59.4436Z" fill="#4C4C4C"/>
<path d="M19.5107 15.8784C19.4586 15.8262 19.4326 15.7621 19.4326 15.6856V12.0039C19.4326 11.9279 19.4586 11.8626 19.5107 11.8085C19.5626 11.7544 19.627 11.7272 19.7032 11.7272H22.0435C22.1159 11.7272 22.1767 11.7522 22.227 11.8025C22.2772 11.8527 22.3022 11.9136 22.3022 11.986C22.3022 12.0581 22.2772 12.1182 22.227 12.1666C22.1767 12.2146 22.1159 12.2387 22.0435 12.2387H19.9799V13.5685H21.8331C21.9052 13.5685 21.9664 13.5935 22.0166 13.6435C22.0666 13.6937 22.0916 13.7549 22.0916 13.8272C22.0916 13.8994 22.0666 13.9595 22.0166 14.0076C21.9664 14.0559 21.9052 14.08 21.8331 14.08H19.9799V15.6861C19.9799 15.7626 19.9529 15.8266 19.8989 15.8789C19.8447 15.9307 19.7795 15.957 19.7032 15.957C19.627 15.9566 19.5626 15.9304 19.5107 15.8784ZM23.7219 15.71C23.4051 15.5255 23.1602 15.2707 22.988 14.9457C22.8155 14.621 22.7251 14.248 22.7171 13.827C22.7251 13.4056 22.8154 13.0326 22.988 12.708C23.1602 12.383 23.4051 12.1285 23.7219 11.9437C24.0389 11.7592 24.4077 11.6671 24.8287 11.6671C25.2501 11.6671 25.618 11.7594 25.9327 11.9437C26.2477 12.1285 26.4924 12.384 26.6669 12.7109C26.8414 13.0377 26.9324 13.4099 26.9406 13.827C26.9324 14.244 26.8414 14.616 26.6669 14.9429C26.4924 15.2697 26.2477 15.5256 25.9327 15.71C25.618 15.8945 25.25 15.9866 24.8287 15.9866C24.4077 15.9866 24.0389 15.8945 23.7219 15.71ZM25.6651 15.2586C25.9017 15.1142 26.0824 14.9179 26.2066 14.6691C26.3309 14.4206 26.3932 14.1399 26.3932 13.827C26.3932 13.5139 26.3309 13.2334 26.2066 12.9846C26.0824 12.7359 25.9017 12.5395 25.6651 12.3951C25.4285 12.2507 25.1496 12.1784 24.8287 12.1784C24.504 12.1784 24.2242 12.2507 23.9895 12.3951C23.755 12.5395 23.5755 12.7359 23.4512 12.9846C23.3267 13.2334 23.2646 13.5139 23.2646 13.827C23.2646 14.1399 23.3267 14.4206 23.4512 14.6691C23.5755 14.9179 23.7551 15.1142 23.9895 15.2586C24.2241 15.403 24.504 15.4754 24.8287 15.4754C25.1496 15.4752 25.4285 15.403 25.6651 15.2586ZM27.9336 15.8784C27.8815 15.8262 27.8555 15.7621 27.8555 15.6856V12.0039C27.8555 11.9279 27.8815 11.8626 27.9336 11.8085C27.9855 11.7544 28.0499 11.7272 28.1261 11.7272H29.5279C30.0732 11.7272 30.4824 11.8396 30.7551 12.0641C31.0279 12.2889 31.1642 12.5837 31.1642 12.9485C31.1642 13.1892 31.097 13.4089 30.9626 13.6074C30.8282 13.8059 30.6327 13.9494 30.376 14.0374C30.6647 14.1136 30.8624 14.2931 30.9686 14.5759C31.0749 14.8586 31.1281 15.1362 31.1281 15.409V15.6856C31.1281 15.7621 31.1019 15.8261 31.05 15.8784C30.9979 15.9302 30.9335 15.9565 30.8572 15.9565C30.773 15.9565 30.7057 15.9315 30.6559 15.8812C30.6056 15.8312 30.5806 15.766 30.5806 15.6856V15.5052C30.5806 15.3047 30.5626 15.1191 30.5265 14.9487C30.4904 14.7781 30.4041 14.626 30.2677 14.4915C30.1314 14.357 29.9249 14.2899 29.6481 14.2899H28.4026V15.6856C28.4026 15.7621 28.3756 15.8261 28.3216 15.8784C28.2675 15.9302 28.2022 15.9565 28.126 15.9565C28.0499 15.9566 27.9855 15.9304 27.9336 15.8784ZM29.4916 13.7726C29.8365 13.7726 30.1102 13.7046 30.3129 13.5682C30.5152 13.4319 30.6167 13.2394 30.6167 12.9906C30.6167 12.7499 30.5294 12.5654 30.3551 12.437C30.1806 12.3086 29.8829 12.2445 29.4615 12.2445H28.4026V13.7725L29.4916 13.7726ZM32.2171 15.8784C32.165 15.8262 32.139 15.7621 32.139 15.6856V12.0941C32.139 11.9859 32.1769 11.8927 32.2532 11.8142C32.3292 11.7361 32.4216 11.697 32.5299 11.697H32.7284C32.8085 11.697 32.8817 11.721 32.948 11.7694C33.014 11.8174 33.0632 11.8776 33.0952 11.9497L34.4609 15.355L35.8265 11.9497C35.8587 11.8776 35.9077 11.8175 35.974 11.7694C36.04 11.7211 36.1132 11.697 36.1936 11.697H36.3921C36.5004 11.697 36.5926 11.7361 36.6687 11.8142C36.745 11.8926 36.783 11.9859 36.783 12.0941V15.6857C36.783 15.7622 36.7567 15.8262 36.7049 15.8785C36.6527 15.9304 36.5884 15.9566 36.5121 15.9566C36.4359 15.9566 36.3709 15.9304 36.3167 15.8785C36.2626 15.8264 36.2355 15.7622 36.2355 15.6857V12.2686L34.8459 15.7039C34.8136 15.7801 34.7626 15.8412 34.6925 15.8874C34.6221 15.9335 34.545 15.9565 34.4607 15.9565C34.3765 15.9565 34.2994 15.9335 34.2292 15.8874C34.1591 15.8412 34.1079 15.7801 34.0759 15.7039L32.686 12.2686V15.6857C32.686 15.7622 32.659 15.8262 32.605 15.8785C32.5509 15.9304 32.4856 15.9566 32.4094 15.9566C32.3334 15.9566 32.269 15.9304 32.2171 15.8784Z" fill="#4C4C4C"/>
</svg>
