<svg width="55" height="55" viewBox="0 0 55 55" fill="none" xmlns="http://www.w3.org/2000/svg">
<g clip-path="url(#clip0_815_159)">
<g clip-path="url(#clip1_815_159)">
<path d="M41.3743 33.8302C41.5714 34.1373 41.8555 34.3757 42.1833 34.5315C43.4499 35.1388 44.519 36.0919 45.2672 37.2808C46.0153 38.4697 46.412 39.8459 46.4114 41.2507V45.834C46.4114 46.2898 46.5925 46.727 46.9148 47.0493C47.2371 47.3717 47.6743 47.5527 48.1301 47.5527C48.586 47.5527 49.0231 47.3717 49.3455 47.0493C49.6678 46.727 49.8489 46.2898 49.8489 45.834V41.2507C49.8489 38.3637 48.702 35.5949 46.6606 33.5535C44.6192 31.5121 41.8505 30.3652 38.9635 30.3652C38.7137 30.3652 38.6014 30.6861 38.7893 30.8488C39.7891 31.7138 40.6597 32.7179 41.3743 33.8302Z" fill="white"/>
<path fill-rule="evenodd" clip-rule="evenodd" d="M16.0417 33.8027C14.0664 33.8027 12.1719 34.5874 10.7752 35.9842C9.37844 37.3809 8.59375 39.2753 8.59375 41.2507V45.834C8.59375 46.2898 8.41267 46.727 8.09034 47.0493C7.76801 47.3717 7.33084 47.5527 6.875 47.5527C6.41916 47.5527 5.98199 47.3717 5.65966 47.0493C5.33733 46.727 5.15625 46.2898 5.15625 45.834V41.2507C5.15625 38.3637 6.3031 35.5949 8.34451 33.5535C10.3859 31.5121 13.1547 30.3652 16.0417 30.3652H29.7917C32.6787 30.3652 35.4474 31.5121 37.4888 33.5535C39.5302 35.5949 40.6771 38.3637 40.6771 41.2507V45.834C40.6771 46.2898 40.496 46.727 40.1737 47.0493C39.8513 47.3717 39.4142 47.5527 38.9583 47.5527C38.5025 47.5527 38.0653 47.3717 37.743 47.0493C37.4207 46.727 37.2396 46.2898 37.2396 45.834V41.2507C37.2396 39.2753 36.4549 37.3809 35.0581 35.9842C33.6614 34.5874 31.767 33.8027 29.7917 33.8027H16.0417Z" fill="white"/>
<path d="M34.076 21.9015C34.2823 21.5142 34.6031 21.2048 34.9835 20.9848C35.8464 20.48 36.5621 19.7581 37.0595 18.8909C37.5569 18.0237 37.8186 17.0414 37.8186 16.0417C37.8186 15.042 37.5569 14.0597 37.0595 13.1925C36.5621 12.3253 35.8464 11.6034 34.9835 11.0985C34.6018 10.8832 34.2875 10.5658 34.076 10.1819C33.5088 9.10387 32.7886 8.11355 31.9379 7.24167C31.8073 7.10417 31.8921 6.875 32.0823 6.875C34.5134 6.875 36.845 7.84077 38.5641 9.55985C40.2832 11.2789 41.2489 13.6105 41.2489 16.0417C41.2489 18.4728 40.2832 20.8044 38.5641 22.5235C36.845 24.2426 34.5134 25.2083 32.0823 25.2083C31.8921 25.2083 31.8073 24.9792 31.9379 24.8417C32.7858 23.9754 33.5077 22.9854 34.076 21.9015Z" fill="white"/>
<path fill-rule="evenodd" clip-rule="evenodd" d="M22.9167 21.7708C24.4361 21.7708 25.8934 21.1672 26.9678 20.0928C28.0422 19.0184 28.6458 17.5611 28.6458 16.0417C28.6458 14.5222 28.0422 13.065 26.9678 11.9905C25.8934 10.9161 24.4361 10.3125 22.9167 10.3125C21.3972 10.3125 19.94 10.9161 18.8655 11.9905C17.7911 13.065 17.1875 14.5222 17.1875 16.0417C17.1875 17.5611 17.7911 19.0184 18.8655 20.0928C19.94 21.1672 21.3972 21.7708 22.9167 21.7708ZM22.9167 25.2083C25.3478 25.2083 27.6794 24.2426 29.3985 22.5235C31.1176 20.8044 32.0833 18.4728 32.0833 16.0417C32.0833 13.6105 31.1176 11.2789 29.3985 9.55985C27.6794 7.84077 25.3478 6.875 22.9167 6.875C20.4855 6.875 18.1539 7.84077 16.4349 9.55985C14.7158 11.2789 13.75 13.6105 13.75 16.0417C13.75 18.4728 14.7158 20.8044 16.4349 22.5235C18.1539 24.2426 20.4855 25.2083 22.9167 25.2083Z" fill="white"/>
</g>
</g>
<defs>
<clipPath id="clip0_815_159">
<rect width="55" height="55" fill="white"/>
</clipPath>
<clipPath id="clip1_815_159">
<rect width="55" height="55" fill="white"/>
</clipPath>
</defs>
</svg>
