<svg width="55" height="55" viewBox="0 0 55 55" fill="none" xmlns="http://www.w3.org/2000/svg">
<g clip-path="url(#clip0_815_173)">
<g clip-path="url(#clip1_815_173)">
<g clip-path="url(#clip2_815_173)">
<mask id="mask0_815_173" style="mask-type:luminance" maskUnits="userSpaceOnUse" x="0" y="0" width="55" height="55">
<path d="M55 0H0V55H55V0Z" fill="white"/>
</mask>
<g mask="url(#mask0_815_173)">
<path d="M27.5 41.25H27.1562C26.4687 40.9062 20.625 38.1562 20.625 34.375V30.0781C20.625 29.5625 20.9687 29.2188 21.4844 29.2188C22 29.2188 22.3438 29.5625 22.3438 30.0781V34.375C22.3438 36.4375 25.7812 38.6719 27.5 39.3594C29.2188 38.5 32.6562 36.4375 32.6562 34.375V30.0781C32.6562 29.5625 33 29.2188 33.5156 29.2188C34.0312 29.2188 34.375 29.5625 34.375 30.0781V34.375C34.375 38.1562 28.5313 40.9062 27.8438 41.25H27.5Z" fill="white"/>
<path d="M27.5 32.6562C20.7969 32.6562 15.4688 27.3281 15.4688 20.625V16.3281C15.4688 15.8125 15.8125 15.4688 16.3281 15.4688C16.8438 15.4688 17.1875 15.8125 17.1875 16.3281V20.625C17.1875 26.2969 21.8281 30.9375 27.5 30.9375C33.1719 30.9375 37.8125 26.2969 37.8125 20.625V16.3281C37.8125 15.8125 38.1562 15.4688 38.6719 15.4688C39.1875 15.4688 39.5312 15.8125 39.5312 16.3281V20.625C39.5312 27.3281 34.2031 32.6562 27.5 32.6562Z" fill="white"/>
<path d="M38.6719 17.1882H37.8125C36.4375 17.1882 35.2344 15.9851 35.2344 14.6101V11.1726C31.625 13.9226 26.8125 14.9539 22.3438 14.0945L20.4531 13.7507C20.1094 13.7507 19.7656 14.0945 19.7656 14.6101C19.7656 15.9851 18.5625 17.1882 17.1875 17.1882H16.3281C15.8125 17.1882 15.4688 16.8445 15.4688 16.5007L13.9219 8.93821C13.5781 7.39133 13.9219 5.84446 14.9531 4.46946C15.8125 3.09446 17.1875 2.23508 18.7344 2.06321L30.4219 0.000708111C32.1406 -0.343042 33.8594 0.172583 35.0625 1.20383C36.2656 2.23508 36.9531 3.43821 37.125 4.98508C38.3281 5.15696 39.3594 5.84446 40.0469 6.70383C40.9062 7.90696 41.4219 9.28196 41.0781 10.8289L39.3594 16.5007C39.3594 17.0164 39.0156 17.1882 38.6719 17.1882ZM35.2344 9.45383C35.5781 9.45383 35.75 9.45383 35.9219 9.62571C36.4375 9.96946 36.9531 10.4851 36.9531 11.1726V14.6101C36.9531 15.1257 37.2969 15.4695 37.8125 15.4695H37.9844L39.5312 10.4851C39.7031 9.62571 39.5312 8.59446 38.8437 7.90696C38.1562 7.21946 37.2969 6.70383 36.4375 6.70383C35.9219 6.70383 35.5781 6.36008 35.5781 5.84446C35.5781 4.46946 35.0625 3.43821 34.2031 2.57883C33.3438 1.89133 32.1406 1.54758 30.9375 1.71946L18.9062 3.78196C17.875 3.95383 16.8437 4.64133 16.1562 5.50071C15.6406 6.36008 15.2969 7.56321 15.4688 8.59446L16.8438 15.4695H17.1875C17.7031 15.4695 18.0469 15.1257 18.0469 14.6101C18.0469 13.2351 19.25 12.032 20.625 12.032L22.6875 12.3757C26.8125 13.2351 30.9375 12.2039 34.2031 9.79758C34.5469 9.62571 34.8906 9.45383 35.2344 9.45383ZM48.9844 55.0008H6.01562C5.5 55.0008 5.15625 54.657 5.15625 54.1414V46.5789C5.15625 42.4539 7.73438 38.8445 11.6875 37.6414L21.3125 34.3758C21.8281 34.2039 22.1719 34.5476 22.3438 34.8914C22.5156 35.2351 22.3438 35.9226 21.8281 36.0945L12.2031 39.3601C8.9375 40.2195 6.875 43.3132 6.875 46.5789V53.282H48.125V46.5789C48.125 43.3132 46.0625 40.2195 42.7969 39.1883L33.1719 36.0945C32.6562 35.9226 32.4844 35.407 32.6562 35.0632C32.8281 34.5476 33.3438 34.3757 33.6875 34.5476L43.3125 37.8133C47.2656 39.0164 49.8438 42.6257 49.8438 46.7507V54.3132C49.8438 54.657 49.5 55.0008 48.9844 55.0008Z" fill="white"/>
<path d="M48.9844 55H38.6719C38.1562 55 37.8125 54.6562 37.8125 54.1406V52.4219C37.8125 46.75 42.1094 41.9375 47.6094 41.4219C47.9531 41.4219 48.2969 41.5937 48.4688 41.7656C49.3281 43.3125 49.8438 44.8594 49.8438 46.5781V54.1406C49.8438 54.6562 49.5 55 48.9844 55ZM39.5312 53.2812H48.125V46.5781C48.125 45.375 47.7812 44.1719 47.2656 43.1406C42.7969 44 39.5312 47.7812 39.5312 52.4219V53.2812ZM16.3281 55H6.01562C5.5 55 5.15625 54.6562 5.15625 54.1406V46.5781C5.15625 44.8594 5.67188 43.1406 6.53125 41.7656C6.70313 41.4219 7.04688 41.25 7.39063 41.25C13.0625 41.9375 17.1875 46.75 17.1875 52.25V53.9688C17.1875 54.6562 16.8438 55 16.3281 55ZM6.875 53.2812H15.4688V52.4219C15.4688 47.7812 12.2031 44 7.73438 43.1406C7.21875 44.1719 6.875 45.375 6.875 46.5781V53.2812ZM42.1094 22.3438H38.6719C38.1562 22.3438 37.8125 22 37.8125 21.4844V16.3281C37.8125 15.8125 38.1562 15.4688 38.6719 15.4688H40.3906C41.7656 15.4688 42.9688 16.6719 42.9688 18.0469V21.4844C42.9688 22 42.625 22.3438 42.1094 22.3438ZM39.5312 20.625H41.25V18.0469C41.25 17.5312 40.9062 17.1875 40.3906 17.1875H39.5312V20.625Z" fill="white"/>
<path d="M36.9531 27.5H31.7969C31.2812 27.5 30.9375 27.1562 30.9375 26.6406C30.9375 26.125 31.2812 25.7812 31.7969 25.7812H36.9531C39.3594 25.7812 41.25 23.8906 41.25 21.4844V18.0469C41.25 17.5312 41.5938 17.1875 42.1094 17.1875C42.625 17.1875 42.9688 17.5312 42.9688 18.0469V21.4844C42.9688 24.75 40.2188 27.5 36.9531 27.5ZM16.3281 22.3438H14.6094C13.2344 22.3438 12.0312 21.1406 12.0312 19.7656V18.0469C12.0312 16.6719 13.2344 15.4688 14.6094 15.4688H16.3281C16.8438 15.4688 17.1875 15.8125 17.1875 16.3281V21.4844C17.1875 22 16.8438 22.3438 16.3281 22.3438ZM14.6094 17.1875C14.0938 17.1875 13.75 17.5312 13.75 18.0469V19.7656C13.75 20.2812 14.0938 20.625 14.6094 20.625H15.4688V17.1875H14.6094Z" fill="white"/>
<path d="M30.0781 29.2188H28.3594C26.9844 29.2188 25.7812 28.0156 25.7812 26.6406C25.7812 25.2656 26.9844 24.0625 28.3594 24.0625H30.0781C31.4531 24.0625 32.6562 25.2656 32.6562 26.6406C32.6562 28.0156 31.4531 29.2188 30.0781 29.2188ZM28.3594 25.7812C27.8438 25.7812 27.5 26.125 27.5 26.6406C27.5 27.1562 27.8438 27.5 28.3594 27.5H30.0781C30.5938 27.5 30.9375 27.1562 30.9375 26.6406C30.9375 26.125 30.5938 25.7812 30.0781 25.7812H28.3594Z" fill="white"/>
</g>
</g>
</g>
</g>
<defs>
<clipPath id="clip0_815_173">
<rect width="55" height="55" fill="white"/>
</clipPath>
<clipPath id="clip1_815_173">
<rect width="55" height="55" fill="white"/>
</clipPath>
<clipPath id="clip2_815_173">
<rect width="55" height="55" fill="white"/>
</clipPath>
</defs>
</svg>
