<svg width="55" height="55" viewBox="0 0 55 55" fill="none" xmlns="http://www.w3.org/2000/svg">
<g clip-path="url(#clip0_815_188)">
<g clip-path="url(#clip1_815_188)">
<path d="M51.9454 28.346C51.3679 26.828 49.9379 25.849 48.3154 25.849C47.4354 25.849 46.5719 26.1515 45.8844 26.7015L35.2364 35.221V35.199C35.2364 33.076 33.5094 31.349 31.3864 31.349H25.1164C20.6119 28.445 13.5829 28.4505 9.0729 31.349H6.63638C4.51338 31.349 2.78638 33.076 2.78638 35.199V48.399C2.78638 50.522 4.51338 52.249 6.63638 52.249C8.7594 52.249 10.4864 50.522 10.4864 48.399V47.849H32.3214C33.4104 47.849 34.4554 47.4475 35.2639 46.7215L50.9169 32.6305C52.1269 31.547 52.5284 29.864 51.9454 28.346ZM8.28638 48.399C8.28638 49.3065 7.54388 50.049 6.63638 50.049C5.72888 50.049 4.98638 49.3065 4.98638 48.399V35.199C4.98638 34.2915 5.72888 33.549 6.63638 33.549H8.28638V48.399ZM49.4429 30.997L33.7899 45.0825C33.3884 45.451 32.8659 45.649 32.3214 45.649H10.4864V33.0485C14.4134 30.6725 20.4139 30.7715 24.1594 33.3565C24.3409 33.483 24.5609 33.549 24.7864 33.549H31.3864C32.2939 33.549 33.0364 34.2915 33.0364 35.199C33.0364 36.1065 32.2939 36.849 31.3864 36.849H24.7864C24.1814 36.849 23.6864 37.344 23.6864 37.949C23.6864 38.554 24.1814 39.049 24.7864 39.049H33.5864C33.8339 39.049 34.0759 38.9665 34.2739 38.807L47.2594 28.4175C47.5564 28.181 47.9304 28.049 48.3154 28.049C49.3934 28.049 49.7949 28.8795 49.8939 29.1325C49.9929 29.3855 50.2459 30.2765 49.4429 30.997ZM27.0194 21.449H36.8534C37.3374 21.449 37.7664 21.13 37.9094 20.668L40.1424 13.243C40.2689 12.814 40.1259 12.352 39.7794 12.0715C39.4329 11.791 38.9489 11.747 38.5584 11.967L35.0604 13.903L32.9099 9.9265C32.7119 9.569 32.3379 9.349 31.9364 9.349C31.5349 9.349 31.1609 9.569 30.9684 9.9265L28.8179 13.903L25.3199 11.967C24.9294 11.7525 24.4454 11.791 24.0989 12.0715C23.7524 12.352 23.6094 12.814 23.7359 13.243L25.9689 20.668C26.1064 21.13 26.5354 21.449 27.0194 21.449ZM28.7244 16.3615C28.9829 16.5045 29.2854 16.5375 29.5659 16.455C29.8464 16.3725 30.0829 16.18 30.2259 15.9215L31.9419 12.759L33.6579 15.9215C33.727 16.0495 33.8209 16.1625 33.934 16.254C34.0471 16.3455 34.1773 16.4137 34.3169 16.4546C34.4565 16.4955 34.6028 16.5084 34.7474 16.4924C34.892 16.4764 35.0321 16.4319 35.1594 16.3615L37.2604 15.1955L36.0339 19.249H27.8389L26.6179 15.1955L28.7244 16.3615Z" fill="white"/>
<path d="M31.9393 29.15C39.2158 29.15 45.1393 23.2265 45.1393 15.95C45.1393 8.6735 39.2158 2.75 31.9393 2.75C24.6628 2.75 18.7393 8.6735 18.7393 15.95C18.7393 23.2265 24.6628 29.15 31.9393 29.15ZM31.9393 4.95C38.0058 4.95 42.9393 9.8835 42.9393 15.95C42.9393 22.0165 38.0058 26.95 31.9393 26.95C25.8728 26.95 20.9393 22.0165 20.9393 15.95C20.9393 9.8835 25.8728 4.95 31.9393 4.95Z" fill="white"/>
</g>
</g>
<defs>
<clipPath id="clip0_815_188">
<rect width="55" height="55" fill="white"/>
</clipPath>
<clipPath id="clip1_815_188">
<rect width="55" height="55" fill="white"/>
</clipPath>
</defs>
</svg>
