<svg width="44" height="44" viewBox="0 0 44 44" fill="none" xmlns="http://www.w3.org/2000/svg">
<path d="M1.7417 32.3576C1.7417 31.2883 2.0167 30.3181 2.5667 29.4472C3.1167 28.5764 3.88059 27.9271 4.85837 27.4993C7.08893 26.5216 9.09795 25.8188 10.8854 25.391C12.6729 24.9633 14.5139 24.7493 16.4084 24.7493C18.3028 24.7493 20.1362 24.9633 21.9084 25.391C23.6806 25.8188 25.682 26.5216 27.9125 27.4993C28.8903 27.9271 29.6618 28.5764 30.2271 29.4472C30.7924 30.3181 31.075 31.2883 31.075 32.3576V33.916C31.075 34.6722 30.8058 35.3196 30.2674 35.8579C29.7287 36.3967 29.0813 36.666 28.325 36.666H4.4917C3.73545 36.666 3.08814 36.3967 2.54974 35.8579C2.01105 35.3196 1.7417 34.6722 1.7417 33.916V32.3576ZM39.5084 36.666H33.1834C33.3362 36.2076 33.4813 35.757 33.6188 35.3139C33.7563 34.8709 33.825 34.4049 33.825 33.916V32.3576C33.825 30.4326 33.382 28.882 32.4959 27.7056C31.6097 26.5292 30.2806 25.5438 28.5084 24.7493C30.6167 24.9938 32.6028 25.3299 34.4667 25.7576C36.3306 26.1854 37.8431 26.7049 39.0042 27.316C40.0125 27.8966 40.807 28.6146 41.3875 29.4701C41.9681 30.3258 42.2584 31.2883 42.2584 32.3576V33.916C42.2584 34.6722 41.9891 35.3196 41.4508 35.8579C40.9121 36.3967 40.2646 36.666 39.5084 36.666ZM16.4084 21.9535C14.3917 21.9535 12.7417 21.3118 11.4584 20.0285C10.175 18.7451 9.53337 17.0951 9.53337 15.0785C9.53337 13.0618 10.175 11.4118 11.4584 10.1285C12.7417 8.84516 14.3917 8.20349 16.4084 8.20349C18.425 8.20349 20.075 8.84516 21.3584 10.1285C22.6417 11.4118 23.2834 13.0618 23.2834 15.0785C23.2834 17.0951 22.6417 18.7451 21.3584 20.0285C20.075 21.3118 18.425 21.9535 16.4084 21.9535ZM32.9084 15.0785C32.9084 17.0951 32.2667 18.7451 30.9834 20.0285C29.7 21.3118 28.05 21.9535 26.0334 21.9535C25.6972 21.9535 25.3229 21.9306 24.9104 21.8847C24.4979 21.8389 24.1237 21.7549 23.7875 21.6326C24.5209 20.8688 25.0785 19.9292 25.4604 18.8139C25.8424 17.6987 26.0334 16.4535 26.0334 15.0785C26.0334 13.7035 25.8424 12.4889 25.4604 11.4347C25.0785 10.3806 24.5209 9.41045 23.7875 8.52432C24.1237 8.43266 24.4979 8.35627 24.9104 8.29516C25.3229 8.23404 25.6972 8.20349 26.0334 8.20349C28.05 8.20349 29.7 8.84516 30.9834 10.1285C32.2667 11.4118 32.9084 13.0618 32.9084 15.0785ZM4.4917 33.916H28.325V32.3576C28.325 31.8688 28.1799 31.3951 27.8896 30.9368C27.5993 30.4785 27.2403 30.1576 26.8125 29.9743C24.6125 28.9966 22.7639 28.3396 21.2667 28.0035C19.7695 27.6674 18.15 27.4993 16.4084 27.4993C14.6667 27.4993 13.0396 27.6674 11.5271 28.0035C10.0146 28.3396 8.15837 28.9966 5.95837 29.9743C5.53059 30.1576 5.1792 30.4785 4.9042 30.9368C4.6292 31.3951 4.4917 31.8688 4.4917 32.3576V33.916ZM16.4084 19.2035C17.6 19.2035 18.5854 18.8139 19.3646 18.0347C20.1438 17.2556 20.5334 16.2701 20.5334 15.0785C20.5334 13.8868 20.1438 12.9014 19.3646 12.1222C18.5854 11.3431 17.6 10.9535 16.4084 10.9535C15.2167 10.9535 14.2313 11.3431 13.4521 12.1222C12.6729 12.9014 12.2834 13.8868 12.2834 15.0785C12.2834 16.2701 12.6729 17.2556 13.4521 18.0347C14.2313 18.8139 15.2167 19.2035 16.4084 19.2035Z" fill="#FD6C31"/>
</svg>
