<svg width="44" height="44" viewBox="0 0 44 44" fill="none" xmlns="http://www.w3.org/2000/svg">
<path d="M30.2498 17.875C29.4554 17.875 28.7985 17.6153 28.279 17.0959C27.7595 16.5764 27.4998 15.9195 27.4998 15.125C27.4998 14.3306 27.7595 13.6737 28.279 13.1542C28.7985 12.6347 29.4554 12.375 30.2498 12.375C31.0443 12.375 31.7012 12.6347 32.2207 13.1542C32.7401 13.6737 32.9998 14.3306 32.9998 15.125C32.9998 15.9195 32.7401 16.5764 32.2207 17.0959C31.7012 17.6153 31.0443 17.875 30.2498 17.875ZM13.7498 17.875C12.9554 17.875 12.2985 17.6153 11.779 17.0959C11.2595 16.5764 10.9998 15.9195 10.9998 15.125C10.9998 14.3306 11.2595 13.6737 11.779 13.1542C12.2985 12.6347 12.9554 12.375 13.7498 12.375C14.5443 12.375 15.2012 12.6347 15.7207 13.1542C16.2401 13.6737 16.4998 14.3306 16.4998 15.125C16.4998 15.9195 16.2401 16.5764 15.7207 17.0959C15.2012 17.6153 14.5443 17.875 13.7498 17.875ZM21.9998 22.9167C21.2054 22.9167 20.5485 22.657 20.029 22.1375C19.5095 21.6181 19.2498 20.9612 19.2498 20.1667C19.2498 19.3722 19.5095 18.7153 20.029 18.1959C20.5485 17.6764 21.2054 17.4167 21.9998 17.4167C22.7943 17.4167 23.4512 17.6764 23.9707 18.1959C24.4901 18.7153 24.7498 19.3722 24.7498 20.1667C24.7498 20.9612 24.4901 21.6181 23.9707 22.1375C23.4512 22.657 22.7943 22.9167 21.9998 22.9167ZM21.9998 12.8334C21.2054 12.8334 20.5485 12.5737 20.029 12.0542C19.5095 11.5347 19.2498 10.8778 19.2498 10.0834C19.2498 9.2889 19.5095 8.63199 20.029 8.11254C20.5485 7.59309 21.2054 7.33337 21.9998 7.33337C22.7943 7.33337 23.4512 7.59309 23.9707 8.11254C24.4901 8.63199 24.7498 9.2889 24.7498 10.0834C24.7498 10.8778 24.4901 11.5347 23.9707 12.0542C23.4512 12.5737 22.7943 12.8334 21.9998 12.8334ZM21.9998 36.6667C21.4193 36.6667 20.8235 36.6209 20.2123 36.5292C19.6012 36.4375 19.0054 36.3153 18.4248 36.1625V29.5625C18.4248 28.4931 18.761 27.5764 19.4332 26.8125C20.1054 26.0487 20.961 25.6667 21.9998 25.6667C23.0387 25.6667 23.8943 26.0487 24.5665 26.8125C25.2387 27.5764 25.5748 28.4931 25.5748 29.5625V36.1625C24.9943 36.3153 24.3985 36.4375 23.7873 36.5292C23.1762 36.6209 22.5804 36.6667 21.9998 36.6667ZM15.6748 35.2459C15.0943 35.0014 14.5137 34.7264 13.9332 34.4209C13.3526 34.1153 12.8026 33.7792 12.2832 33.4125C11.4276 32.832 10.7478 32.0529 10.2436 31.075C9.73942 30.0972 9.48734 29.0431 9.48734 27.9125C9.48734 27.1181 9.41098 26.3618 9.25817 25.6438C9.10539 24.9258 8.79984 24.2612 8.3415 23.65C8.00539 23.2834 7.4172 22.7028 6.57692 21.9084C5.73664 21.1139 4.96512 20.3653 4.26234 19.6625C3.86512 19.2347 3.6665 18.7841 3.6665 18.3105C3.6665 17.8368 3.86512 17.4014 4.26234 17.0042C4.69012 16.5764 5.11789 16.3625 5.54567 16.3625C5.97345 16.3625 6.40122 16.5764 6.829 17.0042L13.8873 23.65C14.4679 24.2 14.911 24.857 15.2165 25.6209C15.522 26.3847 15.6748 27.1639 15.6748 27.9584V35.2459ZM28.3248 35.2459V27.9584C28.3248 27.1639 28.5158 26.3847 28.8978 25.6209C29.2797 24.857 29.761 24.2 30.3415 23.65L37.1707 17.0042C37.5373 16.6681 37.9728 16.5 38.4769 16.5C38.9811 16.5 39.4012 16.6681 39.7373 17.0042C40.1345 17.4014 40.3332 17.8368 40.3332 18.3105C40.3332 18.7841 40.1345 19.2347 39.7373 19.6625C39.0345 20.3653 38.2631 21.0987 37.4228 21.8625C36.5824 22.6264 35.9943 23.2222 35.6582 23.65C35.1998 24.2612 34.8943 24.9258 34.7415 25.6438C34.5887 26.3618 34.5123 27.1181 34.5123 27.9125C34.5123 29.0431 34.2603 30.0972 33.7561 31.075C33.2519 32.0529 32.572 32.832 31.7165 33.4125C31.197 33.7487 30.647 34.0771 30.0665 34.398C29.486 34.7188 28.9054 35.0014 28.3248 35.2459Z" fill="#FD6C31"/>
</svg>
