<svg width="44" height="44" viewBox="0 0 44 44" fill="none" xmlns="http://www.w3.org/2000/svg">
<g clip-path="url(#clip0_101_369)">
<path d="M22 9.94583C23.2222 8.57083 24.6993 7.48611 26.4312 6.69167C28.163 5.89722 29.986 5.5 31.9 5.5C35.2611 5.5 38.118 6.67639 40.4708 9.02917C42.8236 11.382 44 14.2389 44 17.6C44 18.6695 43.8778 19.7083 43.6333 20.7167C43.3889 21.725 43.0528 22.7028 42.625 23.65C42.4417 24.0472 42.1667 24.3299 41.8 24.4979C41.4333 24.6659 41.0514 24.6736 40.6542 24.5208C40.318 24.368 40.0736 24.1313 39.9208 23.8104C39.768 23.4896 39.768 23.1764 39.9208 22.8708C40.3486 22.0458 40.6771 21.1903 40.9062 20.3042C41.1354 19.418 41.25 18.5167 41.25 17.6C41.25 14.9914 40.3437 12.7811 38.5312 10.9688C36.7189 9.15628 34.5086 8.25 31.9 8.25C30.1583 8.25 28.551 8.71597 27.0779 9.64792C25.6045 10.5799 24.2786 11.6875 23.1 12.9708C22.8097 13.307 22.4469 13.475 22.0115 13.475C21.576 13.475 21.2055 13.307 20.9 12.9708C19.7083 11.6875 18.3792 10.5799 16.9125 9.64792C15.4458 8.71597 13.8417 8.25 12.1 8.25C9.49144 8.25 7.28108 9.15628 5.46883 10.9688C3.65628 12.7811 2.75 14.9914 2.75 17.6C2.75 18.5167 2.86458 19.418 3.09375 20.3042C3.32292 21.1903 3.65139 22.0458 4.07917 22.8708C4.23195 23.1764 4.23195 23.482 4.07917 23.7875C3.92639 24.093 3.68195 24.3222 3.34583 24.475C2.97917 24.6278 2.60486 24.6201 2.22292 24.4521C1.84097 24.2841 1.55833 24.0014 1.375 23.6042C0.947219 22.657 0.611111 21.6785 0.366667 20.669C0.122222 19.6597 0 18.6368 0 17.6C0 14.2389 1.17639 11.382 3.52917 9.02917C5.88195 6.67639 8.73889 5.5 12.1 5.5C14.025 5.5 15.8507 5.89722 17.5771 6.69167C19.3034 7.48611 20.7778 8.57083 22 9.94583ZM1.375 40.3333C0.985417 40.3333 0.65893 40.2015 0.395542 39.9378C0.131847 39.6744 0 39.3479 0 38.9583V37.9042C0 37.0553 0.320833 36.316 0.9625 35.6863C1.60417 35.0565 2.50555 34.5889 3.66667 34.2833C4.46111 34.0389 5.19445 33.9167 5.86667 33.9167C6.53889 33.9167 7.25695 33.9472 8.02083 34.0083C8.23472 34.0389 8.40278 34.1382 8.525 34.3062C8.64722 34.4743 8.67243 34.6686 8.60063 34.8892C8.47474 35.2819 8.38475 35.6805 8.33067 36.085C8.27689 36.4896 8.25 36.9126 8.25 37.3542V38.9583C8.25 39.3479 8.1183 39.6744 7.85492 39.9378C7.59122 40.2015 7.26458 40.3333 6.875 40.3333H1.375ZM11 38.9583V37.3542C11 35.368 12.0159 33.7639 14.0479 32.5417C16.0799 31.3195 18.7305 30.7083 22 30.7083C25.3 30.7083 27.9583 31.3195 29.975 32.5417C31.9917 33.7639 33 35.368 33 37.3542V38.9583C33 39.3479 32.8683 39.6744 32.6049 39.9378C32.3412 40.2015 32.0146 40.3333 31.625 40.3333H12.375C11.9854 40.3333 11.6589 40.2015 11.3955 39.9378C11.1318 39.6744 11 39.3479 11 38.9583ZM37.125 40.3333C36.7354 40.3333 36.4089 40.2015 36.1455 39.9378C35.8818 39.6744 35.75 39.3479 35.75 38.9583V37.3542C35.75 36.9126 35.7231 36.4896 35.6693 36.085C35.6152 35.6805 35.5252 35.2819 35.3994 34.8892C35.3276 34.6686 35.3528 34.4743 35.475 34.3062C35.5972 34.1382 35.7653 34.0389 35.9792 34.0083C36.743 33.9472 37.4611 33.9167 38.1333 33.9167C38.8055 33.9167 39.5389 34.0389 40.3333 34.2833C41.4945 34.5889 42.3958 35.0565 43.0375 35.6863C43.6792 36.316 44 37.0553 44 37.9042V38.9583C44 39.3479 43.8683 39.6744 43.6049 39.9378C43.3412 40.2015 43.0146 40.3333 42.625 40.3333H37.125ZM21.9908 33.4583C19.5525 33.4583 17.5695 33.825 16.0417 34.5583C14.5139 35.2917 13.75 36.2236 13.75 37.3542V37.5833H30.25V37.3083C30.25 36.2083 29.4937 35.2917 27.9813 34.5583C26.4688 33.825 24.472 33.4583 21.9908 33.4583ZM6.85529 32.5417C5.98232 32.5417 5.23264 32.2275 4.60625 31.5993C3.97986 30.9708 3.66667 30.2154 3.66667 29.3333C3.66667 28.4472 3.98078 27.6909 4.609 27.0646C5.23753 26.4382 5.99286 26.125 6.875 26.125C7.76111 26.125 8.51736 26.4382 9.14375 27.0646C9.77011 27.6909 10.0833 28.4538 10.0833 29.353C10.0833 30.226 9.77011 30.9757 9.14375 31.6021C8.51736 32.2284 7.75454 32.5417 6.85529 32.5417ZM37.1053 32.5417C36.2323 32.5417 35.4826 32.2275 34.8563 31.5993C34.2299 30.9708 33.9167 30.2154 33.9167 29.3333C33.9167 28.4472 34.2308 27.6909 34.859 27.0646C35.4876 26.4382 36.2429 26.125 37.125 26.125C38.0111 26.125 38.7674 26.4382 39.3937 27.0646C40.0201 27.6909 40.3333 28.4538 40.3333 29.353C40.3333 30.226 40.0201 30.9757 39.3937 31.6021C38.7674 32.2284 38.0045 32.5417 37.1053 32.5417ZM22 29.3333C20.4722 29.3333 19.1736 28.7986 18.1042 27.7292C17.0347 26.6597 16.5 25.3611 16.5 23.8333C16.5 22.275 17.0347 20.9688 18.1042 19.9146C19.1736 18.8604 20.4722 18.3333 22 18.3333C23.5583 18.3333 24.8646 18.8604 25.9188 19.9146C26.9729 20.9688 27.5 22.275 27.5 23.8333C27.5 25.3611 26.9729 26.6597 25.9188 27.7292C24.8646 28.7986 23.5583 29.3333 22 29.3333ZM22.016 21.0833C21.2415 21.0833 20.5868 21.3453 20.0521 21.8694C19.5174 22.3934 19.25 23.0427 19.25 23.8173C19.25 24.5919 19.5151 25.2466 20.0452 25.7812C20.5753 26.3159 21.2323 26.5833 22.016 26.5833C22.7998 26.5833 23.4514 26.3182 23.9708 25.7881C24.4903 25.258 24.75 24.601 24.75 23.8173C24.75 23.0335 24.488 22.382 23.964 21.8625C23.4399 21.343 22.7906 21.0833 22.016 21.0833Z" fill="#FD6C31"/>
</g>
<defs>
<clipPath id="clip0_101_369">
<rect width="44" height="44" fill="white"/>
</clipPath>
</defs>
</svg>
