<svg width="166" height="424" viewBox="0 0 166 424" fill="none" xmlns="http://www.w3.org/2000/svg">
<g filter="url(#filter0_i_119_796)">
<rect y="27" width="166" height="397" rx="83" fill="#FAF8F9"/>
<path d="M52.2347 134.875C52.171 134.28 51.9028 133.816 51.4301 133.484C50.9619 133.152 50.3528 132.986 49.6028 132.986C49.0756 132.986 48.6233 133.066 48.246 133.225C47.8687 133.384 47.5801 133.6 47.3801 133.873C47.1801 134.145 47.0778 134.457 47.0733 134.807C47.0733 135.098 47.1392 135.35 47.271 135.564C47.4074 135.777 47.5915 135.959 47.8233 136.109C48.0551 136.255 48.3119 136.377 48.5937 136.477C48.8756 136.577 49.1597 136.661 49.446 136.73L50.7551 137.057C51.2824 137.18 51.7892 137.345 52.2756 137.555C52.7665 137.764 53.2051 138.027 53.5915 138.345C53.9824 138.664 54.2915 139.048 54.5187 139.498C54.746 139.948 54.8597 140.475 54.8597 141.08C54.8597 141.898 54.6506 142.618 54.2324 143.241C53.8142 143.859 53.2097 144.343 52.4187 144.693C51.6324 145.039 50.6801 145.211 49.5619 145.211C48.4756 145.211 47.5324 145.043 46.7324 144.707C45.9369 144.37 45.3142 143.88 44.8642 143.234C44.4187 142.589 44.1778 141.802 44.1415 140.875H46.6301C46.6665 141.361 46.8165 141.766 47.0801 142.089C47.3437 142.411 47.6869 142.652 48.1097 142.811C48.5369 142.97 49.0142 143.05 49.5415 143.05C50.0915 143.05 50.5733 142.968 50.9869 142.805C51.4051 142.636 51.7324 142.405 51.9687 142.109C52.2051 141.809 52.3256 141.459 52.3301 141.059C52.3256 140.695 52.2187 140.395 52.0097 140.159C51.8006 139.918 51.5074 139.718 51.1301 139.559C50.7574 139.395 50.321 139.25 49.821 139.123L48.2324 138.714C47.0824 138.418 46.1733 137.97 45.5051 137.37C44.8415 136.766 44.5097 135.964 44.5097 134.964C44.5097 134.141 44.7324 133.42 45.1778 132.802C45.6278 132.184 46.2392 131.705 47.0119 131.364C47.7847 131.018 48.6597 130.845 49.6369 130.845C50.6278 130.845 51.496 131.018 52.2415 131.364C52.9915 131.705 53.5801 132.18 54.0074 132.789C54.4347 133.393 54.6551 134.089 54.6687 134.875H52.2347ZM59.4739 138.864V145H57.0057V131.036H59.4193V136.307H59.542C59.7875 135.716 60.167 135.25 60.6807 134.909C61.1989 134.564 61.858 134.391 62.658 134.391C63.3852 134.391 64.0193 134.543 64.5602 134.848C65.1011 135.152 65.5193 135.598 65.8148 136.184C66.1148 136.77 66.2648 137.486 66.2648 138.332V145H63.7966V138.714C63.7966 138.009 63.6148 137.461 63.2511 137.07C62.892 136.675 62.3875 136.477 61.7375 136.477C61.3011 136.477 60.9102 136.573 60.5648 136.764C60.2239 136.95 59.9557 137.22 59.7602 137.575C59.5693 137.93 59.4739 138.359 59.4739 138.864ZM73.3489 145.205C72.3261 145.205 71.4398 144.98 70.6898 144.53C69.9398 144.08 69.358 143.45 68.9443 142.641C68.5352 141.832 68.3307 140.886 68.3307 139.805C68.3307 138.723 68.5352 137.775 68.9443 136.961C69.358 136.148 69.9398 135.516 70.6898 135.066C71.4398 134.616 72.3261 134.391 73.3489 134.391C74.3716 134.391 75.258 134.616 76.008 135.066C76.758 135.516 77.3375 136.148 77.7466 136.961C78.1602 137.775 78.367 138.723 78.367 139.805C78.367 140.886 78.1602 141.832 77.7466 142.641C77.3375 143.45 76.758 144.08 76.008 144.53C75.258 144.98 74.3716 145.205 73.3489 145.205ZM73.3625 143.227C73.917 143.227 74.3807 143.075 74.7534 142.77C75.1261 142.461 75.4034 142.048 75.5852 141.53C75.7716 141.011 75.8648 140.434 75.8648 139.798C75.8648 139.157 75.7716 138.577 75.5852 138.059C75.4034 137.536 75.1261 137.12 74.7534 136.811C74.3807 136.502 73.917 136.348 73.3625 136.348C72.7943 136.348 72.3216 136.502 71.9443 136.811C71.5716 137.12 71.292 137.536 71.1057 138.059C70.9239 138.577 70.833 139.157 70.833 139.798C70.833 140.434 70.9239 141.011 71.1057 141.53C71.292 142.048 71.5716 142.461 71.9443 142.77C72.3216 143.075 72.7943 143.227 73.3625 143.227ZM80.4619 145V134.527H82.8551V136.273H82.9642C83.1551 135.668 83.4824 135.202 83.946 134.875C84.4142 134.543 84.9483 134.377 85.5483 134.377C85.6847 134.377 85.8369 134.384 86.0051 134.398C86.1778 134.407 86.321 134.423 86.4347 134.445V136.716C86.3301 136.68 86.1642 136.648 85.9369 136.62C85.7142 136.589 85.4983 136.573 85.2892 136.573C84.8392 136.573 84.4347 136.67 84.0756 136.866C83.721 137.057 83.4415 137.323 83.2369 137.664C83.0324 138.005 82.9301 138.398 82.9301 138.843V145H80.4619ZM93.8665 134.527V136.436H87.846V134.527H93.8665ZM89.3324 132.018H91.8006V141.85C91.8006 142.182 91.8506 142.436 91.9506 142.614C92.0551 142.786 92.1915 142.905 92.3597 142.968C92.5278 143.032 92.7142 143.064 92.9188 143.064C93.0733 143.064 93.2142 143.052 93.3415 143.03C93.4733 143.007 93.5733 142.986 93.6415 142.968L94.0574 144.898C93.9256 144.943 93.7369 144.993 93.4915 145.048C93.2506 145.102 92.9551 145.134 92.6051 145.143C91.9869 145.161 91.4301 145.068 90.9347 144.864C90.4392 144.655 90.046 144.332 89.7551 143.895C89.4688 143.459 89.3278 142.914 89.3324 142.259V132.018ZM98.6239 131.036V145H96.1557V131.036H98.6239ZM101.162 145V134.527H103.63V145H101.162ZM102.403 133.041C102.012 133.041 101.676 132.911 101.394 132.652C101.112 132.389 100.971 132.073 100.971 131.705C100.971 131.332 101.112 131.016 101.394 130.757C101.676 130.493 102.012 130.361 102.403 130.361C102.798 130.361 103.135 130.493 103.412 130.757C103.694 131.016 103.835 131.332 103.835 131.705C103.835 132.073 103.694 132.389 103.412 132.652C103.135 132.911 102.798 133.041 102.403 133.041ZM114.445 137.295L112.195 137.541C112.132 137.314 112.02 137.1 111.861 136.9C111.707 136.7 111.498 136.539 111.234 136.416C110.97 136.293 110.648 136.232 110.266 136.232C109.752 136.232 109.32 136.343 108.97 136.566C108.625 136.789 108.455 137.077 108.459 137.432C108.455 137.736 108.566 137.984 108.793 138.175C109.025 138.366 109.407 138.523 109.939 138.645L111.725 139.027C112.716 139.241 113.452 139.58 113.934 140.043C114.42 140.507 114.666 141.114 114.67 141.864C114.666 142.523 114.473 143.105 114.091 143.609C113.714 144.109 113.189 144.5 112.516 144.782C111.843 145.064 111.07 145.205 110.198 145.205C108.916 145.205 107.884 144.936 107.102 144.4C106.32 143.859 105.855 143.107 105.705 142.143L108.111 141.911C108.22 142.384 108.452 142.741 108.807 142.982C109.161 143.223 109.623 143.343 110.191 143.343C110.777 143.343 111.248 143.223 111.602 142.982C111.961 142.741 112.141 142.443 112.141 142.089C112.141 141.789 112.025 141.541 111.793 141.345C111.566 141.15 111.211 141 110.73 140.895L108.943 140.52C107.939 140.311 107.195 139.959 106.714 139.464C106.232 138.964 105.993 138.332 105.998 137.568C105.993 136.923 106.168 136.364 106.523 135.891C106.882 135.414 107.38 135.045 108.016 134.786C108.657 134.523 109.395 134.391 110.232 134.391C111.459 134.391 112.425 134.652 113.13 135.175C113.839 135.698 114.277 136.405 114.445 137.295ZM121.935 134.527V136.436H115.915V134.527H121.935ZM117.401 132.018H119.869V141.85C119.869 142.182 119.919 142.436 120.019 142.614C120.124 142.786 120.26 142.905 120.428 142.968C120.597 143.032 120.783 143.064 120.988 143.064C121.142 143.064 121.283 143.052 121.41 143.03C121.542 143.007 121.642 142.986 121.71 142.968L122.126 144.898C121.994 144.943 121.806 144.993 121.56 145.048C121.319 145.102 121.024 145.134 120.674 145.143C120.056 145.161 119.499 145.068 119.003 144.864C118.508 144.655 118.115 144.332 117.824 143.895C117.538 143.459 117.397 142.914 117.401 142.259V132.018ZM58.7435 168H54.0116V154.036H58.8389C60.2253 154.036 61.4162 154.316 62.4116 154.875C63.4116 155.43 64.1798 156.227 64.7162 157.268C65.2526 158.309 65.5207 159.555 65.5207 161.005C65.5207 162.459 65.2503 163.709 64.7094 164.755C64.173 165.8 63.398 166.602 62.3844 167.161C61.3753 167.72 60.1616 168 58.7435 168ZM56.5412 165.811H58.6207C59.5935 165.811 60.4048 165.634 61.0548 165.28C61.7048 164.92 62.1935 164.386 62.5207 163.677C62.848 162.964 63.0116 162.073 63.0116 161.005C63.0116 159.936 62.848 159.05 62.5207 158.345C62.1935 157.636 61.7094 157.107 61.0685 156.757C60.4321 156.402 59.6412 156.225 58.6957 156.225H56.5412V165.811ZM67.8151 168V157.527H70.2082V159.273H70.3173C70.5082 158.668 70.8355 158.202 71.2991 157.875C71.7673 157.543 72.3014 157.377 72.9014 157.377C73.0378 157.377 73.1901 157.384 73.3582 157.398C73.531 157.407 73.6741 157.423 73.7878 157.445V159.716C73.6832 159.68 73.5173 159.648 73.2901 159.62C73.0673 159.589 72.8514 159.573 72.6423 159.573C72.1923 159.573 71.7878 159.67 71.4287 159.866C71.0741 160.057 70.7946 160.323 70.5901 160.664C70.3855 161.005 70.2832 161.398 70.2832 161.843V168H67.8151ZM79.6327 168.205C78.5827 168.205 77.6759 167.986 76.9122 167.55C76.1531 167.109 75.569 166.486 75.1599 165.682C74.7509 164.873 74.5463 163.92 74.5463 162.825C74.5463 161.748 74.7509 160.802 75.1599 159.989C75.5736 159.17 76.1509 158.534 76.8918 158.08C77.6327 157.62 78.5031 157.391 79.5031 157.391C80.1486 157.391 80.7577 157.495 81.3304 157.705C81.9077 157.909 82.4168 158.227 82.8577 158.659C83.3031 159.091 83.6531 159.641 83.9077 160.309C84.1622 160.973 84.2895 161.764 84.2895 162.682V163.439H75.7054V161.775H81.9236C81.919 161.302 81.8168 160.882 81.6168 160.514C81.4168 160.141 81.1372 159.848 80.7781 159.634C80.4236 159.42 80.0099 159.314 79.5372 159.314C79.0327 159.314 78.5895 159.436 78.2077 159.682C77.8259 159.923 77.5281 160.241 77.3145 160.636C77.1054 161.027 76.9986 161.457 76.994 161.925V163.377C76.994 163.986 77.1054 164.509 77.3281 164.945C77.5509 165.377 77.8622 165.709 78.2622 165.941C78.6622 166.168 79.1304 166.282 79.6668 166.282C80.0259 166.282 80.3509 166.232 80.6418 166.132C80.9327 166.027 81.1849 165.875 81.3986 165.675C81.6122 165.475 81.7736 165.227 81.8827 164.932L84.1872 165.191C84.0418 165.8 83.7645 166.332 83.3554 166.786C82.9509 167.236 82.4327 167.586 81.8009 167.836C81.169 168.082 80.4463 168.205 79.6327 168.205ZM89.3912 168.211C88.7276 168.211 88.1298 168.093 87.598 167.857C87.0707 167.616 86.6526 167.261 86.3435 166.793C86.0389 166.325 85.8866 165.748 85.8866 165.061C85.8866 164.47 85.9957 163.982 86.2139 163.595C86.4321 163.209 86.7298 162.9 87.1071 162.668C87.4844 162.436 87.9094 162.261 88.3821 162.143C88.8594 162.02 89.3526 161.932 89.8616 161.877C90.4753 161.814 90.973 161.757 91.3548 161.707C91.7366 161.652 92.0139 161.57 92.1866 161.461C92.3639 161.348 92.4526 161.173 92.4526 160.936V160.895C92.4526 160.382 92.3003 159.984 91.9957 159.702C91.6912 159.42 91.2526 159.28 90.6798 159.28C90.0753 159.28 89.5957 159.411 89.2412 159.675C88.8912 159.939 88.6548 160.25 88.5321 160.609L86.2276 160.282C86.4094 159.645 86.7094 159.114 87.1276 158.686C87.5457 158.255 88.0571 157.932 88.6616 157.718C89.2662 157.5 89.9344 157.391 90.6662 157.391C91.1707 157.391 91.673 157.45 92.173 157.568C92.673 157.686 93.1298 157.882 93.5435 158.155C93.9571 158.423 94.2889 158.789 94.5389 159.252C94.7935 159.716 94.9207 160.295 94.9207 160.991V168H92.548V166.561H92.4662C92.3162 166.852 92.1048 167.125 91.8321 167.38C91.5639 167.63 91.2253 167.832 90.8162 167.986C90.4116 168.136 89.9366 168.211 89.3912 168.211ZM90.0321 166.398C90.5276 166.398 90.9571 166.3 91.3207 166.105C91.6844 165.905 91.9639 165.641 92.1594 165.314C92.3594 164.986 92.4594 164.63 92.4594 164.243V163.009C92.3821 163.073 92.2503 163.132 92.0639 163.186C91.8821 163.241 91.6776 163.289 91.4503 163.33C91.223 163.37 90.998 163.407 90.7753 163.439C90.5526 163.47 90.3594 163.498 90.1957 163.52C89.8276 163.57 89.498 163.652 89.2071 163.766C88.9162 163.88 88.6866 164.039 88.5185 164.243C88.3503 164.443 88.2662 164.702 88.2662 165.02C88.2662 165.475 88.4321 165.818 88.7639 166.05C89.0957 166.282 89.5185 166.398 90.0321 166.398ZM97.4026 168V157.527H99.7616V159.307H99.8844C100.103 158.707 100.464 158.239 100.968 157.902C101.473 157.561 102.075 157.391 102.775 157.391C103.484 157.391 104.082 157.564 104.568 157.909C105.059 158.25 105.405 158.716 105.605 159.307H105.714C105.946 158.725 106.337 158.261 106.887 157.916C107.441 157.566 108.098 157.391 108.857 157.391C109.821 157.391 110.607 157.695 111.216 158.305C111.825 158.914 112.13 159.802 112.13 160.97V168H109.655V161.352C109.655 160.702 109.482 160.227 109.137 159.927C108.791 159.623 108.368 159.47 107.868 159.47C107.273 159.47 106.807 159.657 106.471 160.03C106.139 160.398 105.973 160.877 105.973 161.468V168H103.553V161.25C103.553 160.709 103.389 160.277 103.062 159.955C102.739 159.632 102.316 159.47 101.793 159.47C101.439 159.47 101.116 159.561 100.825 159.743C100.534 159.92 100.303 160.173 100.13 160.5C99.9571 160.823 99.8707 161.2 99.8707 161.632V168H97.4026ZM51.3866 191V177.036H56.623C57.6957 177.036 58.5957 177.236 59.323 177.636C60.0548 178.036 60.6071 178.586 60.9798 179.286C61.3571 179.982 61.5457 180.773 61.5457 181.659C61.5457 182.555 61.3571 183.35 60.9798 184.045C60.6026 184.741 60.0457 185.289 59.3094 185.689C58.573 186.084 57.6662 186.282 56.5889 186.282H53.1185V184.202H56.248C56.8753 184.202 57.3889 184.093 57.7889 183.875C58.1889 183.657 58.4844 183.357 58.6753 182.975C58.8707 182.593 58.9685 182.155 58.9685 181.659C58.9685 181.164 58.8707 180.727 58.6753 180.35C58.4844 179.973 58.1866 179.68 57.7821 179.47C57.3821 179.257 56.8662 179.15 56.2344 179.15H53.9162V191H51.3866ZM63.6338 191V180.527H66.027V182.273H66.1361C66.327 181.668 66.6543 181.202 67.1179 180.875C67.5861 180.543 68.1202 180.377 68.7202 180.377C68.8565 180.377 69.0088 180.384 69.177 180.398C69.3497 180.407 69.4929 180.423 69.6065 180.445V182.716C69.502 182.68 69.3361 182.648 69.1088 182.62C68.8861 182.589 68.6702 182.573 68.4611 182.573C68.0111 182.573 67.6065 182.67 67.2474 182.866C66.8929 183.057 66.6134 183.323 66.4088 183.664C66.2043 184.005 66.102 184.398 66.102 184.843V191H63.6338ZM75.3832 191.205C74.3605 191.205 73.4741 190.98 72.7241 190.53C71.9741 190.08 71.3923 189.45 70.9787 188.641C70.5696 187.832 70.3651 186.886 70.3651 185.805C70.3651 184.723 70.5696 183.775 70.9787 182.961C71.3923 182.148 71.9741 181.516 72.7241 181.066C73.4741 180.616 74.3605 180.391 75.3832 180.391C76.406 180.391 77.2923 180.616 78.0423 181.066C78.7923 181.516 79.3719 182.148 79.781 182.961C80.1946 183.775 80.4014 184.723 80.4014 185.805C80.4014 186.886 80.1946 187.832 79.781 188.641C79.3719 189.45 78.7923 190.08 78.0423 190.53C77.2923 190.98 76.406 191.205 75.3832 191.205ZM75.3969 189.227C75.9514 189.227 76.4151 189.075 76.7878 188.77C77.1605 188.461 77.4378 188.048 77.6196 187.53C77.806 187.011 77.8991 186.434 77.8991 185.798C77.8991 185.157 77.806 184.577 77.6196 184.059C77.4378 183.536 77.1605 183.12 76.7878 182.811C76.4151 182.502 75.9514 182.348 75.3969 182.348C74.8287 182.348 74.356 182.502 73.9787 182.811C73.606 183.12 73.3264 183.536 73.1401 184.059C72.9582 184.577 72.8673 185.157 72.8673 185.798C72.8673 186.434 72.9582 187.011 73.1401 187.53C73.3264 188.048 73.606 188.461 73.9787 188.77C74.356 189.075 74.8287 189.227 75.3969 189.227ZM82.4963 180.527H84.9645V191.6C84.9645 192.355 84.8213 192.977 84.5349 193.468C84.2486 193.959 83.8349 194.325 83.294 194.566C82.7531 194.807 82.0963 194.927 81.3236 194.927C81.2327 194.927 81.1486 194.925 81.0713 194.92C80.994 194.92 80.9099 194.918 80.819 194.914V192.902C80.8872 192.907 80.9486 192.909 81.0031 192.909C81.0577 192.914 81.1145 192.916 81.1736 192.916C81.6463 192.916 81.9849 192.8 82.1895 192.568C82.394 192.341 82.4963 192.007 82.4963 191.566V180.527ZM83.7236 179.041C83.3281 179.041 82.9895 178.911 82.7077 178.652C82.4304 178.389 82.2918 178.073 82.2918 177.705C82.2918 177.332 82.4304 177.016 82.7077 176.757C82.9895 176.493 83.3281 176.361 83.7236 176.361C84.1145 176.361 84.4486 176.493 84.7259 176.757C85.0077 177.016 85.1486 177.332 85.1486 177.705C85.1486 178.073 85.0077 178.389 84.7259 178.652C84.4486 178.911 84.1145 179.041 83.7236 179.041ZM92.1389 191.205C91.0889 191.205 90.1821 190.986 89.4185 190.55C88.6594 190.109 88.0753 189.486 87.6662 188.682C87.2571 187.873 87.0526 186.92 87.0526 185.825C87.0526 184.748 87.2571 183.802 87.6662 182.989C88.0798 182.17 88.6571 181.534 89.398 181.08C90.1389 180.62 91.0094 180.391 92.0094 180.391C92.6548 180.391 93.2639 180.495 93.8366 180.705C94.4139 180.909 94.923 181.227 95.3639 181.659C95.8094 182.091 96.1594 182.641 96.4139 183.309C96.6685 183.973 96.7957 184.764 96.7957 185.682V186.439H88.2116V184.775H94.4298C94.4253 184.302 94.323 183.882 94.123 183.514C93.923 183.141 93.6435 182.848 93.2844 182.634C92.9298 182.42 92.5162 182.314 92.0435 182.314C91.5389 182.314 91.0957 182.436 90.7139 182.682C90.3321 182.923 90.0344 183.241 89.8207 183.636C89.6116 184.027 89.5048 184.457 89.5003 184.925V186.377C89.5003 186.986 89.6116 187.509 89.8344 187.945C90.0571 188.377 90.3685 188.709 90.7685 188.941C91.1685 189.168 91.6366 189.282 92.173 189.282C92.5321 189.282 92.8571 189.232 93.148 189.132C93.4389 189.027 93.6912 188.875 93.9048 188.675C94.1185 188.475 94.2798 188.227 94.3889 187.932L96.6935 188.191C96.548 188.8 96.2707 189.332 95.8616 189.786C95.4571 190.236 94.9389 190.586 94.3071 190.836C93.6753 191.082 92.9526 191.205 92.1389 191.205ZM103.452 191.205C102.407 191.205 101.509 190.975 100.759 190.516C100.013 190.057 99.4384 189.423 99.0338 188.614C98.6338 187.8 98.4338 186.864 98.4338 185.805C98.4338 184.741 98.6384 183.802 99.0474 182.989C99.4565 182.17 100.034 181.534 100.779 181.08C101.529 180.62 102.416 180.391 103.438 180.391C104.288 180.391 105.041 180.548 105.695 180.861C106.354 181.17 106.879 181.609 107.27 182.177C107.661 182.741 107.884 183.4 107.938 184.155H105.579C105.484 183.65 105.257 183.23 104.897 182.893C104.543 182.552 104.068 182.382 103.472 182.382C102.968 182.382 102.525 182.518 102.143 182.791C101.761 183.059 101.463 183.445 101.25 183.95C101.041 184.455 100.936 185.059 100.936 185.764C100.936 186.477 101.041 187.091 101.25 187.605C101.459 188.114 101.752 188.507 102.129 188.784C102.511 189.057 102.959 189.193 103.472 189.193C103.836 189.193 104.161 189.125 104.447 188.989C104.738 188.848 104.982 188.645 105.177 188.382C105.372 188.118 105.507 187.798 105.579 187.42H107.938C107.879 188.161 107.661 188.818 107.284 189.391C106.907 189.959 106.393 190.405 105.743 190.727C105.093 191.045 104.329 191.205 103.452 191.205ZM115.195 180.527V182.436H109.174V180.527H115.195ZM110.661 178.018H113.129V187.85C113.129 188.182 113.179 188.436 113.279 188.614C113.383 188.786 113.52 188.905 113.688 188.968C113.856 189.032 114.042 189.064 114.247 189.064C114.401 189.064 114.542 189.052 114.67 189.03C114.801 189.007 114.901 188.986 114.97 188.968L115.386 190.898C115.254 190.943 115.065 190.993 114.82 191.048C114.579 191.102 114.283 191.134 113.933 191.143C113.315 191.161 112.758 191.068 112.263 190.864C111.767 190.655 111.374 190.332 111.083 189.895C110.797 189.459 110.656 188.914 110.661 188.259V178.018Z" fill="#FD6C31"/>
<path d="M33.7458 211.818H34.9788V218.56C34.9788 219.256 34.8147 219.877 34.4866 220.424C34.1618 220.968 33.7027 221.397 33.1095 221.712C32.5162 222.023 31.8202 222.179 31.0214 222.179C30.2226 222.179 29.5266 222.023 28.9333 221.712C28.3401 221.397 27.8794 220.968 27.5512 220.424C27.2264 219.877 27.064 219.256 27.064 218.56V211.818H28.297V218.46C28.297 218.957 28.4063 219.4 28.6251 219.788C28.8438 220.172 29.1554 220.475 29.5597 220.697C29.9674 220.916 30.4546 221.026 31.0214 221.026C31.5882 221.026 32.0754 220.916 32.483 220.697C32.8907 220.475 33.2023 220.172 33.4177 219.788C33.6365 219.4 33.7458 218.957 33.7458 218.46V211.818ZM42.691 216.074L41.637 216.372C41.5707 216.196 41.4729 216.026 41.3437 215.86C41.2177 215.691 41.0454 215.552 40.8266 215.442C40.6079 215.333 40.3278 215.278 39.9864 215.278C39.5191 215.278 39.1296 215.386 38.8181 215.602C38.5099 215.814 38.3557 216.084 38.3557 216.412C38.3557 216.704 38.4618 216.934 38.6739 217.103C38.886 217.272 39.2175 217.413 39.6682 217.526L40.8018 217.804C41.4845 217.97 41.9933 218.223 42.328 218.565C42.6628 218.903 42.8302 219.339 42.8302 219.872C42.8302 220.31 42.7042 220.701 42.4523 221.045C42.2037 221.39 41.8557 221.662 41.4083 221.861C40.9608 222.06 40.4405 222.159 39.8472 222.159C39.0683 222.159 38.4237 221.99 37.9133 221.652C37.4028 221.314 37.0797 220.82 36.9438 220.17L38.0574 219.892C38.1635 220.303 38.364 220.611 38.659 220.817C38.9573 221.022 39.3467 221.125 39.8273 221.125C40.3742 221.125 40.8084 221.009 41.1299 220.777C41.4547 220.542 41.6171 220.26 41.6171 219.932C41.6171 219.667 41.5243 219.445 41.3387 219.266C41.1531 219.083 40.868 218.947 40.4836 218.858L39.2108 218.56C38.5115 218.394 37.9978 218.137 37.6697 217.789C37.3448 217.438 37.1824 216.999 37.1824 216.472C37.1824 216.041 37.3034 215.66 37.5454 215.328C37.7906 214.997 38.1237 214.737 38.5447 214.548C38.9689 214.359 39.4495 214.264 39.9864 214.264C40.7421 214.264 41.3354 214.43 41.7662 214.761C42.2004 215.093 42.5087 215.53 42.691 216.074ZM47.798 222.159C47.0622 222.159 46.4275 221.997 45.8939 221.672C45.3636 221.344 44.9543 220.886 44.6659 220.3C44.3809 219.71 44.2384 219.024 44.2384 218.241C44.2384 217.459 44.3809 216.77 44.6659 216.173C44.9543 215.573 45.3553 215.106 45.8691 214.771C46.3861 214.433 46.9893 214.264 47.6787 214.264C48.0764 214.264 48.4692 214.33 48.857 214.463C49.2448 214.596 49.5977 214.811 49.9159 215.109C50.2341 215.404 50.4877 215.795 50.6766 216.283C50.8655 216.77 50.96 217.37 50.96 218.082V218.58H45.0736V217.565H49.7668C49.7668 217.134 49.6806 216.75 49.5083 216.412C49.3392 216.074 49.0973 215.807 48.7824 215.612C48.4709 215.416 48.103 215.318 47.6787 215.318C47.2114 215.318 46.807 215.434 46.4656 215.666C46.1276 215.895 45.8674 216.193 45.6851 216.561C45.5028 216.929 45.4117 217.323 45.4117 217.744V218.42C45.4117 218.997 45.5111 219.486 45.71 219.887C45.9121 220.285 46.1922 220.588 46.5502 220.797C46.9081 221.002 47.3241 221.105 47.798 221.105C48.1063 221.105 48.3847 221.062 48.6333 220.976C48.8852 220.886 49.1022 220.754 49.2845 220.578C49.4668 220.399 49.6077 220.177 49.7071 219.912L50.8406 220.23C50.7213 220.615 50.5208 220.953 50.2391 221.244C49.9574 221.533 49.6093 221.758 49.195 221.92C48.7807 222.08 48.3151 222.159 47.798 222.159ZM59.7845 222.159C59.0951 222.159 58.4903 221.995 57.9699 221.667C57.4529 221.339 57.0485 220.88 56.7568 220.29C56.4685 219.7 56.3243 219.01 56.3243 218.222C56.3243 217.426 56.4685 216.732 56.7568 216.138C57.0485 215.545 57.4529 215.085 57.9699 214.756C58.4903 214.428 59.0951 214.264 59.7845 214.264C60.4739 214.264 61.0771 214.428 61.5942 214.756C62.1146 215.085 62.5189 215.545 62.8073 216.138C63.0989 216.732 63.2448 217.426 63.2448 218.222C63.2448 219.01 63.0989 219.7 62.8073 220.29C62.5189 220.88 62.1146 221.339 61.5942 221.667C61.0771 221.995 60.4739 222.159 59.7845 222.159ZM59.7845 221.105C60.3082 221.105 60.7391 220.971 61.0771 220.702C61.4152 220.434 61.6655 220.081 61.8279 219.643C61.9903 219.206 62.0715 218.732 62.0715 218.222C62.0715 217.711 61.9903 217.236 61.8279 216.795C61.6655 216.354 61.4152 215.998 61.0771 215.726C60.7391 215.454 60.3082 215.318 59.7845 215.318C59.2609 215.318 58.83 215.454 58.4919 215.726C58.1539 215.998 57.9036 216.354 57.7412 216.795C57.5788 217.236 57.4976 217.711 57.4976 218.222C57.4976 218.732 57.5788 219.206 57.7412 219.643C57.9036 220.081 58.1539 220.434 58.4919 220.702C58.83 220.971 59.2609 221.105 59.7845 221.105ZM69.8483 218.878V214.364H71.0216V222H69.8483V220.707H69.7687C69.5898 221.095 69.3113 221.425 68.9335 221.697C68.5557 221.965 68.0784 222.099 67.5017 222.099C67.0244 222.099 66.6002 221.995 66.229 221.786C65.8577 221.574 65.5661 221.256 65.354 220.832C65.1418 220.404 65.0358 219.866 65.0358 219.216V214.364H66.2091V219.136C66.2091 219.693 66.3648 220.137 66.6764 220.469C66.9913 220.8 67.3923 220.966 67.8795 220.966C68.1712 220.966 68.4678 220.891 68.7694 220.742C69.0744 220.593 69.3296 220.364 69.5351 220.056C69.7439 219.748 69.8483 219.355 69.8483 218.878ZM73.1705 222V214.364H74.3041V215.517H74.3836C74.5228 215.139 74.7747 214.833 75.1393 214.597C75.5039 214.362 75.9149 214.244 76.3722 214.244C76.4584 214.244 76.5661 214.246 76.6954 214.249C76.8247 214.253 76.9224 214.258 76.9887 214.264V215.457C76.949 215.447 76.8578 215.433 76.7153 215.413C76.5761 215.389 76.4286 215.378 76.2728 215.378C75.9016 215.378 75.5702 215.456 75.2785 215.612C74.9901 215.764 74.7615 215.976 74.5924 216.248C74.4267 216.516 74.3438 216.823 74.3438 217.168V222H73.1705ZM88.0443 214.364C87.9846 213.86 87.7427 213.469 87.3184 213.19C86.8942 212.912 86.3738 212.773 85.7574 212.773C85.3066 212.773 84.9122 212.846 84.5741 212.991C84.2394 213.137 83.9775 213.338 83.7886 213.593C83.603 213.848 83.5102 214.138 83.5102 214.463C83.5102 214.735 83.5748 214.969 83.7041 215.164C83.8367 215.356 84.0057 215.517 84.2112 215.646C84.4167 215.772 84.6321 215.877 84.8575 215.96C85.0829 216.039 85.29 216.104 85.479 216.153L86.5131 216.432C86.7782 216.501 87.0732 216.598 87.398 216.72C87.7261 216.843 88.0393 217.01 88.3376 217.222C88.6392 217.431 88.8878 217.7 89.0834 218.028C89.2789 218.356 89.3767 218.759 89.3767 219.236C89.3767 219.786 89.2325 220.283 88.9442 220.727C88.6591 221.171 88.2415 221.524 87.6913 221.786C87.1444 222.048 86.4799 222.179 85.6977 222.179C84.9685 222.179 84.3372 222.061 83.8035 221.826C83.2732 221.591 82.8556 221.263 82.5507 220.842C82.2491 220.421 82.0784 219.932 82.0386 219.375H83.3113C83.3445 219.759 83.4738 220.078 83.6991 220.33C83.9278 220.578 84.2162 220.764 84.5642 220.886C84.9155 221.006 85.2934 221.065 85.6977 221.065C86.1684 221.065 86.5909 220.989 86.9655 220.837C87.34 220.681 87.6366 220.465 87.8554 220.19C88.0741 219.912 88.1835 219.587 88.1835 219.216C88.1835 218.878 88.089 218.603 87.9001 218.391C87.7112 218.179 87.4626 218.006 87.1544 217.874C86.8461 217.741 86.5131 217.625 86.1551 217.526L84.9023 217.168C84.1068 216.939 83.4771 216.612 83.0131 216.188C82.549 215.764 82.317 215.209 82.317 214.523C82.317 213.953 82.4711 213.455 82.7794 213.031C83.0909 212.604 83.5086 212.272 84.0322 212.037C84.5592 211.798 85.1475 211.679 85.7971 211.679C86.4534 211.679 87.0367 211.797 87.5471 212.032C88.0576 212.264 88.4619 212.582 88.7602 212.987C89.0618 213.391 89.2209 213.85 89.2375 214.364H88.0443ZM94.4465 222.159C93.7107 222.159 93.076 221.997 92.5423 221.672C92.012 221.344 91.6027 220.886 91.3144 220.3C91.0293 219.71 90.8868 219.024 90.8868 218.241C90.8868 217.459 91.0293 216.77 91.3144 216.173C91.6027 215.573 92.0038 215.106 92.5175 214.771C93.0345 214.433 93.6378 214.264 94.3271 214.264C94.7249 214.264 95.1176 214.33 95.5054 214.463C95.8932 214.596 96.2462 214.811 96.5644 215.109C96.8825 215.404 97.1361 215.795 97.325 216.283C97.5139 216.77 97.6084 217.37 97.6084 218.082V218.58H91.722V217.565H96.4152C96.4152 217.134 96.329 216.75 96.1567 216.412C95.9877 216.074 95.7457 215.807 95.4308 215.612C95.1193 215.416 94.7514 215.318 94.3271 215.318C93.8598 215.318 93.4555 215.434 93.1141 215.666C92.776 215.895 92.5158 216.193 92.3335 216.561C92.1512 216.929 92.0601 217.323 92.0601 217.744V218.42C92.0601 218.997 92.1595 219.486 92.3584 219.887C92.5606 220.285 92.8406 220.588 93.1986 220.797C93.5566 221.002 93.9725 221.105 94.4465 221.105C94.7547 221.105 95.0331 221.062 95.2817 220.976C95.5336 220.886 95.7507 220.754 95.933 220.578C96.1153 220.399 96.2561 220.177 96.3556 219.912L97.4891 220.23C97.3698 220.615 97.1692 220.953 96.8875 221.244C96.6058 221.533 96.2578 221.758 95.8435 221.92C95.4292 222.08 94.9635 222.159 94.4465 222.159ZM101.64 222.179C101.156 222.179 100.717 222.088 100.323 221.906C99.9285 221.72 99.6153 221.453 99.3833 221.105C99.1512 220.754 99.0352 220.33 99.0352 219.832C99.0352 219.395 99.1214 219.04 99.2938 218.768C99.4661 218.493 99.6965 218.278 99.9848 218.122C100.273 217.966 100.591 217.85 100.939 217.774C101.291 217.695 101.644 217.632 101.998 217.585C102.462 217.526 102.839 217.481 103.127 217.451C103.419 217.418 103.631 217.363 103.763 217.287C103.899 217.211 103.967 217.078 103.967 216.889V216.849C103.967 216.359 103.833 215.978 103.564 215.706C103.299 215.434 102.897 215.298 102.356 215.298C101.796 215.298 101.357 215.421 101.039 215.666C100.721 215.911 100.497 216.173 100.368 216.452L99.254 216.054C99.4529 215.59 99.718 215.229 100.049 214.97C100.384 214.708 100.749 214.526 101.143 214.423C101.541 214.317 101.932 214.264 102.316 214.264C102.562 214.264 102.843 214.294 103.162 214.354C103.483 214.41 103.793 214.528 104.091 214.707C104.393 214.886 104.643 215.156 104.842 215.517C105.041 215.878 105.14 216.362 105.14 216.969V222H103.967V220.966H103.907C103.828 221.132 103.695 221.309 103.51 221.498C103.324 221.687 103.077 221.848 102.769 221.98C102.461 222.113 102.084 222.179 101.64 222.179ZM101.819 221.125C102.283 221.125 102.674 221.034 102.993 220.852C103.314 220.669 103.556 220.434 103.718 220.146C103.884 219.857 103.967 219.554 103.967 219.236V218.162C103.917 218.222 103.808 218.276 103.639 218.326C103.473 218.372 103.281 218.414 103.062 218.45C102.847 218.483 102.636 218.513 102.431 218.54C102.229 218.563 102.065 218.583 101.939 218.599C101.634 218.639 101.349 218.704 101.084 218.793C100.822 218.879 100.61 219.01 100.447 219.186C100.288 219.358 100.209 219.594 100.209 219.892C100.209 220.3 100.359 220.608 100.661 220.817C100.966 221.022 101.352 221.125 101.819 221.125ZM107.282 222V214.364H108.415V215.517H108.495C108.634 215.139 108.886 214.833 109.251 214.597C109.615 214.362 110.026 214.244 110.484 214.244C110.57 214.244 110.677 214.246 110.807 214.249C110.936 214.253 111.034 214.258 111.1 214.264V215.457C111.06 215.447 110.969 215.433 110.827 215.413C110.687 215.389 110.54 215.378 110.384 215.378C110.013 215.378 109.681 215.456 109.39 215.612C109.101 215.764 108.873 215.976 108.704 216.248C108.538 216.516 108.455 216.823 108.455 217.168V222H107.282ZM115.361 222.159C114.645 222.159 114.028 221.99 113.511 221.652C112.994 221.314 112.597 220.848 112.318 220.255C112.04 219.662 111.9 218.984 111.9 218.222C111.9 217.446 112.043 216.762 112.328 216.168C112.616 215.572 113.017 215.106 113.531 214.771C114.048 214.433 114.651 214.264 115.341 214.264C115.878 214.264 116.362 214.364 116.793 214.562C117.223 214.761 117.576 215.04 117.851 215.398C118.127 215.756 118.297 216.173 118.364 216.651H117.19C117.101 216.303 116.902 215.994 116.594 215.726C116.289 215.454 115.878 215.318 115.361 215.318C114.903 215.318 114.502 215.437 114.158 215.676C113.816 215.911 113.549 216.245 113.357 216.675C113.168 217.103 113.074 217.605 113.074 218.182C113.074 218.772 113.167 219.286 113.352 219.723C113.541 220.161 113.806 220.5 114.148 220.742C114.492 220.984 114.897 221.105 115.361 221.105C115.666 221.105 115.942 221.052 116.191 220.946C116.44 220.84 116.65 220.688 116.822 220.489C116.995 220.29 117.117 220.051 117.19 219.773H118.364C118.297 220.223 118.133 220.629 117.871 220.991C117.613 221.349 117.27 221.634 116.842 221.846C116.418 222.055 115.924 222.159 115.361 222.159ZM121.252 217.406V222H120.079V211.818H121.252V215.557H121.351C121.53 215.162 121.799 214.849 122.157 214.617C122.518 214.382 122.999 214.264 123.599 214.264C124.119 214.264 124.575 214.369 124.966 214.577C125.357 214.783 125.66 215.099 125.876 215.527C126.094 215.951 126.204 216.491 126.204 217.148V222H125.03V217.227C125.03 216.621 124.873 216.152 124.558 215.82C124.247 215.486 123.814 215.318 123.261 215.318C122.876 215.318 122.531 215.399 122.226 215.562C121.925 215.724 121.686 215.961 121.511 216.273C121.338 216.584 121.252 216.962 121.252 217.406ZM135.171 222.139C134.502 222.139 133.925 222.017 133.441 221.771C132.957 221.526 132.584 221.19 132.323 220.762C132.061 220.335 131.93 219.846 131.93 219.295C131.93 218.871 132.019 218.495 132.198 218.167C132.381 217.835 132.631 217.529 132.949 217.247C133.27 216.962 133.64 216.677 134.058 216.392L135.529 215.298C135.818 215.109 136.048 214.907 136.22 214.692C136.396 214.476 136.484 214.195 136.484 213.847C136.484 213.588 136.369 213.338 136.141 213.096C135.915 212.854 135.619 212.733 135.251 212.733C134.992 212.733 134.764 212.799 134.565 212.932C134.369 213.061 134.215 213.227 134.102 213.429C133.993 213.628 133.938 213.833 133.938 214.045C133.938 214.284 134.003 214.526 134.132 214.771C134.265 215.013 134.432 215.262 134.634 215.517C134.84 215.769 135.052 216.027 135.271 216.293L139.944 222H138.532L134.674 217.347C134.316 216.916 133.991 216.525 133.7 216.173C133.408 215.822 133.176 215.476 133.004 215.134C132.831 214.793 132.745 214.423 132.745 214.026C132.745 213.568 132.846 213.167 133.048 212.822C133.254 212.474 133.541 212.204 133.908 212.012C134.28 211.817 134.714 211.719 135.211 211.719C135.721 211.719 136.161 211.818 136.528 212.017C136.896 212.213 137.18 212.473 137.379 212.798C137.578 213.119 137.677 213.469 137.677 213.847C137.677 214.334 137.556 214.756 137.314 215.114C137.072 215.472 136.742 215.805 136.325 216.114L134.296 217.625C133.839 217.963 133.529 218.291 133.367 218.609C133.204 218.928 133.123 219.156 133.123 219.295C133.123 219.614 133.206 219.91 133.372 220.185C133.537 220.46 133.771 220.683 134.073 220.852C134.374 221.021 134.727 221.105 135.131 221.105C135.516 221.105 135.89 221.024 136.255 220.862C136.62 220.696 136.949 220.457 137.244 220.146C137.543 219.834 137.778 219.46 137.95 219.022C138.126 218.585 138.214 218.092 138.214 217.545H139.347C139.347 218.222 139.27 218.773 139.114 219.201C138.958 219.629 138.782 219.963 138.587 220.205C138.391 220.447 138.234 220.628 138.114 220.747C138.075 220.797 138.038 220.847 138.005 220.896C137.972 220.946 137.935 220.996 137.896 221.045C137.568 221.413 137.153 221.688 136.653 221.871C136.152 222.05 135.658 222.139 135.171 222.139ZM42.1714 228.818H43.643L47.1032 237.27H47.2226L50.6828 228.818H52.1544V239H51.001V231.264H50.9015L47.7197 239H46.6061L43.4243 231.264H43.3248V239H42.1714V228.818ZM56.7146 239.179C56.2307 239.179 55.7915 239.088 55.3971 238.906C55.0027 238.72 54.6895 238.453 54.4575 238.105C54.2255 237.754 54.1095 237.33 54.1095 236.832C54.1095 236.395 54.1956 236.04 54.368 235.768C54.5403 235.493 54.7707 235.278 55.059 235.122C55.3474 234.966 55.6656 234.85 56.0136 234.774C56.3649 234.695 56.7179 234.632 57.0725 234.585C57.5365 234.526 57.9127 234.481 58.2011 234.451C58.4928 234.418 58.7049 234.363 58.8374 234.287C58.9733 234.211 59.0413 234.078 59.0413 233.889V233.849C59.0413 233.359 58.907 232.978 58.6386 232.706C58.3734 232.434 57.9707 232.298 57.4305 232.298C56.8704 232.298 56.4312 232.421 56.113 232.666C55.7948 232.911 55.5711 233.173 55.4419 233.452L54.3282 233.054C54.5271 232.59 54.7922 232.229 55.1237 231.97C55.4584 231.708 55.823 231.526 56.2174 231.423C56.6151 231.317 57.0062 231.264 57.3907 231.264C57.636 231.264 57.9177 231.294 58.2359 231.354C58.5574 231.41 58.8673 231.528 59.1656 231.707C59.4672 231.886 59.7174 232.156 59.9163 232.517C60.1151 232.878 60.2146 233.362 60.2146 233.969V239H59.0413V237.966H58.9816C58.9021 238.132 58.7695 238.309 58.5839 238.498C58.3983 238.687 58.1514 238.848 57.8431 238.98C57.5349 239.113 57.1587 239.179 56.7146 239.179ZM56.8936 238.125C57.3576 238.125 57.7487 238.034 58.0669 237.852C58.3883 237.669 58.6303 237.434 58.7927 237.146C58.9584 236.857 59.0413 236.554 59.0413 236.236V235.162C58.9916 235.222 58.8822 235.276 58.7132 235.326C58.5474 235.372 58.3552 235.414 58.1365 235.45C57.921 235.483 57.7106 235.513 57.5051 235.54C57.3029 235.563 57.1388 235.583 57.0129 235.599C56.7079 235.639 56.4229 235.704 56.1578 235.793C55.8959 235.879 55.6838 236.01 55.5214 236.186C55.3623 236.358 55.2828 236.594 55.2828 236.892C55.2828 237.3 55.4336 237.608 55.7352 237.817C56.0401 238.022 56.4262 238.125 56.8936 238.125ZM62.3561 241.864V231.364H63.4896V232.577H63.6288C63.715 232.444 63.8343 232.275 63.9868 232.07C64.1425 231.861 64.3646 231.675 64.653 231.513C64.9446 231.347 65.339 231.264 65.8362 231.264C66.4792 231.264 67.046 231.425 67.5365 231.746C68.027 232.068 68.4098 232.524 68.6849 233.114C68.96 233.704 69.0976 234.4 69.0976 235.202C69.0976 236.01 68.96 236.711 68.6849 237.305C68.4098 237.895 68.0287 238.352 67.5415 238.677C67.0542 238.998 66.4925 239.159 65.8561 239.159C65.3656 239.159 64.9728 239.078 64.6778 238.915C64.3828 238.75 64.1558 238.562 63.9967 238.354C63.8376 238.142 63.715 237.966 63.6288 237.827H63.5294V241.864H62.3561ZM63.5095 235.182C63.5095 235.759 63.594 236.267 63.7631 236.708C63.9321 237.146 64.179 237.489 64.5038 237.737C64.8286 237.982 65.2264 238.105 65.697 238.105C66.1875 238.105 66.5969 237.976 66.925 237.717C67.2564 237.455 67.505 237.104 67.6707 236.663C67.8398 236.219 67.9243 235.725 67.9243 235.182C67.9243 234.645 67.8414 234.161 67.6757 233.73C67.5133 233.296 67.2664 232.953 66.9349 232.701C66.6068 232.446 66.1942 232.318 65.697 232.318C65.2197 232.318 64.8187 232.439 64.4939 232.681C64.1691 232.92 63.9238 233.254 63.7581 233.685C63.5924 234.113 63.5095 234.612 63.5095 235.182ZM72.6373 237.608L72.5578 238.145C72.5015 238.523 72.4153 238.927 72.2993 239.358C72.1866 239.789 72.0689 240.195 71.9463 240.576C71.8237 240.957 71.7226 241.26 71.643 241.486H70.7481C70.7912 241.274 70.8476 240.994 70.9172 240.646C70.9868 240.298 71.0564 239.908 71.126 239.477C71.1989 239.05 71.2586 238.612 71.305 238.165L71.3646 237.608H72.6373ZM82.1691 239.139C81.5129 239.139 80.9279 239.027 80.4142 238.801C79.9037 238.576 79.4977 238.263 79.1961 237.862C78.8978 237.457 78.7354 236.988 78.7089 236.455H79.9617C79.9883 236.783 80.1009 237.066 80.2998 237.305C80.4987 237.54 80.7588 237.722 81.0803 237.852C81.4018 237.981 81.7581 238.045 82.1492 238.045C82.5867 238.045 82.9745 237.969 83.3126 237.817C83.6507 237.664 83.9158 237.452 84.108 237.18C84.3003 236.909 84.3964 236.594 84.3964 236.236C84.3964 235.861 84.3036 235.531 84.118 235.246C83.9324 234.958 83.6606 234.733 83.3026 234.57C82.9447 234.408 82.5072 234.327 81.9901 234.327H81.1748V233.233H81.9901C82.3945 233.233 82.7491 233.16 83.0541 233.014C83.3623 232.868 83.6026 232.663 83.7749 232.398C83.9506 232.133 84.0384 231.821 84.0384 231.463C84.0384 231.118 83.9622 230.818 83.8097 230.563C83.6573 230.308 83.4419 230.109 83.1634 229.967C82.8883 229.824 82.5635 229.753 82.189 229.753C81.8377 229.753 81.5062 229.817 81.1947 229.947C80.8865 230.073 80.6346 230.257 80.439 230.499C80.2435 230.737 80.1374 231.026 80.1208 231.364H78.9276C78.9475 230.83 79.1083 230.363 79.4099 229.962C79.7115 229.557 80.1059 229.242 80.5931 229.017C81.0837 228.792 81.6222 228.679 82.2089 228.679C82.8386 228.679 83.3789 228.807 83.8296 229.062C84.2804 229.314 84.6267 229.647 84.8687 230.061C85.1106 230.475 85.2316 230.923 85.2316 231.403C85.2316 231.977 85.0808 232.466 84.7792 232.87C84.4809 233.274 84.0749 233.554 83.5612 233.71V233.79C84.2042 233.896 84.7063 234.169 85.0676 234.61C85.4288 235.048 85.6095 235.589 85.6095 236.236C85.6095 236.789 85.4587 237.286 85.157 237.727C84.8588 238.165 84.4511 238.509 83.934 238.761C83.417 239.013 82.8287 239.139 82.1691 239.139ZM90.9639 239.139C90.2148 239.139 89.5768 238.935 89.0498 238.528C88.5228 238.117 88.1201 237.522 87.8417 236.743C87.5633 235.961 87.4241 235.016 87.4241 233.909C87.4241 232.809 87.5633 231.869 87.8417 231.09C88.1234 230.308 88.5278 229.711 89.0548 229.3C89.5851 228.886 90.2214 228.679 90.9639 228.679C91.7063 228.679 92.341 228.886 92.868 229.3C93.3983 229.711 93.8026 230.308 94.0811 231.09C94.3628 231.869 94.5036 232.809 94.5036 233.909C94.5036 235.016 94.3644 235.961 94.086 236.743C93.8076 237.522 93.4049 238.117 92.8779 238.528C92.3509 238.935 91.7129 239.139 90.9639 239.139ZM90.9639 238.045C91.7063 238.045 92.283 237.687 92.694 236.972C93.105 236.256 93.3105 235.235 93.3105 233.909C93.3105 233.027 93.216 232.277 93.0271 231.657C92.8415 231.037 92.573 230.565 92.2217 230.24C91.8737 229.915 91.4544 229.753 90.9639 229.753C90.2281 229.753 89.653 230.116 89.2387 230.842C88.8244 231.564 88.6173 232.587 88.6173 233.909C88.6173 234.791 88.7101 235.54 88.8957 236.156C89.0813 236.773 89.3481 237.242 89.6961 237.563C90.0474 237.885 90.47 238.045 90.9639 238.045ZM100.788 234.088V235.182H96.3332V234.088H100.788ZM108.261 233.074L107.207 233.372C107.141 233.196 107.043 233.026 106.914 232.86C106.788 232.691 106.616 232.552 106.397 232.442C106.178 232.333 105.898 232.278 105.557 232.278C105.089 232.278 104.7 232.386 104.388 232.602C104.08 232.814 103.926 233.084 103.926 233.412C103.926 233.704 104.032 233.934 104.244 234.103C104.456 234.272 104.788 234.413 105.239 234.526L106.372 234.804C107.055 234.97 107.564 235.223 107.898 235.565C108.233 235.903 108.4 236.339 108.4 236.872C108.4 237.31 108.275 237.701 108.023 238.045C107.774 238.39 107.426 238.662 106.979 238.861C106.531 239.06 106.011 239.159 105.418 239.159C104.639 239.159 103.994 238.99 103.484 238.652C102.973 238.314 102.65 237.82 102.514 237.17L103.628 236.892C103.734 237.303 103.934 237.611 104.229 237.817C104.528 238.022 104.917 238.125 105.398 238.125C105.945 238.125 106.379 238.009 106.7 237.777C107.025 237.542 107.187 237.26 107.187 236.932C107.187 236.667 107.095 236.445 106.909 236.266C106.723 236.083 106.438 235.947 106.054 235.858L104.781 235.56C104.082 235.394 103.568 235.137 103.24 234.789C102.915 234.438 102.753 233.999 102.753 233.472C102.753 233.041 102.874 232.66 103.116 232.328C103.361 231.997 103.694 231.737 104.115 231.548C104.539 231.359 105.02 231.264 105.557 231.264C106.312 231.264 106.906 231.43 107.337 231.761C107.771 232.093 108.079 232.53 108.261 233.074ZM113.368 239.159C112.633 239.159 111.998 238.997 111.464 238.672C110.934 238.344 110.525 237.886 110.236 237.3C109.951 236.71 109.809 236.024 109.809 235.241C109.809 234.459 109.951 233.77 110.236 233.173C110.525 232.573 110.926 232.106 111.439 231.771C111.956 231.433 112.56 231.264 113.249 231.264C113.647 231.264 114.04 231.33 114.427 231.463C114.815 231.596 115.168 231.811 115.486 232.109C115.804 232.404 116.058 232.795 116.247 233.283C116.436 233.77 116.53 234.37 116.53 235.082V235.58H110.644V234.565H115.337C115.337 234.134 115.251 233.75 115.079 233.412C114.91 233.074 114.668 232.807 114.353 232.612C114.041 232.416 113.673 232.318 113.249 232.318C112.782 232.318 112.377 232.434 112.036 232.666C111.698 232.895 111.438 233.193 111.255 233.561C111.073 233.929 110.982 234.323 110.982 234.744V235.42C110.982 235.997 111.081 236.486 111.28 236.887C111.482 237.285 111.763 237.588 112.12 237.797C112.478 238.002 112.894 238.105 113.368 238.105C113.677 238.105 113.955 238.062 114.204 237.976C114.455 237.886 114.673 237.754 114.855 237.578C115.037 237.399 115.178 237.177 115.277 236.912L116.411 237.23C116.292 237.615 116.091 237.953 115.809 238.244C115.528 238.533 115.18 238.758 114.765 238.92C114.351 239.08 113.885 239.159 113.368 239.159ZM121.417 239.159C120.701 239.159 120.085 238.99 119.568 238.652C119.051 238.314 118.653 237.848 118.375 237.255C118.096 236.662 117.957 235.984 117.957 235.222C117.957 234.446 118.1 233.762 118.385 233.168C118.673 232.572 119.074 232.106 119.588 231.771C120.105 231.433 120.708 231.264 121.397 231.264C121.934 231.264 122.418 231.364 122.849 231.562C123.28 231.761 123.633 232.04 123.908 232.398C124.183 232.756 124.354 233.173 124.42 233.651H123.247C123.157 233.303 122.959 232.994 122.65 232.726C122.345 232.454 121.934 232.318 121.417 232.318C120.96 232.318 120.559 232.437 120.214 232.676C119.873 232.911 119.606 233.245 119.414 233.675C119.225 234.103 119.13 234.605 119.13 235.182C119.13 235.772 119.223 236.286 119.409 236.723C119.598 237.161 119.863 237.5 120.204 237.742C120.549 237.984 120.953 238.105 121.417 238.105C121.722 238.105 121.999 238.052 122.248 237.946C122.496 237.84 122.707 237.688 122.879 237.489C123.051 237.29 123.174 237.051 123.247 236.773H124.42C124.354 237.223 124.19 237.629 123.928 237.991C123.669 238.349 123.326 238.634 122.899 238.846C122.475 239.055 121.981 239.159 121.417 239.159ZM46.657 248.364L43.8332 256H42.64L39.8161 248.364H41.0889L43.1968 254.449H43.2764L45.3843 248.364H46.657ZM48.2057 256V248.364H49.379V256H48.2057ZM48.8023 247.091C48.5736 247.091 48.3764 247.013 48.2107 246.857C48.0483 246.701 47.9671 246.514 47.9671 246.295C47.9671 246.077 48.0483 245.889 48.2107 245.734C48.3764 245.578 48.5736 245.5 48.8023 245.5C49.031 245.5 49.2265 245.578 49.3889 245.734C49.5547 245.889 49.6375 246.077 49.6375 246.295C49.6375 246.514 49.5547 246.701 49.3889 246.857C49.2265 247.013 49.031 247.091 48.8023 247.091ZM54.4115 256.159C53.7751 256.159 53.2133 255.998 52.7261 255.677C52.2389 255.352 51.8577 254.895 51.5827 254.305C51.3076 253.711 51.17 253.01 51.17 252.202C51.17 251.4 51.3076 250.704 51.5827 250.114C51.8577 249.524 52.2406 249.068 52.7311 248.746C53.2216 248.425 53.7884 248.264 54.4314 248.264C54.9285 248.264 55.3213 248.347 55.6096 248.513C55.9013 248.675 56.1234 248.861 56.2758 249.07C56.4316 249.275 56.5526 249.444 56.6388 249.577H56.7382V245.818H57.9115V256H56.778V254.827H56.6388C56.5526 254.966 56.43 255.142 56.2709 255.354C56.1118 255.562 55.8847 255.75 55.5898 255.915C55.2948 256.078 54.902 256.159 54.4115 256.159ZM54.5706 255.105C55.0412 255.105 55.439 254.982 55.7638 254.737C56.0886 254.489 56.3355 254.146 56.5045 253.708C56.6736 253.267 56.7581 252.759 56.7581 252.182C56.7581 251.612 56.6752 251.113 56.5095 250.685C56.3438 250.254 56.0985 249.92 55.7737 249.681C55.4489 249.439 55.0479 249.318 54.5706 249.318C54.0734 249.318 53.6591 249.446 53.3277 249.701C52.9996 249.953 52.7526 250.296 52.5869 250.73C52.4245 251.161 52.3433 251.645 52.3433 252.182C52.3433 252.725 52.4262 253.219 52.5919 253.663C52.7609 254.104 53.0095 254.455 53.3376 254.717C53.6691 254.976 54.08 255.105 54.5706 255.105ZM63.425 256.159C62.6892 256.159 62.0545 255.997 61.5209 255.672C60.9906 255.344 60.5812 254.886 60.2929 254.3C60.0078 253.71 59.8653 253.024 59.8653 252.241C59.8653 251.459 60.0078 250.77 60.2929 250.173C60.5812 249.573 60.9823 249.106 61.496 248.771C62.0131 248.433 62.6163 248.264 63.3057 248.264C63.7034 248.264 64.0961 248.33 64.4839 248.463C64.8717 248.596 65.2247 248.811 65.5429 249.109C65.8611 249.404 66.1146 249.795 66.3035 250.283C66.4925 250.77 66.5869 251.37 66.5869 252.082V252.58H60.7006V251.565H65.3937C65.3937 251.134 65.3076 250.75 65.1352 250.412C64.9662 250.074 64.7242 249.807 64.4094 249.612C64.0978 249.416 63.7299 249.318 63.3057 249.318C62.8383 249.318 62.434 249.434 62.0926 249.666C61.7545 249.895 61.4943 250.193 61.3121 250.561C61.1298 250.929 61.0386 251.323 61.0386 251.744V252.42C61.0386 252.997 61.1381 253.486 61.3369 253.887C61.5391 254.285 61.8192 254.588 62.1771 254.797C62.5351 255.002 62.951 255.105 63.425 255.105C63.7332 255.105 64.0116 255.062 64.2602 254.976C64.5121 254.886 64.7292 254.754 64.9115 254.578C65.0938 254.399 65.2346 254.177 65.3341 253.912L66.4676 254.23C66.3483 254.615 66.1478 254.953 65.866 255.244C65.5843 255.533 65.2363 255.758 64.822 255.92C64.4077 256.08 63.942 256.159 63.425 256.159ZM71.474 256.159C70.7846 256.159 70.1797 255.995 69.6594 255.667C69.1423 255.339 68.738 254.88 68.4463 254.29C68.1579 253.7 68.0138 253.01 68.0138 252.222C68.0138 251.426 68.1579 250.732 68.4463 250.138C68.738 249.545 69.1423 249.085 69.6594 248.756C70.1797 248.428 70.7846 248.264 71.474 248.264C72.1634 248.264 72.7666 248.428 73.2836 248.756C73.804 249.085 74.2084 249.545 74.4967 250.138C74.7884 250.732 74.9342 251.426 74.9342 252.222C74.9342 253.01 74.7884 253.7 74.4967 254.29C74.2084 254.88 73.804 255.339 73.2836 255.667C72.7666 255.995 72.1634 256.159 71.474 256.159ZM71.474 255.105C71.9977 255.105 72.4285 254.971 72.7666 254.702C73.1047 254.434 73.3549 254.081 73.5173 253.643C73.6797 253.206 73.7609 252.732 73.7609 252.222C73.7609 251.711 73.6797 251.236 73.5173 250.795C73.3549 250.354 73.1047 249.998 72.7666 249.726C72.4285 249.454 71.9977 249.318 71.474 249.318C70.9503 249.318 70.5194 249.454 70.1814 249.726C69.8433 249.998 69.5931 250.354 69.4307 250.795C69.2683 251.236 69.1871 251.711 69.1871 252.222C69.1871 252.732 69.2683 253.206 69.4307 253.643C69.5931 254.081 69.8433 254.434 70.1814 254.702C70.5194 254.971 70.9503 255.105 71.474 255.105ZM82.1343 250.074L81.0803 250.372C81.0141 250.196 80.9163 250.026 80.787 249.86C80.6611 249.691 80.4887 249.552 80.27 249.442C80.0512 249.333 79.7712 249.278 79.4298 249.278C78.9624 249.278 78.573 249.386 78.2615 249.602C77.9532 249.814 77.7991 250.084 77.7991 250.412C77.7991 250.704 77.9052 250.934 78.1173 251.103C78.3294 251.272 78.6608 251.413 79.1116 251.526L80.2451 251.804C80.9279 251.97 81.4366 252.223 81.7714 252.565C82.1061 252.903 82.2735 253.339 82.2735 253.872C82.2735 254.31 82.1476 254.701 81.8957 255.045C81.6471 255.39 81.2991 255.662 80.8517 255.861C80.4042 256.06 79.8838 256.159 79.2906 256.159C78.5117 256.159 77.867 255.99 77.3566 255.652C76.8462 255.314 76.5231 254.82 76.3872 254.17L77.5008 253.892C77.6069 254.303 77.8074 254.611 78.1024 254.817C78.4007 255.022 78.7901 255.125 79.2707 255.125C79.8176 255.125 80.2517 255.009 80.5732 254.777C80.8981 254.542 81.0605 254.26 81.0605 253.932C81.0605 253.667 80.9677 253.445 80.782 253.266C80.5964 253.083 80.3114 252.947 79.9269 252.858L78.6542 252.56C77.9549 252.394 77.4411 252.137 77.113 251.789C76.7882 251.438 76.6258 250.999 76.6258 250.472C76.6258 250.041 76.7468 249.66 76.9887 249.328C77.234 248.997 77.5671 248.737 77.988 248.548C78.4123 248.359 78.8928 248.264 79.4298 248.264C80.1855 248.264 80.7787 248.43 81.2096 248.761C81.6438 249.093 81.952 249.53 82.1343 250.074ZM90.8607 256.139C90.1912 256.139 89.6145 256.017 89.1306 255.771C88.6467 255.526 88.2738 255.19 88.012 254.762C87.7501 254.335 87.6192 253.846 87.6192 253.295C87.6192 252.871 87.7087 252.495 87.8877 252.167C88.07 251.835 88.3202 251.529 88.6384 251.247C88.9599 250.962 89.3295 250.677 89.7471 250.392L91.2187 249.298C91.507 249.109 91.7374 248.907 91.9097 248.692C92.0854 248.476 92.1732 248.195 92.1732 247.847C92.1732 247.588 92.0589 247.338 91.8302 247.096C91.6048 246.854 91.3082 246.733 90.9403 246.733C90.6817 246.733 90.453 246.799 90.2542 246.932C90.0586 247.061 89.9045 247.227 89.7918 247.429C89.6824 247.628 89.6278 247.833 89.6278 248.045C89.6278 248.284 89.6924 248.526 89.8216 248.771C89.9542 249.013 90.1216 249.262 90.3238 249.517C90.5293 249.769 90.7414 250.027 90.9601 250.293L95.6334 256H94.2215L90.3635 251.347C90.0056 250.916 89.6808 250.525 89.3891 250.173C89.0974 249.822 88.8654 249.476 88.6931 249.134C88.5207 248.793 88.4346 248.423 88.4346 248.026C88.4346 247.568 88.5357 247.167 88.7378 246.822C88.9433 246.474 89.23 246.204 89.5979 246.012C89.9691 245.817 90.4033 245.719 90.9005 245.719C91.4109 245.719 91.8501 245.818 92.218 246.017C92.5858 246.213 92.8692 246.473 93.0681 246.798C93.267 247.119 93.3664 247.469 93.3664 247.847C93.3664 248.334 93.2454 248.756 93.0035 249.114C92.7615 249.472 92.4317 249.805 92.0141 250.114L89.9857 251.625C89.5283 251.963 89.2184 252.291 89.056 252.609C88.8936 252.928 88.8124 253.156 88.8124 253.295C88.8124 253.614 88.8953 253.91 89.061 254.185C89.2267 254.46 89.4604 254.683 89.762 254.852C90.0636 255.021 90.4166 255.105 90.8209 255.105C91.2054 255.105 91.5799 255.024 91.9445 254.862C92.3091 254.696 92.6389 254.457 92.9339 254.146C93.2322 253.834 93.4675 253.46 93.6398 253.022C93.8155 252.585 93.9033 252.092 93.9033 251.545H95.0368C95.0368 252.222 94.959 252.773 94.8032 253.201C94.6474 253.629 94.4717 253.963 94.2762 254.205C94.0806 254.447 93.9232 254.628 93.8039 254.747C93.7641 254.797 93.7277 254.847 93.6945 254.896C93.6614 254.946 93.6249 254.996 93.5851 255.045C93.257 255.413 92.8427 255.688 92.3422 255.871C91.8418 256.05 91.3479 256.139 90.8607 256.139ZM101.029 256V245.818H102.262V254.906H106.995V256H101.029ZM108.745 256V248.364H109.918V256H108.745ZM109.341 247.091C109.113 247.091 108.915 247.013 108.75 246.857C108.587 246.701 108.506 246.514 108.506 246.295C108.506 246.077 108.587 245.889 108.75 245.734C108.915 245.578 109.113 245.5 109.341 245.5C109.57 245.5 109.766 245.578 109.928 245.734C110.094 245.889 110.177 246.077 110.177 246.295C110.177 246.514 110.094 246.701 109.928 246.857C109.766 247.013 109.57 247.091 109.341 247.091ZM118.311 248.364L115.487 256H114.294L111.47 248.364H112.743L114.851 254.449H114.931L117.039 248.364H118.311ZM122.788 256.159C122.052 256.159 121.418 255.997 120.884 255.672C120.354 255.344 119.945 254.886 119.656 254.3C119.371 253.71 119.229 253.024 119.229 252.241C119.229 251.459 119.371 250.77 119.656 250.173C119.945 249.573 120.346 249.106 120.859 248.771C121.376 248.433 121.98 248.264 122.669 248.264C123.067 248.264 123.459 248.33 123.847 248.463C124.235 248.596 124.588 248.811 124.906 249.109C125.224 249.404 125.478 249.795 125.667 250.283C125.856 250.77 125.95 251.37 125.95 252.082V252.58H120.064V251.565H124.757C124.757 251.134 124.671 250.75 124.498 250.412C124.329 250.074 124.088 249.807 123.773 249.612C123.461 249.416 123.093 249.318 122.669 249.318C122.202 249.318 121.797 249.434 121.456 249.666C121.118 249.895 120.858 250.193 120.675 250.561C120.493 250.929 120.402 251.323 120.402 251.744V252.42C120.402 252.997 120.501 253.486 120.7 253.887C120.902 254.285 121.182 254.588 121.54 254.797C121.898 255.002 122.314 255.105 122.788 255.105C123.097 255.105 123.375 255.062 123.623 254.976C123.875 254.886 124.092 254.754 124.275 254.578C124.457 254.399 124.598 254.177 124.697 253.912L125.831 254.23C125.712 254.615 125.511 254.953 125.229 255.244C124.948 255.533 124.6 255.758 124.185 255.92C123.771 256.08 123.305 256.159 122.788 256.159ZM32.3078 262.818L35.3305 271.389H35.4498L38.4726 262.818H39.7652L36.0265 273H34.7538L31.0152 262.818H32.3078ZM41.192 273V265.364H42.3653V273H41.192ZM41.7886 264.091C41.5599 264.091 41.3627 264.013 41.197 263.857C41.0346 263.701 40.9534 263.514 40.9534 263.295C40.9534 263.077 41.0346 262.889 41.197 262.734C41.3627 262.578 41.5599 262.5 41.7886 262.5C42.0173 262.5 42.2129 262.578 42.3753 262.734C42.541 262.889 42.6238 263.077 42.6238 263.295C42.6238 263.514 42.541 263.701 42.3753 263.857C42.2129 264.013 42.0173 264.091 41.7886 264.091ZM44.5143 273V265.364H45.6478V266.517H45.7274C45.8666 266.139 46.1185 265.833 46.483 265.597C46.8476 265.362 47.2586 265.244 47.716 265.244C47.8022 265.244 47.9099 265.246 48.0392 265.249C48.1684 265.253 48.2662 265.258 48.3325 265.264V266.457C48.2927 266.447 48.2016 266.433 48.059 266.413C47.9198 266.389 47.7723 266.378 47.6166 266.378C47.2454 266.378 46.9139 266.456 46.6222 266.612C46.3339 266.764 46.1052 266.976 45.9362 267.248C45.7704 267.516 45.6876 267.823 45.6876 268.168V273H44.5143ZM53.5228 265.364V266.358H49.5654V265.364H53.5228ZM50.7188 263.534H51.8921V270.812C51.8921 271.144 51.9402 271.393 52.0363 271.558C52.1357 271.721 52.2617 271.83 52.4142 271.886C52.5699 271.939 52.734 271.966 52.9063 271.966C53.0356 271.966 53.1417 271.959 53.2245 271.946C53.3074 271.929 53.3737 271.916 53.4234 271.906L53.662 272.96C53.5825 272.99 53.4714 273.02 53.3289 273.05C53.1864 273.083 53.0058 273.099 52.787 273.099C52.4556 273.099 52.1308 273.028 51.8126 272.886C51.4977 272.743 51.2359 272.526 51.0271 272.234C50.8216 271.943 50.7188 271.575 50.7188 271.131V263.534ZM60.1002 269.878V265.364H61.2735V273H60.1002V271.707H60.0207C59.8417 272.095 59.5633 272.425 59.1855 272.697C58.8076 272.965 58.3303 273.099 57.7536 273.099C57.2764 273.099 56.8521 272.995 56.4809 272.786C56.1097 272.574 55.818 272.256 55.6059 271.832C55.3938 271.404 55.2877 270.866 55.2877 270.216V265.364H56.461V270.136C56.461 270.693 56.6168 271.137 56.9284 271.469C57.2432 271.8 57.6443 271.966 58.1315 271.966C58.4231 271.966 58.7198 271.891 59.0214 271.742C59.3263 271.593 59.5815 271.364 59.787 271.056C59.9958 270.748 60.1002 270.355 60.1002 269.878ZM65.6697 273.179C65.1858 273.179 64.7466 273.088 64.3522 272.906C63.9578 272.72 63.6446 272.453 63.4126 272.105C63.1805 271.754 63.0645 271.33 63.0645 270.832C63.0645 270.395 63.1507 270.04 63.3231 269.768C63.4954 269.493 63.7258 269.278 64.0141 269.122C64.3025 268.966 64.6206 268.85 64.9687 268.774C65.32 268.695 65.673 268.632 66.0276 268.585C66.4916 268.526 66.8678 268.481 67.1562 268.451C67.4478 268.418 67.6599 268.363 67.7925 268.287C67.9284 268.211 67.9964 268.078 67.9964 267.889V267.849C67.9964 267.359 67.8621 266.978 67.5937 266.706C67.3285 266.434 66.9258 266.298 66.3856 266.298C65.8254 266.298 65.3863 266.421 65.0681 266.666C64.7499 266.911 64.5262 267.173 64.3969 267.452L63.2833 267.054C63.4822 266.59 63.7473 266.229 64.0787 265.97C64.4135 265.708 64.7781 265.526 65.1725 265.423C65.5702 265.317 65.9613 265.264 66.3458 265.264C66.5911 265.264 66.8728 265.294 67.191 265.354C67.5125 265.41 67.8224 265.528 68.1206 265.707C68.4223 265.886 68.6725 266.156 68.8714 266.517C69.0702 266.878 69.1697 267.362 69.1697 267.969V273H67.9964V271.966H67.9367C67.8572 272.132 67.7246 272.309 67.539 272.498C67.3534 272.687 67.1064 272.848 66.7982 272.98C66.49 273.113 66.1138 273.179 65.6697 273.179ZM65.8486 272.125C66.3126 272.125 66.7037 272.034 67.0219 271.852C67.3434 271.669 67.5854 271.434 67.7478 271.146C67.9135 270.857 67.9964 270.554 67.9964 270.236V269.162C67.9466 269.222 67.8373 269.276 67.6682 269.326C67.5025 269.372 67.3103 269.414 67.0915 269.45C66.8761 269.483 66.6656 269.513 66.4601 269.54C66.258 269.563 66.0939 269.583 65.968 269.599C65.663 269.639 65.378 269.704 65.1128 269.793C64.851 269.879 64.6389 270.01 64.4765 270.186C64.3174 270.358 64.2378 270.594 64.2378 270.892C64.2378 271.3 64.3886 271.608 64.6903 271.817C64.9952 272.022 65.3813 272.125 65.8486 272.125ZM72.4845 262.818V273H71.3112V262.818H72.4845ZM84.2982 265.364C84.2385 264.86 83.9966 264.469 83.5724 264.19C83.1481 263.912 82.6278 263.773 82.0113 263.773C81.5605 263.773 81.1661 263.846 80.828 263.991C80.4933 264.137 80.2314 264.338 80.0425 264.593C79.8569 264.848 79.7641 265.138 79.7641 265.463C79.7641 265.735 79.8287 265.969 79.958 266.164C80.0906 266.356 80.2596 266.517 80.4651 266.646C80.6706 266.772 80.886 266.877 81.1114 266.96C81.3368 267.039 81.5439 267.104 81.7329 267.153L82.767 267.432C83.0321 267.501 83.3271 267.598 83.6519 267.72C83.98 267.843 84.2932 268.01 84.5915 268.222C84.8931 268.431 85.1417 268.7 85.3373 269.028C85.5328 269.356 85.6306 269.759 85.6306 270.236C85.6306 270.786 85.4864 271.283 85.1981 271.727C84.913 272.171 84.4954 272.524 83.9452 272.786C83.3983 273.048 82.7338 273.179 81.9516 273.179C81.2224 273.179 80.5911 273.061 80.0574 272.826C79.5271 272.591 79.1095 272.263 78.8046 271.842C78.503 271.421 78.3323 270.932 78.2925 270.375H79.5653C79.5984 270.759 79.7277 271.078 79.953 271.33C80.1817 271.578 80.4701 271.764 80.8181 271.886C81.1694 272.006 81.5473 272.065 81.9516 272.065C82.4223 272.065 82.8448 271.989 83.2194 271.837C83.5939 271.681 83.8905 271.465 84.1093 271.19C84.328 270.912 84.4374 270.587 84.4374 270.216C84.4374 269.878 84.343 269.603 84.154 269.391C83.9651 269.179 83.7165 269.006 83.4083 268.874C83.1001 268.741 82.767 268.625 82.409 268.526L81.1562 268.168C80.3607 267.939 79.731 267.612 79.267 267.188C78.8029 266.764 78.5709 266.209 78.5709 265.523C78.5709 264.953 78.7251 264.455 79.0333 264.031C79.3448 263.604 79.7625 263.272 80.2861 263.037C80.8131 262.798 81.4014 262.679 82.051 262.679C82.7073 262.679 83.2906 262.797 83.801 263.032C84.3115 263.264 84.7158 263.582 85.0141 263.987C85.3157 264.391 85.4748 264.85 85.4914 265.364H84.2982ZM87.4987 273V265.364H88.672V273H87.4987ZM88.0953 264.091C87.8666 264.091 87.6694 264.013 87.5036 263.857C87.3412 263.701 87.26 263.514 87.26 263.295C87.26 263.077 87.3412 262.889 87.5036 262.734C87.6694 262.578 87.8666 262.5 88.0953 262.5C88.324 262.5 88.5195 262.578 88.6819 262.734C88.8476 262.889 88.9305 263.077 88.9305 263.295C88.9305 263.514 88.8476 263.701 88.6819 263.857C88.5195 264.013 88.324 264.091 88.0953 264.091ZM94.142 265.364V266.358H90.1846V265.364H94.142ZM91.338 263.534H92.5113V270.812C92.5113 271.144 92.5593 271.393 92.6555 271.558C92.7549 271.721 92.8808 271.83 93.0333 271.886C93.1891 271.939 93.3531 271.966 93.5255 271.966C93.6547 271.966 93.7608 271.959 93.8437 271.946C93.9265 271.929 93.9928 271.916 94.0425 271.906L94.2812 272.96C94.2016 272.99 94.0906 273.02 93.9481 273.05C93.8055 273.083 93.6249 273.099 93.4062 273.099C93.0747 273.099 92.7499 273.028 92.4317 272.886C92.1169 272.743 91.855 272.526 91.6462 272.234C91.4407 271.943 91.338 271.575 91.338 271.131V263.534ZM99.0265 273.159C98.2907 273.159 97.656 272.997 97.1224 272.672C96.5921 272.344 96.1828 271.886 95.8944 271.3C95.6094 270.71 95.4669 270.024 95.4669 269.241C95.4669 268.459 95.6094 267.77 95.8944 267.173C96.1828 266.573 96.5838 266.106 97.0976 265.771C97.6146 265.433 98.2178 265.264 98.9072 265.264C99.305 265.264 99.6977 265.33 100.085 265.463C100.473 265.596 100.826 265.811 101.144 266.109C101.463 266.404 101.716 266.795 101.905 267.283C102.094 267.77 102.188 268.37 102.188 269.082V269.58H96.3021V268.565H100.995C100.995 268.134 100.909 267.75 100.737 267.412C100.568 267.074 100.326 266.807 100.011 266.612C99.6994 266.416 99.3315 266.318 98.9072 266.318C98.4399 266.318 98.0355 266.434 97.6942 266.666C97.3561 266.895 97.0959 267.193 96.9136 267.561C96.7313 267.929 96.6402 268.323 96.6402 268.744V269.42C96.6402 269.997 96.7396 270.486 96.9385 270.887C97.1407 271.285 97.4207 271.588 97.7787 271.797C98.1366 272.002 98.5526 272.105 99.0265 272.105C99.3348 272.105 99.6132 272.062 99.8618 271.976C100.114 271.886 100.331 271.754 100.513 271.578C100.695 271.399 100.836 271.177 100.936 270.912L102.069 271.23C101.95 271.615 101.749 271.953 101.468 272.244C101.186 272.533 100.838 272.758 100.424 272.92C100.009 273.08 99.5436 273.159 99.0265 273.159ZM108.487 262.818L111.51 271.389H111.63L114.652 262.818H115.945L112.206 273H110.934L107.195 262.818H108.487ZM117.372 273V265.364H118.545V273H117.372ZM117.968 264.091C117.74 264.091 117.542 264.013 117.377 263.857C117.214 263.701 117.133 263.514 117.133 263.295C117.133 263.077 117.214 262.889 117.377 262.734C117.542 262.578 117.74 262.5 117.968 262.5C118.197 262.5 118.393 262.578 118.555 262.734C118.721 262.889 118.804 263.077 118.804 263.295C118.804 263.514 118.721 263.701 118.555 263.857C118.393 264.013 118.197 264.091 117.968 264.091ZM126.103 267.074L125.049 267.372C124.983 267.196 124.885 267.026 124.756 266.86C124.63 266.691 124.457 266.552 124.239 266.442C124.02 266.333 123.74 266.278 123.399 266.278C122.931 266.278 122.542 266.386 122.23 266.602C121.922 266.814 121.768 267.084 121.768 267.412C121.768 267.704 121.874 267.934 122.086 268.103C122.298 268.272 122.63 268.413 123.08 268.526L124.214 268.804C124.897 268.97 125.405 269.223 125.74 269.565C126.075 269.903 126.242 270.339 126.242 270.872C126.242 271.31 126.116 271.701 125.864 272.045C125.616 272.39 125.268 272.662 124.82 272.861C124.373 273.06 123.853 273.159 123.259 273.159C122.48 273.159 121.836 272.99 121.325 272.652C120.815 272.314 120.492 271.82 120.356 271.17L121.47 270.892C121.576 271.303 121.776 271.611 122.071 271.817C122.369 272.022 122.759 272.125 123.239 272.125C123.786 272.125 124.22 272.009 124.542 271.777C124.867 271.542 125.029 271.26 125.029 270.932C125.029 270.667 124.936 270.445 124.751 270.266C124.565 270.083 124.28 269.947 123.896 269.858L122.623 269.56C121.924 269.394 121.41 269.137 121.082 268.789C120.757 268.438 120.595 267.999 120.595 267.472C120.595 267.041 120.716 266.66 120.957 266.328C121.203 265.997 121.536 265.737 121.957 265.548C122.381 265.359 122.862 265.264 123.399 265.264C124.154 265.264 124.747 265.43 125.178 265.761C125.613 266.093 125.921 266.53 126.103 267.074ZM128.008 273V265.364H129.182V273H128.008ZM128.605 264.091C128.376 264.091 128.179 264.013 128.013 263.857C127.851 263.701 127.77 263.514 127.77 263.295C127.77 263.077 127.851 262.889 128.013 262.734C128.179 262.578 128.376 262.5 128.605 262.5C128.834 262.5 129.029 262.578 129.192 262.734C129.357 262.889 129.44 263.077 129.44 263.295C129.44 263.514 129.357 263.701 129.192 263.857C129.029 264.013 128.834 264.091 128.605 264.091ZM134.652 265.364V266.358H130.694V265.364H134.652ZM131.848 263.534H133.021V270.812C133.021 271.144 133.069 271.393 133.165 271.558C133.265 271.721 133.391 271.83 133.543 271.886C133.699 271.939 133.863 271.966 134.035 271.966C134.165 271.966 134.271 271.959 134.353 271.946C134.436 271.929 134.503 271.916 134.552 271.906L134.791 272.96C134.711 272.99 134.6 273.02 134.458 273.05C134.315 273.083 134.135 273.099 133.916 273.099C133.584 273.099 133.26 273.028 132.941 272.886C132.627 272.743 132.365 272.526 132.156 272.234C131.95 271.943 131.848 271.575 131.848 271.131V263.534ZM55.4779 282.364V283.358H51.5205V282.364H55.4779ZM52.6739 280.534H53.8472V287.812C53.8472 288.144 53.8953 288.393 53.9914 288.558C54.0908 288.721 54.2168 288.83 54.3692 288.886C54.525 288.939 54.6891 288.966 54.8614 288.966C54.9907 288.966 55.0967 288.959 55.1796 288.946C55.2625 288.929 55.3287 288.916 55.3785 288.906L55.6171 289.96C55.5376 289.99 55.4265 290.02 55.284 290.05C55.1415 290.083 54.9608 290.099 54.7421 290.099C54.4107 290.099 54.0858 290.028 53.7677 289.886C53.4528 289.743 53.191 289.526 52.9822 289.234C52.7767 288.943 52.6739 288.575 52.6739 288.131V280.534ZM60.2631 290.159C59.5737 290.159 58.9688 289.995 58.4484 289.667C57.9314 289.339 57.527 288.88 57.2354 288.29C56.947 287.7 56.8028 287.01 56.8028 286.222C56.8028 285.426 56.947 284.732 57.2354 284.138C57.527 283.545 57.9314 283.085 58.4484 282.756C58.9688 282.428 59.5737 282.264 60.2631 282.264C60.9524 282.264 61.5557 282.428 62.0727 282.756C62.5931 283.085 62.9974 283.545 63.2858 284.138C63.5774 284.732 63.7233 285.426 63.7233 286.222C63.7233 287.01 63.5774 287.7 63.2858 288.29C62.9974 288.88 62.5931 289.339 62.0727 289.667C61.5557 289.995 60.9524 290.159 60.2631 290.159ZM60.2631 289.105C60.7867 289.105 61.2176 288.971 61.5557 288.702C61.8937 288.434 62.144 288.081 62.3064 287.643C62.4688 287.206 62.55 286.732 62.55 286.222C62.55 285.711 62.4688 285.236 62.3064 284.795C62.144 284.354 61.8937 283.998 61.5557 283.726C61.2176 283.454 60.7867 283.318 60.2631 283.318C59.7394 283.318 59.3085 283.454 58.9704 283.726C58.6324 283.998 58.3821 284.354 58.2197 284.795C58.0573 285.236 57.9761 285.711 57.9761 286.222C57.9761 286.732 58.0573 287.206 58.2197 287.643C58.3821 288.081 58.6324 288.434 58.9704 288.702C59.3085 288.971 59.7394 289.105 60.2631 289.105ZM74.662 292.864V288.827H74.5626C74.4764 288.966 74.3538 289.142 74.1947 289.354C74.0356 289.562 73.8086 289.75 73.5136 289.915C73.2186 290.078 72.8258 290.159 72.3353 290.159C71.699 290.159 71.1372 289.998 70.6499 289.677C70.1627 289.352 69.7816 288.895 69.5065 288.305C69.2314 287.711 69.0938 287.01 69.0938 286.202C69.0938 285.4 69.2314 284.704 69.5065 284.114C69.7816 283.524 70.1644 283.068 70.6549 282.746C71.1454 282.425 71.7122 282.264 72.3552 282.264C72.8524 282.264 73.2451 282.347 73.5335 282.513C73.8251 282.675 74.0472 282.861 74.1997 283.07C74.3554 283.275 74.4764 283.444 74.5626 283.577H74.7018V282.364H75.8353V292.864H74.662ZM72.4944 289.105C72.9651 289.105 73.3628 288.982 73.6876 288.737C74.0124 288.489 74.2593 288.146 74.4284 287.708C74.5974 287.267 74.6819 286.759 74.6819 286.182C74.6819 285.612 74.599 285.113 74.4333 284.685C74.2676 284.254 74.0223 283.92 73.6975 283.681C73.3727 283.439 72.9717 283.318 72.4944 283.318C71.9972 283.318 71.5829 283.446 71.2515 283.701C70.9234 283.953 70.6765 284.296 70.5107 284.73C70.3483 285.161 70.2671 285.645 70.2671 286.182C70.2671 286.725 70.35 287.219 70.5157 287.663C70.6847 288.104 70.9333 288.455 71.2615 288.717C71.5929 288.976 72.0039 289.105 72.4944 289.105ZM82.7955 286.878V282.364H83.9688V290H82.7955V288.707H82.716C82.537 289.095 82.2586 289.425 81.8808 289.697C81.5029 289.965 81.0257 290.099 80.449 290.099C79.9717 290.099 79.5474 289.995 79.1762 289.786C78.805 289.574 78.5133 289.256 78.3012 288.832C78.0891 288.404 77.983 287.866 77.983 287.216V282.364H79.1563V287.136C79.1563 287.693 79.3121 288.137 79.6237 288.469C79.9385 288.8 80.3396 288.966 80.8268 288.966C81.1185 288.966 81.4151 288.891 81.7167 288.742C82.0216 288.593 82.2768 288.364 82.4823 288.056C82.6911 287.748 82.7955 287.355 82.7955 286.878ZM86.1178 290V282.364H87.2911V290H86.1178ZM86.7144 281.091C86.4857 281.091 86.2885 281.013 86.1228 280.857C85.9604 280.701 85.8792 280.514 85.8792 280.295C85.8792 280.077 85.9604 279.889 86.1228 279.734C86.2885 279.578 86.4857 279.5 86.7144 279.5C86.9431 279.5 87.1386 279.578 87.301 279.734C87.4668 279.889 87.5496 280.077 87.5496 280.295C87.5496 280.514 87.4668 280.701 87.301 280.857C87.1386 281.013 86.9431 281.091 86.7144 281.091ZM92.5423 290.159C91.8264 290.159 91.21 289.99 90.6929 289.652C90.1759 289.314 89.7781 288.848 89.4997 288.255C89.2213 287.662 89.0821 286.984 89.0821 286.222C89.0821 285.446 89.2246 284.762 89.5097 284.168C89.798 283.572 90.1991 283.106 90.7128 282.771C91.2298 282.433 91.8331 282.264 92.5225 282.264C93.0594 282.264 93.5433 282.364 93.9742 282.562C94.405 282.761 94.758 283.04 95.0331 283.398C95.3082 283.756 95.4789 284.173 95.5452 284.651H94.3719C94.2824 284.303 94.0835 283.994 93.7753 283.726C93.4704 283.454 93.0594 283.318 92.5423 283.318C92.085 283.318 91.6839 283.437 91.3392 283.676C90.9978 283.911 90.731 284.245 90.5388 284.675C90.3499 285.103 90.2554 285.605 90.2554 286.182C90.2554 286.772 90.3482 287.286 90.5338 287.723C90.7227 288.161 90.9879 288.5 91.3293 288.742C91.674 288.984 92.0783 289.105 92.5423 289.105C92.8473 289.105 93.124 289.052 93.3726 288.946C93.6212 288.84 93.8316 288.688 94.004 288.489C94.1763 288.29 94.299 288.051 94.3719 287.773H95.5452C95.4789 288.223 95.3148 288.629 95.053 288.991C94.7945 289.349 94.4514 289.634 94.0239 289.846C93.5996 290.055 93.1058 290.159 92.5423 290.159ZM98.3541 287.216L98.3343 285.764H98.5729L101.914 282.364H103.366L99.8058 285.963H99.7064L98.3541 287.216ZM97.2604 290V279.818H98.4337V290H97.2604ZM102.113 290L99.1297 286.222L99.9649 285.406L103.604 290H102.113ZM106.049 279.818V290H104.876V279.818H106.049ZM108.954 292.864C108.755 292.864 108.577 292.847 108.422 292.814C108.266 292.784 108.158 292.754 108.098 292.724L108.397 291.69C108.682 291.763 108.934 291.79 109.152 291.77C109.371 291.75 109.565 291.652 109.734 291.477C109.906 291.304 110.064 291.024 110.206 290.636L110.425 290.04L107.601 282.364H108.874L110.982 288.449H111.062L113.169 282.364H114.442L111.201 291.114C111.055 291.508 110.874 291.835 110.659 292.093C110.443 292.355 110.193 292.549 109.908 292.675C109.626 292.801 109.308 292.864 108.954 292.864ZM33.0318 301.074L31.9778 301.372C31.9115 301.196 31.8137 301.026 31.6845 300.86C31.5585 300.691 31.3862 300.552 31.1674 300.442C30.9487 300.333 30.6686 300.278 30.3272 300.278C29.8599 300.278 29.4705 300.386 29.1589 300.602C28.8507 300.814 28.6966 301.084 28.6966 301.412C28.6966 301.704 28.8026 301.934 29.0147 302.103C29.2269 302.272 29.5583 302.413 30.0091 302.526L31.1426 302.804C31.8253 302.97 32.3341 303.223 32.6689 303.565C33.0036 303.903 33.171 304.339 33.171 304.872C33.171 305.31 33.045 305.701 32.7931 306.045C32.5446 306.39 32.1966 306.662 31.7491 306.861C31.3017 307.06 30.7813 307.159 30.188 307.159C29.4092 307.159 28.7645 306.99 28.2541 306.652C27.7437 306.314 27.4205 305.82 27.2846 305.17L28.3983 304.892C28.5043 305.303 28.7048 305.611 28.9998 305.817C29.2981 306.022 29.6876 306.125 30.1681 306.125C30.715 306.125 31.1492 306.009 31.4707 305.777C31.7955 305.542 31.9579 305.26 31.9579 304.932C31.9579 304.667 31.8651 304.445 31.6795 304.266C31.4939 304.083 31.2089 303.947 30.8244 303.858L29.5517 303.56C28.8523 303.394 28.3386 303.137 28.0105 302.789C27.6857 302.438 27.5233 301.999 27.5233 301.472C27.5233 301.041 27.6442 300.66 27.8862 300.328C28.1315 299.997 28.4645 299.737 28.8855 299.548C29.3097 299.359 29.7903 299.264 30.3272 299.264C31.0829 299.264 31.6762 299.43 32.1071 299.761C32.5413 300.093 32.8495 300.53 33.0318 301.074ZM36.1104 302.406V307H34.9371V296.818H36.1104V300.557H36.2099C36.3888 300.162 36.6573 299.849 37.0153 299.617C37.3765 299.382 37.8571 299.264 38.457 299.264C38.9774 299.264 39.4331 299.369 39.8242 299.577C40.2153 299.783 40.5186 300.099 40.734 300.527C40.9528 300.951 41.0621 301.491 41.0621 302.148V307H39.8888V302.227C39.8888 301.621 39.7314 301.152 39.4165 300.82C39.105 300.486 38.6725 300.318 38.119 300.318C37.7345 300.318 37.3898 300.399 37.0849 300.562C36.7833 300.724 36.5446 300.961 36.369 301.273C36.1966 301.584 36.1104 301.962 36.1104 302.406ZM46.3109 307.159C45.6215 307.159 45.0166 306.995 44.4963 306.667C43.9792 306.339 43.5749 305.88 43.2832 305.29C42.9949 304.7 42.8507 304.01 42.8507 303.222C42.8507 302.426 42.9949 301.732 43.2832 301.138C43.5749 300.545 43.9792 300.085 44.4963 299.756C45.0166 299.428 45.6215 299.264 46.3109 299.264C47.0003 299.264 47.6035 299.428 48.1206 299.756C48.6409 300.085 49.0453 300.545 49.3336 301.138C49.6253 301.732 49.7711 302.426 49.7711 303.222C49.7711 304.01 49.6253 304.7 49.3336 305.29C49.0453 305.88 48.6409 306.339 48.1206 306.667C47.6035 306.995 47.0003 307.159 46.3109 307.159ZM46.3109 306.105C46.8346 306.105 47.2654 305.971 47.6035 305.702C47.9416 305.434 48.1918 305.081 48.3542 304.643C48.5166 304.206 48.5978 303.732 48.5978 303.222C48.5978 302.711 48.5166 302.236 48.3542 301.795C48.1918 301.354 47.9416 300.998 47.6035 300.726C47.2654 300.454 46.8346 300.318 46.3109 300.318C45.7872 300.318 45.3564 300.454 45.0183 300.726C44.6802 300.998 44.43 301.354 44.2676 301.795C44.1052 302.236 44.024 302.711 44.024 303.222C44.024 303.732 44.1052 304.206 44.2676 304.643C44.43 305.081 44.6802 305.434 45.0183 305.702C45.3564 305.971 45.7872 306.105 46.3109 306.105ZM51.5621 307V299.364H52.6957V300.517H52.7752C52.9144 300.139 53.1663 299.833 53.5309 299.597C53.8955 299.362 54.3065 299.244 54.7638 299.244C54.85 299.244 54.9577 299.246 55.087 299.249C55.2163 299.253 55.314 299.258 55.3803 299.264V300.457C55.3406 300.447 55.2494 300.433 55.1069 300.413C54.9677 300.389 54.8202 300.378 54.6644 300.378C54.2932 300.378 53.9618 300.456 53.6701 300.612C53.3817 300.764 53.1531 300.976 52.984 301.248C52.8183 301.516 52.7354 301.823 52.7354 302.168V307H51.5621ZM60.5707 299.364V300.358H56.6133V299.364H60.5707ZM57.7667 297.534H58.94V304.812C58.94 305.144 58.988 305.393 59.0842 305.558C59.1836 305.721 59.3095 305.83 59.462 305.886C59.6178 305.939 59.7818 305.966 59.9542 305.966C60.0835 305.966 60.1895 305.959 60.2724 305.946C60.3552 305.929 60.4215 305.916 60.4712 305.906L60.7099 306.96C60.6303 306.99 60.5193 307.02 60.3768 307.05C60.2343 307.083 60.0536 307.099 59.8349 307.099C59.5034 307.099 59.1786 307.028 58.8604 306.886C58.5456 306.743 58.2837 306.526 58.0749 306.234C57.8694 305.943 57.7667 305.575 57.7667 305.131V297.534ZM63.6729 296.818V307H62.4996V296.818H63.6729ZM65.8219 307V299.364H66.9952V307H65.8219ZM66.4185 298.091C66.1898 298.091 65.9926 298.013 65.8269 297.857C65.6645 297.701 65.5833 297.514 65.5833 297.295C65.5833 297.077 65.6645 296.889 65.8269 296.734C65.9926 296.578 66.1898 296.5 66.4185 296.5C66.6472 296.5 66.8427 296.578 67.0051 296.734C67.1709 296.889 67.2537 297.077 67.2537 297.295C67.2537 297.514 67.1709 297.701 67.0051 297.857C66.8427 298.013 66.6472 298.091 66.4185 298.091ZM74.5533 301.074L73.4993 301.372C73.433 301.196 73.3352 301.026 73.206 300.86C73.08 300.691 72.9077 300.552 72.6889 300.442C72.4702 300.333 72.1901 300.278 71.8487 300.278C71.3814 300.278 70.992 300.386 70.6804 300.602C70.3722 300.814 70.218 301.084 70.218 301.412C70.218 301.704 70.3241 301.934 70.5362 302.103C70.7483 302.272 71.0798 302.413 71.5305 302.526L72.6641 302.804C73.3468 302.97 73.8556 303.223 74.1903 303.565C74.5251 303.903 74.6925 304.339 74.6925 304.872C74.6925 305.31 74.5665 305.701 74.3146 306.045C74.0661 306.39 73.718 306.662 73.2706 306.861C72.8232 307.06 72.3028 307.159 71.7095 307.159C70.9306 307.159 70.286 306.99 69.7756 306.652C69.2652 306.314 68.942 305.82 68.8061 305.17L69.9197 304.892C70.0258 305.303 70.2263 305.611 70.5213 305.817C70.8196 306.022 71.209 306.125 71.6896 306.125C72.2365 306.125 72.6707 306.009 72.9922 305.777C73.317 305.542 73.4794 305.26 73.4794 304.932C73.4794 304.667 73.3866 304.445 73.201 304.266C73.0154 304.083 72.7304 303.947 72.3459 303.858L71.0732 303.56C70.3738 303.394 69.8601 303.137 69.532 302.789C69.2071 302.438 69.0447 301.999 69.0447 301.472C69.0447 301.041 69.1657 300.66 69.4077 300.328C69.6529 299.997 69.986 299.737 70.407 299.548C70.8312 299.359 71.3118 299.264 71.8487 299.264C72.6044 299.264 73.1977 299.43 73.6286 299.761C74.0627 300.093 74.371 300.53 74.5533 301.074ZM79.7797 299.364V300.358H75.8223V299.364H79.7797ZM76.9757 297.534H78.149V304.812C78.149 305.144 78.197 305.393 78.2931 305.558C78.3926 305.721 78.5185 305.83 78.671 305.886C78.8268 305.939 78.9908 305.966 79.1632 305.966C79.2924 305.966 79.3985 305.959 79.4814 305.946C79.5642 305.929 79.6305 305.916 79.6802 305.906L79.9189 306.96C79.8393 306.99 79.7283 307.02 79.5858 307.05C79.4432 307.083 79.2626 307.099 79.0439 307.099C78.7124 307.099 78.3876 307.028 78.0694 306.886C77.7546 306.743 77.4927 306.526 77.2839 306.234C77.0784 305.943 76.9757 305.575 76.9757 305.131V297.534ZM86.2377 309.864C86.0389 309.864 85.8616 309.847 85.7058 309.814C85.55 309.784 85.4423 309.754 85.3826 309.724L85.6809 308.69C85.966 308.763 86.2179 308.79 86.4366 308.77C86.6554 308.75 86.8493 308.652 87.0183 308.477C87.1906 308.304 87.3481 308.024 87.4906 307.636L87.7093 307.04L84.8855 299.364H86.1582L88.2662 305.449H88.3457L90.4537 299.364H91.7264L88.4849 308.114C88.3391 308.508 88.1584 308.835 87.943 309.093C87.7276 309.355 87.4773 309.549 87.1923 309.675C86.9106 309.801 86.5924 309.864 86.2377 309.864ZM96.1039 307.159C95.4145 307.159 94.8096 306.995 94.2892 306.667C93.7722 306.339 93.3678 305.88 93.0762 305.29C92.7878 304.7 92.6436 304.01 92.6436 303.222C92.6436 302.426 92.7878 301.732 93.0762 301.138C93.3678 300.545 93.7722 300.085 94.2892 299.756C94.8096 299.428 95.4145 299.264 96.1039 299.264C96.7933 299.264 97.3965 299.428 97.9135 299.756C98.4339 300.085 98.8382 300.545 99.1266 301.138C99.4183 301.732 99.5641 302.426 99.5641 303.222C99.5641 304.01 99.4183 304.7 99.1266 305.29C98.8382 305.88 98.4339 306.339 97.9135 306.667C97.3965 306.995 96.7933 307.159 96.1039 307.159ZM96.1039 306.105C96.6275 306.105 97.0584 305.971 97.3965 305.702C97.7346 305.434 97.9848 305.081 98.1472 304.643C98.3096 304.206 98.3908 303.732 98.3908 303.222C98.3908 302.711 98.3096 302.236 98.1472 301.795C97.9848 301.354 97.7346 300.998 97.3965 300.726C97.0584 300.454 96.6275 300.318 96.1039 300.318C95.5802 300.318 95.1493 300.454 94.8113 300.726C94.4732 300.998 94.223 301.354 94.0605 301.795C93.8981 302.236 93.8169 302.711 93.8169 303.222C93.8169 303.732 93.8981 304.206 94.0605 304.643C94.223 305.081 94.4732 305.434 94.8113 305.702C95.1493 305.971 95.5802 306.105 96.1039 306.105ZM106.168 303.878V299.364H107.341V307H106.168V305.707H106.088C105.909 306.095 105.631 306.425 105.253 306.697C104.875 306.965 104.398 307.099 103.821 307.099C103.344 307.099 102.92 306.995 102.548 306.786C102.177 306.574 101.885 306.256 101.673 305.832C101.461 305.404 101.355 304.866 101.355 304.216V299.364H102.528V304.136C102.528 304.693 102.684 305.137 102.996 305.469C103.311 305.8 103.712 305.966 104.199 305.966C104.491 305.966 104.787 305.891 105.089 305.742C105.394 305.593 105.649 305.364 105.854 305.056C106.063 304.748 106.168 304.355 106.168 303.878ZM109.49 307V299.364H110.623V300.517H110.703C110.842 300.139 111.094 299.833 111.459 299.597C111.823 299.362 112.234 299.244 112.692 299.244C112.778 299.244 112.885 299.246 113.015 299.249C113.144 299.253 113.242 299.258 113.308 299.264V300.457C113.268 300.447 113.177 300.433 113.035 300.413C112.895 300.389 112.748 300.378 112.592 300.378C112.221 300.378 111.89 300.456 111.598 300.612C111.309 300.764 111.081 300.976 110.912 301.248C110.746 301.516 110.663 301.823 110.663 302.168V307H109.49ZM121.957 299.364V300.358H118V299.364H121.957ZM119.153 297.534H120.327V304.812C120.327 305.144 120.375 305.393 120.471 305.558C120.57 305.721 120.696 305.83 120.849 305.886C121.004 305.939 121.169 305.966 121.341 305.966C121.47 305.966 121.576 305.959 121.659 305.946C121.742 305.929 121.808 305.916 121.858 305.906L122.097 306.96C122.017 306.99 121.906 307.02 121.763 307.05C121.621 307.083 121.44 307.099 121.222 307.099C120.89 307.099 120.565 307.028 120.247 306.886C119.932 306.743 119.67 306.526 119.462 306.234C119.256 305.943 119.153 305.575 119.153 305.131V297.534ZM126.743 307.159C126.053 307.159 125.448 306.995 124.928 306.667C124.411 306.339 124.007 305.88 123.715 305.29C123.426 304.7 123.282 304.01 123.282 303.222C123.282 302.426 123.426 301.732 123.715 301.138C124.007 300.545 124.411 300.085 124.928 299.756C125.448 299.428 126.053 299.264 126.743 299.264C127.432 299.264 128.035 299.428 128.552 299.756C129.073 300.085 129.477 300.545 129.765 301.138C130.057 301.732 130.203 302.426 130.203 303.222C130.203 304.01 130.057 304.7 129.765 305.29C129.477 305.88 129.073 306.339 128.552 306.667C128.035 306.995 127.432 307.159 126.743 307.159ZM126.743 306.105C127.266 306.105 127.697 305.971 128.035 305.702C128.373 305.434 128.623 305.081 128.786 304.643C128.948 304.206 129.029 303.732 129.029 303.222C129.029 302.711 128.948 302.236 128.786 301.795C128.623 301.354 128.373 300.998 128.035 300.726C127.697 300.454 127.266 300.318 126.743 300.318C126.219 300.318 125.788 300.454 125.45 300.726C125.112 300.998 124.862 301.354 124.699 301.795C124.537 302.236 124.456 302.711 124.456 303.222C124.456 303.732 124.537 304.206 124.699 304.643C124.862 305.081 125.112 305.434 125.45 305.702C125.788 305.971 126.219 306.105 126.743 306.105ZM131.994 309.864V299.364H133.127V300.577H133.267C133.353 300.444 133.472 300.275 133.624 300.07C133.78 299.861 134.002 299.675 134.291 299.513C134.582 299.347 134.977 299.264 135.474 299.264C136.117 299.264 136.684 299.425 137.174 299.746C137.665 300.068 138.048 300.524 138.323 301.114C138.598 301.704 138.735 302.4 138.735 303.202C138.735 304.01 138.598 304.711 138.323 305.305C138.048 305.895 137.666 306.352 137.179 306.677C136.692 306.998 136.13 307.159 135.494 307.159C135.003 307.159 134.61 307.078 134.316 306.915C134.021 306.75 133.794 306.562 133.634 306.354C133.475 306.142 133.353 305.966 133.267 305.827H133.167V309.864H131.994ZM133.147 303.182C133.147 303.759 133.232 304.267 133.401 304.708C133.57 305.146 133.817 305.489 134.142 305.737C134.466 305.982 134.864 306.105 135.335 306.105C135.825 306.105 136.235 305.976 136.563 305.717C136.894 305.455 137.143 305.104 137.308 304.663C137.477 304.219 137.562 303.725 137.562 303.182C137.562 302.645 137.479 302.161 137.313 301.73C137.151 301.296 136.904 300.953 136.573 300.701C136.244 300.446 135.832 300.318 135.335 300.318C134.857 300.318 134.456 300.439 134.132 300.681C133.807 300.92 133.561 301.254 133.396 301.685C133.23 302.113 133.147 302.612 133.147 303.182ZM52.4328 324.139C51.7765 324.139 51.1916 324.027 50.6778 323.801C50.1674 323.576 49.7614 323.263 49.4598 322.862C49.1615 322.457 48.9991 321.988 48.9726 321.455H50.2254C50.2519 321.783 50.3646 322.066 50.5635 322.305C50.7623 322.54 51.0225 322.722 51.344 322.852C51.6655 322.981 52.0218 323.045 52.4129 323.045C52.8504 323.045 53.2382 322.969 53.5763 322.817C53.9143 322.664 54.1795 322.452 54.3717 322.18C54.564 321.909 54.6601 321.594 54.6601 321.236C54.6601 320.861 54.5673 320.531 54.3817 320.246C54.1961 319.958 53.9243 319.733 53.5663 319.57C53.2084 319.408 52.7709 319.327 52.2538 319.327H51.4385V318.233H52.2538C52.6582 318.233 53.0128 318.16 53.3177 318.014C53.626 317.868 53.8663 317.663 54.0386 317.398C54.2143 317.133 54.3021 316.821 54.3021 316.463C54.3021 316.118 54.2259 315.818 54.0734 315.563C53.921 315.308 53.7055 315.109 53.4271 314.967C53.152 314.824 52.8272 314.753 52.4527 314.753C52.1014 314.753 51.7699 314.817 51.4584 314.947C51.1501 315.073 50.8982 315.257 50.7027 315.499C50.5071 315.737 50.4011 316.026 50.3845 316.364H49.1913C49.2112 315.83 49.372 315.363 49.6736 314.962C49.9752 314.557 50.3696 314.242 50.8568 314.017C51.3473 313.792 51.8859 313.679 52.4726 313.679C53.1023 313.679 53.6425 313.807 54.0933 314.062C54.5441 314.314 54.8904 314.647 55.1324 315.061C55.3743 315.475 55.4953 315.923 55.4953 316.403C55.4953 316.977 55.3445 317.466 55.0429 317.87C54.7446 318.274 54.3386 318.554 53.8248 318.71V318.79C54.4678 318.896 54.97 319.169 55.3312 319.61C55.6925 320.048 55.8731 320.589 55.8731 321.236C55.8731 321.789 55.7223 322.286 55.4207 322.727C55.1224 323.165 54.7148 323.509 54.1977 323.761C53.6807 324.013 53.0924 324.139 52.4328 324.139ZM61.8639 326.864V316.364H62.9974V317.577H63.1366C63.2228 317.444 63.3421 317.275 63.4946 317.07C63.6504 316.861 63.8724 316.675 64.1608 316.513C64.4524 316.347 64.8469 316.264 65.344 316.264C65.987 316.264 66.5538 316.425 67.0443 316.746C67.5348 317.068 67.9176 317.524 68.1927 318.114C68.4678 318.704 68.6054 319.4 68.6054 320.202C68.6054 321.01 68.4678 321.711 68.1927 322.305C67.9176 322.895 67.5365 323.352 67.0493 323.677C66.5621 323.998 66.0003 324.159 65.3639 324.159C64.8734 324.159 64.4806 324.078 64.1856 323.915C63.8907 323.75 63.6636 323.562 63.5045 323.354C63.3454 323.142 63.2228 322.966 63.1366 322.827H63.0372V326.864H61.8639ZM63.0173 320.182C63.0173 320.759 63.1018 321.267 63.2709 321.708C63.4399 322.146 63.6868 322.489 64.0116 322.737C64.3364 322.982 64.7342 323.105 65.2048 323.105C65.6953 323.105 66.1047 322.976 66.4328 322.717C66.7642 322.455 67.0128 322.104 67.1785 321.663C67.3476 321.219 67.4321 320.725 67.4321 320.182C67.4321 319.645 67.3492 319.161 67.1835 318.73C67.0211 318.296 66.7742 317.953 66.4427 317.701C66.1146 317.446 65.702 317.318 65.2048 317.318C64.7275 317.318 64.3265 317.439 64.0017 317.681C63.6769 317.92 63.4316 318.254 63.2659 318.685C63.1002 319.113 63.0173 319.612 63.0173 320.182ZM70.3952 324V316.364H71.5287V317.517H71.6082C71.7474 317.139 71.9993 316.833 72.3639 316.597C72.7285 316.362 73.1395 316.244 73.5969 316.244C73.683 316.244 73.7907 316.246 73.92 316.249C74.0493 316.253 74.147 316.258 74.2133 316.264V317.457C74.1736 317.447 74.0824 317.433 73.9399 317.413C73.8007 317.389 73.6532 317.378 73.4974 317.378C73.1262 317.378 72.7948 317.456 72.5031 317.612C72.2148 317.764 71.9861 317.976 71.817 318.248C71.6513 318.516 71.5684 318.823 71.5684 319.168V324H70.3952ZM78.474 324.159C77.7846 324.159 77.1797 323.995 76.6594 323.667C76.1423 323.339 75.738 322.88 75.4463 322.29C75.1579 321.7 75.0138 321.01 75.0138 320.222C75.0138 319.426 75.1579 318.732 75.4463 318.138C75.738 317.545 76.1423 317.085 76.6594 316.756C77.1797 316.428 77.7846 316.264 78.474 316.264C79.1634 316.264 79.7666 316.428 80.2836 316.756C80.804 317.085 81.2084 317.545 81.4967 318.138C81.7884 318.732 81.9342 319.426 81.9342 320.222C81.9342 321.01 81.7884 321.7 81.4967 322.29C81.2084 322.88 80.804 323.339 80.2836 323.667C79.7666 323.995 79.1634 324.159 78.474 324.159ZM78.474 323.105C78.9977 323.105 79.4285 322.971 79.7666 322.702C80.1047 322.434 80.3549 322.081 80.5173 321.643C80.6797 321.206 80.7609 320.732 80.7609 320.222C80.7609 319.711 80.6797 319.236 80.5173 318.795C80.3549 318.354 80.1047 317.998 79.7666 317.726C79.4285 317.454 78.9977 317.318 78.474 317.318C77.9503 317.318 77.5194 317.454 77.1814 317.726C76.8433 317.998 76.5931 318.354 76.4307 318.795C76.2683 319.236 76.1871 319.711 76.1871 320.222C76.1871 320.732 76.2683 321.206 76.4307 321.643C76.5931 322.081 76.8433 322.434 77.1814 322.702C77.5194 322.971 77.9503 323.105 78.474 323.105ZM83.7252 316.364H84.8985V324.557C84.8985 325.027 84.8173 325.435 84.6549 325.78C84.4958 326.125 84.2539 326.391 83.9291 326.58C83.6076 326.769 83.2016 326.864 82.711 326.864C82.6713 326.864 82.6315 326.864 82.5917 326.864C82.5519 326.864 82.5122 326.864 82.4724 326.864V325.77C82.5122 325.77 82.5486 325.77 82.5818 325.77C82.6149 325.77 82.6514 325.77 82.6911 325.77C83.0491 325.77 83.3109 325.664 83.4767 325.452C83.6424 325.243 83.7252 324.945 83.7252 324.557V316.364ZM84.3019 315.091C84.0732 315.091 83.876 315.013 83.7103 314.857C83.5479 314.701 83.4667 314.514 83.4667 314.295C83.4667 314.077 83.5479 313.889 83.7103 313.734C83.876 313.578 84.0732 313.5 84.3019 313.5C84.5306 313.5 84.7262 313.578 84.8886 313.734C85.0543 313.889 85.1372 314.077 85.1372 314.295C85.1372 314.514 85.0543 314.701 84.8886 314.857C84.7262 315.013 84.5306 315.091 84.3019 315.091ZM90.2492 324.159C89.5134 324.159 88.8787 323.997 88.3451 323.672C87.8148 323.344 87.4055 322.886 87.1171 322.3C86.8321 321.71 86.6895 321.024 86.6895 320.241C86.6895 319.459 86.8321 318.77 87.1171 318.173C87.4055 317.573 87.8065 317.106 88.3202 316.771C88.8373 316.433 89.4405 316.264 90.1299 316.264C90.5276 316.264 90.9204 316.33 91.3081 316.463C91.6959 316.596 92.0489 316.811 92.3671 317.109C92.6853 317.404 92.9388 317.795 93.1278 318.283C93.3167 318.77 93.4111 319.37 93.4111 320.082V320.58H87.5248V319.565H92.218C92.218 319.134 92.1318 318.75 91.9594 318.412C91.7904 318.074 91.5484 317.807 91.2336 317.612C90.922 317.416 90.5541 317.318 90.1299 317.318C89.6626 317.318 89.2582 317.434 88.9168 317.666C88.5787 317.895 88.3186 318.193 88.1363 318.561C87.954 318.929 87.8628 319.323 87.8628 319.744V320.42C87.8628 320.997 87.9623 321.486 88.1611 321.887C88.3633 322.285 88.6434 322.588 89.0013 322.797C89.3593 323.002 89.7752 323.105 90.2492 323.105C90.5574 323.105 90.8358 323.062 91.0844 322.976C91.3363 322.886 91.5534 322.754 91.7357 322.578C91.918 322.399 92.0589 322.177 92.1583 321.912L93.2918 322.23C93.1725 322.615 92.972 322.953 92.6903 323.244C92.4085 323.533 92.0605 323.758 91.6462 323.92C91.2319 324.08 90.7662 324.159 90.2492 324.159ZM98.2982 324.159C97.5823 324.159 96.9658 323.99 96.4488 323.652C95.9317 323.314 95.534 322.848 95.2556 322.255C94.9772 321.662 94.838 320.984 94.838 320.222C94.838 319.446 94.9805 318.762 95.2655 318.168C95.5539 317.572 95.9549 317.106 96.4687 316.771C96.9857 316.433 97.5889 316.264 98.2783 316.264C98.8153 316.264 99.2992 316.364 99.73 316.562C100.161 316.761 100.514 317.04 100.789 317.398C101.064 317.756 101.235 318.173 101.301 318.651H100.128C100.038 318.303 99.8394 317.994 99.5312 317.726C99.2262 317.454 98.8153 317.318 98.2982 317.318C97.8408 317.318 97.4398 317.437 97.0951 317.676C96.7537 317.911 96.4869 318.245 96.2947 318.675C96.1057 319.103 96.0113 319.605 96.0113 320.182C96.0113 320.772 96.1041 321.286 96.2897 321.723C96.4786 322.161 96.7438 322.5 97.0851 322.742C97.4298 322.984 97.8342 323.105 98.2982 323.105C98.6031 323.105 98.8799 323.052 99.1285 322.946C99.377 322.84 99.5875 322.688 99.7599 322.489C99.9322 322.29 100.055 322.051 100.128 321.773H101.301C101.235 322.223 101.071 322.629 100.809 322.991C100.55 323.349 100.207 323.634 99.7797 323.846C99.3555 324.055 98.8617 324.159 98.2982 324.159ZM106.337 316.364V317.358H102.38V316.364H106.337ZM103.533 314.534H104.707V321.812C104.707 322.144 104.755 322.393 104.851 322.558C104.95 322.721 105.076 322.83 105.229 322.886C105.384 322.939 105.548 322.966 105.721 322.966C105.85 322.966 105.956 322.959 106.039 322.946C106.122 322.929 106.188 322.916 106.238 322.906L106.476 323.96C106.397 323.99 106.286 324.02 106.143 324.05C106.001 324.083 105.82 324.099 105.601 324.099C105.27 324.099 104.945 324.028 104.627 323.886C104.312 323.743 104.05 323.526 103.842 323.234C103.636 322.943 103.533 322.575 103.533 322.131V314.534ZM113.375 318.074L112.321 318.372C112.254 318.196 112.157 318.026 112.027 317.86C111.901 317.691 111.729 317.552 111.51 317.442C111.291 317.333 111.011 317.278 110.67 317.278C110.203 317.278 109.813 317.386 109.502 317.602C109.193 317.814 109.039 318.084 109.039 318.412C109.039 318.704 109.145 318.934 109.358 319.103C109.57 319.272 109.901 319.413 110.352 319.526L111.485 319.804C112.168 319.97 112.677 320.223 113.012 320.565C113.346 320.903 113.514 321.339 113.514 321.872C113.514 322.31 113.388 322.701 113.136 323.045C112.887 323.39 112.539 323.662 112.092 323.861C111.644 324.06 111.124 324.159 110.531 324.159C109.752 324.159 109.107 323.99 108.597 323.652C108.086 323.314 107.763 322.82 107.627 322.17L108.741 321.892C108.847 322.303 109.048 322.611 109.343 322.817C109.641 323.022 110.03 323.125 110.511 323.125C111.058 323.125 111.492 323.009 111.813 322.777C112.138 322.542 112.301 322.26 112.301 321.932C112.301 321.667 112.208 321.445 112.022 321.266C111.837 321.083 111.552 320.947 111.167 320.858L109.894 320.56C109.195 320.394 108.681 320.137 108.353 319.789C108.028 319.438 107.866 318.999 107.866 318.472C107.866 318.041 107.987 317.66 108.229 317.328C108.474 316.997 108.807 316.737 109.228 316.548C109.652 316.359 110.133 316.264 110.67 316.264C111.426 316.264 112.019 316.43 112.45 316.761C112.884 317.093 113.192 317.53 113.375 318.074ZM116.135 324.08C115.89 324.08 115.679 323.992 115.504 323.816C115.328 323.64 115.24 323.43 115.24 323.185C115.24 322.939 115.328 322.729 115.504 322.553C115.679 322.378 115.89 322.29 116.135 322.29C116.38 322.29 116.591 322.378 116.766 322.553C116.942 322.729 117.03 322.939 117.03 323.185C117.03 323.347 116.988 323.496 116.906 323.632C116.826 323.768 116.718 323.877 116.582 323.96C116.45 324.04 116.301 324.08 116.135 324.08Z" fill="#222222"/>
<rect x="36.5" y="1.5" width="93" height="93" rx="38.5" fill="#FD6C31"/>
<rect x="36.5" y="1.5" width="93" height="93" rx="38.5" stroke="white" stroke-width="3"/>
<path d="M86.8867 36V60H81.8125V40.8164H81.6719L76.1758 44.2617V39.7617L82.1172 36H86.8867Z" fill="white"/>
</g>
<defs>
<filter id="filter0_i_119_796" x="0" y="0" width="166" height="424" filterUnits="userSpaceOnUse" color-interpolation-filters="sRGB">
<feFlood flood-opacity="0" result="BackgroundImageFix"/>
<feBlend mode="normal" in="SourceGraphic" in2="BackgroundImageFix" result="shape"/>
<feColorMatrix in="SourceAlpha" type="matrix" values="0 0 0 0 0 0 0 0 0 0 0 0 0 0 0 0 0 0 127 0" result="hardAlpha"/>
<feOffset/>
<feGaussianBlur stdDeviation="2"/>
<feComposite in2="hardAlpha" operator="arithmetic" k2="-1" k3="1"/>
<feColorMatrix type="matrix" values="0 0 0 0 0 0 0 0 0 0 0 0 0 0 0 0 0 0 0.25 0"/>
<feBlend mode="normal" in2="shape" result="effect1_innerShadow_119_796"/>
</filter>
</defs>
</svg>
