<svg width="166" height="424" viewBox="0 0 166 424" fill="none" xmlns="http://www.w3.org/2000/svg">
<g filter="url(#filter0_i_119_806)">
<rect y="27" width="166" height="397" rx="83" fill="#FAF8F9"/>
<path d="M33.0364 131.036H35.5455V140.855C35.5409 141.755 35.35 142.53 34.9727 143.18C34.5955 143.825 34.0682 144.323 33.3909 144.673C32.7182 145.018 31.9341 145.191 31.0386 145.191C30.2205 145.191 29.4841 145.045 28.8295 144.755C28.1795 144.459 27.6636 144.023 27.2818 143.445C26.9 142.868 26.7091 142.15 26.7091 141.291H29.225C29.2295 141.668 29.3114 141.993 29.4705 142.266C29.6341 142.539 29.8591 142.748 30.1455 142.893C30.4318 143.039 30.7614 143.111 31.1341 143.111C31.5386 143.111 31.8818 143.027 32.1636 142.859C32.4455 142.686 32.6591 142.432 32.8045 142.095C32.9545 141.759 33.0318 141.345 33.0364 140.855V131.036ZM42.7489 145.205C41.7261 145.205 40.8398 144.98 40.0898 144.53C39.3398 144.08 38.758 143.45 38.3443 142.641C37.9352 141.832 37.7307 140.886 37.7307 139.805C37.7307 138.723 37.9352 137.775 38.3443 136.961C38.758 136.148 39.3398 135.516 40.0898 135.066C40.8398 134.616 41.7261 134.391 42.7489 134.391C43.7716 134.391 44.658 134.616 45.408 135.066C46.158 135.516 46.7375 136.148 47.1466 136.961C47.5602 137.775 47.767 138.723 47.767 139.805C47.767 140.886 47.5602 141.832 47.1466 142.641C46.7375 143.45 46.158 144.08 45.408 144.53C44.658 144.98 43.7716 145.205 42.7489 145.205ZM42.7625 143.227C43.317 143.227 43.7807 143.075 44.1534 142.77C44.5261 142.461 44.8034 142.048 44.9852 141.53C45.1716 141.011 45.2648 140.434 45.2648 139.798C45.2648 139.157 45.1716 138.577 44.9852 138.059C44.8034 137.536 44.5261 137.12 44.1534 136.811C43.7807 136.502 43.317 136.348 42.7625 136.348C42.1943 136.348 41.7216 136.502 41.3443 136.811C40.9716 137.12 40.692 137.536 40.5057 138.059C40.3239 138.577 40.233 139.157 40.233 139.798C40.233 140.434 40.3239 141.011 40.5057 141.53C40.692 142.048 40.9716 142.461 41.3443 142.77C41.7216 143.075 42.1943 143.227 42.7625 143.227ZM49.8619 145V134.527H52.3301V145H49.8619ZM51.1028 133.041C50.7119 133.041 50.3756 132.911 50.0938 132.652C49.8119 132.389 49.671 132.073 49.671 131.705C49.671 131.332 49.8119 131.016 50.0938 130.757C50.3756 130.493 50.7119 130.361 51.1028 130.361C51.4983 130.361 51.8347 130.493 52.1119 130.757C52.3938 131.016 52.5347 131.332 52.5347 131.705C52.5347 132.073 52.3938 132.389 52.1119 132.652C51.8347 132.911 51.4983 133.041 51.1028 133.041ZM57.3364 138.864V145H54.8682V134.527H57.2273V136.307H57.35C57.5909 135.72 57.975 135.255 58.5023 134.909C59.0341 134.564 59.6909 134.391 60.4727 134.391C61.1955 134.391 61.825 134.545 62.3614 134.855C62.9023 135.164 63.3205 135.611 63.6159 136.198C63.9159 136.784 64.0636 137.495 64.0591 138.332V145H61.5909V138.714C61.5909 138.014 61.4091 137.466 61.0455 137.07C60.6864 136.675 60.1886 136.477 59.5523 136.477C59.1205 136.477 58.7364 136.573 58.4 136.764C58.0682 136.95 57.8068 137.22 57.6159 137.575C57.4295 137.93 57.3364 138.359 57.3364 138.864ZM74.3443 145.211C73.6807 145.211 73.083 145.093 72.5511 144.857C72.0239 144.616 71.6057 144.261 71.2966 143.793C70.992 143.325 70.8398 142.748 70.8398 142.061C70.8398 141.47 70.9489 140.982 71.167 140.595C71.3852 140.209 71.683 139.9 72.0602 139.668C72.4375 139.436 72.8625 139.261 73.3352 139.143C73.8125 139.02 74.3057 138.932 74.8148 138.877C75.4284 138.814 75.9261 138.757 76.308 138.707C76.6898 138.652 76.967 138.57 77.1398 138.461C77.317 138.348 77.4057 138.173 77.4057 137.936V137.895C77.4057 137.382 77.2534 136.984 76.9489 136.702C76.6443 136.42 76.2057 136.28 75.633 136.28C75.0284 136.28 74.5489 136.411 74.1943 136.675C73.8443 136.939 73.608 137.25 73.4852 137.609L71.1807 137.282C71.3625 136.645 71.6625 136.114 72.0807 135.686C72.4989 135.255 73.0102 134.932 73.6148 134.718C74.2193 134.5 74.8875 134.391 75.6193 134.391C76.1239 134.391 76.6261 134.45 77.1261 134.568C77.6261 134.686 78.083 134.882 78.4966 135.155C78.9102 135.423 79.242 135.789 79.492 136.252C79.7466 136.716 79.8739 137.295 79.8739 137.991V145H77.5011V143.561H77.4193C77.2693 143.852 77.058 144.125 76.7852 144.38C76.517 144.63 76.1784 144.832 75.7693 144.986C75.3648 145.136 74.8898 145.211 74.3443 145.211ZM74.9852 143.398C75.4807 143.398 75.9102 143.3 76.2739 143.105C76.6375 142.905 76.917 142.641 77.1125 142.314C77.3125 141.986 77.4125 141.63 77.4125 141.243V140.009C77.3352 140.073 77.2034 140.132 77.017 140.186C76.8352 140.241 76.6307 140.289 76.4034 140.33C76.1761 140.37 75.9511 140.407 75.7284 140.439C75.5057 140.47 75.3125 140.498 75.1489 140.52C74.7807 140.57 74.4511 140.652 74.1602 140.766C73.8693 140.88 73.6398 141.039 73.4716 141.243C73.3034 141.443 73.2193 141.702 73.2193 142.02C73.2193 142.475 73.3852 142.818 73.717 143.05C74.0489 143.282 74.4716 143.398 74.9852 143.398ZM87.2273 145V131.036H92.5727C93.5818 131.036 94.4205 131.195 95.0886 131.514C95.7614 131.827 96.2636 132.257 96.5955 132.802C96.9318 133.348 97.1 133.966 97.1 134.657C97.1 135.225 96.9909 135.711 96.7727 136.116C96.5545 136.516 96.2614 136.841 95.8932 137.091C95.525 137.341 95.1136 137.52 94.6591 137.63V137.766C95.1545 137.793 95.6295 137.945 96.0841 138.223C96.5432 138.495 96.9182 138.882 97.2091 139.382C97.5 139.882 97.6455 140.486 97.6455 141.195C97.6455 141.918 97.4705 142.568 97.1205 143.145C96.7705 143.718 96.2432 144.17 95.5386 144.502C94.8341 144.834 93.9477 145 92.8795 145H87.2273ZM89.7568 142.886H92.4773C93.3955 142.886 94.0568 142.711 94.4614 142.361C94.8705 142.007 95.075 141.552 95.075 140.998C95.075 140.584 94.9727 140.211 94.7682 139.88C94.5636 139.543 94.2727 139.28 93.8955 139.089C93.5182 138.893 93.0682 138.795 92.5455 138.795H89.7568V142.886ZM89.7568 136.975H92.2591C92.6955 136.975 93.0886 136.895 93.4386 136.736C93.7886 136.573 94.0636 136.343 94.2636 136.048C94.4682 135.748 94.5705 135.393 94.5705 134.984C94.5705 134.443 94.3795 133.998 93.9977 133.648C93.6205 133.298 93.0591 133.123 92.3136 133.123H89.7568V136.975ZM106.412 140.595V134.527H108.88V145H106.487V143.139H106.378C106.141 143.725 105.753 144.205 105.212 144.577C104.676 144.95 104.014 145.136 103.228 145.136C102.541 145.136 101.935 144.984 101.407 144.68C100.885 144.37 100.476 143.923 100.18 143.336C99.8847 142.745 99.7369 142.032 99.7369 141.195V134.527H102.205V140.814C102.205 141.477 102.387 142.005 102.751 142.395C103.114 142.786 103.591 142.982 104.182 142.982C104.546 142.982 104.898 142.893 105.239 142.716C105.58 142.539 105.86 142.275 106.078 141.925C106.301 141.57 106.412 141.127 106.412 140.595ZM112.952 148.927C112.616 148.927 112.305 148.9 112.018 148.845C111.736 148.795 111.511 148.736 111.343 148.668L111.916 146.745C112.275 146.85 112.595 146.9 112.877 146.895C113.159 146.891 113.407 146.802 113.62 146.63C113.839 146.461 114.023 146.18 114.173 145.784L114.384 145.218L110.586 134.527H113.205L115.618 142.436H115.727L118.148 134.527H120.773L116.58 146.268C116.384 146.823 116.125 147.298 115.802 147.693C115.48 148.093 115.084 148.398 114.616 148.607C114.152 148.82 113.598 148.927 112.952 148.927ZM126.761 145.205C125.711 145.205 124.804 144.986 124.04 144.55C123.281 144.109 122.697 143.486 122.288 142.682C121.879 141.873 121.674 140.92 121.674 139.825C121.674 138.748 121.879 137.802 122.288 136.989C122.702 136.17 123.279 135.534 124.02 135.08C124.761 134.62 125.631 134.391 126.631 134.391C127.277 134.391 127.886 134.495 128.459 134.705C129.036 134.909 129.545 135.227 129.986 135.659C130.431 136.091 130.781 136.641 131.036 137.309C131.29 137.973 131.418 138.764 131.418 139.682V140.439H122.834V138.775H129.052C129.047 138.302 128.945 137.882 128.745 137.514C128.545 137.141 128.265 136.848 127.906 136.634C127.552 136.42 127.138 136.314 126.665 136.314C126.161 136.314 125.718 136.436 125.336 136.682C124.954 136.923 124.656 137.241 124.443 137.636C124.234 138.027 124.127 138.457 124.122 138.925V140.377C124.122 140.986 124.234 141.509 124.456 141.945C124.679 142.377 124.99 142.709 125.39 142.941C125.79 143.168 126.259 143.282 126.795 143.282C127.154 143.282 127.479 143.232 127.77 143.132C128.061 143.027 128.313 142.875 128.527 142.675C128.74 142.475 128.902 142.227 129.011 141.932L131.315 142.191C131.17 142.8 130.893 143.332 130.484 143.786C130.079 144.236 129.561 144.586 128.929 144.836C128.297 145.082 127.574 145.205 126.761 145.205ZM133.506 145V134.527H135.899V136.273H136.008C136.199 135.668 136.526 135.202 136.99 134.875C137.458 134.543 137.992 134.377 138.592 134.377C138.728 134.377 138.881 134.384 139.049 134.398C139.222 134.407 139.365 134.423 139.478 134.445V136.716C139.374 136.68 139.208 136.648 138.981 136.62C138.758 136.589 138.542 136.573 138.333 136.573C137.883 136.573 137.478 136.67 137.119 136.866C136.765 137.057 136.485 137.323 136.281 137.664C136.076 138.005 135.974 138.398 135.974 138.843V145H133.506ZM65.2131 158.495C65.0994 158.127 64.9426 157.798 64.7426 157.507C64.5472 157.211 64.3108 156.959 64.0335 156.75C63.7608 156.541 63.4472 156.384 63.0926 156.28C62.7381 156.17 62.3517 156.116 61.9335 156.116C61.1835 156.116 60.5153 156.305 59.929 156.682C59.3426 157.059 58.8812 157.614 58.5449 158.345C58.2131 159.073 58.0472 159.959 58.0472 161.005C58.0472 162.059 58.2131 162.952 58.5449 163.684C58.8767 164.416 59.3381 164.973 59.929 165.355C60.5199 165.732 61.2062 165.92 61.9881 165.92C62.6972 165.92 63.3108 165.784 63.829 165.511C64.3517 165.239 64.754 164.852 65.0358 164.352C65.3176 163.848 65.4585 163.257 65.4585 162.58L66.0312 162.668H62.2403V160.691H67.9062V162.368C67.9062 163.564 67.6517 164.598 67.1426 165.47C66.6335 166.343 65.9335 167.016 65.0426 167.489C64.1517 167.957 63.129 168.191 61.9744 168.191C60.6881 168.191 59.5585 167.902 58.5858 167.325C57.6176 166.743 56.8608 165.918 56.3153 164.85C55.7744 163.777 55.504 162.505 55.504 161.032C55.504 159.905 55.6631 158.898 55.9812 158.011C56.304 157.125 56.754 156.373 57.3312 155.755C57.9085 155.132 58.5858 154.659 59.3631 154.336C60.1403 154.009 60.9858 153.845 61.8994 153.845C62.6722 153.845 63.3926 153.959 64.0608 154.186C64.729 154.409 65.3222 154.727 65.8403 155.141C66.3631 155.555 66.7926 156.045 67.129 156.614C67.4653 157.182 67.6858 157.809 67.7903 158.495H65.2131ZM70.2432 168V157.527H72.6364V159.273H72.7455C72.9364 158.668 73.2636 158.202 73.7273 157.875C74.1955 157.543 74.7295 157.377 75.3295 157.377C75.4659 157.377 75.6182 157.384 75.7864 157.398C75.9591 157.407 76.1023 157.423 76.2159 157.445V159.716C76.1114 159.68 75.9455 159.648 75.7182 159.62C75.4955 159.589 75.2795 159.573 75.0705 159.573C74.6205 159.573 74.2159 159.67 73.8568 159.866C73.5023 160.057 73.2227 160.323 73.0182 160.664C72.8136 161.005 72.7114 161.398 72.7114 161.843V168H70.2432ZM81.9926 168.205C80.9699 168.205 80.0835 167.98 79.3335 167.53C78.5835 167.08 78.0017 166.45 77.5881 165.641C77.179 164.832 76.9744 163.886 76.9744 162.805C76.9744 161.723 77.179 160.775 77.5881 159.961C78.0017 159.148 78.5835 158.516 79.3335 158.066C80.0835 157.616 80.9699 157.391 81.9926 157.391C83.0153 157.391 83.9017 157.616 84.6517 158.066C85.4017 158.516 85.9813 159.148 86.3903 159.961C86.804 160.775 87.0108 161.723 87.0108 162.805C87.0108 163.886 86.804 164.832 86.3903 165.641C85.9813 166.45 85.4017 167.08 84.6517 167.53C83.9017 167.98 83.0153 168.205 81.9926 168.205ZM82.0063 166.227C82.5608 166.227 83.0244 166.075 83.3972 165.77C83.7699 165.461 84.0472 165.048 84.229 164.53C84.4153 164.011 84.5085 163.434 84.5085 162.798C84.5085 162.157 84.4153 161.577 84.229 161.059C84.0472 160.536 83.7699 160.12 83.3972 159.811C83.0244 159.502 82.5608 159.348 82.0063 159.348C81.4381 159.348 80.9653 159.502 80.5881 159.811C80.2153 160.12 79.9358 160.536 79.7494 161.059C79.5676 161.577 79.4767 162.157 79.4767 162.798C79.4767 163.434 79.5676 164.011 79.7494 164.53C79.9358 165.048 80.2153 165.461 80.5881 165.77C80.9653 166.075 81.4381 166.227 82.0063 166.227ZM95.7807 163.595V157.527H98.2489V168H95.8557V166.139H95.7466C95.5102 166.725 95.1216 167.205 94.5807 167.577C94.0443 167.95 93.383 168.136 92.5966 168.136C91.9102 168.136 91.3034 167.984 90.7761 167.68C90.2534 167.37 89.8443 166.923 89.5489 166.336C89.2534 165.745 89.1057 165.032 89.1057 164.195V157.527H91.5739V163.814C91.5739 164.477 91.7557 165.005 92.1193 165.395C92.483 165.786 92.9602 165.982 93.5511 165.982C93.9148 165.982 94.267 165.893 94.608 165.716C94.9489 165.539 95.2284 165.275 95.4466 164.925C95.6693 164.57 95.7807 164.127 95.7807 163.595ZM100.787 171.927V157.527H103.214V159.259H103.357C103.485 159.005 103.664 158.734 103.896 158.448C104.128 158.157 104.441 157.909 104.837 157.705C105.232 157.495 105.737 157.391 106.351 157.391C107.16 157.391 107.889 157.598 108.539 158.011C109.194 158.42 109.712 159.027 110.094 159.832C110.48 160.632 110.673 161.614 110.673 162.777C110.673 163.927 110.485 164.905 110.107 165.709C109.73 166.514 109.216 167.127 108.566 167.55C107.916 167.973 107.18 168.184 106.357 168.184C105.757 168.184 105.26 168.084 104.864 167.884C104.469 167.684 104.151 167.443 103.91 167.161C103.673 166.875 103.489 166.605 103.357 166.35H103.255V171.927H100.787ZM103.207 162.764C103.207 163.441 103.303 164.034 103.494 164.543C103.689 165.052 103.969 165.45 104.332 165.736C104.701 166.018 105.146 166.159 105.669 166.159C106.214 166.159 106.671 166.014 107.039 165.723C107.407 165.427 107.685 165.025 107.871 164.516C108.062 164.002 108.157 163.418 108.157 162.764C108.157 162.114 108.064 161.536 107.878 161.032C107.691 160.527 107.414 160.132 107.046 159.845C106.678 159.559 106.219 159.416 105.669 159.416C105.141 159.416 104.694 159.555 104.326 159.832C103.957 160.109 103.678 160.498 103.487 160.998C103.301 161.498 103.207 162.086 103.207 162.764Z" fill="#FD6C31"/>
<path d="M52.4974 214.364C52.4378 213.86 52.1958 213.469 51.7716 213.19C51.3473 212.912 50.827 212.773 50.2105 212.773C49.7597 212.773 49.3653 212.846 49.0273 212.991C48.6925 213.137 48.4307 213.338 48.2417 213.593C48.0561 213.848 47.9633 214.138 47.9633 214.463C47.9633 214.735 48.028 214.969 48.1572 215.164C48.2898 215.356 48.4588 215.517 48.6643 215.646C48.8698 215.772 49.0853 215.877 49.3106 215.96C49.536 216.039 49.7432 216.104 49.9321 216.153L50.9662 216.432C51.2313 216.501 51.5263 216.598 51.8511 216.72C52.1792 216.843 52.4925 217.01 52.7907 217.222C53.0924 217.431 53.3409 217.7 53.5365 218.028C53.732 218.356 53.8298 218.759 53.8298 219.236C53.8298 219.786 53.6856 220.283 53.3973 220.727C53.1122 221.171 52.6946 221.524 52.1444 221.786C51.5976 222.048 50.933 222.179 50.1508 222.179C49.4217 222.179 48.7903 222.061 48.2567 221.826C47.7264 221.591 47.3087 221.263 47.0038 220.842C46.7022 220.421 46.5315 219.932 46.4917 219.375H47.7645C47.7976 219.759 47.9269 220.078 48.1523 220.33C48.3809 220.578 48.6693 220.764 49.0173 220.886C49.3686 221.006 49.7465 221.065 50.1508 221.065C50.6215 221.065 51.0441 220.989 51.4186 220.837C51.7931 220.681 52.0898 220.465 52.3085 220.19C52.5273 219.912 52.6366 219.587 52.6366 219.216C52.6366 218.878 52.5422 218.603 52.3532 218.391C52.1643 218.179 51.9157 218.006 51.6075 217.874C51.2993 217.741 50.9662 217.625 50.6082 217.526L49.3554 217.168C48.5599 216.939 47.9302 216.612 47.4662 216.188C47.0022 215.764 46.7702 215.209 46.7702 214.523C46.7702 213.953 46.9243 213.455 47.2325 213.031C47.5441 212.604 47.9617 212.272 48.4854 212.037C49.0123 211.798 49.6006 211.679 50.2503 211.679C50.9065 211.679 51.4898 211.797 52.0003 212.032C52.5107 212.264 52.915 212.582 53.2133 212.987C53.5149 213.391 53.674 213.85 53.6906 214.364H52.4974ZM58.8996 222.159C58.1638 222.159 57.5291 221.997 56.9955 221.672C56.4652 221.344 56.0558 220.886 55.7675 220.3C55.4825 219.71 55.3399 219.024 55.3399 218.241C55.3399 217.459 55.4825 216.77 55.7675 216.173C56.0558 215.573 56.4569 215.106 56.9706 214.771C57.4877 214.433 58.0909 214.264 58.7803 214.264C59.178 214.264 59.5708 214.33 59.9585 214.463C60.3463 214.596 60.6993 214.811 61.0175 215.109C61.3357 215.404 61.5892 215.795 61.7781 216.283C61.9671 216.77 62.0615 217.37 62.0615 218.082V218.58H56.1752V217.565H60.8683C60.8683 217.134 60.7822 216.75 60.6098 216.412C60.4408 216.074 60.1988 215.807 59.884 215.612C59.5724 215.416 59.2045 215.318 58.7803 215.318C58.3129 215.318 57.9086 215.434 57.5672 215.666C57.2291 215.895 56.969 216.193 56.7867 216.561C56.6044 216.929 56.5132 217.323 56.5132 217.744V218.42C56.5132 218.997 56.6127 219.486 56.8115 219.887C57.0137 220.285 57.2938 220.588 57.6517 220.797C58.0097 221.002 58.4256 221.105 58.8996 221.105C59.2078 221.105 59.4862 221.062 59.7348 220.976C59.9867 220.886 60.2038 220.754 60.3861 220.578C60.5684 220.399 60.7093 220.177 60.8087 219.912L61.9422 220.23C61.8229 220.615 61.6224 220.953 61.3406 221.244C61.0589 221.533 60.7109 221.758 60.2966 221.92C59.8823 222.08 59.4166 222.159 58.8996 222.159ZM65.0196 211.818V222H63.8463V211.818H65.0196ZM70.3703 222.159C69.6345 222.159 68.9998 221.997 68.4662 221.672C67.9359 221.344 67.5265 220.886 67.2382 220.3C66.9532 219.71 66.8106 219.024 66.8106 218.241C66.8106 217.459 66.9532 216.77 67.2382 216.173C67.5265 215.573 67.9276 215.106 68.4413 214.771C68.9584 214.433 69.5616 214.264 70.251 214.264C70.6487 214.264 71.0415 214.33 71.4292 214.463C71.817 214.596 72.17 214.811 72.4882 215.109C72.8064 215.404 73.0599 215.795 73.2488 216.283C73.4378 216.77 73.5322 217.37 73.5322 218.082V218.58H67.6459V217.565H72.339C72.339 217.134 72.2529 216.75 72.0805 216.412C71.9115 216.074 71.6695 215.807 71.3547 215.612C71.0431 215.416 70.6752 215.318 70.251 215.318C69.7836 215.318 69.3793 215.434 69.0379 215.666C68.6998 215.895 68.4397 216.193 68.2574 216.561C68.0751 216.929 67.9839 217.323 67.9839 217.744V218.42C67.9839 218.997 68.0834 219.486 68.2822 219.887C68.4844 220.285 68.7645 220.588 69.1224 220.797C69.4804 221.002 69.8963 221.105 70.3703 221.105C70.6785 221.105 70.9569 221.062 71.2055 220.976C71.4574 220.886 71.6745 220.754 71.8568 220.578C72.0391 220.399 72.18 220.177 72.2794 219.912L73.4129 220.23C73.2936 220.615 73.0931 220.953 72.8113 221.244C72.5296 221.533 72.1816 221.758 71.7673 221.92C71.353 222.08 70.8873 222.159 70.3703 222.159ZM78.4193 222.159C77.7034 222.159 77.0869 221.99 76.5699 221.652C76.0528 221.314 75.6551 220.848 75.3767 220.255C75.0983 219.662 74.9591 218.984 74.9591 218.222C74.9591 217.446 75.1016 216.762 75.3866 216.168C75.675 215.572 76.076 215.106 76.5898 214.771C77.1068 214.433 77.71 214.264 78.3994 214.264C78.9363 214.264 79.4202 214.364 79.8511 214.562C80.282 214.761 80.635 215.04 80.9101 215.398C81.1852 215.756 81.3559 216.173 81.4221 216.651H80.2488C80.1594 216.303 79.9605 215.994 79.6523 215.726C79.3473 215.454 78.9363 215.318 78.4193 215.318C77.9619 215.318 77.5609 215.437 77.2162 215.676C76.8748 215.911 76.608 216.245 76.4157 216.675C76.2268 217.103 76.1324 217.605 76.1324 218.182C76.1324 218.772 76.2252 219.286 76.4108 219.723C76.5997 220.161 76.8648 220.5 77.2062 220.742C77.5509 220.984 77.9553 221.105 78.4193 221.105C78.7242 221.105 79.001 221.052 79.2496 220.946C79.4981 220.84 79.7086 220.688 79.8809 220.489C80.0533 220.29 80.1759 220.051 80.2488 219.773H81.4221C81.3559 220.223 81.1918 220.629 80.93 220.991C80.6714 221.349 80.3284 221.634 79.9008 221.846C79.4766 222.055 78.9827 222.159 78.4193 222.159ZM86.4584 214.364V215.358H82.501V214.364H86.4584ZM83.6544 212.534H84.8277V219.812C84.8277 220.144 84.8757 220.393 84.9719 220.558C85.0713 220.721 85.1972 220.83 85.3497 220.886C85.5055 220.939 85.6695 220.966 85.8419 220.966C85.9711 220.966 86.0772 220.959 86.1601 220.946C86.2429 220.929 86.3092 220.916 86.3589 220.906L86.5976 221.96C86.518 221.99 86.407 222.02 86.2645 222.05C86.122 222.083 85.9413 222.099 85.7226 222.099C85.3911 222.099 85.0663 222.028 84.7481 221.886C84.4333 221.743 84.1714 221.526 83.9626 221.234C83.7571 220.943 83.6544 220.575 83.6544 220.131V212.534ZM92.9165 224.864C92.7176 224.864 92.5403 224.847 92.3845 224.814C92.2287 224.784 92.121 224.754 92.0613 224.724L92.3596 223.69C92.6447 223.763 92.8966 223.79 93.1153 223.77C93.3341 223.75 93.528 223.652 93.697 223.477C93.8693 223.304 94.0268 223.024 94.1693 222.636L94.3881 222.04L91.5642 214.364H92.8369L94.9449 220.449H95.0244L97.1324 214.364H98.4051L95.1636 223.114C95.0178 223.508 94.8372 223.835 94.6217 224.093C94.4063 224.355 94.156 224.549 93.871 224.675C93.5893 224.801 93.2711 224.864 92.9165 224.864ZM102.783 222.159C102.093 222.159 101.488 221.995 100.968 221.667C100.451 221.339 100.047 220.88 99.7549 220.29C99.4665 219.7 99.3224 219.01 99.3224 218.222C99.3224 217.426 99.4665 216.732 99.7549 216.138C100.047 215.545 100.451 215.085 100.968 214.756C101.488 214.428 102.093 214.264 102.783 214.264C103.472 214.264 104.075 214.428 104.592 214.756C105.113 215.085 105.517 215.545 105.805 216.138C106.097 216.732 106.243 217.426 106.243 218.222C106.243 219.01 106.097 219.7 105.805 220.29C105.517 220.88 105.113 221.339 104.592 221.667C104.075 221.995 103.472 222.159 102.783 222.159ZM102.783 221.105C103.306 221.105 103.737 220.971 104.075 220.702C104.413 220.434 104.664 220.081 104.826 219.643C104.988 219.206 105.07 218.732 105.07 218.222C105.07 217.711 104.988 217.236 104.826 216.795C104.664 216.354 104.413 215.998 104.075 215.726C103.737 215.454 103.306 215.318 102.783 215.318C102.259 215.318 101.828 215.454 101.49 215.726C101.152 215.998 100.902 216.354 100.739 216.795C100.577 217.236 100.496 217.711 100.496 218.222C100.496 218.732 100.577 219.206 100.739 219.643C100.902 220.081 101.152 220.434 101.49 220.702C101.828 220.971 102.259 221.105 102.783 221.105ZM112.846 218.878V214.364H114.02V222H112.846V220.707H112.767C112.588 221.095 112.309 221.425 111.932 221.697C111.554 221.965 111.076 222.099 110.5 222.099C110.022 222.099 109.598 221.995 109.227 221.786C108.856 221.574 108.564 221.256 108.352 220.832C108.14 220.404 108.034 219.866 108.034 219.216V214.364H109.207V219.136C109.207 219.693 109.363 220.137 109.674 220.469C109.989 220.8 110.39 220.966 110.878 220.966C111.169 220.966 111.466 220.891 111.767 220.742C112.072 220.593 112.328 220.364 112.533 220.056C112.742 219.748 112.846 219.355 112.846 218.878ZM116.169 222V214.364H117.302V215.517H117.382C117.521 215.139 117.773 214.833 118.137 214.597C118.502 214.362 118.913 214.244 119.37 214.244C119.456 214.244 119.564 214.246 119.693 214.249C119.823 214.253 119.92 214.258 119.987 214.264V215.457C119.947 215.447 119.856 215.433 119.713 215.413C119.574 215.389 119.427 215.378 119.271 215.378C118.9 215.378 118.568 215.456 118.277 215.612C117.988 215.764 117.759 215.976 117.59 216.248C117.425 216.516 117.342 216.823 117.342 217.168V222H116.169ZM32.8522 241.864V231.364H33.9857V232.577H34.1249C34.2111 232.444 34.3304 232.275 34.4829 232.07C34.6386 231.861 34.8607 231.675 35.1491 231.513C35.4407 231.347 35.8351 231.264 36.3323 231.264C36.9753 231.264 37.5421 231.425 38.0326 231.746C38.5231 232.068 38.9059 232.524 39.181 233.114C39.4561 233.704 39.5937 234.4 39.5937 235.202C39.5937 236.01 39.4561 236.711 39.181 237.305C38.9059 237.895 38.5248 238.352 38.0376 238.677C37.5503 238.998 36.9885 239.159 36.3522 239.159C35.8617 239.159 35.4689 239.078 35.1739 238.915C34.8789 238.75 34.6519 238.562 34.4928 238.354C34.3337 238.142 34.2111 237.966 34.1249 237.827H34.0255V241.864H32.8522ZM34.0056 235.182C34.0056 235.759 34.0901 236.267 34.2591 236.708C34.4282 237.146 34.6751 237.489 34.9999 237.737C35.3247 237.982 35.7224 238.105 36.1931 238.105C36.6836 238.105 37.093 237.976 37.4211 237.717C37.7525 237.455 38.0011 237.104 38.1668 236.663C38.3358 236.219 38.4204 235.725 38.4204 235.182C38.4204 234.645 38.3375 234.161 38.1718 233.73C38.0094 233.296 37.7625 232.953 37.431 232.701C37.1029 232.446 36.6903 232.318 36.1931 232.318C35.7158 232.318 35.3148 232.439 34.99 232.681C34.6652 232.92 34.4199 233.254 34.2542 233.685C34.0885 234.113 34.0056 234.612 34.0056 235.182ZM41.3834 239V231.364H42.517V232.517H42.5965C42.7357 232.139 42.9876 231.833 43.3522 231.597C43.7168 231.362 44.1278 231.244 44.5851 231.244C44.6713 231.244 44.779 231.246 44.9083 231.249C45.0376 231.253 45.1353 231.258 45.2016 231.264V232.457C45.1618 232.447 45.0707 232.433 44.9282 232.413C44.789 232.389 44.6415 232.378 44.4857 232.378C44.1145 232.378 43.7831 232.456 43.4914 232.612C43.203 232.764 42.9743 232.976 42.8053 233.248C42.6396 233.516 42.5567 233.823 42.5567 234.168V239H41.3834ZM49.5617 239.159C48.8259 239.159 48.1912 238.997 47.6576 238.672C47.1273 238.344 46.718 237.886 46.4296 237.3C46.1446 236.71 46.002 236.024 46.002 235.241C46.002 234.459 46.1446 233.77 46.4296 233.173C46.718 232.573 47.119 232.106 47.6327 231.771C48.1498 231.433 48.753 231.264 49.4424 231.264C49.8401 231.264 50.2329 231.33 50.6206 231.463C51.0084 231.596 51.3614 231.811 51.6796 232.109C51.9978 232.404 52.2513 232.795 52.4403 233.283C52.6292 233.77 52.7236 234.37 52.7236 235.082V235.58H46.8373V234.565H51.5305C51.5305 234.134 51.4443 233.75 51.2719 233.412C51.1029 233.074 50.8609 232.807 50.5461 232.612C50.2345 232.416 49.8666 232.318 49.4424 232.318C48.9751 232.318 48.5707 232.434 48.2293 232.666C47.8912 232.895 47.6311 233.193 47.4488 233.561C47.2665 233.929 47.1753 234.323 47.1753 234.744V235.42C47.1753 235.997 47.2748 236.486 47.4736 236.887C47.6758 237.285 47.9559 237.588 48.3138 237.797C48.6718 238.002 49.0877 238.105 49.5617 238.105C49.8699 238.105 50.1483 238.062 50.3969 237.976C50.6488 237.886 50.8659 237.754 51.0482 237.578C51.2305 237.399 51.3714 237.177 51.4708 236.912L52.6043 237.23C52.485 237.615 52.2845 237.953 52.0028 238.244C51.721 238.533 51.373 238.758 50.9587 238.92C50.5444 239.08 50.0787 239.159 49.5617 239.159ZM57.909 231.364V232.358H53.7925V231.364H57.909ZM55.0255 239V230.31C55.0255 229.872 55.1282 229.508 55.3337 229.216C55.5392 228.924 55.806 228.705 56.1341 228.56C56.4623 228.414 56.8086 228.341 57.1732 228.341C57.4616 228.341 57.6969 228.364 57.8792 228.411C58.0615 228.457 58.1974 228.5 58.2868 228.54L57.9488 229.554C57.8891 229.534 57.8063 229.509 57.7002 229.479C57.5974 229.45 57.4616 229.435 57.2925 229.435C56.9047 229.435 56.6247 229.532 56.4523 229.728C56.2833 229.924 56.1988 230.21 56.1988 230.588V239H55.0255ZM62.4406 239.159C61.7048 239.159 61.0701 238.997 60.5365 238.672C60.0062 238.344 59.5969 237.886 59.3085 237.3C59.0235 236.71 58.8809 236.024 58.8809 235.241C58.8809 234.459 59.0235 233.77 59.3085 233.173C59.5969 232.573 59.9979 232.106 60.5116 231.771C61.0287 231.433 61.6319 231.264 62.3213 231.264C62.719 231.264 63.1118 231.33 63.4996 231.463C63.8873 231.596 64.2403 231.811 64.5585 232.109C64.8767 232.404 65.1302 232.795 65.3192 233.283C65.5081 233.77 65.6025 234.37 65.6025 235.082V235.58H59.7162V234.565H64.4094C64.4094 234.134 64.3232 233.75 64.1508 233.412C63.9818 233.074 63.7398 232.807 63.425 232.612C63.1134 232.416 62.7455 232.318 62.3213 232.318C61.854 232.318 61.4496 232.434 61.1082 232.666C60.7702 232.895 60.51 233.193 60.3277 233.561C60.1454 233.929 60.0542 234.323 60.0542 234.744V235.42C60.0542 235.997 60.1537 236.486 60.3525 236.887C60.5547 237.285 60.8348 237.588 61.1927 237.797C61.5507 238.002 61.9666 238.105 62.4406 238.105C62.7488 238.105 63.0273 238.062 63.2758 237.976C63.5277 237.886 63.7448 237.754 63.9271 237.578C64.1094 237.399 64.2503 237.177 64.3497 236.912L65.4832 237.23C65.3639 237.615 65.1634 237.953 64.8817 238.244C64.5999 238.533 64.2519 238.758 63.8376 238.92C63.4233 239.08 62.9577 239.159 62.4406 239.159ZM67.3873 239V231.364H68.5209V232.517H68.6004C68.7396 232.139 68.9915 231.833 69.3561 231.597C69.7207 231.362 70.1317 231.244 70.589 231.244C70.6752 231.244 70.7829 231.246 70.9122 231.249C71.0415 231.253 71.1392 231.258 71.2055 231.264V232.457C71.1657 232.447 71.0746 232.433 70.9321 232.413C70.7929 232.389 70.6454 232.378 70.4896 232.378C70.1184 232.378 69.787 232.456 69.4953 232.612C69.2069 232.764 68.9782 232.976 68.8092 233.248C68.6435 233.516 68.5606 233.823 68.5606 234.168V239H67.3873ZM72.5963 239V231.364H73.7298V232.517H73.8094C73.9486 232.139 74.2005 231.833 74.5651 231.597C74.9297 231.362 75.3406 231.244 75.798 231.244C75.8842 231.244 75.9919 231.246 76.1212 231.249C76.2504 231.253 76.3482 231.258 76.4145 231.264V232.457C76.3747 232.447 76.2836 232.433 76.1411 232.413C76.0019 232.389 75.8544 232.378 75.6986 232.378C75.3274 232.378 74.9959 232.456 74.7043 232.612C74.4159 232.764 74.1872 232.976 74.0182 233.248C73.8525 233.516 73.7696 233.823 73.7696 234.168V239H72.5963ZM80.7746 239.159C80.0388 239.159 79.4041 238.997 78.8705 238.672C78.3402 238.344 77.9308 237.886 77.6425 237.3C77.3575 236.71 77.2149 236.024 77.2149 235.241C77.2149 234.459 77.3575 233.77 77.6425 233.173C77.9308 232.573 78.3319 232.106 78.8456 231.771C79.3627 231.433 79.9659 231.264 80.6553 231.264C81.053 231.264 81.4458 231.33 81.8335 231.463C82.2213 231.596 82.5743 231.811 82.8925 232.109C83.2107 232.404 83.4642 232.795 83.6531 233.283C83.8421 233.77 83.9365 234.37 83.9365 235.082V235.58H78.0502V234.565H82.7433C82.7433 234.134 82.6572 233.75 82.4848 233.412C82.3158 233.074 82.0738 232.807 81.759 232.612C81.4474 232.416 81.0795 232.318 80.6553 232.318C80.1879 232.318 79.7836 232.434 79.4422 232.666C79.1041 232.895 78.844 233.193 78.6617 233.561C78.4794 233.929 78.3882 234.323 78.3882 234.744V235.42C78.3882 235.997 78.4877 236.486 78.6865 236.887C78.8887 237.285 79.1688 237.588 79.5267 237.797C79.8847 238.002 80.3006 238.105 80.7746 238.105C81.0828 238.105 81.3612 238.062 81.6098 237.976C81.8617 237.886 82.0788 237.754 82.2611 237.578C82.4434 237.399 82.5843 237.177 82.6837 236.912L83.8172 237.23C83.6979 237.615 83.4974 237.953 83.2156 238.244C82.9339 238.533 82.5859 238.758 82.1716 238.92C81.7573 239.08 81.2916 239.159 80.7746 239.159ZM88.6048 239.159C87.9685 239.159 87.4067 238.998 86.9195 238.677C86.4323 238.352 86.0511 237.895 85.776 237.305C85.5009 236.711 85.3634 236.01 85.3634 235.202C85.3634 234.4 85.5009 233.704 85.776 233.114C86.0511 232.524 86.4339 232.068 86.9244 231.746C87.415 231.425 87.9817 231.264 88.6247 231.264C89.1219 231.264 89.5146 231.347 89.803 231.513C90.0947 231.675 90.3167 231.861 90.4692 232.07C90.625 232.275 90.7459 232.444 90.8321 232.577H90.9316V228.818H92.1048V239H90.9713V237.827H90.8321C90.7459 237.966 90.6233 238.142 90.4642 238.354C90.3051 238.562 90.0781 238.75 89.7831 238.915C89.4881 239.078 89.0954 239.159 88.6048 239.159ZM88.7639 238.105C89.2346 238.105 89.6323 237.982 89.9571 237.737C90.2819 237.489 90.5289 237.146 90.6979 236.708C90.8669 236.267 90.9514 235.759 90.9514 235.182C90.9514 234.612 90.8686 234.113 90.7029 233.685C90.5371 233.254 90.2919 232.92 89.9671 232.681C89.6423 232.439 89.2412 232.318 88.7639 232.318C88.2668 232.318 87.8525 232.446 87.521 232.701C87.1929 232.953 86.946 233.296 86.7803 233.73C86.6179 234.161 86.5367 234.645 86.5367 235.182C86.5367 235.725 86.6195 236.219 86.7852 236.663C86.9543 237.104 87.2029 237.455 87.531 237.717C87.8624 237.976 88.2734 238.105 88.7639 238.105ZM99.5274 234.406V239H98.3541V228.818H99.5274V232.557H99.6269C99.8058 232.162 100.074 231.849 100.432 231.617C100.794 231.382 101.274 231.264 101.874 231.264C102.394 231.264 102.85 231.369 103.241 231.577C103.632 231.783 103.936 232.099 104.151 232.527C104.37 232.951 104.479 233.491 104.479 234.148V239H103.306V234.227C103.306 233.621 103.148 233.152 102.834 232.82C102.522 232.486 102.089 232.318 101.536 232.318C101.151 232.318 100.807 232.399 100.502 232.562C100.2 232.724 99.9616 232.961 99.786 233.273C99.6136 233.584 99.5274 233.962 99.5274 234.406ZM109.728 239.159C109.039 239.159 108.434 238.995 107.913 238.667C107.396 238.339 106.992 237.88 106.7 237.29C106.412 236.7 106.268 236.01 106.268 235.222C106.268 234.426 106.412 233.732 106.7 233.138C106.992 232.545 107.396 232.085 107.913 231.756C108.434 231.428 109.039 231.264 109.728 231.264C110.417 231.264 111.021 231.428 111.538 231.756C112.058 232.085 112.462 232.545 112.751 233.138C113.042 233.732 113.188 234.426 113.188 235.222C113.188 236.01 113.042 236.7 112.751 237.29C112.462 237.88 112.058 238.339 111.538 238.667C111.021 238.995 110.417 239.159 109.728 239.159ZM109.728 238.105C110.252 238.105 110.682 237.971 111.021 237.702C111.359 237.434 111.609 237.081 111.771 236.643C111.934 236.206 112.015 235.732 112.015 235.222C112.015 234.711 111.934 234.236 111.771 233.795C111.609 233.354 111.359 232.998 111.021 232.726C110.682 232.454 110.252 232.318 109.728 232.318C109.204 232.318 108.773 232.454 108.435 232.726C108.097 232.998 107.847 233.354 107.685 233.795C107.522 234.236 107.441 234.711 107.441 235.222C107.441 235.732 107.522 236.206 107.685 236.643C107.847 237.081 108.097 237.434 108.435 237.702C108.773 237.971 109.204 238.105 109.728 238.105ZM114.979 239V231.364H116.113V232.557H116.212C116.371 232.149 116.628 231.833 116.983 231.607C117.337 231.379 117.763 231.264 118.26 231.264C118.764 231.264 119.183 231.379 119.518 231.607C119.856 231.833 120.12 232.149 120.309 232.557H120.388C120.584 232.162 120.877 231.849 121.268 231.617C121.659 231.382 122.128 231.264 122.675 231.264C123.358 231.264 123.916 231.478 124.351 231.906C124.785 232.33 125.002 232.991 125.002 233.889V239H123.829V233.889C123.829 233.326 123.674 232.923 123.366 232.681C123.058 232.439 122.695 232.318 122.277 232.318C121.741 232.318 121.325 232.481 121.03 232.805C120.735 233.127 120.587 233.535 120.587 234.028V239H119.394V233.77C119.394 233.336 119.253 232.986 118.971 232.721C118.69 232.452 118.327 232.318 117.883 232.318C117.578 232.318 117.293 232.399 117.027 232.562C116.766 232.724 116.553 232.95 116.391 233.238C116.232 233.523 116.152 233.853 116.152 234.227V239H114.979ZM130.349 239.159C129.613 239.159 128.978 238.997 128.445 238.672C127.914 238.344 127.505 237.886 127.217 237.3C126.932 236.71 126.789 236.024 126.789 235.241C126.789 234.459 126.932 233.77 127.217 233.173C127.505 232.573 127.906 232.106 128.42 231.771C128.937 231.433 129.54 231.264 130.229 231.264C130.627 231.264 131.02 231.33 131.408 231.463C131.796 231.596 132.149 231.811 132.467 232.109C132.785 232.404 133.038 232.795 133.227 233.283C133.416 233.77 133.511 234.37 133.511 235.082V235.58H127.624V234.565H132.318C132.318 234.134 132.231 233.75 132.059 233.412C131.89 233.074 131.648 232.807 131.333 232.612C131.022 232.416 130.654 232.318 130.229 232.318C129.762 232.318 129.358 232.434 129.016 232.666C128.678 232.895 128.418 233.193 128.236 233.561C128.054 233.929 127.962 234.323 127.962 234.744V235.42C127.962 235.997 128.062 236.486 128.261 236.887C128.463 237.285 128.743 237.588 129.101 237.797C129.459 238.002 129.875 238.105 130.349 238.105C130.657 238.105 130.935 238.062 131.184 237.976C131.436 237.886 131.653 237.754 131.835 237.578C132.018 237.399 132.158 237.177 132.258 236.912L133.391 237.23C133.272 237.615 133.072 237.953 132.79 238.244C132.508 238.533 132.16 238.758 131.746 238.92C131.332 239.08 130.866 239.159 130.349 239.159ZM29.405 256.179C28.9211 256.179 28.4819 256.088 28.0875 255.906C27.6931 255.72 27.3799 255.453 27.1479 255.105C26.9159 254.754 26.7999 254.33 26.7999 253.832C26.7999 253.395 26.8861 253.04 27.0584 252.768C27.2308 252.493 27.4611 252.278 27.7495 252.122C28.0378 251.966 28.356 251.85 28.704 251.774C29.0553 251.695 29.4083 251.632 29.763 251.585C30.227 251.526 30.6032 251.481 30.8915 251.451C31.1832 251.418 31.3953 251.363 31.5279 251.287C31.6638 251.211 31.7317 251.078 31.7317 250.889V250.849C31.7317 250.359 31.5975 249.978 31.329 249.706C31.0639 249.434 30.6612 249.298 30.1209 249.298C29.5608 249.298 29.1216 249.421 28.8034 249.666C28.4853 249.911 28.2615 250.173 28.1323 250.452L27.0186 250.054C27.2175 249.59 27.4827 249.229 27.8141 248.97C28.1489 248.708 28.5134 248.526 28.9078 248.423C29.3056 248.317 29.6967 248.264 30.0811 248.264C30.3264 248.264 30.6081 248.294 30.9263 248.354C31.2478 248.41 31.5577 248.528 31.856 248.707C32.1576 248.886 32.4078 249.156 32.6067 249.517C32.8056 249.878 32.905 250.362 32.905 250.969V256H31.7317V254.966H31.6721C31.5925 255.132 31.4599 255.309 31.2743 255.498C31.0887 255.687 30.8418 255.848 30.5336 255.98C30.2253 256.113 29.8491 256.179 29.405 256.179ZM29.584 255.125C30.048 255.125 30.4391 255.034 30.7573 254.852C31.0788 254.669 31.3207 254.434 31.4831 254.146C31.6489 253.857 31.7317 253.554 31.7317 253.236V252.162C31.682 252.222 31.5726 252.276 31.4036 252.326C31.2379 252.372 31.0456 252.414 30.8269 252.45C30.6114 252.483 30.401 252.513 30.1955 252.54C29.9933 252.563 29.8292 252.583 29.7033 252.599C29.3984 252.639 29.1133 252.704 28.8482 252.793C28.5864 252.879 28.3742 253.01 28.2118 253.186C28.0527 253.358 27.9732 253.594 27.9732 253.892C27.9732 254.3 28.124 254.608 28.4256 254.817C28.7305 255.022 29.1167 255.125 29.584 255.125ZM36.2198 251.406V256H35.0465V248.364H36.18V249.557H36.2795C36.4585 249.169 36.7302 248.857 37.0948 248.622C37.4594 248.384 37.93 248.264 38.5067 248.264C39.0238 248.264 39.4762 248.37 39.864 248.582C40.2518 248.791 40.5534 249.109 40.7688 249.537C40.9843 249.961 41.092 250.498 41.092 251.148V256H39.9187V251.227C39.9187 250.627 39.7629 250.16 39.4513 249.825C39.1398 249.487 38.7122 249.318 38.1687 249.318C37.7942 249.318 37.4594 249.399 37.1644 249.562C36.8728 249.724 36.6424 249.961 36.4734 250.273C36.3043 250.584 36.2198 250.962 36.2198 251.406ZM46.1195 256.159C45.4831 256.159 44.9213 255.998 44.4341 255.677C43.9469 255.352 43.5658 254.895 43.2907 254.305C43.0156 253.711 42.878 253.01 42.878 252.202C42.878 251.4 43.0156 250.704 43.2907 250.114C43.5658 249.524 43.9486 249.068 44.4391 248.746C44.9296 248.425 45.4964 248.264 46.1394 248.264C46.6365 248.264 47.0293 248.347 47.3176 248.513C47.6093 248.675 47.8314 248.861 47.9838 249.07C48.1396 249.275 48.2606 249.444 48.3468 249.577H48.4462V245.818H49.6195V256H48.486V254.827H48.3468C48.2606 254.966 48.138 255.142 47.9789 255.354C47.8198 255.562 47.5927 255.75 47.2978 255.915C47.0028 256.078 46.61 256.159 46.1195 256.159ZM46.2786 255.105C46.7492 255.105 47.147 254.982 47.4718 254.737C47.7966 254.489 48.0435 254.146 48.2125 253.708C48.3816 253.267 48.4661 252.759 48.4661 252.182C48.4661 251.612 48.3832 251.113 48.2175 250.685C48.0518 250.254 47.8065 249.92 47.4817 249.681C47.1569 249.439 46.7559 249.318 46.2786 249.318C45.7814 249.318 45.3671 249.446 45.0357 249.701C44.7076 249.953 44.4606 250.296 44.2949 250.73C44.1325 251.161 44.0513 251.645 44.0513 252.182C44.0513 252.725 44.1342 253.219 44.2999 253.663C44.4689 254.104 44.7175 254.455 45.0456 254.717C45.3771 254.976 45.7881 255.105 46.2786 255.105ZM55.8688 248.364H57.0421V256.557C57.0421 257.027 56.9609 257.435 56.7985 257.78C56.6394 258.125 56.3974 258.391 56.0726 258.58C55.7511 258.769 55.3451 258.864 54.8546 258.864C54.8148 258.864 54.775 258.864 54.7353 258.864C54.6955 258.864 54.6557 258.864 54.6159 258.864V257.77C54.6557 257.77 54.6922 257.77 54.7253 257.77C54.7585 257.77 54.7949 257.77 54.8347 257.77C55.1926 257.77 55.4545 257.664 55.6202 257.452C55.7859 257.243 55.8688 256.945 55.8688 256.557V248.364ZM56.4455 247.091C56.2168 247.091 56.0196 247.013 55.8539 246.857C55.6915 246.701 55.6103 246.514 55.6103 246.295C55.6103 246.077 55.6915 245.889 55.8539 245.734C56.0196 245.578 56.2168 245.5 56.4455 245.5C56.6742 245.5 56.8697 245.578 57.0321 245.734C57.1979 245.889 57.2807 246.077 57.2807 246.295C57.2807 246.514 57.1979 246.701 57.0321 246.857C56.8697 247.013 56.6742 247.091 56.4455 247.091ZM62.2933 256.159C61.6039 256.159 60.9991 255.995 60.4787 255.667C59.9616 255.339 59.5573 254.88 59.2656 254.29C58.9773 253.7 58.8331 253.01 58.8331 252.222C58.8331 251.426 58.9773 250.732 59.2656 250.138C59.5573 249.545 59.9616 249.085 60.4787 248.756C60.9991 248.428 61.6039 248.264 62.2933 248.264C62.9827 248.264 63.5859 248.428 64.103 248.756C64.6233 249.085 65.0277 249.545 65.3161 250.138C65.6077 250.732 65.7536 251.426 65.7536 252.222C65.7536 253.01 65.6077 253.7 65.3161 254.29C65.0277 254.88 64.6233 255.339 64.103 255.667C63.5859 255.995 62.9827 256.159 62.2933 256.159ZM62.2933 255.105C62.817 255.105 63.2479 254.971 63.5859 254.702C63.924 254.434 64.1742 254.081 64.3366 253.643C64.4991 253.206 64.5803 252.732 64.5803 252.222C64.5803 251.711 64.4991 251.236 64.3366 250.795C64.1742 250.354 63.924 249.998 63.5859 249.726C63.2479 249.454 62.817 249.318 62.2933 249.318C61.7696 249.318 61.3388 249.454 61.0007 249.726C60.6626 249.998 60.4124 250.354 60.25 250.795C60.0876 251.236 60.0064 251.711 60.0064 252.222C60.0064 252.732 60.0876 253.206 60.25 253.643C60.4124 254.081 60.6626 254.434 61.0007 254.702C61.3388 254.971 61.7696 255.105 62.2933 255.105ZM67.5446 256V248.364H68.7179V256H67.5446ZM68.1412 247.091C67.9125 247.091 67.7153 247.013 67.5495 246.857C67.3871 246.701 67.3059 246.514 67.3059 246.295C67.3059 246.077 67.3871 245.889 67.5495 245.734C67.7153 245.578 67.9125 245.5 68.1412 245.5C68.3699 245.5 68.5654 245.578 68.7278 245.734C68.8935 245.889 68.9764 246.077 68.9764 246.295C68.9764 246.514 68.8935 246.701 68.7278 246.857C68.5654 247.013 68.3699 247.091 68.1412 247.091ZM72.0401 251.406V256H70.8668V248.364H72.0004V249.557H72.0998C72.2788 249.169 72.5505 248.857 72.9151 248.622C73.2797 248.384 73.7504 248.264 74.3271 248.264C74.8441 248.264 75.2965 248.37 75.6843 248.582C76.0721 248.791 76.3737 249.109 76.5891 249.537C76.8046 249.961 76.9123 250.498 76.9123 251.148V256H75.739V251.227C75.739 250.627 75.5832 250.16 75.2717 249.825C74.9601 249.487 74.5326 249.318 73.989 249.318C73.6145 249.318 73.2797 249.399 72.9847 249.562C72.6931 249.724 72.4627 249.961 72.2937 250.273C72.1246 250.584 72.0401 250.962 72.0401 251.406ZM86.0961 256.159C85.4067 256.159 84.8018 255.995 84.2814 255.667C83.7644 255.339 83.36 254.88 83.0684 254.29C82.78 253.7 82.6358 253.01 82.6358 252.222C82.6358 251.426 82.78 250.732 83.0684 250.138C83.36 249.545 83.7644 249.085 84.2814 248.756C84.8018 248.428 85.4067 248.264 86.0961 248.264C86.7855 248.264 87.3887 248.428 87.9057 248.756C88.4261 249.085 88.8304 249.545 89.1188 250.138C89.4105 250.732 89.5563 251.426 89.5563 252.222C89.5563 253.01 89.4105 253.7 89.1188 254.29C88.8304 254.88 88.4261 255.339 87.9057 255.667C87.3887 255.995 86.7855 256.159 86.0961 256.159ZM86.0961 255.105C86.6197 255.105 87.0506 254.971 87.3887 254.702C87.7267 254.434 87.977 254.081 88.1394 253.643C88.3018 253.206 88.383 252.732 88.383 252.222C88.383 251.711 88.3018 251.236 88.1394 250.795C87.977 250.354 87.7267 249.998 87.3887 249.726C87.0506 249.454 86.6197 249.318 86.0961 249.318C85.5724 249.318 85.1415 249.454 84.8034 249.726C84.4654 249.998 84.2151 250.354 84.0527 250.795C83.8903 251.236 83.8091 251.711 83.8091 252.222C83.8091 252.732 83.8903 253.206 84.0527 253.643C84.2151 254.081 84.4654 254.434 84.8034 254.702C85.1415 254.971 85.5724 255.105 86.0961 255.105ZM94.6683 248.364V249.358H90.7109V248.364H94.6683ZM91.8643 246.534H93.0376V253.812C93.0376 254.144 93.0857 254.393 93.1818 254.558C93.2813 254.721 93.4072 254.83 93.5597 254.886C93.7154 254.939 93.8795 254.966 94.0518 254.966C94.1811 254.966 94.2872 254.959 94.37 254.946C94.4529 254.929 94.5192 254.916 94.5689 254.906L94.8075 255.96C94.728 255.99 94.617 256.02 94.4744 256.05C94.3319 256.083 94.1513 256.099 93.9325 256.099C93.6011 256.099 93.2763 256.028 92.9581 255.886C92.6432 255.743 92.3814 255.526 92.1726 255.234C91.9671 254.943 91.8643 254.575 91.8643 254.131V246.534ZM97.7706 251.406V256H96.5973V245.818H97.7706V249.557H97.87C98.049 249.162 98.3175 248.849 98.6754 248.617C99.0367 248.382 99.5173 248.264 100.117 248.264C100.638 248.264 101.093 248.369 101.484 248.577C101.875 248.783 102.179 249.099 102.394 249.527C102.613 249.951 102.722 250.491 102.722 251.148V256H101.549V251.227C101.549 250.621 101.392 250.152 101.077 249.82C100.765 249.486 100.333 249.318 99.7791 249.318C99.3946 249.318 99.05 249.399 98.745 249.562C98.4434 249.724 98.2048 249.961 98.0291 250.273C97.8568 250.584 97.7706 250.962 97.7706 251.406ZM108.07 256.159C107.335 256.159 106.7 255.997 106.166 255.672C105.636 255.344 105.227 254.886 104.938 254.3C104.653 253.71 104.511 253.024 104.511 252.241C104.511 251.459 104.653 250.77 104.938 250.173C105.227 249.573 105.628 249.106 106.142 248.771C106.659 248.433 107.262 248.264 107.951 248.264C108.349 248.264 108.742 248.33 109.129 248.463C109.517 248.596 109.87 248.811 110.188 249.109C110.507 249.404 110.76 249.795 110.949 250.283C111.138 250.77 111.232 251.37 111.232 252.082V252.58H105.346V251.565H110.039C110.039 251.134 109.953 250.75 109.781 250.412C109.612 250.074 109.37 249.807 109.055 249.612C108.743 249.416 108.375 249.318 107.951 249.318C107.484 249.318 107.079 249.434 106.738 249.666C106.4 249.895 106.14 250.193 105.958 250.561C105.775 250.929 105.684 251.323 105.684 251.744V252.42C105.684 252.997 105.784 253.486 105.982 253.887C106.185 254.285 106.465 254.588 106.823 254.797C107.181 255.002 107.597 255.105 108.07 255.105C108.379 255.105 108.657 255.062 108.906 254.976C109.158 254.886 109.375 254.754 109.557 254.578C109.739 254.399 109.88 254.177 109.98 253.912L111.113 254.23C110.994 254.615 110.793 254.953 110.512 255.244C110.23 255.533 109.882 255.758 109.468 255.92C109.053 256.08 108.588 256.159 108.07 256.159ZM113.017 256V248.364H114.151V249.517H114.23C114.369 249.139 114.621 248.833 114.986 248.597C115.351 248.362 115.762 248.244 116.219 248.244C116.305 248.244 116.413 248.246 116.542 248.249C116.671 248.253 116.769 248.258 116.835 248.264V249.457C116.796 249.447 116.704 249.433 116.562 249.413C116.423 249.389 116.275 249.378 116.119 249.378C115.748 249.378 115.417 249.456 115.125 249.612C114.837 249.764 114.608 249.976 114.439 250.248C114.273 250.516 114.191 250.823 114.191 251.168V256H113.017ZM123.635 250.074L122.581 250.372C122.515 250.196 122.417 250.026 122.288 249.86C122.162 249.691 121.99 249.552 121.771 249.442C121.552 249.333 121.272 249.278 120.931 249.278C120.463 249.278 120.074 249.386 119.762 249.602C119.454 249.814 119.3 250.084 119.3 250.412C119.3 250.704 119.406 250.934 119.618 251.103C119.83 251.272 120.162 251.413 120.613 251.526L121.746 251.804C122.429 251.97 122.938 252.223 123.272 252.565C123.607 252.903 123.775 253.339 123.775 253.872C123.775 254.31 123.649 254.701 123.397 255.045C123.148 255.39 122.8 255.662 122.353 255.861C121.905 256.06 121.385 256.159 120.792 256.159C120.013 256.159 119.368 255.99 118.858 255.652C118.347 255.314 118.024 254.82 117.888 254.17L119.002 253.892C119.108 254.303 119.308 254.611 119.603 254.817C119.902 255.022 120.291 255.125 120.772 255.125C121.319 255.125 121.753 255.009 122.074 254.777C122.399 254.542 122.561 254.26 122.561 253.932C122.561 253.667 122.469 253.445 122.283 253.266C122.097 253.083 121.812 252.947 121.428 252.858L120.155 252.56C119.456 252.394 118.942 252.137 118.614 251.789C118.289 251.438 118.127 250.999 118.127 250.472C118.127 250.041 118.248 249.66 118.49 249.328C118.735 248.997 119.068 248.737 119.489 248.548C119.913 248.359 120.394 248.264 120.931 248.264C121.686 248.264 122.28 248.43 122.711 248.761C123.145 249.093 123.453 249.53 123.635 250.074ZM129.478 256V248.364H130.651V256H129.478ZM130.075 247.091C129.846 247.091 129.649 247.013 129.483 246.857C129.321 246.701 129.24 246.514 129.24 246.295C129.24 246.077 129.321 245.889 129.483 245.734C129.649 245.578 129.846 245.5 130.075 245.5C130.303 245.5 130.499 245.578 130.661 245.734C130.827 245.889 130.91 246.077 130.91 246.295C130.91 246.514 130.827 246.701 130.661 246.857C130.499 247.013 130.303 247.091 130.075 247.091ZM133.974 251.406V256H132.8V248.364H133.934V249.557H134.033C134.212 249.169 134.484 248.857 134.849 248.622C135.213 248.384 135.684 248.264 136.261 248.264C136.778 248.264 137.23 248.37 137.618 248.582C138.006 248.791 138.307 249.109 138.523 249.537C138.738 249.961 138.846 250.498 138.846 251.148V256H137.673V251.227C137.673 250.627 137.517 250.16 137.205 249.825C136.894 249.487 136.466 249.318 135.923 249.318C135.548 249.318 135.213 249.399 134.918 249.562C134.627 249.724 134.396 249.961 134.227 250.273C134.058 250.584 133.974 250.962 133.974 251.406ZM46.68 265.364V266.358H42.7227V265.364H46.68ZM43.8761 263.534H45.0494V270.812C45.0494 271.144 45.0974 271.393 45.1935 271.558C45.293 271.721 45.4189 271.83 45.5714 271.886C45.7272 271.939 45.8912 271.966 46.0636 271.966C46.1928 271.966 46.2989 271.959 46.3817 271.946C46.4646 271.929 46.5309 271.916 46.5806 271.906L46.8192 272.96C46.7397 272.99 46.6287 273.02 46.4862 273.05C46.3436 273.083 46.163 273.099 45.9442 273.099C45.6128 273.099 45.288 273.028 44.9698 272.886C44.6549 272.743 44.3931 272.526 44.1843 272.234C43.9788 271.943 43.8761 271.575 43.8761 271.131V263.534ZM49.7823 268.406V273H48.609V262.818H49.7823V266.557H49.8817C50.0607 266.162 50.3292 265.849 50.6871 265.617C51.0484 265.382 51.529 265.264 52.1289 265.264C52.6493 265.264 53.105 265.369 53.4961 265.577C53.8872 265.783 54.1905 266.099 54.4059 266.527C54.6246 266.951 54.734 267.491 54.734 268.148V273H53.5607V268.227C53.5607 267.621 53.4033 267.152 53.0884 266.82C52.7769 266.486 52.3443 266.318 51.7908 266.318C51.4064 266.318 51.0617 266.399 50.7567 266.562C50.4551 266.724 50.2165 266.961 50.0408 267.273C49.8685 267.584 49.7823 267.962 49.7823 268.406ZM60.0822 273.159C59.3464 273.159 58.7117 272.997 58.1781 272.672C57.6478 272.344 57.2385 271.886 56.9501 271.3C56.6651 270.71 56.5225 270.024 56.5225 269.241C56.5225 268.459 56.6651 267.77 56.9501 267.173C57.2385 266.573 57.6395 266.106 58.1532 265.771C58.6703 265.433 59.2735 265.264 59.9629 265.264C60.3606 265.264 60.7534 265.33 61.1412 265.463C61.5289 265.596 61.8819 265.811 62.2001 266.109C62.5183 266.404 62.7718 266.795 62.9608 267.283C63.1497 267.77 63.2441 268.37 63.2441 269.082V269.58H57.3578V268.565H62.051C62.051 268.134 61.9648 267.75 61.7924 267.412C61.6234 267.074 61.3815 266.807 61.0666 266.612C60.755 266.416 60.3871 266.318 59.9629 266.318C59.4956 266.318 59.0912 266.434 58.7498 266.666C58.4118 266.895 58.1516 267.193 57.9693 267.561C57.787 267.929 57.6958 268.323 57.6958 268.744V269.42C57.6958 269.997 57.7953 270.486 57.9941 270.887C58.1963 271.285 58.4764 271.588 58.8343 271.797C59.1923 272.002 59.6083 272.105 60.0822 272.105C60.3904 272.105 60.6689 272.062 60.9174 271.976C61.1693 271.886 61.3864 271.754 61.5687 271.578C61.751 271.399 61.8919 271.177 61.9913 270.912L63.1248 271.23C63.0055 271.615 62.805 271.953 62.5233 272.244C62.2415 272.533 61.8935 272.758 61.4792 272.92C61.0649 273.08 60.5993 273.159 60.0822 273.159ZM72.0488 276.023C71.4821 276.023 70.9949 275.95 70.5872 275.804C70.1795 275.661 69.8398 275.473 69.568 275.237C69.2995 275.005 69.0858 274.757 68.9267 274.491L69.8613 273.835C69.9674 273.974 70.1016 274.134 70.264 274.312C70.4264 274.495 70.6485 274.652 70.9302 274.785C71.2153 274.921 71.5881 274.989 72.0488 274.989C72.6653 274.989 73.1741 274.839 73.5751 274.541C73.9761 274.243 74.1767 273.776 74.1767 273.139V271.588H74.0772C73.9911 271.727 73.8684 271.9 73.7093 272.105C73.5536 272.307 73.3282 272.488 73.0332 272.647C72.7415 272.803 72.3471 272.881 71.85 272.881C71.2335 272.881 70.68 272.735 70.1895 272.443C69.7022 272.152 69.3161 271.727 69.0311 271.17C68.7493 270.614 68.6085 269.937 68.6085 269.142C68.6085 268.36 68.746 267.679 69.0211 267.099C69.2962 266.515 69.679 266.065 70.1696 265.746C70.6601 265.425 71.2269 265.264 71.8699 265.264C72.367 265.264 72.7614 265.347 73.0531 265.513C73.3481 265.675 73.5734 265.861 73.7292 266.07C73.8883 266.275 74.0109 266.444 74.0971 266.577H74.2164V265.364H75.35V273.219C75.35 273.875 75.2008 274.409 74.9025 274.82C74.6075 275.234 74.2098 275.537 73.7093 275.729C73.2122 275.925 72.6587 276.023 72.0488 276.023ZM72.0091 271.827C72.4797 271.827 72.8774 271.719 73.2022 271.504C73.527 271.288 73.774 270.978 73.943 270.574C74.112 270.17 74.1966 269.686 74.1966 269.122C74.1966 268.572 74.1137 268.086 73.948 267.665C73.7823 267.245 73.537 266.915 73.2122 266.676C72.8874 266.437 72.4863 266.318 72.0091 266.318C71.5119 266.318 71.0976 266.444 70.7662 266.696C70.438 266.948 70.1911 267.286 70.0254 267.71C69.863 268.134 69.7818 268.605 69.7818 269.122C69.7818 269.652 69.8646 270.121 70.0304 270.529C70.1994 270.933 70.448 271.252 70.7761 271.484C71.1075 271.712 71.5185 271.827 72.0091 271.827ZM77.4977 273V265.364H78.6312V266.517H78.7108C78.85 266.139 79.1019 265.833 79.4664 265.597C79.831 265.362 80.242 265.244 80.6994 265.244C80.7856 265.244 80.8933 265.246 81.0225 265.249C81.1518 265.253 81.2496 265.258 81.3159 265.264V266.457C81.2761 266.447 81.185 266.433 81.0424 266.413C80.9032 266.389 80.7557 266.378 80.6 266.378C80.2288 266.378 79.8973 266.456 79.6056 266.612C79.3173 266.764 79.0886 266.976 78.9196 267.248C78.7538 267.516 78.671 267.823 78.671 268.168V273H77.4977ZM85.5765 273.159C84.8871 273.159 84.2823 272.995 83.7619 272.667C83.2449 272.339 82.8405 271.88 82.5488 271.29C82.2605 270.7 82.1163 270.01 82.1163 269.222C82.1163 268.426 82.2605 267.732 82.5488 267.138C82.8405 266.545 83.2449 266.085 83.7619 265.756C84.2823 265.428 84.8871 265.264 85.5765 265.264C86.2659 265.264 86.8691 265.428 87.3862 265.756C87.9065 266.085 88.3109 266.545 88.5993 267.138C88.8909 267.732 89.0368 268.426 89.0368 269.222C89.0368 270.01 88.8909 270.7 88.5993 271.29C88.3109 271.88 87.9065 272.339 87.3862 272.667C86.8691 272.995 86.2659 273.159 85.5765 273.159ZM85.5765 272.105C86.1002 272.105 86.5311 271.971 86.8691 271.702C87.2072 271.434 87.4574 271.081 87.6199 270.643C87.7823 270.206 87.8635 269.732 87.8635 269.222C87.8635 268.711 87.7823 268.236 87.6199 267.795C87.4574 267.354 87.2072 266.998 86.8691 266.726C86.5311 266.454 86.1002 266.318 85.5765 266.318C85.0529 266.318 84.622 266.454 84.2839 266.726C83.9458 266.998 83.6956 267.354 83.5332 267.795C83.3708 268.236 83.2896 268.711 83.2896 269.222C83.2896 269.732 83.3708 270.206 83.5332 270.643C83.6956 271.081 83.9458 271.434 84.2839 271.702C84.622 271.971 85.0529 272.105 85.5765 272.105ZM95.6403 269.878V265.364H96.8136V273H95.6403V271.707H95.5607C95.3817 272.095 95.1033 272.425 94.7255 272.697C94.3477 272.965 93.8704 273.099 93.2937 273.099C92.8164 273.099 92.3922 272.995 92.021 272.786C91.6497 272.574 91.3581 272.256 91.146 271.832C90.9338 271.404 90.8278 270.866 90.8278 270.216V265.364H92.0011V270.136C92.0011 270.693 92.1568 271.137 92.4684 271.469C92.7833 271.8 93.1843 271.966 93.6715 271.966C93.9632 271.966 94.2598 271.891 94.5614 271.742C94.8664 271.593 95.1216 271.364 95.3271 271.056C95.5359 270.748 95.6403 270.355 95.6403 269.878ZM98.9625 275.864V265.364H100.096V266.577H100.235C100.321 266.444 100.441 266.275 100.593 266.07C100.749 265.861 100.971 265.675 101.259 265.513C101.551 265.347 101.945 265.264 102.443 265.264C103.086 265.264 103.652 265.425 104.143 265.746C104.633 266.068 105.016 266.524 105.291 267.114C105.566 267.704 105.704 268.4 105.704 269.202C105.704 270.01 105.566 270.711 105.291 271.305C105.016 271.895 104.635 272.352 104.148 272.677C103.661 272.998 103.099 273.159 102.463 273.159C101.972 273.159 101.579 273.078 101.284 272.915C100.989 272.75 100.762 272.562 100.603 272.354C100.444 272.142 100.321 271.966 100.235 271.827H100.136V275.864H98.9625ZM100.116 269.182C100.116 269.759 100.2 270.267 100.369 270.708C100.539 271.146 100.785 271.489 101.11 271.737C101.435 271.982 101.833 272.105 102.303 272.105C102.794 272.105 103.203 271.976 103.531 271.717C103.863 271.455 104.111 271.104 104.277 270.663C104.446 270.219 104.531 269.725 104.531 269.182C104.531 268.645 104.448 268.161 104.282 267.73C104.12 267.296 103.873 266.953 103.541 266.701C103.213 266.446 102.801 266.318 102.303 266.318C101.826 266.318 101.425 266.439 101.1 266.681C100.776 266.92 100.53 267.254 100.365 267.685C100.199 268.113 100.116 268.612 100.116 269.182ZM114.752 265.364V266.358H110.795V265.364H114.752ZM111.948 263.534H113.122V270.812C113.122 271.144 113.17 271.393 113.266 271.558C113.365 271.721 113.491 271.83 113.644 271.886C113.799 271.939 113.963 271.966 114.136 271.966C114.265 271.966 114.371 271.959 114.454 271.946C114.537 271.929 114.603 271.916 114.653 271.906L114.892 272.96C114.812 272.99 114.701 273.02 114.558 273.05C114.416 273.083 114.235 273.099 114.017 273.099C113.685 273.099 113.36 273.028 113.042 272.886C112.727 272.743 112.465 272.526 112.257 272.234C112.051 271.943 111.948 271.575 111.948 271.131V263.534ZM119.537 273.159C118.848 273.159 118.243 272.995 117.723 272.667C117.206 272.339 116.801 271.88 116.51 271.29C116.221 270.7 116.077 270.01 116.077 269.222C116.077 268.426 116.221 267.732 116.51 267.138C116.801 266.545 117.206 266.085 117.723 265.756C118.243 265.428 118.848 265.264 119.537 265.264C120.227 265.264 120.83 265.428 121.347 265.756C121.867 266.085 122.272 266.545 122.56 267.138C122.852 267.732 122.998 268.426 122.998 269.222C122.998 270.01 122.852 270.7 122.56 271.29C122.272 271.88 121.867 272.339 121.347 272.667C120.83 272.995 120.227 273.159 119.537 273.159ZM119.537 272.105C120.061 272.105 120.492 271.971 120.83 271.702C121.168 271.434 121.418 271.081 121.581 270.643C121.743 270.206 121.824 269.732 121.824 269.222C121.824 268.711 121.743 268.236 121.581 267.795C121.418 267.354 121.168 266.998 120.83 266.726C120.492 266.454 120.061 266.318 119.537 266.318C119.014 266.318 118.583 266.454 118.245 266.726C117.907 266.998 117.657 267.354 117.494 267.795C117.332 268.236 117.251 268.711 117.251 269.222C117.251 269.732 117.332 270.206 117.494 270.643C117.657 271.081 117.907 271.434 118.245 271.702C118.583 271.971 119.014 272.105 119.537 272.105ZM53.4302 284.074L52.3762 284.372C52.31 284.196 52.2122 284.026 52.0829 283.86C51.957 283.691 51.7846 283.552 51.5659 283.442C51.3471 283.333 51.0671 283.278 50.7257 283.278C50.2583 283.278 49.8689 283.386 49.5574 283.602C49.2491 283.814 49.095 284.084 49.095 284.412C49.095 284.704 49.2011 284.934 49.4132 285.103C49.6253 285.272 49.9567 285.413 50.4075 285.526L51.541 285.804C52.2238 285.97 52.7325 286.223 53.0673 286.565C53.402 286.903 53.5694 287.339 53.5694 287.872C53.5694 288.31 53.4435 288.701 53.1916 289.045C52.943 289.39 52.595 289.662 52.1475 289.861C51.7001 290.06 51.1797 290.159 50.5865 290.159C49.8076 290.159 49.1629 289.99 48.6525 289.652C48.1421 289.314 47.819 288.82 47.6831 288.17L48.7967 287.892C48.9028 288.303 49.1033 288.611 49.3983 288.817C49.6966 289.022 50.086 289.125 50.5666 289.125C51.1135 289.125 51.5476 289.009 51.8691 288.777C52.194 288.542 52.3564 288.26 52.3564 287.932C52.3564 287.667 52.2636 287.445 52.0779 287.266C51.8923 287.083 51.6073 286.947 51.2228 286.858L49.9501 286.56C49.2508 286.394 48.737 286.137 48.4089 285.789C48.0841 285.438 47.9217 284.999 47.9217 284.472C47.9217 284.041 48.0427 283.66 48.2846 283.328C48.5299 282.997 48.863 282.737 49.2839 282.548C49.7082 282.359 50.1887 282.264 50.7257 282.264C51.4814 282.264 52.0746 282.43 52.5055 282.761C52.9397 283.093 53.2479 283.53 53.4302 284.074ZM58.6566 282.364V283.358H54.6992V282.364H58.6566ZM55.8526 280.534H57.0259V287.812C57.0259 288.144 57.074 288.393 57.1701 288.558C57.2695 288.721 57.3955 288.83 57.5479 288.886C57.7037 288.939 57.8678 288.966 58.0401 288.966C58.1694 288.966 58.2755 288.959 58.3583 288.946C58.4412 288.929 58.5075 288.916 58.5572 288.906L58.7958 289.96C58.7163 289.99 58.6052 290.02 58.4627 290.05C58.3202 290.083 58.1396 290.099 57.9208 290.099C57.5894 290.099 57.2646 290.028 56.9464 289.886C56.6315 289.743 56.3697 289.526 56.1609 289.234C55.9554 288.943 55.8526 288.575 55.8526 288.131V280.534ZM60.4215 290V282.364H61.555V283.517H61.6346C61.7738 283.139 62.0257 282.833 62.3903 282.597C62.7549 282.362 63.1658 282.244 63.6232 282.244C63.7094 282.244 63.8171 282.246 63.9464 282.249C64.0756 282.253 64.1734 282.258 64.2397 282.264V283.457C64.1999 283.447 64.1088 283.433 63.9663 283.413C63.8271 283.389 63.6796 283.378 63.5238 283.378C63.1526 283.378 62.8211 283.456 62.5295 283.612C62.2411 283.764 62.0124 283.976 61.8434 284.248C61.6777 284.516 61.5948 284.823 61.5948 285.168V290H60.4215ZM68.5998 290.159C67.864 290.159 67.2293 289.997 66.6957 289.672C66.1654 289.344 65.756 288.886 65.4677 288.3C65.1826 287.71 65.0401 287.024 65.0401 286.241C65.0401 285.459 65.1826 284.77 65.4677 284.173C65.756 283.573 66.1571 283.106 66.6708 282.771C67.1879 282.433 67.7911 282.264 68.4805 282.264C68.8782 282.264 69.271 282.33 69.6587 282.463C70.0465 282.596 70.3995 282.811 70.7177 283.109C71.0359 283.404 71.2894 283.795 71.4783 284.283C71.6673 284.77 71.7617 285.37 71.7617 286.082V286.58H65.8754V285.565H70.5685C70.5685 285.134 70.4824 284.75 70.31 284.412C70.141 284.074 69.899 283.807 69.5842 283.612C69.2726 283.416 68.9047 283.318 68.4805 283.318C68.0131 283.318 67.6088 283.434 67.2674 283.666C66.9293 283.895 66.6692 284.193 66.4869 284.561C66.3046 284.929 66.2134 285.323 66.2134 285.744V286.42C66.2134 286.997 66.3129 287.486 66.5117 287.887C66.7139 288.285 66.994 288.588 67.3519 288.797C67.7099 289.002 68.1258 289.105 68.5998 289.105C68.908 289.105 69.1864 289.062 69.435 288.976C69.6869 288.886 69.904 288.754 70.0863 288.578C70.2686 288.399 70.4094 288.177 70.5089 287.912L71.6424 288.23C71.5231 288.615 71.3226 288.953 71.0408 289.244C70.7591 289.533 70.4111 289.758 69.9968 289.92C69.5825 290.08 69.1168 290.159 68.5998 290.159ZM74.7198 285.406V290H73.5465V282.364H74.68V283.557H74.7795C74.9585 283.169 75.2302 282.857 75.5948 282.622C75.9594 282.384 76.43 282.264 77.0067 282.264C77.5238 282.264 77.9762 282.37 78.364 282.582C78.7518 282.791 79.0534 283.109 79.2688 283.537C79.4843 283.961 79.592 284.498 79.592 285.148V290H78.4187V285.227C78.4187 284.627 78.2629 284.16 77.9513 283.825C77.6398 283.487 77.2122 283.318 76.6687 283.318C76.2942 283.318 75.9594 283.399 75.6644 283.562C75.3728 283.724 75.1424 283.961 74.9734 284.273C74.8043 284.584 74.7198 284.962 74.7198 285.406ZM84.8184 293.023C84.2516 293.023 83.7644 292.95 83.3567 292.804C82.949 292.661 82.6093 292.473 82.3375 292.237C82.0691 292.005 81.8553 291.757 81.6962 291.491L82.6309 290.835C82.7369 290.974 82.8712 291.134 83.0336 291.312C83.196 291.495 83.418 291.652 83.6998 291.785C83.9848 291.921 84.3577 291.989 84.8184 291.989C85.4348 291.989 85.9436 291.839 86.3446 291.541C86.7457 291.243 86.9462 290.776 86.9462 290.139V288.588H86.8468C86.7606 288.727 86.638 288.9 86.4789 289.105C86.3231 289.307 86.0977 289.488 85.8027 289.647C85.5111 289.803 85.1167 289.881 84.6195 289.881C84.003 289.881 83.4495 289.735 82.959 289.443C82.4718 289.152 82.0856 288.727 81.8006 288.17C81.5189 287.614 81.378 286.937 81.378 286.142C81.378 285.36 81.5156 284.679 81.7907 284.099C82.0658 283.515 82.4486 283.065 82.9391 282.746C83.4296 282.425 83.9964 282.264 84.6394 282.264C85.1365 282.264 85.531 282.347 85.8226 282.513C86.1176 282.675 86.343 282.861 86.4988 283.07C86.6578 283.275 86.7805 283.444 86.8667 283.577H86.986V282.364H88.1195V290.219C88.1195 290.875 87.9703 291.409 87.6721 291.82C87.3771 292.234 86.9793 292.537 86.4789 292.729C85.9817 292.925 85.4282 293.023 84.8184 293.023ZM84.7786 288.827C85.2492 288.827 85.647 288.719 85.9718 288.504C86.2966 288.288 86.5435 287.978 86.7125 287.574C86.8816 287.17 86.9661 286.686 86.9661 286.122C86.9661 285.572 86.8832 285.086 86.7175 284.665C86.5518 284.245 86.3065 283.915 85.9817 283.676C85.6569 283.437 85.2559 283.318 84.7786 283.318C84.2814 283.318 83.8671 283.444 83.5357 283.696C83.2076 283.948 82.9606 284.286 82.7949 284.71C82.6325 285.134 82.5513 285.605 82.5513 286.122C82.5513 286.652 82.6342 287.121 82.7999 287.529C82.9689 287.933 83.2175 288.252 83.5456 288.484C83.8771 288.712 84.2881 288.827 84.7786 288.827ZM93.5882 282.364V283.358H89.6309V282.364H93.5882ZM90.7843 280.534H91.9576V287.812C91.9576 288.144 92.0056 288.393 92.1017 288.558C92.2012 288.721 92.3271 288.83 92.4796 288.886C92.6354 288.939 92.7994 288.966 92.9718 288.966C93.101 288.966 93.2071 288.959 93.29 288.946C93.3728 288.929 93.4391 288.916 93.4888 288.906L93.7275 289.96C93.6479 289.99 93.5369 290.02 93.3944 290.05C93.2518 290.083 93.0712 290.099 92.8525 290.099C92.521 290.099 92.1962 290.028 91.878 289.886C91.5632 289.743 91.3013 289.526 91.0925 289.234C90.887 288.943 90.7843 288.575 90.7843 288.131V280.534ZM96.6905 285.406V290H95.5172V279.818H96.6905V283.557H96.79C96.9689 283.162 97.2374 282.849 97.5953 282.617C97.9566 282.382 98.4372 282.264 99.0371 282.264C99.5575 282.264 100.013 282.369 100.404 282.577C100.795 282.783 101.099 283.099 101.314 283.527C101.533 283.951 101.642 284.491 101.642 285.148V290H100.469V285.227C100.469 284.621 100.311 284.152 99.9966 283.82C99.6851 283.486 99.2525 283.318 98.699 283.318C98.3146 283.318 97.9699 283.399 97.665 283.562C97.3633 283.724 97.1247 283.961 96.949 284.273C96.7767 284.584 96.6905 284.962 96.6905 285.406ZM106.99 290.159C106.255 290.159 105.62 289.997 105.086 289.672C104.556 289.344 104.147 288.886 103.858 288.3C103.573 287.71 103.431 287.024 103.431 286.241C103.431 285.459 103.573 284.77 103.858 284.173C104.147 283.573 104.548 283.106 105.061 282.771C105.578 282.433 106.182 282.264 106.871 282.264C107.269 282.264 107.662 282.33 108.049 282.463C108.437 282.596 108.79 282.811 109.108 283.109C109.426 283.404 109.68 283.795 109.869 284.283C110.058 284.77 110.152 285.37 110.152 286.082V286.58H104.266V285.565H108.959C108.959 285.134 108.873 284.75 108.701 284.412C108.532 284.074 108.29 283.807 107.975 283.612C107.663 283.416 107.295 283.318 106.871 283.318C106.404 283.318 105.999 283.434 105.658 283.666C105.32 283.895 105.06 284.193 104.877 284.561C104.695 284.929 104.604 285.323 104.604 285.744V286.42C104.604 286.997 104.703 287.486 104.902 287.887C105.105 288.285 105.385 288.588 105.743 288.797C106.1 289.002 106.516 289.105 106.99 289.105C107.299 289.105 107.577 289.062 107.826 288.976C108.078 288.886 108.295 288.754 108.477 288.578C108.659 288.399 108.8 288.177 108.9 287.912L110.033 288.23C109.914 288.615 109.713 288.953 109.431 289.244C109.15 289.533 108.802 289.758 108.387 289.92C107.973 290.08 107.507 290.159 106.99 290.159ZM113.11 285.406V290H111.937V282.364H113.071V283.557H113.17C113.349 283.169 113.621 282.857 113.985 282.622C114.35 282.384 114.821 282.264 115.397 282.264C115.914 282.264 116.367 282.37 116.755 282.582C117.142 282.791 117.444 283.109 117.659 283.537C117.875 283.961 117.983 284.498 117.983 285.148V290H116.809V285.227C116.809 284.627 116.654 284.16 116.342 283.825C116.03 283.487 115.603 283.318 115.059 283.318C114.685 283.318 114.35 283.399 114.055 283.562C113.763 283.724 113.533 283.961 113.364 284.273C113.195 284.584 113.11 284.962 113.11 285.406ZM25.4576 307V296.818H26.6309V300.577H26.7303C26.8165 300.444 26.9358 300.275 27.0882 300.07C27.244 299.861 27.4661 299.675 27.7544 299.513C28.0461 299.347 28.4405 299.264 28.9377 299.264C29.5807 299.264 30.1474 299.425 30.638 299.746C31.1285 300.068 31.5113 300.524 31.7864 301.114C32.0615 301.704 32.199 302.4 32.199 303.202C32.199 304.01 32.0615 304.711 31.7864 305.305C31.5113 305.895 31.1301 306.352 30.6429 306.677C30.1557 306.998 29.5939 307.159 28.9576 307.159C28.467 307.159 28.0743 307.078 27.7793 306.915C27.4843 306.75 27.2573 306.562 27.0982 306.354C26.9391 306.142 26.8165 305.966 26.7303 305.827H26.5911V307H25.4576ZM26.611 303.182C26.611 303.759 26.6955 304.267 26.8645 304.708C27.0336 305.146 27.2805 305.489 27.6053 305.737C27.9301 305.982 28.3278 306.105 28.7985 306.105C29.289 306.105 29.6983 305.976 30.0265 305.717C30.3579 305.455 30.6065 305.104 30.7722 304.663C30.9412 304.219 31.0257 303.725 31.0257 303.182C31.0257 302.645 30.9429 302.161 30.7772 301.73C30.6148 301.296 30.3678 300.953 30.0364 300.701C29.7083 300.446 29.2956 300.318 28.7985 300.318C28.3212 300.318 27.9202 300.439 27.5953 300.681C27.2705 300.92 27.0253 301.254 26.8596 301.685C26.6938 302.113 26.611 302.612 26.611 303.182ZM36.2409 307.179C35.757 307.179 35.3179 307.088 34.9235 306.906C34.5291 306.72 34.2158 306.453 33.9838 306.105C33.7518 305.754 33.6358 305.33 33.6358 304.832C33.6358 304.395 33.722 304.04 33.8944 303.768C34.0667 303.493 34.2971 303.278 34.5854 303.122C34.8738 302.966 35.1919 302.85 35.54 302.774C35.8913 302.695 36.2443 302.632 36.5989 302.585C37.0629 302.526 37.4391 302.481 37.7275 302.451C38.0191 302.418 38.2312 302.363 38.3638 302.287C38.4997 302.211 38.5676 302.078 38.5676 301.889V301.849C38.5676 301.359 38.4334 300.978 38.165 300.706C37.8998 300.434 37.4971 300.298 36.9569 300.298C36.3967 300.298 35.9576 300.421 35.6394 300.666C35.3212 300.911 35.0975 301.173 34.9682 301.452L33.8546 301.054C34.0534 300.59 34.3186 300.229 34.65 299.97C34.9848 299.708 35.3494 299.526 35.7438 299.423C36.1415 299.317 36.5326 299.264 36.9171 299.264C37.1623 299.264 37.4441 299.294 37.7623 299.354C38.0837 299.41 38.3936 299.528 38.6919 299.707C38.9935 299.886 39.2438 300.156 39.4426 300.517C39.6415 300.878 39.7409 301.362 39.7409 301.969V307H38.5676V305.966H38.508C38.4284 306.132 38.2959 306.309 38.1103 306.498C37.9247 306.687 37.6777 306.848 37.3695 306.98C37.0613 307.113 36.6851 307.179 36.2409 307.179ZM36.4199 306.125C36.8839 306.125 37.275 306.034 37.5932 305.852C37.9147 305.669 38.1567 305.434 38.3191 305.146C38.4848 304.857 38.5676 304.554 38.5676 304.236V303.162C38.5179 303.222 38.4086 303.276 38.2395 303.326C38.0738 303.372 37.8816 303.414 37.6628 303.45C37.4474 303.483 37.2369 303.513 37.0314 303.54C36.8292 303.563 36.6652 303.583 36.5392 303.599C36.2343 303.639 35.9493 303.704 35.6841 303.793C35.4223 303.879 35.2102 304.01 35.0478 304.186C34.8887 304.358 34.8091 304.594 34.8091 304.892C34.8091 305.3 34.9599 305.608 35.2615 305.817C35.5665 306.022 35.9526 306.125 36.4199 306.125ZM41.8825 307V299.364H43.016V300.517H43.0955C43.2347 300.139 43.4866 299.833 43.8512 299.597C44.2158 299.362 44.6268 299.244 45.0842 299.244C45.1703 299.244 45.2781 299.246 45.4073 299.249C45.5366 299.253 45.6344 299.258 45.7006 299.264V300.457C45.6609 300.447 45.5697 300.433 45.4272 300.413C45.288 300.389 45.1405 300.378 44.9847 300.378C44.6135 300.378 44.2821 300.456 43.9904 300.612C43.7021 300.764 43.4734 300.976 43.3043 301.248C43.1386 301.516 43.0558 301.823 43.0558 302.168V307H41.8825ZM49.9414 310.023C49.3746 310.023 48.8874 309.95 48.4798 309.804C48.0721 309.661 47.7324 309.473 47.4606 309.237C47.1921 309.005 46.9783 308.757 46.8192 308.491L47.7539 307.835C47.86 307.974 47.9942 308.134 48.1566 308.312C48.319 308.495 48.5411 308.652 48.8228 308.785C49.1078 308.921 49.4807 308.989 49.9414 308.989C50.5579 308.989 51.0666 308.839 51.4677 308.541C51.8687 308.243 52.0692 307.776 52.0692 307.139V305.588H51.9698C51.8836 305.727 51.761 305.9 51.6019 306.105C51.4461 306.307 51.2208 306.488 50.9258 306.647C50.6341 306.803 50.2397 306.881 49.7425 306.881C49.1261 306.881 48.5726 306.735 48.082 306.443C47.5948 306.152 47.2087 305.727 46.9237 305.17C46.6419 304.614 46.5011 303.937 46.5011 303.142C46.5011 302.36 46.6386 301.679 46.9137 301.099C47.1888 300.515 47.5716 300.065 48.0621 299.746C48.5527 299.425 49.1194 299.264 49.7624 299.264C50.2596 299.264 50.654 299.347 50.9457 299.513C51.2406 299.675 51.466 299.861 51.6218 300.07C51.7809 300.275 51.9035 300.444 51.9897 300.577H52.109V299.364H53.2425V307.219C53.2425 307.875 53.0934 308.409 52.7951 308.82C52.5001 309.234 52.1024 309.537 51.6019 309.729C51.1048 309.925 50.5513 310.023 49.9414 310.023ZM49.9016 305.827C50.3723 305.827 50.77 305.719 51.0948 305.504C51.4196 305.288 51.6665 304.978 51.8356 304.574C52.0046 304.17 52.0891 303.686 52.0891 303.122C52.0891 302.572 52.0063 302.086 51.8406 301.665C51.6748 301.245 51.4296 300.915 51.1048 300.676C50.7799 300.437 50.3789 300.318 49.9016 300.318C49.4045 300.318 48.9902 300.444 48.6587 300.696C48.3306 300.948 48.0837 301.286 47.918 301.71C47.7556 302.134 47.6744 302.605 47.6744 303.122C47.6744 303.652 47.7572 304.121 47.9229 304.529C48.092 304.933 48.3406 305.252 48.6687 305.484C49.0001 305.712 49.4111 305.827 49.9016 305.827ZM57.6374 307.179C57.1535 307.179 56.7144 307.088 56.32 306.906C55.9255 306.72 55.6123 306.453 55.3803 306.105C55.1483 305.754 55.0323 305.33 55.0323 304.832C55.0323 304.395 55.1185 304.04 55.2908 303.768C55.4632 303.493 55.6935 303.278 55.9819 303.122C56.2702 302.966 56.5884 302.85 56.9364 302.774C57.2878 302.695 57.6407 302.632 57.9954 302.585C58.4594 302.526 58.8356 302.481 59.1239 302.451C59.4156 302.418 59.6277 302.363 59.7603 302.287C59.8962 302.211 59.9641 302.078 59.9641 301.889V301.849C59.9641 301.359 59.8299 300.978 59.5614 300.706C59.2963 300.434 58.8936 300.298 58.3533 300.298C57.7932 300.298 57.354 300.421 57.0359 300.666C56.7177 300.911 56.494 301.173 56.3647 301.452L55.2511 301.054C55.4499 300.59 55.7151 300.229 56.0465 299.97C56.3813 299.708 56.7459 299.526 57.1403 299.423C57.538 299.317 57.9291 299.264 58.3136 299.264C58.5588 299.264 58.8406 299.294 59.1587 299.354C59.4802 299.41 59.7901 299.528 60.0884 299.707C60.39 299.886 60.6403 300.156 60.8391 300.517C61.038 300.878 61.1374 301.362 61.1374 301.969V307H59.9641V305.966H59.9045C59.8249 306.132 59.6924 306.309 59.5067 306.498C59.3211 306.687 59.0742 306.848 58.766 306.98C58.4577 307.113 58.0816 307.179 57.6374 307.179ZM57.8164 306.125C58.2804 306.125 58.6715 306.034 58.9897 305.852C59.3112 305.669 59.5531 305.434 59.7156 305.146C59.8813 304.857 59.9641 304.554 59.9641 304.236V303.162C59.9144 303.222 59.805 303.276 59.636 303.326C59.4703 303.372 59.2781 303.414 59.0593 303.45C58.8439 303.483 58.6334 303.513 58.4279 303.54C58.2257 303.563 58.0617 303.583 57.9357 303.599C57.6308 303.639 57.3458 303.704 57.0806 303.793C56.8188 303.879 56.6067 304.01 56.4442 304.186C56.2852 304.358 56.2056 304.594 56.2056 304.892C56.2056 305.3 56.3564 305.608 56.658 305.817C56.9629 306.022 57.3491 306.125 57.8164 306.125ZM63.2789 307V299.364H64.4522V307H63.2789ZM63.8755 298.091C63.6468 298.091 63.4496 298.013 63.2839 297.857C63.1215 297.701 63.0403 297.514 63.0403 297.295C63.0403 297.077 63.1215 296.889 63.2839 296.734C63.4496 296.578 63.6468 296.5 63.8755 296.5C64.1042 296.5 64.2998 296.578 64.4622 296.734C64.6279 296.889 64.7108 297.077 64.7108 297.295C64.7108 297.514 64.6279 297.701 64.4622 297.857C64.2998 298.013 64.1042 298.091 63.8755 298.091ZM67.7745 302.406V307H66.6012V299.364H67.7347V300.557H67.8342C68.0131 300.169 68.2849 299.857 68.6495 299.622C69.0141 299.384 69.4847 299.264 70.0614 299.264C70.5785 299.264 71.0309 299.37 71.4187 299.582C71.8065 299.791 72.1081 300.109 72.3235 300.537C72.5389 300.961 72.6467 301.498 72.6467 302.148V307H71.4734V302.227C71.4734 301.627 71.3176 301.16 71.006 300.825C70.6945 300.487 70.2669 300.318 69.7234 300.318C69.3488 300.318 69.0141 300.399 68.7191 300.562C68.4274 300.724 68.1971 300.961 68.0281 301.273C67.859 301.584 67.7745 301.962 67.7745 302.406ZM74.7907 307V299.364H75.964V307H74.7907ZM75.3873 298.091C75.1586 298.091 74.9614 298.013 74.7956 297.857C74.6332 297.701 74.552 297.514 74.552 297.295C74.552 297.077 74.6332 296.889 74.7956 296.734C74.9614 296.578 75.1586 296.5 75.3873 296.5C75.6159 296.5 75.8115 296.578 75.9739 296.734C76.1396 296.889 76.2225 297.077 76.2225 297.295C76.2225 297.514 76.1396 297.701 75.9739 297.857C75.8115 298.013 75.6159 298.091 75.3873 298.091ZM79.2862 302.406V307H78.1129V299.364H79.2464V300.557H79.3459C79.5249 300.169 79.7966 299.857 80.1612 299.622C80.5258 299.384 80.9964 299.264 81.5732 299.264C82.0902 299.264 82.5426 299.37 82.9304 299.582C83.3182 299.791 83.6198 300.109 83.8352 300.537C84.0507 300.961 84.1584 301.498 84.1584 302.148V307H82.9851V302.227C82.9851 301.627 82.8293 301.16 82.5178 300.825C82.2062 300.487 81.7786 300.318 81.2351 300.318C80.8606 300.318 80.5258 300.399 80.2308 300.562C79.9392 300.724 79.7088 300.961 79.5398 301.273C79.3707 301.584 79.2862 301.962 79.2862 302.406ZM89.3848 310.023C88.818 310.023 88.3308 309.95 87.9231 309.804C87.5154 309.661 87.1757 309.473 86.9039 309.237C86.6355 309.005 86.4217 308.757 86.2626 308.491L87.1973 307.835C87.3033 307.974 87.4376 308.134 87.6 308.312C87.7624 308.495 87.9844 308.652 88.2662 308.785C88.5512 308.921 88.9241 308.989 89.3848 308.989C90.0012 308.989 90.51 308.839 90.911 308.541C91.3121 308.243 91.5126 307.776 91.5126 307.139V305.588H91.4132C91.327 305.727 91.2044 305.9 91.0453 306.105C90.8895 306.307 90.6641 306.488 90.3691 306.647C90.0775 306.803 89.6831 306.881 89.1859 306.881C88.5694 306.881 88.0159 306.735 87.5254 306.443C87.0382 306.152 86.652 305.727 86.367 305.17C86.0853 304.614 85.9444 303.937 85.9444 303.142C85.9444 302.36 86.082 301.679 86.3571 301.099C86.6322 300.515 87.015 300.065 87.5055 299.746C87.996 299.425 88.5628 299.264 89.2058 299.264C89.7029 299.264 90.0974 299.347 90.389 299.513C90.684 299.675 90.9094 299.861 91.0652 300.07C91.2243 300.275 91.3469 300.444 91.4331 300.577H91.5524V299.364H92.6859V307.219C92.6859 307.875 92.5368 308.409 92.2385 308.82C91.9435 309.234 91.5458 309.537 91.0453 309.729C90.5481 309.925 89.9946 310.023 89.3848 310.023ZM89.345 305.827C89.8156 305.827 90.2134 305.719 90.5382 305.504C90.863 305.288 91.1099 304.978 91.2789 304.574C91.448 304.17 91.5325 303.686 91.5325 303.122C91.5325 302.572 91.4496 302.086 91.2839 301.665C91.1182 301.245 90.8729 300.915 90.5481 300.676C90.2233 300.437 89.8223 300.318 89.345 300.318C88.8478 300.318 88.4335 300.444 88.1021 300.696C87.774 300.948 87.527 301.286 87.3613 301.71C87.1989 302.134 87.1177 302.605 87.1177 303.122C87.1177 303.652 87.2006 304.121 87.3663 304.529C87.5353 304.933 87.7839 305.252 88.112 305.484C88.4435 305.712 88.8545 305.827 89.345 305.827ZM98.7711 309.864V299.364H99.9047V300.577H100.044C100.13 300.444 100.249 300.275 100.402 300.07C100.558 299.861 100.78 299.675 101.068 299.513C101.36 299.347 101.754 299.264 102.251 299.264C102.894 299.264 103.461 299.425 103.952 299.746C104.442 300.068 104.825 300.524 105.1 301.114C105.375 301.704 105.513 302.4 105.513 303.202C105.513 304.01 105.375 304.711 105.1 305.305C104.825 305.895 104.444 306.352 103.956 306.677C103.469 306.998 102.907 307.159 102.271 307.159C101.781 307.159 101.388 307.078 101.093 306.915C100.798 306.75 100.571 306.562 100.412 306.354C100.253 306.142 100.13 305.966 100.044 305.827H99.9444V309.864H98.7711ZM99.9245 303.182C99.9245 303.759 100.009 304.267 100.178 304.708C100.347 305.146 100.594 305.489 100.919 305.737C101.244 305.982 101.641 306.105 102.112 306.105C102.603 306.105 103.012 305.976 103.34 305.717C103.671 305.455 103.92 305.104 104.086 304.663C104.255 304.219 104.339 303.725 104.339 303.182C104.339 302.645 104.256 302.161 104.091 301.73C103.928 301.296 103.681 300.953 103.35 300.701C103.022 300.446 102.609 300.318 102.112 300.318C101.635 300.318 101.234 300.439 100.909 300.681C100.584 300.92 100.339 301.254 100.173 301.685C100.007 302.113 99.9245 302.612 99.9245 303.182ZM110.405 307.159C109.715 307.159 109.11 306.995 108.59 306.667C108.073 306.339 107.669 305.88 107.377 305.29C107.089 304.7 106.944 304.01 106.944 303.222C106.944 302.426 107.089 301.732 107.377 301.138C107.669 300.545 108.073 300.085 108.59 299.756C109.11 299.428 109.715 299.264 110.405 299.264C111.094 299.264 111.697 299.428 112.214 299.756C112.735 300.085 113.139 300.545 113.427 301.138C113.719 301.732 113.865 302.426 113.865 303.222C113.865 304.01 113.719 304.7 113.427 305.29C113.139 305.88 112.735 306.339 112.214 306.667C111.697 306.995 111.094 307.159 110.405 307.159ZM110.405 306.105C110.928 306.105 111.359 305.971 111.697 305.702C112.035 305.434 112.286 305.081 112.448 304.643C112.61 304.206 112.692 303.732 112.692 303.222C112.692 302.711 112.61 302.236 112.448 301.795C112.286 301.354 112.035 300.998 111.697 300.726C111.359 300.454 110.928 300.318 110.405 300.318C109.881 300.318 109.45 300.454 109.112 300.726C108.774 300.998 108.524 301.354 108.361 301.795C108.199 302.236 108.118 302.711 108.118 303.222C108.118 303.732 108.199 304.206 108.361 304.643C108.524 305.081 108.774 305.434 109.112 305.702C109.45 305.971 109.881 306.105 110.405 306.105ZM117.126 307L114.8 299.364H116.032L117.683 305.21H117.763L119.393 299.364H120.646L122.257 305.19H122.336L123.987 299.364H125.22L122.893 307H121.74L120.069 301.134H119.95L118.28 307H117.126ZM129.713 307.159C128.977 307.159 128.343 306.997 127.809 306.672C127.279 306.344 126.869 305.886 126.581 305.3C126.296 304.71 126.153 304.024 126.153 303.241C126.153 302.459 126.296 301.77 126.581 301.173C126.869 300.573 127.27 300.106 127.784 299.771C128.301 299.433 128.904 299.264 129.594 299.264C129.991 299.264 130.384 299.33 130.772 299.463C131.16 299.596 131.513 299.811 131.831 300.109C132.149 300.404 132.403 300.795 132.592 301.283C132.781 301.77 132.875 302.37 132.875 303.082V303.58H126.989V302.565H131.682C131.682 302.134 131.596 301.75 131.423 301.412C131.254 301.074 131.012 300.807 130.697 300.612C130.386 300.416 130.018 300.318 129.594 300.318C129.126 300.318 128.722 300.434 128.381 300.666C128.043 300.895 127.782 301.193 127.6 301.561C127.418 301.929 127.327 302.323 127.327 302.744V303.42C127.327 303.997 127.426 304.486 127.625 304.887C127.827 305.285 128.107 305.588 128.465 305.797C128.823 306.002 129.239 306.105 129.713 306.105C130.021 306.105 130.3 306.062 130.548 305.976C130.8 305.886 131.017 305.754 131.2 305.578C131.382 305.399 131.523 305.177 131.622 304.912L132.756 305.23C132.636 305.615 132.436 305.953 132.154 306.244C131.872 306.533 131.524 306.758 131.11 306.92C130.696 307.08 130.23 307.159 129.713 307.159ZM134.66 307V299.364H135.793V300.517H135.873C136.012 300.139 136.264 299.833 136.629 299.597C136.993 299.362 137.404 299.244 137.862 299.244C137.948 299.244 138.055 299.246 138.185 299.249C138.314 299.253 138.412 299.258 138.478 299.264V300.457C138.438 300.447 138.347 300.433 138.205 300.413C138.065 300.389 137.918 300.378 137.762 300.378C137.391 300.378 137.059 300.456 136.768 300.612C136.479 300.764 136.251 300.976 136.082 301.248C135.916 301.516 135.833 301.823 135.833 302.168V307H134.66ZM139.849 307.08C139.604 307.08 139.393 306.992 139.218 306.816C139.042 306.64 138.954 306.43 138.954 306.185C138.954 305.939 139.042 305.729 139.218 305.553C139.393 305.378 139.604 305.29 139.849 305.29C140.094 305.29 140.305 305.378 140.48 305.553C140.656 305.729 140.744 305.939 140.744 306.185C140.744 306.347 140.702 306.496 140.619 306.632C140.54 306.768 140.432 306.877 140.296 306.96C140.164 307.04 140.015 307.08 139.849 307.08Z" fill="#222222"/>
<rect x="36.5" y="1.5" width="93" height="93" rx="38.5" fill="#FD6C31"/>
<rect x="36.5" y="1.5" width="93" height="93" rx="38.5" stroke="white" stroke-width="3"/>
<path d="M82.8164 60.3281C81.0664 60.3281 79.5078 60.0273 78.1406 59.4258C76.7813 58.8164 75.707 57.9805 74.918 56.918C74.1367 55.8477 73.7344 54.6133 73.7109 53.2148H78.8203C78.8516 53.8008 79.043 54.3164 79.3945 54.7617C79.7539 55.1992 80.2305 55.5391 80.8242 55.7813C81.418 56.0234 82.0859 56.1445 82.8281 56.1445C83.6016 56.1445 84.2852 56.0078 84.8789 55.7344C85.4727 55.4609 85.9375 55.082 86.2734 54.5977C86.6094 54.1133 86.7773 53.5547 86.7773 52.9219C86.7773 52.2812 86.5977 51.7148 86.2383 51.2227C85.8867 50.7227 85.3789 50.332 84.7148 50.0508C84.0586 49.7695 83.2773 49.6289 82.3711 49.6289H80.1328V45.9023H82.3711C83.1367 45.9023 83.8125 45.7695 84.3984 45.5039C84.9922 45.2383 85.4531 44.8711 85.7813 44.4023C86.1094 43.9258 86.2734 43.3711 86.2734 42.7383C86.2734 42.1367 86.1289 41.6094 85.8398 41.1562C85.5586 40.6953 85.1602 40.3359 84.6445 40.0781C84.1367 39.8203 83.543 39.6914 82.8633 39.6914C82.1758 39.6914 81.5469 39.8164 80.9766 40.0664C80.4063 40.3086 79.9492 40.6562 79.6055 41.1094C79.2617 41.5625 79.0781 42.0937 79.0547 42.7031H74.1914C74.2148 41.3203 74.6094 40.1016 75.375 39.0469C76.1406 37.9922 77.1719 37.168 78.4688 36.5742C79.7734 35.9727 81.2461 35.6719 82.8867 35.6719C84.543 35.6719 85.9922 35.9727 87.2344 36.5742C88.4766 37.1758 89.4414 37.9883 90.1289 39.0117C90.8242 40.0273 91.168 41.168 91.1602 42.4336C91.168 43.7773 90.75 44.8984 89.9062 45.7969C89.0703 46.6953 87.9805 47.2656 86.6367 47.5078V47.6953C88.4023 47.9219 89.7461 48.5352 90.668 49.5352C91.5977 50.5273 92.0586 51.7695 92.0508 53.2617C92.0586 54.6289 91.6641 55.8438 90.8672 56.9062C90.0781 57.9687 88.9883 58.8047 87.5977 59.4141C86.207 60.0234 84.6133 60.3281 82.8164 60.3281Z" fill="white"/>
</g>
<defs>
<filter id="filter0_i_119_806" x="0" y="0" width="166" height="424" filterUnits="userSpaceOnUse" color-interpolation-filters="sRGB">
<feFlood flood-opacity="0" result="BackgroundImageFix"/>
<feBlend mode="normal" in="SourceGraphic" in2="BackgroundImageFix" result="shape"/>
<feColorMatrix in="SourceAlpha" type="matrix" values="0 0 0 0 0 0 0 0 0 0 0 0 0 0 0 0 0 0 127 0" result="hardAlpha"/>
<feOffset/>
<feGaussianBlur stdDeviation="2"/>
<feComposite in2="hardAlpha" operator="arithmetic" k2="-1" k3="1"/>
<feColorMatrix type="matrix" values="0 0 0 0 0 0 0 0 0 0 0 0 0 0 0 0 0 0 0.25 0"/>
<feBlend mode="normal" in2="shape" result="effect1_innerShadow_119_806"/>
</filter>
</defs>
</svg>
