<svg width="166" height="424" viewBox="0 0 166 424" fill="none" xmlns="http://www.w3.org/2000/svg">
<g filter="url(#filter0_i_119_811)">
<rect y="27" width="166" height="397" rx="83" fill="#FAF8F9"/>
<path d="M60.9389 131.036H63.4685V140.159C63.4685 141.159 63.2321 142.039 62.7594 142.798C62.2912 143.557 61.6321 144.15 60.7821 144.577C59.9321 145 58.9389 145.211 57.8026 145.211C56.6616 145.211 55.6662 145 54.8162 144.577C53.9662 144.15 53.3071 143.557 52.8389 142.798C52.3707 142.039 52.1366 141.159 52.1366 140.159V131.036H54.6662V139.948C54.6662 140.53 54.7935 141.048 55.048 141.502C55.3071 141.957 55.6707 142.314 56.1389 142.573C56.6071 142.827 57.1616 142.955 57.8026 142.955C58.4435 142.955 58.998 142.827 59.4662 142.573C59.9389 142.314 60.3026 141.957 60.5571 141.502C60.8116 141.048 60.9389 140.53 60.9389 139.948V131.036ZM68.577 138.864V145H66.1088V134.527H68.4679V136.307H68.5906C68.8315 135.72 69.2156 135.255 69.7429 134.909C70.2747 134.564 70.9315 134.391 71.7133 134.391C72.4361 134.391 73.0656 134.545 73.602 134.855C74.1429 135.164 74.5611 135.611 74.8565 136.198C75.1565 136.784 75.3043 137.495 75.2997 138.332V145H72.8315V138.714C72.8315 138.014 72.6497 137.466 72.2861 137.07C71.927 136.675 71.4293 136.477 70.7929 136.477C70.3611 136.477 69.977 136.573 69.6406 136.764C69.3088 136.95 69.0474 137.22 68.8565 137.575C68.6702 137.93 68.577 138.359 68.577 138.864ZM80.277 131.036V145H77.8088V131.036H80.277ZM87.3832 145.205C86.3605 145.205 85.4741 144.98 84.7241 144.53C83.9741 144.08 83.3923 143.45 82.9787 142.641C82.5696 141.832 82.3651 140.886 82.3651 139.805C82.3651 138.723 82.5696 137.775 82.9787 136.961C83.3923 136.148 83.9741 135.516 84.7241 135.066C85.4741 134.616 86.3605 134.391 87.3832 134.391C88.406 134.391 89.2923 134.616 90.0423 135.066C90.7923 135.516 91.3719 136.148 91.781 136.961C92.1946 137.775 92.4014 138.723 92.4014 139.805C92.4014 140.886 92.1946 141.832 91.781 142.641C91.3719 143.45 90.7923 144.08 90.0423 144.53C89.2923 144.98 88.406 145.205 87.3832 145.205ZM87.3969 143.227C87.9514 143.227 88.4151 143.075 88.7878 142.77C89.1605 142.461 89.4378 142.048 89.6196 141.53C89.806 141.011 89.8991 140.434 89.8991 139.798C89.8991 139.157 89.806 138.577 89.6196 138.059C89.4378 137.536 89.1605 137.12 88.7878 136.811C88.4151 136.502 87.9514 136.348 87.3969 136.348C86.8287 136.348 86.356 136.502 85.9787 136.811C85.606 137.12 85.3264 137.536 85.1401 138.059C84.9582 138.577 84.8673 139.157 84.8673 139.798C84.8673 140.434 84.9582 141.011 85.1401 141.53C85.3264 142.048 85.606 142.461 85.9787 142.77C86.356 143.075 86.8287 143.227 87.3969 143.227ZM99.0645 145.205C98.019 145.205 97.1213 144.975 96.3713 144.516C95.6258 144.057 95.0508 143.423 94.6463 142.614C94.2463 141.8 94.0463 140.864 94.0463 139.805C94.0463 138.741 94.2508 137.802 94.6599 136.989C95.069 136.17 95.6463 135.534 96.3918 135.08C97.1418 134.62 98.0281 134.391 99.0508 134.391C99.9008 134.391 100.653 134.548 101.308 134.861C101.967 135.17 102.492 135.609 102.883 136.177C103.274 136.741 103.496 137.4 103.551 138.155H101.192C101.096 137.65 100.869 137.23 100.51 136.893C100.155 136.552 99.6804 136.382 99.0849 136.382C98.5804 136.382 98.1372 136.518 97.7554 136.791C97.3736 137.059 97.0758 137.445 96.8622 137.95C96.6531 138.455 96.5486 139.059 96.5486 139.764C96.5486 140.477 96.6531 141.091 96.8622 141.605C97.0713 142.114 97.3645 142.507 97.7418 142.784C98.1236 143.057 98.5713 143.193 99.0849 143.193C99.4486 143.193 99.7736 143.125 100.06 142.989C100.351 142.848 100.594 142.645 100.789 142.382C100.985 142.118 101.119 141.798 101.192 141.42H103.551C103.492 142.161 103.274 142.818 102.896 143.391C102.519 143.959 102.005 144.405 101.355 144.727C100.705 145.045 99.9418 145.205 99.0645 145.205ZM107.828 141.714L107.821 138.734H108.216L111.98 134.527H114.864L110.234 139.682H109.723L107.828 141.714ZM105.578 145V131.036H108.046V145H105.578ZM112.15 145L108.741 140.234L110.405 138.495L115.103 145H112.15ZM42.4685 168H37.7366V154.036H42.5639C43.9503 154.036 45.1412 154.316 46.1366 154.875C47.1366 155.43 47.9048 156.227 48.4412 157.268C48.9776 158.309 49.2457 159.555 49.2457 161.005C49.2457 162.459 48.9753 163.709 48.4344 164.755C47.898 165.8 47.123 166.602 46.1094 167.161C45.1003 167.72 43.8866 168 42.4685 168ZM40.2662 165.811H42.3457C43.3185 165.811 44.1298 165.634 44.7798 165.28C45.4298 164.92 45.9185 164.386 46.2457 163.677C46.573 162.964 46.7366 162.073 46.7366 161.005C46.7366 159.936 46.573 159.05 46.2457 158.345C45.9185 157.636 45.4344 157.107 44.7935 156.757C44.1571 156.402 43.3662 156.225 42.4207 156.225H40.2662V165.811ZM51.5401 168V157.527H54.0082V168H51.5401ZM52.781 156.041C52.3901 156.041 52.0537 155.911 51.7719 155.652C51.4901 155.389 51.3491 155.073 51.3491 154.705C51.3491 154.332 51.4901 154.016 51.7719 153.757C52.0537 153.493 52.3901 153.361 52.781 153.361C53.1764 153.361 53.5128 153.493 53.7901 153.757C54.0719 154.016 54.2128 154.332 54.2128 154.705C54.2128 155.073 54.0719 155.389 53.7901 155.652C53.5128 155.911 53.1764 156.041 52.781 156.041ZM64.8236 160.295L62.5736 160.541C62.5099 160.314 62.3986 160.1 62.2395 159.9C62.0849 159.7 61.8759 159.539 61.6122 159.416C61.3486 159.293 61.0259 159.232 60.644 159.232C60.1304 159.232 59.6986 159.343 59.3486 159.566C59.0031 159.789 58.8327 160.077 58.8372 160.432C58.8327 160.736 58.944 160.984 59.1713 161.175C59.4031 161.366 59.7849 161.523 60.3168 161.645L62.1031 162.027C63.094 162.241 63.8304 162.58 64.3122 163.043C64.7986 163.507 65.044 164.114 65.0486 164.864C65.044 165.523 64.8509 166.105 64.469 166.609C64.0918 167.109 63.5668 167.5 62.894 167.782C62.2213 168.064 61.4486 168.205 60.5759 168.205C59.294 168.205 58.2622 167.936 57.4804 167.4C56.6986 166.859 56.2327 166.107 56.0827 165.143L58.4895 164.911C58.5986 165.384 58.8304 165.741 59.1849 165.982C59.5395 166.223 60.0009 166.343 60.569 166.343C61.1554 166.343 61.6259 166.223 61.9804 165.982C62.3395 165.741 62.519 165.443 62.519 165.089C62.519 164.789 62.4031 164.541 62.1713 164.345C61.944 164.15 61.5895 164 61.1077 163.895L59.3213 163.52C58.3168 163.311 57.5736 162.959 57.0918 162.464C56.6099 161.964 56.3713 161.332 56.3759 160.568C56.3713 159.923 56.5463 159.364 56.9009 158.891C57.2599 158.414 57.7577 158.045 58.394 157.786C59.0349 157.523 59.7736 157.391 60.6099 157.391C61.8372 157.391 62.8031 157.652 63.5077 158.175C64.2168 158.698 64.6554 159.405 64.8236 160.295ZM71.652 168.205C70.6065 168.205 69.7088 167.975 68.9588 167.516C68.2134 167.057 67.6384 166.423 67.2338 165.614C66.8338 164.8 66.6338 163.864 66.6338 162.805C66.6338 161.741 66.8384 160.802 67.2474 159.989C67.6565 159.17 68.2338 158.534 68.9793 158.08C69.7293 157.62 70.6156 157.391 71.6384 157.391C72.4884 157.391 73.2406 157.548 73.8952 157.861C74.5543 158.17 75.0793 158.609 75.4702 159.177C75.8611 159.741 76.0838 160.4 76.1384 161.155H73.7793C73.6838 160.65 73.4565 160.23 73.0974 159.893C72.7429 159.552 72.2679 159.382 71.6724 159.382C71.1679 159.382 70.7247 159.518 70.3429 159.791C69.9611 160.059 69.6634 160.445 69.4497 160.95C69.2406 161.455 69.1361 162.059 69.1361 162.764C69.1361 163.477 69.2406 164.091 69.4497 164.605C69.6588 165.114 69.952 165.507 70.3293 165.784C70.7111 166.057 71.1588 166.193 71.6724 166.193C72.0361 166.193 72.3611 166.125 72.6474 165.989C72.9384 165.848 73.1815 165.645 73.377 165.382C73.5724 165.118 73.7065 164.798 73.7793 164.42H76.1384C76.0793 165.161 75.8611 165.818 75.4838 166.391C75.1065 166.959 74.5929 167.405 73.9429 167.727C73.2929 168.045 72.5293 168.205 71.652 168.205ZM82.7332 168.205C81.7105 168.205 80.8242 167.98 80.0742 167.53C79.3242 167.08 78.7423 166.45 78.3287 165.641C77.9196 164.832 77.7151 163.886 77.7151 162.805C77.7151 161.723 77.9196 160.775 78.3287 159.961C78.7423 159.148 79.3242 158.516 80.0742 158.066C80.8242 157.616 81.7105 157.391 82.7332 157.391C83.756 157.391 84.6423 157.616 85.3923 158.066C86.1423 158.516 86.7219 159.148 87.131 159.961C87.5446 160.775 87.7514 161.723 87.7514 162.805C87.7514 163.886 87.5446 164.832 87.131 165.641C86.7219 166.45 86.1423 167.08 85.3923 167.53C84.6423 167.98 83.756 168.205 82.7332 168.205ZM82.7469 166.227C83.3014 166.227 83.7651 166.075 84.1378 165.77C84.5105 165.461 84.7878 165.048 84.9696 164.53C85.156 164.011 85.2492 163.434 85.2492 162.798C85.2492 162.157 85.156 161.577 84.9696 161.059C84.7878 160.536 84.5105 160.12 84.1378 159.811C83.7651 159.502 83.3014 159.348 82.7469 159.348C82.1787 159.348 81.706 159.502 81.3287 159.811C80.956 160.12 80.6764 160.536 80.4901 161.059C80.3082 161.577 80.2173 162.157 80.2173 162.798C80.2173 163.434 80.3082 164.011 80.4901 164.53C80.6764 165.048 80.956 165.461 81.3287 165.77C81.706 166.075 82.1787 166.227 82.7469 166.227ZM96.5213 163.595V157.527H98.9895V168H96.5963V166.139H96.4872C96.2509 166.725 95.8622 167.205 95.3213 167.577C94.7849 167.95 94.1236 168.136 93.3372 168.136C92.6509 168.136 92.044 167.984 91.5168 167.68C90.994 167.37 90.5849 166.923 90.2895 166.336C89.994 165.745 89.8463 165.032 89.8463 164.195V157.527H92.3145V163.814C92.3145 164.477 92.4963 165.005 92.8599 165.395C93.2236 165.786 93.7009 165.982 94.2918 165.982C94.6554 165.982 95.0077 165.893 95.3486 165.716C95.6895 165.539 95.969 165.275 96.1872 164.925C96.4099 164.57 96.5213 164.127 96.5213 163.595ZM103.996 161.864V168H101.528V157.527H103.887V159.307H104.009C104.25 158.72 104.634 158.255 105.162 157.909C105.693 157.564 106.35 157.391 107.132 157.391C107.855 157.391 108.484 157.545 109.021 157.855C109.562 158.164 109.98 158.611 110.275 159.198C110.575 159.784 110.723 160.495 110.718 161.332V168H108.25V161.714C108.25 161.014 108.068 160.466 107.705 160.07C107.346 159.675 106.848 159.477 106.212 159.477C105.78 159.477 105.396 159.573 105.059 159.764C104.728 159.95 104.466 160.22 104.275 160.575C104.089 160.93 103.996 161.359 103.996 161.864ZM118.457 157.527V159.436H112.437V157.527H118.457ZM113.923 155.018H116.391V164.85C116.391 165.182 116.441 165.436 116.541 165.614C116.646 165.786 116.782 165.905 116.95 165.968C117.118 166.032 117.305 166.064 117.509 166.064C117.664 166.064 117.805 166.052 117.932 166.03C118.064 166.007 118.164 165.986 118.232 165.968L118.648 167.898C118.516 167.943 118.328 167.993 118.082 168.048C117.841 168.102 117.546 168.134 117.196 168.143C116.578 168.161 116.021 168.068 115.525 167.864C115.03 167.655 114.637 167.332 114.346 166.895C114.059 166.459 113.918 165.914 113.923 165.259V155.018ZM128.649 160.295L126.399 160.541C126.335 160.314 126.224 160.1 126.064 159.9C125.91 159.7 125.701 159.539 125.437 159.416C125.174 159.293 124.851 159.232 124.469 159.232C123.955 159.232 123.524 159.343 123.174 159.566C122.828 159.789 122.658 160.077 122.662 160.432C122.658 160.736 122.769 160.984 122.996 161.175C123.228 161.366 123.61 161.523 124.142 161.645L125.928 162.027C126.919 162.241 127.655 162.58 128.137 163.043C128.624 163.507 128.869 164.114 128.874 164.864C128.869 165.523 128.676 166.105 128.294 166.609C127.917 167.109 127.392 167.5 126.719 167.782C126.046 168.064 125.274 168.205 124.401 168.205C123.119 168.205 122.087 167.936 121.305 167.4C120.524 166.859 120.058 166.107 119.908 165.143L122.314 164.911C122.424 165.384 122.655 165.741 123.01 165.982C123.364 166.223 123.826 166.343 124.394 166.343C124.98 166.343 125.451 166.223 125.805 165.982C126.164 165.741 126.344 165.443 126.344 165.089C126.344 164.789 126.228 164.541 125.996 164.345C125.769 164.15 125.414 164 124.933 163.895L123.146 163.52C122.142 163.311 121.399 162.959 120.917 162.464C120.435 161.964 120.196 161.332 120.201 160.568C120.196 159.923 120.371 159.364 120.726 158.891C121.085 158.414 121.583 158.045 122.219 157.786C122.86 157.523 123.599 157.391 124.435 157.391C125.662 157.391 126.628 157.652 127.333 158.175C128.042 158.698 128.48 159.405 128.649 160.295Z" fill="#FD6C31"/>
<path d="M42.5213 215C42.4119 214.665 42.2678 214.365 42.0888 214.1C41.9131 213.832 41.7027 213.603 41.4574 213.414C41.2154 213.225 40.9403 213.081 40.6321 212.982C40.3239 212.882 39.9858 212.832 39.6179 212.832C39.0147 212.832 38.4661 212.988 37.9723 213.3C37.4785 213.611 37.0857 214.07 36.794 214.677C36.5024 215.283 36.3565 216.027 36.3565 216.909C36.3565 217.791 36.504 218.535 36.799 219.141C37.094 219.748 37.4934 220.207 37.9972 220.518C38.5009 220.83 39.0677 220.986 39.6974 220.986C40.2808 220.986 40.7945 220.862 41.2386 220.613C41.6861 220.361 42.0341 220.006 42.2827 219.549C42.5346 219.088 42.6605 218.546 42.6605 217.923L43.0384 218.003H39.9759V216.909H43.8537V218.003C43.8537 218.841 43.6747 219.571 43.3168 220.19C42.9621 220.81 42.4716 221.291 41.8452 221.632C41.2221 221.97 40.5062 222.139 39.6974 222.139C38.7959 222.139 38.0038 221.927 37.321 221.503C36.6416 221.079 36.1113 220.475 35.7301 219.693C35.3523 218.911 35.1634 217.983 35.1634 216.909C35.1634 216.104 35.2711 215.379 35.4865 214.737C35.7053 214.09 36.0135 213.54 36.4112 213.086C36.8089 212.632 37.2796 212.284 37.8232 212.042C38.3667 211.8 38.965 211.679 39.6179 211.679C40.1548 211.679 40.6553 211.76 41.1193 211.923C41.5866 212.082 42.0026 212.309 42.3672 212.604C42.7351 212.895 43.0417 213.245 43.2869 213.653C43.5322 214.057 43.7012 214.506 43.794 215H42.5213ZM48.0534 222.179C47.5695 222.179 47.1304 222.088 46.736 221.906C46.3416 221.72 46.0283 221.453 45.7963 221.105C45.5643 220.754 45.4483 220.33 45.4483 219.832C45.4483 219.395 45.5345 219.04 45.7069 218.768C45.8792 218.493 46.1096 218.278 46.3979 218.122C46.6863 217.966 47.0044 217.85 47.3525 217.774C47.7038 217.695 48.0568 217.632 48.4114 217.585C48.8754 217.526 49.2516 217.481 49.54 217.451C49.8316 217.418 50.0437 217.363 50.1763 217.287C50.3122 217.211 50.3801 217.078 50.3801 216.889V216.849C50.3801 216.359 50.2459 215.978 49.9775 215.706C49.7123 215.434 49.3096 215.298 48.7694 215.298C48.2092 215.298 47.7701 215.421 47.4519 215.666C47.1337 215.911 46.91 216.173 46.7807 216.452L45.6671 216.054C45.8659 215.59 46.1311 215.229 46.4625 214.97C46.7973 214.708 47.1619 214.526 47.5563 214.423C47.954 214.317 48.3451 214.264 48.7296 214.264C48.9748 214.264 49.2566 214.294 49.5748 214.354C49.8962 214.41 50.2061 214.528 50.5044 214.707C50.806 214.886 51.0563 215.156 51.2551 215.517C51.454 215.878 51.5534 216.362 51.5534 216.969V222H50.3801V220.966H50.3205C50.2409 221.132 50.1084 221.309 49.9228 221.498C49.7372 221.687 49.4902 221.848 49.182 221.98C48.8738 222.113 48.4976 222.179 48.0534 222.179ZM48.2324 221.125C48.6964 221.125 49.0875 221.034 49.4057 220.852C49.7272 220.669 49.9692 220.434 50.1316 220.146C50.2973 219.857 50.3801 219.554 50.3801 219.236V218.162C50.3304 218.222 50.2211 218.276 50.052 218.326C49.8863 218.372 49.6941 218.414 49.4753 218.45C49.2599 218.483 49.0494 218.513 48.8439 218.54C48.6417 218.563 48.4777 218.583 48.3517 218.599C48.0468 218.639 47.7618 218.704 47.4966 218.793C47.2348 218.879 47.0227 219.01 46.8603 219.186C46.7012 219.358 46.6216 219.594 46.6216 219.892C46.6216 220.3 46.7724 220.608 47.074 220.817C47.379 221.022 47.7651 221.125 48.2324 221.125ZM53.695 222V214.364H54.8683V222H53.695ZM54.2915 213.091C54.0629 213.091 53.8656 213.013 53.6999 212.857C53.5375 212.701 53.4563 212.514 53.4563 212.295C53.4563 212.077 53.5375 211.889 53.6999 211.734C53.8656 211.578 54.0629 211.5 54.2915 211.5C54.5202 211.5 54.7158 211.578 54.8782 211.734C55.0439 211.889 55.1268 212.077 55.1268 212.295C55.1268 212.514 55.0439 212.701 54.8782 212.857C54.7158 213.013 54.5202 213.091 54.2915 213.091ZM58.1905 217.406V222H57.0172V214.364H58.1507V215.557H58.2502C58.4292 215.169 58.7009 214.857 59.0655 214.622C59.4301 214.384 59.9007 214.264 60.4775 214.264C60.9945 214.264 61.4469 214.37 61.8347 214.582C62.2225 214.791 62.5241 215.109 62.7395 215.537C62.955 215.961 63.0627 216.498 63.0627 217.148V222H61.8894V217.227C61.8894 216.627 61.7336 216.16 61.4221 215.825C61.1105 215.487 60.6829 215.318 60.1394 215.318C59.7649 215.318 59.4301 215.399 59.1351 215.562C58.8435 215.724 58.6131 215.961 58.4441 216.273C58.275 216.584 58.1905 216.962 58.1905 217.406ZM71.3913 222.179C70.9074 222.179 70.4683 222.088 70.0739 221.906C69.6795 221.72 69.3662 221.453 69.1342 221.105C68.9022 220.754 68.7862 220.33 68.7862 219.832C68.7862 219.395 68.8724 219.04 69.0447 218.768C69.2171 218.493 69.4474 218.278 69.7358 218.122C70.0241 217.966 70.3423 217.85 70.6903 217.774C71.0417 217.695 71.3946 217.632 71.7493 217.585C72.2133 217.526 72.5895 217.481 72.8778 217.451C73.1695 217.418 73.3816 217.363 73.5142 217.287C73.6501 217.211 73.718 217.078 73.718 216.889V216.849C73.718 216.359 73.5838 215.978 73.3153 215.706C73.0502 215.434 72.6475 215.298 72.1072 215.298C71.5471 215.298 71.108 215.421 70.7898 215.666C70.4716 215.911 70.2479 216.173 70.1186 216.452L69.005 216.054C69.2038 215.59 69.469 215.229 69.8004 214.97C70.1352 214.708 70.4998 214.526 70.8942 214.423C71.2919 214.317 71.683 214.264 72.0675 214.264C72.3127 214.264 72.5945 214.294 72.9126 214.354C73.2341 214.41 73.544 214.528 73.8423 214.707C74.1439 214.886 74.3942 215.156 74.593 215.517C74.7919 215.878 74.8913 216.362 74.8913 216.969V222H73.718V220.966H73.6584C73.5788 221.132 73.4463 221.309 73.2607 221.498C73.075 221.687 72.8281 221.848 72.5199 221.98C72.2116 222.113 71.8355 222.179 71.3913 222.179ZM71.5703 221.125C72.0343 221.125 72.4254 221.034 72.7436 220.852C73.0651 220.669 73.3071 220.434 73.4695 220.146C73.6352 219.857 73.718 219.554 73.718 219.236V218.162C73.6683 218.222 73.5589 218.276 73.3899 218.326C73.2242 218.372 73.032 218.414 72.8132 218.45C72.5978 218.483 72.3873 218.513 72.1818 218.54C71.9796 218.563 71.8156 218.583 71.6896 218.599C71.3847 218.639 71.0997 218.704 70.8345 218.793C70.5727 218.879 70.3606 219.01 70.1982 219.186C70.0391 219.358 69.9595 219.594 69.9595 219.892C69.9595 220.3 70.1103 220.608 70.4119 220.817C70.7169 221.022 71.103 221.125 71.5703 221.125ZM80.1351 222.159C79.4192 222.159 78.8027 221.99 78.2857 221.652C77.7686 221.314 77.3709 220.848 77.0925 220.255C76.8141 219.662 76.6749 218.984 76.6749 218.222C76.6749 217.446 76.8174 216.762 77.1025 216.168C77.3908 215.572 77.7918 215.106 78.3056 214.771C78.8226 214.433 79.4258 214.264 80.1152 214.264C80.6522 214.264 81.1361 214.364 81.5669 214.562C81.9978 214.761 82.3508 215.04 82.6259 215.398C82.901 215.756 83.0717 216.173 83.138 216.651H81.9647C81.8752 216.303 81.6763 215.994 81.3681 215.726C81.0632 215.454 80.6522 215.318 80.1351 215.318C79.6777 215.318 79.2767 215.437 78.932 215.676C78.5906 215.911 78.3238 216.245 78.1316 216.675C77.9426 217.103 77.8482 217.605 77.8482 218.182C77.8482 218.772 77.941 219.286 78.1266 219.723C78.3155 220.161 78.5807 220.5 78.9221 220.742C79.2667 220.984 79.6711 221.105 80.1351 221.105C80.44 221.105 80.7168 221.052 80.9654 220.946C81.214 220.84 81.4244 220.688 81.5968 220.489C81.7691 220.29 81.8917 220.051 81.9647 219.773H83.138C83.0717 220.223 82.9076 220.629 82.6458 220.991C82.3873 221.349 82.0442 221.634 81.6167 221.846C81.1924 222.055 80.6986 222.159 80.1351 222.159ZM87.9554 222.159C87.2395 222.159 86.623 221.99 86.106 221.652C85.589 221.314 85.1912 220.848 84.9128 220.255C84.6344 219.662 84.4952 218.984 84.4952 218.222C84.4952 217.446 84.6377 216.762 84.9228 216.168C85.2111 215.572 85.6122 215.106 86.1259 214.771C86.6429 214.433 87.2462 214.264 87.9355 214.264C88.4725 214.264 88.9564 214.364 89.3873 214.562C89.8181 214.761 90.1711 215.04 90.4462 215.398C90.7213 215.756 90.892 216.173 90.9583 216.651H89.785C89.6955 216.303 89.4966 215.994 89.1884 215.726C88.8835 215.454 88.4725 215.318 87.9554 215.318C87.498 215.318 87.097 215.437 86.7523 215.676C86.4109 215.911 86.1441 216.245 85.9519 216.675C85.763 217.103 85.6685 217.605 85.6685 218.182C85.6685 218.772 85.7613 219.286 85.9469 219.723C86.1358 220.161 86.401 220.5 86.7424 220.742C87.0871 220.984 87.4914 221.105 87.9554 221.105C88.2604 221.105 88.5371 221.052 88.7857 220.946C89.0343 220.84 89.2447 220.688 89.4171 220.489C89.5894 220.29 89.7121 220.051 89.785 219.773H90.9583C90.892 220.223 90.7279 220.629 90.4661 220.991C90.2076 221.349 89.8645 221.634 89.437 221.846C89.0127 222.055 88.5189 222.159 87.9554 222.159ZM95.8752 222.159C95.1394 222.159 94.5047 221.997 93.9711 221.672C93.4408 221.344 93.0314 220.886 92.7431 220.3C92.458 219.71 92.3155 219.024 92.3155 218.241C92.3155 217.459 92.458 216.77 92.7431 216.173C93.0314 215.573 93.4325 215.106 93.9462 214.771C94.4632 214.433 95.0665 214.264 95.7559 214.264C96.1536 214.264 96.5463 214.33 96.9341 214.463C97.3219 214.596 97.6749 214.811 97.9931 215.109C98.3113 215.404 98.5648 215.795 98.7537 216.283C98.9426 216.77 99.0371 217.37 99.0371 218.082V218.58H93.1507V217.565H97.8439C97.8439 217.134 97.7578 216.75 97.5854 216.412C97.4164 216.074 97.1744 215.807 96.8596 215.612C96.548 215.416 96.1801 215.318 95.7559 215.318C95.2885 215.318 94.8842 215.434 94.5428 215.666C94.2047 215.895 93.9445 216.193 93.7623 216.561C93.58 216.929 93.4888 217.323 93.4888 217.744V218.42C93.4888 218.997 93.5882 219.486 93.7871 219.887C93.9893 220.285 94.2694 220.588 94.6273 220.797C94.9853 221.002 95.4012 221.105 95.8752 221.105C96.1834 221.105 96.4618 221.062 96.7104 220.976C96.9623 220.886 97.1794 220.754 97.3617 220.578C97.544 220.399 97.6848 220.177 97.7843 219.912L98.9178 220.23C98.7985 220.615 98.598 220.953 98.3162 221.244C98.0345 221.533 97.6865 221.758 97.2722 221.92C96.8579 222.08 96.3922 222.159 95.8752 222.159ZM106.231 216.074L105.177 216.372C105.111 216.196 105.013 216.026 104.884 215.86C104.758 215.691 104.585 215.552 104.367 215.442C104.148 215.333 103.868 215.278 103.526 215.278C103.059 215.278 102.67 215.386 102.358 215.602C102.05 215.814 101.896 216.084 101.896 216.412C101.896 216.704 102.002 216.934 102.214 217.103C102.426 217.272 102.758 217.413 103.208 217.526L104.342 217.804C105.025 217.97 105.533 218.223 105.868 218.565C106.203 218.903 106.37 219.339 106.37 219.872C106.37 220.31 106.244 220.701 105.992 221.045C105.744 221.39 105.396 221.662 104.948 221.861C104.501 222.06 103.981 222.159 103.387 222.159C102.608 222.159 101.964 221.99 101.453 221.652C100.943 221.314 100.62 220.82 100.484 220.17L101.597 219.892C101.704 220.303 101.904 220.611 102.199 220.817C102.497 221.022 102.887 221.125 103.367 221.125C103.914 221.125 104.348 221.009 104.67 220.777C104.995 220.542 105.157 220.26 105.157 219.932C105.157 219.667 105.064 219.445 104.879 219.266C104.693 219.083 104.408 218.947 104.024 218.858L102.751 218.56C102.052 218.394 101.538 218.137 101.21 217.789C100.885 217.438 100.722 216.999 100.722 216.472C100.722 216.041 100.843 215.66 101.085 215.328C101.331 214.997 101.664 214.737 102.085 214.548C102.509 214.359 102.99 214.264 103.526 214.264C104.282 214.264 104.875 214.43 105.306 214.761C105.74 215.093 106.049 215.53 106.231 216.074ZM113.545 216.074L112.491 216.372C112.425 216.196 112.327 216.026 112.198 215.86C112.072 215.691 111.9 215.552 111.681 215.442C111.462 215.333 111.182 215.278 110.841 215.278C110.374 215.278 109.984 215.386 109.673 215.602C109.364 215.814 109.21 216.084 109.21 216.412C109.21 216.704 109.316 216.934 109.528 217.103C109.741 217.272 110.072 217.413 110.523 217.526L111.656 217.804C112.339 217.97 112.848 218.223 113.183 218.565C113.517 218.903 113.685 219.339 113.685 219.872C113.685 220.31 113.559 220.701 113.307 221.045C113.058 221.39 112.71 221.662 112.263 221.861C111.815 222.06 111.295 222.159 110.702 222.159C109.923 222.159 109.278 221.99 108.768 221.652C108.257 221.314 107.934 220.82 107.798 220.17L108.912 219.892C109.018 220.303 109.219 220.611 109.513 220.817C109.812 221.022 110.201 221.125 110.682 221.125C111.229 221.125 111.663 221.009 111.984 220.777C112.309 220.542 112.472 220.26 112.472 219.932C112.472 219.667 112.379 219.445 112.193 219.266C112.008 219.083 111.723 218.947 111.338 218.858L110.065 218.56C109.366 218.394 108.852 218.137 108.524 217.789C108.199 217.438 108.037 216.999 108.037 216.472C108.037 216.041 108.158 215.66 108.4 215.328C108.645 214.997 108.978 214.737 109.399 214.548C109.823 214.359 110.304 214.264 110.841 214.264C111.597 214.264 112.19 214.43 112.621 214.761C113.055 215.093 113.363 215.53 113.545 216.074ZM122.709 214.364V215.358H118.752V214.364H122.709ZM119.905 212.534H121.079V219.812C121.079 220.144 121.127 220.393 121.223 220.558C121.322 220.721 121.448 220.83 121.601 220.886C121.756 220.939 121.921 220.966 122.093 220.966C122.222 220.966 122.328 220.959 122.411 220.946C122.494 220.929 122.56 220.916 122.61 220.906L122.849 221.96C122.769 221.99 122.658 222.02 122.515 222.05C122.373 222.083 122.192 222.099 121.974 222.099C121.642 222.099 121.317 222.028 120.999 221.886C120.684 221.743 120.422 221.526 120.214 221.234C120.008 220.943 119.905 220.575 119.905 220.131V212.534ZM127.494 222.159C126.805 222.159 126.2 221.995 125.68 221.667C125.163 221.339 124.758 220.88 124.467 220.29C124.178 219.7 124.034 219.01 124.034 218.222C124.034 217.426 124.178 216.732 124.467 216.138C124.758 215.545 125.163 215.085 125.68 214.756C126.2 214.428 126.805 214.264 127.494 214.264C128.184 214.264 128.787 214.428 129.304 214.756C129.825 215.085 130.229 215.545 130.517 216.138C130.809 216.732 130.955 217.426 130.955 218.222C130.955 219.01 130.809 219.7 130.517 220.29C130.229 220.88 129.825 221.339 129.304 221.667C128.787 221.995 128.184 222.159 127.494 222.159ZM127.494 221.105C128.018 221.105 128.449 220.971 128.787 220.702C129.125 220.434 129.375 220.081 129.538 219.643C129.7 219.206 129.781 218.732 129.781 218.222C129.781 217.711 129.7 217.236 129.538 216.795C129.375 216.354 129.125 215.998 128.787 215.726C128.449 215.454 128.018 215.318 127.494 215.318C126.971 215.318 126.54 215.454 126.202 215.726C125.864 215.998 125.614 216.354 125.451 216.795C125.289 217.236 125.208 217.711 125.208 218.222C125.208 218.732 125.289 219.206 125.451 219.643C125.614 220.081 125.864 220.434 126.202 220.702C126.54 220.971 126.971 221.105 127.494 221.105ZM56.8898 239.159C56.154 239.159 55.5193 238.997 54.9857 238.672C54.4554 238.344 54.0461 237.886 53.7577 237.3C53.4727 236.71 53.3302 236.024 53.3302 235.241C53.3302 234.459 53.4727 233.77 53.7577 233.173C54.0461 232.573 54.4471 232.106 54.9608 231.771C55.4779 231.433 56.0811 231.264 56.7705 231.264C57.1682 231.264 57.561 231.33 57.9488 231.463C58.3366 231.596 58.6895 231.811 59.0077 232.109C59.3259 232.404 59.5795 232.795 59.7684 233.283C59.9573 233.77 60.0518 234.37 60.0518 235.082V235.58H54.1654V234.565H58.8586C58.8586 234.134 58.7724 233.75 58.6001 233.412C58.431 233.074 58.1891 232.807 57.8742 232.612C57.5626 232.416 57.1948 232.318 56.7705 232.318C56.3032 232.318 55.8988 232.434 55.5574 232.666C55.2194 232.895 54.9592 233.193 54.7769 233.561C54.5946 233.929 54.5035 234.323 54.5035 234.744V235.42C54.5035 235.997 54.6029 236.486 54.8018 236.887C55.0039 237.285 55.284 237.588 55.642 237.797C55.9999 238.002 56.4159 238.105 56.8898 238.105C57.1981 238.105 57.4765 238.062 57.7251 237.976C57.9769 237.886 58.194 237.754 58.3763 237.578C58.5586 237.399 58.6995 237.177 58.7989 236.912L59.9324 237.23C59.8131 237.615 59.6126 237.953 59.3309 238.244C59.0492 238.533 58.7011 238.758 58.2868 238.92C57.8725 239.08 57.4069 239.159 56.8898 239.159ZM62.5065 231.364L64.336 234.486L66.1656 231.364H67.5178L65.0519 235.182L67.5178 239H66.1656L64.336 236.037L62.5065 239H61.1542L63.5803 235.182L61.1542 231.364H62.5065ZM71.9798 239.159C71.2639 239.159 70.6475 238.99 70.1304 238.652C69.6134 238.314 69.2156 237.848 68.9372 237.255C68.6588 236.662 68.5196 235.984 68.5196 235.222C68.5196 234.446 68.6621 233.762 68.9472 233.168C69.2355 232.572 69.6366 232.106 70.1503 231.771C70.6673 231.433 71.2706 231.264 71.96 231.264C72.4969 231.264 72.9808 231.364 73.4117 231.562C73.8425 231.761 74.1955 232.04 74.4706 232.398C74.7457 232.756 74.9164 233.173 74.9827 233.651H73.8094C73.7199 233.303 73.521 232.994 73.2128 232.726C72.9079 232.454 72.4969 232.318 71.9798 232.318C71.5225 232.318 71.1214 232.437 70.7767 232.676C70.4353 232.911 70.1685 233.245 69.9763 233.675C69.7874 234.103 69.6929 234.605 69.6929 235.182C69.6929 235.772 69.7857 236.286 69.9713 236.723C70.1602 237.161 70.4254 237.5 70.7668 237.742C71.1115 237.984 71.5158 238.105 71.9798 238.105C72.2848 238.105 72.5615 238.052 72.8101 237.946C73.0587 237.84 73.2691 237.688 73.4415 237.489C73.6138 237.29 73.7365 237.051 73.8094 236.773H74.9827C74.9164 237.223 74.7523 237.629 74.4905 237.991C74.232 238.349 73.8889 238.634 73.4614 238.846C73.0371 239.055 72.5433 239.159 71.9798 239.159ZM77.8712 228.818V239H76.6979V228.818H77.8712ZM84.8327 235.878V231.364H86.0059V239H84.8327V237.707H84.7531C84.5741 238.095 84.2957 238.425 83.9179 238.697C83.54 238.965 83.0628 239.099 82.4861 239.099C82.0088 239.099 81.5845 238.995 81.2133 238.786C80.8421 238.574 80.5505 238.256 80.3383 237.832C80.1262 237.404 80.0202 236.866 80.0202 236.216V231.364H81.1934V236.136C81.1934 236.693 81.3492 237.137 81.6608 237.469C81.9756 237.8 82.3767 237.966 82.8639 237.966C83.1556 237.966 83.4522 237.891 83.7538 237.742C84.0587 237.593 84.314 237.364 84.5194 237.056C84.7282 236.748 84.8327 236.355 84.8327 235.878ZM93.564 233.074L92.51 233.372C92.4437 233.196 92.346 233.026 92.2167 232.86C92.0908 232.691 91.9184 232.552 91.6997 232.442C91.4809 232.333 91.2008 232.278 90.8595 232.278C90.3921 232.278 90.0027 232.386 89.6911 232.602C89.3829 232.814 89.2288 233.084 89.2288 233.412C89.2288 233.704 89.3348 233.934 89.547 234.103C89.7591 234.272 90.0905 234.413 90.5413 234.526L91.6748 234.804C92.3576 234.97 92.8663 235.223 93.2011 235.565C93.5358 235.903 93.7032 236.339 93.7032 236.872C93.7032 237.31 93.5773 237.701 93.3254 238.045C93.0768 238.39 92.7288 238.662 92.2813 238.861C91.8339 239.06 91.3135 239.159 90.7203 239.159C89.9414 239.159 89.2967 238.99 88.7863 238.652C88.2759 238.314 87.9527 237.82 87.8169 237.17L88.9305 236.892C89.0365 237.303 89.2371 237.611 89.532 237.817C89.8303 238.022 90.2198 238.125 90.7004 238.125C91.2472 238.125 91.6814 238.009 92.0029 237.777C92.3277 237.542 92.4901 237.26 92.4901 236.932C92.4901 236.667 92.3973 236.445 92.2117 236.266C92.0261 236.083 91.7411 235.947 91.3566 235.858L90.0839 235.56C89.3846 235.394 88.8708 235.137 88.5427 234.789C88.2179 234.438 88.0555 233.999 88.0555 233.472C88.0555 233.041 88.1765 232.66 88.4184 232.328C88.6637 231.997 88.9968 231.737 89.4177 231.548C89.8419 231.359 90.3225 231.264 90.8595 231.264C91.6151 231.264 92.2084 231.43 92.6393 231.761C93.0735 232.093 93.3817 232.53 93.564 233.074ZM95.4694 239V231.364H96.6427V239H95.4694ZM96.066 230.091C95.8373 230.091 95.6401 230.013 95.4743 229.857C95.3119 229.701 95.2307 229.514 95.2307 229.295C95.2307 229.077 95.3119 228.889 95.4743 228.734C95.6401 228.578 95.8373 228.5 96.066 228.5C96.2947 228.5 96.4902 228.578 96.6526 228.734C96.8183 228.889 96.9012 229.077 96.9012 229.295C96.9012 229.514 96.8183 229.701 96.6526 229.857C96.4902 230.013 96.2947 230.091 96.066 230.091ZM105.036 231.364L102.212 239H101.019L98.195 231.364H99.4678L101.576 237.449H101.655L103.763 231.364H105.036ZM109.513 239.159C108.777 239.159 108.142 238.997 107.609 238.672C107.078 238.344 106.669 237.886 106.381 237.3C106.096 236.71 105.953 236.024 105.953 235.241C105.953 234.459 106.096 233.77 106.381 233.173C106.669 232.573 107.07 232.106 107.584 231.771C108.101 231.433 108.704 231.264 109.394 231.264C109.791 231.264 110.184 231.33 110.572 231.463C110.96 231.596 111.313 231.811 111.631 232.109C111.949 232.404 112.203 232.795 112.391 233.283C112.58 233.77 112.675 234.37 112.675 235.082V235.58H106.788V234.565H111.482C111.482 234.134 111.395 233.75 111.223 233.412C111.054 233.074 110.812 232.807 110.497 232.612C110.186 232.416 109.818 232.318 109.394 232.318C108.926 232.318 108.522 232.434 108.18 232.666C107.842 232.895 107.582 233.193 107.4 233.561C107.218 233.929 107.127 234.323 107.127 234.744V235.42C107.127 235.997 107.226 236.486 107.425 236.887C107.627 237.285 107.907 237.588 108.265 237.797C108.623 238.002 109.039 238.105 109.513 238.105C109.821 238.105 110.1 238.062 110.348 237.976C110.6 237.886 110.817 237.754 110.999 237.578C111.182 237.399 111.323 237.177 111.422 236.912L112.555 237.23C112.436 237.615 112.236 237.953 111.954 238.244C111.672 238.533 111.324 238.758 110.91 238.92C110.496 239.08 110.03 239.159 109.513 239.159ZM34.568 258.864V248.364H35.7015V249.577H35.8407C35.9269 249.444 36.0462 249.275 36.1987 249.07C36.3545 248.861 36.5765 248.675 36.8649 248.513C37.1565 248.347 37.551 248.264 38.0481 248.264C38.6911 248.264 39.2579 248.425 39.7484 248.746C40.2389 249.068 40.6217 249.524 40.8968 250.114C41.1719 250.704 41.3095 251.4 41.3095 252.202C41.3095 253.01 41.1719 253.711 40.8968 254.305C40.6217 254.895 40.2406 255.352 39.7534 255.677C39.2662 255.998 38.7044 256.159 38.068 256.159C37.5775 256.159 37.1847 256.078 36.8897 255.915C36.5948 255.75 36.3677 255.562 36.2086 255.354C36.0495 255.142 35.9269 254.966 35.8407 254.827H35.7413V258.864H34.568ZM35.7214 252.182C35.7214 252.759 35.8059 253.267 35.975 253.708C36.144 254.146 36.3909 254.489 36.7157 254.737C37.0405 254.982 37.4383 255.105 37.9089 255.105C38.3994 255.105 38.8088 254.976 39.1369 254.717C39.4683 254.455 39.7169 254.104 39.8826 253.663C40.0517 253.219 40.1362 252.725 40.1362 252.182C40.1362 251.645 40.0533 251.161 39.8876 250.73C39.7252 250.296 39.4783 249.953 39.1468 249.701C38.8187 249.446 38.4061 249.318 37.9089 249.318C37.4316 249.318 37.0306 249.439 36.7058 249.681C36.381 249.92 36.1357 250.254 35.97 250.685C35.8043 251.113 35.7214 251.612 35.7214 252.182ZM43.0993 256V248.364H44.2328V249.517H44.3123C44.4515 249.139 44.7034 248.833 45.068 248.597C45.4326 248.362 45.8436 248.244 46.301 248.244C46.3871 248.244 46.4949 248.246 46.6241 248.249C46.7534 248.253 46.8511 248.258 46.9174 248.264V249.457C46.8777 249.447 46.7865 249.433 46.644 249.413C46.5048 249.389 46.3573 249.378 46.2015 249.378C45.8303 249.378 45.4989 249.456 45.2072 249.612C44.9189 249.764 44.6902 249.976 44.5211 250.248C44.3554 250.516 44.2725 250.823 44.2725 251.168V256H43.0993ZM51.2775 256.159C50.5417 256.159 49.907 255.997 49.3734 255.672C48.8431 255.344 48.4338 254.886 48.1454 254.3C47.8604 253.71 47.7179 253.024 47.7179 252.241C47.7179 251.459 47.8604 250.77 48.1454 250.173C48.4338 249.573 48.8348 249.106 49.3485 248.771C49.8656 248.433 50.4688 248.264 51.1582 248.264C51.5559 248.264 51.9487 248.33 52.3365 248.463C52.7243 248.596 53.0772 248.811 53.3954 249.109C53.7136 249.404 53.9672 249.795 54.1561 250.283C54.345 250.77 54.4395 251.37 54.4395 252.082V252.58H48.5531V251.565H53.2463C53.2463 251.134 53.1601 250.75 52.9877 250.412C52.8187 250.074 52.5768 249.807 52.2619 249.612C51.9503 249.416 51.5824 249.318 51.1582 249.318C50.6909 249.318 50.2865 249.434 49.9451 249.666C49.6071 249.895 49.3469 250.193 49.1646 250.561C48.9823 250.929 48.8912 251.323 48.8912 251.744V252.42C48.8912 252.997 48.9906 253.486 49.1895 253.887C49.3916 254.285 49.6717 254.588 50.0297 254.797C50.3876 255.002 50.8036 255.105 51.2775 255.105C51.5858 255.105 51.8642 255.062 52.1127 254.976C52.3646 254.886 52.5817 254.754 52.764 254.578C52.9463 254.399 53.0872 254.177 53.1866 253.912L54.3201 254.23C54.2008 254.615 54.0003 254.953 53.7186 255.244C53.4368 255.533 53.0888 255.758 52.6745 255.92C52.2602 256.08 51.7946 256.159 51.2775 256.159ZM59.8833 251.088V252.182H55.4288V251.088H59.8833ZM62.4151 245.818V256H61.2418V245.818H62.4151ZM66.8113 256.179C66.3274 256.179 65.8882 256.088 65.4938 255.906C65.0994 255.72 64.7862 255.453 64.5542 255.105C64.3221 254.754 64.2061 254.33 64.2061 253.832C64.2061 253.395 64.2923 253.04 64.4647 252.768C64.637 252.493 64.8674 252.278 65.1557 252.122C65.4441 251.966 65.7623 251.85 66.1103 251.774C66.4616 251.695 66.8146 251.632 67.1692 251.585C67.6332 251.526 68.0094 251.481 68.2978 251.451C68.5894 251.418 68.8016 251.363 68.9341 251.287C69.07 251.211 69.138 251.078 69.138 250.889V250.849C69.138 250.359 69.0037 249.978 68.7353 249.706C68.4701 249.434 68.0674 249.298 67.5272 249.298C66.967 249.298 66.5279 249.421 66.2097 249.666C65.8915 249.911 65.6678 250.173 65.5385 250.452L64.4249 250.054C64.6238 249.59 64.8889 249.229 65.2203 248.97C65.5551 248.708 65.9197 248.526 66.3141 248.423C66.7118 248.317 67.1029 248.264 67.4874 248.264C67.7327 248.264 68.0144 248.294 68.3326 248.354C68.6541 248.41 68.964 248.528 69.2623 248.707C69.5639 248.886 69.8141 249.156 70.013 249.517C70.2118 249.878 70.3113 250.362 70.3113 250.969V256H69.138V254.966H69.0783C68.9988 255.132 68.8662 255.309 68.6806 255.498C68.495 255.687 68.248 255.848 67.9398 255.98C67.6316 256.113 67.2554 256.179 66.8113 256.179ZM66.9902 255.125C67.4542 255.125 67.8453 255.034 68.1635 254.852C68.485 254.669 68.727 254.434 68.8894 254.146C69.0551 253.857 69.138 253.554 69.138 253.236V252.162C69.0882 252.222 68.9789 252.276 68.8098 252.326C68.6441 252.372 68.4519 252.414 68.2331 252.45C68.0177 252.483 67.8072 252.513 67.6017 252.54C67.3996 252.563 67.2355 252.583 67.1096 252.599C66.8046 252.639 66.5196 252.704 66.2544 252.793C65.9926 252.879 65.7805 253.01 65.6181 253.186C65.459 253.358 65.3794 253.594 65.3794 253.892C65.3794 254.3 65.5302 254.608 65.8319 254.817C66.1368 255.022 66.5229 255.125 66.9902 255.125ZM77.2653 252.878V248.364H78.4386V256H77.2653V254.707H77.1857C77.0067 255.095 76.7283 255.425 76.3505 255.697C75.9727 255.965 75.4954 256.099 74.9187 256.099C74.4414 256.099 74.0172 255.995 73.646 255.786C73.2747 255.574 72.9831 255.256 72.771 254.832C72.5588 254.404 72.4528 253.866 72.4528 253.216V248.364H73.6261V253.136C73.6261 253.693 73.7818 254.137 74.0934 254.469C74.4083 254.8 74.8093 254.966 75.2965 254.966C75.5882 254.966 75.8848 254.891 76.1864 254.742C76.4914 254.593 76.7466 254.364 76.9521 254.056C77.1609 253.748 77.2653 253.355 77.2653 252.878ZM81.7608 251.406V256H80.5875V248.364H81.7211V249.557H81.8205C81.9995 249.169 82.2712 248.857 82.6358 248.622C83.0004 248.384 83.4711 248.264 84.0478 248.264C84.5648 248.264 85.0172 248.37 85.405 248.582C85.7928 248.791 86.0944 249.109 86.3098 249.537C86.5253 249.961 86.633 250.498 86.633 251.148V256H85.4597V251.227C85.4597 250.627 85.3039 250.16 84.9924 249.825C84.6808 249.487 84.2533 249.318 83.7097 249.318C83.3352 249.318 83.0004 249.399 82.7054 249.562C82.4138 249.724 82.1834 249.961 82.0144 250.273C81.8453 250.584 81.7608 250.962 81.7608 251.406ZM91.8793 256.159C91.1634 256.159 90.5469 255.99 90.0298 255.652C89.5128 255.314 89.1151 254.848 88.8366 254.255C88.5582 253.662 88.419 252.984 88.419 252.222C88.419 251.446 88.5616 250.762 88.8466 250.168C89.1349 249.572 89.536 249.106 90.0497 248.771C90.5668 248.433 91.17 248.264 91.8594 248.264C92.3963 248.264 92.8802 248.364 93.3111 248.562C93.742 248.761 94.0949 249.04 94.37 249.398C94.6451 249.756 94.8158 250.173 94.8821 250.651H93.7088C93.6193 250.303 93.4205 249.994 93.1122 249.726C92.8073 249.454 92.3963 249.318 91.8793 249.318C91.4219 249.318 91.0208 249.437 90.6761 249.676C90.3348 249.911 90.0679 250.245 89.8757 250.675C89.6868 251.103 89.5923 251.605 89.5923 252.182C89.5923 252.772 89.6851 253.286 89.8707 253.723C90.0597 254.161 90.3248 254.5 90.6662 254.742C91.0109 254.984 91.4152 255.105 91.8793 255.105C92.1842 255.105 92.4609 255.052 92.7095 254.946C92.9581 254.84 93.1686 254.688 93.3409 254.489C93.5133 254.29 93.6359 254.051 93.7088 253.773H94.8821C94.8158 254.223 94.6518 254.629 94.3899 254.991C94.1314 255.349 93.7884 255.634 93.3608 255.846C92.9366 256.055 92.4427 256.159 91.8793 256.159ZM97.7706 251.406V256H96.5973V245.818H97.7706V249.557H97.87C98.049 249.162 98.3175 248.849 98.6754 248.617C99.0367 248.382 99.5173 248.264 100.117 248.264C100.638 248.264 101.093 248.369 101.484 248.577C101.875 248.783 102.179 249.099 102.394 249.527C102.613 249.951 102.722 250.491 102.722 251.148V256H101.549V251.227C101.549 250.621 101.392 250.152 101.077 249.82C100.765 249.486 100.333 249.318 99.7791 249.318C99.3946 249.318 99.05 249.399 98.745 249.562C98.4434 249.724 98.2048 249.961 98.0291 250.273C97.8568 250.584 97.7706 250.962 97.7706 251.406ZM111.053 256.179C110.57 256.179 110.13 256.088 109.736 255.906C109.342 255.72 109.028 255.453 108.796 255.105C108.564 254.754 108.448 254.33 108.448 253.832C108.448 253.395 108.535 253.04 108.707 252.768C108.879 252.493 109.11 252.278 109.398 252.122C109.686 251.966 110.004 251.85 110.352 251.774C110.704 251.695 111.057 251.632 111.411 251.585C111.875 251.526 112.252 251.481 112.54 251.451C112.832 251.418 113.044 251.363 113.176 251.287C113.312 251.211 113.38 251.078 113.38 250.889V250.849C113.38 250.359 113.246 249.978 112.977 249.706C112.712 249.434 112.31 249.298 111.769 249.298C111.209 249.298 110.77 249.421 110.452 249.666C110.134 249.911 109.91 250.173 109.781 250.452L108.667 250.054C108.866 249.59 109.131 249.229 109.463 248.97C109.797 248.708 110.162 248.526 110.556 248.423C110.954 248.317 111.345 248.264 111.73 248.264C111.975 248.264 112.257 248.294 112.575 248.354C112.896 248.41 113.206 248.528 113.504 248.707C113.806 248.886 114.056 249.156 114.255 249.517C114.454 249.878 114.553 250.362 114.553 250.969V256H113.38V254.966H113.32C113.241 255.132 113.108 255.309 112.923 255.498C112.737 255.687 112.49 255.848 112.182 255.98C111.874 256.113 111.498 256.179 111.053 256.179ZM111.232 255.125C111.696 255.125 112.088 255.034 112.406 254.852C112.727 254.669 112.969 254.434 113.132 254.146C113.297 253.857 113.38 253.554 113.38 253.236V252.162C113.33 252.222 113.221 252.276 113.052 252.326C112.886 252.372 112.694 252.414 112.475 252.45C112.26 252.483 112.049 252.513 111.844 252.54C111.642 252.563 111.478 252.583 111.352 252.599C111.047 252.639 110.762 252.704 110.497 252.793C110.235 252.879 110.023 253.01 109.86 253.186C109.701 253.358 109.622 253.594 109.622 253.892C109.622 254.3 109.772 254.608 110.074 254.817C110.379 255.022 110.765 255.125 111.232 255.125ZM117.868 251.406V256H116.695V248.364H117.828V249.557H117.928C118.107 249.169 118.379 248.857 118.743 248.622C119.108 248.384 119.578 248.264 120.155 248.264C120.672 248.264 121.125 248.37 121.512 248.582C121.9 248.791 122.202 249.109 122.417 249.537C122.633 249.961 122.74 250.498 122.74 251.148V256H121.567V251.227C121.567 250.627 121.411 250.16 121.1 249.825C120.788 249.487 120.361 249.318 119.817 249.318C119.443 249.318 119.108 249.399 118.813 249.562C118.521 249.724 118.291 249.961 118.122 250.273C117.953 250.584 117.868 250.962 117.868 251.406ZM127.768 256.159C127.132 256.159 126.57 255.998 126.083 255.677C125.595 255.352 125.214 254.895 124.939 254.305C124.664 253.711 124.526 253.01 124.526 252.202C124.526 251.4 124.664 250.704 124.939 250.114C125.214 249.524 125.597 249.068 126.088 248.746C126.578 248.425 127.145 248.264 127.788 248.264C128.285 248.264 128.678 248.347 128.966 248.513C129.258 248.675 129.48 248.861 129.632 249.07C129.788 249.275 129.909 249.444 129.995 249.577H130.095V245.818H131.268V256H130.134V254.827H129.995C129.909 254.966 129.786 255.142 129.627 255.354C129.468 255.562 129.241 255.75 128.946 255.915C128.651 256.078 128.258 256.159 127.768 256.159ZM127.927 255.105C128.398 255.105 128.795 254.982 129.12 254.737C129.445 254.489 129.692 254.146 129.861 253.708C130.03 253.267 130.115 252.759 130.115 252.182C130.115 251.612 130.032 251.113 129.866 250.685C129.7 250.254 129.455 249.92 129.13 249.681C128.805 249.439 128.404 249.318 127.927 249.318C127.43 249.318 127.016 249.446 126.684 249.701C126.356 249.953 126.109 250.296 125.943 250.73C125.781 251.161 125.7 251.645 125.7 252.182C125.7 252.725 125.783 253.219 125.948 253.663C126.117 254.104 126.366 254.455 126.694 254.717C127.026 254.976 127.436 255.105 127.927 255.105ZM34.1597 273V262.818H35.333V266.577H35.4324C35.5186 266.444 35.6379 266.275 35.7904 266.07C35.9462 265.861 36.1682 265.675 36.4566 265.513C36.7483 265.347 37.1427 265.264 37.6398 265.264C38.2828 265.264 38.8496 265.425 39.3401 265.746C39.8306 266.068 40.2135 266.524 40.4885 267.114C40.7636 267.704 40.9012 268.4 40.9012 269.202C40.9012 270.01 40.7636 270.711 40.4885 271.305C40.2135 271.895 39.8323 272.352 39.3451 272.677C38.8579 272.998 38.2961 273.159 37.6597 273.159C37.1692 273.159 36.7764 273.078 36.4814 272.915C36.1865 272.75 35.9594 272.562 35.8003 272.354C35.6412 272.142 35.5186 271.966 35.4324 271.827H35.2932V273H34.1597ZM35.3131 269.182C35.3131 269.759 35.3976 270.267 35.5667 270.708C35.7357 271.146 35.9826 271.489 36.3074 271.737C36.6323 271.982 37.03 272.105 37.5006 272.105C37.9912 272.105 38.4005 271.976 38.7286 271.717C39.06 271.455 39.3086 271.104 39.4743 270.663C39.6434 270.219 39.7279 269.725 39.7279 269.182C39.7279 268.645 39.645 268.161 39.4793 267.73C39.3169 267.296 39.07 266.953 38.7385 266.701C38.4104 266.446 37.9978 266.318 37.5006 266.318C37.0233 266.318 36.6223 266.439 36.2975 266.681C35.9727 266.92 35.7274 267.254 35.5617 267.685C35.396 268.113 35.3131 268.612 35.3131 269.182ZM47.5084 269.878V265.364H48.6817V273H47.5084V271.707H47.4289C47.2499 272.095 46.9715 272.425 46.5937 272.697C46.2158 272.965 45.7385 273.099 45.1618 273.099C44.6846 273.099 44.2603 272.995 43.8891 272.786C43.5179 272.574 43.2262 272.256 43.0141 271.832C42.802 271.404 42.6959 270.866 42.6959 270.216V265.364H43.8692V270.136C43.8692 270.693 44.025 271.137 44.3366 271.469C44.6514 271.8 45.0525 271.966 45.5397 271.966C45.8314 271.966 46.128 271.891 46.4296 271.742C46.7345 271.593 46.9897 271.364 47.1952 271.056C47.404 270.748 47.5084 270.355 47.5084 269.878ZM52.004 262.818V273H50.8307V262.818H52.004ZM55.2467 270.216L55.2268 268.764H55.4655L58.8064 265.364H60.2581L56.6984 268.963H56.599L55.2467 270.216ZM54.153 273V262.818H55.3263V273H54.153ZM59.0052 273L56.0223 269.222L56.8575 268.406L60.4967 273H59.0052ZM65.4273 268.088V269.182H60.9727V268.088H65.4273ZM66.9449 273V262.818H68.1182V266.577H68.2176C68.3038 266.444 68.4231 266.275 68.5756 266.07C68.7313 265.861 68.9534 265.675 69.2417 265.513C69.5334 265.347 69.9278 265.264 70.425 265.264C71.068 265.264 71.6347 265.425 72.1253 265.746C72.6158 266.068 72.9986 266.524 73.2737 267.114C73.5488 267.704 73.6863 268.4 73.6863 269.202C73.6863 270.01 73.5488 270.711 73.2737 271.305C72.9986 271.895 72.6175 272.352 72.1302 272.677C71.643 272.998 71.0812 273.159 70.4449 273.159C69.9543 273.159 69.5616 273.078 69.2666 272.915C68.9716 272.75 68.7446 272.562 68.5855 272.354C68.4264 272.142 68.3038 271.966 68.2176 271.827H68.0784V273H66.9449ZM68.0983 269.182C68.0983 269.759 68.1828 270.267 68.3518 270.708C68.5209 271.146 68.7678 271.489 69.0926 271.737C69.4174 271.982 69.8151 272.105 70.2858 272.105C70.7763 272.105 71.1856 271.976 71.5138 271.717C71.8452 271.455 72.0938 271.104 72.2595 270.663C72.4285 270.219 72.5131 269.725 72.5131 269.182C72.5131 268.645 72.4302 268.161 72.2645 267.73C72.1021 267.296 71.8551 266.953 71.5237 266.701C71.1956 266.446 70.7829 266.318 70.2858 266.318C69.8085 266.318 69.4075 266.439 69.0827 266.681C68.7578 266.92 68.5126 267.254 68.3469 267.685C68.1811 268.113 68.0983 268.612 68.0983 269.182ZM80.2936 269.878V265.364H81.4669V273H80.2936V271.707H80.214C80.0351 272.095 79.7567 272.425 79.3788 272.697C79.001 272.965 78.5237 273.099 77.947 273.099C77.4697 273.099 77.0455 272.995 76.6743 272.786C76.3031 272.574 76.0114 272.256 75.7993 271.832C75.5872 271.404 75.4811 270.866 75.4811 270.216V265.364H76.6544V270.136C76.6544 270.693 76.8102 271.137 77.1217 271.469C77.4366 271.8 77.8376 271.966 78.3248 271.966C78.6165 271.966 78.9131 271.891 79.2148 271.742C79.5197 271.593 79.7749 271.364 79.9804 271.056C80.1892 270.748 80.2936 270.355 80.2936 269.878ZM84.3715 275.864C84.1727 275.864 83.9954 275.847 83.8396 275.814C83.6838 275.784 83.5761 275.754 83.5164 275.724L83.8147 274.69C84.0998 274.763 84.3517 274.79 84.5704 274.77C84.7892 274.75 84.983 274.652 85.1521 274.477C85.3244 274.304 85.4819 274.024 85.6244 273.636L85.8431 273.04L83.0193 265.364H84.292L86.3999 271.449H86.4795L88.5874 265.364H89.8602L86.6187 274.114C86.4729 274.508 86.2922 274.835 86.0768 275.093C85.8614 275.355 85.6111 275.549 85.3261 275.675C85.0444 275.801 84.7262 275.864 84.3715 275.864ZM98.4486 273.159C97.7592 273.159 97.1543 272.995 96.634 272.667C96.1169 272.339 95.7126 271.88 95.4209 271.29C95.1325 270.7 94.9884 270.01 94.9884 269.222C94.9884 268.426 95.1325 267.732 95.4209 267.138C95.7126 266.545 96.1169 266.085 96.634 265.756C97.1543 265.428 97.7592 265.264 98.4486 265.264C99.138 265.264 99.7412 265.428 100.258 265.756C100.779 266.085 101.183 266.545 101.471 267.138C101.763 267.732 101.909 268.426 101.909 269.222C101.909 270.01 101.763 270.7 101.471 271.29C101.183 271.88 100.779 272.339 100.258 272.667C99.7412 272.995 99.138 273.159 98.4486 273.159ZM98.4486 272.105C98.9723 272.105 99.4031 271.971 99.7412 271.702C100.079 271.434 100.33 271.081 100.492 270.643C100.654 270.206 100.736 269.732 100.736 269.222C100.736 268.711 100.654 268.236 100.492 267.795C100.33 267.354 100.079 266.998 99.7412 266.726C99.4031 266.454 98.9723 266.318 98.4486 266.318C97.9249 266.318 97.4941 266.454 97.156 266.726C96.8179 266.998 96.5677 267.354 96.4053 267.795C96.2429 268.236 96.1617 268.711 96.1617 269.222C96.1617 269.732 96.2429 270.206 96.4053 270.643C96.5677 271.081 96.8179 271.434 97.156 271.702C97.4941 271.971 97.9249 272.105 98.4486 272.105ZM107.1 265.364V266.358H102.984V265.364H107.1ZM104.217 273V264.31C104.217 263.872 104.32 263.508 104.525 263.216C104.731 262.924 104.997 262.705 105.326 262.56C105.654 262.414 106 262.341 106.365 262.341C106.653 262.341 106.888 262.364 107.071 262.411C107.253 262.457 107.389 262.5 107.478 262.54L107.14 263.554C107.081 263.534 106.998 263.509 106.892 263.479C106.789 263.45 106.653 263.435 106.484 263.435C106.096 263.435 105.816 263.532 105.644 263.728C105.475 263.924 105.39 264.21 105.39 264.588V273H104.217ZM112.145 265.364V266.358H108.029V265.364H112.145ZM109.262 273V264.31C109.262 263.872 109.365 263.508 109.57 263.216C109.776 262.924 110.042 262.705 110.37 262.56C110.699 262.414 111.045 262.341 111.41 262.341C111.698 262.341 111.933 262.364 112.116 262.411C112.298 262.457 112.434 262.5 112.523 262.54L112.185 263.554C112.125 263.534 112.043 263.509 111.937 263.479C111.834 263.45 111.698 263.435 111.529 263.435C111.141 263.435 110.861 263.532 110.689 263.728C110.52 263.924 110.435 264.21 110.435 264.588V273H109.262ZM116.677 273.159C115.941 273.159 115.306 272.997 114.773 272.672C114.243 272.344 113.833 271.886 113.545 271.3C113.26 270.71 113.117 270.024 113.117 269.241C113.117 268.459 113.26 267.77 113.545 267.173C113.833 266.573 114.234 266.106 114.748 265.771C115.265 265.433 115.868 265.264 116.558 265.264C116.955 265.264 117.348 265.33 117.736 265.463C118.124 265.596 118.477 265.811 118.795 266.109C119.113 266.404 119.367 266.795 119.555 267.283C119.744 267.77 119.839 268.37 119.839 269.082V269.58H113.953V268.565H118.646C118.646 268.134 118.56 267.75 118.387 267.412C118.218 267.074 117.976 266.807 117.661 266.612C117.35 266.416 116.982 266.318 116.558 266.318C116.09 266.318 115.686 266.434 115.345 266.666C115.006 266.895 114.746 267.193 114.564 267.561C114.382 267.929 114.291 268.323 114.291 268.744V269.42C114.291 269.997 114.39 270.486 114.589 270.887C114.791 271.285 115.071 271.588 115.429 271.797C115.787 272.002 116.203 272.105 116.677 272.105C116.985 272.105 117.264 272.062 117.512 271.976C117.764 271.886 117.981 271.754 118.163 271.578C118.346 271.399 118.487 271.177 118.586 270.912L119.72 271.23C119.6 271.615 119.4 271.953 119.118 272.244C118.836 272.533 118.488 272.758 118.074 272.92C117.66 273.08 117.194 273.159 116.677 273.159ZM121.624 273V265.364H122.757V266.517H122.837C122.976 266.139 123.228 265.833 123.592 265.597C123.957 265.362 124.368 265.244 124.825 265.244C124.912 265.244 125.019 265.246 125.149 265.249C125.278 265.253 125.376 265.258 125.442 265.264V266.457C125.402 266.447 125.311 266.433 125.168 266.413C125.029 266.389 124.882 266.378 124.726 266.378C124.355 266.378 124.023 266.456 123.732 266.612C123.443 266.764 123.215 266.976 123.046 267.248C122.88 267.516 122.797 267.823 122.797 268.168V273H121.624ZM132.242 267.074L131.188 267.372C131.121 267.196 131.024 267.026 130.894 266.86C130.768 266.691 130.596 266.552 130.377 266.442C130.159 266.333 129.879 266.278 129.537 266.278C129.07 266.278 128.68 266.386 128.369 266.602C128.061 266.814 127.907 267.084 127.907 267.412C127.907 267.704 128.013 267.934 128.225 268.103C128.437 268.272 128.768 268.413 129.219 268.526L130.353 268.804C131.035 268.97 131.544 269.223 131.879 269.565C132.214 269.903 132.381 270.339 132.381 270.872C132.381 271.31 132.255 271.701 132.003 272.045C131.755 272.39 131.407 272.662 130.959 272.861C130.512 273.06 129.991 273.159 129.398 273.159C128.619 273.159 127.974 272.99 127.464 272.652C126.954 272.314 126.63 271.82 126.495 271.17L127.608 270.892C127.714 271.303 127.915 271.611 128.21 271.817C128.508 272.022 128.898 272.125 129.378 272.125C129.925 272.125 130.359 272.009 130.681 271.777C131.005 271.542 131.168 271.26 131.168 270.932C131.168 270.667 131.075 270.445 130.889 270.266C130.704 270.083 130.419 269.947 130.034 269.858L128.762 269.56C128.062 269.394 127.549 269.137 127.22 268.789C126.896 268.438 126.733 267.999 126.733 267.472C126.733 267.041 126.854 266.66 127.096 266.328C127.341 265.997 127.675 265.737 128.095 265.548C128.52 265.359 129 265.264 129.537 265.264C130.293 265.264 130.886 265.43 131.317 265.761C131.751 266.093 132.059 266.53 132.242 267.074ZM62.2933 290.159C61.657 290.159 61.0952 289.998 60.608 289.677C60.1207 289.352 59.7396 288.895 59.4645 288.305C59.1894 287.711 59.0518 287.01 59.0518 286.202C59.0518 285.4 59.1894 284.704 59.4645 284.114C59.7396 283.524 60.1224 283.068 60.6129 282.746C61.1035 282.425 61.6702 282.264 62.3132 282.264C62.8104 282.264 63.2031 282.347 63.4915 282.513C63.7831 282.675 64.0052 282.861 64.1577 283.07C64.3134 283.275 64.4344 283.444 64.5206 283.577H64.62V279.818H65.7933V290H64.6598V288.827H64.5206C64.4344 288.966 64.3118 289.142 64.1527 289.354C63.9936 289.562 63.7666 289.75 63.4716 289.915C63.1766 290.078 62.7839 290.159 62.2933 290.159ZM62.4524 289.105C62.9231 289.105 63.3208 288.982 63.6456 288.737C63.9704 288.489 64.2173 288.146 64.3864 287.708C64.5554 287.267 64.6399 286.759 64.6399 286.182C64.6399 285.612 64.5571 285.113 64.3913 284.685C64.2256 284.254 63.9804 283.92 63.6555 283.681C63.3307 283.439 62.9297 283.318 62.4524 283.318C61.9553 283.318 61.541 283.446 61.2095 283.701C60.8814 283.953 60.6345 284.296 60.4688 284.73C60.3063 285.161 60.2251 285.645 60.2251 286.182C60.2251 286.725 60.308 287.219 60.4737 287.663C60.6428 288.104 60.8913 288.455 61.2195 288.717C61.5509 288.976 61.9619 289.105 62.4524 289.105ZM68.1051 290V282.364H69.2784V290H68.1051ZM68.7017 281.091C68.473 281.091 68.2758 281.013 68.1101 280.857C67.9477 280.701 67.8665 280.514 67.8665 280.295C67.8665 280.077 67.9477 279.889 68.1101 279.734C68.2758 279.578 68.473 279.5 68.7017 279.5C68.9304 279.5 69.1259 279.578 69.2884 279.734C69.4541 279.889 69.5369 280.077 69.5369 280.295C69.5369 280.514 69.4541 280.701 69.2884 280.857C69.1259 281.013 68.9304 281.091 68.7017 281.091ZM71.4274 290V282.364H72.5609V283.517H72.6404C72.7797 283.139 73.0315 282.833 73.3961 282.597C73.7607 282.362 74.1717 282.244 74.6291 282.244C74.7153 282.244 74.823 282.246 74.9522 282.249C75.0815 282.253 75.1793 282.258 75.2456 282.264V283.457C75.2058 283.447 75.1146 283.433 74.9721 283.413C74.8329 283.389 74.6854 283.378 74.5297 283.378C74.1584 283.378 73.827 283.456 73.5353 283.612C73.247 283.764 73.0183 283.976 72.8493 284.248C72.6835 284.516 72.6007 284.823 72.6007 285.168V290H71.4274ZM79.6056 290.159C78.8699 290.159 78.2351 289.997 77.7015 289.672C77.1712 289.344 76.7619 288.886 76.4735 288.3C76.1885 287.71 76.046 287.024 76.046 286.241C76.046 285.459 76.1885 284.77 76.4735 284.173C76.7619 283.573 77.1629 283.106 77.6767 282.771C78.1937 282.433 78.7969 282.264 79.4863 282.264C79.8841 282.264 80.2768 282.33 80.6646 282.463C81.0524 282.596 81.4054 282.811 81.7235 283.109C82.0417 283.404 82.2953 283.795 82.4842 284.283C82.6731 284.77 82.7676 285.37 82.7676 286.082V286.58H76.8812V285.565H81.5744C81.5744 285.134 81.4882 284.75 81.3159 284.412C81.1468 284.074 80.9049 283.807 80.59 283.612C80.2785 283.416 79.9106 283.318 79.4863 283.318C79.019 283.318 78.6146 283.434 78.2733 283.666C77.9352 283.895 77.675 284.193 77.4927 284.561C77.3104 284.929 77.2193 285.323 77.2193 285.744V286.42C77.2193 286.997 77.3187 287.486 77.5176 287.887C77.7198 288.285 77.9998 288.588 78.3578 288.797C78.7157 289.002 79.1317 289.105 79.6056 289.105C79.9139 289.105 80.1923 289.062 80.4409 288.976C80.6928 288.886 80.9099 288.754 81.0922 288.578C81.2744 288.399 81.4153 288.177 81.5147 287.912L82.6483 288.23C82.5289 288.615 82.3284 288.953 82.0467 289.244C81.765 289.533 81.417 289.758 81.0027 289.92C80.5884 290.08 80.1227 290.159 79.6056 290.159ZM87.6547 290.159C86.9387 290.159 86.3223 289.99 85.8052 289.652C85.2882 289.314 84.8904 288.848 84.612 288.255C84.3336 287.662 84.1944 286.984 84.1944 286.222C84.1944 285.446 84.3369 284.762 84.622 284.168C84.9103 283.572 85.3114 283.106 85.8251 282.771C86.3422 282.433 86.9454 282.264 87.6348 282.264C88.1717 282.264 88.6556 282.364 89.0865 282.562C89.5173 282.761 89.8703 283.04 90.1454 283.398C90.4205 283.756 90.5912 284.173 90.6575 284.651H89.4842C89.3947 284.303 89.1958 283.994 88.8876 283.726C88.5827 283.454 88.1717 283.318 87.6547 283.318C87.1973 283.318 86.7962 283.437 86.4515 283.676C86.1101 283.911 85.8433 284.245 85.6511 284.675C85.4622 285.103 85.3677 285.605 85.3677 286.182C85.3677 286.772 85.4605 287.286 85.6461 287.723C85.835 288.161 86.1002 288.5 86.4416 288.742C86.7863 288.984 87.1906 289.105 87.6547 289.105C87.9596 289.105 88.2363 289.052 88.4849 288.946C88.7335 288.84 88.944 288.688 89.1163 288.489C89.2886 288.29 89.4113 288.051 89.4842 287.773H90.6575C90.5912 288.223 90.4271 288.629 90.1653 288.991C89.9068 289.349 89.5637 289.634 89.1362 289.846C88.7119 290.055 88.2181 290.159 87.6547 290.159ZM95.6937 282.364V283.358H91.7363V282.364H95.6937ZM92.8897 280.534H94.063V287.812C94.063 288.144 94.1111 288.393 94.2072 288.558C94.3066 288.721 94.4326 288.83 94.585 288.886C94.7408 288.939 94.9049 288.966 95.0772 288.966C95.2065 288.966 95.3126 288.959 95.3954 288.946C95.4783 288.929 95.5446 288.916 95.5943 288.906L95.8329 289.96C95.7534 289.99 95.6423 290.02 95.4998 290.05C95.3573 290.083 95.1767 290.099 94.9579 290.099C94.6265 290.099 94.3017 290.028 93.9835 289.886C93.6686 289.743 93.4068 289.526 93.198 289.234C92.9925 288.943 92.8897 288.575 92.8897 288.131V280.534ZM98.796 279.818V290H97.6227V279.818H98.796ZM101.701 292.864C101.502 292.864 101.324 292.847 101.169 292.814C101.013 292.784 100.905 292.754 100.846 292.724L101.144 291.69C101.429 291.763 101.681 291.79 101.9 291.77C102.118 291.75 102.312 291.652 102.481 291.477C102.654 291.304 102.811 291.024 102.953 290.636L103.172 290.04L100.348 282.364H101.621L103.729 288.449H103.809L105.917 282.364H107.189L103.948 291.114C103.802 291.508 103.621 291.835 103.406 292.093C103.19 292.355 102.94 292.549 102.655 292.675C102.373 292.801 102.055 292.864 101.701 292.864ZM33.4854 302.406V307H32.3121V299.364H33.4457V300.557H33.5451C33.7241 300.169 33.9959 299.857 34.3604 299.622C34.725 299.384 35.1957 299.264 35.7724 299.264C36.2894 299.264 36.7418 299.37 37.1296 299.582C37.5174 299.791 37.819 300.109 38.0344 300.537C38.2499 300.961 38.3576 301.498 38.3576 302.148V307H37.1843V302.227C37.1843 301.627 37.0285 301.16 36.717 300.825C36.4054 300.487 35.9779 300.318 35.4343 300.318C35.0598 300.318 34.725 300.399 34.43 300.562C34.1384 300.724 33.908 300.961 33.739 301.273C33.57 301.584 33.4854 301.962 33.4854 302.406ZM43.7033 307.159C42.9675 307.159 42.3328 306.997 41.7992 306.672C41.2689 306.344 40.8596 305.886 40.5712 305.3C40.2862 304.71 40.1436 304.024 40.1436 303.241C40.1436 302.459 40.2862 301.77 40.5712 301.173C40.8596 300.573 41.2606 300.106 41.7743 299.771C42.2914 299.433 42.8946 299.264 43.584 299.264C43.9817 299.264 44.3745 299.33 44.7623 299.463C45.15 299.596 45.503 299.811 45.8212 300.109C46.1394 300.404 46.3929 300.795 46.5819 301.283C46.7708 301.77 46.8652 302.37 46.8652 303.082V303.58H40.9789V302.565H45.6721C45.6721 302.134 45.5859 301.75 45.4135 301.412C45.2445 301.074 45.0025 300.807 44.6877 300.612C44.3761 300.416 44.0082 300.318 43.584 300.318C43.1167 300.318 42.7123 300.434 42.3709 300.666C42.0328 300.895 41.7727 301.193 41.5904 301.561C41.4081 301.929 41.3169 302.323 41.3169 302.744V303.42C41.3169 303.997 41.4164 304.486 41.6152 304.887C41.8174 305.285 42.0975 305.588 42.4554 305.797C42.8134 306.002 43.2293 306.105 43.7033 306.105C44.0115 306.105 44.29 306.062 44.5385 305.976C44.7904 305.886 45.0075 305.754 45.1898 305.578C45.3721 305.399 45.513 305.177 45.6124 304.912L46.7459 305.23C46.6266 305.615 46.4261 305.953 46.1444 306.244C45.8626 306.533 45.5146 306.758 45.1003 306.92C44.686 307.08 44.2203 307.159 43.7033 307.159ZM51.7324 310.023C51.1657 310.023 50.6784 309.95 50.2708 309.804C49.8631 309.661 49.5234 309.473 49.2516 309.237C48.9831 309.005 48.7694 308.757 48.6103 308.491L49.5449 307.835C49.651 307.974 49.7852 308.134 49.9476 308.312C50.11 308.495 50.3321 308.652 50.6138 308.785C50.8989 308.921 51.2717 308.989 51.7324 308.989C52.3489 308.989 52.8577 308.839 53.2587 308.541C53.6597 308.243 53.8603 307.776 53.8603 307.139V305.588H53.7608C53.6747 305.727 53.552 305.9 53.3929 306.105C53.2372 306.307 53.0118 306.488 52.7168 306.647C52.4251 306.803 52.0307 306.881 51.5336 306.881C50.9171 306.881 50.3636 306.735 49.873 306.443C49.3858 306.152 48.9997 305.727 48.7147 305.17C48.4329 304.614 48.2921 303.937 48.2921 303.142C48.2921 302.36 48.4296 301.679 48.7047 301.099C48.9798 300.515 49.3626 300.065 49.8532 299.746C50.3437 299.425 50.9105 299.264 51.5534 299.264C52.0506 299.264 52.445 299.347 52.7367 299.513C53.0317 299.675 53.257 299.861 53.4128 300.07C53.5719 300.275 53.6945 300.444 53.7807 300.577H53.9V299.364H55.0336V307.219C55.0336 307.875 54.8844 308.409 54.5861 308.82C54.2911 309.234 53.8934 309.537 53.3929 309.729C52.8958 309.925 52.3423 310.023 51.7324 310.023ZM51.6926 305.827C52.1633 305.827 52.561 305.719 52.8858 305.504C53.2106 305.288 53.4576 304.978 53.6266 304.574C53.7956 304.17 53.8801 303.686 53.8801 303.122C53.8801 302.572 53.7973 302.086 53.6316 301.665C53.4659 301.245 53.2206 300.915 52.8958 300.676C52.571 300.437 52.1699 300.318 51.6926 300.318C51.1955 300.318 50.7812 300.444 50.4498 300.696C50.1216 300.948 49.8747 301.286 49.709 301.71C49.5466 302.134 49.4654 302.605 49.4654 303.122C49.4654 303.652 49.5482 304.121 49.714 304.529C49.883 304.933 50.1316 305.252 50.4597 305.484C50.7911 305.712 51.2021 305.827 51.6926 305.827ZM60.2836 307.159C59.5942 307.159 58.9893 306.995 58.4689 306.667C57.9519 306.339 57.5475 305.88 57.2559 305.29C56.9675 304.7 56.8233 304.01 56.8233 303.222C56.8233 302.426 56.9675 301.732 57.2559 301.138C57.5475 300.545 57.9519 300.085 58.4689 299.756C58.9893 299.428 59.5942 299.264 60.2836 299.264C60.973 299.264 61.5762 299.428 62.0932 299.756C62.6136 300.085 63.0179 300.545 63.3063 301.138C63.598 301.732 63.7438 302.426 63.7438 303.222C63.7438 304.01 63.598 304.7 63.3063 305.29C63.0179 305.88 62.6136 306.339 62.0932 306.667C61.5762 306.995 60.973 307.159 60.2836 307.159ZM60.2836 306.105C60.8072 306.105 61.2381 305.971 61.5762 305.702C61.9142 305.434 62.1645 305.081 62.3269 304.643C62.4893 304.206 62.5705 303.732 62.5705 303.222C62.5705 302.711 62.4893 302.236 62.3269 301.795C62.1645 301.354 61.9142 300.998 61.5762 300.726C61.2381 300.454 60.8072 300.318 60.2836 300.318C59.7599 300.318 59.329 300.454 58.9909 300.726C58.6529 300.998 58.4026 301.354 58.2402 301.795C58.0778 302.236 57.9966 302.711 57.9966 303.222C57.9966 303.732 58.0778 304.206 58.2402 304.643C58.4026 305.081 58.6529 305.434 58.9909 305.702C59.329 305.971 59.7599 306.105 60.2836 306.105ZM68.8558 299.364V300.358H64.8984V299.364H68.8558ZM66.0518 297.534H67.2251V304.812C67.2251 305.144 67.2732 305.393 67.3693 305.558C67.4688 305.721 67.5947 305.83 67.7472 305.886C67.9029 305.939 68.067 305.966 68.2393 305.966C68.3686 305.966 68.4747 305.959 68.5575 305.946C68.6404 305.929 68.7067 305.916 68.7564 305.906L68.995 306.96C68.9155 306.99 68.8045 307.02 68.6619 307.05C68.5194 307.083 68.3388 307.099 68.12 307.099C67.7886 307.099 67.4638 307.028 67.1456 306.886C66.8307 306.743 66.5689 306.526 66.3601 306.234C66.1546 305.943 66.0518 305.575 66.0518 305.131V297.534ZM70.6207 307V299.364H71.794V307H70.6207ZM71.2173 298.091C70.9886 298.091 70.7914 298.013 70.6257 297.857C70.4633 297.701 70.3821 297.514 70.3821 297.295C70.3821 297.077 70.4633 296.889 70.6257 296.734C70.7914 296.578 70.9886 296.5 71.2173 296.5C71.446 296.5 71.6416 296.578 71.804 296.734C71.9697 296.889 72.0526 297.077 72.0526 297.295C72.0526 297.514 71.9697 297.701 71.804 297.857C71.6416 298.013 71.446 298.091 71.2173 298.091ZM76.1902 307.179C75.7063 307.179 75.2671 307.088 74.8727 306.906C74.4783 306.72 74.1651 306.453 73.9331 306.105C73.7011 305.754 73.585 305.33 73.585 304.832C73.585 304.395 73.6712 304.04 73.8436 303.768C74.0159 303.493 74.2463 303.278 74.5346 303.122C74.823 302.966 75.1412 302.85 75.4892 302.774C75.8405 302.695 76.1935 302.632 76.5481 302.585C77.0121 302.526 77.3883 302.481 77.6767 302.451C77.9683 302.418 78.1805 302.363 78.313 302.287C78.4489 302.211 78.5169 302.078 78.5169 301.889V301.849C78.5169 301.359 78.3826 300.978 78.1142 300.706C77.849 300.434 77.4463 300.298 76.9061 300.298C76.3459 300.298 75.9068 300.421 75.5886 300.666C75.2704 300.911 75.0467 301.173 74.9174 301.452L73.8038 301.054C74.0027 300.59 74.2678 300.229 74.5993 299.97C74.934 299.708 75.2986 299.526 75.693 299.423C76.0907 299.317 76.4818 299.264 76.8663 299.264C77.1116 299.264 77.3933 299.294 77.7115 299.354C78.033 299.41 78.3429 299.528 78.6412 299.707C78.9428 299.886 79.193 300.156 79.3919 300.517C79.5907 300.878 79.6902 301.362 79.6902 301.969V307H78.5169V305.966H78.4572C78.3777 306.132 78.2451 306.309 78.0595 306.498C77.8739 306.687 77.627 306.848 77.3187 306.98C77.0105 307.113 76.6343 307.179 76.1902 307.179ZM76.3691 306.125C76.8332 306.125 77.2243 306.034 77.5424 305.852C77.8639 305.669 78.1059 305.434 78.2683 305.146C78.434 304.857 78.5169 304.554 78.5169 304.236V303.162C78.4672 303.222 78.3578 303.276 78.1887 303.326C78.023 303.372 77.8308 303.414 77.612 303.45C77.3966 303.483 77.1861 303.513 76.9806 303.54C76.7785 303.563 76.6144 303.583 76.4885 303.599C76.1835 303.639 75.8985 303.704 75.6333 303.793C75.3715 303.879 75.1594 304.01 74.997 304.186C74.8379 304.358 74.7583 304.594 74.7583 304.892C74.7583 305.3 74.9092 305.608 75.2108 305.817C75.5157 306.022 75.9018 306.125 76.3691 306.125ZM85.1527 299.364V300.358H81.1953V299.364H85.1527ZM82.3487 297.534H83.522V304.812C83.522 305.144 83.5701 305.393 83.6662 305.558C83.7656 305.721 83.8916 305.83 84.044 305.886C84.1998 305.939 84.3639 305.966 84.5362 305.966C84.6655 305.966 84.7715 305.959 84.8544 305.946C84.9373 305.929 85.0036 305.916 85.0533 305.906L85.2919 306.96C85.2124 306.99 85.1013 307.02 84.9588 307.05C84.8163 307.083 84.6357 307.099 84.4169 307.099C84.0855 307.099 83.7607 307.028 83.4425 306.886C83.1276 306.743 82.8658 306.526 82.657 306.234C82.4515 305.943 82.3487 305.575 82.3487 305.131V297.534ZM90.0373 307.159C89.3015 307.159 88.6668 306.997 88.1332 306.672C87.6029 306.344 87.1935 305.886 86.9052 305.3C86.6201 304.71 86.4776 304.024 86.4776 303.241C86.4776 302.459 86.6201 301.77 86.9052 301.173C87.1935 300.573 87.5946 300.106 88.1083 299.771C88.6254 299.433 89.2286 299.264 89.918 299.264C90.3157 299.264 90.7085 299.33 91.0962 299.463C91.484 299.596 91.837 299.811 92.1552 300.109C92.4734 300.404 92.7269 300.795 92.9158 301.283C93.1048 301.77 93.1992 302.37 93.1992 303.082V303.58H87.3129V302.565H92.006C92.006 302.134 91.9199 301.75 91.7475 301.412C91.5785 301.074 91.3365 300.807 91.0217 300.612C90.7101 300.416 90.3422 300.318 89.918 300.318C89.4506 300.318 89.0463 300.434 88.7049 300.666C88.3668 300.895 88.1067 301.193 87.9244 301.561C87.7421 301.929 87.6509 302.323 87.6509 302.744V303.42C87.6509 303.997 87.7504 304.486 87.9492 304.887C88.1514 305.285 88.4315 305.588 88.7894 305.797C89.1474 306.002 89.5633 306.105 90.0373 306.105C90.3455 306.105 90.6239 306.062 90.8725 305.976C91.1244 305.886 91.3415 305.754 91.5238 305.578C91.7061 305.399 91.8469 305.177 91.9464 304.912L93.0799 305.23C92.9606 305.615 92.7601 305.953 92.4783 306.244C92.1966 306.533 91.8486 306.758 91.4343 306.92C91.02 307.08 90.5543 307.159 90.0373 307.159ZM97.8675 307.159C97.2312 307.159 96.6694 306.998 96.1822 306.677C95.695 306.352 95.3138 305.895 95.0387 305.305C94.7636 304.711 94.6261 304.01 94.6261 303.202C94.6261 302.4 94.7636 301.704 95.0387 301.114C95.3138 300.524 95.6966 300.068 96.1871 299.746C96.6777 299.425 97.2444 299.264 97.8874 299.264C98.3846 299.264 98.7773 299.347 99.0657 299.513C99.3574 299.675 99.5794 299.861 99.7319 300.07C99.8877 300.275 100.009 300.444 100.095 300.577H100.194V296.818H101.368V307H100.234V305.827H100.095C100.009 305.966 99.886 306.142 99.7269 306.354C99.5678 306.562 99.3408 306.75 99.0458 306.915C98.7508 307.078 98.3581 307.159 97.8675 307.159ZM98.0266 306.105C98.4973 306.105 98.895 305.982 99.2198 305.737C99.5446 305.489 99.7915 305.146 99.9606 304.708C100.13 304.267 100.214 303.759 100.214 303.182C100.214 302.612 100.131 302.113 99.9656 301.685C99.7998 301.254 99.5546 300.92 99.2298 300.681C98.9049 300.439 98.5039 300.318 98.0266 300.318C97.5295 300.318 97.1152 300.446 96.7837 300.701C96.4556 300.953 96.2087 301.296 96.043 301.73C95.8806 302.161 95.7994 302.645 95.7994 303.182C95.7994 303.725 95.8822 304.219 96.0479 304.663C96.217 305.104 96.4656 305.455 96.7937 305.717C97.1251 305.976 97.5361 306.105 98.0266 306.105ZM109.347 307L107.02 299.364H108.253L109.904 305.21H109.983L111.614 299.364H112.867L114.478 305.19H114.557L116.208 299.364H117.441L115.114 307H113.961L112.29 301.134H112.171L110.5 307H109.347ZM118.992 307V299.364H120.165V307H118.992ZM119.588 298.091C119.36 298.091 119.163 298.013 118.997 297.857C118.834 297.701 118.753 297.514 118.753 297.295C118.753 297.077 118.834 296.889 118.997 296.734C119.163 296.578 119.36 296.5 119.588 296.5C119.817 296.5 120.013 296.578 120.175 296.734C120.341 296.889 120.424 297.077 120.424 297.295C120.424 297.514 120.341 297.701 120.175 297.857C120.013 298.013 119.817 298.091 119.588 298.091ZM125.635 299.364V300.358H121.678V299.364H125.635ZM122.831 297.534H124.004V304.812C124.004 305.144 124.052 305.393 124.149 305.558C124.248 305.721 124.374 305.83 124.526 305.886C124.682 305.939 124.846 305.966 125.019 305.966C125.148 305.966 125.254 305.959 125.337 305.946C125.42 305.929 125.486 305.916 125.536 305.906L125.774 306.96C125.695 306.99 125.584 307.02 125.441 307.05C125.299 307.083 125.118 307.099 124.899 307.099C124.568 307.099 124.243 307.028 123.925 306.886C123.61 306.743 123.348 306.526 123.139 306.234C122.934 305.943 122.831 305.575 122.831 305.131V297.534ZM128.737 302.406V307H127.564V296.818H128.737V300.557H128.837C129.016 300.162 129.284 299.849 129.642 299.617C130.003 299.382 130.484 299.264 131.084 299.264C131.604 299.264 132.06 299.369 132.451 299.577C132.842 299.783 133.146 300.099 133.361 300.527C133.58 300.951 133.689 301.491 133.689 302.148V307H132.516V302.227C132.516 301.621 132.358 301.152 132.044 300.82C131.732 300.486 131.299 300.318 130.746 300.318C130.361 300.318 130.017 300.399 129.712 300.562C129.41 300.724 129.172 300.961 128.996 301.273C128.824 301.584 128.737 301.962 128.737 302.406ZM48.4506 324.159C47.8142 324.159 47.2524 323.998 46.7652 323.677C46.278 323.352 45.8968 322.895 45.6217 322.305C45.3466 321.711 45.2091 321.01 45.2091 320.202C45.2091 319.4 45.3466 318.704 45.6217 318.114C45.8968 317.524 46.2796 317.068 46.7702 316.746C47.2607 316.425 47.8274 316.264 48.4704 316.264C48.9676 316.264 49.3604 316.347 49.6487 316.513C49.9404 316.675 50.1624 316.861 50.3149 317.07C50.4707 317.275 50.5916 317.444 50.6778 317.577H50.7773V313.818H51.9506V324H50.817V322.827H50.6778C50.5916 322.966 50.469 323.142 50.3099 323.354C50.1508 323.562 49.9238 323.75 49.6288 323.915C49.3338 324.078 48.9411 324.159 48.4506 324.159ZM48.6096 323.105C49.0803 323.105 49.478 322.982 49.8028 322.737C50.1276 322.489 50.3746 322.146 50.5436 321.708C50.7126 321.267 50.7971 320.759 50.7971 320.182C50.7971 319.612 50.7143 319.113 50.5486 318.685C50.3828 318.254 50.1376 317.92 49.8128 317.681C49.488 317.439 49.0869 317.318 48.6096 317.318C48.1125 317.318 47.6982 317.446 47.3667 317.701C47.0386 317.953 46.7917 318.296 46.626 318.73C46.4636 319.161 46.3824 319.645 46.3824 320.182C46.3824 320.725 46.4652 321.219 46.6309 321.663C46.8 322.104 47.0486 322.455 47.3767 322.717C47.7081 322.976 48.1191 323.105 48.6096 323.105ZM57.464 324.159C56.7282 324.159 56.0935 323.997 55.5599 323.672C55.0296 323.344 54.6203 322.886 54.3319 322.3C54.0469 321.71 53.9044 321.024 53.9044 320.241C53.9044 319.459 54.0469 318.77 54.3319 318.173C54.6203 317.573 55.0213 317.106 55.5351 316.771C56.0521 316.433 56.6553 316.264 57.3447 316.264C57.7425 316.264 58.1352 316.33 58.523 316.463C58.9108 316.596 59.2638 316.811 59.5819 317.109C59.9001 317.404 60.1537 317.795 60.3426 318.283C60.5315 318.77 60.626 319.37 60.626 320.082V320.58H54.7396V319.565H59.4328C59.4328 319.134 59.3466 318.75 59.1743 318.412C59.0052 318.074 58.7633 317.807 58.4484 317.612C58.1369 317.416 57.769 317.318 57.3447 317.318C56.8774 317.318 56.473 317.434 56.1317 317.666C55.7936 317.895 55.5334 318.193 55.3511 318.561C55.1688 318.929 55.0777 319.323 55.0777 319.744V320.42C55.0777 320.997 55.1771 321.486 55.376 321.887C55.5782 322.285 55.8582 322.588 56.2162 322.797C56.5741 323.002 56.9901 323.105 57.464 323.105C57.7723 323.105 58.0507 323.062 58.2993 322.976C58.5512 322.886 58.7683 322.754 58.9506 322.578C59.1328 322.399 59.2737 322.177 59.3731 321.912L60.5067 322.23C60.3873 322.615 60.1868 322.953 59.9051 323.244C59.6234 323.533 59.2754 323.758 58.8611 323.92C58.4468 324.08 57.9811 324.159 57.464 324.159ZM68.4227 316.364L65.5988 324H64.4056L61.5818 316.364H62.8545L64.9624 322.449H65.042L67.1499 316.364H68.4227ZM72.8996 324.159C72.1638 324.159 71.5291 323.997 70.9955 323.672C70.4652 323.344 70.0558 322.886 69.7675 322.3C69.4825 321.71 69.3399 321.024 69.3399 320.241C69.3399 319.459 69.4825 318.77 69.7675 318.173C70.0558 317.573 70.4569 317.106 70.9706 316.771C71.4877 316.433 72.0909 316.264 72.7803 316.264C73.178 316.264 73.5708 316.33 73.9585 316.463C74.3463 316.596 74.6993 316.811 75.0175 317.109C75.3357 317.404 75.5892 317.795 75.7781 318.283C75.9671 318.77 76.0615 319.37 76.0615 320.082V320.58H70.1752V319.565H74.8683C74.8683 319.134 74.7822 318.75 74.6098 318.412C74.4408 318.074 74.1988 317.807 73.884 317.612C73.5724 317.416 73.2045 317.318 72.7803 317.318C72.3129 317.318 71.9086 317.434 71.5672 317.666C71.2291 317.895 70.969 318.193 70.7867 318.561C70.6044 318.929 70.5132 319.323 70.5132 319.744V320.42C70.5132 320.997 70.6127 321.486 70.8115 321.887C71.0137 322.285 71.2938 322.588 71.6517 322.797C72.0097 323.002 72.4256 323.105 72.8996 323.105C73.2078 323.105 73.4862 323.062 73.7348 322.976C73.9867 322.886 74.2038 322.754 74.3861 322.578C74.5684 322.399 74.7093 322.177 74.8087 321.912L75.9422 322.23C75.8229 322.615 75.6224 322.953 75.3406 323.244C75.0589 323.533 74.7109 323.758 74.2966 323.92C73.8823 324.08 73.4166 324.159 72.8996 324.159ZM79.0196 313.818V324H77.8463V313.818H79.0196ZM84.2709 324.159C83.5815 324.159 82.9766 323.995 82.4562 323.667C81.9392 323.339 81.5348 322.88 81.2432 322.29C80.9548 321.7 80.8106 321.01 80.8106 320.222C80.8106 319.426 80.9548 318.732 81.2432 318.138C81.5348 317.545 81.9392 317.085 82.4562 316.756C82.9766 316.428 83.5815 316.264 84.2709 316.264C84.9603 316.264 85.5635 316.428 86.0805 316.756C86.6009 317.085 87.0052 317.545 87.2936 318.138C87.5853 318.732 87.7311 319.426 87.7311 320.222C87.7311 321.01 87.5853 321.7 87.2936 322.29C87.0052 322.88 86.6009 323.339 86.0805 323.667C85.5635 323.995 84.9603 324.159 84.2709 324.159ZM84.2709 323.105C84.7945 323.105 85.2254 322.971 85.5635 322.702C85.9015 322.434 86.1518 322.081 86.3142 321.643C86.4766 321.206 86.5578 320.732 86.5578 320.222C86.5578 319.711 86.4766 319.236 86.3142 318.795C86.1518 318.354 85.9015 317.998 85.5635 317.726C85.2254 317.454 84.7945 317.318 84.2709 317.318C83.7472 317.318 83.3163 317.454 82.9782 317.726C82.6402 317.998 82.3899 318.354 82.2275 318.795C82.0651 319.236 81.9839 319.711 81.9839 320.222C81.9839 320.732 82.0651 321.206 82.2275 321.643C82.3899 322.081 82.6402 322.434 82.9782 322.702C83.3163 322.971 83.7472 323.105 84.2709 323.105ZM89.5221 326.864V316.364H90.6556V317.577H90.7948C90.881 317.444 91.0003 317.275 91.1528 317.07C91.3086 316.861 91.5306 316.675 91.819 316.513C92.1106 316.347 92.5051 316.264 93.0022 316.264C93.6452 316.264 94.212 316.425 94.7025 316.746C95.193 317.068 95.5758 317.524 95.8509 318.114C96.126 318.704 96.2636 319.4 96.2636 320.202C96.2636 321.01 96.126 321.711 95.8509 322.305C95.5758 322.895 95.1947 323.352 94.7075 323.677C94.2203 323.998 93.6585 324.159 93.0221 324.159C92.5316 324.159 92.1388 324.078 91.8438 323.915C91.5489 323.75 91.3218 323.562 91.1627 323.354C91.0036 323.142 90.881 322.966 90.7948 322.827H90.6954V326.864H89.5221ZM90.6755 320.182C90.6755 320.759 90.76 321.267 90.9291 321.708C91.0981 322.146 91.345 322.489 91.6698 322.737C91.9946 322.982 92.3924 323.105 92.863 323.105C93.3535 323.105 93.7629 322.976 94.091 322.717C94.4224 322.455 94.671 322.104 94.8367 321.663C95.0058 321.219 95.0903 320.725 95.0903 320.182C95.0903 319.645 95.0074 319.161 94.8417 318.73C94.6793 318.296 94.4324 317.953 94.1009 317.701C93.7728 317.446 93.3602 317.318 92.863 317.318C92.3857 317.318 91.9847 317.439 91.6599 317.681C91.3351 317.92 91.0898 318.254 90.9241 318.685C90.7584 319.113 90.6755 319.612 90.6755 320.182ZM101.255 324.159C100.519 324.159 99.8846 323.997 99.3509 323.672C98.8206 323.344 98.4113 322.886 98.123 322.3C97.8379 321.71 97.6954 321.024 97.6954 320.241C97.6954 319.459 97.8379 318.77 98.123 318.173C98.4113 317.573 98.8124 317.106 99.3261 316.771C99.8431 316.433 100.446 316.264 101.136 316.264C101.533 316.264 101.926 316.33 102.314 316.463C102.702 316.596 103.055 316.811 103.373 317.109C103.691 317.404 103.945 317.795 104.134 318.283C104.323 318.77 104.417 319.37 104.417 320.082V320.58H98.5306V319.565H103.224C103.224 319.134 103.138 318.75 102.965 318.412C102.796 318.074 102.554 317.807 102.239 317.612C101.928 317.416 101.56 317.318 101.136 317.318C100.668 317.318 100.264 317.434 99.9227 317.666C99.5846 317.895 99.3244 318.193 99.1421 318.561C98.9598 318.929 98.8687 319.323 98.8687 319.744V320.42C98.8687 320.997 98.9681 321.486 99.167 321.887C99.3692 322.285 99.6492 322.588 100.007 322.797C100.365 323.002 100.781 323.105 101.255 323.105C101.563 323.105 101.842 323.062 102.09 322.976C102.342 322.886 102.559 322.754 102.742 322.578C102.924 322.399 103.065 322.177 103.164 321.912L104.298 322.23C104.178 322.615 103.978 322.953 103.696 323.244C103.414 323.533 103.066 323.758 102.652 323.92C102.238 324.08 101.772 324.159 101.255 324.159ZM106.202 324V316.364H107.335V317.517H107.415C107.554 317.139 107.806 316.833 108.171 316.597C108.535 316.362 108.946 316.244 109.403 316.244C109.49 316.244 109.597 316.246 109.727 316.249C109.856 316.253 109.954 316.258 110.02 316.264V317.457C109.98 317.447 109.889 317.433 109.747 317.413C109.607 317.389 109.46 317.378 109.304 317.378C108.933 317.378 108.601 317.456 108.31 317.612C108.021 317.764 107.793 317.976 107.624 318.248C107.458 318.516 107.375 318.823 107.375 319.168V324H106.202ZM116.82 318.074L115.766 318.372C115.7 318.196 115.602 318.026 115.473 317.86C115.347 317.691 115.174 317.552 114.956 317.442C114.737 317.333 114.457 317.278 114.115 317.278C113.648 317.278 113.259 317.386 112.947 317.602C112.639 317.814 112.485 318.084 112.485 318.412C112.485 318.704 112.591 318.934 112.803 319.103C113.015 319.272 113.346 319.413 113.797 319.526L114.931 319.804C115.613 319.97 116.122 320.223 116.457 320.565C116.792 320.903 116.959 321.339 116.959 321.872C116.959 322.31 116.833 322.701 116.581 323.045C116.333 323.39 115.985 323.662 115.537 323.861C115.09 324.06 114.569 324.159 113.976 324.159C113.197 324.159 112.553 323.99 112.042 323.652C111.532 323.314 111.209 322.82 111.073 322.17L112.186 321.892C112.292 322.303 112.493 322.611 112.788 322.817C113.086 323.022 113.476 323.125 113.956 323.125C114.503 323.125 114.937 323.009 115.259 322.777C115.584 322.542 115.746 322.26 115.746 321.932C115.746 321.667 115.653 321.445 115.468 321.266C115.282 321.083 114.997 320.947 114.612 320.858L113.34 320.56C112.64 320.394 112.127 320.137 111.799 319.789C111.474 319.438 111.311 318.999 111.311 318.472C111.311 318.041 111.432 317.66 111.674 317.328C111.92 316.997 112.253 316.737 112.674 316.548C113.098 316.359 113.578 316.264 114.115 316.264C114.871 316.264 115.464 316.43 115.895 316.761C116.329 317.093 116.638 317.53 116.82 318.074ZM119.58 324.08C119.335 324.08 119.125 323.992 118.949 323.816C118.773 323.64 118.685 323.43 118.685 323.185C118.685 322.939 118.773 322.729 118.949 322.553C119.125 322.378 119.335 322.29 119.58 322.29C119.826 322.29 120.036 322.378 120.212 322.553C120.387 322.729 120.475 322.939 120.475 323.185C120.475 323.347 120.434 323.496 120.351 323.632C120.271 323.768 120.164 323.877 120.028 323.96C119.895 324.04 119.746 324.08 119.58 324.08Z" fill="#222222"/>
<rect x="36.5" y="1.5" width="93" height="93" rx="38.5" fill="#FD6C31"/>
<rect x="36.5" y="1.5" width="93" height="93" rx="38.5" stroke="white" stroke-width="3"/>
<path d="M73.082 55.7813V51.7852L83.1016 36H86.5469V41.5312H84.5078L78.1914 51.5273V51.7148H92.4297V55.7813H73.082ZM84.6016 60V54.5625L84.6953 52.793V36H89.4531V60H84.6016Z" fill="white"/>
</g>
<defs>
<filter id="filter0_i_119_811" x="0" y="0" width="166" height="424" filterUnits="userSpaceOnUse" color-interpolation-filters="sRGB">
<feFlood flood-opacity="0" result="BackgroundImageFix"/>
<feBlend mode="normal" in="SourceGraphic" in2="BackgroundImageFix" result="shape"/>
<feColorMatrix in="SourceAlpha" type="matrix" values="0 0 0 0 0 0 0 0 0 0 0 0 0 0 0 0 0 0 127 0" result="hardAlpha"/>
<feOffset/>
<feGaussianBlur stdDeviation="2"/>
<feComposite in2="hardAlpha" operator="arithmetic" k2="-1" k3="1"/>
<feColorMatrix type="matrix" values="0 0 0 0 0 0 0 0 0 0 0 0 0 0 0 0 0 0 0.25 0"/>
<feBlend mode="normal" in2="shape" result="effect1_innerShadow_119_811"/>
</filter>
</defs>
</svg>
