<svg width="166" height="424" viewBox="0 0 166 424" fill="none" xmlns="http://www.w3.org/2000/svg">
<g filter="url(#filter0_i_119_816)">
<rect y="27" width="166" height="397" rx="83" fill="#FAF8F9"/>
<path d="M48.9491 145V131.036H57.8946V133.157H51.4787V136.948H57.281V139.068H51.4787V145H48.9491ZM60.0901 145V134.527H62.5582V145H60.0901ZM61.331 133.041C60.9401 133.041 60.6037 132.911 60.3219 132.652C60.0401 132.389 59.8991 132.073 59.8991 131.705C59.8991 131.332 60.0401 131.016 60.3219 130.757C60.6037 130.493 60.9401 130.361 61.331 130.361C61.7264 130.361 62.0628 130.493 62.3401 130.757C62.6219 131.016 62.7628 131.332 62.7628 131.705C62.7628 132.073 62.6219 132.389 62.3401 132.652C62.0628 132.911 61.7264 133.041 61.331 133.041ZM67.5645 138.864V145H65.0963V134.527H67.4554V136.307H67.5781C67.819 135.72 68.2031 135.255 68.7304 134.909C69.2622 134.564 69.919 134.391 70.7009 134.391C71.4236 134.391 72.0531 134.545 72.5895 134.855C73.1304 135.164 73.5486 135.611 73.844 136.198C74.144 136.784 74.2918 137.495 74.2872 138.332V145H71.819V138.714C71.819 138.014 71.6372 137.466 71.2736 137.07C70.9145 136.675 70.4168 136.477 69.7804 136.477C69.3486 136.477 68.9645 136.573 68.6281 136.764C68.2963 136.95 68.0349 137.22 67.844 137.575C67.6577 137.93 67.5645 138.359 67.5645 138.864ZM79.8099 145.211C79.1463 145.211 78.5486 145.093 78.0168 144.857C77.4895 144.616 77.0713 144.261 76.7622 143.793C76.4577 143.325 76.3054 142.748 76.3054 142.061C76.3054 141.47 76.4145 140.982 76.6327 140.595C76.8508 140.209 77.1486 139.9 77.5258 139.668C77.9031 139.436 78.3281 139.261 78.8008 139.143C79.2781 139.02 79.7713 138.932 80.2804 138.877C80.894 138.814 81.3918 138.757 81.7736 138.707C82.1554 138.652 82.4327 138.57 82.6054 138.461C82.7827 138.348 82.8713 138.173 82.8713 137.936V137.895C82.8713 137.382 82.719 136.984 82.4145 136.702C82.1099 136.42 81.6713 136.28 81.0986 136.28C80.494 136.28 80.0145 136.411 79.6599 136.675C79.3099 136.939 79.0736 137.25 78.9508 137.609L76.6463 137.282C76.8281 136.645 77.1281 136.114 77.5463 135.686C77.9645 135.255 78.4758 134.932 79.0804 134.718C79.6849 134.5 80.3531 134.391 81.0849 134.391C81.5895 134.391 82.0918 134.45 82.5918 134.568C83.0918 134.686 83.5486 134.882 83.9622 135.155C84.3759 135.423 84.7077 135.789 84.9577 136.252C85.2122 136.716 85.3395 137.295 85.3395 137.991V145H82.9668V143.561H82.8849C82.7349 143.852 82.5236 144.125 82.2508 144.38C81.9827 144.63 81.644 144.832 81.2349 144.986C80.8304 145.136 80.3554 145.211 79.8099 145.211ZM80.4508 143.398C80.9463 143.398 81.3758 143.3 81.7395 143.105C82.1031 142.905 82.3827 142.641 82.5781 142.314C82.7781 141.986 82.8781 141.63 82.8781 141.243V140.009C82.8008 140.073 82.669 140.132 82.4827 140.186C82.3008 140.241 82.0963 140.289 81.869 140.33C81.6418 140.37 81.4168 140.407 81.194 140.439C80.9713 140.47 80.7781 140.498 80.6145 140.52C80.2463 140.57 79.9168 140.652 79.6258 140.766C79.3349 140.88 79.1054 141.039 78.9372 141.243C78.769 141.443 78.6849 141.702 78.6849 142.02C78.6849 142.475 78.8508 142.818 79.1827 143.05C79.5145 143.282 79.9372 143.398 80.4508 143.398ZM90.2895 131.036V145H87.8213V131.036H90.2895ZM92.8276 145V134.527H95.2957V145H92.8276ZM94.0685 133.041C93.6776 133.041 93.3412 132.911 93.0594 132.652C92.7776 132.389 92.6366 132.073 92.6366 131.705C92.6366 131.332 92.7776 131.016 93.0594 130.757C93.3412 130.493 93.6776 130.361 94.0685 130.361C94.4639 130.361 94.8003 130.493 95.0776 130.757C95.3594 131.016 95.5003 131.332 95.5003 131.705C95.5003 132.073 95.3594 132.389 95.0776 132.652C94.8003 132.911 94.4639 133.041 94.0685 133.041ZM97.6974 145V143.432L103.097 136.661V136.573H97.8747V134.527H106.118V136.211L100.977 142.866V142.955H106.295V145H97.6974ZM112.951 145.205C111.901 145.205 110.995 144.986 110.231 144.55C109.472 144.109 108.888 143.486 108.479 142.682C108.07 141.873 107.865 140.92 107.865 139.825C107.865 138.748 108.07 137.802 108.479 136.989C108.892 136.17 109.47 135.534 110.211 135.08C110.951 134.62 111.822 134.391 112.822 134.391C113.467 134.391 114.076 134.495 114.649 134.705C115.226 134.909 115.736 135.227 116.176 135.659C116.622 136.091 116.972 136.641 117.226 137.309C117.481 137.973 117.608 138.764 117.608 139.682V140.439H109.024V138.775H115.242C115.238 138.302 115.136 137.882 114.936 137.514C114.736 137.141 114.456 136.848 114.097 136.634C113.742 136.42 113.329 136.314 112.856 136.314C112.351 136.314 111.908 136.436 111.526 136.682C111.145 136.923 110.847 137.241 110.633 137.636C110.424 138.027 110.317 138.457 110.313 138.925V140.377C110.313 140.986 110.424 141.509 110.647 141.945C110.87 142.377 111.181 142.709 111.581 142.941C111.981 143.168 112.449 143.282 112.986 143.282C113.345 143.282 113.67 143.232 113.961 143.132C114.251 143.027 114.504 142.875 114.717 142.675C114.931 142.475 115.092 142.227 115.201 141.932L117.506 142.191C117.361 142.8 117.083 143.332 116.674 143.786C116.27 144.236 115.751 144.586 115.12 144.836C114.488 145.082 113.765 145.205 112.951 145.205ZM40.8679 168V154.036H46.1043C47.177 154.036 48.077 154.236 48.8043 154.636C49.5361 155.036 50.0884 155.586 50.4611 156.286C50.8384 156.982 51.027 157.773 51.027 158.659C51.027 159.555 50.8384 160.35 50.4611 161.045C50.0838 161.741 49.527 162.289 48.7906 162.689C48.0543 163.084 47.1474 163.282 46.0702 163.282H42.5997V161.202H45.7293C46.3565 161.202 46.8702 161.093 47.2702 160.875C47.6702 160.657 47.9656 160.357 48.1565 159.975C48.352 159.593 48.4497 159.155 48.4497 158.659C48.4497 158.164 48.352 157.727 48.1565 157.35C47.9656 156.973 47.6679 156.68 47.2634 156.47C46.8634 156.257 46.3474 156.15 45.7156 156.15H43.3974V168H40.8679ZM59.7901 163.595V157.527H62.2582V168H59.8651V166.139H59.756C59.5196 166.725 59.131 167.205 58.5901 167.577C58.0537 167.95 57.3923 168.136 56.606 168.136C55.9196 168.136 55.3128 167.984 54.7855 167.68C54.2628 167.37 53.8537 166.923 53.5582 166.336C53.2628 165.745 53.1151 165.032 53.1151 164.195V157.527H55.5832V163.814C55.5832 164.477 55.7651 165.005 56.1287 165.395C56.4923 165.786 56.9696 165.982 57.5605 165.982C57.9241 165.982 58.2764 165.893 58.6173 165.716C58.9582 165.539 59.2378 165.275 59.456 164.925C59.6787 164.57 59.7901 164.127 59.7901 163.595ZM64.7963 168V157.527H67.1895V159.273H67.2986C67.4895 158.668 67.8168 158.202 68.2804 157.875C68.7486 157.543 69.2827 157.377 69.8827 157.377C70.019 157.377 70.1713 157.384 70.3395 157.398C70.5122 157.407 70.6554 157.423 70.769 157.445V159.716C70.6645 159.68 70.4986 159.648 70.2713 159.62C70.0486 159.589 69.8327 159.573 69.6236 159.573C69.1736 159.573 68.769 159.67 68.4099 159.866C68.0554 160.057 67.7759 160.323 67.5713 160.664C67.3668 161.005 67.2645 161.398 67.2645 161.843V168H64.7963ZM76.5457 168.205C75.5003 168.205 74.6026 167.975 73.8526 167.516C73.1071 167.057 72.5321 166.423 72.1276 165.614C71.7276 164.8 71.5276 163.864 71.5276 162.805C71.5276 161.741 71.7321 160.802 72.1412 159.989C72.5503 159.17 73.1276 158.534 73.873 158.08C74.623 157.62 75.5094 157.391 76.5321 157.391C77.3821 157.391 78.1344 157.548 78.7889 157.861C79.448 158.17 79.973 158.609 80.3639 159.177C80.7548 159.741 80.9776 160.4 81.0321 161.155H78.673C78.5776 160.65 78.3503 160.23 77.9912 159.893C77.6366 159.552 77.1616 159.382 76.5662 159.382C76.0616 159.382 75.6185 159.518 75.2366 159.791C74.8548 160.059 74.5571 160.445 74.3435 160.95C74.1344 161.455 74.0298 162.059 74.0298 162.764C74.0298 163.477 74.1344 164.091 74.3435 164.605C74.5526 165.114 74.8457 165.507 75.223 165.784C75.6048 166.057 76.0526 166.193 76.5662 166.193C76.9298 166.193 77.2548 166.125 77.5412 165.989C77.8321 165.848 78.0753 165.645 78.2707 165.382C78.4662 165.118 78.6003 164.798 78.673 164.42H81.0321C80.973 165.161 80.7548 165.818 80.3776 166.391C80.0003 166.959 79.4866 167.405 78.8366 167.727C78.1866 168.045 77.423 168.205 76.5457 168.205ZM85.527 161.864V168H83.0588V154.036H85.4724V159.307H85.5952C85.8406 158.716 86.2202 158.25 86.7338 157.909C87.252 157.564 87.9111 157.391 88.7111 157.391C89.4384 157.391 90.0724 157.543 90.6134 157.848C91.1543 158.152 91.5724 158.598 91.8679 159.184C92.1679 159.77 92.3179 160.486 92.3179 161.332V168H89.8497V161.714C89.8497 161.009 89.6679 160.461 89.3043 160.07C88.9452 159.675 88.4406 159.477 87.7906 159.477C87.3543 159.477 86.9634 159.573 86.6179 159.764C86.277 159.95 86.0088 160.22 85.8134 160.575C85.6224 160.93 85.527 161.359 85.527 161.864ZM97.8474 168.211C97.1838 168.211 96.5861 168.093 96.0543 167.857C95.527 167.616 95.1088 167.261 94.7997 166.793C94.4952 166.325 94.3429 165.748 94.3429 165.061C94.3429 164.47 94.452 163.982 94.6702 163.595C94.8884 163.209 95.1861 162.9 95.5634 162.668C95.9406 162.436 96.3656 162.261 96.8384 162.143C97.3156 162.02 97.8088 161.932 98.3179 161.877C98.9315 161.814 99.4293 161.757 99.8111 161.707C100.193 161.652 100.47 161.57 100.643 161.461C100.82 161.348 100.909 161.173 100.909 160.936V160.895C100.909 160.382 100.757 159.984 100.452 159.702C100.147 159.42 99.7088 159.28 99.1361 159.28C98.5315 159.28 98.052 159.411 97.6974 159.675C97.3474 159.939 97.1111 160.25 96.9884 160.609L94.6838 160.282C94.8656 159.645 95.1656 159.114 95.5838 158.686C96.002 158.255 96.5134 157.932 97.1179 157.718C97.7224 157.5 98.3906 157.391 99.1224 157.391C99.627 157.391 100.129 157.45 100.629 157.568C101.129 157.686 101.586 157.882 102 158.155C102.413 158.423 102.745 158.789 102.995 159.252C103.25 159.716 103.377 160.295 103.377 160.991V168H101.004V166.561H100.922C100.772 166.852 100.561 167.125 100.288 167.38C100.02 167.63 99.6815 167.832 99.2724 167.986C98.8679 168.136 98.3929 168.211 97.8474 168.211ZM98.4884 166.398C98.9838 166.398 99.4134 166.3 99.777 166.105C100.141 165.905 100.42 165.641 100.616 165.314C100.816 164.986 100.916 164.63 100.916 164.243V163.009C100.838 163.073 100.707 163.132 100.52 163.186C100.338 163.241 100.134 163.289 99.9065 163.33C99.6793 163.37 99.4543 163.407 99.2315 163.439C99.0088 163.47 98.8156 163.498 98.652 163.52C98.2838 163.57 97.9543 163.652 97.6634 163.766C97.3724 163.88 97.1429 164.039 96.9747 164.243C96.8065 164.443 96.7224 164.702 96.7224 165.02C96.7224 165.475 96.8884 165.818 97.2202 166.05C97.552 166.282 97.9747 166.398 98.4884 166.398ZM114.136 160.295L111.886 160.541C111.822 160.314 111.711 160.1 111.552 159.9C111.397 159.7 111.188 159.539 110.925 159.416C110.661 159.293 110.338 159.232 109.957 159.232C109.443 159.232 109.011 159.343 108.661 159.566C108.316 159.789 108.145 160.077 108.15 160.432C108.145 160.736 108.257 160.984 108.484 161.175C108.716 161.366 109.097 161.523 109.629 161.645L111.416 162.027C112.407 162.241 113.143 162.58 113.625 163.043C114.111 163.507 114.357 164.114 114.361 164.864C114.357 165.523 114.163 166.105 113.782 166.609C113.404 167.109 112.879 167.5 112.207 167.782C111.534 168.064 110.761 168.205 109.888 168.205C108.607 168.205 107.575 167.936 106.793 167.4C106.011 166.859 105.545 166.107 105.395 165.143L107.802 164.911C107.911 165.384 108.143 165.741 108.497 165.982C108.852 166.223 109.313 166.343 109.882 166.343C110.468 166.343 110.938 166.223 111.293 165.982C111.652 165.741 111.832 165.443 111.832 165.089C111.832 164.789 111.716 164.541 111.484 164.345C111.257 164.15 110.902 164 110.42 163.895L108.634 163.52C107.629 163.311 106.886 162.959 106.404 162.464C105.922 161.964 105.684 161.332 105.688 160.568C105.684 159.923 105.859 159.364 106.213 158.891C106.572 158.414 107.07 158.045 107.707 157.786C108.347 157.523 109.086 157.391 109.922 157.391C111.15 157.391 112.116 157.652 112.82 158.175C113.529 158.698 113.968 159.405 114.136 160.295ZM121.033 168.205C119.983 168.205 119.076 167.986 118.312 167.55C117.553 167.109 116.969 166.486 116.56 165.682C116.151 164.873 115.946 163.92 115.946 162.825C115.946 161.748 116.151 160.802 116.56 159.989C116.974 159.17 117.551 158.534 118.292 158.08C119.033 157.62 119.903 157.391 120.903 157.391C121.549 157.391 122.158 157.495 122.73 157.705C123.308 157.909 123.817 158.227 124.258 158.659C124.703 159.091 125.053 159.641 125.308 160.309C125.562 160.973 125.689 161.764 125.689 162.682V163.439H117.105V161.775H123.324C123.319 161.302 123.217 160.882 123.017 160.514C122.817 160.141 122.537 159.848 122.178 159.634C121.824 159.42 121.41 159.314 120.937 159.314C120.433 159.314 119.989 159.436 119.608 159.682C119.226 159.923 118.928 160.241 118.714 160.636C118.505 161.027 118.399 161.457 118.394 161.925V163.377C118.394 163.986 118.505 164.509 118.728 164.945C118.951 165.377 119.262 165.709 119.662 165.941C120.062 166.168 120.53 166.282 121.067 166.282C121.426 166.282 121.751 166.232 122.042 166.132C122.333 166.027 122.585 165.875 122.799 165.675C123.012 165.475 123.174 165.227 123.283 164.932L125.587 165.191C125.442 165.8 125.164 166.332 124.755 166.786C124.351 167.236 123.833 167.586 123.201 167.836C122.569 168.082 121.846 168.205 121.033 168.205Z" fill="#FD6C31"/>
<path d="M43.9183 215H42.6854C42.6125 214.645 42.4848 214.334 42.3026 214.065C42.1236 213.797 41.9048 213.571 41.6463 213.389C41.3911 213.204 41.1077 213.064 40.7962 212.972C40.4846 212.879 40.1598 212.832 39.8217 212.832C39.2053 212.832 38.6468 212.988 38.1463 213.3C37.6491 213.611 37.2531 214.07 36.9581 214.677C36.6664 215.283 36.5206 216.027 36.5206 216.909C36.5206 217.791 36.6664 218.535 36.9581 219.141C37.2531 219.748 37.6491 220.207 38.1463 220.518C38.6468 220.83 39.2053 220.986 39.8217 220.986C40.1598 220.986 40.4846 220.939 40.7962 220.847C41.1077 220.754 41.3911 220.616 41.6463 220.434C41.9048 220.248 42.1236 220.021 42.3026 219.753C42.4848 219.481 42.6125 219.17 42.6854 218.818H43.9183C43.8255 219.339 43.6565 219.804 43.4112 220.215C43.166 220.626 42.861 220.976 42.4964 221.264C42.1319 221.549 41.7225 221.766 41.2685 221.915C40.8177 222.065 40.3355 222.139 39.8217 222.139C38.9534 222.139 38.1811 221.927 37.505 221.503C36.8288 221.079 36.2969 220.475 35.9091 219.693C35.5213 218.911 35.3274 217.983 35.3274 216.909C35.3274 215.835 35.5213 214.907 35.9091 214.125C36.2969 213.343 36.8288 212.74 37.505 212.315C38.1811 211.891 38.9534 211.679 39.8217 211.679C40.3355 211.679 40.8177 211.754 41.2685 211.903C41.7225 212.052 42.1319 212.271 42.4964 212.559C42.861 212.844 43.166 213.192 43.4112 213.603C43.6565 214.011 43.8255 214.476 43.9183 215ZM48.8539 222.159C48.1645 222.159 47.5596 221.995 47.0392 221.667C46.5222 221.339 46.1178 220.88 45.8262 220.29C45.5378 219.7 45.3936 219.01 45.3936 218.222C45.3936 217.426 45.5378 216.732 45.8262 216.138C46.1178 215.545 46.5222 215.085 47.0392 214.756C47.5596 214.428 48.1645 214.264 48.8539 214.264C49.5433 214.264 50.1465 214.428 50.6635 214.756C51.1839 215.085 51.5882 215.545 51.8766 216.138C52.1683 216.732 52.3141 217.426 52.3141 218.222C52.3141 219.01 52.1683 219.7 51.8766 220.29C51.5882 220.88 51.1839 221.339 50.6635 221.667C50.1465 221.995 49.5433 222.159 48.8539 222.159ZM48.8539 221.105C49.3775 221.105 49.8084 220.971 50.1465 220.702C50.4846 220.434 50.7348 220.081 50.8972 219.643C51.0596 219.206 51.1408 218.732 51.1408 218.222C51.1408 217.711 51.0596 217.236 50.8972 216.795C50.7348 216.354 50.4846 215.998 50.1465 215.726C49.8084 215.454 49.3775 215.318 48.8539 215.318C48.3302 215.318 47.8993 215.454 47.5613 215.726C47.2232 215.998 46.973 216.354 46.8105 216.795C46.6481 217.236 46.5669 217.711 46.5669 218.222C46.5669 218.732 46.6481 219.206 46.8105 219.643C46.973 220.081 47.2232 220.434 47.5613 220.702C47.8993 220.971 48.3302 221.105 48.8539 221.105ZM54.1051 222V214.364H55.2386V215.557H55.3381C55.4972 215.149 55.754 214.833 56.1087 214.607C56.4633 214.379 56.8892 214.264 57.3864 214.264C57.8902 214.264 58.3094 214.379 58.6442 214.607C58.9822 214.833 59.2457 215.149 59.4347 215.557H59.5142C59.7098 215.162 60.0031 214.849 60.3942 214.617C60.7853 214.382 61.2543 214.264 61.8011 214.264C62.4839 214.264 63.0424 214.478 63.4766 214.906C63.9107 215.33 64.1278 215.991 64.1278 216.889V222H62.9545V216.889C62.9545 216.326 62.8004 215.923 62.4922 215.681C62.1839 215.439 61.821 215.318 61.4034 215.318C60.8665 215.318 60.4505 215.481 60.1555 215.805C59.8606 216.127 59.7131 216.535 59.7131 217.028V222H58.5199V216.77C58.5199 216.336 58.379 215.986 58.0973 215.721C57.8156 215.452 57.4527 215.318 57.0085 215.318C56.7036 215.318 56.4186 215.399 56.1534 215.562C55.8916 215.724 55.6795 215.95 55.517 216.238C55.358 216.523 55.2784 216.853 55.2784 217.227V222H54.1051ZM66.2731 224.864V214.364H67.4066V215.577H67.5458C67.632 215.444 67.7513 215.275 67.9038 215.07C68.0595 214.861 68.2816 214.675 68.57 214.513C68.8616 214.347 69.256 214.264 69.7532 214.264C70.3962 214.264 70.963 214.425 71.4535 214.746C71.944 215.068 72.3268 215.524 72.6019 216.114C72.877 216.704 73.0146 217.4 73.0146 218.202C73.0146 219.01 72.877 219.711 72.6019 220.305C72.3268 220.895 71.9457 221.352 71.4585 221.677C70.9712 221.998 70.4094 222.159 69.7731 222.159C69.2826 222.159 68.8898 222.078 68.5948 221.915C68.2998 221.75 68.0728 221.562 67.9137 221.354C67.7546 221.142 67.632 220.966 67.5458 220.827H67.4464V224.864H66.2731ZM67.4265 218.182C67.4265 218.759 67.511 219.267 67.68 219.708C67.8491 220.146 68.096 220.489 68.4208 220.737C68.7456 220.982 69.1433 221.105 69.614 221.105C70.1045 221.105 70.5138 220.976 70.842 220.717C71.1734 220.455 71.422 220.104 71.5877 219.663C71.7567 219.219 71.8413 218.725 71.8413 218.182C71.8413 217.645 71.7584 217.161 71.5927 216.73C71.4303 216.296 71.1834 215.953 70.8519 215.701C70.5238 215.446 70.1112 215.318 69.614 215.318C69.1367 215.318 68.7357 215.439 68.4109 215.681C68.0861 215.92 67.8408 216.254 67.6751 216.685C67.5094 217.113 67.4265 217.612 67.4265 218.182ZM75.9776 211.818V222H74.8043V211.818H75.9776ZM81.3283 222.159C80.5925 222.159 79.9578 221.997 79.4242 221.672C78.8939 221.344 78.4846 220.886 78.1962 220.3C77.9112 219.71 77.7686 219.024 77.7686 218.241C77.7686 217.459 77.9112 216.77 78.1962 216.173C78.4846 215.573 78.8856 215.106 79.3993 214.771C79.9164 214.433 80.5196 214.264 81.209 214.264C81.6067 214.264 81.9995 214.33 82.3873 214.463C82.775 214.596 83.128 214.811 83.4462 215.109C83.7644 215.404 84.0179 215.795 84.2069 216.283C84.3958 216.77 84.4902 217.37 84.4902 218.082V218.58H78.6039V217.565H83.2971C83.2971 217.134 83.2109 216.75 83.0385 216.412C82.8695 216.074 82.6275 215.807 82.3127 215.612C82.0011 215.416 81.6332 215.318 81.209 215.318C80.7417 215.318 80.3373 215.434 79.9959 215.666C79.6578 215.895 79.3977 216.193 79.2154 216.561C79.0331 216.929 78.9419 217.323 78.9419 217.744V218.42C78.9419 218.997 79.0414 219.486 79.2402 219.887C79.4424 220.285 79.7225 220.588 80.0804 220.797C80.4384 221.002 80.8543 221.105 81.3283 221.105C81.6365 221.105 81.915 221.062 82.1635 220.976C82.4154 220.886 82.6325 220.754 82.8148 220.578C82.9971 220.399 83.138 220.177 83.2374 219.912L84.3709 220.23C84.2516 220.615 84.0511 220.953 83.7694 221.244C83.4876 221.533 83.1396 221.758 82.7253 221.92C82.311 222.08 81.8453 222.159 81.3283 222.159ZM89.5961 214.364V215.358H85.6387V214.364H89.5961ZM86.7921 212.534H87.9654V219.812C87.9654 220.144 88.0134 220.393 88.1096 220.558C88.209 220.721 88.3349 220.83 88.4874 220.886C88.6432 220.939 88.8072 220.966 88.9796 220.966C89.1088 220.966 89.2149 220.959 89.2978 220.946C89.3806 220.929 89.4469 220.916 89.4966 220.906L89.7353 221.96C89.6557 221.99 89.5447 222.02 89.4022 222.05C89.2596 222.083 89.079 222.099 88.8603 222.099C88.5288 222.099 88.204 222.028 87.8858 221.886C87.571 221.743 87.3091 221.526 87.1003 221.234C86.8948 220.943 86.7921 220.575 86.7921 220.131V212.534ZM94.4806 222.159C93.7449 222.159 93.1101 221.997 92.5765 221.672C92.0462 221.344 91.6369 220.886 91.3485 220.3C91.0635 219.71 90.921 219.024 90.921 218.241C90.921 217.459 91.0635 216.77 91.3485 216.173C91.6369 215.573 92.0379 215.106 92.5517 214.771C93.0687 214.433 93.6719 214.264 94.3613 214.264C94.7591 214.264 95.1518 214.33 95.5396 214.463C95.9274 214.596 96.2804 214.811 96.5985 215.109C96.9167 215.404 97.1703 215.795 97.3592 216.283C97.5481 216.77 97.6426 217.37 97.6426 218.082V218.58H91.7562V217.565H96.4494C96.4494 217.134 96.3632 216.75 96.1909 216.412C96.0218 216.074 95.7799 215.807 95.465 215.612C95.1535 215.416 94.7856 215.318 94.3613 215.318C93.894 215.318 93.4896 215.434 93.1483 215.666C92.8102 215.895 92.55 216.193 92.3677 216.561C92.1854 216.929 92.0943 217.323 92.0943 217.744V218.42C92.0943 218.997 92.1937 219.486 92.3926 219.887C92.5948 220.285 92.8748 220.588 93.2328 220.797C93.5907 221.002 94.0067 221.105 94.4806 221.105C94.7889 221.105 95.0673 221.062 95.3159 220.976C95.5678 220.886 95.7849 220.754 95.9672 220.578C96.1494 220.399 96.2903 220.177 96.3897 219.912L97.5233 220.23C97.4039 220.615 97.2034 220.953 96.9217 221.244C96.64 221.533 96.292 221.758 95.8777 221.92C95.4634 222.08 94.9977 222.159 94.4806 222.159ZM104.121 224.864C103.922 224.864 103.744 224.847 103.589 224.814C103.433 224.784 103.325 224.754 103.265 224.724L103.564 223.69C103.849 223.763 104.101 223.79 104.319 223.77C104.538 223.75 104.732 223.652 104.901 223.477C105.073 223.304 105.231 223.024 105.373 222.636L105.592 222.04L102.768 214.364H104.041L106.149 220.449H106.229L108.336 214.364H109.609L106.368 223.114C106.222 223.508 106.041 223.835 105.826 224.093C105.61 224.355 105.36 224.549 105.075 224.675C104.793 224.801 104.475 224.864 104.121 224.864ZM113.987 222.159C113.297 222.159 112.692 221.995 112.172 221.667C111.655 221.339 111.251 220.88 110.959 220.29C110.671 219.7 110.526 219.01 110.526 218.222C110.526 217.426 110.671 216.732 110.959 216.138C111.251 215.545 111.655 215.085 112.172 214.756C112.692 214.428 113.297 214.264 113.987 214.264C114.676 214.264 115.279 214.428 115.796 214.756C116.317 215.085 116.721 215.545 117.009 216.138C117.301 216.732 117.447 217.426 117.447 218.222C117.447 219.01 117.301 219.7 117.009 220.29C116.721 220.88 116.317 221.339 115.796 221.667C115.279 221.995 114.676 222.159 113.987 222.159ZM113.987 221.105C114.51 221.105 114.941 220.971 115.279 220.702C115.617 220.434 115.868 220.081 116.03 219.643C116.192 219.206 116.274 218.732 116.274 218.222C116.274 217.711 116.192 217.236 116.03 216.795C115.868 216.354 115.617 215.998 115.279 215.726C114.941 215.454 114.51 215.318 113.987 215.318C113.463 215.318 113.032 215.454 112.694 215.726C112.356 215.998 112.106 216.354 111.943 216.795C111.781 217.236 111.7 217.711 111.7 218.222C111.7 218.732 111.781 219.206 111.943 219.643C112.106 220.081 112.356 220.434 112.694 220.702C113.032 220.971 113.463 221.105 113.987 221.105ZM124.05 218.878V214.364H125.224V222H124.05V220.707H123.971C123.792 221.095 123.513 221.425 123.136 221.697C122.758 221.965 122.281 222.099 121.704 222.099C121.227 222.099 120.802 221.995 120.431 221.786C120.06 221.574 119.768 221.256 119.556 220.832C119.344 220.404 119.238 219.866 119.238 219.216V214.364H120.411V219.136C120.411 219.693 120.567 220.137 120.879 220.469C121.193 220.8 121.594 220.966 122.082 220.966C122.373 220.966 122.67 220.891 122.972 220.742C123.277 220.593 123.532 220.364 123.737 220.056C123.946 219.748 124.05 219.355 124.05 218.878ZM127.373 222V214.364H128.506V215.517H128.586C128.725 215.139 128.977 214.833 129.341 214.597C129.706 214.362 130.117 214.244 130.574 214.244C130.661 214.244 130.768 214.246 130.898 214.249C131.027 214.253 131.125 214.258 131.191 214.264V215.457C131.151 215.447 131.06 215.433 130.917 215.413C130.778 215.389 130.631 215.378 130.475 215.378C130.104 215.378 129.772 215.456 129.481 215.612C129.192 215.764 128.964 215.976 128.795 216.248C128.629 216.516 128.546 216.823 128.546 217.168V222H127.373ZM33.8968 239.159C33.2605 239.159 32.6987 238.998 32.2115 238.677C31.7243 238.352 31.3431 237.895 31.068 237.305C30.7929 236.711 30.6554 236.01 30.6554 235.202C30.6554 234.4 30.7929 233.704 31.068 233.114C31.3431 232.524 31.7259 232.068 32.2164 231.746C32.707 231.425 33.2737 231.264 33.9167 231.264C34.4139 231.264 34.8066 231.347 35.095 231.513C35.3867 231.675 35.6087 231.861 35.7612 232.07C35.917 232.275 36.0379 232.444 36.1241 232.577H36.2235V228.818H37.3968V239H36.2633V237.827H36.1241C36.0379 237.966 35.9153 238.142 35.7562 238.354C35.5971 238.562 35.3701 238.75 35.0751 238.915C34.7801 239.078 34.3874 239.159 33.8968 239.159ZM34.0559 238.105C34.5266 238.105 34.9243 237.982 35.2491 237.737C35.5739 237.489 35.8208 237.146 35.9899 236.708C36.1589 236.267 36.2434 235.759 36.2434 235.182C36.2434 234.612 36.1606 234.113 35.9949 233.685C35.8291 233.254 35.5839 232.92 35.2591 232.681C34.9342 232.439 34.5332 232.318 34.0559 232.318C33.5588 232.318 33.1445 232.446 32.813 232.701C32.4849 232.953 32.238 233.296 32.0723 233.73C31.9099 234.161 31.8287 234.645 31.8287 235.182C31.8287 235.725 31.9115 236.219 32.0772 236.663C32.2463 237.104 32.4949 237.455 32.823 237.717C33.1544 237.976 33.5654 238.105 34.0559 238.105ZM42.9103 239.159C42.1745 239.159 41.5398 238.997 41.0062 238.672C40.4759 238.344 40.0666 237.886 39.7782 237.3C39.4932 236.71 39.3507 236.024 39.3507 235.241C39.3507 234.459 39.4932 233.77 39.7782 233.173C40.0666 232.573 40.4676 232.106 40.9814 231.771C41.4984 231.433 42.1016 231.264 42.791 231.264C43.1887 231.264 43.5815 231.33 43.9693 231.463C44.3571 231.596 44.7101 231.811 45.0282 232.109C45.3464 232.404 45.6 232.795 45.7889 233.283C45.9778 233.77 46.0723 234.37 46.0723 235.082V235.58H40.1859V234.565H44.8791C44.8791 234.134 44.7929 233.75 44.6206 233.412C44.4515 233.074 44.2096 232.807 43.8947 232.612C43.5832 232.416 43.2153 232.318 42.791 232.318C42.3237 232.318 41.9193 232.434 41.5779 232.666C41.2399 232.895 40.9797 233.193 40.7974 233.561C40.6151 233.929 40.524 234.323 40.524 234.744V235.42C40.524 235.997 40.6234 236.486 40.8223 236.887C41.0244 237.285 41.3045 237.588 41.6625 237.797C42.0204 238.002 42.4364 238.105 42.9103 238.105C43.2186 238.105 43.497 238.062 43.7456 237.976C43.9975 237.886 44.2145 237.754 44.3968 237.578C44.5791 237.399 44.72 237.177 44.8194 236.912L45.9529 237.23C45.8336 237.615 45.6331 237.953 45.3514 238.244C45.0697 238.533 44.7217 238.758 44.3074 238.92C43.8931 239.08 43.4274 239.159 42.9103 239.159ZM50.1042 239.179C49.6203 239.179 49.1812 239.088 48.7868 238.906C48.3923 238.72 48.0791 238.453 47.8471 238.105C47.6151 237.754 47.4991 237.33 47.4991 236.832C47.4991 236.395 47.5853 236.04 47.7576 235.768C47.93 235.493 48.1603 235.278 48.4487 235.122C48.737 234.966 49.0552 234.85 49.4032 234.774C49.7546 234.695 50.1075 234.632 50.4622 234.585C50.9262 234.526 51.3024 234.481 51.5907 234.451C51.8824 234.418 52.0945 234.363 52.2271 234.287C52.363 234.211 52.4309 234.078 52.4309 233.889V233.849C52.4309 233.359 52.2967 232.978 52.0282 232.706C51.7631 232.434 51.3604 232.298 50.8201 232.298C50.26 232.298 49.8208 232.421 49.5027 232.666C49.1845 232.911 48.9608 233.173 48.8315 233.452L47.7179 233.054C47.9167 232.59 48.1819 232.229 48.5133 231.97C48.8481 231.708 49.2127 231.526 49.6071 231.423C50.0048 231.317 50.3959 231.264 50.7804 231.264C51.0256 231.264 51.3074 231.294 51.6255 231.354C51.947 231.41 52.2569 231.528 52.5552 231.707C52.8568 231.886 53.1071 232.156 53.3059 232.517C53.5048 232.878 53.6042 233.362 53.6042 233.969V239H52.4309V237.966H52.3713C52.2917 238.132 52.1592 238.309 51.9735 238.498C51.7879 238.687 51.541 238.848 51.2328 238.98C50.9245 239.113 50.5484 239.179 50.1042 239.179ZM50.2832 238.125C50.7472 238.125 51.1383 238.034 51.4565 237.852C51.778 237.669 52.0199 237.434 52.1824 237.146C52.3481 236.857 52.4309 236.554 52.4309 236.236V235.162C52.3812 235.222 52.2718 235.276 52.1028 235.326C51.9371 235.372 51.7449 235.414 51.5261 235.45C51.3107 235.483 51.1002 235.513 50.8947 235.54C50.6925 235.563 50.5285 235.583 50.4025 235.599C50.0976 235.639 49.8126 235.704 49.5474 235.793C49.2856 235.879 49.0734 236.01 48.911 236.186C48.752 236.358 48.6724 236.594 48.6724 236.892C48.6724 237.3 48.8232 237.608 49.1248 237.817C49.4297 238.022 49.8159 238.125 50.2832 238.125ZM56.919 228.818V239H55.7457V228.818H56.919ZM66.1078 239.159C65.3919 239.159 64.7754 238.99 64.2583 238.652C63.7413 238.314 63.3436 237.848 63.0652 237.255C62.7868 236.662 62.6475 235.984 62.6475 235.222C62.6475 234.446 62.7901 233.762 63.0751 233.168C63.3635 232.572 63.7645 232.106 64.2782 231.771C64.7953 231.433 65.3985 231.264 66.0879 231.264C66.6248 231.264 67.1087 231.364 67.5396 231.562C67.9705 231.761 68.3234 232.04 68.5985 232.398C68.8736 232.756 69.0443 233.173 69.1106 233.651H67.9373C67.8478 233.303 67.649 232.994 67.3407 232.726C67.0358 232.454 66.6248 232.318 66.1078 232.318C65.6504 232.318 65.2493 232.437 64.9047 232.676C64.5633 232.911 64.2965 233.245 64.1042 233.675C63.9153 234.103 63.8208 234.605 63.8208 235.182C63.8208 235.772 63.9136 236.286 64.0993 236.723C64.2882 237.161 64.5533 237.5 64.8947 237.742C65.2394 237.984 65.6438 238.105 66.1078 238.105C66.4127 238.105 66.6895 238.052 66.938 237.946C67.1866 237.84 67.3971 237.688 67.5694 237.489C67.7418 237.29 67.8644 237.051 67.9373 236.773H69.1106C69.0443 237.223 68.8803 237.629 68.6184 237.991C68.3599 238.349 68.0169 238.634 67.5893 238.846C67.1651 239.055 66.6712 239.159 66.1078 239.159ZM73.9281 239.159C73.2387 239.159 72.6338 238.995 72.1135 238.667C71.5964 238.339 71.1921 237.88 70.9004 237.29C70.612 236.7 70.4679 236.01 70.4679 235.222C70.4679 234.426 70.612 233.732 70.9004 233.138C71.1921 232.545 71.5964 232.085 72.1135 231.756C72.6338 231.428 73.2387 231.264 73.9281 231.264C74.6175 231.264 75.2207 231.428 75.7377 231.756C76.2581 232.085 76.6625 232.545 76.9508 233.138C77.2425 233.732 77.3883 234.426 77.3883 235.222C77.3883 236.01 77.2425 236.7 76.9508 237.29C76.6625 237.88 76.2581 238.339 75.7377 238.667C75.2207 238.995 74.6175 239.159 73.9281 239.159ZM73.9281 238.105C74.4518 238.105 74.8826 237.971 75.2207 237.702C75.5588 237.434 75.809 237.081 75.9714 236.643C76.1338 236.206 76.215 235.732 76.215 235.222C76.215 234.711 76.1338 234.236 75.9714 233.795C75.809 233.354 75.5588 232.998 75.2207 232.726C74.8826 232.454 74.4518 232.318 73.9281 232.318C73.4044 232.318 72.9735 232.454 72.6355 232.726C72.2974 232.998 72.0472 233.354 71.8848 233.795C71.7224 234.236 71.6412 234.711 71.6412 235.222C71.6412 235.732 71.7224 236.206 71.8848 236.643C72.0472 237.081 72.2974 237.434 72.6355 237.702C72.9735 237.971 73.4044 238.105 73.9281 238.105ZM80.3526 234.406V239H79.1793V231.364H80.3129V232.557H80.4123C80.5913 232.169 80.863 231.857 81.2276 231.622C81.5922 231.384 82.0629 231.264 82.6396 231.264C83.1566 231.264 83.609 231.37 83.9968 231.582C84.3846 231.791 84.6862 232.109 84.9016 232.537C85.1171 232.961 85.2248 233.498 85.2248 234.148V239H84.0515V234.227C84.0515 233.627 83.8957 233.16 83.5842 232.825C83.2726 232.487 82.8451 232.318 82.3015 232.318C81.927 232.318 81.5922 232.399 81.2972 232.562C81.0056 232.724 80.7752 232.961 80.6062 233.273C80.4371 233.584 80.3526 233.962 80.3526 234.406ZM90.7694 231.364V232.358H86.6529V231.364H90.7694ZM87.8858 239V230.31C87.8858 229.872 87.9886 229.508 88.1941 229.216C88.3996 228.924 88.6664 228.705 88.9945 228.56C89.3226 228.414 89.669 228.341 90.0336 228.341C90.3219 228.341 90.5572 228.364 90.7395 228.411C90.9218 228.457 91.0577 228.5 91.1472 228.54L90.8091 229.554C90.7495 229.534 90.6666 229.509 90.5605 229.479C90.4578 229.45 90.3219 229.435 90.1529 229.435C89.7651 229.435 89.485 229.532 89.3127 229.728C89.1436 229.924 89.0591 230.21 89.0591 230.588V239H87.8858ZM92.4137 239V231.364H93.587V239H92.4137ZM93.0103 230.091C92.7816 230.091 92.5844 230.013 92.4187 229.857C92.2563 229.701 92.1751 229.514 92.1751 229.295C92.1751 229.077 92.2563 228.889 92.4187 228.734C92.5844 228.578 92.7816 228.5 93.0103 228.5C93.239 228.5 93.4345 228.578 93.5969 228.734C93.7627 228.889 93.8455 229.077 93.8455 229.295C93.8455 229.514 93.7627 229.701 93.5969 229.857C93.4345 230.013 93.239 230.091 93.0103 230.091ZM98.6195 239.159C97.9831 239.159 97.4213 238.998 96.9341 238.677C96.4469 238.352 96.0658 237.895 95.7907 237.305C95.5156 236.711 95.378 236.01 95.378 235.202C95.378 234.4 95.5156 233.704 95.7907 233.114C96.0658 232.524 96.4486 232.068 96.9391 231.746C97.4296 231.425 97.9964 231.264 98.6394 231.264C99.1365 231.264 99.5293 231.347 99.8176 231.513C100.109 231.675 100.331 231.861 100.484 232.07C100.64 232.275 100.761 232.444 100.847 232.577H100.946V228.818H102.119V239H100.986V237.827H100.847C100.761 237.966 100.638 238.142 100.479 238.354C100.32 238.562 100.093 238.75 99.7978 238.915C99.5028 239.078 99.11 239.159 98.6195 239.159ZM98.7786 238.105C99.2492 238.105 99.647 237.982 99.9718 237.737C100.297 237.489 100.544 237.146 100.713 236.708C100.882 236.267 100.966 235.759 100.966 235.182C100.966 234.612 100.883 234.113 100.718 233.685C100.552 233.254 100.307 232.92 99.9817 232.681C99.6569 232.439 99.2559 232.318 98.7786 232.318C98.2814 232.318 97.8671 232.446 97.5357 232.701C97.2076 232.953 96.9606 233.296 96.7949 233.73C96.6325 234.161 96.5513 234.645 96.5513 235.182C96.5513 235.725 96.6342 236.219 96.7999 236.663C96.9689 237.104 97.2175 237.455 97.5456 237.717C97.8771 237.976 98.2881 238.105 98.7786 238.105ZM107.633 239.159C106.897 239.159 106.262 238.997 105.729 238.672C105.199 238.344 104.789 237.886 104.501 237.3C104.216 236.71 104.073 236.024 104.073 235.241C104.073 234.459 104.216 233.77 104.501 233.173C104.789 232.573 105.19 232.106 105.704 231.771C106.221 231.433 106.824 231.264 107.514 231.264C107.911 231.264 108.304 231.33 108.692 231.463C109.08 231.596 109.433 231.811 109.751 232.109C110.069 232.404 110.323 232.795 110.512 233.283C110.7 233.77 110.795 234.37 110.795 235.082V235.58H104.909V234.565H109.602C109.602 234.134 109.516 233.75 109.343 233.412C109.174 233.074 108.932 232.807 108.617 232.612C108.306 232.416 107.938 232.318 107.514 232.318C107.046 232.318 106.642 232.434 106.301 232.666C105.963 232.895 105.702 233.193 105.52 233.561C105.338 233.929 105.247 234.323 105.247 234.744V235.42C105.247 235.997 105.346 236.486 105.545 236.887C105.747 237.285 106.027 237.588 106.385 237.797C106.743 238.002 107.159 238.105 107.633 238.105C107.941 238.105 108.22 238.062 108.468 237.976C108.72 237.886 108.937 237.754 109.119 237.578C109.302 237.399 109.443 237.177 109.542 236.912L110.676 237.23C110.556 237.615 110.356 237.953 110.074 238.244C109.792 238.533 109.444 238.758 109.03 238.92C108.616 239.08 108.15 239.159 107.633 239.159ZM113.753 234.406V239H112.58V231.364H113.713V232.557H113.813C113.992 232.169 114.263 231.857 114.628 231.622C114.993 231.384 115.463 231.264 116.04 231.264C116.557 231.264 117.009 231.37 117.397 231.582C117.785 231.791 118.087 232.109 118.302 232.537C118.517 232.961 118.625 233.498 118.625 234.148V239H117.452V234.227C117.452 233.627 117.296 233.16 116.985 232.825C116.673 232.487 116.245 232.318 115.702 232.318C115.327 232.318 114.993 232.399 114.698 232.562C114.406 232.724 114.176 232.961 114.007 233.273C113.838 233.584 113.753 233.962 113.753 234.406ZM124.09 231.364V232.358H120.133V231.364H124.09ZM121.286 229.534H122.46V236.812C122.46 237.144 122.508 237.393 122.604 237.558C122.703 237.721 122.829 237.83 122.982 237.886C123.137 237.939 123.301 237.966 123.474 237.966C123.603 237.966 123.709 237.959 123.792 237.946C123.875 237.929 123.941 237.916 123.991 237.906L124.229 238.96C124.15 238.99 124.039 239.02 123.896 239.05C123.754 239.083 123.573 239.099 123.354 239.099C123.023 239.099 122.698 239.028 122.38 238.886C122.065 238.743 121.803 238.526 121.594 238.234C121.389 237.943 121.286 237.575 121.286 237.131V229.534ZM127.192 228.818V239H126.019V228.818H127.192ZM130.097 241.864C129.898 241.864 129.721 241.847 129.565 241.814C129.409 241.784 129.302 241.754 129.242 241.724L129.54 240.69C129.825 240.763 130.077 240.79 130.296 240.77C130.515 240.75 130.709 240.652 130.878 240.477C131.05 240.304 131.207 240.024 131.35 239.636L131.569 239.04L128.745 231.364H130.018L132.126 237.449H132.205L134.313 231.364H135.586L132.344 240.114C132.198 240.508 132.018 240.835 131.802 241.093C131.587 241.355 131.337 241.549 131.052 241.675C130.77 241.801 130.452 241.864 130.097 241.864ZM55.3089 256L52.9822 248.364H54.2151L55.8657 254.21H55.9452L57.5759 248.364H58.8287L60.4395 254.19H60.5191L62.1697 248.364H63.4026L61.0759 256H59.9225L58.252 250.134H58.1327L56.4623 256H55.3089ZM64.9537 256V248.364H66.127V256H64.9537ZM65.5503 247.091C65.3216 247.091 65.1244 247.013 64.9587 246.857C64.7963 246.701 64.7151 246.514 64.7151 246.295C64.7151 246.077 64.7963 245.889 64.9587 245.734C65.1244 245.578 65.3216 245.5 65.5503 245.5C65.779 245.5 65.9746 245.578 66.137 245.734C66.3027 245.889 66.3856 246.077 66.3856 246.295C66.3856 246.514 66.3027 246.701 66.137 246.857C65.9746 247.013 65.779 247.091 65.5503 247.091ZM71.597 248.364V249.358H67.6396V248.364H71.597ZM68.7931 246.534H69.9664V253.812C69.9664 254.144 70.0144 254.393 70.1105 254.558C70.21 254.721 70.3359 254.83 70.4884 254.886C70.6441 254.939 70.8082 254.966 70.9806 254.966C71.1098 254.966 71.2159 254.959 71.2987 254.946C71.3816 254.929 71.4479 254.916 71.4976 254.906L71.7362 255.96C71.6567 255.99 71.5457 256.02 71.4031 256.05C71.2606 256.083 71.08 256.099 70.8612 256.099C70.5298 256.099 70.205 256.028 69.8868 255.886C69.5719 255.743 69.3101 255.526 69.1013 255.234C68.8958 254.943 68.7931 254.575 68.7931 254.131V246.534ZM74.6993 251.406V256H73.526V245.818H74.6993V249.557H74.7987C74.9777 249.162 75.2462 248.849 75.6041 248.617C75.9654 248.382 76.446 248.264 77.0459 248.264C77.5663 248.264 78.022 248.369 78.4131 248.577C78.8042 248.783 79.1075 249.099 79.3229 249.527C79.5416 249.951 79.651 250.491 79.651 251.148V256H78.4777V251.227C78.4777 250.621 78.3203 250.152 78.0054 249.82C77.6939 249.486 77.2613 249.318 76.7078 249.318C76.3234 249.318 75.9787 249.399 75.6737 249.562C75.3721 249.724 75.1335 249.961 74.9578 250.273C74.7855 250.584 74.6993 250.962 74.6993 251.406ZM85.5162 256V255.105L89.8515 249.537V249.457H85.6555V248.364H91.3628V249.298L87.1469 254.827V254.906H91.502V256H85.5162ZM96.2922 256.159C95.5564 256.159 94.9217 255.997 94.3881 255.672C93.8577 255.344 93.4484 254.886 93.1601 254.3C92.875 253.71 92.7325 253.024 92.7325 252.241C92.7325 251.459 92.875 250.77 93.1601 250.173C93.4484 249.573 93.8495 249.106 94.3632 248.771C94.8802 248.433 95.4835 248.264 96.1729 248.264C96.5706 248.264 96.9633 248.33 97.3511 248.463C97.7389 248.596 98.0919 248.811 98.4101 249.109C98.7282 249.404 98.9818 249.795 99.1707 250.283C99.3596 250.77 99.4541 251.37 99.4541 252.082V252.58H93.5677V251.565H98.2609C98.2609 251.134 98.1747 250.75 98.0024 250.412C97.8334 250.074 97.5914 249.807 97.2765 249.612C96.965 249.416 96.5971 249.318 96.1729 249.318C95.7055 249.318 95.3012 249.434 94.9598 249.666C94.6217 249.895 94.3615 250.193 94.1792 250.561C93.997 250.929 93.9058 251.323 93.9058 251.744V252.42C93.9058 252.997 94.0052 253.486 94.2041 253.887C94.4063 254.285 94.6863 254.588 95.0443 254.797C95.4023 255.002 95.8182 255.105 96.2922 255.105C96.6004 255.105 96.8788 255.062 97.1274 254.976C97.3793 254.886 97.5964 254.754 97.7787 254.578C97.961 254.399 98.1018 254.177 98.2013 253.912L99.3348 254.23C99.2155 254.615 99.0149 254.953 98.7332 255.244C98.4515 255.533 98.1035 255.758 97.6892 255.92C97.2749 256.08 96.8092 256.159 96.2922 256.159ZM101.239 256V248.364H102.372V249.517H102.452C102.591 249.139 102.843 248.833 103.208 248.597C103.572 248.362 103.983 248.244 104.441 248.244C104.527 248.244 104.634 248.246 104.764 248.249C104.893 248.253 104.991 248.258 105.057 248.264V249.457C105.017 249.447 104.926 249.433 104.784 249.413C104.644 249.389 104.497 249.378 104.341 249.378C103.97 249.378 103.639 249.456 103.347 249.612C103.059 249.764 102.83 249.976 102.661 250.248C102.495 250.516 102.412 250.823 102.412 251.168V256H101.239ZM109.318 256.159C108.628 256.159 108.023 255.995 107.503 255.667C106.986 255.339 106.582 254.88 106.29 254.29C106.002 253.7 105.858 253.01 105.858 252.222C105.858 251.426 106.002 250.732 106.29 250.138C106.582 249.545 106.986 249.085 107.503 248.756C108.023 248.428 108.628 248.264 109.318 248.264C110.007 248.264 110.61 248.428 111.127 248.756C111.648 249.085 112.052 249.545 112.34 250.138C112.632 250.732 112.778 251.426 112.778 252.222C112.778 253.01 112.632 253.7 112.34 254.29C112.052 254.88 111.648 255.339 111.127 255.667C110.61 255.995 110.007 256.159 109.318 256.159ZM109.318 255.105C109.841 255.105 110.272 254.971 110.61 254.702C110.948 254.434 111.199 254.081 111.361 253.643C111.523 253.206 111.605 252.732 111.605 252.222C111.605 251.711 111.523 251.236 111.361 250.795C111.199 250.354 110.948 249.998 110.61 249.726C110.272 249.454 109.841 249.318 109.318 249.318C108.794 249.318 108.363 249.454 108.025 249.726C107.687 249.998 107.437 250.354 107.274 250.795C107.112 251.236 107.031 251.711 107.031 252.222C107.031 252.732 107.112 253.206 107.274 253.643C107.437 254.081 107.687 254.434 108.025 254.702C108.363 254.971 108.794 255.105 109.318 255.105ZM36.2515 273V262.818H37.4248V266.577H37.5242C37.6104 266.444 37.7297 266.275 37.8822 266.07C38.038 265.861 38.26 265.675 38.5484 265.513C38.8401 265.347 39.2345 265.264 39.7316 265.264C40.3746 265.264 40.9414 265.425 41.4319 265.746C41.9224 266.068 42.3053 266.524 42.5803 267.114C42.8554 267.704 42.993 268.4 42.993 269.202C42.993 270.01 42.8554 270.711 42.5803 271.305C42.3053 271.895 41.9241 272.352 41.4369 272.677C40.9497 272.998 40.3879 273.159 39.7515 273.159C39.261 273.159 38.8682 273.078 38.5732 272.915C38.2783 272.75 38.0512 272.562 37.8921 272.354C37.733 272.142 37.6104 271.966 37.5242 271.827H37.385V273H36.2515ZM37.4049 269.182C37.4049 269.759 37.4894 270.267 37.6585 270.708C37.8275 271.146 38.0744 271.489 38.3992 271.737C38.724 271.982 39.1218 272.105 39.5924 272.105C40.0829 272.105 40.4923 271.976 40.8204 271.717C41.1518 271.455 41.4004 271.104 41.5661 270.663C41.7352 270.219 41.8197 269.725 41.8197 269.182C41.8197 268.645 41.7368 268.161 41.5711 267.73C41.4087 267.296 41.1618 266.953 40.8303 266.701C40.5022 266.446 40.0896 266.318 39.5924 266.318C39.1151 266.318 38.7141 266.439 38.3893 266.681C38.0645 266.92 37.8192 267.254 37.6535 267.685C37.4878 268.113 37.4049 268.612 37.4049 269.182ZM44.7877 273V265.364H45.9213V266.517H46.0008C46.14 266.139 46.3919 265.833 46.7565 265.597C47.1211 265.362 47.532 265.244 47.9894 265.244C48.0756 265.244 48.1833 265.246 48.3126 265.249C48.4419 265.253 48.5396 265.258 48.6059 265.264V266.457C48.5661 266.447 48.475 266.433 48.3325 266.413C48.1933 266.389 48.0458 266.378 47.89 266.378C47.5188 266.378 47.1874 266.456 46.8957 266.612C46.6073 266.764 46.3786 266.976 46.2096 267.248C46.0439 267.516 45.961 267.823 45.961 268.168V273H44.7877ZM52.8666 273.159C52.1772 273.159 51.5723 272.995 51.0519 272.667C50.5349 272.339 50.1305 271.88 49.8389 271.29C49.5505 270.7 49.4063 270.01 49.4063 269.222C49.4063 268.426 49.5505 267.732 49.8389 267.138C50.1305 266.545 50.5349 266.085 51.0519 265.756C51.5723 265.428 52.1772 265.264 52.8666 265.264C53.556 265.264 54.1592 265.428 54.6762 265.756C55.1966 266.085 55.6009 266.545 55.8893 267.138C56.181 267.732 56.3268 268.426 56.3268 269.222C56.3268 270.01 56.181 270.7 55.8893 271.29C55.6009 271.88 55.1966 272.339 54.6762 272.667C54.1592 272.995 53.556 273.159 52.8666 273.159ZM52.8666 272.105C53.3902 272.105 53.8211 271.971 54.1592 271.702C54.4972 271.434 54.7475 271.081 54.9099 270.643C55.0723 270.206 55.1535 269.732 55.1535 269.222C55.1535 268.711 55.0723 268.236 54.9099 267.795C54.7475 267.354 54.4972 266.998 54.1592 266.726C53.8211 266.454 53.3902 266.318 52.8666 266.318C52.3429 266.318 51.912 266.454 51.574 266.726C51.2359 266.998 50.9856 267.354 50.8232 267.795C50.6608 268.236 50.5796 268.711 50.5796 269.222C50.5796 269.732 50.6608 270.206 50.8232 270.643C50.9856 271.081 51.2359 271.434 51.574 271.702C51.912 271.971 52.3429 272.105 52.8666 272.105ZM59.2116 270.216L59.1917 268.764H59.4303L62.7712 265.364H64.2229L60.6633 268.963H60.5638L59.2116 270.216ZM58.1178 273V262.818H59.2911V273H58.1178ZM62.9701 273L59.9871 269.222L60.8224 268.406L64.4616 273H62.9701ZM68.6203 273.159C67.8845 273.159 67.2498 272.997 66.7162 272.672C66.1859 272.344 65.7765 271.886 65.4882 271.3C65.2032 270.71 65.0606 270.024 65.0606 269.241C65.0606 268.459 65.2032 267.77 65.4882 267.173C65.7765 266.573 66.1776 266.106 66.6913 265.771C67.2084 265.433 67.8116 265.264 68.501 265.264C68.8987 265.264 69.2915 265.33 69.6792 265.463C70.067 265.596 70.42 265.811 70.7382 266.109C71.0564 266.404 71.3099 266.795 71.4988 267.283C71.6878 267.77 71.7822 268.37 71.7822 269.082V269.58H65.8959V268.565H70.589C70.589 268.134 70.5029 267.75 70.3305 267.412C70.1615 267.074 69.9195 266.807 69.6047 266.612C69.2931 266.416 68.9252 266.318 68.501 266.318C68.0336 266.318 67.6293 266.434 67.2879 266.666C66.9498 266.895 66.6897 267.193 66.5074 267.561C66.3251 267.929 66.2339 268.323 66.2339 268.744V269.42C66.2339 269.997 66.3334 270.486 66.5322 270.887C66.7344 271.285 67.0145 271.588 67.3724 271.797C67.7304 272.002 68.1463 272.105 68.6203 272.105C68.9285 272.105 69.2069 272.062 69.4555 271.976C69.7074 271.886 69.9245 271.754 70.1068 271.578C70.2891 271.399 70.43 271.177 70.5294 270.912L71.6629 271.23C71.5436 271.615 71.3431 271.953 71.0613 272.244C70.7796 272.533 70.4316 272.758 70.0173 272.92C69.603 273.08 69.1373 273.159 68.6203 273.159ZM73.567 273V265.364H74.7006V266.517H74.7801C74.9193 266.139 75.1712 265.833 75.5358 265.597C75.9004 265.362 76.3113 265.244 76.7687 265.244C76.8549 265.244 76.9626 265.246 77.0919 265.249C77.2211 265.253 77.3189 265.258 77.3852 265.264V266.457C77.3454 266.447 77.2543 266.433 77.1118 266.413C76.9726 266.389 76.8251 266.378 76.6693 266.378C76.2981 266.378 75.9666 266.456 75.675 266.612C75.3866 266.764 75.1579 266.976 74.9889 267.248C74.8232 267.516 74.7403 267.823 74.7403 268.168V273H73.567ZM81.0232 273.179C80.5393 273.179 80.1001 273.088 79.7057 272.906C79.3113 272.72 78.9981 272.453 78.7661 272.105C78.5341 271.754 78.4181 271.33 78.4181 270.832C78.4181 270.395 78.5042 270.04 78.6766 269.768C78.8489 269.493 79.0793 269.278 79.3676 269.122C79.656 268.966 79.9742 268.85 80.3222 268.774C80.6735 268.695 81.0265 268.632 81.3811 268.585C81.8451 268.526 82.2213 268.481 82.5097 268.451C82.8013 268.418 83.0135 268.363 83.146 268.287C83.2819 268.211 83.3499 268.078 83.3499 267.889V267.849C83.3499 267.359 83.2156 266.978 82.9472 266.706C82.682 266.434 82.2793 266.298 81.7391 266.298C81.1789 266.298 80.7398 266.421 80.4216 266.666C80.1034 266.911 79.8797 267.173 79.7504 267.452L78.6368 267.054C78.8357 266.59 79.1008 266.229 79.4323 265.97C79.767 265.708 80.1316 265.526 80.526 265.423C80.9237 265.317 81.3148 265.264 81.6993 265.264C81.9446 265.264 82.2263 265.294 82.5445 265.354C82.866 265.41 83.1759 265.528 83.4742 265.707C83.7758 265.886 84.026 266.156 84.2249 266.517C84.4237 266.878 84.5232 267.362 84.5232 267.969V273H83.3499V271.966H83.2902C83.2107 272.132 83.0781 272.309 82.8925 272.498C82.7069 272.687 82.46 272.848 82.1517 272.98C81.8435 273.113 81.4673 273.179 81.0232 273.179ZM81.2021 272.125C81.6662 272.125 82.0573 272.034 82.3754 271.852C82.6969 271.669 82.9389 271.434 83.1013 271.146C83.267 270.857 83.3499 270.554 83.3499 270.236V269.162C83.3002 269.222 83.1908 269.276 83.0218 269.326C82.856 269.372 82.6638 269.414 82.445 269.45C82.2296 269.483 82.0191 269.513 81.8137 269.54C81.6115 269.563 81.4474 269.583 81.3215 269.599C81.0165 269.639 80.7315 269.704 80.4664 269.793C80.2045 269.879 79.9924 270.01 79.83 270.186C79.6709 270.358 79.5914 270.594 79.5914 270.892C79.5914 271.3 79.7422 271.608 80.0438 271.817C80.3487 272.022 80.7348 272.125 81.2021 272.125ZM89.7471 276.023C89.1803 276.023 88.6931 275.95 88.2854 275.804C87.8778 275.661 87.538 275.473 87.2662 275.237C86.9978 275.005 86.784 274.757 86.6249 274.491L87.5596 273.835C87.6656 273.974 87.7999 274.134 87.9623 274.312C88.1247 274.495 88.3467 274.652 88.6285 274.785C88.9135 274.921 89.2864 274.989 89.7471 274.989C90.3635 274.989 90.8723 274.839 91.2733 274.541C91.6744 274.243 91.8749 273.776 91.8749 273.139V271.588H91.7755C91.6893 271.727 91.5667 271.9 91.4076 272.105C91.2518 272.307 91.0264 272.488 90.7314 272.647C90.4398 272.803 90.0454 272.881 89.5482 272.881C88.9317 272.881 88.3782 272.735 87.8877 272.443C87.4005 272.152 87.0144 271.727 86.7293 271.17C86.4476 270.614 86.3067 269.937 86.3067 269.142C86.3067 268.36 86.4443 267.679 86.7194 267.099C86.9945 266.515 87.3773 266.065 87.8678 265.746C88.3583 265.425 88.9251 265.264 89.5681 265.264C90.0653 265.264 90.4597 265.347 90.7513 265.513C91.0463 265.675 91.2717 265.861 91.4275 266.07C91.5866 266.275 91.7092 266.444 91.7954 266.577H91.9147V265.364H93.0482V273.219C93.0482 273.875 92.8991 274.409 92.6008 274.82C92.3058 275.234 91.9081 275.537 91.4076 275.729C90.9104 275.925 90.3569 276.023 89.7471 276.023ZM89.7073 271.827C90.1779 271.827 90.5757 271.719 90.9005 271.504C91.2253 271.288 91.4722 270.978 91.6412 270.574C91.8103 270.17 91.8948 269.686 91.8948 269.122C91.8948 268.572 91.8119 268.086 91.6462 267.665C91.4805 267.245 91.2352 266.915 90.9104 266.676C90.5856 266.437 90.1846 266.318 89.7073 266.318C89.2101 266.318 88.7958 266.444 88.4644 266.696C88.1363 266.948 87.8894 267.286 87.7236 267.71C87.5612 268.134 87.48 268.605 87.48 269.122C87.48 269.652 87.5629 270.121 87.7286 270.529C87.8976 270.933 88.1462 271.252 88.4743 271.484C88.8058 271.712 89.2168 271.827 89.7073 271.827ZM98.3976 273.159C97.6618 273.159 97.0271 272.997 96.4935 272.672C95.9632 272.344 95.5539 271.886 95.2655 271.3C94.9805 270.71 94.838 270.024 94.838 269.241C94.838 268.459 94.9805 267.77 95.2655 267.173C95.5539 266.573 95.9549 266.106 96.4687 265.771C96.9857 265.433 97.5889 265.264 98.2783 265.264C98.676 265.264 99.0688 265.33 99.4566 265.463C99.8444 265.596 100.197 265.811 100.516 266.109C100.834 266.404 101.087 266.795 101.276 267.283C101.465 267.77 101.56 268.37 101.56 269.082V269.58H95.6732V268.565H100.366C100.366 268.134 100.28 267.75 100.108 267.412C99.9388 267.074 99.6969 266.807 99.382 266.612C99.0705 266.416 98.7026 266.318 98.2783 266.318C97.811 266.318 97.4066 266.434 97.0653 266.666C96.7272 266.895 96.467 267.193 96.2847 267.561C96.1024 267.929 96.0113 268.323 96.0113 268.744V269.42C96.0113 269.997 96.1107 270.486 96.3096 270.887C96.5117 271.285 96.7918 271.588 97.1498 271.797C97.5077 272.002 97.9237 272.105 98.3976 272.105C98.7059 272.105 98.9843 272.062 99.2329 271.976C99.4848 271.886 99.7019 271.754 99.8841 271.578C100.066 271.399 100.207 271.177 100.307 270.912L101.44 271.23C101.321 271.615 101.12 271.953 100.839 272.244C100.557 272.533 100.209 272.758 99.7947 272.92C99.3804 273.08 98.9147 273.159 98.3976 273.159ZM109.529 273.179C109.045 273.179 108.606 273.088 108.212 272.906C107.817 272.72 107.504 272.453 107.272 272.105C107.04 271.754 106.924 271.33 106.924 270.832C106.924 270.395 107.01 270.04 107.182 269.768C107.355 269.493 107.585 269.278 107.873 269.122C108.162 268.966 108.48 268.85 108.828 268.774C109.179 268.695 109.532 268.632 109.887 268.585C110.351 268.526 110.727 268.481 111.016 268.451C111.307 268.418 111.519 268.363 111.652 268.287C111.788 268.211 111.856 268.078 111.856 267.889V267.849C111.856 267.359 111.722 266.978 111.453 266.706C111.188 266.434 110.785 266.298 110.245 266.298C109.685 266.298 109.246 266.421 108.927 266.666C108.609 266.911 108.386 267.173 108.256 267.452L107.143 267.054C107.342 266.59 107.607 266.229 107.938 265.97C108.273 265.708 108.637 265.526 109.032 265.423C109.43 265.317 109.821 265.264 110.205 265.264C110.45 265.264 110.732 265.294 111.05 265.354C111.372 265.41 111.682 265.528 111.98 265.707C112.282 265.886 112.532 266.156 112.731 266.517C112.93 266.878 113.029 267.362 113.029 267.969V273H111.856V271.966H111.796C111.717 272.132 111.584 272.309 111.398 272.498C111.213 272.687 110.966 272.848 110.658 272.98C110.349 273.113 109.973 273.179 109.529 273.179ZM109.708 272.125C110.172 272.125 110.563 272.034 110.881 271.852C111.203 271.669 111.445 271.434 111.607 271.146C111.773 270.857 111.856 270.554 111.856 270.236V269.162C111.806 269.222 111.697 269.276 111.528 269.326C111.362 269.372 111.17 269.414 110.951 269.45C110.735 269.483 110.525 269.513 110.32 269.54C110.117 269.563 109.953 269.583 109.827 269.599C109.522 269.639 109.237 269.704 108.972 269.793C108.71 269.879 108.498 270.01 108.336 270.186C108.177 270.358 108.097 270.594 108.097 270.892C108.097 271.3 108.248 271.608 108.55 271.817C108.855 272.022 109.241 272.125 109.708 272.125ZM116.344 268.406V273H115.171V265.364H116.304V266.557H116.403C116.582 266.169 116.854 265.857 117.219 265.622C117.583 265.384 118.054 265.264 118.631 265.264C119.148 265.264 119.6 265.37 119.988 265.582C120.376 265.791 120.677 266.109 120.893 266.537C121.108 266.961 121.216 267.498 121.216 268.148V273H120.043V268.227C120.043 267.627 119.887 267.16 119.575 266.825C119.264 266.487 118.836 266.318 118.293 266.318C117.918 266.318 117.583 266.399 117.288 266.562C116.997 266.724 116.766 266.961 116.597 267.273C116.428 267.584 116.344 267.962 116.344 268.406ZM126.244 273.159C125.607 273.159 125.045 272.998 124.558 272.677C124.071 272.352 123.69 271.895 123.415 271.305C123.14 270.711 123.002 270.01 123.002 269.202C123.002 268.4 123.14 267.704 123.415 267.114C123.69 266.524 124.073 266.068 124.563 265.746C125.054 265.425 125.62 265.264 126.263 265.264C126.761 265.264 127.153 265.347 127.442 265.513C127.733 265.675 127.955 265.861 128.108 266.07C128.264 266.275 128.385 266.444 128.471 266.577H128.57V262.818H129.744V273H128.61V271.827H128.471C128.385 271.966 128.262 272.142 128.103 272.354C127.944 272.562 127.717 272.75 127.422 272.915C127.127 273.078 126.734 273.159 126.244 273.159ZM126.403 272.105C126.873 272.105 127.271 271.982 127.596 271.737C127.921 271.489 128.168 271.146 128.337 270.708C128.506 270.267 128.59 269.759 128.59 269.182C128.59 268.612 128.507 268.113 128.342 267.685C128.176 267.254 127.931 266.92 127.606 266.681C127.281 266.439 126.88 266.318 126.403 266.318C125.905 266.318 125.491 266.446 125.16 266.701C124.832 266.953 124.585 267.296 124.419 267.73C124.257 268.161 124.175 268.645 124.175 269.182C124.175 269.725 124.258 270.219 124.424 270.663C124.593 271.104 124.842 271.455 125.17 271.717C125.501 271.976 125.912 272.105 126.403 272.105ZM52.3688 290V282.364H53.5023V283.557H53.6017C53.7608 283.149 54.0177 282.833 54.3723 282.607C54.727 282.379 55.1529 282.264 55.65 282.264C56.1538 282.264 56.5731 282.379 56.9078 282.607C57.2459 282.833 57.5094 283.149 57.6983 283.557H57.7779C57.9734 283.162 58.2667 282.849 58.6578 282.617C59.0489 282.382 59.5179 282.264 60.0648 282.264C60.7476 282.264 61.306 282.478 61.7402 282.906C62.1744 283.33 62.3915 283.991 62.3915 284.889V290H61.2182V284.889C61.2182 284.326 61.0641 283.923 60.7559 283.681C60.4476 283.439 60.0847 283.318 59.6671 283.318C59.1301 283.318 58.7142 283.481 58.4192 283.805C58.1242 284.127 57.9767 284.535 57.9767 285.028V290H56.7836V284.77C56.7836 284.336 56.6427 283.986 56.361 283.721C56.0792 283.452 55.7163 283.318 55.2722 283.318C54.9673 283.318 54.6822 283.399 54.4171 283.562C54.1552 283.724 53.9431 283.95 53.7807 284.238C53.6216 284.523 53.5421 284.853 53.5421 285.227V290H52.3688ZM66.7839 290.179C66.3 290.179 65.8609 290.088 65.4664 289.906C65.072 289.72 64.7588 289.453 64.5268 289.105C64.2948 288.754 64.1788 288.33 64.1788 287.832C64.1788 287.395 64.265 287.04 64.4373 286.768C64.6097 286.493 64.84 286.278 65.1284 286.122C65.4167 285.966 65.7349 285.85 66.0829 285.774C66.4342 285.695 66.7872 285.632 67.1419 285.585C67.6059 285.526 67.9821 285.481 68.2704 285.451C68.5621 285.418 68.7742 285.363 68.9068 285.287C69.0427 285.211 69.1106 285.078 69.1106 284.889V284.849C69.1106 284.359 68.9764 283.978 68.7079 283.706C68.4428 283.434 68.0401 283.298 67.4998 283.298C66.9397 283.298 66.5005 283.421 66.1824 283.666C65.8642 283.911 65.6404 284.173 65.5112 284.452L64.3975 284.054C64.5964 283.59 64.8616 283.229 65.193 282.97C65.5278 282.708 65.8923 282.526 66.2868 282.423C66.6845 282.317 67.0756 282.264 67.46 282.264C67.7053 282.264 67.987 282.294 68.3052 282.354C68.6267 282.41 68.9366 282.528 69.2349 282.707C69.5365 282.886 69.7868 283.156 69.9856 283.517C70.1845 283.878 70.2839 284.362 70.2839 284.969V290H69.1106V288.966H69.051C68.9714 289.132 68.8388 289.309 68.6532 289.498C68.4676 289.687 68.2207 289.848 67.9125 289.98C67.6042 290.113 67.228 290.179 66.7839 290.179ZM66.9629 289.125C67.4269 289.125 67.818 289.034 68.1362 288.852C68.4577 288.669 68.6996 288.434 68.862 288.146C69.0278 287.857 69.1106 287.554 69.1106 287.236V286.162C69.0609 286.222 68.9515 286.276 68.7825 286.326C68.6168 286.372 68.4245 286.414 68.2058 286.45C67.9904 286.483 67.7799 286.513 67.5744 286.54C67.3722 286.563 67.2082 286.583 67.0822 286.599C66.7773 286.639 66.4922 286.704 66.2271 286.793C65.9653 286.879 65.7531 287.01 65.5907 287.186C65.4316 287.358 65.3521 287.594 65.3521 287.892C65.3521 288.3 65.5029 288.608 65.8045 288.817C66.1094 289.022 66.4956 289.125 66.9629 289.125ZM73.3004 282.364L75.13 285.486L76.9595 282.364H78.3118L75.8459 286.182L78.3118 290H76.9595L75.13 287.037L73.3004 290H71.9482L74.3743 286.182L71.9482 282.364H73.3004ZM79.986 290V282.364H81.1593V290H79.986ZM80.5826 281.091C80.3539 281.091 80.1567 281.013 79.9909 280.857C79.8285 280.701 79.7473 280.514 79.7473 280.295C79.7473 280.077 79.8285 279.889 79.9909 279.734C80.1567 279.578 80.3539 279.5 80.5826 279.5C80.8113 279.5 81.0068 279.578 81.1692 279.734C81.3349 279.889 81.4178 280.077 81.4178 280.295C81.4178 280.514 81.3349 280.701 81.1692 280.857C81.0068 281.013 80.8113 281.091 80.5826 281.091ZM83.3082 290V282.364H84.4418V283.557H84.5412C84.7003 283.149 84.9571 282.833 85.3118 282.607C85.6664 282.379 86.0923 282.264 86.5895 282.264C87.0933 282.264 87.5125 282.379 87.8473 282.607C88.1854 282.833 88.4489 283.149 88.6378 283.557H88.7173C88.9129 283.162 89.2062 282.849 89.5973 282.617C89.9884 282.382 90.4574 282.264 91.0043 282.264C91.687 282.264 92.2455 282.478 92.6797 282.906C93.1139 283.33 93.331 283.991 93.331 284.889V290H92.1577V284.889C92.1577 284.326 92.0036 283.923 91.6953 283.681C91.3871 283.439 91.0241 283.318 90.6065 283.318C90.0696 283.318 89.6536 283.481 89.3587 283.805C89.0637 284.127 88.9162 284.535 88.9162 285.028V290H87.723V284.77C87.723 284.336 87.5821 283.986 87.3004 283.721C87.0187 283.452 86.6558 283.318 86.2116 283.318C85.9067 283.318 85.6217 283.399 85.3565 283.562C85.0947 283.724 84.8826 283.95 84.7202 284.238C84.5611 284.523 84.4815 284.853 84.4815 285.227V290H83.3082ZM100.289 286.878V282.364H101.462V290H100.289V288.707H100.209C100.03 289.095 99.7518 289.425 99.3739 289.697C98.9961 289.965 98.5188 290.099 97.9421 290.099C97.4648 290.099 97.0406 289.995 96.6694 289.786C96.2982 289.574 96.0065 289.256 95.7944 288.832C95.5823 288.404 95.4762 287.866 95.4762 287.216V282.364H96.6495V287.136C96.6495 287.693 96.8053 288.137 97.1168 288.469C97.4317 288.8 97.8327 288.966 98.32 288.966C98.6116 288.966 98.9083 288.891 99.2099 288.742C99.5148 288.593 99.77 288.364 99.9755 288.056C100.184 287.748 100.289 287.355 100.289 286.878ZM103.611 290V282.364H104.744V283.557H104.844C105.003 283.149 105.26 282.833 105.615 282.607C105.969 282.379 106.395 282.264 106.892 282.264C107.396 282.264 107.815 282.379 108.15 282.607C108.488 282.833 108.752 283.149 108.941 283.557H109.02C109.216 283.162 109.509 282.849 109.9 282.617C110.291 282.382 110.76 282.264 111.307 282.264C111.99 282.264 112.548 282.478 112.982 282.906C113.417 283.33 113.634 283.991 113.634 284.889V290H112.46V284.889C112.46 284.326 112.306 283.923 111.998 283.681C111.69 283.439 111.327 283.318 110.909 283.318C110.372 283.318 109.956 283.481 109.661 283.805C109.366 284.127 109.219 284.535 109.219 285.028V290H108.026V284.77C108.026 284.336 107.885 283.986 107.603 283.721C107.321 283.452 106.959 283.318 106.514 283.318C106.209 283.318 105.924 283.399 105.659 283.562C105.397 283.724 105.185 283.95 105.023 284.238C104.864 284.523 104.784 284.853 104.784 285.227V290H103.611ZM62.5152 301.074L61.4612 301.372C61.3949 301.196 61.2971 301.026 61.1679 300.86C61.0419 300.691 60.8696 300.552 60.6508 300.442C60.4321 300.333 60.152 300.278 59.8106 300.278C59.3433 300.278 58.9539 300.386 58.6423 300.602C58.3341 300.814 58.18 301.084 58.18 301.412C58.18 301.704 58.286 301.934 58.4981 302.103C58.7103 302.272 59.0417 302.413 59.4925 302.526L60.626 302.804C61.3087 302.97 61.8175 303.223 62.1523 303.565C62.487 303.903 62.6544 304.339 62.6544 304.872C62.6544 305.31 62.5284 305.701 62.2765 306.045C62.028 306.39 61.68 306.662 61.2325 306.861C60.7851 307.06 60.2647 307.159 59.6714 307.159C58.8925 307.159 58.2479 306.99 57.7375 306.652C57.2271 306.314 56.9039 305.82 56.768 305.17L57.8817 304.892C57.9877 305.303 58.1882 305.611 58.4832 305.817C58.7815 306.022 59.171 306.125 59.6515 306.125C60.1984 306.125 60.6326 306.009 60.9541 305.777C61.2789 305.542 61.4413 305.26 61.4413 304.932C61.4413 304.667 61.3485 304.445 61.1629 304.266C60.9773 304.083 60.6923 303.947 60.3078 303.858L59.0351 303.56C58.3357 303.394 57.822 303.137 57.4939 302.789C57.1691 302.438 57.0067 301.999 57.0067 301.472C57.0067 301.041 57.1276 300.66 57.3696 300.328C57.6148 299.997 57.9479 299.737 58.3689 299.548C58.7931 299.359 59.2737 299.264 59.8106 299.264C60.5663 299.264 61.1596 299.43 61.5905 299.761C62.0247 300.093 62.3329 300.53 62.5152 301.074ZM66.6677 307.179C66.1838 307.179 65.7446 307.088 65.3502 306.906C64.9558 306.72 64.6426 306.453 64.4106 306.105C64.1786 305.754 64.0626 305.33 64.0626 304.832C64.0626 304.395 64.1488 304.04 64.3211 303.768C64.4935 303.493 64.7238 303.278 65.0122 303.122C65.3005 302.966 65.6187 302.85 65.9667 302.774C66.318 302.695 66.671 302.632 67.0257 302.585C67.4897 302.526 67.8659 302.481 68.1542 302.451C68.4459 302.418 68.658 302.363 68.7906 302.287C68.9265 302.211 68.9944 302.078 68.9944 301.889V301.849C68.9944 301.359 68.8602 300.978 68.5917 300.706C68.3266 300.434 67.9239 300.298 67.3836 300.298C66.8235 300.298 66.3843 300.421 66.0661 300.666C65.748 300.911 65.5242 301.173 65.395 301.452L64.2813 301.054C64.4802 300.59 64.7454 300.229 65.0768 299.97C65.4115 299.708 65.7761 299.526 66.1705 299.423C66.5683 299.317 66.9594 299.264 67.3438 299.264C67.5891 299.264 67.8708 299.294 68.189 299.354C68.5105 299.41 68.8204 299.528 69.1187 299.707C69.4203 299.886 69.6705 300.156 69.8694 300.517C70.0683 300.878 70.1677 301.362 70.1677 301.969V307H68.9944V305.966H68.9347C68.8552 306.132 68.7226 306.309 68.537 306.498C68.3514 306.687 68.1045 306.848 67.7963 306.98C67.488 307.113 67.1118 307.179 66.6677 307.179ZM66.8467 306.125C67.3107 306.125 67.7018 306.034 68.02 305.852C68.3415 305.669 68.5834 305.434 68.7458 305.146C68.9115 304.857 68.9944 304.554 68.9944 304.236V303.162C68.9447 303.222 68.8353 303.276 68.6663 303.326C68.5006 303.372 68.3083 303.414 68.0896 303.45C67.8741 303.483 67.6637 303.513 67.4582 303.54C67.256 303.563 67.0919 303.583 66.966 303.599C66.6611 303.639 66.376 303.704 66.1109 303.793C65.849 303.879 65.6369 304.01 65.4745 304.186C65.3154 304.358 65.2359 304.594 65.2359 304.892C65.2359 305.3 65.3867 305.608 65.6883 305.817C65.9932 306.022 66.3794 306.125 66.8467 306.125ZM78.2801 299.364L75.4562 307H74.2631L71.4392 299.364H72.7119L74.8199 305.449H74.8994L77.0074 299.364H78.2801ZM79.8287 307V299.364H81.002V307H79.8287ZM80.4253 298.091C80.1966 298.091 79.9994 298.013 79.8337 297.857C79.6713 297.701 79.5901 297.514 79.5901 297.295C79.5901 297.077 79.6713 296.889 79.8337 296.734C79.9994 296.578 80.1966 296.5 80.4253 296.5C80.654 296.5 80.8496 296.578 81.012 296.734C81.1777 296.889 81.2606 297.077 81.2606 297.295C81.2606 297.514 81.1777 297.701 81.012 297.857C80.8496 298.013 80.654 298.091 80.4253 298.091ZM84.3243 302.406V307H83.151V299.364H84.2845V300.557H84.384C84.5629 300.169 84.8347 299.857 85.1993 299.622C85.5639 299.384 86.0345 299.264 86.6112 299.264C87.1283 299.264 87.5807 299.37 87.9685 299.582C88.3563 299.791 88.6579 300.109 88.8733 300.537C89.0887 300.961 89.1965 301.498 89.1965 302.148V307H88.0232V302.227C88.0232 301.627 87.8674 301.16 87.5558 300.825C87.2443 300.487 86.8167 300.318 86.2732 300.318C85.8986 300.318 85.5639 300.399 85.2689 300.562C84.9772 300.724 84.7469 300.961 84.5779 301.273C84.4088 301.584 84.3243 301.962 84.3243 302.406ZM94.4229 310.023C93.8561 310.023 93.3689 309.95 92.9612 309.804C92.5535 309.661 92.2138 309.473 91.942 309.237C91.6736 309.005 91.4598 308.757 91.3007 308.491L92.2354 307.835C92.3414 307.974 92.4756 308.134 92.6381 308.312C92.8005 308.495 93.0225 308.652 93.3042 308.785C93.5893 308.921 93.9622 308.989 94.4229 308.989C95.0393 308.989 95.5481 308.839 95.9491 308.541C96.3502 308.243 96.5507 307.776 96.5507 307.139V305.588H96.4513C96.3651 305.727 96.2425 305.9 96.0834 306.105C95.9276 306.307 95.7022 306.488 95.4072 306.647C95.1156 306.803 94.7211 306.881 94.224 306.881C93.6075 306.881 93.054 306.735 92.5635 306.443C92.0763 306.152 91.6901 305.727 91.4051 305.17C91.1234 304.614 90.9825 303.937 90.9825 303.142C90.9825 302.36 91.1201 301.679 91.3952 301.099C91.6702 300.515 92.0531 300.065 92.5436 299.746C93.0341 299.425 93.6009 299.264 94.2439 299.264C94.741 299.264 95.1354 299.347 95.4271 299.513C95.7221 299.675 95.9475 299.861 96.1032 300.07C96.2623 300.275 96.385 300.444 96.4711 300.577H96.5905V299.364H97.724V307.219C97.724 307.875 97.5748 308.409 97.2765 308.82C96.9816 309.234 96.5838 309.537 96.0834 309.729C95.5862 309.925 95.0327 310.023 94.4229 310.023ZM94.3831 305.827C94.8537 305.827 95.2515 305.719 95.5763 305.504C95.9011 305.288 96.148 304.978 96.317 304.574C96.4861 304.17 96.5706 303.686 96.5706 303.122C96.5706 302.572 96.4877 302.086 96.322 301.665C96.1563 301.245 95.911 300.915 95.5862 300.676C95.2614 300.437 94.8604 300.318 94.3831 300.318C93.8859 300.318 93.4716 300.444 93.1402 300.696C92.8121 300.948 92.5651 301.286 92.3994 301.71C92.237 302.134 92.1558 302.605 92.1558 303.122C92.1558 303.652 92.2387 304.121 92.4044 304.529C92.5734 304.933 92.822 305.252 93.1501 305.484C93.4816 305.712 93.8925 305.827 94.3831 305.827ZM105.281 301.074L104.227 301.372C104.161 301.196 104.063 301.026 103.934 300.86C103.808 300.691 103.635 300.552 103.416 300.442C103.198 300.333 102.918 300.278 102.576 300.278C102.109 300.278 101.719 300.386 101.408 300.602C101.1 300.814 100.946 301.084 100.946 301.412C100.946 301.704 101.052 301.934 101.264 302.103C101.476 302.272 101.807 302.413 102.258 302.526L103.392 302.804C104.074 302.97 104.583 303.223 104.918 303.565C105.253 303.903 105.42 304.339 105.42 304.872C105.42 305.31 105.294 305.701 105.042 306.045C104.794 306.39 104.446 306.662 103.998 306.861C103.551 307.06 103.03 307.159 102.437 307.159C101.658 307.159 101.014 306.99 100.503 306.652C99.9927 306.314 99.6695 305.82 99.5336 305.17L100.647 304.892C100.753 305.303 100.954 305.611 101.249 305.817C101.547 306.022 101.937 306.125 102.417 306.125C102.964 306.125 103.398 306.009 103.72 305.777C104.045 305.542 104.207 305.26 104.207 304.932C104.207 304.667 104.114 304.445 103.929 304.266C103.743 304.083 103.458 303.947 103.073 303.858L101.801 303.56C101.101 303.394 100.588 303.137 100.259 302.789C99.9347 302.438 99.7723 301.999 99.7723 301.472C99.7723 301.041 99.8933 300.66 100.135 300.328C100.38 299.997 100.714 299.737 101.134 299.548C101.559 299.359 102.039 299.264 102.576 299.264C103.332 299.264 103.925 299.43 104.356 299.761C104.79 300.093 105.099 300.53 105.281 301.074ZM108.041 307.08C107.796 307.08 107.586 306.992 107.41 306.816C107.234 306.64 107.146 306.43 107.146 306.185C107.146 305.939 107.234 305.729 107.41 305.553C107.586 305.378 107.796 305.29 108.041 305.29C108.287 305.29 108.497 305.378 108.673 305.553C108.848 305.729 108.936 305.939 108.936 306.185C108.936 306.347 108.895 306.496 108.812 306.632C108.732 306.768 108.625 306.877 108.489 306.96C108.356 307.04 108.207 307.08 108.041 307.08Z" fill="#222222"/>
<rect x="36.5" y="1.5" width="93" height="93" rx="38.5" fill="#FD6C31"/>
<rect x="36.5" y="1.5" width="93" height="93" rx="38.5" stroke="white" stroke-width="3"/>
<path d="M82.7109 60.3281C81.0547 60.3281 79.5781 60.0234 78.2813 59.4141C76.9922 58.8047 75.9687 57.9648 75.2109 56.8945C74.4531 55.8242 74.0586 54.5977 74.0273 53.2148H78.9492C79.0039 54.1445 79.3945 54.8984 80.1211 55.4766C80.8477 56.0547 81.7109 56.3437 82.7109 56.3437C83.5078 56.3437 84.2109 56.168 84.8203 55.8164C85.4375 55.457 85.918 54.9609 86.2617 54.3281C86.6133 53.6875 86.7891 52.9531 86.7891 52.125C86.7891 51.2812 86.6094 50.5391 86.25 49.8984C85.8984 49.2578 85.4102 48.7578 84.7852 48.3984C84.1602 48.0391 83.4453 47.8555 82.6406 47.8477C81.9375 47.8477 81.2539 47.9922 80.5898 48.2812C79.9336 48.5703 79.4219 48.9648 79.0547 49.4648L74.543 48.6562L75.6797 36H90.3516V40.1484H79.8633L79.2422 46.1602H79.3828C79.8047 45.5664 80.4414 45.0742 81.293 44.6836C82.1445 44.293 83.0977 44.0977 84.1523 44.0977C85.5977 44.0977 86.8867 44.4375 88.0195 45.1172C89.1523 45.7969 90.0469 46.7305 90.7031 47.918C91.3594 49.0977 91.6836 50.457 91.6758 51.9961C91.6836 53.6133 91.3086 55.0508 90.5508 56.3086C89.8008 57.5586 88.75 58.543 87.3984 59.2617C86.0547 59.9727 84.4922 60.3281 82.7109 60.3281Z" fill="white"/>
</g>
<defs>
<filter id="filter0_i_119_816" x="0" y="0" width="166" height="424" filterUnits="userSpaceOnUse" color-interpolation-filters="sRGB">
<feFlood flood-opacity="0" result="BackgroundImageFix"/>
<feBlend mode="normal" in="SourceGraphic" in2="BackgroundImageFix" result="shape"/>
<feColorMatrix in="SourceAlpha" type="matrix" values="0 0 0 0 0 0 0 0 0 0 0 0 0 0 0 0 0 0 127 0" result="hardAlpha"/>
<feOffset/>
<feGaussianBlur stdDeviation="2"/>
<feComposite in2="hardAlpha" operator="arithmetic" k2="-1" k3="1"/>
<feColorMatrix type="matrix" values="0 0 0 0 0 0 0 0 0 0 0 0 0 0 0 0 0 0 0.25 0"/>
<feBlend mode="normal" in2="shape" result="effect1_innerShadow_119_816"/>
</filter>
</defs>
</svg>
