<svg width="166" height="424" viewBox="0 0 166 424" fill="none" xmlns="http://www.w3.org/2000/svg">
<g filter="url(#filter0_i_119_821)">
<rect y="27" width="166" height="397" rx="83" fill="#FAF8F9"/>
<path d="M40.2116 131.036H43.3071L47.4526 141.155H47.6162L51.7616 131.036H54.8571V145H52.4298V135.407H52.3003L48.4412 144.959H46.6276L42.7685 135.386H42.6389V145H40.2116V131.036ZM60.5162 145.211C59.8526 145.211 59.2548 145.093 58.723 144.857C58.1957 144.616 57.7776 144.261 57.4685 143.793C57.1639 143.325 57.0116 142.748 57.0116 142.061C57.0116 141.47 57.1207 140.982 57.3389 140.595C57.5571 140.209 57.8548 139.9 58.2321 139.668C58.6094 139.436 59.0344 139.261 59.5071 139.143C59.9844 139.02 60.4776 138.932 60.9866 138.877C61.6003 138.814 62.098 138.757 62.4798 138.707C62.8616 138.652 63.1389 138.57 63.3116 138.461C63.4889 138.348 63.5776 138.173 63.5776 137.936V137.895C63.5776 137.382 63.4253 136.984 63.1207 136.702C62.8162 136.42 62.3776 136.28 61.8048 136.28C61.2003 136.28 60.7207 136.411 60.3662 136.675C60.0162 136.939 59.7798 137.25 59.6571 137.609L57.3526 137.282C57.5344 136.645 57.8344 136.114 58.2526 135.686C58.6707 135.255 59.1821 134.932 59.7866 134.718C60.3912 134.5 61.0594 134.391 61.7912 134.391C62.2957 134.391 62.798 134.45 63.298 134.568C63.798 134.686 64.2548 134.882 64.6685 135.155C65.0821 135.423 65.4139 135.789 65.6639 136.252C65.9185 136.716 66.0457 137.295 66.0457 137.991V145H63.673V143.561H63.5912C63.4412 143.852 63.2298 144.125 62.9571 144.38C62.6889 144.63 62.3503 144.832 61.9412 144.986C61.5366 145.136 61.0616 145.211 60.5162 145.211ZM61.1571 143.398C61.6526 143.398 62.0821 143.3 62.4457 143.105C62.8094 142.905 63.0889 142.641 63.2844 142.314C63.4844 141.986 63.5844 141.63 63.5844 141.243V140.009C63.5071 140.073 63.3753 140.132 63.1889 140.186C63.0071 140.241 62.8026 140.289 62.5753 140.33C62.348 140.37 62.123 140.407 61.9003 140.439C61.6776 140.47 61.4844 140.498 61.3207 140.52C60.9526 140.57 60.623 140.652 60.3321 140.766C60.0412 140.88 59.8116 141.039 59.6435 141.243C59.4753 141.443 59.3912 141.702 59.3912 142.02C59.3912 142.475 59.5571 142.818 59.8889 143.05C60.2207 143.282 60.6435 143.398 61.1571 143.398ZM70.5457 134.527L72.6594 138.393L74.8071 134.527H77.4185L74.2616 139.764L77.473 145H74.8753L72.6594 141.23L70.4639 145H67.8457L71.0366 139.764L67.9276 134.527H70.5457ZM79.3276 145V134.527H81.7957V145H79.3276ZM80.5685 133.041C80.1776 133.041 79.8412 132.911 79.5594 132.652C79.2776 132.389 79.1366 132.073 79.1366 131.705C79.1366 131.332 79.2776 131.016 79.5594 130.757C79.8412 130.493 80.1776 130.361 80.5685 130.361C80.9639 130.361 81.3003 130.493 81.5776 130.757C81.8594 131.016 82.0003 131.332 82.0003 131.705C82.0003 132.073 81.8594 132.389 81.5776 132.652C81.3003 132.911 80.9639 133.041 80.5685 133.041ZM84.3338 145V134.527H86.6929V136.307H86.8156C87.0338 135.707 87.3952 135.239 87.8997 134.902C88.4043 134.561 89.0065 134.391 89.7065 134.391C90.4156 134.391 91.0134 134.564 91.4997 134.909C91.9906 135.25 92.3361 135.716 92.5361 136.307H92.6452C92.877 135.725 93.2679 135.261 93.8179 134.916C94.3724 134.566 95.0293 134.391 95.7884 134.391C96.752 134.391 97.5384 134.695 98.1474 135.305C98.7565 135.914 99.0611 136.802 99.0611 137.97V145H96.5861V138.352C96.5861 137.702 96.4134 137.227 96.0679 136.927C95.7224 136.623 95.2997 136.47 94.7997 136.47C94.2043 136.47 93.7384 136.657 93.402 137.03C93.0702 137.398 92.9043 137.877 92.9043 138.468V145H90.4838V138.25C90.4838 137.709 90.3202 137.277 89.9929 136.955C89.6702 136.632 89.2474 136.47 88.7247 136.47C88.3702 136.47 88.0474 136.561 87.7565 136.743C87.4656 136.92 87.2338 137.173 87.0611 137.5C86.8884 137.823 86.802 138.2 86.802 138.632V145H84.3338ZM101.565 145V134.527H104.033V145H101.565ZM102.806 133.041C102.415 133.041 102.079 132.911 101.797 132.652C101.515 132.389 101.374 132.073 101.374 131.705C101.374 131.332 101.515 131.016 101.797 130.757C102.079 130.493 102.415 130.361 102.806 130.361C103.201 130.361 103.538 130.493 103.815 130.757C104.097 131.016 104.238 131.332 104.238 131.705C104.238 132.073 104.097 132.389 103.815 132.652C103.538 132.911 103.201 133.041 102.806 133.041ZM106.435 145V143.432L111.835 136.661V136.573H106.612V134.527H114.855V136.211L109.714 142.866V142.955H115.033V145H106.435ZM121.689 145.205C120.639 145.205 119.732 144.986 118.968 144.55C118.209 144.109 117.625 143.486 117.216 142.682C116.807 141.873 116.603 140.92 116.603 139.825C116.603 138.748 116.807 137.802 117.216 136.989C117.63 136.17 118.207 135.534 118.948 135.08C119.689 134.62 120.559 134.391 121.559 134.391C122.205 134.391 122.814 134.495 123.387 134.705C123.964 134.909 124.473 135.227 124.914 135.659C125.359 136.091 125.709 136.641 125.964 137.309C126.218 137.973 126.346 138.764 126.346 139.682V140.439H117.762V138.775H123.98C123.975 138.302 123.873 137.882 123.673 137.514C123.473 137.141 123.193 136.848 122.834 136.634C122.48 136.42 122.066 136.314 121.593 136.314C121.089 136.314 120.646 136.436 120.264 136.682C119.882 136.923 119.584 137.241 119.371 137.636C119.162 138.027 119.055 138.457 119.05 138.925V140.377C119.05 140.986 119.162 141.509 119.384 141.945C119.607 142.377 119.918 142.709 120.318 142.941C120.718 143.168 121.187 143.282 121.723 143.282C122.082 143.282 122.407 143.232 122.698 143.132C122.989 143.027 123.241 142.875 123.455 142.675C123.668 142.475 123.83 142.227 123.939 141.932L126.243 142.191C126.098 142.8 125.821 143.332 125.412 143.786C125.007 144.236 124.489 144.586 123.857 144.836C123.225 145.082 122.503 145.205 121.689 145.205ZM55.2534 157.875C55.1898 157.28 54.9216 156.816 54.4489 156.484C53.9807 156.152 53.3716 155.986 52.6216 155.986C52.0943 155.986 51.642 156.066 51.2648 156.225C50.8875 156.384 50.5989 156.6 50.3989 156.873C50.1989 157.145 50.0966 157.457 50.092 157.807C50.092 158.098 50.158 158.35 50.2898 158.564C50.4261 158.777 50.6102 158.959 50.842 159.109C51.0739 159.255 51.3307 159.377 51.6125 159.477C51.8943 159.577 52.1784 159.661 52.4648 159.73L53.7739 160.057C54.3011 160.18 54.808 160.345 55.2943 160.555C55.7852 160.764 56.2239 161.027 56.6102 161.345C57.0011 161.664 57.3102 162.048 57.5375 162.498C57.7648 162.948 57.8784 163.475 57.8784 164.08C57.8784 164.898 57.6693 165.618 57.2511 166.241C56.833 166.859 56.2284 167.343 55.4375 167.693C54.6511 168.039 53.6989 168.211 52.5807 168.211C51.4943 168.211 50.5511 168.043 49.7511 167.707C48.9557 167.37 48.333 166.88 47.883 166.234C47.4375 165.589 47.1966 164.802 47.1602 163.875H49.6489C49.6852 164.361 49.8352 164.766 50.0989 165.089C50.3625 165.411 50.7057 165.652 51.1284 165.811C51.5557 165.97 52.033 166.05 52.5602 166.05C53.1102 166.05 53.592 165.968 54.0057 165.805C54.4239 165.636 54.7511 165.405 54.9875 165.109C55.2239 164.809 55.3443 164.459 55.3489 164.059C55.3443 163.695 55.2375 163.395 55.0284 163.159C54.8193 162.918 54.5261 162.718 54.1489 162.559C53.7761 162.395 53.3398 162.25 52.8398 162.123L51.2511 161.714C50.1011 161.418 49.192 160.97 48.5239 160.37C47.8602 159.766 47.5284 158.964 47.5284 157.964C47.5284 157.141 47.7511 156.42 48.1966 155.802C48.6466 155.184 49.258 154.705 50.0307 154.364C50.8034 154.018 51.6784 153.845 52.6557 153.845C53.6466 153.845 54.5148 154.018 55.2602 154.364C56.0102 154.705 56.5989 155.18 57.0261 155.789C57.4534 156.393 57.6739 157.089 57.6875 157.875H55.2534ZM63.0381 168.211C62.3744 168.211 61.7767 168.093 61.2449 167.857C60.7176 167.616 60.2994 167.261 59.9903 166.793C59.6858 166.325 59.5335 165.748 59.5335 165.061C59.5335 164.47 59.6426 163.982 59.8608 163.595C60.079 163.209 60.3767 162.9 60.754 162.668C61.1312 162.436 61.5562 162.261 62.029 162.143C62.5062 162.02 62.9994 161.932 63.5085 161.877C64.1222 161.814 64.6199 161.757 65.0017 161.707C65.3835 161.652 65.6608 161.57 65.8335 161.461C66.0108 161.348 66.0994 161.173 66.0994 160.936V160.895C66.0994 160.382 65.9472 159.984 65.6426 159.702C65.3381 159.42 64.8994 159.28 64.3267 159.28C63.7222 159.28 63.2426 159.411 62.8881 159.675C62.5381 159.939 62.3017 160.25 62.179 160.609L59.8744 160.282C60.0562 159.645 60.3562 159.114 60.7744 158.686C61.1926 158.255 61.704 157.932 62.3085 157.718C62.9131 157.5 63.5812 157.391 64.3131 157.391C64.8176 157.391 65.3199 157.45 65.8199 157.568C66.3199 157.686 66.7767 157.882 67.1903 158.155C67.604 158.423 67.9358 158.789 68.1858 159.252C68.4403 159.716 68.5676 160.295 68.5676 160.991V168H66.1949V166.561H66.1131C65.9631 166.852 65.7517 167.125 65.479 167.38C65.2108 167.63 64.8722 167.832 64.4631 167.986C64.0585 168.136 63.5835 168.211 63.0381 168.211ZM63.679 166.398C64.1744 166.398 64.604 166.3 64.9676 166.105C65.3312 165.905 65.6108 165.641 65.8062 165.314C66.0062 164.986 66.1062 164.63 66.1062 164.243V163.009C66.029 163.073 65.8972 163.132 65.7108 163.186C65.529 163.241 65.3244 163.289 65.0972 163.33C64.8699 163.37 64.6449 163.407 64.4222 163.439C64.1994 163.47 64.0062 163.498 63.8426 163.52C63.4744 163.57 63.1449 163.652 62.854 163.766C62.5631 163.88 62.3335 164.039 62.1653 164.243C61.9972 164.443 61.9131 164.702 61.9131 165.02C61.9131 165.475 62.079 165.818 62.4108 166.05C62.7426 166.282 63.1653 166.398 63.679 166.398ZM80.029 157.527L76.2994 168H73.5722L69.8426 157.527H72.4744L74.8813 165.307H74.9903L77.404 157.527H80.029ZM81.7369 168V157.527H84.2051V168H81.7369ZM82.9778 156.041C82.5869 156.041 82.2506 155.911 81.9688 155.652C81.6869 155.389 81.546 155.073 81.546 154.705C81.546 154.332 81.6869 154.016 81.9688 153.757C82.2506 153.493 82.5869 153.361 82.9778 153.361C83.3733 153.361 83.7097 153.493 83.9869 153.757C84.2688 154.016 84.4097 154.332 84.4097 154.705C84.4097 155.073 84.2688 155.389 83.9869 155.652C83.7097 155.911 83.3733 156.041 82.9778 156.041ZM89.2114 161.864V168H86.7432V157.527H89.1023V159.307H89.225C89.4659 158.72 89.85 158.255 90.3773 157.909C90.9091 157.564 91.5659 157.391 92.3477 157.391C93.0705 157.391 93.7 157.545 94.2364 157.855C94.7773 158.164 95.1955 158.611 95.4909 159.198C95.7909 159.784 95.9386 160.495 95.9341 161.332V168H93.4659V161.714C93.4659 161.014 93.2841 160.466 92.9205 160.07C92.5614 159.675 92.0636 159.477 91.4273 159.477C90.9955 159.477 90.6114 159.573 90.275 159.764C89.9432 159.95 89.6818 160.22 89.4909 160.575C89.3045 160.93 89.2114 161.359 89.2114 161.864ZM102.998 172.145C102.111 172.145 101.35 172.025 100.714 171.784C100.077 171.548 99.5659 171.23 99.1795 170.83C98.7932 170.43 98.525 169.986 98.375 169.5L100.598 168.961C100.698 169.166 100.843 169.368 101.034 169.568C101.225 169.773 101.482 169.941 101.805 170.073C102.132 170.209 102.543 170.277 103.039 170.277C103.739 170.277 104.318 170.107 104.777 169.766C105.236 169.43 105.466 168.875 105.466 168.102V166.118H105.343C105.216 166.373 105.03 166.634 104.784 166.902C104.543 167.17 104.223 167.395 103.823 167.577C103.427 167.759 102.93 167.85 102.33 167.85C101.525 167.85 100.795 167.661 100.141 167.284C99.4909 166.902 98.9727 166.334 98.5864 165.58C98.2045 164.82 98.0136 163.87 98.0136 162.73C98.0136 161.58 98.2045 160.609 98.5864 159.818C98.9727 159.023 99.4932 158.42 100.148 158.011C100.802 157.598 101.532 157.391 102.336 157.391C102.95 157.391 103.455 157.495 103.85 157.705C104.25 157.909 104.568 158.157 104.805 158.448C105.041 158.734 105.22 159.005 105.343 159.259H105.48V157.527H107.914V168.17C107.914 169.066 107.7 169.807 107.273 170.393C106.845 170.98 106.261 171.418 105.52 171.709C104.78 172 103.939 172.145 102.998 172.145ZM103.018 165.914C103.541 165.914 103.986 165.786 104.355 165.532C104.723 165.277 105.002 164.911 105.193 164.434C105.384 163.957 105.48 163.384 105.48 162.716C105.48 162.057 105.384 161.48 105.193 160.984C105.007 160.489 104.73 160.105 104.361 159.832C103.998 159.555 103.55 159.416 103.018 159.416C102.468 159.416 102.009 159.559 101.641 159.845C101.273 160.132 100.995 160.525 100.809 161.025C100.623 161.52 100.53 162.084 100.53 162.716C100.53 163.357 100.623 163.918 100.809 164.4C101 164.877 101.28 165.25 101.648 165.518C102.02 165.782 102.477 165.914 103.018 165.914ZM118.72 160.295L116.47 160.541C116.407 160.314 116.295 160.1 116.136 159.9C115.982 159.7 115.773 159.539 115.509 159.416C115.245 159.293 114.923 159.232 114.541 159.232C114.027 159.232 113.595 159.343 113.245 159.566C112.9 159.789 112.73 160.077 112.734 160.432C112.73 160.736 112.841 160.984 113.068 161.175C113.3 161.366 113.682 161.523 114.214 161.645L116 162.027C116.991 162.241 117.727 162.58 118.209 163.043C118.695 163.507 118.941 164.114 118.945 164.864C118.941 165.523 118.748 166.105 118.366 166.609C117.989 167.109 117.464 167.5 116.791 167.782C116.118 168.064 115.345 168.205 114.473 168.205C113.191 168.205 112.159 167.936 111.377 167.4C110.595 166.859 110.13 166.107 109.98 165.143L112.386 164.911C112.495 165.384 112.727 165.741 113.082 165.982C113.436 166.223 113.898 166.343 114.466 166.343C115.052 166.343 115.523 166.223 115.877 165.982C116.236 165.741 116.416 165.443 116.416 165.089C116.416 164.789 116.3 164.541 116.068 164.345C115.841 164.15 115.486 164 115.005 163.895L113.218 163.52C112.214 163.311 111.47 162.959 110.989 162.464C110.507 161.964 110.268 161.332 110.273 160.568C110.268 159.923 110.443 159.364 110.798 158.891C111.157 158.414 111.655 158.045 112.291 157.786C112.932 157.523 113.67 157.391 114.507 157.391C115.734 157.391 116.7 157.652 117.405 158.175C118.114 158.698 118.552 159.405 118.72 160.295Z" fill="#FD6C31"/>
<path d="M38.5347 222V211.818H41.9751C42.7738 211.818 43.4268 211.962 43.9339 212.251C44.4443 212.536 44.8221 212.922 45.0674 213.409C45.3126 213.896 45.4353 214.44 45.4353 215.04C45.4353 215.64 45.3126 216.185 45.0674 216.675C44.8254 217.166 44.4509 217.557 43.9438 217.849C43.4367 218.137 42.7871 218.281 41.9949 218.281H39.529V217.188H41.9552C42.502 217.188 42.9412 217.093 43.2726 216.904C43.6041 216.715 43.8444 216.46 43.9935 216.138C44.146 215.814 44.2222 215.447 44.2222 215.04C44.2222 214.632 44.146 214.268 43.9935 213.946C43.8444 213.625 43.6024 213.373 43.2677 213.19C42.9329 213.005 42.4888 212.912 41.9353 212.912H39.7677V222H38.5347ZM49.5095 222.179C49.0256 222.179 48.5864 222.088 48.192 221.906C47.7976 221.72 47.4844 221.453 47.2524 221.105C47.0204 220.754 46.9044 220.33 46.9044 219.832C46.9044 219.395 46.9906 219.04 47.1629 218.768C47.3353 218.493 47.5656 218.278 47.854 218.122C48.1423 217.966 48.4605 217.85 48.8085 217.774C49.1598 217.695 49.5128 217.632 49.8675 217.585C50.3315 217.526 50.7077 217.481 50.996 217.451C51.2877 217.418 51.4998 217.363 51.6324 217.287C51.7683 217.211 51.8362 217.078 51.8362 216.889V216.849C51.8362 216.359 51.702 215.978 51.4335 215.706C51.1684 215.434 50.7657 215.298 50.2254 215.298C49.6653 215.298 49.2261 215.421 48.9079 215.666C48.5898 215.911 48.366 216.173 48.2368 216.452L47.1231 216.054C47.322 215.59 47.5872 215.229 47.9186 214.97C48.2533 214.708 48.6179 214.526 49.0123 214.423C49.4101 214.317 49.8012 214.264 50.1856 214.264C50.4309 214.264 50.7126 214.294 51.0308 214.354C51.3523 214.41 51.6622 214.528 51.9605 214.707C52.2621 214.886 52.5123 215.156 52.7112 215.517C52.9101 215.878 53.0095 216.362 53.0095 216.969V222H51.8362V220.966H51.7765C51.697 221.132 51.5644 221.309 51.3788 221.498C51.1932 221.687 50.9463 221.848 50.6381 221.98C50.3298 222.113 49.9536 222.179 49.5095 222.179ZM49.6885 221.125C50.1525 221.125 50.5436 221.034 50.8618 220.852C51.1833 220.669 51.4252 220.434 51.5876 220.146C51.7533 219.857 51.8362 219.554 51.8362 219.236V218.162C51.7865 218.222 51.6771 218.276 51.5081 218.326C51.3424 218.372 51.1501 218.414 50.9314 218.45C50.7159 218.483 50.5055 218.513 50.3 218.54C50.0978 218.563 49.9337 218.583 49.8078 218.599C49.5029 218.639 49.2178 218.704 48.9527 218.793C48.6908 218.879 48.4787 219.01 48.3163 219.186C48.1572 219.358 48.0777 219.594 48.0777 219.892C48.0777 220.3 48.2285 220.608 48.5301 220.817C48.835 221.022 49.2211 221.125 49.6885 221.125ZM55.6333 224.864C55.4344 224.864 55.2571 224.847 55.1013 224.814C54.9455 224.784 54.8378 224.754 54.7781 224.724L55.0764 223.69C55.3615 223.763 55.6134 223.79 55.8321 223.77C56.0509 223.75 56.2448 223.652 56.4138 223.477C56.5861 223.304 56.7436 223.024 56.8861 222.636L57.1048 222.04L54.281 214.364H55.5537L57.6617 220.449H57.7412L59.8492 214.364H61.1219L57.8804 223.114C57.7346 223.508 57.5539 223.835 57.3385 224.093C57.1231 224.355 56.8728 224.549 56.5878 224.675C56.3061 224.801 55.9879 224.864 55.6333 224.864ZM67.7813 217.406V222H66.608V214.364H67.7416V215.557H67.841C68.02 215.169 68.2918 214.857 68.6563 214.622C69.0209 214.384 69.4916 214.264 70.0683 214.264C70.5853 214.264 71.0377 214.37 71.4255 214.582C71.8133 214.791 72.1149 215.109 72.3303 215.537C72.5458 215.961 72.6535 216.498 72.6535 217.148V222H71.4802V217.227C71.4802 216.627 71.3244 216.16 71.0129 215.825C70.7013 215.487 70.2738 215.318 69.7302 215.318C69.3557 215.318 69.0209 215.399 68.7259 215.562C68.4343 215.724 68.2039 215.961 68.0349 216.273C67.8659 216.584 67.7813 216.962 67.7813 217.406ZM77.8998 222.159C77.2104 222.159 76.6055 221.995 76.0851 221.667C75.5681 221.339 75.1637 220.88 74.8721 220.29C74.5837 219.7 74.4395 219.01 74.4395 218.222C74.4395 217.426 74.5837 216.732 74.8721 216.138C75.1637 215.545 75.5681 215.085 76.0851 214.756C76.6055 214.428 77.2104 214.264 77.8998 214.264C78.5892 214.264 79.1924 214.428 79.7094 214.756C80.2298 215.085 80.6341 215.545 80.9225 216.138C81.2142 216.732 81.36 217.426 81.36 218.222C81.36 219.01 81.2142 219.7 80.9225 220.29C80.6341 220.88 80.2298 221.339 79.7094 221.667C79.1924 221.995 78.5892 222.159 77.8998 222.159ZM77.8998 221.105C78.4234 221.105 78.8543 220.971 79.1924 220.702C79.5305 220.434 79.7807 220.081 79.9431 219.643C80.1055 219.206 80.1867 218.732 80.1867 218.222C80.1867 217.711 80.1055 217.236 79.9431 216.795C79.7807 216.354 79.5305 215.998 79.1924 215.726C78.8543 215.454 78.4234 215.318 77.8998 215.318C77.3761 215.318 76.9452 215.454 76.6072 215.726C76.2691 215.998 76.0189 216.354 75.8564 216.795C75.694 217.236 75.6128 217.711 75.6128 218.222C75.6128 218.732 75.694 219.206 75.8564 219.643C76.0189 220.081 76.2691 220.434 76.6072 220.702C76.9452 220.971 77.3761 221.105 77.8998 221.105ZM87.2476 222V211.818H88.4209V215.577H88.5203C88.6065 215.444 88.7258 215.275 88.8783 215.07C89.0341 214.861 89.2561 214.675 89.5445 214.513C89.8361 214.347 90.2306 214.264 90.7277 214.264C91.3707 214.264 91.9375 214.425 92.428 214.746C92.9185 215.068 93.3013 215.524 93.5764 216.114C93.8515 216.704 93.9891 217.4 93.9891 218.202C93.9891 219.01 93.8515 219.711 93.5764 220.305C93.3013 220.895 92.9202 221.352 92.433 221.677C91.9458 221.998 91.384 222.159 90.7476 222.159C90.2571 222.159 89.8643 222.078 89.5693 221.915C89.2744 221.75 89.0473 221.562 88.8882 221.354C88.7291 221.142 88.6065 220.966 88.5203 220.827H88.3811V222H87.2476ZM88.401 218.182C88.401 218.759 88.4855 219.267 88.6546 219.708C88.8236 220.146 89.0705 220.489 89.3953 220.737C89.7201 220.982 90.1179 221.105 90.5885 221.105C91.079 221.105 91.4884 220.976 91.8165 220.717C92.1479 220.455 92.3965 220.104 92.5622 219.663C92.7313 219.219 92.8158 218.725 92.8158 218.182C92.8158 217.645 92.7329 217.161 92.5672 216.73C92.4048 216.296 92.1579 215.953 91.8264 215.701C91.4983 215.446 91.0857 215.318 90.5885 215.318C90.1112 215.318 89.7102 215.439 89.3854 215.681C89.0606 215.92 88.8153 216.254 88.6496 216.685C88.4839 217.113 88.401 217.612 88.401 218.182ZM95.7838 222V214.364H96.9173V215.517H96.9969C97.1361 215.139 97.388 214.833 97.7526 214.597C98.1172 214.362 98.5281 214.244 98.9855 214.244C99.0717 214.244 99.1794 214.246 99.3087 214.249C99.4379 214.253 99.5357 214.258 99.602 214.264V215.457C99.5622 215.447 99.4711 215.433 99.3286 215.413C99.1894 215.389 99.0419 215.378 98.8861 215.378C98.5149 215.378 98.1834 215.456 97.8918 215.612C97.6034 215.764 97.3747 215.976 97.2057 216.248C97.04 216.516 96.9571 216.823 96.9571 217.168V222H95.7838ZM103.863 222.159C103.173 222.159 102.568 221.995 102.048 221.667C101.531 221.339 101.127 220.88 100.835 220.29C100.547 219.7 100.402 219.01 100.402 218.222C100.402 217.426 100.547 216.732 100.835 216.138C101.127 215.545 101.531 215.085 102.048 214.756C102.568 214.428 103.173 214.264 103.863 214.264C104.552 214.264 105.155 214.428 105.672 214.756C106.193 215.085 106.597 215.545 106.885 216.138C107.177 216.732 107.323 217.426 107.323 218.222C107.323 219.01 107.177 219.7 106.885 220.29C106.597 220.88 106.193 221.339 105.672 221.667C105.155 221.995 104.552 222.159 103.863 222.159ZM103.863 221.105C104.386 221.105 104.817 220.971 105.155 220.702C105.493 220.434 105.744 220.081 105.906 219.643C106.068 219.206 106.15 218.732 106.15 218.222C106.15 217.711 106.068 217.236 105.906 216.795C105.744 216.354 105.493 215.998 105.155 215.726C104.817 215.454 104.386 215.318 103.863 215.318C103.339 215.318 102.908 215.454 102.57 215.726C102.232 215.998 101.982 216.354 101.819 216.795C101.657 217.236 101.576 217.711 101.576 218.222C101.576 218.732 101.657 219.206 101.819 219.643C101.982 220.081 102.232 220.434 102.57 220.702C102.908 220.971 103.339 221.105 103.863 221.105ZM110.208 219.216L110.188 217.764H110.426L113.767 214.364H115.219L111.659 217.963H111.56L110.208 219.216ZM109.114 222V211.818H110.287V222H109.114ZM113.966 222L110.983 218.222L111.818 217.406L115.458 222H113.966ZM119.616 222.159C118.881 222.159 118.246 221.997 117.712 221.672C117.182 221.344 116.773 220.886 116.484 220.3C116.199 219.71 116.057 219.024 116.057 218.241C116.057 217.459 116.199 216.77 116.484 216.173C116.773 215.573 117.174 215.106 117.687 214.771C118.204 214.433 118.808 214.264 119.497 214.264C119.895 214.264 120.288 214.33 120.675 214.463C121.063 214.596 121.416 214.811 121.734 215.109C122.052 215.404 122.306 215.795 122.495 216.283C122.684 216.77 122.778 217.37 122.778 218.082V218.58H116.892V217.565H121.585C121.585 217.134 121.499 216.75 121.327 216.412C121.158 216.074 120.916 215.807 120.601 215.612C120.289 215.416 119.921 215.318 119.497 215.318C119.03 215.318 118.625 215.434 118.284 215.666C117.946 215.895 117.686 216.193 117.503 216.561C117.321 216.929 117.23 217.323 117.23 217.744V218.42C117.23 218.997 117.329 219.486 117.528 219.887C117.73 220.285 118.011 220.588 118.369 220.797C118.726 221.002 119.142 221.105 119.616 221.105C119.925 221.105 120.203 221.062 120.452 220.976C120.704 220.886 120.921 220.754 121.103 220.578C121.285 220.399 121.426 220.177 121.525 219.912L122.659 220.23C122.54 220.615 122.339 220.953 122.057 221.244C121.776 221.533 121.428 221.758 121.013 221.92C120.599 222.08 120.133 222.159 119.616 222.159ZM124.563 222V214.364H125.697V215.517H125.776C125.915 215.139 126.167 214.833 126.532 214.597C126.896 214.362 127.307 214.244 127.765 214.244C127.851 214.244 127.959 214.246 128.088 214.249C128.217 214.253 128.315 214.258 128.381 214.264V215.457C128.342 215.447 128.25 215.433 128.108 215.413C127.969 215.389 127.821 215.378 127.665 215.378C127.294 215.378 126.963 215.456 126.671 215.612C126.383 215.764 126.154 215.976 125.985 216.248C125.819 216.516 125.736 216.823 125.736 217.168V222H124.563ZM41.8787 231.364V232.358H37.7623V231.364H41.8787ZM38.9952 239V230.31C38.9952 229.872 39.098 229.508 39.3034 229.216C39.5089 228.924 39.7757 228.705 40.1039 228.56C40.432 228.414 40.7784 228.341 41.1429 228.341C41.4313 228.341 41.6666 228.364 41.8489 228.411C42.0312 228.457 42.1671 228.5 42.2566 228.54L41.9185 229.554C41.8588 229.534 41.776 229.509 41.6699 229.479C41.5672 229.45 41.4313 229.435 41.2623 229.435C40.8745 229.435 40.5944 229.532 40.4221 229.728C40.253 229.924 40.1685 230.21 40.1685 230.588V239H38.9952ZM46.4103 239.159C45.6745 239.159 45.0398 238.997 44.5062 238.672C43.9759 238.344 43.5666 237.886 43.2782 237.3C42.9932 236.71 42.8507 236.024 42.8507 235.241C42.8507 234.459 42.9932 233.77 43.2782 233.173C43.5666 232.573 43.9676 232.106 44.4814 231.771C44.9984 231.433 45.6016 231.264 46.291 231.264C46.6887 231.264 47.0815 231.33 47.4693 231.463C47.8571 231.596 48.2101 231.811 48.5282 232.109C48.8464 232.404 49.1 232.795 49.2889 233.283C49.4778 233.77 49.5723 234.37 49.5723 235.082V235.58H43.6859V234.565H48.3791C48.3791 234.134 48.2929 233.75 48.1206 233.412C47.9515 233.074 47.7096 232.807 47.3947 232.612C47.0832 232.416 46.7153 232.318 46.291 232.318C45.8237 232.318 45.4193 232.434 45.0779 232.666C44.7399 232.895 44.4797 233.193 44.2974 233.561C44.1151 233.929 44.024 234.323 44.024 234.744V235.42C44.024 235.997 44.1234 236.486 44.3223 236.887C44.5244 237.285 44.8045 237.588 45.1625 237.797C45.5204 238.002 45.9364 238.105 46.4103 238.105C46.7186 238.105 46.997 238.062 47.2456 237.976C47.4975 237.886 47.7145 237.754 47.8968 237.578C48.0791 237.399 48.22 237.177 48.3194 236.912L49.4529 237.23C49.3336 237.615 49.1331 237.953 48.8514 238.244C48.5697 238.533 48.2217 238.758 47.8074 238.92C47.3931 239.08 46.9274 239.159 46.4103 239.159ZM54.5588 239.159C53.823 239.159 53.1883 238.997 52.6547 238.672C52.1243 238.344 51.715 237.886 51.4267 237.3C51.1416 236.71 50.9991 236.024 50.9991 235.241C50.9991 234.459 51.1416 233.77 51.4267 233.173C51.715 232.573 52.1161 232.106 52.6298 231.771C53.1468 231.433 53.7501 231.264 54.4395 231.264C54.8372 231.264 55.2299 231.33 55.6177 231.463C56.0055 231.596 56.3585 231.811 56.6767 232.109C56.9949 232.404 57.2484 232.795 57.4373 233.283C57.6262 233.77 57.7207 234.37 57.7207 235.082V235.58H51.8343V234.565H56.5275C56.5275 234.134 56.4413 233.75 56.269 233.412C56.1 233.074 55.858 232.807 55.5431 232.612C55.2316 232.416 54.8637 232.318 54.4395 232.318C53.9721 232.318 53.5678 232.434 53.2264 232.666C52.8883 232.895 52.6281 233.193 52.4458 233.561C52.2636 233.929 52.1724 234.323 52.1724 234.744V235.42C52.1724 235.997 52.2718 236.486 52.4707 236.887C52.6729 237.285 52.9529 237.588 53.3109 237.797C53.6689 238.002 54.0848 238.105 54.5588 238.105C54.867 238.105 55.1454 238.062 55.394 237.976C55.6459 237.886 55.863 237.754 56.0453 237.578C56.2276 237.399 56.3684 237.177 56.4679 236.912L57.6014 237.23C57.4821 237.615 57.2815 237.953 56.9998 238.244C56.7181 238.533 56.3701 238.758 55.9558 238.92C55.5415 239.08 55.0758 239.159 54.5588 239.159ZM64.9146 233.074L63.8606 233.372C63.7943 233.196 63.6966 233.026 63.5673 232.86C63.4413 232.691 63.269 232.552 63.0502 232.442C62.8315 232.333 62.5514 232.278 62.21 232.278C61.7427 232.278 61.3533 232.386 61.0417 232.602C60.7335 232.814 60.5794 233.084 60.5794 233.412C60.5794 233.704 60.6854 233.934 60.8975 234.103C61.1097 234.272 61.4411 234.413 61.8919 234.526L63.0254 234.804C63.7082 234.97 64.2169 235.223 64.5517 235.565C64.8864 235.903 65.0538 236.339 65.0538 236.872C65.0538 237.31 64.9279 237.701 64.676 238.045C64.4274 238.39 64.0794 238.662 63.6319 238.861C63.1845 239.06 62.6641 239.159 62.0708 239.159C61.292 239.159 60.6473 238.99 60.1369 238.652C59.6265 238.314 59.3033 237.82 59.1674 237.17L60.2811 236.892C60.3871 237.303 60.5877 237.611 60.8826 237.817C61.1809 238.022 61.5704 238.125 62.051 238.125C62.5978 238.125 63.032 238.009 63.3535 237.777C63.6783 237.542 63.8407 237.26 63.8407 236.932C63.8407 236.667 63.7479 236.445 63.5623 236.266C63.3767 236.083 63.0917 235.947 62.7072 235.858L61.4345 235.56C60.7351 235.394 60.2214 235.137 59.8933 234.789C59.5685 234.438 59.4061 233.999 59.4061 233.472C59.4061 233.041 59.527 232.66 59.769 232.328C60.0143 231.997 60.3474 231.737 60.7683 231.548C61.1925 231.359 61.6731 231.264 62.21 231.264C62.9657 231.264 63.559 231.43 63.9899 231.761C64.4241 232.093 64.7323 232.53 64.9146 233.074ZM73.0046 239.179C72.5207 239.179 72.0816 239.088 71.6871 238.906C71.2927 238.72 70.9795 238.453 70.7475 238.105C70.5155 237.754 70.3995 237.33 70.3995 236.832C70.3995 236.395 70.4857 236.04 70.658 235.768C70.8304 235.493 71.0607 235.278 71.3491 235.122C71.6374 234.966 71.9556 234.85 72.3036 234.774C72.6549 234.695 73.0079 234.632 73.3626 234.585C73.8266 234.526 74.2028 234.481 74.4911 234.451C74.7828 234.418 74.9949 234.363 75.1275 234.287C75.2634 234.211 75.3313 234.078 75.3313 233.889V233.849C75.3313 233.359 75.1971 232.978 74.9286 232.706C74.6635 232.434 74.2608 232.298 73.7205 232.298C73.1604 232.298 72.7212 232.421 72.4031 232.666C72.0849 232.911 71.8612 233.173 71.7319 233.452L70.6183 233.054C70.8171 232.59 71.0823 232.229 71.4137 231.97C71.7485 231.708 72.113 231.526 72.5075 231.423C72.9052 231.317 73.2963 231.264 73.6808 231.264C73.926 231.264 74.2077 231.294 74.5259 231.354C74.8474 231.41 75.1573 231.528 75.4556 231.707C75.7572 231.886 76.0075 232.156 76.2063 232.517C76.4052 232.878 76.5046 233.362 76.5046 233.969V239H75.3313V237.966H75.2717C75.1921 238.132 75.0595 238.309 74.8739 238.498C74.6883 238.687 74.4414 238.848 74.1332 238.98C73.8249 239.113 73.4487 239.179 73.0046 239.179ZM73.1836 238.125C73.6476 238.125 74.0387 238.034 74.3569 237.852C74.6784 237.669 74.9203 237.434 75.0827 237.146C75.2485 236.857 75.3313 236.554 75.3313 236.236V235.162C75.2816 235.222 75.1722 235.276 75.0032 235.326C74.8375 235.372 74.6452 235.414 74.4265 235.45C74.2111 235.483 74.0006 235.513 73.7951 235.54C73.5929 235.563 73.4289 235.583 73.3029 235.599C72.998 235.639 72.7129 235.704 72.4478 235.793C72.186 235.879 71.9738 236.01 71.8114 236.186C71.6523 236.358 71.5728 236.594 71.5728 236.892C71.5728 237.3 71.7236 237.608 72.0252 237.817C72.3301 238.022 72.7163 238.125 73.1836 238.125ZM79.8194 234.406V239H78.6461V231.364H79.7797V232.557H79.8791C80.0581 232.169 80.3298 231.857 80.6944 231.622C81.059 231.384 81.5297 231.264 82.1064 231.264C82.6234 231.264 83.0758 231.37 83.4636 231.582C83.8514 231.791 84.153 232.109 84.3684 232.537C84.5839 232.961 84.6916 233.498 84.6916 234.148V239H83.5183V234.227C83.5183 233.627 83.3625 233.16 83.051 232.825C82.7394 232.487 82.3118 232.318 81.7683 232.318C81.3938 232.318 81.059 232.399 80.764 232.562C80.4724 232.724 80.242 232.961 80.073 233.273C79.9039 233.584 79.8194 233.962 79.8194 234.406ZM89.7191 239.159C89.0827 239.159 88.521 238.998 88.0337 238.677C87.5465 238.352 87.1654 237.895 86.8903 237.305C86.6152 236.711 86.4776 236.01 86.4776 235.202C86.4776 234.4 86.6152 233.704 86.8903 233.114C87.1654 232.524 87.5482 232.068 88.0387 231.746C88.5292 231.425 89.096 231.264 89.739 231.264C90.2362 231.264 90.6289 231.347 90.9173 231.513C91.2089 231.675 91.431 231.861 91.5835 232.07C91.7392 232.275 91.8602 232.444 91.9464 232.577H92.0458V228.818H93.2191V239H92.0856V237.827H91.9464C91.8602 237.966 91.7376 238.142 91.5785 238.354C91.4194 238.562 91.1924 238.75 90.8974 238.915C90.6024 239.078 90.2096 239.159 89.7191 239.159ZM89.8782 238.105C90.3488 238.105 90.7466 237.982 91.0714 237.737C91.3962 237.489 91.6431 237.146 91.8121 236.708C91.9812 236.267 92.0657 235.759 92.0657 235.182C92.0657 234.612 91.9828 234.113 91.8171 233.685C91.6514 233.254 91.4061 232.92 91.0813 232.681C90.7565 232.439 90.3555 232.318 89.8782 232.318C89.381 232.318 88.9667 232.446 88.6353 232.701C88.3072 232.953 88.0603 233.296 87.8945 233.73C87.7321 234.161 87.6509 234.645 87.6509 235.182C87.6509 235.725 87.7338 236.219 87.8995 236.663C88.0685 237.104 88.3171 237.455 88.6452 237.717C88.9767 237.976 89.3877 238.105 89.8782 238.105ZM101.199 239L98.8718 231.364H100.105L101.755 237.21H101.835L103.466 231.364H104.718L106.329 237.19H106.409L108.059 231.364H109.292L106.966 239H105.812L104.142 233.134H104.022L102.352 239H101.199ZM113.091 239.179C112.607 239.179 112.167 239.088 111.773 238.906C111.379 238.72 111.065 238.453 110.833 238.105C110.601 237.754 110.485 237.33 110.485 236.832C110.485 236.395 110.572 236.04 110.744 235.768C110.916 235.493 111.147 235.278 111.435 235.122C111.723 234.966 112.042 234.85 112.39 234.774C112.741 234.695 113.094 234.632 113.449 234.585C113.913 234.526 114.289 234.481 114.577 234.451C114.869 234.418 115.081 234.363 115.213 234.287C115.349 234.211 115.417 234.078 115.417 233.889V233.849C115.417 233.359 115.283 232.978 115.015 232.706C114.749 232.434 114.347 232.298 113.806 232.298C113.246 232.298 112.807 232.421 112.489 232.666C112.171 232.911 111.947 233.173 111.818 233.452L110.704 233.054C110.903 232.59 111.168 232.229 111.5 231.97C111.834 231.708 112.199 231.526 112.593 231.423C112.991 231.317 113.382 231.264 113.767 231.264C114.012 231.264 114.294 231.294 114.612 231.354C114.933 231.41 115.243 231.528 115.542 231.707C115.843 231.886 116.093 232.156 116.292 232.517C116.491 232.878 116.591 233.362 116.591 233.969V239H115.417V237.966H115.358C115.278 238.132 115.145 238.309 114.96 238.498C114.774 238.687 114.527 238.848 114.219 238.98C113.911 239.113 113.535 239.179 113.091 239.179ZM113.27 238.125C113.734 238.125 114.125 238.034 114.443 237.852C114.764 237.669 115.006 237.434 115.169 237.146C115.334 236.857 115.417 236.554 115.417 236.236V235.162C115.368 235.222 115.258 235.276 115.089 235.326C114.923 235.372 114.731 235.414 114.512 235.45C114.297 235.483 114.087 235.513 113.881 235.54C113.679 235.563 113.515 235.583 113.389 235.599C113.084 235.639 112.799 235.704 112.534 235.793C112.272 235.879 112.06 236.01 111.897 236.186C111.738 236.358 111.659 236.594 111.659 236.892C111.659 237.3 111.81 237.608 112.111 237.817C112.416 238.022 112.802 238.125 113.27 238.125ZM119.905 228.818V239H118.732V228.818H119.905ZM123.148 236.216L123.128 234.764H123.367L126.708 231.364H128.159L124.6 234.963H124.5L123.148 236.216ZM122.054 239V228.818H123.228V239H122.054ZM126.907 239L123.924 235.222L124.759 234.406L128.398 239H126.907ZM27.7097 256.179C27.2258 256.179 26.7866 256.088 26.3922 255.906C25.9978 255.72 25.6846 255.453 25.4526 255.105C25.2206 254.754 25.1046 254.33 25.1046 253.832C25.1046 253.395 25.1908 253.04 25.3631 252.768C25.5355 252.493 25.7658 252.278 26.0542 252.122C26.3425 251.966 26.6607 251.85 27.0087 251.774C27.36 251.695 27.713 251.632 28.0676 251.585C28.5317 251.526 28.9078 251.481 29.1962 251.451C29.4879 251.418 29.7 251.363 29.8326 251.287C29.9685 251.211 30.0364 251.078 30.0364 250.889V250.849C30.0364 250.359 29.9022 249.978 29.6337 249.706C29.3685 249.434 28.9659 249.298 28.4256 249.298C27.8655 249.298 27.4263 249.421 27.1081 249.666C26.79 249.911 26.5662 250.173 26.437 250.452L25.3233 250.054C25.5222 249.59 25.7873 249.229 26.1188 248.97C26.4535 248.708 26.8181 248.526 27.2125 248.423C27.6103 248.317 28.0014 248.264 28.3858 248.264C28.6311 248.264 28.9128 248.294 29.231 248.354C29.5525 248.41 29.8624 248.528 30.1607 248.707C30.4623 248.886 30.7125 249.156 30.9114 249.517C31.1103 249.878 31.2097 250.362 31.2097 250.969V256H30.0364V254.966H29.9767C29.8972 255.132 29.7646 255.309 29.579 255.498C29.3934 255.687 29.1465 255.848 28.8382 255.98C28.53 256.113 28.1538 256.179 27.7097 256.179ZM27.8887 255.125C28.3527 255.125 28.7438 255.034 29.062 254.852C29.3835 254.669 29.6254 254.434 29.7878 254.146C29.9535 253.857 30.0364 253.554 30.0364 253.236V252.162C29.9867 252.222 29.8773 252.276 29.7083 252.326C29.5426 252.372 29.3503 252.414 29.1316 252.45C28.9161 252.483 28.7057 252.513 28.5002 252.54C28.298 252.563 28.1339 252.583 28.008 252.599C27.7031 252.639 27.418 252.704 27.1529 252.793C26.891 252.879 26.6789 253.01 26.5165 253.186C26.3574 253.358 26.2779 253.594 26.2779 253.892C26.2779 254.3 26.4287 254.608 26.7303 254.817C27.0352 255.022 27.4213 255.125 27.8887 255.125ZM35.0813 256L32.7546 248.364H33.9876L35.6381 254.21H35.7177L37.3484 248.364H38.6012L40.212 254.19H40.2915L41.9421 248.364H43.1751L40.8484 256H39.695L38.0245 250.134H37.9052L36.2347 256H35.0813ZM46.9734 256.179C46.4895 256.179 46.0503 256.088 45.6559 255.906C45.2615 255.72 44.9483 255.453 44.7163 255.105C44.4843 254.754 44.3683 254.33 44.3683 253.832C44.3683 253.395 44.4544 253.04 44.6268 252.768C44.7991 252.493 45.0295 252.278 45.3178 252.122C45.6062 251.966 45.9244 251.85 46.2724 251.774C46.6237 251.695 46.9767 251.632 47.3313 251.585C47.7953 251.526 48.1715 251.481 48.4599 251.451C48.7515 251.418 48.9637 251.363 49.0962 251.287C49.2321 251.211 49.3001 251.078 49.3001 250.889V250.849C49.3001 250.359 49.1658 249.978 48.8974 249.706C48.6322 249.434 48.2295 249.298 47.6893 249.298C47.1291 249.298 46.69 249.421 46.3718 249.666C46.0536 249.911 45.8299 250.173 45.7006 250.452L44.587 250.054C44.7859 249.59 45.051 249.229 45.3825 248.97C45.7172 248.708 46.0818 248.526 46.4762 248.423C46.8739 248.317 47.265 248.264 47.6495 248.264C47.8948 248.264 48.1765 248.294 48.4947 248.354C48.8162 248.41 49.1261 248.528 49.4244 248.707C49.726 248.886 49.9762 249.156 50.1751 249.517C50.3739 249.878 50.4734 250.362 50.4734 250.969V256H49.3001V254.966H49.2404C49.1609 255.132 49.0283 255.309 48.8427 255.498C48.6571 255.687 48.4102 255.848 48.1019 255.98C47.7937 256.113 47.4175 256.179 46.9734 256.179ZM47.1523 255.125C47.6164 255.125 48.0075 255.034 48.3256 254.852C48.6471 254.669 48.8891 254.434 49.0515 254.146C49.2172 253.857 49.3001 253.554 49.3001 253.236V252.162C49.2504 252.222 49.141 252.276 48.9719 252.326C48.8062 252.372 48.614 252.414 48.3952 252.45C48.1798 252.483 47.9693 252.513 47.7638 252.54C47.5617 252.563 47.3976 252.583 47.2717 252.599C46.9667 252.639 46.6817 252.704 46.4165 252.793C46.1547 252.879 45.9426 253.01 45.7802 253.186C45.6211 253.358 45.5415 253.594 45.5415 253.892C45.5415 254.3 45.6924 254.608 45.994 254.817C46.2989 255.022 46.685 255.125 47.1523 255.125ZM53.0971 258.864C52.8983 258.864 52.7209 258.847 52.5652 258.814C52.4094 258.784 52.3017 258.754 52.242 258.724L52.5403 257.69C52.8253 257.763 53.0772 257.79 53.296 257.77C53.5147 257.75 53.7086 257.652 53.8777 257.477C54.05 257.304 54.2074 257.024 54.35 256.636L54.5687 256.04L51.7449 248.364H53.0176L55.1255 254.449H55.2051L57.313 248.364H58.5858L55.3443 257.114C55.1984 257.508 55.0178 257.835 54.8024 258.093C54.5869 258.355 54.3367 258.549 54.0517 258.675C53.7699 258.801 53.4518 258.864 53.0971 258.864ZM65.802 256L63.4753 248.364H64.7083L66.3588 254.21H66.4384L68.0691 248.364H69.3219L70.9327 254.19H71.0123L72.6628 248.364H73.8958L71.5691 256H70.4157L68.7452 250.134H68.6259L66.9554 256H65.802ZM75.4469 256V248.364H76.6202V256H75.4469ZM76.0435 247.091C75.8148 247.091 75.6176 247.013 75.4519 246.857C75.2895 246.701 75.2083 246.514 75.2083 246.295C75.2083 246.077 75.2895 245.889 75.4519 245.734C75.6176 245.578 75.8148 245.5 76.0435 245.5C76.2722 245.5 76.4677 245.578 76.6301 245.734C76.7959 245.889 76.8787 246.077 76.8787 246.295C76.8787 246.514 76.7959 246.701 76.6301 246.857C76.4677 247.013 76.2722 247.091 76.0435 247.091ZM82.0902 248.364V249.358H78.1328V248.364H82.0902ZM79.2862 246.534H80.4595V253.812C80.4595 254.144 80.5076 254.393 80.6037 254.558C80.7031 254.721 80.8291 254.83 80.9815 254.886C81.1373 254.939 81.3014 254.966 81.4737 254.966C81.603 254.966 81.709 254.959 81.7919 254.946C81.8748 254.929 81.9411 254.916 81.9908 254.906L82.2294 255.96C82.1499 255.99 82.0388 256.02 81.8963 256.05C81.7538 256.083 81.5732 256.099 81.3544 256.099C81.023 256.099 80.6982 256.028 80.38 255.886C80.0651 255.743 79.8033 255.526 79.5945 255.234C79.389 254.943 79.2862 254.575 79.2862 254.131V246.534ZM85.1925 251.406V256H84.0192V245.818H85.1925V249.557H85.2919C85.4709 249.162 85.7393 248.849 86.0973 248.617C86.4586 248.382 86.9392 248.264 87.5391 248.264C88.0594 248.264 88.5152 248.369 88.9062 248.577C89.2973 248.783 89.6006 249.099 89.8161 249.527C90.0348 249.951 90.1442 250.491 90.1442 251.148V256H88.9709V251.227C88.9709 250.621 88.8134 250.152 88.4986 249.82C88.187 249.486 87.7545 249.318 87.201 249.318C86.8165 249.318 86.4718 249.399 86.1669 249.562C85.8653 249.724 85.6267 249.961 85.451 250.273C85.2786 250.584 85.1925 250.962 85.1925 251.406ZM98.4753 256.179C97.9914 256.179 97.5523 256.088 97.1578 255.906C96.7634 255.72 96.4502 255.453 96.2182 255.105C95.9862 254.754 95.8702 254.33 95.8702 253.832C95.8702 253.395 95.9564 253.04 96.1287 252.768C96.3011 252.493 96.5314 252.278 96.8198 252.122C97.1081 251.966 97.4263 251.85 97.7743 251.774C98.1257 251.695 98.4786 251.632 98.8333 251.585C99.2973 251.526 99.6735 251.481 99.9618 251.451C100.253 251.418 100.466 251.363 100.598 251.287C100.734 251.211 100.802 251.078 100.802 250.889V250.849C100.802 250.359 100.668 249.978 100.399 249.706C100.134 249.434 99.7315 249.298 99.1912 249.298C98.6311 249.298 98.1919 249.421 97.8738 249.666C97.5556 249.911 97.3319 250.173 97.2026 250.452L96.089 250.054C96.2878 249.59 96.553 249.229 96.8844 248.97C97.2192 248.708 97.5837 248.526 97.9782 248.423C98.3759 248.317 98.767 248.264 99.1515 248.264C99.3967 248.264 99.6784 248.294 99.9966 248.354C100.318 248.41 100.628 248.528 100.926 248.707C101.228 248.886 101.478 249.156 101.677 249.517C101.876 249.878 101.975 250.362 101.975 250.969V256H100.802V254.966H100.742C100.663 255.132 100.53 255.309 100.345 255.498C100.159 255.687 99.9121 255.848 99.6039 255.98C99.2956 256.113 98.9194 256.179 98.4753 256.179ZM98.6543 255.125C99.1183 255.125 99.5094 255.034 99.8276 254.852C100.149 254.669 100.391 254.434 100.553 254.146C100.719 253.857 100.802 253.554 100.802 253.236V252.162C100.752 252.222 100.643 252.276 100.474 252.326C100.308 252.372 100.116 252.414 99.8972 252.45C99.6818 252.483 99.4713 252.513 99.2658 252.54C99.0636 252.563 98.8996 252.583 98.7736 252.599C98.4687 252.639 98.1837 252.704 97.9185 252.793C97.6567 252.879 97.4445 253.01 97.2821 253.186C97.123 253.358 97.0435 253.594 97.0435 253.892C97.0435 254.3 97.1943 254.608 97.4959 254.817C97.8008 255.022 98.187 255.125 98.6543 255.125ZM111.137 259.023C110.57 259.023 110.083 258.95 109.675 258.804C109.267 258.661 108.928 258.473 108.656 258.237C108.387 258.005 108.174 257.757 108.015 257.491L108.949 256.835C109.055 256.974 109.19 257.134 109.352 257.312C109.514 257.495 109.736 257.652 110.018 257.785C110.303 257.921 110.676 257.989 111.137 257.989C111.753 257.989 112.262 257.839 112.663 257.541C113.064 257.243 113.265 256.776 113.265 256.139V254.588H113.165C113.079 254.727 112.956 254.9 112.797 255.105C112.641 255.307 112.416 255.488 112.121 255.647C111.829 255.803 111.435 255.881 110.938 255.881C110.321 255.881 109.768 255.735 109.277 255.443C108.79 255.152 108.404 254.727 108.119 254.17C107.837 253.614 107.696 252.937 107.696 252.142C107.696 251.36 107.834 250.679 108.109 250.099C108.384 249.515 108.767 249.065 109.257 248.746C109.748 248.425 110.315 248.264 110.958 248.264C111.455 248.264 111.849 248.347 112.141 248.513C112.436 248.675 112.661 248.861 112.817 249.07C112.976 249.275 113.099 249.444 113.185 249.577H113.304V248.364H114.438V256.219C114.438 256.875 114.289 257.409 113.99 257.82C113.695 258.234 113.298 258.537 112.797 258.729C112.3 258.925 111.747 259.023 111.137 259.023ZM111.097 254.827C111.568 254.827 111.965 254.719 112.29 254.504C112.615 254.288 112.862 253.978 113.031 253.574C113.2 253.17 113.284 252.686 113.284 252.122C113.284 251.572 113.202 251.086 113.036 250.665C112.87 250.245 112.625 249.915 112.3 249.676C111.975 249.437 111.574 249.318 111.097 249.318C110.6 249.318 110.185 249.444 109.854 249.696C109.526 249.948 109.279 250.286 109.113 250.71C108.951 251.134 108.87 251.605 108.87 252.122C108.87 252.652 108.953 253.121 109.118 253.529C109.287 253.933 109.536 254.252 109.864 254.484C110.195 254.712 110.606 254.827 111.097 254.827ZM116.586 256V248.364H117.719V249.517H117.799C117.938 249.139 118.19 248.833 118.554 248.597C118.919 248.362 119.33 248.244 119.787 248.244C119.873 248.244 119.981 248.246 120.11 248.249C120.24 248.253 120.337 248.258 120.404 248.264V249.457C120.364 249.447 120.273 249.433 120.13 249.413C119.991 249.389 119.844 249.378 119.688 249.378C119.317 249.378 118.985 249.456 118.694 249.612C118.405 249.764 118.176 249.976 118.007 250.248C117.842 250.516 117.759 250.823 117.759 251.168V256H116.586ZM124.764 256.159C124.028 256.159 123.393 255.997 122.86 255.672C122.329 255.344 121.92 254.886 121.632 254.3C121.347 253.71 121.204 253.024 121.204 252.241C121.204 251.459 121.347 250.77 121.632 250.173C121.92 249.573 122.321 249.106 122.835 248.771C123.352 248.433 123.955 248.264 124.645 248.264C125.042 248.264 125.435 248.33 125.823 248.463C126.211 248.596 126.564 248.811 126.882 249.109C127.2 249.404 127.453 249.795 127.642 250.283C127.831 250.77 127.926 251.37 127.926 252.082V252.58H122.039V251.565H126.733C126.733 251.134 126.646 250.75 126.474 250.412C126.305 250.074 126.063 249.807 125.748 249.612C125.437 249.416 125.069 249.318 124.645 249.318C124.177 249.318 123.773 249.434 123.431 249.666C123.093 249.895 122.833 250.193 122.651 250.561C122.469 250.929 122.377 251.323 122.377 251.744V252.42C122.377 252.997 122.477 253.486 122.676 253.887C122.878 254.285 123.158 254.588 123.516 254.797C123.874 255.002 124.29 255.105 124.764 255.105C125.072 255.105 125.35 255.062 125.599 254.976C125.851 254.886 126.068 254.754 126.25 254.578C126.433 254.399 126.574 254.177 126.673 253.912L127.806 254.23C127.687 254.615 127.487 254.953 127.205 255.244C126.923 255.533 126.575 255.758 126.161 255.92C125.747 256.08 125.281 256.159 124.764 256.159ZM131.958 256.179C131.474 256.179 131.035 256.088 130.64 255.906C130.246 255.72 129.933 255.453 129.701 255.105C129.469 254.754 129.353 254.33 129.353 253.832C129.353 253.395 129.439 253.04 129.611 252.768C129.783 252.493 130.014 252.278 130.302 252.122C130.591 251.966 130.909 251.85 131.257 251.774C131.608 251.695 131.961 251.632 132.316 251.585C132.78 251.526 133.156 251.481 133.444 251.451C133.736 251.418 133.948 251.363 134.081 251.287C134.217 251.211 134.284 251.078 134.284 250.889V250.849C134.284 250.359 134.15 249.978 133.882 249.706C133.617 249.434 133.214 249.298 132.674 249.298C132.114 249.298 131.674 249.421 131.356 249.666C131.038 249.911 130.814 250.173 130.685 250.452L129.571 250.054C129.77 249.59 130.035 249.229 130.367 248.97C130.702 248.708 131.066 248.526 131.461 248.423C131.858 248.317 132.249 248.264 132.634 248.264C132.879 248.264 133.161 248.294 133.479 248.354C133.801 248.41 134.11 248.528 134.409 248.707C134.71 248.886 134.961 249.156 135.159 249.517C135.358 249.878 135.458 250.362 135.458 250.969V256H134.284V254.966H134.225C134.145 255.132 134.013 255.309 133.827 255.498C133.641 255.687 133.395 255.848 133.086 255.98C132.778 256.113 132.402 256.179 131.958 256.179ZM132.137 255.125C132.601 255.125 132.992 255.034 133.31 254.852C133.632 254.669 133.873 254.434 134.036 254.146C134.202 253.857 134.284 253.554 134.284 253.236V252.162C134.235 252.222 134.125 252.276 133.956 252.326C133.791 252.372 133.598 252.414 133.38 252.45C133.164 252.483 132.954 252.513 132.748 252.54C132.546 252.563 132.382 252.583 132.256 252.599C131.951 252.639 131.666 252.704 131.401 252.793C131.139 252.879 130.927 253.01 130.765 253.186C130.605 253.358 130.526 253.594 130.526 253.892C130.526 254.3 130.677 254.608 130.978 254.817C131.283 255.022 131.669 255.125 132.137 255.125ZM140.92 248.364V249.358H136.963V248.364H140.92ZM138.116 246.534H139.29V253.812C139.29 254.144 139.338 254.393 139.434 254.558C139.533 254.721 139.659 254.83 139.812 254.886C139.967 254.939 140.131 254.966 140.304 254.966C140.433 254.966 140.539 254.959 140.622 254.946C140.705 254.929 140.771 254.916 140.821 254.906L141.059 255.96C140.98 255.99 140.869 256.02 140.726 256.05C140.584 256.083 140.403 256.099 140.184 256.099C139.853 256.099 139.528 256.028 139.21 255.886C138.895 255.743 138.633 255.526 138.425 255.234C138.219 254.943 138.116 254.575 138.116 254.131V246.534ZM29.0433 273.159C28.407 273.159 27.8452 272.998 27.358 272.677C26.8707 272.352 26.4896 271.895 26.2145 271.305C25.9394 270.711 25.8018 270.01 25.8018 269.202C25.8018 268.4 25.9394 267.704 26.2145 267.114C26.4896 266.524 26.8724 266.068 27.3629 265.746C27.8535 265.425 28.4202 265.264 29.0632 265.264C29.5604 265.264 29.9531 265.347 30.2415 265.513C30.5331 265.675 30.7552 265.861 30.9077 266.07C31.0634 266.275 31.1844 266.444 31.2706 266.577H31.37V262.818H32.5433V273H31.4098V271.827H31.2706C31.1844 271.966 31.0618 272.142 30.9027 272.354C30.7436 272.562 30.5166 272.75 30.2216 272.915C29.9266 273.078 29.5339 273.159 29.0433 273.159ZM29.2024 272.105C29.6731 272.105 30.0708 271.982 30.3956 271.737C30.7204 271.489 30.9673 271.146 31.1364 270.708C31.3054 270.267 31.3899 269.759 31.3899 269.182C31.3899 268.612 31.3071 268.113 31.1413 267.685C30.9756 267.254 30.7304 266.92 30.4055 266.681C30.0807 266.439 29.6797 266.318 29.2024 266.318C28.7053 266.318 28.291 266.446 27.9595 266.701C27.6314 266.953 27.3845 267.296 27.2188 267.73C27.0563 268.161 26.9751 268.645 26.9751 269.182C26.9751 269.725 27.058 270.219 27.2237 270.663C27.3928 271.104 27.6413 271.455 27.9695 271.717C28.3009 271.976 28.7119 272.105 29.2024 272.105ZM38.0568 273.159C37.321 273.159 36.6863 272.997 36.1527 272.672C35.6224 272.344 35.2131 271.886 34.9247 271.3C34.6397 270.71 34.4972 270.024 34.4972 269.241C34.4972 268.459 34.6397 267.77 34.9247 267.173C35.2131 266.573 35.6141 266.106 36.1278 265.771C36.6449 265.433 37.2481 265.264 37.9375 265.264C38.3352 265.264 38.728 265.33 39.1158 265.463C39.5036 265.596 39.8565 265.811 40.1747 266.109C40.4929 266.404 40.7464 266.795 40.9354 267.283C41.1243 267.77 41.2188 268.37 41.2188 269.082V269.58H35.3324V268.565H40.0256C40.0256 268.134 39.9394 267.75 39.767 267.412C39.598 267.074 39.3561 266.807 39.0412 266.612C38.7296 266.416 38.3617 266.318 37.9375 266.318C37.4702 266.318 37.0658 266.434 36.7244 266.666C36.3864 266.895 36.1262 267.193 35.9439 267.561C35.7616 267.929 35.6705 268.323 35.6705 268.744V269.42C35.6705 269.997 35.7699 270.486 35.9688 270.887C36.1709 271.285 36.451 271.588 36.8089 271.797C37.1669 272.002 37.5829 272.105 38.0568 272.105C38.3651 272.105 38.6435 272.062 38.892 271.976C39.1439 271.886 39.361 271.754 39.5433 271.578C39.7256 271.399 39.8665 271.177 39.9659 270.912L41.0994 271.23C40.9801 271.615 40.7796 271.953 40.4979 272.244C40.2161 272.533 39.8681 272.758 39.4538 272.92C39.0395 273.08 38.5739 273.159 38.0568 273.159ZM45.2507 273.179C44.7668 273.179 44.3277 273.088 43.9332 272.906C43.5388 272.72 43.2256 272.453 42.9936 272.105C42.7616 271.754 42.6456 271.33 42.6456 270.832C42.6456 270.395 42.7318 270.04 42.9041 269.768C43.0765 269.493 43.3068 269.278 43.5952 269.122C43.8835 268.966 44.2017 268.85 44.5497 268.774C44.901 268.695 45.254 268.632 45.6087 268.585C46.0727 268.526 46.4489 268.481 46.7372 268.451C47.0289 268.418 47.241 268.363 47.3736 268.287C47.5095 268.211 47.5774 268.078 47.5774 267.889V267.849C47.5774 267.359 47.4432 266.978 47.1747 266.706C46.9096 266.434 46.5069 266.298 45.9666 266.298C45.4065 266.298 44.9673 266.421 44.6491 266.666C44.331 266.911 44.1072 267.173 43.978 267.452L42.8643 267.054C43.0632 266.59 43.3284 266.229 43.6598 265.97C43.9946 265.708 44.3591 265.526 44.7536 265.423C45.1513 265.317 45.5424 265.264 45.9268 265.264C46.1721 265.264 46.4538 265.294 46.772 265.354C47.0935 265.41 47.4034 265.528 47.7017 265.707C48.0033 265.886 48.2536 266.156 48.4524 266.517C48.6513 266.878 48.7507 267.362 48.7507 267.969V273H47.5774V271.966H47.5178C47.4382 272.132 47.3056 272.309 47.12 272.498C46.9344 272.687 46.6875 272.848 46.3793 272.98C46.071 273.113 45.6948 273.179 45.2507 273.179ZM45.4297 272.125C45.8937 272.125 46.2848 272.034 46.603 271.852C46.9245 271.669 47.1664 271.434 47.3288 271.146C47.4946 270.857 47.5774 270.554 47.5774 270.236V269.162C47.5277 269.222 47.4183 269.276 47.2493 269.326C47.0836 269.372 46.8913 269.414 46.6726 269.45C46.4571 269.483 46.2467 269.513 46.0412 269.54C45.839 269.563 45.675 269.583 45.549 269.599C45.2441 269.639 44.959 269.704 44.6939 269.793C44.4321 269.879 44.2199 270.01 44.0575 270.186C43.8984 270.358 43.8189 270.594 43.8189 270.892C43.8189 271.3 43.9697 271.608 44.2713 271.817C44.5762 272.022 44.9624 272.125 45.4297 272.125ZM52.0655 262.818V273H50.8922V262.818H52.0655ZM55.9645 271.608L55.8849 272.145C55.8286 272.523 55.7424 272.927 55.6264 273.358C55.5137 273.789 55.3961 274.195 55.2734 274.576C55.1508 274.957 55.0497 275.26 54.9702 275.486H54.0753C54.1184 275.274 54.1747 274.994 54.2443 274.646C54.3139 274.298 54.3835 273.908 54.4531 273.477C54.526 273.05 54.5857 272.612 54.6321 272.165L54.6918 271.608H55.9645ZM64.323 273.179C63.8391 273.179 63.3999 273.088 63.0055 272.906C62.6111 272.72 62.2979 272.453 62.0659 272.105C61.8339 271.754 61.7179 271.33 61.7179 270.832C61.7179 270.395 61.804 270.04 61.9764 269.768C62.1487 269.493 62.3791 269.278 62.6674 269.122C62.9558 268.966 63.274 268.85 63.622 268.774C63.9733 268.695 64.3263 268.632 64.6809 268.585C65.1449 268.526 65.5211 268.481 65.8095 268.451C66.1011 268.418 66.3133 268.363 66.4458 268.287C66.5817 268.211 66.6497 268.078 66.6497 267.889V267.849C66.6497 267.359 66.5154 266.978 66.247 266.706C65.9818 266.434 65.5791 266.298 65.0389 266.298C64.4788 266.298 64.0396 266.421 63.7214 266.666C63.4032 266.911 63.1795 267.173 63.0502 267.452L61.9366 267.054C62.1355 266.59 62.4006 266.229 62.7321 265.97C63.0668 265.708 63.4314 265.526 63.8258 265.423C64.2235 265.317 64.6146 265.264 64.9991 265.264C65.2444 265.264 65.5261 265.294 65.8443 265.354C66.1658 265.41 66.4757 265.528 66.774 265.707C67.0756 265.886 67.3258 266.156 67.5247 266.517C67.7235 266.878 67.823 267.362 67.823 267.969V273H66.6497V271.966H66.59C66.5105 272.132 66.3779 272.309 66.1923 272.498C66.0067 272.687 65.7598 272.848 65.4515 272.98C65.1433 273.113 64.7671 273.179 64.323 273.179ZM64.502 272.125C64.966 272.125 65.3571 272.034 65.6752 271.852C65.9967 271.669 66.2387 271.434 66.4011 271.146C66.5668 270.857 66.6497 270.554 66.6497 270.236V269.162C66.6 269.222 66.4906 269.276 66.3216 269.326C66.1558 269.372 65.9636 269.414 65.7449 269.45C65.5294 269.483 65.319 269.513 65.1135 269.54C64.9113 269.563 64.7472 269.583 64.6213 269.599C64.3163 269.639 64.0313 269.704 63.7662 269.793C63.5043 269.879 63.2922 270.01 63.1298 270.186C62.9707 270.358 62.8912 270.594 62.8912 270.892C62.8912 271.3 63.042 271.608 63.3436 271.817C63.6485 272.022 64.0346 272.125 64.502 272.125ZM71.1378 268.406V273H69.9645V265.364H71.098V266.557H71.1974C71.3764 266.169 71.6482 265.857 72.0128 265.622C72.3774 265.384 72.848 265.264 73.4247 265.264C73.9418 265.264 74.3942 265.37 74.782 265.582C75.1697 265.791 75.4714 266.109 75.6868 266.537C75.9022 266.961 76.0099 267.498 76.0099 268.148V273H74.8366V268.227C74.8366 267.627 74.6809 267.16 74.3693 266.825C74.0578 266.487 73.6302 266.318 73.0866 266.318C72.7121 266.318 72.3774 266.399 72.0824 266.562C71.7907 266.724 71.5604 266.961 71.3913 267.273C71.2223 267.584 71.1378 267.962 71.1378 268.406ZM81.0375 273.159C80.4011 273.159 79.8393 272.998 79.3521 272.677C78.8649 272.352 78.4837 271.895 78.2086 271.305C77.9335 270.711 77.796 270.01 77.796 269.202C77.796 268.4 77.9335 267.704 78.2086 267.114C78.4837 266.524 78.8665 266.068 79.3571 265.746C79.8476 265.425 80.4144 265.264 81.0574 265.264C81.5545 265.264 81.9473 265.347 82.2356 265.513C82.5273 265.675 82.7493 265.861 82.9018 266.07C83.0576 266.275 83.1786 266.444 83.2647 266.577H83.3642V262.818H84.5375V273H83.4039V271.827H83.2647C83.1786 271.966 83.0559 272.142 82.8968 272.354C82.7377 272.562 82.5107 272.75 82.2157 272.915C81.9208 273.078 81.528 273.159 81.0375 273.159ZM81.1966 272.105C81.6672 272.105 82.0649 271.982 82.3897 271.737C82.7145 271.489 82.9615 271.146 83.1305 270.708C83.2995 270.267 83.3841 269.759 83.3841 269.182C83.3841 268.612 83.3012 268.113 83.1355 267.685C82.9698 267.254 82.7245 266.92 82.3997 266.681C82.0749 266.439 81.6738 266.318 81.1966 266.318C80.6994 266.318 80.2851 266.446 79.9537 266.701C79.6255 266.953 79.3786 267.296 79.2129 267.73C79.0505 268.161 78.9693 268.645 78.9693 269.182C78.9693 269.725 79.0521 270.219 79.2179 270.663C79.3869 271.104 79.6355 271.455 79.9636 271.717C80.295 271.976 80.706 272.105 81.1966 272.105ZM96.1958 267.074L95.1419 267.372C95.0756 267.196 94.9778 267.026 94.8485 266.86C94.7226 266.691 94.5502 266.552 94.3315 266.442C94.1127 266.333 93.8327 266.278 93.4913 266.278C93.024 266.278 92.6345 266.386 92.323 266.602C92.0147 266.814 91.8606 267.084 91.8606 267.412C91.8606 267.704 91.9667 267.934 92.1788 268.103C92.3909 268.272 92.7224 268.413 93.1731 268.526L94.3066 268.804C94.9894 268.97 95.4982 269.223 95.8329 269.565C96.1677 269.903 96.335 270.339 96.335 270.872C96.335 271.31 96.2091 271.701 95.9572 272.045C95.7086 272.39 95.3606 272.662 94.9132 272.861C94.4657 273.06 93.9454 273.159 93.3521 273.159C92.5732 273.159 91.9286 272.99 91.4181 272.652C90.9077 272.314 90.5846 271.82 90.4487 271.17L91.5623 270.892C91.6684 271.303 91.8689 271.611 92.1639 271.817C92.4622 272.022 92.8516 272.125 93.3322 272.125C93.8791 272.125 94.3133 272.009 94.6348 271.777C94.9596 271.542 95.122 271.26 95.122 270.932C95.122 270.667 95.0292 270.445 94.8436 270.266C94.658 270.083 94.3729 269.947 93.9885 269.858L92.7157 269.56C92.0164 269.394 91.5027 269.137 91.1745 268.789C90.8497 268.438 90.6873 267.999 90.6873 267.472C90.6873 267.041 90.8083 266.66 91.0502 266.328C91.2955 265.997 91.6286 265.737 92.0495 265.548C92.4738 265.359 92.9544 265.264 93.4913 265.264C94.247 265.264 94.8403 265.43 95.2711 265.761C95.7053 266.093 96.0136 266.53 96.1958 267.074ZM100.348 273.179C99.8645 273.179 99.4253 273.088 99.0309 272.906C98.6365 272.72 98.3233 272.453 98.0913 272.105C97.8593 271.754 97.7433 271.33 97.7433 270.832C97.7433 270.395 97.8294 270.04 98.0018 269.768C98.1741 269.493 98.4045 269.278 98.6928 269.122C98.9812 268.966 99.2994 268.85 99.6474 268.774C99.9987 268.695 100.352 268.632 100.706 268.585C101.17 268.526 101.547 268.481 101.835 268.451C102.127 268.418 102.339 268.363 102.471 268.287C102.607 268.211 102.675 268.078 102.675 267.889V267.849C102.675 267.359 102.541 266.978 102.272 266.706C102.007 266.434 101.605 266.298 101.064 266.298C100.504 266.298 100.065 266.421 99.7468 266.666C99.4286 266.911 99.2049 267.173 99.0756 267.452L97.962 267.054C98.1609 266.59 98.426 266.229 98.7575 265.97C99.0922 265.708 99.4568 265.526 99.8512 265.423C100.249 265.317 100.64 265.264 101.025 265.264C101.27 265.264 101.551 265.294 101.87 265.354C102.191 265.41 102.501 265.528 102.799 265.707C103.101 265.886 103.351 266.156 103.55 266.517C103.749 266.878 103.848 267.362 103.848 267.969V273H102.675V271.966H102.615C102.536 272.132 102.403 272.309 102.218 272.498C102.032 272.687 101.785 272.848 101.477 272.98C101.169 273.113 100.792 273.179 100.348 273.179ZM100.527 272.125C100.991 272.125 101.382 272.034 101.701 271.852C102.022 271.669 102.264 271.434 102.426 271.146C102.592 270.857 102.675 270.554 102.675 270.236V269.162C102.625 269.222 102.516 269.276 102.347 269.326C102.181 269.372 101.989 269.414 101.77 269.45C101.555 269.483 101.344 269.513 101.139 269.54C100.937 269.563 100.773 269.583 100.647 269.599C100.342 269.639 100.057 269.704 99.7915 269.793C99.5297 269.879 99.3176 270.01 99.1552 270.186C98.9961 270.358 98.9165 270.594 98.9165 270.892C98.9165 271.3 99.0674 271.608 99.369 271.817C99.6739 272.022 100.06 272.125 100.527 272.125ZM111.961 265.364L109.137 273H107.944L105.12 265.364H106.393L108.501 271.449H108.58L110.688 265.364H111.961ZM116.438 273.159C115.702 273.159 115.067 272.997 114.534 272.672C114.003 272.344 113.594 271.886 113.306 271.3C113.021 270.71 112.878 270.024 112.878 269.241C112.878 268.459 113.021 267.77 113.306 267.173C113.594 266.573 113.995 266.106 114.509 265.771C115.026 265.433 115.629 265.264 116.318 265.264C116.716 265.264 117.109 265.33 117.497 265.463C117.884 265.596 118.237 265.811 118.556 266.109C118.874 266.404 119.127 266.795 119.316 267.283C119.505 267.77 119.6 268.37 119.6 269.082V269.58H113.713V268.565H118.406C118.406 268.134 118.32 267.75 118.148 267.412C117.979 267.074 117.737 266.807 117.422 266.612C117.11 266.416 116.743 266.318 116.318 266.318C115.851 266.318 115.447 266.434 115.105 266.666C114.767 266.895 114.507 267.193 114.325 267.561C114.142 267.929 114.051 268.323 114.051 268.744V269.42C114.051 269.997 114.151 270.486 114.35 270.887C114.552 271.285 114.832 271.588 115.19 271.797C115.548 272.002 115.964 272.105 116.438 272.105C116.746 272.105 117.024 272.062 117.273 271.976C117.525 271.886 117.742 271.754 117.924 271.578C118.106 271.399 118.247 271.177 118.347 270.912L119.48 271.23C119.361 271.615 119.16 271.953 118.879 272.244C118.597 272.533 118.249 272.758 117.835 272.92C117.42 273.08 116.955 273.159 116.438 273.159ZM130.134 269.878V265.364H131.308V273H130.134V271.707H130.055C129.876 272.095 129.597 272.425 129.22 272.697C128.842 272.965 128.365 273.099 127.788 273.099C127.311 273.099 126.886 272.995 126.515 272.786C126.144 272.574 125.852 272.256 125.64 271.832C125.428 271.404 125.322 270.866 125.322 270.216V265.364H126.495V270.136C126.495 270.693 126.651 271.137 126.963 271.469C127.277 271.8 127.678 271.966 128.166 271.966C128.457 271.966 128.754 271.891 129.056 271.742C129.36 271.593 129.616 271.364 129.821 271.056C130.03 270.748 130.134 270.355 130.134 269.878ZM133.457 275.864V265.364H134.59V266.577H134.729C134.816 266.444 134.935 266.275 135.087 266.07C135.243 265.861 135.465 265.675 135.754 265.513C136.045 265.347 136.44 265.264 136.937 265.264C137.58 265.264 138.147 265.425 138.637 265.746C139.128 266.068 139.51 266.524 139.786 267.114C140.061 267.704 140.198 268.4 140.198 269.202C140.198 270.01 140.061 270.711 139.786 271.305C139.51 271.895 139.129 272.352 138.642 272.677C138.155 272.998 137.593 273.159 136.957 273.159C136.466 273.159 136.073 273.078 135.778 272.915C135.483 272.75 135.256 272.562 135.097 272.354C134.938 272.142 134.816 271.966 134.729 271.827H134.63V275.864H133.457ZM134.61 269.182C134.61 269.759 134.695 270.267 134.864 270.708C135.033 271.146 135.28 271.489 135.604 271.737C135.929 271.982 136.327 272.105 136.798 272.105C137.288 272.105 137.697 271.976 138.026 271.717C138.357 271.455 138.606 271.104 138.771 270.663C138.94 270.219 139.025 269.725 139.025 269.182C139.025 268.645 138.942 268.161 138.776 267.73C138.614 267.296 138.367 266.953 138.036 266.701C137.707 266.446 137.295 266.318 136.798 266.318C136.32 266.318 135.919 266.439 135.594 266.681C135.27 266.92 135.024 267.254 134.859 267.685C134.693 268.113 134.61 268.612 134.61 269.182ZM49.4554 282.364V283.358H45.498V282.364H49.4554ZM46.6515 280.534H47.8248V287.812C47.8248 288.144 47.8728 288.393 47.9689 288.558C48.0684 288.721 48.1943 288.83 48.3468 288.886C48.5025 288.939 48.6666 288.966 48.839 288.966C48.9682 288.966 49.0743 288.959 49.1571 288.946C49.24 288.929 49.3063 288.916 49.356 288.906L49.5946 289.96C49.5151 289.99 49.4041 290.02 49.2615 290.05C49.119 290.083 48.9384 290.099 48.7196 290.099C48.3882 290.099 48.0634 290.028 47.7452 289.886C47.4303 289.743 47.1685 289.526 46.9597 289.234C46.7542 288.943 46.6515 288.575 46.6515 288.131V280.534ZM54.2406 290.159C53.5512 290.159 52.9463 289.995 52.426 289.667C51.9089 289.339 51.5046 288.88 51.2129 288.29C50.9245 287.7 50.7804 287.01 50.7804 286.222C50.7804 285.426 50.9245 284.732 51.2129 284.138C51.5046 283.545 51.9089 283.085 52.426 282.756C52.9463 282.428 53.5512 282.264 54.2406 282.264C54.93 282.264 55.5332 282.428 56.0502 282.756C56.5706 283.085 56.975 283.545 57.2633 284.138C57.555 284.732 57.7008 285.426 57.7008 286.222C57.7008 287.01 57.555 287.7 57.2633 288.29C56.975 288.88 56.5706 289.339 56.0502 289.667C55.5332 289.995 54.93 290.159 54.2406 290.159ZM54.2406 289.105C54.7643 289.105 55.1951 288.971 55.5332 288.702C55.8713 288.434 56.1215 288.081 56.2839 287.643C56.4463 287.206 56.5275 286.732 56.5275 286.222C56.5275 285.711 56.4463 285.236 56.2839 284.795C56.1215 284.354 55.8713 283.998 55.5332 283.726C55.1951 283.454 54.7643 283.318 54.2406 283.318C53.7169 283.318 53.286 283.454 52.948 283.726C52.6099 283.998 52.3597 284.354 52.1973 284.795C52.0349 285.236 51.9537 285.711 51.9537 286.222C51.9537 286.732 52.0349 287.206 52.1973 287.643C52.3597 288.081 52.6099 288.434 52.948 288.702C53.286 288.971 53.7169 289.105 54.2406 289.105ZM63.7276 290L68.2816 280.991V280.912H63.0316V279.818H69.5543V280.972L65.0202 290H63.7276ZM74.4526 290.139C73.8693 290.139 73.3439 290.023 72.8766 289.791C72.4093 289.559 72.0347 289.241 71.753 288.837C71.4713 288.432 71.3172 287.972 71.2907 287.455H72.4838C72.5302 287.915 72.7391 288.296 73.1103 288.598C73.4848 288.896 73.9322 289.045 74.4526 289.045C74.8702 289.045 75.2414 288.948 75.5662 288.752C75.8944 288.557 76.1512 288.288 76.3368 287.947C76.5257 287.602 76.6202 287.213 76.6202 286.778C76.6202 286.334 76.5224 285.938 76.3269 285.59C76.1346 285.239 75.8695 284.962 75.5314 284.76C75.1934 284.558 74.8072 284.455 74.373 284.452C74.0615 284.448 73.7417 284.496 73.4135 284.596C73.0854 284.692 72.8153 284.816 72.6032 284.969L71.4498 284.83L72.0662 279.818H77.356V280.912H73.1003L72.7424 283.915H72.802C73.0108 283.749 73.2727 283.612 73.5875 283.502C73.9024 283.393 74.2305 283.338 74.5719 283.338C75.195 283.338 75.7502 283.487 76.2374 283.786C76.7279 284.08 77.1124 284.485 77.3908 284.999C77.6725 285.512 77.8134 286.099 77.8134 286.759C77.8134 287.408 77.6676 287.988 77.3759 288.499C77.0875 289.006 76.6898 289.407 76.1827 289.702C75.6756 289.993 75.0989 290.139 74.4526 290.139ZM84.919 279.818V290H83.7457V279.818H84.919ZM89.3152 290.179C88.8313 290.179 88.3921 290.088 87.9977 289.906C87.6033 289.72 87.2901 289.453 87.0581 289.105C86.8261 288.754 86.71 288.33 86.71 287.832C86.71 287.395 86.7962 287.04 86.9686 286.768C87.1409 286.493 87.3713 286.278 87.6596 286.122C87.948 285.966 88.2662 285.85 88.6142 285.774C88.9655 285.695 89.3185 285.632 89.6731 285.585C90.1371 285.526 90.5133 285.481 90.8017 285.451C91.0933 285.418 91.3055 285.363 91.438 285.287C91.5739 285.211 91.6419 285.078 91.6419 284.889V284.849C91.6419 284.359 91.5076 283.978 91.2392 283.706C90.974 283.434 90.5713 283.298 90.0311 283.298C89.4709 283.298 89.0318 283.421 88.7136 283.666C88.3954 283.911 88.1717 284.173 88.0424 284.452L86.9288 284.054C87.1277 283.59 87.3928 283.229 87.7243 282.97C88.059 282.708 88.4236 282.526 88.818 282.423C89.2157 282.317 89.6068 282.264 89.9913 282.264C90.2366 282.264 90.5183 282.294 90.8365 282.354C91.158 282.41 91.4679 282.528 91.7662 282.707C92.0678 282.886 92.318 283.156 92.5169 283.517C92.7157 283.878 92.8152 284.362 92.8152 284.969V290H91.6419V288.966H91.5822C91.5027 289.132 91.3701 289.309 91.1845 289.498C90.9989 289.687 90.752 289.848 90.4437 289.98C90.1355 290.113 89.7593 290.179 89.3152 290.179ZM89.4941 289.125C89.9582 289.125 90.3493 289.034 90.6674 288.852C90.9889 288.669 91.2309 288.434 91.3933 288.146C91.559 287.857 91.6419 287.554 91.6419 287.236V286.162C91.5922 286.222 91.4828 286.276 91.3137 286.326C91.148 286.372 90.9558 286.414 90.737 286.45C90.5216 286.483 90.3111 286.513 90.1056 286.54C89.9035 286.563 89.7394 286.583 89.6135 286.599C89.3085 286.639 89.0235 286.704 88.7583 286.793C88.4965 286.879 88.2844 287.01 88.122 287.186C87.9629 287.358 87.8833 287.594 87.8833 287.892C87.8833 288.3 88.0342 288.608 88.3358 288.817C88.6407 289.022 89.0268 289.125 89.4941 289.125ZM96.0504 287.216L96.0305 285.764H96.2692L99.6101 282.364H101.062L97.5021 285.963H97.4027L96.0504 287.216ZM94.9567 290V279.818H96.13V290H94.9567ZM99.8089 290L96.826 286.222L97.6612 285.406L101.3 290H99.8089ZM103.745 285.406V290H102.572V279.818H103.745V283.557H103.845C104.024 283.162 104.292 282.849 104.65 282.617C105.011 282.382 105.492 282.264 106.092 282.264C106.612 282.264 107.068 282.369 107.459 282.577C107.85 282.783 108.153 283.099 108.369 283.527C108.588 283.951 108.697 284.491 108.697 285.148V290H107.524V285.227C107.524 284.621 107.366 284.152 107.051 283.82C106.74 283.486 106.307 283.318 105.754 283.318C105.369 283.318 105.025 283.399 104.72 283.562C104.418 283.724 104.179 283.961 104.004 284.273C103.831 284.584 103.745 284.962 103.745 285.406ZM116.252 284.074L115.199 284.372C115.132 284.196 115.034 284.026 114.905 283.86C114.779 283.691 114.607 283.552 114.388 283.442C114.169 283.333 113.889 283.278 113.548 283.278C113.081 283.278 112.691 283.386 112.38 283.602C112.071 283.814 111.917 284.084 111.917 284.412C111.917 284.704 112.023 284.934 112.235 285.103C112.448 285.272 112.779 285.413 113.23 285.526L114.363 285.804C115.046 285.97 115.555 286.223 115.89 286.565C116.224 286.903 116.392 287.339 116.392 287.872C116.392 288.31 116.266 288.701 116.014 289.045C115.765 289.39 115.417 289.662 114.97 289.861C114.522 290.06 114.002 290.159 113.409 290.159C112.63 290.159 111.985 289.99 111.475 289.652C110.964 289.314 110.641 288.82 110.505 288.17L111.619 287.892C111.725 288.303 111.926 288.611 112.221 288.817C112.519 289.022 112.908 289.125 113.389 289.125C113.936 289.125 114.37 289.009 114.691 288.777C115.016 288.542 115.179 288.26 115.179 287.932C115.179 287.667 115.086 287.445 114.9 287.266C114.715 287.083 114.43 286.947 114.045 286.858L112.772 286.56C112.073 286.394 111.559 286.137 111.231 285.789C110.906 285.438 110.744 284.999 110.744 284.472C110.744 284.041 110.865 283.66 111.107 283.328C111.352 282.997 111.685 282.737 112.106 282.548C112.53 282.359 113.011 282.264 113.548 282.264C114.304 282.264 114.897 282.43 115.328 282.761C115.762 283.093 116.07 283.53 116.252 284.074ZM119.013 290.08C118.768 290.08 118.557 289.992 118.382 289.816C118.206 289.64 118.118 289.43 118.118 289.185C118.118 288.939 118.206 288.729 118.382 288.553C118.557 288.378 118.768 288.29 119.013 288.29C119.258 288.29 119.469 288.378 119.644 288.553C119.82 288.729 119.908 288.939 119.908 289.185C119.908 289.347 119.866 289.496 119.784 289.632C119.704 289.768 119.596 289.877 119.46 289.96C119.328 290.04 119.179 290.08 119.013 290.08Z" fill="#222222"/>
<rect x="36.5" y="1.5" width="93" height="93" rx="38.5" fill="#FD6C31"/>
<rect x="36.5" y="1.5" width="93" height="93" rx="38.5" stroke="white" stroke-width="3"/>
<path d="M83.1563 60.3281C81.9219 60.3203 80.7305 60.1133 79.582 59.707C78.4414 59.3008 77.418 58.6406 76.5117 57.7266C75.6055 56.8125 74.8867 55.6016 74.3555 54.0937C73.832 52.5859 73.5703 50.7344 73.5703 48.5391C73.5781 46.5234 73.8086 44.7227 74.2617 43.1367C74.7227 41.543 75.3789 40.1914 76.2305 39.082C77.0898 37.9727 78.1172 37.1289 79.3125 36.5508C80.5078 35.9648 81.8477 35.6719 83.332 35.6719C84.9336 35.6719 86.3477 35.9844 87.5742 36.6094C88.8008 37.2266 89.7852 38.0664 90.5273 39.1289C91.2773 40.1914 91.7305 41.3828 91.8867 42.7031H86.8828C86.6875 41.8672 86.2773 41.2109 85.6523 40.7344C85.0273 40.2578 84.2539 40.0195 83.332 40.0195C81.7695 40.0195 80.582 40.6992 79.7695 42.0586C78.9648 43.418 78.5547 45.2656 78.5391 47.6016H78.7031C79.0625 46.8906 79.5469 46.2852 80.1563 45.7852C80.7734 45.2773 81.4727 44.8906 82.2539 44.625C83.043 44.3516 83.875 44.2148 84.75 44.2148C86.1719 44.2148 87.4375 44.5508 88.5469 45.2227C89.6563 45.8867 90.5313 46.8008 91.1719 47.9648C91.8125 49.1289 92.1328 50.4609 92.1328 51.9609C92.1328 53.5859 91.7539 55.0312 90.9961 56.2969C90.2461 57.5625 89.1953 58.5547 87.8438 59.2734C86.5 59.9844 84.9375 60.3359 83.1563 60.3281ZM83.1328 56.3437C83.9141 56.3437 84.6133 56.1562 85.2305 55.7813C85.8477 55.4062 86.332 54.8984 86.6836 54.2578C87.0352 53.6172 87.2109 52.8984 87.2109 52.1016C87.2109 51.3047 87.0352 50.5898 86.6836 49.957C86.3398 49.3242 85.8633 48.8203 85.2539 48.4453C84.6445 48.0703 83.9492 47.8828 83.168 47.8828C82.582 47.8828 82.0391 47.9922 81.5391 48.2109C81.0469 48.4297 80.6133 48.7344 80.2383 49.125C79.8711 49.5156 79.582 49.9687 79.3711 50.4844C79.1602 50.9922 79.0547 51.5352 79.0547 52.1133C79.0547 52.8867 79.2305 53.5937 79.582 54.2344C79.9414 54.875 80.4258 55.3867 81.0352 55.7695C81.6523 56.1523 82.3516 56.3437 83.1328 56.3437Z" fill="white"/>
</g>
<defs>
<filter id="filter0_i_119_821" x="0" y="0" width="166" height="424" filterUnits="userSpaceOnUse" color-interpolation-filters="sRGB">
<feFlood flood-opacity="0" result="BackgroundImageFix"/>
<feBlend mode="normal" in="SourceGraphic" in2="BackgroundImageFix" result="shape"/>
<feColorMatrix in="SourceAlpha" type="matrix" values="0 0 0 0 0 0 0 0 0 0 0 0 0 0 0 0 0 0 127 0" result="hardAlpha"/>
<feOffset/>
<feGaussianBlur stdDeviation="2"/>
<feComposite in2="hardAlpha" operator="arithmetic" k2="-1" k3="1"/>
<feColorMatrix type="matrix" values="0 0 0 0 0 0 0 0 0 0 0 0 0 0 0 0 0 0 0.25 0"/>
<feBlend mode="normal" in2="shape" result="effect1_innerShadow_119_821"/>
</filter>
</defs>
</svg>
