<svg width="41" height="42" viewBox="0 0 41 42" fill="none" xmlns="http://www.w3.org/2000/svg">
<g clip-path="url(#clip0_14_5556)">
<path fill-rule="evenodd" clip-rule="evenodd" d="M18.1158 3.25491C19.1939 1.68426 20.9513 0.75 22.8255 0.75C26.3202 0.75 29.011 3.91338 28.5263 7.46022L28.1327 10.3408H31.3058C33.0978 10.3408 35.4562 11.2018 37.3636 12.7635C39.3284 14.3726 41 16.8843 41 20.265C41 23.3275 39.7504 28.0297 37.8313 31.9395C36.8622 33.9138 35.6656 35.8062 34.2666 37.2324C32.8829 38.643 31.1146 39.78 29.0404 39.78C22.2424 39.78 15.4532 37.7187 11.9337 36.6501L11.8789 36.6336C11.5456 36.5325 11.2464 36.4416 10.9789 36.3618H10.8029C10.4823 39.1152 8.19485 41.25 5.4207 41.25C2.42693 41.25 0 38.7639 0 35.697V17.0633C0 13.9965 2.42693 11.5104 5.4207 11.5104C7.78906 11.5104 9.80266 13.0663 10.5406 15.2347L18.0768 3.31416C18.0894 3.29415 18.1024 3.27441 18.1158 3.25491ZM10.8414 32.6118V19.4569H11.2374C11.858 19.4569 12.4363 19.1348 12.7737 18.6011L21.1275 5.38728C21.521 4.83081 22.1522 4.5 22.8255 4.5C24.0999 4.5 25.0769 5.65266 24.901 6.94032L24.2156 11.9558C24.1421 12.4932 24.2996 13.0369 24.6472 13.4463C24.9948 13.8557 25.4985 14.0908 26.0282 14.0908H31.3058C32.1349 14.0908 33.7082 14.5713 35.0778 15.6927C36.3893 16.7667 37.3393 18.2796 37.3393 20.265C37.3393 22.5686 36.3122 26.6864 34.5607 30.255C33.6944 32.0199 32.7075 33.5313 31.6842 34.5744C30.646 35.6328 29.754 36.03 29.0404 36.03C22.81 36.03 16.4666 34.1151 12.9191 33.0381L12.9121 33.036C12.4815 32.9052 12.0852 32.7849 11.7398 32.6841C11.5764 32.6361 11.4073 32.6118 11.2374 32.6118H10.8414Z" fill="#FF4639"/>
</g>
<defs>
<clipPath id="clip0_14_5556">
<rect width="41" height="42" fill="white"/>
</clipPath>
</defs>
</svg>
