<svg width="41" height="42" viewBox="0 0 41 42" fill="none" xmlns="http://www.w3.org/2000/svg">
<path fill-rule="evenodd" clip-rule="evenodd" d="M8.72484 0.414108C12.4672 0.142675 16.0391 0 20.5001 0C21.9783 0 23.36 0.0156648 24.6836 0.0465675C26.201 0.0819951 27.688 0.595818 28.9149 1.5554C32.2996 4.20252 34.5191 6.47577 36.983 9.738C38.6183 11.9032 39.4576 14.5519 39.5036 17.2334C39.525 18.4798 39.5358 19.7356 39.5358 21C39.5358 25.6463 39.3897 30.1785 39.1114 34.5474C38.8713 38.3214 35.9486 41.3196 32.2753 41.586C28.5329 41.8572 24.961 42 20.5001 42C16.0391 42 12.4672 41.8572 8.72484 41.586C5.05159 41.3196 2.12883 38.3214 1.88865 34.5474C1.61062 30.1785 1.46436 25.6463 1.46436 21C1.46436 16.3537 1.61062 11.8214 1.88865 7.45257C2.12883 3.6786 5.05159 0.680529 8.72484 0.414108ZM20.5001 3.75C16.1257 3.75 12.64 3.88953 8.98338 4.15473C7.13082 4.2891 5.66241 5.79858 5.5416 7.69653C5.26883 11.983 5.12507 16.4339 5.12507 21C5.12507 25.5661 5.26883 30.0171 5.5416 34.3035C5.66241 36.2013 7.13082 37.7109 8.98341 37.8453C12.64 38.1105 16.1257 38.25 20.5001 38.25C24.8745 38.25 28.3602 38.1105 32.0167 37.8453C33.8693 37.7109 35.3377 36.2013 35.4586 34.3035C35.7313 30.0171 35.8751 25.5661 35.8751 21C35.8751 19.7576 35.8645 18.5236 35.8434 17.2992C35.8104 15.3676 35.2068 13.5143 34.0878 12.0328C31.8205 9.03102 29.8282 6.98766 26.6935 4.53603C26.1018 4.07325 25.3689 3.81354 24.6002 3.7956C23.3067 3.76539 21.9529 3.75 20.5001 3.75ZM12.8372 21.046C12.8372 19.8033 13.8206 18.796 15.0337 18.796H25.9663C27.1793 18.796 28.1627 19.8033 28.1627 21.046C28.1627 22.2886 27.1793 23.296 25.9663 23.296H15.0337C13.8206 23.296 12.8372 22.2886 12.8372 21.046ZM15.0337 9.92304C13.8206 9.92304 12.8372 10.9304 12.8372 12.173C12.8372 13.4157 13.8206 14.423 15.0337 14.423H21.6309C22.844 14.423 23.8273 13.4157 23.8273 12.173C23.8273 10.9304 22.844 9.92304 21.6309 9.92304H15.0337ZM15.0337 27.347C13.8206 27.347 12.8372 28.3543 12.8372 29.597C12.8372 30.8397 13.8206 31.8468 15.0337 31.8468H25.9323C27.1453 31.8468 28.1287 30.8397 28.1287 29.597C28.1287 28.3543 27.1453 27.347 25.9323 27.347H15.0337Z" fill="#FF4639"/>
</svg>
