<svg width="41" height="42" viewBox="0 0 41 42" fill="none" xmlns="http://www.w3.org/2000/svg">
<g clip-path="url(#clip0_14_5544)">
<path fill-rule="evenodd" clip-rule="evenodd" d="M7.50338 4.19106C17.5486 2.47393 23.3647 2.7398 33.4487 4.18353C37.2863 4.73295 41 7.47294 41 12.0623V15.5652C41 16.317 40.5616 16.9962 39.8863 17.2905C38.4038 17.9366 37.3943 19.4095 37.3943 21.0952C37.3943 22.7809 38.4038 24.2538 39.8863 24.8998C40.5616 25.1941 41 25.8733 41 26.6252V30.1281C41 32.2827 40.2175 34.1628 38.805 35.5587C37.4175 36.9303 35.5271 37.7352 33.427 38.0097C23.36 39.3255 17.6592 39.3345 7.57185 38.0097C3.44807 37.4679 0 34.6722 0 30.1281V26.6253C0 25.8734 0.438504 25.1942 1.11397 24.8999C2.59655 24.254 3.60595 22.781 3.60595 21.0952C3.60595 19.4094 2.59656 17.9364 1.11397 17.2904C0.438504 16.9961 0 16.3169 0 15.565V12.0623C0 9.87066 0.840482 8.02161 2.26129 6.65871C3.64783 5.32869 5.50592 4.53249 7.50338 4.19106ZM32.942 7.89744C23.1156 6.49059 17.6883 6.25191 8.1059 7.88991C6.62302 8.14338 5.49397 8.69523 4.76344 9.39597C4.0672 10.0638 3.66071 10.9283 3.66071 12.0623V14.4378C5.81948 15.8348 7.26666 18.2855 7.26666 21.0952C7.26666 23.9049 5.81948 26.3555 3.66071 27.7525V30.1281C3.66071 32.2356 5.15256 33.9111 8.03743 34.29C17.8136 35.5743 23.2023 35.5659 32.9637 34.29C34.4678 34.0932 35.5646 33.5505 36.2633 32.8602C36.9369 32.1945 37.3393 31.2993 37.3393 30.1281V27.7523C35.1806 26.3552 33.7336 23.9047 33.7336 21.0952C33.7336 18.2856 35.1806 15.8351 37.3393 14.438V12.0623C37.3393 10.0002 35.6882 8.29062 32.942 7.89744ZM14.8151 10.2605C12.4578 10.2605 10.5374 12.2122 10.5374 14.6316C10.5374 17.051 12.4578 19.0027 14.8151 19.0027C17.1723 19.0027 19.0927 17.051 19.0927 14.6316C19.0927 12.2122 17.1723 10.2605 14.8151 10.2605ZM26.3034 22.0459C23.9461 22.0459 22.0258 23.9976 22.0258 26.417C22.0258 28.8365 23.9461 30.7881 26.3034 30.7881C28.6607 30.7881 30.581 28.8365 30.581 26.417C30.581 23.9976 28.6607 22.0459 26.3034 22.0459ZM28.5097 14.9514C29.1461 14.1469 29.0253 12.9662 28.2399 12.3142C27.4545 11.6623 26.3019 11.786 25.6655 12.5906C21.299 18.1107 18.4825 20.9544 12.7503 25.7684C11.9685 26.425 11.8543 27.6064 12.4952 28.4072C13.1361 29.208 14.2894 29.325 15.0712 28.6685C20.9726 23.7123 23.9697 20.6909 28.5097 14.9514Z" fill="#FF4639"/>
</g>
<defs>
<clipPath id="clip0_14_5544">
<rect width="41" height="42" fill="white"/>
</clipPath>
</defs>
</svg>
