<svg width="41" height="42" viewBox="0 0 41 42" fill="none" xmlns="http://www.w3.org/2000/svg">
<g clip-path="url(#clip0_14_5548)">
<path fill-rule="evenodd" clip-rule="evenodd" d="M23.5932 1.1871C21.7963 -0.394927 19.1428 -0.39606 17.3451 1.18586C16.7905 1.67383 16.2425 2.16251 15.7006 2.65249C14.9921 2.50573 14.2791 2.36318 13.5607 2.22463C11.2316 1.77547 8.93416 3.13557 8.15024 5.42598C7.90676 6.13737 7.66946 6.84558 7.43813 7.55151C6.73648 7.79268 6.03283 8.04015 5.32634 8.29416C3.09008 9.0981 1.76429 11.4527 2.20332 13.8378C2.33968 14.5786 2.47986 15.3134 2.62409 16.0432C2.13413 16.6115 1.64551 17.1862 1.15762 17.7681C-0.386632 19.6097 -0.385522 22.3279 1.15884 24.1686C1.65004 24.754 2.14168 25.3321 2.63444 25.9034C2.48647 26.6508 2.34276 27.4035 2.20306 28.1625C1.76402 30.5475 3.08982 32.9022 5.32608 33.7062C6.03277 33.9603 6.73662 34.2078 7.43845 34.449C7.66978 35.1549 7.90703 35.8629 8.15051 36.5742C8.93443 38.8647 11.2319 40.2249 13.5609 39.7755C14.2969 39.6336 15.0273 39.4875 15.7528 39.3369C16.2977 39.8298 16.8488 40.3215 17.4068 40.8129C19.2037 42.3948 21.8572 42.396 23.6549 40.8141C24.2094 40.3263 24.7572 39.8376 25.299 39.348C26.0073 39.4947 26.7202 39.6372 27.4385 39.7755C29.7675 40.2249 32.0649 38.8647 32.8489 36.5742C33.0923 35.8629 33.3298 35.1549 33.5608 34.449C34.2628 34.2078 34.9666 33.9603 35.6732 33.7062C37.9095 32.9022 39.2355 30.5475 38.7962 28.1625C38.6601 27.4217 38.5198 26.6869 38.3757 25.9571C38.8657 25.3887 39.3544 24.8139 39.8423 24.2319C41.3866 22.3903 41.3854 19.672 39.8412 17.8314C39.3497 17.2457 38.8577 16.6674 38.3649 16.0959C38.5128 15.3488 38.6566 14.5964 38.7962 13.8378C39.2352 11.4527 37.9095 9.0981 35.6732 8.29416C34.9666 8.04015 34.2628 7.79271 33.5614 7.55154C33.3301 6.84558 33.0926 6.13737 32.8492 5.42598C32.0652 3.13557 29.7678 1.77547 27.4388 2.22463C26.7029 2.36653 25.9727 2.51263 25.2474 2.66316C24.7024 2.17028 24.1513 1.67848 23.5932 1.1871ZM19.7303 4.0305C20.1554 3.65643 20.7816 3.6564 21.207 4.03101C21.9845 4.71552 22.7476 5.4003 23.4982 6.08724C23.9315 6.48378 24.5228 6.64602 25.0916 6.52443C26.0895 6.31107 27.0968 6.10644 28.116 5.90988C28.6668 5.80368 29.209 6.12435 29.3947 6.66672C29.7338 7.65768 30.0603 8.64159 30.3751 9.62094C30.557 10.1863 30.9898 10.6297 31.5416 10.8157C32.5101 11.142 33.4824 11.4808 34.4608 11.8326C34.9897 12.0227 35.3028 12.5781 35.1988 13.1429C35.0055 14.1925 34.8046 15.2291 34.5955 16.2555C34.4766 16.8384 34.635 17.4445 35.0225 17.8884C35.7048 18.6703 36.3852 19.4654 37.0649 20.2757C37.4307 20.7116 37.4307 21.353 37.0655 21.7884C36.3895 22.5945 35.7128 23.3859 35.0333 24.1646C34.6462 24.6084 34.4877 25.2142 34.6063 25.7968C34.8116 26.8061 35.009 27.8254 35.1991 28.8574C35.303 29.4221 34.99 29.9776 34.4611 30.1677C33.4824 30.5196 32.5098 30.8583 31.5413 31.1847C30.9896 31.3707 30.5567 31.8141 30.3748 32.3796C30.06 33.3588 29.7335 34.3425 29.3944 35.3334C29.2087 35.8758 28.6665 36.1965 28.1157 36.0903C27.114 35.8971 26.1237 35.6961 25.1425 35.4867C24.574 35.3655 23.983 35.5278 23.5499 35.9238C22.8024 36.6078 22.0429 37.2891 21.2697 37.9695C20.8445 38.3436 20.2184 38.3436 19.7929 37.9689C19.0156 37.2846 18.2525 36.5997 17.502 35.913C17.0687 35.5164 16.4773 35.3541 15.9086 35.4756C14.9105 35.6892 13.903 35.8938 12.8837 36.0903C12.3329 36.1965 11.7907 35.8758 11.605 35.3337C11.2659 34.3425 10.9393 33.3588 10.6245 32.3796C10.4428 31.8141 10.0099 31.3707 9.458 31.1847C8.48949 30.8583 7.51706 30.5196 6.5383 30.1677C6.00952 29.9776 5.69642 29.4221 5.80039 28.8574C5.99364 27.8074 6.1946 26.7705 6.40391 25.7438C6.52275 25.1609 6.36422 24.5548 5.97678 24.1108C5.29462 23.3292 4.6147 22.5343 3.93503 21.7243C3.56934 21.2884 3.56937 20.647 3.93454 20.2116C4.6103 19.4056 5.28698 18.6143 5.96629 17.8357C6.35348 17.3919 6.51197 16.7862 6.39339 16.2035C6.18795 15.1942 5.9906 14.1748 5.80065 13.1429C5.69669 12.5781 6.00978 12.0227 6.53856 11.8326C7.51715 11.4808 8.48937 11.142 9.4577 10.8157C10.0096 10.6297 10.4425 10.1863 10.6242 9.62094C10.939 8.64159 11.2656 7.65768 11.6048 6.66672C11.7904 6.12435 12.3327 5.80368 12.8834 5.90988C13.8853 6.10311 14.8758 6.30414 15.8571 6.51357C16.4256 6.63492 17.0166 6.47268 17.4497 6.07644C18.1973 5.39244 18.9569 4.71102 19.7303 4.0305ZM27.8328 16.6665C28.7313 15.8316 28.799 14.4086 27.9839 13.4883C27.1689 12.5679 25.7798 12.4986 24.8814 13.3335C22.9071 15.1681 21.3953 16.8436 20.1143 18.8917C19.3584 20.1004 18.7039 21.4053 18.0814 22.9003L16.2197 20.9336C15.3752 20.0416 13.9847 20.0197 13.1138 20.8847C12.243 21.7498 12.2216 23.1742 13.066 24.0663L17.3258 28.5663C17.8563 29.1267 18.6325 29.3654 19.3766 29.197C20.1207 29.0285 20.7264 28.477 20.9769 27.7397C21.9526 24.8685 22.8045 22.9321 23.8132 21.3193C24.8132 19.7204 26.0264 18.3451 27.8328 16.6665Z" fill="#FF4639"/>
</g>
<defs>
<clipPath id="clip0_14_5548">
<rect width="41" height="42" fill="white"/>
</clipPath>
</defs>
</svg>
