<svg xmlns="http://www.w3.org/2000/svg" xml:space="preserve" viewBox="0 0 512 512" fill="orange" id="advantage">
  <path d="M394.641 348.505a30.436 30.436 0 0 0 6.209-18.458c0-16.87-13.725-30.596-30.596-30.596h-56.295a30.308 30.308 0 0 0-15.755 4.382c4.162-7.182 6.397-14.097 7.117-19.316.05-.362.075-.728.075-1.093v-36.782c0-35.766-29.102-64.864-64.872-64.864a8 8 0 0 0-8 8v47.417c0 29.24-22.661 45.215-46.653 62.128-3.677 2.592-7.451 5.26-11.122 7.964h-66.694a8 8 0 0 0-8 8v156.191a8 8 0 0 0 8 8h66.188c20.307 18.452 40.789 24.438 64.634 24.438 18.269 0 38.512-3.511 62.16-7.611l5.621-.973c2.342.576 4.787.888 7.304.888h36.478c16.871 0 30.596-13.726 30.596-30.596a30.42 30.42 0 0 0-5.183-17.021c10.958-4.661 18.661-15.534 18.661-28.173a30.416 30.416 0 0 0-4.704-16.286c11.957-4.163 20.561-15.548 20.562-28.906-.002-11.476-6.356-21.499-15.731-26.733zm-90.981-28.76c2.769-2.77 6.426-4.294 10.3-4.294h56.294c8.048 0 14.596 6.548 14.596 14.596 0 8.049-6.548 14.597-14.597 14.597h-56.292c-8.049 0-14.597-6.548-14.597-14.597.002-3.874 1.527-7.533 4.296-10.302zm-187.605 3.543h53.34c.084 88.085.08 125.831.047 140.191h-53.388V323.288zm69.372 144.727c.007-1.574.013-3.667.019-6.299.013-6.515.019-16.284.019-29.307 0-25.356-.025-63.056-.073-113.093 3.132-2.287 6.346-4.553 9.698-6.916 25.046-17.656 53.434-37.669 53.434-75.206v-38.762c23.156 3.828 40.872 23.989 40.872 48.209v36.187c-.956 5.873-4.989 15.443-13.431 23.892a8 8 0 0 0-.941 10.175c7.053 10.299 9.431 19.91 7.268 29.382-4.113 18.014-24.085 31.175-32.482 35.997a8.001 8.001 0 0 0 7.968 13.876c4.892-2.81 11.178-6.874 17.362-12.136a30.737 30.737 0 0 0 14.433 17.96 30.44 30.44 0 0 0-6.209 18.457c0 8.944 3.859 17.006 9.998 22.605-.345.315-.684.64-1.017.973-5.792 5.792-8.981 13.469-8.98 21.616a30.409 30.409 0 0 0 4.941 16.641c-46.917 8.013-74.864 10.908-102.879-14.251zm165.012 12.207h-36.478c-1.49 0-2.927-.227-4.281-.643l-.125-.04c-5.901-1.873-10.19-7.4-10.19-13.912 0-3.874 1.525-7.533 4.294-10.302 2.77-2.77 6.428-4.295 10.303-4.295H350.439c8.048 0 14.596 6.548 14.596 14.597 0 8.047-6.548 14.595-14.596 14.595zm13.478-45.193h-49.956c-8.048-.001-14.595-6.549-14.596-14.598 0-8.048 6.548-14.596 14.597-14.596h49.955c8.048 0 14.596 6.548 14.596 14.596 0 8.049-6.548 14.597-14.596 14.598zm15.856-45.193h-75.33c-8.049 0-14.597-6.548-14.597-14.596 0-8.049 6.548-14.597 14.597-14.597h75.33c8.048 0 14.597 6.548 14.597 14.596 0 8.049-6.548 14.597-14.597 14.597zM191.297 69.42l27.775 22.324-9.347 34.383c-1.199 4.402.412 8.979 4.103 11.662 3.689 2.681 8.541 2.8 12.357.301L256 118.574l29.817 19.519a10.878 10.878 0 0 0 5.965 1.794c2.238 0 4.471-.701 6.386-2.094 3.693-2.68 5.305-7.258 4.108-11.662l-9.348-34.386 27.773-22.323c3.556-2.857 4.943-7.507 3.533-11.847-1.41-4.337-5.264-7.283-9.82-7.506l-35.592-1.735-12.648-33.314v-.001C264.554 10.755 260.561 8 256 8c-4.561 0-8.555 2.755-10.174 7.02l-12.648 33.314-35.594 1.735c-4.555.222-8.409 3.168-9.819 7.506-1.41 4.339-.023 8.989 3.532 11.845zm46.006-5.269a10.883 10.883 0 0 0 9.644-7.007L256 33.3l9.054 23.848a10.883 10.883 0 0 0 9.644 7.004l25.476 1.242-19.881 15.979a10.88 10.88 0 0 0-3.683 11.337l6.691 24.613-21.341-13.969a10.881 10.881 0 0 0-11.921-.001L228.7 117.322l6.691-24.614a10.88 10.88 0 0 0-3.685-11.335l-19.88-15.979 25.477-1.243zm-83.309 149.94a10.863 10.863 0 0 0 5.964 1.793 10.84 10.84 0 0 0 6.389-2.095c3.691-2.681 5.303-7.258 4.106-11.66l-9.348-34.386 27.775-22.324c3.555-2.858 4.94-7.507 3.532-11.843-1.408-4.338-5.263-7.286-9.82-7.509L147 124.332 134.352 91.02c-1.618-4.265-5.612-7.021-10.174-7.021-4.563 0-8.557 2.756-10.174 7.02l-12.648 33.314-35.593 1.735c-4.557.222-8.412 3.169-9.819 7.506-1.41 4.338-.023 8.987 3.532 11.846l27.775 22.323-9.349 34.386c-1.197 4.402.414 8.979 4.104 11.659 3.689 2.681 8.539 2.799 12.357.301l29.814-19.517 29.817 19.519zm-35.778-34.739-21.34 13.969 6.692-24.613a10.884 10.884 0 0 0-3.685-11.336l-19.88-15.979 25.473-1.242a10.878 10.878 0 0 0 9.647-7.007l9.053-23.845 9.053 23.845a10.878 10.878 0 0 0 9.644 7.006l25.477 1.242-19.881 15.979a10.88 10.88 0 0 0-3.683 11.337l6.691 24.613-21.339-13.968a10.873 10.873 0 0 0-11.922-.001zm337.842-45.779c-1.41-4.337-5.264-7.283-9.82-7.506l-35.592-1.735-12.648-33.313v-.001c-1.619-4.264-5.612-7.019-10.173-7.019-4.563 0-8.557 2.756-10.174 7.019L365 124.333l-35.592 1.735c-4.555.222-8.41 3.168-9.821 7.509-1.407 4.337-.021 8.985 3.534 11.843l27.774 22.323-9.348 34.386c-1.198 4.404.415 8.981 4.103 11.658 3.689 2.683 8.54 2.8 12.358.302l29.814-19.517 29.817 19.518a10.863 10.863 0 0 0 5.964 1.793 10.84 10.84 0 0 0 6.389-2.095c3.691-2.681 5.303-7.258 4.106-11.66l-9.348-34.386 27.774-22.323c3.556-2.856 4.943-7.504 3.534-11.846zm-43.942 23.798a10.88 10.88 0 0 0-3.683 11.337l6.691 24.613-21.338-13.967a10.871 10.871 0 0 0-11.923-.002l-21.34 13.969 6.69-24.611a10.88 10.88 0 0 0-3.683-11.339l-19.88-15.979 25.473-1.242a10.876 10.876 0 0 0 9.646-7.007l9.054-23.846 9.053 23.846a10.88 10.88 0 0 0 9.645 7.006l25.476 1.242-19.881 15.98z"></path>
</svg>
