<svg xmlns="http://www.w3.org/2000/svg" xml:space="preserve" viewBox="0 0 512 512" fill="orange"  id="analysis">
  <path d="M74.884 401.044h63.501a8 8 0 0 0 8-8V207.395a8 8 0 0 0-8-8H74.884a8 8 0 0 0-8 8v185.649a8 8 0 0 0 8 8zm8-185.649h47.501v169.649H82.884V215.395zM393.8 416.626H47.978V63.396a8 8 0 0 0-8-8H16a8 8 0 0 0-8 8v385.209a8 8 0 0 0 8 8h377.8a8 8 0 0 0 8-8v-23.979a8 8 0 0 0-8-8zm-8 23.978H24V71.396h7.978v353.23a8 8 0 0 0 8 8H385.8v7.978zm113.139-44.168-52.558-51.001a16.577 16.577 0 0 0-11.623-4.706l-.26.002c-2.21.033-4.345.493-6.315 1.332l-20.486-19.878c9.525-15.674 15.015-34.059 15.015-53.702 0-33.418-15.892-63.19-40.511-82.169V80.79a8 8 0 0 0-8-8h-63.5a8 8 0 0 0-8 8v85.268a103.027 103.027 0 0 0-38.407 14.358v-39.67a8 8 0 0 0-8-8h-63.5a8 8 0 0 0-8 8v252.298a8 8 0 0 0 8 8h63.5a8 8 0 0 0 8-8v-36.495a103.016 103.016 0 0 0 38.407 14.358v22.136a8 8 0 0 0 8 8h63.5a8 8 0 0 0 8-8v-39.66l18.025 17.491a16.724 16.724 0 0 0-1.141 6.353c.066 4.468 1.863 8.636 5.058 11.734l52.56 51.002a16.645 16.645 0 0 0 11.628 4.707c4.361 0 8.719-1.693 11.988-5.062l18.976-19.557c6.413-6.609 6.253-17.202-.356-23.615zm-82.827-43.792-5.672 5.845-17.69-17.166a104.658 104.658 0 0 0 5.495-6.017l17.867 17.338zm-9.399-84.162c0 48.363-39.346 87.71-87.709 87.71s-87.71-39.347-87.71-87.71 39.347-87.71 87.71-87.71 87.709 39.347 87.709 87.71zM318.702 88.79h47.5v87.358c-14.166-7.271-30.211-11.376-47.198-11.376-.101 0-.201.003-.302.004V88.79zm-70.407 296.254h-47.5V148.746h47.5v43.944c-20.292 18.943-33.001 45.909-33.001 75.792s12.709 56.85 33.001 75.792v40.77zm70.407-.001v-12.854c.101 0 .201.004.302.004 16.987 0 33.033-4.105 47.198-11.376v24.227h-47.5zm169.11 23.865-18.976 19.557a.73.73 0 0 1-.992.015l-52.56-51.002a.671.671 0 0 1-.201-.492.675.675 0 0 1 .187-.498l18.977-19.557a.675.675 0 0 1 .493-.202h.014c.193 0 .356.062.484.188l52.559 51.002c.132.128.2.294.203.493a.674.674 0 0 1-.188.496zM319.004 190.102c-43.22 0-78.381 35.161-78.381 78.381s35.161 78.381 78.381 78.381c43.219 0 78.38-35.161 78.38-78.381s-35.161-78.381-78.38-78.381zm0 140.761c-34.396 0-62.381-27.984-62.381-62.381s27.984-62.381 62.381-62.381 62.38 27.984 62.38 62.381-27.984 62.381-62.38 62.381z"></path>
</svg>
