<svg xmlns="http://www.w3.org/2000/svg" xml:space="preserve" fill="orange"  viewBox="0 0 512 512" id="applied">
  <path d="M347.598 347.368a25.805 25.805 0 0 0-8.326-3.04c1.054-10.08-3.758-20.327-13.087-25.713-4.03-2.326-8.562-3.488-13.099-3.503-.462-9.34-5.496-18.293-14.102-23.262a28.065 28.065 0 0 0-11.634-3.652l28.298-49.015c3.726-6.452 4.71-13.99 2.772-21.224-1.938-7.236-6.56-13.273-13.014-16.999-6.453-3.725-13.99-4.71-21.227-2.772-7.234 1.938-13.271 6.56-16.996 13.014L223.652 286.6c-10.034-5.528-20.545-7.167-30.462-4.743-10.461 2.56-19.139 9.367-25.097 19.686a8.492 8.492 0 0 0-.326.628l-14.817 31.885c-6.278 13.509-5.077 29.094 3.385 43.883l11.655 20.369c1.589 2.778 1.583 5.71-.016 8.481l-12.334 21.363a7.994 7.994 0 0 0 2.928 10.928l110.587 63.848A7.998 7.998 0 0 0 280.083 500l12.336-21.365c.78-1.351 1.791-2.401 3.004-3.121 8.57-5.078 14.883-11.463 19.865-20.093l41.845-72.479c7.179-12.434 2.902-28.392-9.535-35.574zm-4.321 27.575-41.845 72.479c-3.603 6.239-7.972 10.658-14.168 14.33-3.556 2.108-6.565 5.182-8.702 8.886l-8.335 14.435-96.731-55.848 8.335-14.435c4.409-7.639 4.427-16.77.046-24.426l-11.654-20.369c-4.111-7.185-7.928-18.083-2.763-29.194l14.66-31.547c3.71-6.284 8.847-10.38 14.873-11.854 5.854-1.433 12.285-.373 18.657 3.062l-17.308 29.979a8 8 0 0 0 2.928 10.928 8.002 8.002 0 0 0 10.928-2.928l68.843-119.238c1.589-2.752 4.175-4.727 7.28-5.559 3.105-.831 6.332-.415 9.086 1.174 2.752 1.589 4.727 4.175 5.559 7.282.832 3.106.415 6.333-1.173 9.084l-39.011 67.569a8.001 8.001 0 0 0 12.856 9.372c3.888-4.29 10.34-5.307 15.347-2.417 5.785 3.34 7.865 10.814 4.636 16.661a8 8 0 0 0 1.594 9.762 7.997 7.997 0 0 0 9.861.753c3.324-2.227 7.685-2.387 11.109-.41 5 2.886 6.719 9.301 3.834 14.3l-1.499 2.596a8 8 0 0 0 10.074 11.355c2.972-1.271 6.253-1.087 9.005.502 4.796 2.767 6.446 8.921 3.678 13.716zM352.948 8c-54.07 0-98.06 43.989-98.06 98.06 0 54.07 43.989 98.059 98.06 98.059 54.069 0 98.059-43.989 98.059-98.059 0-54.071-43.989-98.06-98.059-98.06zm0 180.118c-45.248 0-82.06-36.812-82.06-82.059 0-45.248 36.812-82.06 82.06-82.06 45.247 0 82.059 36.812 82.059 82.06 0 45.248-36.812 82.059-82.059 82.059zm54.806-119.104a18.352 18.352 0 0 0-13.053-5.364c-4.925.014-9.55 1.945-13.034 5.449l-46.928 47.395-20.246-20.246a18.345 18.345 0 0 0-13.059-5.41c-4.933 0-9.57 1.921-13.058 5.409-3.488 3.488-5.409 8.125-5.409 13.059s1.921 9.571 5.408 13.058l33.35 33.349a18.344 18.344 0 0 0 13.059 5.409c4.933 0 9.569-1.92 13.059-5.409 13.007-13.007 52.938-53.509 59.982-60.623a18.31 18.31 0 0 0 5.365-13.053 18.316 18.316 0 0 0-5.436-13.023zM396.469 83.82c-7.065 7.135-46.974 47.612-59.939 60.579a2.421 2.421 0 0 1-1.745.723 2.419 2.419 0 0 1-1.744-.722l-33.35-33.349h-.001c-.597-.597-.723-1.278-.723-1.744s.126-1.147.724-1.745a2.422 2.422 0 0 1 1.744-.723c.467 0 1.147.125 1.744.723l25.932 25.931a8.004 8.004 0 0 0 5.657 2.343h.02a8 8 0 0 0 5.665-2.371l52.572-53.096a2.392 2.392 0 0 1 1.722-.718h.007c.461 0 1.131.124 1.719.708.592.589.718 1.262.719 1.723a2.422 2.422 0 0 1-.723 1.738zm-193.586 63.965c0-39.119-31.826-70.945-70.945-70.945s-70.944 31.826-70.944 70.945 31.825 70.945 70.944 70.945 70.945-31.826 70.945-70.945zm-70.945 54.945c-30.297 0-54.944-24.648-54.944-54.945s24.647-54.945 54.944-54.945 54.945 24.648 54.945 54.945-24.649 54.945-54.945 54.945zm28.084-73.463h-56.169c-10.142 0-18.408 8.238-18.438 18.388-.027 10.166 8.222 18.46 18.368 18.489 9.882.052 46.426.052 56.288 0 10.166-.028 18.415-8.323 18.388-18.49-.028-10.15-8.295-18.387-18.437-18.387zm-.014 20.877c-9.893.053-46.247.053-56.159 0a2.442 2.442 0 0 1-2.433-2.444 2.446 2.446 0 0 1 2.461-2.432h56.144a2.44 2.44 0 0 1 2.438 2.431 2.445 2.445 0 0 1-2.451 2.445z"></path>
</svg>
